<?xml version="1.0" encoding="utf-8"?>
<!-- Generator: Adobe Illustrator 28.0.0, SVG Export Plug-In . SVG Version: 6.00 Build 0)  -->
<svg version="1.1" id="Calque_1" xmlns="http://www.w3.org/2000/svg" xmlns:xlink="http://www.w3.org/1999/xlink" x="0px" y="0px"
	 viewBox="0 0 3080.7 874.5" style="enable-background:new 0 0 3080.7 874.5;" xml:space="preserve">
<style type="text/css">
	.st0{fill:#354457;}
	.st1{fill:url(#SVGID_1_);}
	.st2{fill:url(#SVGID_00000091718412059922856500000017772668717762586778_);}
	.st3{fill:url(#SVGID_00000140015317847590527920000005408584038059723424_);}
	.st4{fill:url(#SVGID_00000149339831247126042230000005220588806908600994_);}
</style>
<g>
	<path class="st0" d="M995.3,617.5l-47.7-167.3h38.5l27.6,116.2h1.4l30.5-116.2h33.1l30.5,116.4h1.4l27.6-116.4h38.5L1129,617.5
		h-34.5l-31.9-109.3h-1.4l-31.9,109.3L995.3,617.5L995.3,617.5z M1239.1,619.8c-12.9,0-23.9-2.6-33.4-7.8
		c-9.2-5.2-16.4-12.7-21.6-22.4c-5.1-10.7-7.7-22.4-7.5-34.2c0-12.9,2.6-24.2,7.5-33.9c4.9-9.8,12.1-17.3,21.3-22.7
		c9.2-5.5,19.8-8.1,32.2-8.1c10.9,0,21,2.3,29.9,6.9c8.9,4.6,16.1,11.8,21.3,21.3c5.2,9.5,7.8,21.3,7.8,35.4v9.5h-85.4
		c0,9.5,2.6,16.7,7.8,22.1c5.2,5.5,12.1,8.1,20.7,8.1c5.8,0,10.9-1.2,15.2-3.7c4.3-2.6,7.2-6,8.9-10.9l32.2,2
		c-2.6,11.8-8.6,21-18.7,27.9C1267.3,616.3,1254.7,619.8,1239.1,619.8L1239.1,619.8z M1211.3,542.2h52.6c0-7.5-2.6-13.5-7.2-18.4
		s-10.9-7.2-18.4-7.2c-7.8,0-14.1,2.6-19,7.5C1214.3,528.8,1211.4,535.3,1211.3,542.2L1211.3,542.2z M1319.9,617.5V450.1h34.8v63
		h1.2c1.4-3.5,3.7-6.9,6.6-10.4c2.9-3.5,6.6-6.3,11.5-8.9c4.6-2.3,10.6-3.5,17.5-3.5c9.2,0,17.5,2.3,25.3,7.2
		c7.8,4.9,13.8,11.8,18.4,21.6c4.6,9.5,6.9,21.6,6.9,35.9c0,14.1-2.3,25.9-6.9,35.4s-10.6,17-18.4,21.9c-7.8,4.9-16.4,7.5-25.9,7.5
		c-6.6,0-12.4-1.2-17.3-3.5c-4.9-2.3-8.6-5.2-11.5-8.3c-2.9-3.5-5.2-6.9-6.9-10.4h-1.4v20.1h-33.9V617.5z M1354.2,555.1
		c0,11.2,2.3,20.1,6.9,27s11.2,10.1,19.6,10.1c8.6,0,15-3.5,19.6-10.4c4.6-6.9,6.9-15.8,6.9-26.7s-2.3-19.8-6.6-26.5
		c-4.6-6.9-10.9-10.1-19.6-10.1c-8.3,0-15,3.5-19.6,10.1C1356.5,535,1354.2,543.6,1354.2,555.1L1354.2,555.1z M1519.5,617.5V450.1
		h66.1c12.7,0,23.6,2.3,32.5,7.2c8.9,4.9,15.8,11.5,20.4,20.1c4.6,8.6,7.2,18.4,7.2,29.3s-2.3,21-7.2,29.3s-11.8,15-20.7,19.8
		c-9.2,4.9-20.1,7.2-32.8,7.2h-29.6v54.3H1519.5L1519.5,617.5z M1554.8,535h24.2c10.1,0,17.8-2.6,22.7-7.8
		c4.9-5.2,7.5-12.1,7.5-20.1c0-8.3-2.6-15-7.5-20.1c-4.9-5.2-12.7-7.8-22.7-7.8h-23.9V535H1554.8L1554.8,535z M1722.7,619.8
		c-12.9,0-23.9-2.6-33.4-7.8c-9.2-5.2-16.4-12.7-21.6-22.4c-5.1-10.7-7.7-22.4-7.5-34.2c0-12.9,2.6-24.2,7.5-33.9
		c4.9-9.8,12.1-17.3,21.3-22.7c9.2-5.5,19.8-8.1,32.2-8.1c10.9,0,21,2.3,29.9,6.9c8.9,4.6,16.1,11.8,21.3,21.3
		c5.2,9.5,7.8,21.3,7.8,35.4v9.5h-85.4c0,9.5,2.6,16.7,7.8,22.1s12.1,8.1,20.7,8.1c5.8,0,10.9-1.2,15.2-3.7c4.3-2.6,7.2-6,8.9-10.9
		l32.2,2c-2.6,11.8-8.6,21-18.7,27.9C1751.2,616.3,1738.3,619.8,1722.7,619.8L1722.7,619.8z M1694.9,542.2h52.6
		c0-7.5-2.6-13.5-7.2-18.4s-10.9-7.2-18.4-7.2c-7.8,0-14.1,2.6-19,7.5S1695.4,535,1694.9,542.2L1694.9,542.2z M1803.2,617.5V492.1
		h33.6V514h1.4c2.3-7.8,6-13.8,11.5-17.8c5.5-4,11.5-6,18.7-6c3.7,0,7.5,0.3,10.9,1.2V522c-1.7-0.6-4-0.9-6.9-1.4
		c-2.9-0.3-5.5-0.6-8.1-0.6c-7.8,0-14.1,2.3-19,7.2c-5.2,4.9-7.5,11.2-7.5,18.7v71h-34.8L1803.2,617.5L1803.2,617.5z M1969.7,492.1
		v26.2h-25v99.2h-34.8v-99.2h-17.8v-26.2h17.8v-9.2c0-13.8,4-23.9,11.8-30.5c7.8-6.6,17.5-10.1,29.3-10.1c5.5,0,10.4,0.3,14.7,1.2
		c4.3,0.9,7.8,1.4,10.1,2.3l-6,26.2c-1.4-0.6-3.2-0.9-5.2-1.2s-4-0.6-6-0.6c-5.2,0-8.6,1.2-10.6,3.5s-2.9,5.8-2.9,10.1v8.3
		C1945,492.1,1969.7,492.1,1969.7,492.1z M2043,619.8c-12.7,0-23.6-2.6-32.8-8.1c-9.2-5.5-16.4-12.9-21.3-22.7s-7.5-21-7.5-33.9
		s2.6-24.4,7.5-33.9c4.9-9.8,12.1-17.3,21.3-22.7s20.1-8.1,32.8-8.1c12.7,0,23.6,2.6,32.8,8.1c9.2,5.5,16.4,12.9,21.3,22.7
		c4.9,9.8,7.5,21,7.5,33.9s-2.6,24.2-7.5,33.9c-4.9,9.8-12.1,17.3-21.3,22.7C2066.9,617.5,2056,619.8,2043,619.8z M2043.3,593
		c8.6,0,15.2-3.5,19.6-10.9c4.3-7.2,6.6-16.4,6.6-27.3s-2.3-20.1-6.6-27.3c-4.3-7.2-10.9-10.9-19.6-10.9s-15.5,3.7-19.8,10.9
		c-4.6,7.2-6.6,16.4-6.6,27.3s2.3,20.1,6.6,27.3C2028.1,589.6,2034.7,593,2043.3,593z M2127.6,617.5V492.1h33.6V514h1.4
		c2.3-7.8,6-13.8,11.5-17.8c5.5-4,11.5-6,18.7-6c3.7,0,7.5,0.3,10.9,1.2V522c-1.7-0.6-4-0.9-6.9-1.4c-2.9-0.3-5.5-0.6-8.1-0.6
		c-7.8,0-14.1,2.3-19,7.2c-5.2,4.9-7.5,11.2-7.5,18.7v71h-34.8V617.5L2127.6,617.5z M2221.6,617.5V492.1h33.1v22.1h1.4
		c2.6-7.5,6.9-13.2,13.2-17.5c6-4.3,13.5-6.3,21.9-6.3c8.6,0,15.8,2,21.9,6.3c6,4.3,10.1,10.1,12.1,17.3h1.4
		c2.6-7.2,7.2-12.9,13.8-17.3s14.7-6.6,23.9-6.6c11.8,0,21.3,3.7,28.5,11.2c7.2,7.5,10.9,17.8,10.9,31.6v84.2h-34.8v-77.6
		c0-6.9-1.7-12.1-5.5-15.8c-3.8-3.5-8.7-5.3-13.8-5.2c-6.3,0-11.2,2-14.7,6s-5.2,9.2-5.2,15.8v76.5H2296v-78.2
		c0-6-1.7-10.9-5.2-14.7s-8.1-5.5-13.8-5.5s-10.6,2-14.7,6.3s-5.8,9.8-5.8,16.7v75.3h-35.1V617.5z M2467.1,619.8
		c-12.1,0-21.9-3.2-29.9-9.5c-7.8-6.3-11.8-15.5-11.8-27.9c0-9.5,2.3-16.7,6.6-22.1c4.3-5.5,10.1-9.2,17.3-11.8
		c7.2-2.6,15-4,23.3-4.9c10.9-1.2,18.7-2.3,23.3-3.5s6.9-3.7,6.9-7.8v-0.6c0-5.2-1.7-9.2-4.9-12.1c-3.2-2.9-7.8-4.3-13.8-4.3
		c-6.3,0-11.2,1.4-15,4c-3.7,2.6-6,6.3-7.5,10.4l-32.2-2.6c2.1-11.1,8.5-20.9,17.8-27.3c9.5-6.6,21.9-10.1,36.8-10.1
		c9.2,0,18.1,1.4,26.2,4.3s14.7,7.5,19.6,13.8c4.9,6.3,7.5,14.4,7.5,24.4v84.5h-32.5v-17.5h-0.9c-3.2,5.8-7.5,10.6-13.8,14.4
		C2484.1,618.3,2476.3,619.8,2467.1,619.8L2467.1,619.8z M2477.2,595.9c7.8,0,13.8-2.3,18.7-6.6c4.9-4.3,7.5-10.1,7.5-16.7v-13.2
		c-1.4,0.9-3.5,1.7-6.3,2.6c-2.9,0.9-6,1.4-9.2,1.7c-3.2,0.6-6,0.9-8.6,1.4c-6,0.9-10.9,2.6-14.7,5.2c-3.7,2.6-5.5,6.3-5.5,11.2
		s1.7,8.3,5.2,10.9C2467.7,595.1,2471.7,595.9,2477.2,595.9L2477.2,595.9z M2599.7,545v72.5h-34.8V492.1h33.1v22.1h1.4
		c2.9-7.2,7.5-12.9,14.1-17.3s14.4-6.3,23.9-6.3c12.9,0,23.6,4.3,31.3,12.7c7.8,8.3,11.8,19.8,11.8,34.5v79.9h-34.8v-73.6
		c0-7.8-2-13.8-5.8-18.1c-4-4.3-9.5-6.6-16.4-6.6s-12.7,2.3-17.3,6.6S2599.7,537,2599.7,545L2599.7,545z M2764.7,619.8
		c-12.9,0-23.9-2.9-33.1-8.3s-16.4-12.9-21.3-22.7c-4.9-9.8-7.5-21-7.5-33.6c0-12.9,2.6-24.2,7.5-33.9c4.9-9.8,12.1-17.3,21.3-22.7
		c9.2-5.5,20.1-8.3,32.8-8.3c10.9,0,20.4,2,28.8,6s14.7,9.5,19.6,16.7c4.9,7.2,7.5,15.5,7.8,25.3h-32.8c-0.9-6.3-3.5-11.2-7.2-15.2
		c-4-3.7-9.2-5.8-15.5-5.8c-8.1,0-14.7,3.2-19.6,9.8c-4.9,6.6-7.5,15.5-7.5,27.6c0,12.1,2.3,21.3,7.2,27.9
		c4.9,6.6,11.5,9.8,19.6,9.8c6,0,10.9-1.7,15.2-5.5c4-3.7,6.6-8.9,7.8-15.5h32.8c-0.6,9.5-3.2,18.1-7.8,25.3s-10.9,12.9-19.3,17
		C2785.4,617.8,2775.6,619.8,2764.7,619.8z M2900.1,619.8c-12.9,0-23.9-2.6-33.4-7.8c-9.2-5.2-16.4-12.7-21.6-22.4
		c-5.1-10.7-7.7-22.4-7.5-34.2c0-12.9,2.6-24.2,7.5-33.9c4.9-9.8,12.1-17.3,21.3-22.7s19.8-8.1,32.2-8.1c10.9,0,21,2.3,29.9,6.9
		c8.9,4.6,16.1,11.8,21.3,21.3c5.2,9.5,7.8,21.3,7.8,35.4v9.5h-85.4c0,9.5,2.6,16.7,7.8,22.1c5.2,5.5,12.1,8.1,20.7,8.1
		c5.8,0,10.9-1.2,15.2-3.7c4.3-2.6,7.2-6,8.9-10.9l32.2,2c-2.6,11.8-8.6,21-18.7,27.9C2928.3,616.3,2915.6,619.8,2900.1,619.8
		L2900.1,619.8z M2872.2,542.2h52.6c0-7.5-2.6-13.5-7.2-18.4c-4.6-4.9-10.9-7.2-18.4-7.2c-7.8,0-14.1,2.6-19,7.5
		C2875.4,528.9,2872.8,535,2872.2,542.2L2872.2,542.2z M961.4,368.2h-13.8l40-109h13.5l40,109h-13.8l-10.9-30.8h-44L961.4,368.2
		L961.4,368.2z M976.6,325.9h35.7l-17.5-49.2h-0.9L976.6,325.9z M1194.6,293.5c-2.3-7.2-6-12.7-11.5-17c-5.7-4.1-12.5-6.2-19.6-6
		c-6.3,0-12.1,1.7-17.5,5.2c-5.5,3.5-9.5,8.1-12.4,14.7c-3.2,6.6-4.6,14.4-4.6,23.9c0,9.5,1.4,17.3,4.9,23.9
		c3.2,6.6,7.5,11.5,12.7,14.7c10.5,6.4,23.5,6.9,34.5,1.4c4.9-2.6,8.3-6.3,11.2-10.9s4-10.4,4.3-17h-28.8v-11.8h41.4v11.8
		c0,8.9-1.7,16.7-5.5,23.3c-3.7,6.6-9.2,11.8-15.8,15.2c-6.6,3.5-14.4,5.5-23,5.5c-9.8,0-18.1-2.3-25.3-6.9
		c-7.5-4.6-12.9-10.9-17-19.3c-4-8.3-6-18.4-6-29.6c0-11.2,2-21.3,6-29.6c4-8.3,9.8-14.7,16.7-19.3c7.2-4.6,15.5-6.9,24.7-6.9
		c7.8,0,14.4,1.4,21,4.6c6.6,3.2,11.5,7.2,15.5,12.4c4,5.5,6.9,11.5,8.1,18.7C1208.7,294.3,1194.6,293.5,1194.6,293.5z
		 M1298.4,368.2V259.5h65.6v11.8h-52.3v36.8h49.2v11.8h-49.2v36.8h53.5v11.8h-66.7L1298.4,368.2L1298.4,368.2z M1541.6,259.5v109
		H1529l-59.2-85.7h-1.2v85.4h-13.2V259.5h12.7l59.5,85.7h1.2v-85.7C1528.7,259.5,1541.6,259.5,1541.6,259.5z M1722.7,293.5h-13.2
		c-1.2-5.2-3.2-9.2-6-12.7c-3.2-3.5-6.6-6-10.9-7.8c-4.3-1.7-8.9-2.6-13.5-2.6c-6.6,0-12.4,1.7-17.8,5.2c-5.5,3.5-9.8,8.1-12.7,14.7
		c-3.2,6.6-4.6,14.4-4.6,23.9s1.4,17.3,4.6,23.9c3.2,6.6,7.5,11.5,12.7,14.7c9.4,5.8,21.1,6.8,31.3,2.6c4.3-1.7,7.8-4.3,10.9-7.8
		c3.2-3.5,5.2-7.8,6-12.7h13.2c-1.2,7.5-4,13.8-8.1,19c-4,5.5-9.2,9.5-15.5,12.1c-6,2.9-12.7,4.3-20.1,4.3
		c-17.9,0.3-34.2-9.9-41.7-26.2c-4-8.3-6-18.4-6-29.6s2-21.3,6-29.6c7.5-16.2,23.8-26.5,41.7-26.2c7.5,0,14.1,1.4,20.1,4.3
		c6,2.9,11.2,6.9,15.5,12.1C1718.4,279.9,1721.3,286.3,1722.7,293.5z M1811.3,368.2V259.5h65.6v11.8h-52.3v36.8h49.2v11.8h-49.2
		v36.8h53.5v11.8h-66.7L1811.3,368.2L1811.3,368.2z"/>
	<g>
		<linearGradient id="SVGID_1_" gradientUnits="userSpaceOnUse" x1="184.3854" y1="432.9572" x2="295.1005" y2="116.8063">
			<stop  offset="0" style="stop-color:#00F5C7"/>
			<stop  offset="0.154" style="stop-color:#09F4CD"/>
			<stop  offset="0.405" style="stop-color:#21F3DB"/>
			<stop  offset="0.7201" style="stop-color:#49F0F4"/>
			<stop  offset="0.85" style="stop-color:#5BEFFF"/>
			<stop  offset="1" style="stop-color:#BCEDFF"/>
		</linearGradient>
		<path class="st1" d="M331.5,348.1l-22.4-38.8l-0.5-0.9L285.9,268c0,0-42.4-73.8,43.1-137.1l2-1.5h-62.6
			c-111.7,0-181.6,121-125.7,217.7l47.3,82l0.2,0.4c6,10.4,19.3,13.9,29.7,8l103.5-59.8C333.8,371.7,337.4,358.5,331.5,348.1z"/>
		
			<linearGradient id="SVGID_00000094585645569428541150000006407888288453504955_" gradientUnits="userSpaceOnUse" x1="275.1074" y1="578.6913" x2="601.3124" y2="668.5505">
			<stop  offset="0" style="stop-color:#0042FF"/>
			<stop  offset="1" style="stop-color:#C5D0FF"/>
		</linearGradient>
		<path style="fill:url(#SVGID_00000094585645569428541150000006407888288453504955_);" d="M419.9,501.2
			c-6.6-8.7-18.7-11.2-28.2-5.8L288,555.3c-9.8,5.7-13.6,17.9-8.8,28.1l51.4,89.1c55.9,96.8,195.5,96.8,251.4,0l34.8-60.3l-8.4,3.4
			C510.6,657.8,468.2,584,468.2,584L419.9,501.2L419.9,501.2z"/>
		
			<linearGradient id="SVGID_00000067957534546510476100000006235398487321366191_" gradientUnits="userSpaceOnUse" x1="737.0857" y1="161.2272" x2="465.2762" y2="592.8601">
			<stop  offset="0" style="stop-color:#00DFFF"/>
			<stop  offset="0.5053" style="stop-color:#2E8FFF"/>
			<stop  offset="0.6056" style="stop-color:#318EFF"/>
			<stop  offset="0.6861" style="stop-color:#3B8BFF"/>
			<stop  offset="0.7598" style="stop-color:#4C86FF"/>
			<stop  offset="0.829" style="stop-color:#6480FF"/>
			<stop  offset="0.8511" style="stop-color:#6D7DFF"/>
			<stop  offset="0.9189" style="stop-color:#767CFF"/>
			<stop  offset="1" style="stop-color:#877BFF"/>
		</linearGradient>
		<path style="fill:url(#SVGID_00000067957534546510476100000006235398487321366191_);" d="M615.2,310.1l-67.2,116.3l-67.2,116.3
			c-6,10.4-19.3,13.9-29.6,7.9c-1.8-1-3.4-2.3-4.8-3.8l12,20.6l5.7,9.8l0,0l4,6.8c0,0,42.4,73.8,140.2,31.6l8.4-3.4l15-26l44.2-76.5
			L770,347.1c55.8-96.8-14-217.8-125.7-217.8h-50.9l2,1.5c85.6,63.4,43.1,137.1,43.1,137.1L615.2,310.1L615.2,310.1z"/>
		
			<linearGradient id="SVGID_00000051346796150724853040000016523050639679166894_" gradientUnits="userSpaceOnUse" x1="277.5257" y1="199.132" x2="647.5049" y2="241.3016">
			<stop  offset="0" style="stop-color:#00DCFF"/>
			<stop  offset="0.1254" style="stop-color:#09DDFF"/>
			<stop  offset="0.33" style="stop-color:#21E1FF"/>
			<stop  offset="0.5882" style="stop-color:#49E8FF"/>
			<stop  offset="0.8872" style="stop-color:#80F0FF"/>
			<stop  offset="1" style="stop-color:#96F4FF"/>
		</linearGradient>
		<path style="fill:url(#SVGID_00000051346796150724853040000016523050639679166894_);" d="M638.4,268.1c0,0,42.4-73.8-43.1-137.1
			l-2-1.5H331l-2,1.5c-85.6,63.4-43.1,137.1-43.1,137.1l22.7,40.3c-5.5-10.6-1.4-23.7,9.2-29.2c3.1-1.6,6.5-2.4,10-2.4h268.6
			c16.7,0,27.6,18.1,19.3,32.5L638.4,268.1L638.4,268.1z"/>
	</g>
</g>
</svg>
