<svg xmlns="http://www.w3.org/2000/svg" width="409.33" height="166.75"><defs><clipPath id="a"><path d="M0 0h612v792H0z"/></clipPath><clipPath id="b"><path d="M0 0h612v792H0z"/></clipPath></defs><path fill="#09c" d="M84.7 163.05c-34.36-10.44-59.33-42.15-59.33-79.67 0-37.93 25.5-69.9 60.38-80.07C89.32 2.25 88.39 0 84.03 0 37.65 0 0 37.4 0 83.38s37.65 83.37 84.03 83.37c4.36 0 4.63-2.51.66-3.7"/><path fill="#09c" d="M41.35 102.8a57.8 57.8 0 0 1-.4-6.74c0-36.6 29.6-66.2 66.2-66.2 34.62 0 44.93 15.46 46.25 14.4 1.45-1.05-12.55-31.7-53.12-31.7a66.14 66.14 0 0 0-61.7 90.1c1.19 3.18 3.04 3.18 2.77.14"/><path fill="#09c" d="M69.1 55.1c17.18-7.53 38.85-7.8 60.12-.26 14.27 5.02 22.6 12.15 23.26 11.76 1.19-.53-8.33-15.46-25.38-21.94a60.52 60.52 0 0 0-58.92 8.99c-1.85 1.45-1.2 2.38.92 1.45"/><path fill="#f93" d="M409.33 86.28a8.7 8.7 0 1 1-17.44 0 8.71 8.71 0 0 1 8.72-8.72 8.63 8.63 0 0 1 8.72 8.72M125.52 135.04l1.05 11.63h18.37l-6.2-67.52h-27.36l-34.62 67.52h18.77l5.81-11.63zm-.92-13.08H107.8l14.4-29.2h.14zM170.44 117.2h2.78l13.08-17.84h17.04l-18.1 22.73 11.1 24.58h-18.1l-7.27-19.16h-2.64l-4.1 19.16h-15.45l14.26-67.52h15.46z"/><g fill="#f93" clip-path="url(#b)" transform="matrix(5.60732 0 0 -5.60732 -2820.89 4227.9)"><path d="M543.65 727.84h2.76l1.1 5.26c.62 2.9-.5 3.25-3.32 3.25-1.98 0-3.89.02-4.43-2.6h2.76c.16.76.63.92 1.32.92 1.2 0 1.15-.49.99-1.27l-.29-1.34h-.11c-.1.96-1.32.94-2.1.94-2 0-3.18-.64-3.6-2.66-.45-2.15.56-2.62 2.5-2.62.96 0 2.25.2 2.7 1.35h.1zm-.78 3.49c.9 0 1.49-.07 1.34-.78-.18-.87-.56-1.04-1.72-1.04-.42 0-1.2 0-1.01.92.17.78.7.9 1.39.9M551.99 736.28l-.26-1.18h.12c.54.99 1.65 1.27 2.6 1.27 1.17 0 2.35-.21 2.18-1.65h.12c.4 1.2 1.63 1.65 2.69 1.65 1.95 0 2.78-.8 2.35-2.76l-1.22-5.77h-2.76l1.04 4.88c.14.87.28 1.53-.78 1.53-1.08 0-1.44-.7-1.63-1.63l-1.01-4.78h-2.76l1.09 5.11c.14.78.19 1.3-.78 1.3-1.13 0-1.48-.61-1.7-1.63l-1.01-4.78h-2.76l1.8 8.44zM566.9 727.84h2.76l1.13 5.26c.62 2.9-.5 3.25-3.32 3.25-1.98 0-3.89.02-4.43-2.6h2.76c.16.76.63.92 1.32.92 1.2 0 1.15-.49.99-1.27l-.29-1.34h-.11c-.1.96-1.32.94-2.1.94-2 0-3.18-.64-3.6-2.66-.45-2.15.56-2.62 2.5-2.62.96 0 2.25.2 2.7 1.35h.1zm-.75 3.49c.9 0 1.49-.07 1.34-.78-.18-.87-.56-1.04-1.72-1.04-.42 0-1.2 0-1 .92.16.78.7.9 1.38.9"/></g><path fill="#f93" d="M395.86 146.67H380.4l9.9-47.3h15.6z"/></svg>