<svg xmlns="http://www.w3.org/2000/svg" viewBox="0 0 500 165"><defs><clipPath id="a"><path d="M0 0h612v792H0z"/></clipPath></defs><path fill="#09c" d="M136.83 157.66c-32.4-9.85-55.96-39.76-55.96-75.16 0-35.78 24.05-65.93 56.95-75.53 3.37-1 2.5-3.12-1.62-3.12-43.75 0-79.27 35.28-79.27 78.66 0 43.37 35.52 78.64 79.27 78.64 4.12 0 4.37-2.37.62-3.49"/><path fill="#09c" d="M95.94 100.82a54.46 54.46 0 0 1-.38-6.35 62.4 62.4 0 0 1 62.45-62.45c32.66 0 42.39 14.58 43.63 13.58 1.37-.99-11.84-29.9-50.1-29.9-43.9-.04-74.12 44.07-58.21 85 1.12 3 2.86 3 2.61.12"/><path fill="#09c" d="M122.12 55.83c16.2-7.1 36.65-7.36 56.71-.25 13.46 4.74 21.32 11.46 21.94 11.1 1.13-.5-7.86-14.59-23.94-20.7a57.1 57.1 0 0 0-55.58 8.48c-1.75 1.37-1.13 2.24.87 1.37"/><path fill="#f93" d="M443.07 85.24a8.23 8.23 0 1 1-8.23-8.22 8.14 8.14 0 0 1 8.23 8.22m-267.73 46l1 10.97h17.32l-5.85-63.7h-25.8l-32.67 63.7h17.71l5.48-10.97zm-.87-12.34h-15.84l13.58-27.55h.13zm43.25-4.5h2.62l12.34-16.82h16.07l-17.07 21.44 10.47 23.19h-17.08l-6.85-18.08h-2.5l-3.86 18.08h-14.58l13.45-63.7h14.59z"/><g fill="#f93" clip-path="url(#a)" transform="matrix(5.28954 0 0 -5.28954 -2604.09 3992.14)"><path d="M543.65 727.84h2.76l1.1 5.26c.62 2.9-.5 3.25-3.32 3.25-1.98 0-3.89.02-4.43-2.6h2.76c.16.76.63.92 1.32.92 1.2 0 1.15-.49.99-1.27l-.29-1.34h-.11c-.1.96-1.32.94-2.1.94-2 0-3.18-.64-3.6-2.66-.45-2.15.56-2.62 2.5-2.62.96 0 2.25.2 2.7 1.35h.1zm-.78 3.49c.9 0 1.49-.07 1.34-.78-.18-.87-.56-1.04-1.72-1.04-.42 0-1.2 0-1.01.92.17.78.7.9 1.39.9m9.12 4.95l-.26-1.18h.12c.54.99 1.65 1.27 2.6 1.27 1.17 0 2.35-.21 2.18-1.65h.12c.4 1.2 1.63 1.65 2.69 1.65 1.95 0 2.78-.8 2.35-2.76l-1.22-5.77h-2.76l1.04 4.88c.14.87.28 1.53-.78 1.53-1.08 0-1.44-.7-1.63-1.63l-1.01-4.78h-2.76l1.09 5.11c.14.78.19 1.3-.78 1.3-1.13 0-1.48-.61-1.7-1.63l-1.01-4.78h-2.76l1.8 8.44zm14.91-8.44h2.76l1.13 5.26c.62 2.9-.5 3.25-3.32 3.25-1.98 0-3.89.02-4.43-2.6h2.76c.16.76.63.92 1.32.92 1.2 0 1.15-.49.99-1.27l-.29-1.34h-.11c-.1.96-1.32.94-2.1.94-2 0-3.18-.64-3.6-2.66-.45-2.15.56-2.62 2.5-2.62.96 0 2.25.2 2.7 1.35h.1zm-.75 3.49c.9 0 1.49-.07 1.34-.78-.18-.87-.56-1.04-1.72-1.04-.42 0-1.2 0-1 .92.16.78.7.9 1.38.9"/></g><path fill="#f93" d="M430.36 142.2h-14.58l9.34-44.61h14.71z"/></svg>