<?xml version="1.0" encoding="utf-8"?>
<svg viewBox="0 0 500 165" xmlns="http://www.w3.org/2000/svg">
  <g transform="matrix(0.024933, 0, 0, -0.024933, -0.042936, 144.832504)" fill="#000000" stroke="none" style="">
    <path d="M2610 3385 l0 -1615 200 0 200 0 0 1615 0 1615 -200 0 -200 0 0 -1615z"/>
    <path d="M822 4196 c-112 -22 -210 -54 -297 -99 -144 -74 -282 -235 -350 -407 -14 -35 -25 -67 -25 -72 0 -4 94 -8 210 -8 l210 0 20 40 c69 136 260 219 476 206 181 -10 283 -44 352 -115 50 -52 72 -114 72 -206 0 -62 -4 -77 -32 -125 -22 -37 -49 -64 -82 -85 l-49 -30 -301 -7 c-304 -6 -349 -11 -466 -50 -256 -83 -438 -252 -514 -476 -87 -255 -45 -512 119 -730 159 -211 489 -346 763 -313 165 20 270 70 368 173 90 96 147 214 178 374 13 65 14 53 15 -213 l1 -283 205 0 205 0 0 913 c0 1019 2 988 -70 1126 -94 180 -266 300 -529 368 -121 31 -364 41 -479 19z m666 -1478 c-3 -294 -4 -304 -26 -350 -63 -129 -223 -240 -404 -283 -80 -19 -247 -19 -317 0 -163 43 -281 155 -321 305 -15 57 -15 182 1 246 36 148 141 255 298 305 58 19 101 22 361 28 266 7 300 10 345 28 28 12 54 21 58 22 4 1 7 -135 5 -301z"/>
    <path d="M4593 4199 c-148 -25 -315 -133 -414 -269 l-44 -61 -3 141 -3 140 -204 0 -205 0 0 -1190 0 -1190 205 0 205 0 0 828 c0 903 -1 886 58 996 36 69 145 175 212 208 202 99 429 65 585 -88 60 -60 95 -113 127 -200 l23 -59 3 -842 3 -843 199 0 200 0 0 808 c0 533 4 829 11 868 42 234 258 413 499 414 221 0 427 -161 485 -381 12 -45 15 -196 15 -881 l0 -828 205 0 206 0 -4 828 c-3 735 -5 835 -21 896 -85 351 -343 608 -694 693 -97 23 -277 23 -372 -1 -204 -52 -411 -186 -498 -323 -15 -23 -30 -43 -33 -43 -4 0 -18 18 -32 39 -48 73 -149 171 -231 225 -159 105 -317 143 -483 115z"/>
    <path d="M8335 4195 c-136 -26 -275 -80 -369 -144 -56 -38 -139 -126 -186 -198 -44 -66 -110 -206 -110 -232 0 -8 67 -11 209 -11 l209 0 31 54 c54 97 176 166 333 189 99 14 268 -2 359 -36 90 -32 133 -68 169 -140 70 -139 19 -308 -110 -366 -28 -13 -93 -17 -335 -22 -266 -6 -309 -9 -383 -29 -343 -91 -553 -297 -616 -603 -66 -318 87 -657 368 -816 169 -96 375 -142 544 -122 163 20 257 63 357 165 101 102 159 220 189 388 13 69 14 57 15 -214 l1 -288 205 0 205 0 0 908 c0 1006 1 985 -66 1120 -42 85 -137 192 -221 248 -75 50 -197 100 -313 131 -123 32 -362 41 -485 18z m673 -1477 c-3 -298 -3 -304 -27 -353 -56 -115 -222 -233 -387 -275 -93 -24 -254 -27 -333 -5 -231 61 -364 256 -332 486 5 41 17 93 25 117 31 88 110 174 201 220 97 49 136 54 445 61 266 7 300 10 345 28 28 12 54 21 58 22 4 1 7 -135 5 -301z"/>
    <path d="M10945 4197 c-150 -39 -289 -159 -381 -329 l-34 -63 0 173 0 172 -200 0 -200 0 0 -1190 0 -1190 200 0 199 0 4 818 c3 728 5 823 20 872 60 197 177 314 354 356 108 26 319 10 426 -31 16 -7 17 6 17 179 l0 186 -27 11 c-96 37 -298 56 -378 36z"/>
    <path d="M12620 4200 c-483 -66 -843 -453 -926 -995 -22 -142 -14 -473 15 -602 111 -502 419 -808 884 -879 121 -19 301 -14 422 11 308 64 587 285 714 566 30 68 81 220 81 245 0 12 -32 14 -197 14 l-198 0 -46 -98 c-130 -271 -324 -401 -600 -402 -352 -1 -614 252 -674 650 -8 52 -15 112 -15 133 l0 37 887 0 886 0 -6 128 c-32 611 -265 990 -701 1138 -145 50 -381 74 -526 54z m258 -326 c304 -63 527 -301 557 -596 l7 -68 -672 0 -672 0 7 58 c22 183 100 342 226 456 151 137 349 191 547 150z"/>
    <path d="M15435 4204 c-186 -30 -407 -161 -506 -300 l-34 -46 -3 146 -3 146 -199 0 -200 0 0 -1190 0 -1190 200 0 200 0 0 813 c0 885 1 893 57 1007 54 107 178 204 313 245 30 9 100 19 155 22 291 17 510 -115 583 -351 14 -44 17 -158 19 -893 l4 -843 199 0 200 0 0 833 c0 538 -4 854 -11 893 -61 347 -326 615 -679 688 -81 16 -246 27 -295 20z"/>
    <path d="M17785 4194 c-239 -43 -419 -149 -541 -320 -44 -62 -106 -185 -119 -237 l-7 -27 211 0 211 0 20 40 c70 138 259 219 481 206 228 -13 361 -80 403 -203 51 -149 -12 -302 -143 -349 -25 -9 -108 -13 -281 -14 -336 0 -452 -21 -631 -110 -183 -93 -314 -239 -373 -419 -86 -261 -46 -508 116 -725 161 -215 489 -350 766 -317 165 20 270 70 368 173 92 98 150 222 179 381 12 67 13 52 14 -215 l1 -288 205 0 206 0 -3 943 c-3 933 -3 943 -24 997 -32 84 -62 140 -106 195 -178 228 -592 353 -953 289z m673 -1476 c-3 -298 -3 -304 -27 -353 -57 -116 -221 -233 -387 -275 -93 -24 -254 -27 -333 -5 -179 47 -303 178 -331 351 -20 121 18 274 92 366 42 54 135 113 217 139 58 19 101 22 361 28 266 7 300 10 345 28 28 12 54 21 58 22 4 1 7 -135 5 -301z"/>
    <path d="M19690 2261 c-99 -32 -168 -110 -185 -208 -15 -91 47 -209 134 -253 155 -78 340 22 358 192 14 143 -85 262 -228 273 -30 3 -65 1 -79 -4z m138 -56 c75 -32 122 -103 122 -185 0 -168 -185 -257 -323 -156 -34 25 -77 109 -77 151 0 144 147 244 278 190z"/>
    <path d="M19660 2025 l0 -125 25 0 c23 0 25 3 25 50 0 38 4 50 15 50 8 0 31 -22 51 -50 26 -36 43 -50 60 -50 31 0 30 8 -5 55 l-29 39 24 23 c34 31 33 85 -2 112 -21 17 -41 21 -95 21 l-69 0 0 -125z m140 60 c19 -23 -5 -45 -51 -45 -37 0 -39 2 -39 30 0 28 2 30 39 30 22 0 44 -6 51 -15z"/>
    <path d="M7099 754 c-59 -18 -134 -84 -149 -130 -19 -57 -8 -136 24 -178 37 -49 84 -71 215 -102 164 -38 216 -83 192 -165 -17 -57 -74 -92 -156 -97 -35 -2 -80 1 -100 8 -53 17 -103 72 -111 120 l-7 40 -48 0 c-56 0 -59 -7 -34 -81 22 -63 66 -113 127 -143 46 -23 64 -26 153 -26 89 0 107 3 154 26 92 46 143 142 120 227 -25 95 -91 140 -269 183 -97 23 -120 32 -147 59 -38 38 -42 74 -14 121 28 46 80 67 160 62 86 -4 124 -30 148 -99 17 -48 18 -49 60 -49 42 0 43 1 43 32 0 45 -36 113 -78 148 -68 56 -185 75 -283 44z"/>
    <path d="M7984 761 c-140 -36 -239 -155 -266 -316 -28 -170 59 -354 197 -420 47 -22 67 -25 157 -25 92 0 110 3 155 26 71 35 130 97 167 174 29 61 31 72 31 180 0 106 -2 120 -29 177 -34 73 -113 154 -182 185 -51 22 -177 33 -230 19z m191 -100 c53 -24 119 -100 139 -158 9 -27 16 -80 16 -123 0 -96 -20 -156 -73 -216 -53 -61 -104 -83 -186 -84 -156 0 -256 117 -256 300 0 131 54 233 147 279 56 27 156 28 213 2z"/>
    <path d="M11584 761 c-140 -36 -239 -155 -266 -316 -28 -170 59 -354 197 -420 47 -22 67 -25 157 -25 92 0 110 3 155 26 71 35 130 97 167 174 29 61 31 72 31 180 0 106 -2 120 -29 177 -34 73 -113 154 -182 185 -51 22 -177 33 -230 19z m191 -100 c53 -24 119 -100 139 -158 9 -27 16 -80 16 -123 0 -96 -20 -156 -73 -216 -53 -61 -104 -83 -186 -84 -156 0 -256 117 -256 300 0 131 54 233 147 279 56 27 156 28 213 2z"/>
    <path d="M13319 754 c-59 -18 -134 -84 -149 -130 -19 -57 -8 -136 24 -178 37 -49 84 -71 215 -102 164 -38 216 -83 192 -165 -17 -57 -74 -92 -156 -97 -35 -2 -80 1 -100 8 -53 17 -103 72 -111 120 l-7 40 -48 0 c-56 0 -59 -7 -34 -81 22 -63 66 -113 127 -143 46 -23 64 -26 153 -26 89 0 107 3 154 26 92 46 143 142 120 227 -25 95 -91 140 -269 183 -97 23 -120 32 -147 59 -38 38 -42 74 -14 121 28 46 80 67 160 62 86 -4 124 -30 148 -99 17 -48 18 -49 60 -49 42 0 43 1 43 32 0 45 -36 113 -78 148 -68 56 -185 75 -283 44z"/>
    <path d="M5410 380 l0 -370 50 0 50 0 0 370 0 370 -50 0 -50 0 0 -370z"/>
    <path d="M5732 708 l3 -43 128 -3 127 -3 0 -324 0 -325 45 0 45 0 0 325 0 325 125 0 125 0 0 45 0 45 -301 0 -300 0 3 -42z"/>
    <path d="M8690 380 l0 -370 235 0 235 0 0 40 0 40 -185 0 -185 0 0 330 0 330 -50 0 -50 0 0 -370z"/>
    <path d="M9342 483 c3 -247 5 -272 24 -313 29 -63 69 -107 128 -140 46 -27 60 -30 139 -30 53 0 101 6 122 14 49 21 120 90 147 144 22 45 23 57 26 320 l3 272 -45 0 -46 0 0 -230 c0 -274 -7 -316 -62 -376 -47 -51 -91 -68 -164 -62 -66 6 -118 43 -151 108 -22 43 -23 54 -23 302 l0 258 -51 0 -50 0 3 -267z"/>
    <path d="M10142 708 l3 -43 128 -3 127 -3 0 -324 0 -325 45 0 45 0 0 325 0 325 125 0 125 0 0 45 0 45 -301 0 -300 0 3 -42z"/>
    <path d="M10960 380 l0 -370 50 0 50 0 0 370 0 370 -50 0 -50 0 0 -370z"/>
    <path d="M12290 380 l0 -370 50 0 50 0 2 297 3 297 185 -297 184 -297 58 0 58 0 0 370 0 370 -50 0 -50 0 -2 -297 -3 -297 -185 297 -185 297 -57 0 -58 0 0 -370z"/>
  </g>
</svg>