<?xml version="1.0"?>
<svg width="1800" height="595.3" xmlns="http://www.w3.org/2000/svg" xmlns:svg="http://www.w3.org/2000/svg" enable-background="new 0 0 595.3 595.3" version="1.1" xml:space="preserve">
 <metadata id="metadata61">image/svg+xml</metadata>
 <style id="style2" type="text/css">.st0{fill:#FFFFFF;}
	.st1{fill:#F2E207;}
	.st2{fill:#2C4D9D;}
	.st3{fill:#020203;}
	.st4{fill:none;stroke:#020203;stroke-width:4;stroke-linecap:round;stroke-linejoin:round;stroke-miterlimit:10;}
	.st5{fill:none;stroke:#020203;stroke-miterlimit:10;}</style>
 <g class="layer">
  <title>Layer 1</title>
  <g id="svg_1">
   <path class="st0" d="m721.53,256.35c0,0 0.75,24.74 12.12,41.87s47.74,52.49 47.74,52.49s56.74,16.62 82.73,1.75c26.12,-14.87 59.74,-29.74 83.86,-72.61c24.12,-42.86 46.49,-106.1 57.61,-139.59c11.12,-33.49 38.24,-46.74 84.23,-51.36c45.99,-4.5 97.23,17.37 97.23,17.37s-26.37,-48.74 -61.11,-63.24s-87.85,-37.62 -152.46,0s-94.23,85.98 -128.97,158.71c-25.12,52.49 -43.61,53.86 -88.23,57.61s-34.74,-3 -34.74,-3z" id="path4"/>
   <path class="st1" d="m782.39,356.32c0,0 39.49,38.24 75.61,54.49s162.59,34.87 229.7,-13.62s106.73,-114.72 114.72,-180.21s-1.37,-97.98 -30.12,-113.35c-28.74,-15.37 -140.47,-30.24 -170.21,40.37c-29.74,70.73 -44.61,160.09 -100.48,186.08c-55.86,26.12 -76.48,30.12 -107.1,22.49s-12.12,3.75 -12.12,3.75z" id="path6"/>
   <path class="st2" d="m767.52,80.76c0,0 -11.12,-14.87 -44.61,-3.75s-55.86,26.12 -63.24,52.11s-19.25,51.11 -5.87,68.36c13.37,17.25 35.62,43.36 54.24,50.74l0,-70.73l6.25,-47.86l13.12,-19.25l30.74,-19l9.37,-10.62l0,0z" id="path8"/>
   <path class="st2" d="m693.04,80.76c0,0 -11.12,-22.37 -55.86,-22.37s-29.74,11.12 -29.74,11.12s48.36,37.24 44.61,55.86l40.99,-44.61z" id="path10"/>
   <circle class="st3" cx="1023.84" cy="62.89" id="circle12" r="9.25"/>
   <path class="st3" d="m1205.17,186.74c-4.12,0 -7.5,-3.37 -7.5,-7.5c0,-82.23 -66.98,-149.22 -149.22,-149.22c-31.87,0 -62.36,9.87 -87.98,28.74c-3.37,2.37 -8,1.75 -10.37,-1.62c-2.37,-3.37 -1.75,-8 1.62,-10.37c28.24,-20.62 61.74,-31.62 96.73,-31.62c90.48,0 164.09,73.61 164.09,164.09c0.12,4.25 -3.25,7.5 -7.37,7.5z" id="path14"/>
   <path class="st3" d="m954.48,437.43c-142.34,0 -258.19,-115.85 -258.19,-258.19c0,-8.75 0.5,-17.62 1.37,-26.37c0.37,-4.12 4.12,-7.12 8.12,-6.62c4.12,0.37 7.12,4.12 6.62,8.12c-0.87,8.25 -1.25,16.62 -1.25,24.87c0,134.09 109.1,243.32 243.32,243.32c134.09,0 243.32,-109.1 243.32,-243.32c0,-4.12 3.37,-7.5 7.5,-7.5s7.5,3.37 7.5,7.5c-0.12,142.47 -115.97,258.19 -258.31,258.19z" id="path16"/>
   <path class="st3" d="m749.28,265.97c-4.37,0 -7.87,-0.12 -8,-0.12c-55.61,0 -100.98,-45.36 -100.98,-101.1s45.36,-101.1 101.1,-101.1c36.62,0 57.36,17.75 58.11,18.5c2.5,2.12 3.25,5.62 1.87,8.62c-1.37,3 -4.5,4.75 -7.75,4.37c-3.12,-0.37 -6.25,-0.62 -9.5,-0.62c-44.24,0 -72.86,29.37 -72.86,74.98c0,4.12 -3.37,7.5 -7.5,7.5s-7.5,-3.37 -7.5,-7.5c0,-46.61 26.62,-79.98 67.86,-87.98c-6.5,-1.75 -14.25,-2.87 -22.99,-2.87c-47.61,0 -86.23,38.74 -86.23,86.23s38.74,86.23 86.23,86.23c0.25,0 8,0.12 14.62,0c6.75,-0.12 14.12,-0.75 14.12,-0.75c1.62,-0.12 33.62,-2.37 62.11,-43.11c5.5,-7.75 11.5,-19.12 18.62,-32.24c32.12,-59.74 85.98,-159.71 208.83,-159.71c4.12,0 7.5,3.37 7.5,7.5c0,4.12 -3.37,7.5 -7.5,7.5c-113.97,0 -163.21,91.35 -195.7,151.84c-7.25,13.5 -13.5,25.12 -19.5,33.62c-32.99,47.24 -71.86,49.36 -73.48,49.49c0,0 -7.62,0.62 -14.75,0.75c-2,0 -4.5,0 -6.75,0z" id="path18"/>
   <path class="st3" d="m650.67,147.62c-4.12,0 -7.5,-3.37 -7.5,-7.5c0,-31.74 -22.24,-58.86 -48.49,-59.11c-3,0 -5.62,-1.87 -6.87,-4.62s-0.5,-6 1.62,-8.12c14.25,-14.37 33.12,-22.24 53.24,-22.24c17.75,0 34.87,6.25 48.49,17.75c0.12,0.12 0.25,0.12 0.25,0.25c0.87,0.75 8.25,7.75 12.25,13.5c2.37,3.37 1.62,8 -1.75,10.37c-3.37,2.37 -8,1.62 -10.37,-1.75c-2.62,-3.62 -8.12,-9.12 -10.12,-11.12c-10.75,-8.87 -24.49,-13.87 -38.62,-13.87c-10.87,0 -21.37,2.87 -30.49,8.25c26.12,9.25 45.86,37.99 45.86,70.86c0,4.12 -3.37,7.37 -7.5,7.37z" id="path20"/>
   <path class="st4" d="m612.18,100.38" id="path22"/>
   <path class="st3" d="m829.76,363.82c-21.25,0 -43.99,-4.75 -68.11,-14.12c-3.87,-1.5 -5.75,-5.87 -4.25,-9.62c1.5,-3.87 5.75,-5.75 9.62,-4.25c41.74,16.37 78.48,17.37 109.47,3.25c62.24,-28.49 92.48,-113.97 112.47,-170.59c4,-11.25 7.75,-21.99 11.37,-30.87c13.12,-32.74 45.49,-52.49 91.23,-55.49c47.36,-3.12 96.35,13.25 109.22,36.24c2,3.62 0.75,8.12 -2.87,10.12c-3.62,2 -8.12,0.75 -10.12,-2.87c-8.87,-15.87 -51.49,-31.49 -95.23,-28.62c-22.99,1.5 -63.74,9.5 -78.36,46.11c-3.5,8.75 -7.25,19.25 -11.12,30.37c-20.87,58.86 -52.49,147.97 -120.35,179.08c-16.5,7.5 -34.12,11.25 -52.99,11.25z" id="path24"/>
   <path class="st4" d="m1200.3,140.25" id="path26"/>
   <path class="st5" d="m1158.06,100.38" id="path28"/>
   <path class="st3" d="m668.79,576.77l-16.62,0l0,-109.47l16.62,0l0,28.12c7.75,-5.5 16.5,-8.25 26.49,-8.25c12.87,0 23.74,4.5 32.87,13.62c9.12,9.12 13.62,20 13.62,32.87c0,12.87 -4.5,23.74 -13.62,32.87c-9.12,9.12 -20,13.62 -32.87,13.62c-10,0 -18.87,-2.75 -26.49,-8.25l0,4.87zm5.37,-21.99c5.87,5.87 12.87,8.75 21.12,8.75c8.25,0 15.25,-2.87 21.12,-8.75c5.87,-5.87 8.75,-12.87 8.75,-21.12s-2.87,-15.25 -8.75,-21.12c-5.87,-5.87 -12.87,-8.75 -21.12,-8.75c-8.25,0 -15.25,2.87 -21.12,8.75c-2.25,2.25 -4,4.62 -5.5,7.25l0,27.62c1.5,2.75 3.37,5.12 5.5,7.37z" id="path30"/>
   <path class="st3" d="m828.01,571.9c-7.75,5.5 -16.5,8.25 -26.49,8.25c-12.87,0 -23.74,-4.5 -32.87,-13.62c-9.12,-9.12 -13.62,-20 -13.62,-32.87c0,-12.87 4.5,-23.74 13.62,-32.87c9.12,-9.12 20,-13.62 32.87,-13.62c10,0 18.87,2.75 26.49,8.25l0,-4.87l16.62,0l0,86.23l-16.62,0l0,-4.87zm0,-24.37l0,-27.62c-1.37,-2.62 -3.25,-5.12 -5.5,-7.25c-5.87,-5.87 -12.87,-8.75 -21.12,-8.75c-8.25,0 -15.25,2.87 -21.12,8.75c-5.87,5.87 -8.75,12.87 -8.75,21.12s2.87,15.25 8.75,21.12c5.87,5.87 12.87,8.75 21.12,8.75c8.25,0 15.25,-2.87 21.12,-8.75c2.25,-2.37 4.12,-4.75 5.5,-7.37z" id="path32"/>
   <path class="st3" d="m883.99,467.3l0,109.47l-16.62,0l0,-109.47l16.62,0z" id="path34"/>
   <path class="st3" d="m961.1,507.54c-4.37,-2.5 -9.12,-3.75 -14.5,-3.75c-8.25,0 -15.25,2.87 -21.12,8.75c-5.87,5.87 -8.75,12.87 -8.75,21.12c0,5 1.12,9.5 3.25,13.75c0.12,0.25 0.25,0.5 0.37,0.75l11.62,11.62c4.37,2.5 9.12,3.75 14.5,3.75c9.12,0 17,-3.75 23.49,-11.37l13,10.25c-9.75,11.87 -21.87,17.75 -36.49,17.75c-12.87,0 -23.74,-4.5 -32.87,-13.62c-9.12,-9.12 -13.62,-20 -13.62,-32.87c0,-12.87 4.5,-23.74 13.62,-32.87c9.12,-9.12 20,-13.62 32.87,-13.62c2.62,0 5.12,0.25 7.62,0.62c9.62,1.5 17.25,5.62 23.87,13.87" id="path36"/>
   <path class="st3" d="m1114.94,517.41l0,59.49l-16.62,0l0,-86.35l16.62,0l0,3.5c6.75,-4.37 14.5,-6.62 23.24,-6.62c12,0 22.12,4.25 30.49,12.62c8.37,8.37 12.62,18.62 12.62,30.49l0,46.49l-16.62,0l0,-46.49c0,-7.37 -2.62,-13.62 -7.75,-18.75s-11.37,-7.75 -18.75,-7.75c-7.37,0 -13.62,2.62 -18.75,7.75c-1.75,1.62 -3.25,3.5 -4.5,5.62z" id="path38"/>
   <path class="st3" d="m917.74,569.9c-4.75,-5.87 -6.62,-13.75 -5.25,-21.49c1.5,-8.25 6.5,-15.25 14,-19.62c4.37,-2.62 10.5,-3.87 17.5,-5.37c4.87,-1 12.62,-2.75 17.37,-5c0.87,-0.37 2.5,-2.12 2.87,-4.12c0.37,-1.75 -0.5,-3.75 -0.87,-4.37c-1.5,-2.62 -4.75,-4.37 -11.75,-5.75l2.75,-16.37c21.49,4.12 27.49,18.62 28.24,21.74c1.87,7.25 0,12.75 -2,16c-6.12,10.12 -20.12,13.12 -32.49,15.75c-4.5,1 -10.25,2.25 -12,3.25c-3.62,2.12 -4.87,5.12 -5.25,7.12c-0.5,2.5 0.12,5 1.5,6.75l-14.62,11.5z" id="path40"/>
   <path class="st3" d="m931.36,557.53c0,0 1.25,2.75 7.25,4.87l-4.75,0.87l-7.12,-4.75" id="path42"/>
   <path class="st3" d="m1057.7,507.54c-4.37,-2.5 -9.12,-3.75 -14.5,-3.75c-8.25,0 -15.25,2.87 -21.12,8.75c-5.87,5.87 -8.75,12.87 -8.75,21.12c0,5 1.12,9.5 3.25,13.75c0.12,0.25 0.25,0.5 0.37,0.75l11.62,11.62c4.37,2.5 9.12,3.75 14.5,3.75c9.12,0 17,-3.75 23.49,-11.37l13,10.25c-9.75,11.87 -21.87,17.75 -36.49,17.75c-12.87,0 -23.74,-4.5 -32.87,-13.62c-9.12,-9.12 -13.62,-20 -13.62,-32.87c0,-12.87 4.5,-23.74 13.62,-32.87c9.12,-9.12 20,-13.62 32.87,-13.62c2.62,0 5.12,0.25 7.62,0.62c9.62,1.5 17.25,5.62 23.87,13.87" id="path44"/>
   <path class="st3" d="m1014.34,569.9c-4.75,-5.87 -6.62,-13.75 -5.25,-21.49c1.5,-8.25 6.5,-15.25 14,-19.62c4.37,-2.62 10.5,-3.87 17.5,-5.37c4.87,-1 12.62,-2.75 17.37,-5c0.87,-0.37 2.5,-2.12 2.87,-4.12c0.37,-1.75 -0.5,-3.75 -0.87,-4.37c-1.5,-2.62 -4.75,-4.37 -11.75,-5.75l2.75,-16.37c21.49,4.12 27.49,18.62 28.24,21.74c1.87,7.25 0,12.75 -2,16c-6.12,10.12 -20.12,13.12 -32.49,15.75c-4.5,1 -10.25,2.25 -12,3.25c-3.62,2.12 -4.87,5.12 -5.25,7.12c-0.5,2.5 0.12,5 1.5,6.75l-14.62,11.5z" id="path46"/>
   <path class="st3" d="m1028.09,557.53c0,0 1.25,2.75 7.25,4.87l-4.75,0.87l-7.12,-4.75" id="path48"/>
   <path class="st3" d="m1160.68,219.98c-0.25,0 -0.5,0 -0.87,-0.12c-2,-0.5 -3.25,-2.5 -2.87,-4.5c0.12,-0.75 17,-78.23 -6,-120.85c-1,-1.87 -0.25,-4.12 1.5,-5.12c1.87,-1 4.12,-0.25 5.12,1.5c24.24,45.11 7.37,122.72 6.62,126.1c-0.12,1.75 -1.75,3 -3.5,3z" id="path50"/>
   <path class="st3" d="m1118.19,216.61c-0.25,0 -0.5,0 -0.87,-0.12c-2,-0.5 -3.25,-2.5 -2.87,-4.5c0.12,-0.75 17,-78.23 -6,-120.85c-1,-1.87 -0.25,-4.12 1.5,-5.12c1.87,-1 4.12,-0.25 5.12,1.5c24.24,45.11 7.37,122.72 6.62,126.1c-0.25,1.75 -1.87,3 -3.5,3z" id="path52"/>
   <path class="st3" d="m1072.33,216.61c-0.25,0 -0.5,0 -0.87,-0.12c-2,-0.5 -3.25,-2.5 -2.87,-4.5c0.12,-0.75 17.25,-78.23 -5.37,-120.85c-1,-1.87 -0.25,-4.12 1.5,-5.12c1.87,-1 4.12,-0.25 5.12,1.5c23.99,45.11 6.87,122.85 6.12,126.1c-0.37,1.87 -2,3 -3.62,3z" id="path54"/>
  </g>
 </g>
</svg>