<svg id="Layer_1" data-name="Layer 1" xmlns="http://www.w3.org/2000/svg" viewBox="0 0 379.74 95.12"><defs><style>.cls-1{fill:#ff6b95;}.cls-2{fill:#fff;}.cls-3{fill:#5c225c;}.cls-4{fill:#f52281;}</style></defs><title>braincracking-color</title><path class="cls-1" d="M62.76,59.68c.67-5.37.76-20.14-.35-27.29a1.38,1.38,0,0,0,.08-.29c.11-.77,1-7.62-1-11.07-2.56-4.42-8.59-6.66-14.66-5.48a14.27,14.27,0,0,0-9.24,6.11,13,13,0,0,0-1.66,3.82,1.51,1.51,0,0,0-.67-.17A12.28,12.28,0,0,0,28,47.51a9.71,9.71,0,0,0-5,8.36,10,10,0,0,0,8.19,9.56c.63,7.51,7.89,13.46,16.74,13.46a18.06,18.06,0,0,0,10.73-3.24l-.15,0,0-.1.17.08v0a12.63,12.63,0,0,0,2.09-1.9C64.25,69.74,64.57,63.28,62.76,59.68ZM23.67,38.51l-.16-.19.14-.12.11.25Zm1.42,5.72-.09,0,.08-.2.11.05Zm0,11.9a.18.18,0,0,1-.17-.05c-.16-.25.18-.48.4-.51s.14,0,.17,0C25.65,55.87,25.31,56.1,25.09,56.13Zm36.6-22.44v.14l0,0Zm-.07,31.12.31,0c0,.06,0,.12,0,.18L61.6,65Zm-.85-4.46v-.19h.05v.19Zm0,4.7c0,.08,0,.12,0,0Zm0-11.4c-.05,0-.09,0-.25-.11l.33,0C60.78,53.57,60.76,53.64,60.74,53.65ZM60.51,33.8l0,0,0-.13A.37.37,0,0,1,60.51,33.8Zm-.21-5.56h.05a1.1,1.1,0,0,0,0,.18H60.3Zm-2.17.1c0,.09,0,.17,0,.26h-.1l0-.26Zm-2.24,3.4v.14a.94.94,0,0,1-.1-.1Zm-.11,27.73h.07v.06h-.08ZM54.86,40l.37.45C54.83,40.48,54.83,40.48,54.86,40Zm-.29-10.43a1.29,1.29,0,0,1,.09.16l-.11.06-.08-.17Zm-1.63-8.27H53v.19h-.05ZM51.3,30.44h0c-.13,0-.2-.13-.23-.29a2.94,2.94,0,0,1,0-.6C51.41,29.52,51.43,30.27,51.3,30.44Zm-.19,22.91a.64.64,0,0,1-.06-.11s0,0,0,0Zm-.52-24.79,0-.15.47-.09,0,.12Zm-.13,20.12.19,0v.08h-.19Zm0-9.56.09,0,.09.24-.1,0A2.25,2.25,0,0,1,50.46,39.12ZM51,25.82c.23.24-.33.6-.45.47S50.88,25.69,51,25.82Zm-.45-7.48c.23.24-.32.6-.45.47S50.43,18.21,50.55,18.34Zm-.19,22.09c0,.13,0,.25,0,.37l-.16.05-.11-.38Zm-.14-1.76,0-.07,0,.08Zm0,9.07v.07H50v0Zm-.05,17.72v.12h0v-.12Zm-.11-.9.07,0-.08,0Zm-.93-45a2,2,0,0,1-.56-1.47C48.83,18.59,49.41,18.77,49.11,19.53Zm-.63,23Zm0,14.57a.17.17,0,0,1,0,.05s0,0,0,0l0-.05Zm-.2-39.64v.13l-.12-.05ZM47.14,30h.2l0,.1h-.2S47.13,30,47.14,30Zm.18,4.68-.06.17-.12-.06c0-.05,0-.11.06-.13S47.28,34.69,47.32,34.7ZM46.13,33,46,32.82l.54-.59A.6.6,0,0,1,46.13,33Zm-.62,3.22v0l1-.17v.21Zm.08,36.6a.07.07,0,0,1,0,.06s0,0,0,0a.14.14,0,0,1,0-.06S45.59,72.78,45.59,72.79ZM46,25.36v-.07h.16v.07Zm-.7-6.69h.87C45.87,19.13,45.66,19.11,45.33,18.67Zm.32-1.23h.09v.21h-.09Zm-.34.75.06,0-.06.18-.07,0Zm-.38,17.75,0,.1-.2.05v-.15Zm0,1.79s0,0-.06,0a.21.21,0,0,1,0-.07l0,0ZM43.84,56.28l0,.19-.26,0,0-.11Zm-.63-8.41c.17-.57.17-.57.58-.55C43.56,47.54,43.39,47.71,43.21,47.87Zm.69,10.2a5.12,5.12,0,0,1,.79,0,.37.37,0,0,1-.27.33,4.91,4.91,0,0,1-.78,0A.38.38,0,0,1,43.9,58.07Zm.18-20.92h.29v.11h-.29ZM44,53.56H43.8v-.05H44Zm-.06-14.17h0v-.16h0C43.88,39.28,43.89,39.34,43.89,39.39Zm0-1.47V38h-.21v-.08Zm-.86.62Zm-.36-20.92.22.17-.12.13-.17-.22Zm.22,26.65v0h-.13v0Zm-1.61-5a.65.65,0,0,1,.87-.32l-.88.33h0l-.12,0Zm1,1.82,0,.17-.36-.08,0-.16Zm-.7,17.43L41,58.7C41.23,58.37,41.23,58.37,41.55,58.51Zm-1.33-9.32Zm-.07-.83v-1A1.23,1.23,0,0,1,40.15,48.36ZM39.51,23c0,.13-.07.25-.09.35-.24.16-.5-.09-.66-.62ZM37.75,38.39c.1.14.15.23.28.41h-.44Zm-.39-4.46c.11.25.22.39.18.44a8.07,8.07,0,0,1-.58.73c-.13-.16-.39-.39-.35-.46A5.31,5.31,0,0,1,37.36,33.93Zm-.44,8.93h0V43h-.05Zm0-.91,0-.08,0,.06Zm-.21,10.21v-.08l0,0,0,0,0,0,0,.05,0,.06-.06.86C36.37,52.68,36.55,52.43,36.67,52.16Zm-.54-13.81c0-.19,0-.31.07-.56l.42.5Zm.1-3.67.17.06c0,.16-.11.31-.17.47l-.11,0C36.16,35,36.19,34.85,36.23,34.68Zm-.36,17.63h.06s0,0,0,0h-.06S35.86,52.31,35.87,52.31ZM36.12,54l.1.09-.28.41-.12-.08Zm-.48-12.56-.06,0v-.13Zm.61,13c0,.58,0,.58-.73.47Zm0,2.58-.45.21L35.69,57l.45-.2Zm-1.13-7.61s0,0,.06,0a.11.11,0,0,1,0,.05l0,0S35.07,49.38,35.07,49.36Zm-1-20-.11.05-.11-.21.1-.05Zm-.21-2.92h0v.19h-.07ZM31.34,28l0,0-.14,0A.46.46,0,0,1,31.34,28ZM29.68,43.17h.2v.09h-.21ZM29.24,32.6s.08,0,.13,0l-.1.17-.09,0A.76.76,0,0,1,29.24,32.6ZM26.63,53.12h0l-.32-.35-.1.06,0-.12-.05-.06h.07c0-.14.08-.25.11-.35.15.15.18.27.06.38.21.05.36.14.19.43h0l.24-.1,0,.07Zm.78-1.3h-.05l0-.18.07,0ZM28.36,54l-.45-.72C28.51,53.13,28.54,53.17,28.36,54Zm-.06-1.92v-.17h.31V52ZM29.44,44v0h0l0,0h0c0-.06,0,0,0,0v0h0a1.38,1.38,0,0,1-.54,1.08C28.73,44.44,28.76,44.38,29.44,44Zm-.34,1.73.3-.52h0l.19,0h0l-.19,0h0C29.57,45.61,29.26,45.59,29.1,45.71Zm.57,3.61.15-.37c.36.1.74.16.65.64Zm1.5-15.7c.18-.44.39-.51.69-.38Zm.82,6,.05,0,0,.14ZM32.13,38c-.05-.1-.11-.2-.17-.3l.19-.08.1.34Zm.43.66-.24-.29.15-.1.24.29Zm.19,28.29ZM33,27.23,32.8,27l.09-.06.17.21Zm.51,13,.5.25-.11.19-.49-.28Zm.11,5.25s0,0,0-.07l.06,0,0,.07ZM34,64.36c0-.17-.1-.35-.16-.52l.2-.05.14.53Zm.43,3.41,0-.07,0,.07Zm.13-8-.16-.15.15-.27.22.22Zm.17-.79c0-.07.07-.16.13-.2s.13,0,.29.06L34.8,59Zm.72,3.75,0,0h0l0,0h-.07l0,0L35,62.49C35.26,62.35,35.33,62.55,35.43,62.7Zm-.2,10.63-.18-.16.07-.09.18.17Zm-.06-3.86.12,0-.07.11Zm.57-3.35c-.38.18-.71.24-.71-.32a.5.5,0,0,1,.42-.38A.51.51,0,0,1,36,66Zm.42,1.43,0-.09.19-.09,0,.1Zm.28,6.54,0-.06.09.07Zm.8-10.77-.35-.1a.24.24,0,0,1,0,.12c-.08.26-.19.33-.28.31a.36.36,0,0,1-.2-.4,1.38,1.38,0,0,1,.06-.16l-.06,0,.07-.18.14,0h0a.19.19,0,0,1,.15.08l.4.15s.06,0,.07,0S37.26,63.26,37.24,63.32Zm.21-8.22c0-.09-.05-.19-.08-.29l.17,0,.08.29Zm.35,18.72-.12-.06.12-.07Zm0,.38c.32-.22.53-.26.75.06C38.32,74.58,38.11,74.58,37.82,74.2Zm.8-.64-.07,0,0-.06s0,0,.06,0S38.62,73.54,38.62,73.56Zm.9-.75h0c-.38-.18-.4-.64-.89-.73L38.78,71h0C39.86,70.93,39.59,71.94,39.52,72.81ZM38.7,48.18h0l0,.07Zm.23,6.5H39a.17.17,0,0,1,0,.07H39Zm.45-9.45c-.36.19-.65.22-.69-.29,0-.27-.17-.53-.19-.8s.12-.27.23-.47c.4.43.74.77,1,1.15C39.79,44.86,39.54,45.13,39.38,45.23Zm.26,1.52s0-.08.07-.19l.53.28A.38.38,0,0,1,39.64,46.75Zm1,23.84a.86.86,0,0,1-.29,0h0a3.84,3.84,0,0,0-.48,0,.36.36,0,0,1,.15-.27.46.46,0,0,1,.24-.09h0c.2,0,.43,0,.63,0A.37.37,0,0,1,40.62,70.59Zm.6-3.71h0c-.23-.55-.44-1.09.16-1.1C42,66,41.72,67,41.22,66.88Zm.53-7.17-.23-.37.12-.09.24.36Zm-.12-7.42h.07l0,.17h-.07Zm-.05-1-.11-.18.42-.21a1,1,0,0,1,.07.15Zm.73-7.06-.24-.09,0-.1.25.07ZM42.72,64a.8.8,0,0,1-.16-.08c.1-.22.19-.44.28-.66l.18.11Zm.35-25.44h0l0,0,0,0,0,0h0c.05-.19.13-.35.54-.25l-.54.25Zm.08,13.52h.07l0,.06h-.11S43.14,52.06,43.15,52.05Zm.06,7s0,0,0,.08,0,0,0,0,0-.05,0-.07Zm.06,4-.1,0a.61.61,0,0,1,0-.18l.14,0Zm0-2.3-.09-.18.34-.11,0,.13Zm.4,14.2-.09,0,0-.23.1,0Zm0-15.14h0v.31h0c0-.1,0-.2,0-.3l.16-.21.07.15Zm.8,14.85c-.15,0-.27-.22-.25-.41s.23-.35.34-.29a.42.42,0,0,1,.16.39C44.74,74.57,44.64,74.66,44.56,74.66Zm-.45-11.79v-.1h.94v.17ZM45,38.94v0h0a.26.26,0,0,1,0,.09L45,39h0v-.4C45.19,38.71,45.22,38.86,45,38.94Zm.27-14.15,0,.18h-.05l0-.17Zm0,28.46.16.2-.09.07-.17-.19Zm.07,12.1v-.07l0,0Zm.18,9.16-.09,0v-.18h.14ZM46,69.37l-.31-.05,0-.14.31.07Zm.44,8.12-.06,0h0c-.16-.25.17-.48.4-.51a.16.16,0,0,1,.16,0C47.11,77.27,46.62,77.54,46.42,77.49Zm.06-5,.09,0,0,0Zm0-19.1L46.37,53h.05l0,.33H47C46.79,53.65,46.61,53.54,46.44,53.35Zm.48-13,.35-.06v.06Zm.5,17.49-.2-.17.11-.12.18.2Zm0-19.57a.47.47,0,0,1-.24.05.19.19,0,0,1-.09,0c-.15-.24.14-.46.36-.5s.18,0,.21,0h0C47.79,38,47.61,38.18,47.42,38.26Zm.72-5.81ZM47.6,24.4c.14-.49.39-.76.66-.64a3,3,0,0,0,.09.35ZM48.44,77l.28-.34.35.3Zm.5-10s0-.06.06-.11l0,.15S48.94,67.06,48.94,67.05Zm-.2-11.91c0-.33-.08-.6-.25-.71.08-.19.16-.28.23-.3s.38.5.5.83a.17.17,0,0,1-.11.14A2.33,2.33,0,0,1,48.74,55.14Zm.47,3.55.15.08,0,.06-.15-.06Zm0,8.53c0-.33.79-.56,1.06-.37a2.29,2.29,0,0,1,.41.37l0,0a.29.29,0,0,1,.06.2c0,.16-.3.21-.61.18S49.2,67.45,49.19,67.22Zm.3,3.33-.07-.08.18-.16.08.08Zm.62,6.77L50,77.19l.23-.15.08.07Zm.12-2a.14.14,0,0,1,0-.06l0,0,0,.06Zm0-3.87.71.08C50.66,71.86,50.5,71.72,50.23,71.49ZM51,62.43l-.1,0,0-.47h0v-.08c0-.22,0-.43,0-.64H51l-.12.63v.07a0,0,0,0,1,0,0h.29C51.1,62.11,51,62.27,51,62.43Zm.23,6.25v-.05l0,0Zm.29-34.48L51.13,34l.06-.09.38.17Zm.61-13.43-.18-.07.09-.43.26.08C52.22,20.49,52.16,20.63,52.1,20.77ZM52.47,28l0,.05s0,0,0,.05L52.4,28Zm0,6.49Zm0-.89.34.06,0,.13h-.32Zm.36,35.66c-.08,0-.14-.14-.21-.21l.08-.11.55.29C53,69.24,52.91,69.28,52.83,69.25Zm.58,7.07-.06,0a.21.21,0,0,1,0-.07l.06,0Zm.13-55,.3.12-.26.27C53.56,21.54,53.55,21.45,53.54,21.32Zm.39,22.42-.12-.11L54,43.4l.11.1Zm.44-3.94-.11,0c0-.11,0-.21-.07-.31l.18,0ZM54.5,30l.17.23-.13.08c-.06-.08-.11-.16-.16-.24Zm0,1.79h-.09l0-.23h.15ZM54.7,54l.2.19-.09.1-.19-.2Zm.3,5.42c.29.26.32.47,0,.72C54.67,59.84,54.68,59.62,55,59.38Zm.08,10.42L55,69.54l.32-.07,0,.11Zm.43-10.43-.06-.11h.1S55.52,59.33,55.51,59.37ZM55.84,69l-.11,0c0-.07,0-.14,0-.21l.13,0Zm.08-17,.07,0-.07,0Zm0,4.52h.09l0,.23-.08,0Zm.12,12.61-.08-.1.14-.1c0,.05.05.09,0,.13S56.13,69.14,56.09,69.16ZM56,42.38v-.13l.3,0v.13Zm.54,14.35.17.19-.09.09-.16-.2Zm.11,2.93-.16-.06.16-.25.08,0Zm.58,15.93c0-.06,0-.12,0,0Zm0-18.14a.45.45,0,0,1-.19-.14s0-.13.06-.3l.2.35Zm.25-3.85.07.11-.11,0Zm.08,17.55h-.1v-.28l.17,0Zm.46-.84-.25-.13.28.07ZM58,57.06c0-.16,0-.32,0-.48l.17,0c0,.15.1.31.14.46Zm.39-29.71,0-.06h0s0,0,0,.07Zm.37,14.19c-.07.19-.11.32-.16.45C58.43,41.66,58.43,41.66,58.73,41.54Zm-.11,24.75,0,0,0,0Zm.24,5.1c-.42-.42-.42-.42-.28-1l.43.88ZM59.39,67a2.45,2.45,0,0,1,0-.27l.12,0a1.73,1.73,0,0,1,.08.27Zm.21-3.93s0,0,0,0l.14,0Zm-.35-11.89c0-.23,0-.35-.07-.56l.55.19Zm.59-10.76.06-.24.13,0-.1.23Zm.43,16.74a1.12,1.12,0,0,1-.05-.13h.12A.75.75,0,0,0,60.27,57.2Zm0-1.08L60,55.91,60,55.8l.31.22Zm0-13.53.26-.18.06.09-.25.2Zm.11,6.14.19.06-.17.11Zm.16,24.69v-.06l.06,0ZM61,69.86c-.17-.3-.32-.53-.51-.87l.71.11C61.1,69.4,61,69.61,61,69.86Zm.39-.5,0-.06,0,0Zm.27-1.53h0c-.47-.1-.28-.74-.33-1.18h0C61.79,66.75,61.59,67.38,61.64,67.83Zm.14,1.57v0l.17,0,0,.06Zm.29,1.68V71l.06,0Zm0-3.9L62,67l.08,0,.13.21Zm.3-18.86h-.1a1.5,1.5,0,0,1,0-.22l.18,0ZM63,69,63,69h0Z"/><path class="cls-2" d="M48,37.21a6.32,6.32,0,0,0-1-5,1.5,1.5,0,0,0-2.47,1.71,3.27,3.27,0,0,1-1.07,4.8,4.26,4.26,0,0,1-5.55-1.25,1.5,1.5,0,0,0-2.47,1.71,7.33,7.33,0,0,0,6,3.07,7,7,0,0,0,3.52-.93A6.3,6.3,0,0,0,48,37.21Z"/><path class="cls-2" d="M52.39,43.41a5.08,5.08,0,0,1,3.49,2.23,4.85,4.85,0,0,1,.61,3.89,1.49,1.49,0,0,0,1.08,1.82,1.18,1.18,0,0,0,.37,0,1.49,1.49,0,0,0,1.45-1.13,7.81,7.81,0,0,0-1-6.26,8.11,8.11,0,0,0-5.5-3.56,1.5,1.5,0,0,0-.51,3Z"/><path class="cls-2" d="M46.27,63.11a1.5,1.5,0,1,0,1.53,2.58,3.27,3.27,0,0,1,4.32.82,2.39,2.39,0,0,1,.38,1.92,2.79,2.79,0,0,1-1.35,1.79A1.5,1.5,0,0,0,51.91,73a1.44,1.44,0,0,0,.77-.21,5.74,5.74,0,0,0,2.75-3.72,5.4,5.4,0,0,0-.83-4.27A6.31,6.31,0,0,0,46.27,63.11Z"/><path class="cls-2" d="M43.09,49.74a1.5,1.5,0,0,0,.44-2.93,1.12,1.12,0,0,1,.07.45,1.48,1.48,0,0,1-1.51,1.48h0A2.17,2.17,0,0,0,40,50.07,2.46,2.46,0,0,0,41.17,53a2.22,2.22,0,0,1-.2-1.91,2.17,2.17,0,0,1,2.08-1.33Z"/><path class="cls-2" d="M55.84,28a3.38,3.38,0,0,0-2.93,2,2,2,0,0,0,.8,2.28,1.49,1.49,0,0,1-1.83,2.34,6.71,6.71,0,0,0,.86.92,1.5,1.5,0,1,0,2-2.26,2,2,0,0,1-.8-2.28,3.38,3.38,0,0,1,2.93-2,5.3,5.3,0,0,1,3.28,1.2A5.58,5.58,0,0,0,55.84,28Z"/><path class="cls-2" d="M56.46,58.52a11.31,11.31,0,0,1,4.69,2.1c-1-1.23-2.59-2.36-5.69-3.1l-.09,0A1.5,1.5,0,0,0,56.46,58.52Z"/><path class="cls-2" d="M29.92,48.58l.12-.07a11.1,11.1,0,0,1-.91-.76A10.33,10.33,0,0,0,29.92,48.58Z"/><path class="cls-2" d="M29,39.6a9.27,9.27,0,0,1,8.61-9.25c0-.34,0-.67,0-1a1.12,1.12,0,0,0-.31,0,9.34,9.34,0,0,0-6,16.41A9.44,9.44,0,0,1,29,39.6Z"/><path class="cls-2" d="M41.42,57a1.4,1.4,0,0,0,.56.11,1.5,1.5,0,0,0,.57-2.89l-.15-.07a1.47,1.47,0,0,1,0,1,1.48,1.48,0,0,1-1.39.93,1.4,1.4,0,0,1-.56-.11,6,6,0,0,1-1.37-.79A5.77,5.77,0,0,0,41.42,57Z"/><path class="cls-2" d="M33.19,66.43A10.64,10.64,0,0,1,28.32,64a10.55,10.55,0,0,0,5,3.2C33.26,66.94,33.22,66.69,33.19,66.43Z"/><path class="cls-2" d="M47,76.34a4.08,4.08,0,0,1-.48-1.92c0-1.34.53-2.86,1.83-3.24a1.5,1.5,0,0,0,0-2.87h0a1.49,1.49,0,0,1-1,1.86c-1.3.38-1.86,1.9-1.83,3.24A3.24,3.24,0,0,0,47,76.34Z"/><path class="cls-2" d="M49.41,19.49a11.27,11.27,0,0,0-7.3,4.8,9.4,9.4,0,0,0-1.32,7.3,9.56,9.56,0,0,0,.56,1.69,1.5,1.5,0,0,1-.78,2,1.52,1.52,0,0,1-.59.12,1.68,1.68,0,0,1-.45-.06,1.11,1.11,0,0,1,.07.16,1.5,1.5,0,0,0,1.38.9,1.52,1.52,0,0,0,.59-.12,1.5,1.5,0,0,0,.78-2,9.56,9.56,0,0,1-.56-1.69,9.4,9.4,0,0,1,1.32-7.3,11.27,11.27,0,0,1,7.3-4.8,12,12,0,0,1,9.81,2.09C58,19.91,53.76,18.64,49.41,19.49Z"/><path class="cls-2" d="M30.45,61.87a6.37,6.37,0,0,1-1.45-4,7,7,0,0,1,5.56-6.56,12.49,12.49,0,0,0,2.39.47,4.71,4.71,0,0,1-.1-.92,11.93,11.93,0,0,1-3.29-.55A7,7,0,0,0,28,56.87,6.54,6.54,0,0,0,30.45,61.87Z"/><path class="cls-2" d="M39.83,73.19a10.21,10.21,0,0,1-2.7-6.8,10,10,0,0,1,1.68-5.49,1.51,1.51,0,0,0-.43-2.08,1.65,1.65,0,0,0-.39-.17,1.51,1.51,0,0,1-.18,1.25,10,10,0,0,0-1.68,5.49A10.48,10.48,0,0,0,39.83,73.19Z"/><path class="cls-3" d="M47,36.21a6.32,6.32,0,0,0-1-5,1.5,1.5,0,0,0-2.47,1.71,3.27,3.27,0,0,1-1.07,4.8,4.26,4.26,0,0,1-5.55-1.25,1.5,1.5,0,0,0-2.47,1.71,7.33,7.33,0,0,0,6,3.07,7,7,0,0,0,3.52-.93A6.3,6.3,0,0,0,47,36.21Z"/><path class="cls-3" d="M51.39,42.41a5.08,5.08,0,0,1,3.49,2.23,4.85,4.85,0,0,1,.61,3.89,1.49,1.49,0,0,0,1.08,1.82,1.18,1.18,0,0,0,.37,0,1.49,1.49,0,0,0,1.45-1.13,7.81,7.81,0,0,0-1-6.26,8.11,8.11,0,0,0-5.5-3.56,1.5,1.5,0,0,0-.51,3Z"/><path class="cls-3" d="M45.27,62.11a1.5,1.5,0,1,0,1.53,2.58,3.27,3.27,0,0,1,4.32.82,2.39,2.39,0,0,1,.38,1.92,2.79,2.79,0,0,1-1.35,1.79A1.5,1.5,0,0,0,50.91,72a1.44,1.44,0,0,0,.77-.21,5.74,5.74,0,0,0,2.75-3.72,5.4,5.4,0,0,0-.83-4.27A6.31,6.31,0,0,0,45.27,62.11Z"/><path class="cls-3" d="M64.76,60.68c.67-5.37.76-20.14-.35-27.29,0-.09,1.09-7.91-.92-11.36-2.56-4.42-8.59-6.67-14.66-5.48a14.27,14.27,0,0,0-9.24,6.11A12.36,12.36,0,0,0,38,26.37a3.79,3.79,0,0,0-.7-.06A12.28,12.28,0,0,0,30,48.51a9.71,9.71,0,0,0-5,8.36,10,10,0,0,0,8.19,9.56c.63,7.51,7.89,13.46,16.74,13.46,5.32,0,10-1.89,12.85-5.17C66.25,70.74,66.57,64.28,64.76,60.68ZM60.52,72.75c-2.25,2.59-6.21,4.14-10.59,4.14a11.31,11.31,0,0,1-2.71-.42,3.12,3.12,0,0,1-1.73-3c0-1.34.53-2.86,1.83-3.24a1.49,1.49,0,0,0,1-1.86,1.51,1.51,0,0,0-1.86-1c-2.44.72-4,3.2-4,6.18a7.19,7.19,0,0,0,.24,1.7c-3.95-2-6.6-5.65-6.6-9.79a10,10,0,0,1,1.68-5.49,1.5,1.5,0,1,0-2.51-1.65,13.23,13.23,0,0,0-2,5.12,6.64,6.64,0,0,1,.26-13.06,11.93,11.93,0,0,0,3.29.55A5.66,5.66,0,0,0,40.42,56a1.4,1.4,0,0,0,.56.11,1.5,1.5,0,0,0,.57-2.89A2.51,2.51,0,0,1,40,50.07a2.17,2.17,0,0,1,2.08-1.33h0a1.48,1.48,0,0,0,1.51-1.48,1.5,1.5,0,0,0-1.48-1.52A5.27,5.27,0,0,0,37.73,48a5.84,5.84,0,0,1-.84,0A15.62,15.62,0,0,1,34,47.27a9.05,9.05,0,0,1-6-8.67,9.28,9.28,0,0,1,9.26-9.29,1.12,1.12,0,0,1,.31,0,11.6,11.6,0,0,0,.3,2.92,12.18,12.18,0,0,0,.73,2.21,1.5,1.5,0,0,0,1.38.9,1.52,1.52,0,0,0,.59-.12,1.5,1.5,0,0,0,.78-2,9.56,9.56,0,0,1-.56-1.69,9.4,9.4,0,0,1,1.32-7.3,11.27,11.27,0,0,1,7.3-4.8c4.84-.94,9.56.72,11.49,4a9.36,9.36,0,0,1,.85,3.95A8.35,8.35,0,0,0,55.9,25h-.1a6.32,6.32,0,0,0-5.7,4,4.9,4.9,0,0,0,1.64,5.58,1.5,1.5,0,1,0,2-2.26,2,2,0,0,1-.8-2.28,3.38,3.38,0,0,1,2.93-2A5.75,5.75,0,0,1,61,31.64C62.24,35.33,62.52,49.57,62,57.3a14.32,14.32,0,0,0-5.89-2.7,1.5,1.5,0,1,0-.69,2.92c4.09,1,5.54,2.63,6.5,4.29C63.28,64.08,63.38,69.47,60.52,72.75Z"/><path class="cls-3" d="M88,28.18c5,0,8.69,3.76,8.69,10.45a18,18,0,0,1-.12,2.55c-.11.72-.33.49-.38,1,0,.27-.22.33-.22.5s0,.22,0,.33a.56.56,0,0,1,0,.44,6.55,6.55,0,0,1-1.33,2.21c-.94,1-.88,1.72.23,2.6,1.82,1.55,2.65,3.76,2.65,8.58,0,7.74-3.59,11.17-8.68,11.17h-10a2.18,2.18,0,0,1-2.27-2.27V64.74a.61.61,0,0,1,.17-.39.83.83,0,0,0,.16-.66c0-.17.06-.17,0-.39,0,0-.11-.16-.16-.27a.64.64,0,0,1-.17-.39V30.45a2.18,2.18,0,0,1,2.27-2.27ZM78.16,55a.44.44,0,0,0-.39,0c-.11.05-.28.11-.33.22a.42.42,0,0,0,0,.38.59.59,0,0,0,.44.39c0,.06,0,.06-.06.11a1.39,1.39,0,0,0-.16.28c-.11.22,0,.33.27.33s.28-.28.23-.44L78,56a.65.65,0,0,0,.34-.33c.05-.17.11-.28.05-.39A.59.59,0,0,0,78.16,55Zm.22-13.94v.16h.16c.11,0,.17-.27.17-.33A.89.89,0,0,0,78.38,41.07Zm.22,5.75c-.06,0-.11,0-.06,0s.17.06.22,0,.17-.11.17-.11A.89.89,0,0,0,78.6,46.82Zm.05,2.6c-.05,0,.06.11.11.16s.17-.11.11-.11l-.22-.11Zm.22-9.63s-.16,0-.16.06v0l.11.06Zm.06.61H79l.05,0L79,40.24c-.06-.11-.12-.22-.12-.11S78.87,40.35,78.93,40.4Zm.72,11a3.78,3.78,0,0,0-.44.38l.33-.05c.22-.11.39-.28.33-.33S79.7,51.24,79.65,51.36Zm-.33-12.89.05.22h.11a.23.23,0,0,0,.28.05c.11-.05.28-.22.28-.27s-.34-.22-.45-.17S79.37,38.47,79.32,38.47Zm.38,2c.06.06.11.06.06-.11S79.54,40.4,79.7,40.51Zm0,21.52s.22,0,.22-.05,0-.06-.06-.06Zm.22-4c-.11,0-.17.06-.11.11h.17l0-.05Zm.06,5.75a.08.08,0,0,0,0-.11c-.06-.05-.17-.11-.17-.05A.25.25,0,0,0,79.93,63.74Zm0-22.67v.16l.17.22c0-.05.11-.05.11-.22s0-.27,0-.27S80,41,80,41.07ZM80,60.15l-.06.11.17.17a.32.32,0,0,0,.22-.17c0-.11,0-.28-.11-.22A.5.5,0,0,1,80,60.15Zm0-30c0,.06,0,.23.06.23s.16-.23.22-.28-.11-.11-.11-.06S80.09,30.06,80.09,30.11Zm0,15.22.11.11.06-.06c0-.05-.06-.17-.11-.11A.06.06,0,0,0,80.09,45.33Zm.11-6.2.11.22s-.11.06-.16.22-.06.33,0,.33.27,0,.27-.16.06-.28,0-.33.17,0,.22-.06l.06-.05v-.11c0-.06-.28-.17-.33-.17S80.2,39.07,80.2,39.13Zm.11,11.12s-.11,0-.11,0,.11.11.17.11a0,0,0,0,0,0,0c0-.06.06-.06,0-.11S80.37,50.19,80.31,50.25Zm.17,0c0,.06.16.06.16,0a.6.6,0,0,1,0-.16L80.31,50Zm-.06,9.24a.08.08,0,0,0,0,.11s.06.17.11.17l.11,0h.06c0,.06.06,0,.06,0a1.1,1.1,0,0,0-.06-.28c-.06,0-.11,0-.17,0S80.42,59.49,80.42,59.54Zm.11-20.63s.06.11.11.11V38.8h-.11Zm.56,25.17h.16a.5.5,0,0,0,.22.11v-.11c0-.06-.27-.06-.33-.06S81,64.08,81.09,64.08Zm.11-6.64.22.17-.06-.12c0-.11-.11-.22-.16-.16S81.14,57.38,81.2,57.44Zm0,7.41c-.06,0,0,.06,0,.06h.22V64.8c0-.06-.11-.11-.11-.11C81.2,64.8,81.2,64.85,81.2,64.85Zm4.31-30.48a2,2,0,0,0-2.21,2.22v5.69c0,.06,0,.06-.06.11a.22.22,0,0,0,0,.39c.11.11.11.22.23.33,0,.28-.06.61.11.83s1,.89,1.21.39h.06a2.28,2.28,0,0,0,.66.06h.94c2.33,0,3.6-1.33,3.6-5s-1.61-4.92-3.6-5Zm0,16.21a2,2,0,0,0-2.21,2.21v6.86a2,2,0,0,0,2.21,2.21h1.27c2.22,0,3.82-1.71,3.82-5.75s-1.71-5.53-3.82-5.53Zm6.2-13.72c-.06,0-.17,0-.28,0s-.17,0-.22.06-.11.11-.11.22a.26.26,0,0,0,.11.22.62.62,0,0,0,.44.06c.11-.11.17-.17.17-.28A.48.48,0,0,0,91.71,36.86Zm-.06.67c-.11,0-.27,0-.27.16s.16.22.27.22a.2.2,0,0,0,.22-.22C91.87,37.58,91.76,37.53,91.65,37.53ZM93.42,52l0,.22a.41.41,0,0,0,.22-.28c0-.05,0-.11,0-.11A.18.18,0,0,0,93.42,52Zm.11,4.7c0,.05,0,.05,0,.05s.11-.05.06-.11A.06.06,0,0,0,93.53,56.72Zm.45,1.6c0,.06,0,.23.11.23a1.48,1.48,0,0,0,.27-.11l.11-.12a.45.45,0,0,1-.16,0C94.2,58.27,94,58.27,94,58.32Zm.11-3.81v.11a.26.26,0,0,0,.11.16c0,.06.22.06.16,0a.37.37,0,0,0-.11-.27C94.2,54.45,94.09,54.45,94.09,54.51Zm0-.83s0,.11.06.11,0-.11,0-.17S94.14,53.62,94.14,53.68Z"/><path class="cls-3" d="M106.69,38.3A2.18,2.18,0,0,1,109,40.57c0,.44-.11,1.16.17,1.27s1.16-2.16,3.7-3a2.13,2.13,0,0,1,2.71,2.27c0,1.71-.38,2.71-1.1,2.6a4.81,4.81,0,0,0-1.28-.11,4.45,4.45,0,0,0-4.2,4.53v17.7a2.18,2.18,0,0,1-2.27,2.27h-1.88a2.18,2.18,0,0,1-2.27-2.27V40.57a2.18,2.18,0,0,1,2.27-2.27ZM103.82,65c.38,0,.72-.22.72-.45s-.34-.49-.72-.49-.94.22-.94.49S103.32,65,103.82,65Zm-.06-8.91c.06.06.17-.11.11-.16l-.05-.06-.11.11ZM104.7,47l-.16.34s.11.11.33,0c.11,0,.44-.06.39-.17s-.28-.33-.34-.28S104.76,46.87,104.7,47Zm.28-2c-.06.05-.06.22,0,.22a.08.08,0,0,0,.11,0,.31.31,0,0,0,0-.17l-.11-.11Zm0,13.38c0,.06.16.12.16.06a.11.11,0,0,0-.11-.11C104.92,58.27,105,58.32,105,58.32Zm.11-.83c0,.12-.06.28,0,.17s.17-.22.12-.28l-.06-.05-.11-.06Zm.66,1.94a3.91,3.91,0,0,0,.06.5l.11-.28c0-.28,0-.44-.11-.44A.12.12,0,0,0,105.75,59.43Zm.67,5.75c-.06.06,0,.28,0,.28l.11-.11a.41.41,0,0,1-.06-.17Zm.77-24.67c.17,0,.39-.11.39-.27a.37.37,0,0,0-.39-.34.38.38,0,0,0-.39.34C106.8,40.4,107,40.51,107.19,40.51ZM107,59.93c-.06,0-.11,0-.06.11a.22.22,0,0,0,.17.11l.22-.11Zm.11-18.37c.11.11.28.06.44.06a.54.54,0,0,0,.39-.11.51.51,0,0,0,.17-.39.38.38,0,0,0-.23-.33.8.8,0,0,0-.71-.06c-.11.12-.23.23-.23.39A.62.62,0,0,0,107.08,41.56Z"/><path class="cls-3" d="M137.89,42.06c.16.28.22.39.16.44a.72.72,0,0,0-.16.34c0,.16.05.38.16.44l.06.11s.55.17.66.44a9.89,9.89,0,0,1,.39,2.6v16c0,.83.05,2,.17,3.21.16,1.49-.5,2.38-2,2.38h-2.21c-1.44,0-1.55-2.21-2.21-2.21s-2.38,2.76-6.2,2.76c-4.86,0-8.68-2.32-8.68-7.85,0-9.07,9.29-10.35,13.61-10.51.72,0,1.1-.39,1.1-1.16-.11-4.1-.88-6.2-3.43-6.2a3.33,3.33,0,0,0-3.43,2.77c-.38,1.32-1,2-2.32,2h-1.77c-1.49,0-2.38-.83-2.16-2.32.94-5.14,4.87-7.63,9.79-7.63A9.89,9.89,0,0,1,137.89,42.06ZM119.63,58.32v.06a.1.1,0,0,0,.17,0s0,0,0-.06-.06,0-.17,0S119.63,58.32,119.63,58.32ZM120,61c0,.05.06,0,.06,0s0-.17-.06-.11A.08.08,0,0,0,120,61Zm.72,2.54c-.17.11-.28.11-.33.22a.51.51,0,0,0-.22.34.61.61,0,0,0,.11.49.28.28,0,0,0,.27.12c.28-.23.17-.28.45-.67a.54.54,0,0,0,0-.5A.28.28,0,0,0,120.74,63.52Zm0-5.14a.17.17,0,0,0,.11-.06c0-.11,0-.16,0-.16s-.12-.11-.17-.06S120.74,58.32,120.74,58.38Zm.06.83.16,0,.17-.22a.22.22,0,0,0-.11,0l-.22,0Zm.49-13.61.17.11.05-.11-.05-.05c.05-.06,0-.11-.06-.17a.64.64,0,0,0-.27-.05C121.07,45.38,121.18,45.55,121.29,45.6Zm.5,18.59a.5.5,0,0,0,0,.38.15.15,0,0,0,.28,0c.11-.11.05-.27,0-.38S121.85,64,121.79,64.19Zm.11-20.41c-.05,0-.11.11-.11.16s.11.22.17.11v-.22Zm.28,1.77c0-.06-.06,0-.11,0a.17.17,0,0,0-.06.11h.11l.06-.06Zm.5-1.66h0a.52.52,0,0,1,.06-.17h-.11Zm8.4,11.45c-4.42,0-7.41,1.27-7.41,4.37a3.52,3.52,0,0,0,3.54,3.76c2.93,0,5.2-2.49,5.48-7,.05-.72-.22-1.16-.78-1.16Zm1.61-13.61s-.06-.11-.11-.06v.12Zm1.49-.39s0,.06.11.17l0,.16s.16.17.16.06.28-.33.22-.44C134.57,41.34,134.4,41.23,134.18,41.34Zm.11,10.95c0,.06.11.12.17,0l0,0-.11-.06ZM135,65.07s.11,0,.11-.11-.05,0-.05,0L135,65Zm0-1.33c0,.06.06.06.11.06l.11-.06-.11-.05H135Zm.28-20.46.11-.17c-.06-.11-.17-.11-.17,0l0,0Zm.11,10.78c-.11,0-.22.12-.11.12s.27,0,.27-.12l.06-.05-.06-.06Zm.16,5.59c.06,0,.11-.16,0,0S135.45,59.65,135.56,59.65Zm.06,6.36c0,.11,0,.11,0,.11s.12.11.17.06a.58.58,0,0,0-.17-.22S135.56,66,135.62,66Zm.17-7c.05,0,.27.27.33.27s0-.22,0-.27a.19.19,0,0,0-.27-.11C135.79,58.88,135.73,58.93,135.79,59Zm.05,3.87.28,0s-.06.12,0,.17v.06h.11c.05,0,.16-.17.22-.23a.16.16,0,0,1-.06-.11h-.22s0,0-.11-.11-.27-.16-.27-.11A.56.56,0,0,0,135.84,62.86Zm.22-6.8.33,0c.22,0,.39,0,.39-.16s-.05-.12-.22-.06A1.62,1.62,0,0,0,136.06,56.06Zm.78-5.42c.11.11.22.16.33.11a.73.73,0,0,0,.27-.28c-.05-.06-.38-.22-.44-.11S136.84,50.52,136.84,50.64Z"/><path class="cls-3" d="M148,28.12a2,2,0,0,1,2.21,2.22v1A2,2,0,0,1,148,33.54h-2a2,2,0,0,1-2.21-2.21v-1A2,2,0,0,1,146,28.12ZM148,38.3a2.14,2.14,0,0,1,2.27,2.21v7.25c0,.17-.17.28-.28.5a1.4,1.4,0,0,0,.06,1.43,1,1,0,0,1,.22.56V65.74A2.23,2.23,0,0,1,148,68.06H146a2.22,2.22,0,0,1-2.26-2.32V40.51A2.13,2.13,0,0,1,146,38.3ZM146.46,42a.48.48,0,0,0-.17-.33.56.56,0,0,0-.39-.22.69.69,0,0,0-.38.22.58.58,0,0,0-.17.33c0,.17.06.39.17.44s.27.11.38.11a.6.6,0,0,0,.39-.11A.62.62,0,0,0,146.46,42Zm-1,13.22c.06,0,.39-.05.39-.16s-.17-.11-.22-.11a.26.26,0,0,0-.22.11C145.3,55.17,145.41,55.17,145.46,55.17Zm.78,11.28c-.17,0-.34-.22-.45-.22l-.11.22v.23h.56s0,0,0,0h.11v-.11Zm-.28-2.1c-.06,0-.22,0-.22.17a.15.15,0,0,0,.22-.11C146,64.35,146,64.35,146,64.35Zm0-2.43c0,.06,0,.22,0,.11l.17-.11-.11-.06Zm0,.94a1.91,1.91,0,0,0,0,.44.06.06,0,0,0,.06.06c0-.06.11-.22,0-.28Zm.33-.22c0-.06,0-.17,0-.06a.11.11,0,0,0,0,.17h.11l.06-.06Zm1.38,1.77c0-.06-.33,0-.44,0s0,.16,0,.11l-.22.11H147c0,.11,0,.11,0,.17l.11,0h.33v0h-.22v-.06h.22c.06,0,.11-.11.11-.22.11,0,.22,0,.22,0S147.73,64.41,147.67,64.41Zm-.55.33H147s0,0,.06-.11Zm-.11-.66a.89.89,0,0,0,.17.33v-.22c0-.17-.06-.28-.17-.28S147,64,147,64.08Zm.39.44h-.17l.17-.11Zm.49-4c0-.06-.27.05-.22.16a.41.41,0,0,0,.22.11c.06,0,.17,0,.17-.05l.06-.28Zm.28,6-.28.17v0h.17c.06,0,.28-.16.28-.22v-.17Zm-.11-8.41c.06.06.06.06.11,0a.45.45,0,0,0,0-.16c-.06,0-.06.11-.06.11Zm.5-9.4c.61-.22.44-.66-.17-.44-.33.16-.38.55-.11.44A.52.52,0,0,0,148.56,48.7Zm-.39,13v.16h.17l.11-.16Zm.39-1.94s.28,0,.28,0,0-.17,0-.22-.17-.12-.23,0Zm.39.83s-.06.11-.11.11a.06.06,0,0,0-.06.06c0,.05.06.05.06,0S149.06,60.59,149,60.59Z"/><path class="cls-3" d="M175.72,64.08v1.71a2.18,2.18,0,0,1-2.27,2.27h-1.88a2.18,2.18,0,0,1-2.27-2.27V47.54s.17-4.65-2.93-4.65a6.08,6.08,0,0,0-3.32,1,1.43,1.43,0,0,0-.66,1.32V65.79a2.18,2.18,0,0,1-2.27,2.27h-1.88A2.18,2.18,0,0,1,156,65.79V43.89c0-.61,0-1.28-.06-1.88,0-.39.89-.22.72-.67-.27-.72-.88-.27-.88-.83a2.33,2.33,0,0,1,2.38-2.21h2a2.1,2.1,0,0,1,2.1,1.44c.22.66.39.77.88.28a9.35,9.35,0,0,1,5.7-2.27c6.53,0,6.92,7.3,6.92,8.46v16c0,.22-.11.16-.34.27s-.11.28-.16.33a.42.42,0,0,0,.11.78A.53.53,0,0,1,175.72,64.08ZM157.08,42.56c0-.06,0-.11-.06-.11s-.28,0-.28,0-.22,0-.33.11,0,.34,0,.34a.88.88,0,0,1,.44.16c.17.06.23-.16.23-.22S157.19,42.67,157.08,42.56Zm.66,5,0,.11c.06.06.12,0,.17,0s.06-.22.06-.27A2.46,2.46,0,0,1,157.74,47.59Zm.33,7,.11-.05c0-.06,0-.17-.05-.17l-.11.17Zm0,1s.11,0,.11,0h.05l-.11-.06Zm0,1.55.11.17c.05,0,.05-.22,0-.28s-.06-.11-.06-.11A.37.37,0,0,0,158,57.16Zm.22-5.75s.11.06.16,0S158.24,51.36,158.24,51.41Zm0,4.65c.06,0,.11,0,.11,0s-.05-.17-.11-.17l0,.06Zm.5,3.54c.06.16.11.27.17.22s.11-.06,0-.11a1,1,0,0,0-.17-.34Zm.17-8.19c0,.11,0,.17,0,.22l.17-.05v-.06s.11-.05,0-.16a.64.64,0,0,0-.11-.28C159,51.08,158.9,51.3,159,51.41Zm.11,6.69c.05-.11.05-.11-.06-.05S159.07,58.21,159.07,58.1Zm.33-4.87-.06.23a.16.16,0,0,0,.17,0c.05,0,.28-.06.22-.11s-.17-.17-.22-.17A.17.17,0,0,0,159.4,53.23Zm0-3.31s.11.16.11.16a.08.08,0,0,0,.12,0c0-.11,0-.16-.06-.16S159.45,49.86,159.45,49.92Zm.06,5a.17.17,0,0,0-.06.11.08.08,0,0,0,.11,0V55Zm.11-.39a.17.17,0,0,0,.06.11s0,0,0-.06a0,0,0,0,0,0-.05C159.68,54.45,159.62,54.45,159.62,54.51Zm.22.72-.16.16.27,0s.06-.11,0-.11S159.84,55.17,159.84,55.23Zm.11-3.76s-.11,0-.11.05l.11.06H160l.05-.11Zm0,11.83a.52.52,0,0,0,.06.17l.27-.06c0,.06,0,.11.17.17s.33.16.33.11,0-.28-.11-.33l-.33-.06s0-.16,0-.22v0a.52.52,0,0,1-.17-.06Zm.44-18.58c.06.05.06.16.11.16l.23-.05a.36.36,0,0,0,.16.16,2.1,2.1,0,0,1,.33.11c0-.05,0-.27-.11-.33s-.22-.05-.33-.05c.06,0,.06-.17,0-.22v-.06a.22.22,0,0,1-.11,0Zm7.19-4.7c0,.11.17.16.17.11s-.05-.17-.11-.11S167.58,40,167.58,40Zm3.66,7.68a4.66,4.66,0,0,0,0,.5l.11-.27c.06-.28,0-.45-.11-.45S171.12,47.54,171.24,47.7Zm.38,4.37a.28.28,0,0,0,.17,0c.11-.06.16-.28.11-.33l-.33.22Zm.22-9.73c.06.11.17.16.17.11s.06-.17-.11-.17S171.84,42.28,171.84,42.34Zm0,17.7c0,.05.17.05.17,0l.06-.06-.17,0Zm.06,2.49s.17,0,.17-.06,0-.22-.06-.16l-.17.22Zm0-.17c0,.06.11.22.11.17s0-.22,0-.33-.06-.11-.11-.06S171.84,62.31,171.9,62.36Zm.17,1.16.11.11c0,.06.11.17.11.06s-.06-.22-.11-.22h-.06Zm.22-4c-.06-.06-.17-.06-.17,0s.11.11.11,0Zm.22-11.29c-.11,0-.17.06-.11.11s.11.11.16.11l.22-.11Zm.11,17.15c0,.28.16.44.27.39s.12-.11,0-.22a1.94,1.94,0,0,0-.27-.45Zm.11-7.25a2.91,2.91,0,0,1,.11.34l.22-.06.06-.11s.11-.11,0-.22a.64.64,0,0,0-.22-.39A.69.69,0,0,0,172.73,58.1Zm.22,3.21c.06-.11.06-.16-.06-.11S173,61.42,173,61.31Zm.33-4.2-.11.22c.06.05.11.05.22,0s.28-.06.22-.11-.16-.17-.22-.17S173.28,57.05,173.28,57.11Zm0-1.77a.67.67,0,0,0,.17.27c.05.06.16,0,.11,0s.05-.22,0-.22S173.34,55.23,173.28,55.34Zm.11,5.53c0-.06-.11,0-.11.05a.06.06,0,0,0,.06.06.08.08,0,0,0,.11,0l.05-.11Zm.11.39c-.05,0-.05.11,0,.16a.06.06,0,0,0,.06.06c.05-.06.11-.06.05-.11s0-.06-.05-.11S173.5,61.2,173.5,61.26Zm.17,2.65-.17.17h.34c0-.06.11-.17,0-.17S173.72,63.86,173.67,63.91Zm.11,3c.11.11.33,0,.44,0a.47.47,0,0,0,.33-.22.36.36,0,0,0,.06-.39.38.38,0,0,0-.22-.33,1.2,1.2,0,0,0-.72.17.75.75,0,0,0-.11.39C173.61,66.73,173.67,66.9,173.78,67ZM174,56.11a.12.12,0,0,0-.17,0,.06.06,0,0,0-.06.06l.12,0Z"/><path class="cls-4" d="M203.15,38.69c0,.94-.94,1.6-2.27,1.6h-2.1A2.18,2.18,0,0,1,196.51,38c0-.88-1.33-4.25-4.31-4.25-3.38,0-4.32,3.26-4.32,5.08v3.6s-.11.16-.11.22-.22.06-.22.83c0,.17-.28.39-.28.55s.28.34.33.5a3.43,3.43,0,0,1,.28,1.27V57.38c0,1.77,1.05,5,4.32,5s4.31-3.27,4.31-5v-.83a2.18,2.18,0,0,1,2.27-2.26h2.1a2.18,2.18,0,0,1,2.27,2.26v1.17a12.94,12.94,0,0,1-1.05,4.64,5.32,5.32,0,0,1-2,2.38l-.34.17c-.55.38-.27,1-.6,1.32a11,11,0,0,1-7,2.38c-7.19,0-10.9-5.75-10.9-11.12V38.85a12.76,12.76,0,0,1,.45-3.26c.05-.06.16-.11.16-.17s.06-.49.11-.66a10.42,10.42,0,0,1,10.18-7.19C199.66,27.57,203.15,33.32,203.15,38.69ZM182.41,54.56c-.06.11.05.22.11.28s.11.06.22.06.11-.17.33-.39a.19.19,0,0,0,0-.28c-.06,0-.11,0-.22,0s-.22.06-.28.11A.83.83,0,0,0,182.41,54.56ZM183.24,43a.4.4,0,0,0-.06.22l.22,0V43Zm-.06,11v.23l.28,0h.27v0l.06-.06-.17-.11c-.05-.06-.27-.22-.33-.17A.13.13,0,0,0,183.18,54Zm.06-1.71,0,0v.06c.06,0,.17-.11.17-.11s0-.06-.06-.06S183.24,52.18,183.24,52.24Zm.22,5.37c-.11.11-.06.27-.11.27l.11.11,0-.05c.06.05.17.05.28-.11s.16-.28.16-.34S183.57,57.49,183.46,57.61Zm.11-7.64a.27.27,0,0,0-.17.06c.06.11.06.22.11.11l.11-.17Zm-.06,1.22c0,.05,0,.11.06.05s.05-.16,0-.16-.11-.28-.11-.22S183.4,51.08,183.51,51.19Zm.06,8.07s-.11,0-.11.11l0,.06.11-.06Zm.16-8.51h.06l.05-.06-.11,0c0-.06-.11-.12,0-.06S183.73,50.75,183.73,50.75Zm0,4.09a.16.16,0,0,0,.22,0c.11-.06.06-.17,0-.22s-.16-.11-.22,0A.18.18,0,0,0,183.73,54.84Zm.22,4.81H184l.05,0-.22-.06s-.05-.11-.05,0S183.9,59.76,184,59.65Zm-.16.94.05.11c.17,0,.17-.11.22-.11s0-.28-.05-.28S183.79,60.59,183.79,60.59Zm.44-8.07a.22.22,0,0,0,.11,0h.17s-.17-.16-.17-.16Zm.11-.56.17.22V52c0-.17-.06-.22-.17-.22S184.29,51.85,184.34,52Zm.22.33c-.05.06-.22.12-.22.17s.28.06.33,0,.11-.05.06-.11l-.06-.11Zm-.11,5.54s0,.16,0,.22l.17.05a.15.15,0,0,0,0,.22c-.06.06,0,.39.11.34s.22-.17.22-.28a.91.91,0,0,0-.22-.22c.05,0,.11-.17.16-.22l.06-.06c-.06,0-.06-.11-.06-.11A.63.63,0,0,0,184.45,57.83ZM184.56,45a.23.23,0,0,0-.05.17c0,.11.11.22.16.28s.17-.23.11-.28-.05-.17-.05-.22l-.11.05Zm0,7.25c-.05,0-.05.11,0,.11l.06-.06h.11c.11.06.16.06.22,0s.06,0-.06,0S184.67,52.18,184.56,52.24Zm0,5.31c-.05,0,0,.06.11.11s0,.11.06,0l-.06-.17h0Zm.06,1.82c.11.12.16.06,0,0S184.51,59.49,184.62,59.37Zm0-9.73c0-.06,0-.11,0-.06S184.62,49.69,184.67,49.64Zm.67-.83c0-.06-.06-.11-.11,0s-.34.06-.28.11.17.17.22.17l.11-.11Zm-.11-6.08a.14.14,0,0,0-.17,0c0,.05,0,.11.06.11s.11.11.16,0Zm-.06,3.37c0-.06-.11,0-.11,0v.11c.06,0,.17-.06.17-.11Zm.22,8a.43.43,0,0,0-.22.17h.06c.11,0,.27-.11.27-.17s.06-.16-.05-.11Zm-.22,5.76.11.16.22.06c.06-.06.11-.11,0-.22a1.35,1.35,0,0,0-.11-.28S185.17,59.76,185.17,59.82Zm.06-13.17s0,.06.05.06h.06s0-.06,0-.17A.12.12,0,0,0,185.23,46.65Zm.16,3.16s0,.16,0,.16h.11l.11-.16Zm.39-1.88s-.11.22-.06.22.23,0,.23-.06.11-.16,0-.22S185.78,47.81,185.78,47.93Zm.17-.61-.06,0c.11,0,.17-.11.11-.11A.05.05,0,0,0,186,47.32ZM186,49c-.06,0-.06,0-.06.05s.06.06.06,0,.22-.16.16-.16Zm.22-5.65s.11,0,.11-.11l-.11,0H186Zm.16,3.88s-.16,0-.16.16,0,.17.05.11a.54.54,0,0,0,.33-.11Zm.56,18.19c-.06.06-.11.12-.06.12s.17,0,.22-.06.11-.28.06-.22S186.89,65.35,186.89,65.4Zm.66-2c0-.06-.06-.11-.11,0,0-.06-.06,0-.06,0l.11.06.06-.06ZM198,56.44a.32.32,0,0,0-.06.22.74.74,0,0,0,.22-.11l-.05-.11Zm.22,7c0,.05,0,.16.06.11l.11-.17h-.06Zm.5-29.65c-.06.11,0,.22,0,.33a.66.66,0,0,0,.05.28.48.48,0,0,0,.28.11c.11,0,.17-.11.22-.17a.76.76,0,0,0,.06-.49c-.11-.06-.17-.17-.28-.17A.86.86,0,0,0,198.67,33.82Zm.61,24.62a.18.18,0,0,0-.06.16,1.37,1.37,0,0,0,.17.28c.05-.06.16-.22.11-.33l-.06-.17h-.11Zm.11-24.51c0,.11.11.28.22.28s.22-.17.22-.28-.11-.28-.22-.28S199.39,33.82,199.39,33.93Zm.66,28.27s-.05-.06-.17,0-.27.11-.22.16.17.17.22.17.06-.06.12-.11Zm-.22-2.55.11-.11-.06,0-.11.11Zm0-3.48c-.06,0-.06.11,0,.11a.11.11,0,0,0,.17,0c0-.06-.12-.11-.12-.17S199.77,56.11,199.83,56.17Zm0,2.32c0,.06,0,.17.06.22s.22.06.28.06-.06.11,0,.16V59h.11l.16-.22c0-.06,0-.11-.05-.11l-.17.05c0-.05,0-.11-.11-.16ZM200,60c-.06.05,0,.05,0,.11h.05c.06-.06.06-.11-.05-.17Zm.16,3.26s-.11.06,0,.06h.11l.11-.11Zm.17-5.36.11-.06-.11-.05-.06.05Zm.16,3.37-.05.22c0,.06.22.06.22-.05a.12.12,0,0,0,0-.17C200.6,61.26,200.49,61.26,200.49,61.31Zm.17,1-.06.06s.06.11.06,0a.22.22,0,0,0,.17-.11l-.12,0Zm0-1.6c-.06.05,0,.05,0,.05s.11-.11.05-.11A.05.05,0,0,0,200.66,60.76Zm.05-4.1.17.06c.06,0,.11,0,.11-.06l-.05-.11h-.23Zm.17,4.1c0,.11,0,.16.06.16s.33-.05.33-.11-.17-.16-.22-.16S200.88,60.7,200.88,60.76Z"/><path class="cls-4" d="M212.82,38.3a2.18,2.18,0,0,1,2.27,2.27c0,.44-.11,1.16.17,1.27s1.16-2.16,3.7-3a2.13,2.13,0,0,1,2.71,2.27c0,1.71-.38,2.71-1.1,2.6a4.77,4.77,0,0,0-1.27-.11,4.45,4.45,0,0,0-4.21,4.53v17.7a2.18,2.18,0,0,1-2.27,2.27h-1.88a2.18,2.18,0,0,1-2.26-2.27V40.57a2.18,2.18,0,0,1,2.26-2.27ZM210,65c.38,0,.72-.22.72-.45s-.34-.49-.72-.49-.94.22-.94.49S209.45,65,210,65Zm-.06-8.91c.06.06.17-.11.11-.16l-.05-.06-.11.11Zm.94-9.13-.16.34c.05,0,.11.11.33,0,.11,0,.44-.06.39-.17s-.28-.33-.34-.28S210.89,46.87,210.83,47Zm.28-2c-.06.05-.06.22,0,.22a.08.08,0,0,0,.11,0,.31.31,0,0,0,.05-.17l-.11-.11Zm0,13.38c0,.06.16.12.16.06a.11.11,0,0,0-.11-.11C211.05,58.27,211.11,58.32,211.11,58.32Zm.11-.83c0,.12-.06.28.05.17s.17-.22.12-.28l-.06-.05-.11-.06Zm.66,1.94a3.91,3.91,0,0,0,.06.5l.11-.28c0-.28,0-.44-.11-.44A.12.12,0,0,0,211.88,59.43Zm.67,5.75c-.06.06,0,.28,0,.28l.11-.11a.41.41,0,0,1-.06-.17Zm.77-24.67c.17,0,.39-.11.39-.27a.37.37,0,0,0-.39-.34.38.38,0,0,0-.39.34C212.93,40.4,213.16,40.51,213.32,40.51Zm-.22,19.42c-.06,0-.11,0-.06.11a.22.22,0,0,0,.17.11l.22-.11Zm.11-18.37c.11.11.28.06.44.06a.54.54,0,0,0,.39-.11.51.51,0,0,0,.17-.39.38.38,0,0,0-.22-.33.82.82,0,0,0-.72-.06c-.11.12-.23.23-.23.39A.62.62,0,0,0,213.21,41.56Z"/><path class="cls-4" d="M244,42.06c.16.28.22.39.16.44a.72.72,0,0,0-.16.34c0,.16,0,.38.16.44l.06.11s.55.17.66.44a9.89,9.89,0,0,1,.39,2.6v16c0,.83.06,2,.17,3.21.16,1.49-.5,2.38-2,2.38h-2.21c-1.44,0-1.55-2.21-2.21-2.21s-2.38,2.76-6.2,2.76c-4.86,0-8.68-2.32-8.68-7.85,0-9.07,9.29-10.35,13.61-10.51.72,0,1.1-.39,1.1-1.16-.11-4.1-.88-6.2-3.43-6.2A3.33,3.33,0,0,0,232,45.66c-.38,1.32-1,2-2.32,2h-1.77c-1.49,0-2.38-.83-2.16-2.32.94-5.14,4.87-7.63,9.79-7.63A9.89,9.89,0,0,1,244,42.06ZM225.76,58.32v.06a.1.1,0,0,0,.17,0s.06,0,0-.06-.06,0-.17,0S225.76,58.32,225.76,58.32Zm.39,2.66c0,.05.06,0,.06,0s0-.17-.06-.11A.08.08,0,0,0,226.15,61Zm.72,2.54c-.17.11-.28.11-.33.22a.51.51,0,0,0-.22.34.61.61,0,0,0,.11.49.28.28,0,0,0,.27.12c.28-.23.17-.28.45-.67a.54.54,0,0,0,0-.5A.28.28,0,0,0,226.87,63.52Zm0-5.14a.17.17,0,0,0,.11-.06c0-.11,0-.16,0-.16s-.11-.11-.17-.06S226.87,58.32,226.87,58.38Zm.06.83.16,0,.17-.22a.22.22,0,0,0-.11,0l-.22,0Zm.49-13.61.17.11,0-.11,0-.05c0-.06,0-.11-.06-.17a.64.64,0,0,0-.27-.05C227.2,45.38,227.31,45.55,227.42,45.6Zm.5,18.59a.5.5,0,0,0,0,.38.15.15,0,0,0,.28,0c.11-.11.05-.27,0-.38S228,64,227.92,64.19ZM228,43.78c-.05,0-.11.11-.11.16s.11.22.17.11v-.22Zm.28,1.77c0-.06-.06,0-.11,0a.17.17,0,0,0-.06.11h.11l.06-.06Zm.5-1.66h.05a.52.52,0,0,1,.06-.17h-.11Zm8.4,11.45c-4.42,0-7.41,1.27-7.41,4.37a3.52,3.52,0,0,0,3.54,3.76c2.93,0,5.2-2.49,5.48-7,.05-.72-.22-1.16-.78-1.16Zm1.61-13.61s-.06-.11-.11-.06v.12Zm1.49-.39s0,.06.11.17l0,.16s.16.17.16.06.28-.33.22-.44C240.7,41.34,240.53,41.23,240.31,41.34Zm.11,10.95c0,.06.11.12.17,0l0,0-.11-.06Zm.72,12.78s.11,0,.11-.11-.05,0-.05,0l-.11.11Zm0-1.33c0,.06.06.06.11.06l.11-.06-.11-.05h-.11Zm.28-20.46.11-.17c-.06-.11-.17-.11-.17,0l-.05,0Zm.11,10.78c-.11,0-.22.12-.11.12s.27,0,.27-.12l.06-.05-.06-.06Zm.16,5.59c.06,0,.12-.16,0,0S241.58,59.65,241.69,59.65Zm.06,6.36c0,.11,0,.11.06.11a.1.1,0,0,0,.16.06.69.69,0,0,0-.16-.22C241.75,66,241.69,66,241.75,66Zm.17-7c.05,0,.27.27.33.27s.05-.22.05-.27a.19.19,0,0,0-.27-.11C241.92,58.88,241.86,58.93,241.92,59Zm.05,3.87.28,0s-.06.12,0,.17v.06h.11s.16-.17.22-.23a.16.16,0,0,1-.06-.11h-.22s0,0-.11-.11-.27-.16-.27-.11A.56.56,0,0,0,242,62.86Zm.22-6.8.33,0c.23,0,.39,0,.39-.16s0-.12-.22-.06A1.62,1.62,0,0,0,242.19,56.06Zm.78-5.42c.11.11.22.16.33.11a.75.75,0,0,0,.28-.28c-.06-.06-.39-.22-.45-.11S243,50.52,243,50.64Z"/><path class="cls-4" d="M267.91,58.27a1.8,1.8,0,0,1,2,2.38c-.77,4.2-2.76,8-9.51,8-7.8,0-10.51-6.08-10.51-15.54,0-9.29,3.15-15.27,10.51-15.27,6,0,8.79,4.26,9.68,8.24.27,1.44-.61,2.33-2.11,2.33h-1.71a2,2,0,0,1-2.05-1.22,2.3,2.3,0,0,0-.05-1c-.06-.22.05-.38,0-.82s-1-.94-1.27-1.28a3.12,3.12,0,0,0-2.44-1.1c-3.43,0-4.15,3.54-4.15,10.12s.23,10.4,4,10.4c2,0,3.09-1.27,3.59-3.16.39-1.32,1-2,2.38-2Zm-16.65-5.15a.13.13,0,0,0-.22,0c.05,0,.11.16.17.11S251.26,53.12,251.26,53.12Zm0,3.49-.06-.06H251v.22c0,.12.05.28.05.17S251.26,56.66,251.21,56.61Zm.71,1.88a1.81,1.81,0,0,0-.27-.44l0,.27c.06.28.11.45.22.39S252,58.6,251.92,58.49Zm.83-1.44c-.05-.11-.33-.22-.38-.16s-.11,0-.17.16l0,.39a.34.34,0,0,0,.33-.11C252.59,57.33,252.86,57.11,252.75,57.05Zm-.22-3.21a.15.15,0,0,0-.22.11l.06.06c0,.05.16,0,.16,0l.06-.11Zm.45-9c.05-.16.27-.27.27-.44,0-.55-.22-.66-.5-.66s-.33.27-.27.66a.58.58,0,0,0,.33.44l-.11.28c-.06.28,0,.39.11.39C253.14,45.55,253,45.16,253,44.88Zm-.5,3.71c-.06,0,.05.11.16.11v-.17Zm1.05,9.07c.05,0,0-.17-.06-.11a.24.24,0,0,0-.16.06v.27Zm1-16c.06.06.06.06.06.23a.19.19,0,0,0,0-.11C254.63,41.73,254.58,41.73,254.52,41.67Zm.72,13.5c-.05-.05-.44,0-.44.11a.21.21,0,0,0,0,.33c.17.06.28.06.33,0A1.3,1.3,0,0,0,255.24,55.17Zm0-12.72c-.11-.06-.22-.11-.22-.22-.11.11-.05.16-.11.27s.17,0,.11,0S255.3,42.45,255.24,42.45Zm-.05,15.32c.05-.05,0-.05-.06-.05s-.22.16-.11.16a.12.12,0,0,0,.17-.05Zm.44-15.32c0-.06-.06,0-.17-.11a.6.6,0,0,1-.05.16s.05.23.11.23,0,0,0-.12Zm1,.66c0,.06,0,.06.05.06s.06-.06,0-.11a.14.14,0,0,0,0-.17S256.57,43.06,256.63,43.11Zm1.21-2.43s-.11.22,0,.28h.11s.11-.06.05-.06a.22.22,0,0,1-.11,0Zm1.55-.78.06.12.05-.06c.06.06.11.06.06-.06.16.06.22,0,.22-.16s-.06,0-.39,0C259.34,39.79,259.39,39.9,259.39,39.9Zm.89.45c.05,0,.22-.06.22,0s.16-.22.05-.22l-.22.11Zm2.26,2c.06-.06.17-.17.11-.17h-.16l-.11.11Zm.83-1.72s.17,0,.17,0l-.17-.11-.05.11Zm.23,1.55c0,.06.33.17.27.28.06-.06.22,0,.17-.11l0-.11c0-.06.06-.06.17-.11l.22-.11c-.11-.17-.33-.17-.39-.06,0-.05-.11.11-.11.17a.26.26,0,0,0-.22-.11v.05Zm4.7,18.59a.51.51,0,0,0-.17-.28c-.11,0-.22-.17-.39-.17s-.27.12-.38.17a.7.7,0,0,0-.17.28.45.45,0,0,0,.17.39c.05.11.27.11.38.11a.67.67,0,0,0,.39-.11A.54.54,0,0,0,268.3,60.76Z"/><path class="cls-4" d="M293,64.57a2.48,2.48,0,0,1-2.44,3.49h-.71a2,2,0,0,1-1.94-1.33l-3-8.24c-.33-.94-1.05-1-1.49-.11L282.18,61a5.17,5.17,0,0,0-.67,2.71v2.1a2.18,2.18,0,0,1-2.26,2.27h-1.89a2.18,2.18,0,0,1-2.26-2.27V30.39a2.18,2.18,0,0,1,2.26-2.27h1.89a2.18,2.18,0,0,1,2.26,2.27v15.1c0,1.11.78,1.33,1.33.33l3.71-6.58a1.93,1.93,0,0,1,1.71-1H289a2.59,2.59,0,0,1,2.37,4l-3.26,6.19a3.19,3.19,0,0,0-.17,3ZM276.65,48.48a.28.28,0,0,0,0-.28c-.12,0-.23-.11-.34-.05.11-.06.11-.06,0-.17l.06,0a.27.27,0,0,0-.17-.06l-.11.22c0,.11,0,.17.06.11h.16c-.05,0,0,.06.11.17Zm0-3.6c0,.06.11.11.16.11s.11,0,.06,0,0-.11-.06-.11S276.65,44.77,276.65,44.88Zm.16,10.18a.08.08,0,0,0,0,.11h.06l.05-.05Zm.11-1.94c.06,0,.17.11.17,0L277,53h-.06Zm.44,1.22s0-.05-.11-.05a.07.07,0,0,0-.11,0c-.16,0-.16.05-.11.11s.17.22.22.22.11-.17.06-.22S277.36,54.34,277.36,54.34Zm-.05,0v.06c-.06,0-.11,0-.11-.06s0-.05.05-.05Zm.17-7.08s-.06,0-.12,0-.11,0-.11.11l.23.11Zm0-1.33s-.17.06-.12.11,0,.06,0,.06.12-.06.12-.06l0,0Zm.27-4.09c0,.06.17.17.22.22h.22V42l-.05-.05c0-.06-.06-.06-.17-.11Zm.44,13.55s-.05,0-.05,0-.06.06,0,.06l.11.11Zm.28-18.69a.26.26,0,0,0-.17-.06l.06.11h.06Zm.55-.94a.89.89,0,0,0,.11.22h.17a.23.23,0,0,0-.05-.17C279.25,35.76,279,35.7,279,35.76Zm.17,23.5c.06,0,.11,0,.06-.11a.53.53,0,0,0-.06-.16Zm.17-18.8a.19.19,0,0,1-.11,0l.05.06.11-.06Zm.27,8.68a.5.5,0,0,0-.11.22s0,0-.16,0h-.06c0,.11.17.22.17.28s.16,0,.16-.06v-.16a.16.16,0,0,0,.11-.06c.06,0,.17-.22.11-.22S279.69,49.09,279.63,49.14Zm-.22-5.64c-.05,0-.05.11-.05.11s.16,0,.22,0a.06.06,0,0,0-.06-.06S279.41,43.44,279.41,43.5Zm.06,3.93,0,0h.06s0-.16-.06-.16a0,0,0,0,0,0,0C279.41,47.37,279.47,47.43,279.47,47.43Zm.27-4.48s-.11.11-.11.16a.21.21,0,0,0,.11.06c0-.06.11-.11.11-.11s.06-.06,0-.11Zm.45,23c0-.06-.06-.17-.23-.17s-.27.11-.27.17.11.16.27.16S280.19,66.07,280.19,66Zm-.28-11.45a.26.26,0,0,0-.11.16.82.82,0,0,0,.11.23s.16-.17.11-.23S280,54.56,279.91,54.51Zm1-2.38s0-.11-.11-.06h-.05c0,.06,0,.06.05.06Zm.72-3c.11-.22.28-.39.28-.61,0-.77-.17-.94-.44-.94s-.33.39-.28.94.33.61.33.61l-.11.44c-.11.39,0,.5.11.5C281.79,50.08,281.62,49.58,281.62,49.14Zm3.93,6c0,.05.17.05.17.05l-.06-.11h-.16Zm.5.77c0-.06-.06-.06-.11,0s-.11.11-.06.11a.11.11,0,0,0,.11.17C286.05,56.11,286.05,56,286.05,55.89Zm1.22-.77a.22.22,0,0,0,.11-.17l.05-.05c-.05,0-.05-.06-.05-.06l-.34.06a.44.44,0,0,0-.05.22l.05.05.06-.05,0,.05a.16.16,0,0,0,0,.17,1.42,1.42,0,0,0,.12.27.46.46,0,0,0,.16-.27Zm-.17,0-.11-.06L287,55s.06,0,.06.05Z"/><path class="cls-4" d="M301.31,28.12a2,2,0,0,1,2.21,2.22v1a2,2,0,0,1-2.21,2.21h-2.05a2,2,0,0,1-2.21-2.21v-1a2,2,0,0,1,2.21-2.22Zm-.05,10.18a2.13,2.13,0,0,1,2.26,2.21v7.25c0,.17-.16.28-.27.5a1.4,1.4,0,0,0,.05,1.43,1,1,0,0,1,.22.56V65.74a2.22,2.22,0,0,1-2.26,2.32h-1.94a2.23,2.23,0,0,1-2.27-2.32V40.51a2.14,2.14,0,0,1,2.27-2.21ZM299.76,42a.47.47,0,0,0-.16-.33.56.56,0,0,0-.39-.22.71.71,0,0,0-.39.22.64.64,0,0,0-.16.33c0,.17,0,.39.16.44s.28.11.39.11a.62.62,0,0,0,.39-.11A.61.61,0,0,0,299.76,42Zm-1,13.22c.05,0,.38-.05.38-.16s-.16-.11-.22-.11a.28.28,0,0,0-.22.11C298.6,55.17,298.71,55.17,298.77,55.17Zm.77,11.28c-.16,0-.33-.22-.44-.22l-.11.22v.23h.55s0,0,.06,0h.11v-.11Zm-.28-2.1c-.05,0-.22,0-.22.17a.15.15,0,0,0,.22-.11C299.32,64.35,299.26,64.35,299.26,64.35Zm0-2.43c0,.06,0,.22.06.11l.17-.11-.11-.06Zm0,.94a1.61,1.61,0,0,0,.06.44.06.06,0,0,0,.06.06c0-.06.11-.22,0-.28Zm.34-.22c0-.06-.06-.17-.06-.06s0,.17.06.17h.11l.05-.06ZM301,64.41c0-.06-.33,0-.44,0s-.06.16,0,.11l-.22.11h-.06c0,.11-.05.11-.05.17l.11,0h.33v0h-.22v-.06h.22c.05,0,.11-.11.11-.22.11,0,.22,0,.22,0S301,64.41,301,64.41Zm-.55.33h-.17s0,0,.06-.11Zm-.11-.66a.91.91,0,0,0,.16.33v-.22c0-.17-.05-.28-.16-.28S300.26,64,300.32,64.08Zm.38.44h-.16l.16-.11Zm.5-4c-.05-.06-.28.05-.22.16a.38.38,0,0,0,.22.11c.06,0,.17,0,.17-.05l.05-.28Zm.28,6-.28.17v0h.17c.05,0,.27-.16.27-.22v-.17Zm-.11-8.41c.05.06.05.06.11,0a.4.4,0,0,0-.06-.16c-.05,0-.05.11-.05.11Zm.49-9.4c.61-.22.45-.66-.16-.44-.33.16-.39.55-.11.44A.48.48,0,0,0,301.86,48.7Zm-.38,13v.16h.16l.11-.16Zm.38-1.94s.28,0,.28,0,.06-.17,0-.22-.16-.12-.22,0Zm.39.83s-.05.11-.11.11-.05.06-.05.06.05.05.05,0S302.36,60.59,302.25,60.59Z"/><path class="cls-4" d="M329,64.08v1.71a2.18,2.18,0,0,1-2.27,2.27h-1.88a2.18,2.18,0,0,1-2.26-2.27V47.54s.16-4.65-2.94-4.65a6.1,6.1,0,0,0-3.32,1,1.45,1.45,0,0,0-.66,1.32V65.79a2.18,2.18,0,0,1-2.27,2.27h-1.88a2.18,2.18,0,0,1-2.27-2.27V43.89c0-.61,0-1.28,0-1.88,0-.39.88-.22.72-.67-.28-.72-.89-.27-.89-.83a2.33,2.33,0,0,1,2.38-2.21h2a2.11,2.11,0,0,1,2.11,1.44c.22.66.38.77.88.28a9.31,9.31,0,0,1,5.7-2.27c6.52,0,6.91,7.3,6.91,8.46v16c0,.22-.11.16-.33.27s-.11.28-.17.33a.42.42,0,0,0,.11.78A.52.52,0,0,1,329,64.08ZM310.38,42.56c0-.06,0-.11-.05-.11s-.28,0-.28,0-.22,0-.33.11-.06.34,0,.34a.88.88,0,0,1,.44.16c.17.06.22-.16.22-.22S310.49,42.67,310.38,42.56Zm.66,5,.06.11c.06.06.11,0,.17,0s.05-.22.05-.27A1.82,1.82,0,0,1,311,47.59Zm.34,7,.11-.05c0-.06,0-.17-.06-.17l-.11.17Zm-.06,1s.11,0,.11,0h.06l-.11-.06Zm0,1.55.11.17c.06,0,.06-.22,0-.28s-.05-.11-.05-.11A.32.32,0,0,0,311.32,57.16Zm.22-5.75c.06,0,.11.06.17,0S311.54,51.36,311.54,51.41Zm.06,4.65s.11,0,.11,0-.06-.17-.11-.17l-.06.06Zm.5,3.54c0,.16.11.27.16.22s.11-.06,0-.11a1,1,0,0,0-.16-.34Zm.16-8.19c0,.11.06.17.06.22l.16-.05v-.06c.06,0,.11-.05.06-.16a.64.64,0,0,0-.11-.28C312.32,51.08,312.21,51.3,312.26,51.41Zm.11,6.69c.06-.11.06-.11-.05-.05S312.37,58.21,312.37,58.1Zm.33-4.87-.05.23s.05,0,.16,0,.28-.06.23-.11-.17-.17-.23-.17A.19.19,0,0,0,312.7,53.23Zm.06-3.31s.11.16.11.16a.07.07,0,0,0,.11,0c0-.11,0-.16-.05-.16S312.76,49.86,312.76,49.92Zm.05,5a.18.18,0,0,0-.05.11.08.08,0,0,0,.11,0V55Zm.12-.39a.19.19,0,0,0,.05.11c.06,0,.06,0,.06-.06a.05.05,0,0,0-.06-.05C313,54.45,312.93,54.45,312.93,54.51Zm.22.72-.17.16.28,0s.05-.11,0-.11S313.15,55.17,313.15,55.23Zm.11-3.76s-.11,0-.11.05l.11.06h.05l.06-.11Zm0,11.83a.59.59,0,0,0,.05.17l.28-.06c0,.06,0,.11.17.17s.33.16.33.11,0-.28-.11-.33l-.34-.06c.06,0,.06-.16,0-.22v0a.53.53,0,0,1-.16-.06Zm.44-18.58c.06.05.06.16.11.16l.22-.05a.41.41,0,0,0,.17.16,2.53,2.53,0,0,1,.33.11c0-.05,0-.27-.11-.33a.66.66,0,0,0-.33-.05c.05,0,.05-.17,0-.22v-.06a.18.18,0,0,1-.11,0Zm7.19-4.7c0,.11.17.16.17.11S321,40,321,40,320.89,40,320.89,40Zm3.65,7.68a3.91,3.91,0,0,0,.06.5l.11-.27c.05-.28,0-.45-.11-.45S324.43,47.54,324.54,47.7Zm.39,4.37a.23.23,0,0,0,.16,0c.12-.06.17-.28.12-.33l-.34.22Zm.22-9.73c.06.11.17.16.17.11s.05-.17-.11-.17S325.15,42.28,325.15,42.34Zm0,17.7c0,.05.17.05.17,0l.05-.06-.16,0Zm.06,2.49a.1.1,0,0,0,.16-.06s0-.22-.05-.16l-.17.22Zm0-.17c.05.06.11.22.11.17s0-.22,0-.33-.06-.11-.11-.06S325.15,62.31,325.21,62.36Zm.16,1.16.11.11c.06.06.11.17.11.06s0-.22-.11-.22h-.05Zm.22-4c0-.06-.16-.06-.16,0s.11.11.11,0Zm.22-11.29c-.11,0-.16.06-.11.11s.11.11.17.11l.22-.11Zm.11,17.15c.06.28.17.44.28.39s.11-.11,0-.22a1.87,1.87,0,0,0-.28-.45ZM326,58.1a2,2,0,0,1,.12.34l.22-.06.05-.11c.06,0,.11-.11.06-.22s-.17-.33-.22-.39A.7.7,0,0,0,326,58.1Zm.23,3.21c.05-.11.05-.16-.06-.11S326.26,61.42,326.26,61.31Zm.33-4.2-.11.22c0,.05.11.05.22,0s.28-.06.22-.11-.17-.17-.22-.17S326.59,57.05,326.59,57.11Zm0-1.77a.77.77,0,0,0,.16.27c.06.06.17,0,.11,0s.06-.22,0-.22S326.64,55.23,326.59,55.34Zm.11,5.53c0-.06-.11,0-.11.05a.05.05,0,0,0,.05.06.08.08,0,0,0,.11,0l.06-.11Zm.11.39c-.06,0-.06.11,0,.16a.05.05,0,0,0,.05.06c.06-.06.12-.06.06-.11s0-.06-.06-.11S326.81,61.2,326.81,61.26Zm.17,2.65-.17.17h.33c.06-.06.11-.17.06-.17S327,63.86,327,63.91Zm.11,3c.11.11.33,0,.44,0a.51.51,0,0,0,.33-.22.36.36,0,0,0,.06-.39.39.39,0,0,0-.23-.33,1.17,1.17,0,0,0-.71.17.75.75,0,0,0-.12.39C326.92,66.73,327,66.9,327.09,67Zm.16-10.84a.1.1,0,0,0-.16,0,.06.06,0,0,0-.06.06l.11,0Z"/><path class="cls-4" d="M347.16,39.52c.72.61.94.38,1.22-.56.11-.38.83-.71,2.21-.71h2a1.94,1.94,0,0,1,2.16,2.21V62.91a1.6,1.6,0,0,1-.39,1,3.65,3.65,0,0,0-.44.44,1.63,1.63,0,0,0-.44.77c0,.78,1.27.39,1.27,1.55v2.49c0,4-2.71,10.12-10.51,10.12-6.75,0-9.07-3.7-9.46-7.41-.11-.88,2.49-.94,4.37-.72A4.07,4.07,0,0,1,342,72.93a2.79,2.79,0,0,0,2.38,1.16c3.76,0,4-4.59,4-5V67.34c0-.94-.55-1.16-1.27-.55a7.92,7.92,0,0,1-4.87,1.77c-6.58,0-8.18-8.41-8.18-15.77a51.31,51.31,0,0,1,.49-5.64c.06-.5.83-.44.61-1.16-.05-.17.06-.28,0-.5a2.33,2.33,0,0,1,.06-1.38c1.1-3.54,3.21-6.42,7-6.42A8.62,8.62,0,0,1,347.16,39.52ZM336.71,60c-.06.05.05.22.11.16s.05-.05.05-.05a.07.07,0,0,0,0-.11l-.16-.11Zm.44-.33c-.06.16-.06.22,0,.22s.22.16.28,0a.64.64,0,0,0-.11-.27C337.21,59.65,337.09,59.71,337.15,59.71Zm.44-1.27v.33a.3.3,0,0,0-.27.16c-.06.06-.23.39-.17.39s.28.11.39,0a1.56,1.56,0,0,0,.16-.44s.17.11.28,0h.11a.6.6,0,0,1,.05-.16c0-.06-.27-.33-.33-.39S337.59,58.38,337.59,58.44Zm.22,1.1.11-.11c-.05-.17-.11-.17-.11-.17l-.05.06Zm.94-.11c.06.06.23.11.23.06s-.17-.23-.17-.23S338.75,59.37,338.75,59.43ZM340.41,53c0,5.81.22,10.4,4,10.4s4-4.59,4-10.4c0-5.47-.22-10.12-4-10.12S340.41,47.54,340.41,53Zm.22-12.83c.06.11.28.11.39.11a.48.48,0,0,0,.55-.55.47.47,0,0,0-.16-.33.56.56,0,0,0-.39-.22.74.74,0,0,0-.39.22.64.64,0,0,0-.16.33C340.47,39.9,340.52,40.13,340.63,40.18Zm9,3.32c-.12,0-.17.06-.17.22s0,.39,0,.44a.6.6,0,0,0,.44-.38c.06-.11,0-.28,0-.34l-.22,0Zm-.12,29.43c-.11.16.12.38.17.44s.17.11.39.11c.33-.17.16-.28.5-.61a.31.31,0,0,0,0-.5c-.06-.05-.17-.05-.34,0s-.38.11-.44.23S349.6,72.76,349.48,72.93Zm.67-15.16c0,.06.22.39.33.33a.21.21,0,0,0,.28-.16.25.25,0,0,0-.22-.28Zm.94-2.43c-.06-.06-.11,0-.11,0l-.11.11H351l.11,0Zm.55,18c.06.11.22.11.33,0s.11-.28,0-.33-.27-.17-.33,0A.21.21,0,0,0,351.64,73.37Zm.44-25.72c-.05-.06-.05-.06-.16,0s-.22.05-.22.11a.42.42,0,0,0,.22.11.05.05,0,0,0,.05-.06ZM351.7,60a1.83,1.83,0,0,1,.16.27.34.34,0,0,0,.22-.05c.06,0,0-.22,0-.22a1.11,1.11,0,0,0-.33-.11A.18.18,0,0,0,351.7,60Zm.11-5.42c-.06.11,0,.33.05.33v-.22l.06-.06a.32.32,0,0,0-.06-.22C351.81,54.45,351.7,54.56,351.81,54.62Zm0-3.6c.05,0,.11,0,.05-.11s-.05-.27-.05-.27S351.75,50.91,351.81,51Zm.05,11.29c0,.22.06.22.17.16s.44-.33.39-.44-.34-.11-.39-.05S351.81,62.2,351.86,62.31Zm.5-15.27c.06.06.22,0,.22-.06a.18.18,0,0,0,.06-.16h-.22Zm.22.72-.05.05c0,.06.05.06.05,0a.22.22,0,0,0,.17-.11l-.11.06Zm0,13.94s0,0,.06.11.16-.17.27-.22l-.05-.17-.17.06Z"/></svg>
