<svg id="Calque_1" xmlns="http://www.w3.org/2000/svg" viewBox="0 0 1572.1 345.7"><style>.st0{fill:#e23a05}.st1{fill:#293847}</style><path class="st0" d="M175 170.4a66.1 66.1 0 0 1-54.3 28 66.3 66.3 0 0 1-67.6-67.9c0-19.4 7.1-36.9 19.9-49.3a68.2 68.2 0 0 1 47.8-18.7c21.7 0 42 10.5 54.3 28l2 2.8 40.1-34-2-2.4a123 123 0 0 0-94.4-43.8C54.1 13.3 0 65.9 0 130.5 0 195 54.1 247.4 120.7 247.4c36.7 0 71.1-15.8 94.4-43.5l2-2.4-40.1-34-2 2.9z"/><path class="st1" d="M410.9 3.5v238.2h-44.2v-10.4a100.6 100.6 0 0 1-49.9 13.3c-47.7 0-86.9-36-86.9-88.8 0-53.7 39.2-88.8 86.9-88.8 18.3 0 35.7 5.1 49.9 13V3.5h44.2zm-44.2 186.4V121a65.2 65.2 0 0 0-42-14.5c-29.4 0-51.2 21.2-51.2 49.3 0 29.1 21.8 49 51.2 49a64.6 64.6 0 0 0 42-14.9zM448.7 84h43.9v157.7h-43.9V84zM538.2 195.3a136.5 136.5 0 0 0 58.8 13.9c20.2 0 28.1-7.6 28.1-16.4 0-9.8-9.8-14.2-36.3-19.9-37-8.2-63.8-20.2-63.8-53.4 0-31 25.6-52.5 65.4-52.5 26.9 0 48.3 6.3 67 13.9l-14.5 32.2a159.8 159.8 0 0 0-53.4-11.1c-16.7 0-25.3 6-25.3 15.2 0 9.5 10.4 13.9 37.9 19.6 39.8 8.2 62.9 22.1 62.9 53.4 0 32.5-25 54-68.9 54-29.7 0-49-4.1-74.3-16.4l16.4-32.5zM844 209.8a82.4 82.4 0 0 1-66.4 34.4c-51.8 0-93.8-39.5-93.8-88.5 0-49.3 42-88.8 93.8-88.8a83 83 0 0 1 67 34.1l-28.4 26.2a46.7 46.7 0 0 0-38.5-20.9 50 50 0 0 0-50.6 49.3 50 50 0 0 0 50.6 49 46 46 0 0 0 38.5-21.2l27.8 26.4zM1044.9 155.8c0 49-42 88.5-93.8 88.5s-93.8-39.5-93.8-88.5c0-49.3 42-88.8 93.8-88.8s93.8 39.5 93.8 88.8zm-43.3 0a49.8 49.8 0 0 0-50.6-49.3 50 50 0 0 0-50.6 49.3 50 50 0 0 0 50.6 49 49.9 49.9 0 0 0 50.6-49zM1235.1 71.5v170.2h-43.9v-11.4a83 83 0 0 1-46.8 13.9c-50.2 0-73.3-23.4-73.3-79V71.5h43.9v93.7c0 26.5 13 39.5 37.3 39.5 15.8 0 28.8-5.1 38.9-13.6V71.5h43.9zM1434.4 146v95.7h-43.9V146c0-26.5-13-39.5-37.3-39.5a56.2 56.2 0 0 0-37.9 13.6v121.6h-43.9V70.1h43.9v10.7a79.6 79.6 0 0 1 45.8-13.9c50.2.1 73.3 23.5 73.3 79.1zM1524.1 106.5v60.7c0 30.6 5.1 39.5 27.2 39.5 7.6 0 14.2-.9 20.2-1.6V238c-1.9.6-15.2 6.3-39.8 6.3-28.8 0-51.8-18-51.8-54v-83.7h-24.3V70.1h24.3V3.5h44.2v66.7h48v36.3h-48z"/><path class="st0" d="M447 25.9A25.7 25.7 0 0 1 472.3 0c13.9 0 25 11.7 25 25.9a25.2 25.2 0 0 1-25 25.6c-14 0-25.3-11.4-25.3-25.6z"/><g><path class="st1" d="M328.2 345.2l-18.7-25.1v25.1h-5.9v-35h5.8l18.8 25.2v-25.2h5.8v35h-5.8zM349.1 313.4c0 1-.4 1.8-.9 2.6l-2.9 4.3h-3l1.9-4.3a3 3 0 0 1-1.3-2.6c0-1.9 1.3-3.2 3.1-3.2 1.7 0 3.1 1.2 3.1 3.2zM363.8 315.5v9.5h17.1v5.3h-17.1v9.7h19.7v5.3h-25.6v-35h25v5.3h-19.1zm8.5-9.1h-5.1l5.3-7.4 5.9 2.5-6.1 4.9zM421.5 315.5l-3.5 4.3a13.6 13.6 0 0 0-9.8-4.5 12.4 12.4 0 0 0 0 24.7c3.5 0 7.1-1.6 9.8-4.2l3.5 3.9a20 20 0 0 1-13.6 5.8 17.7 17.7 0 0 1-18.2-17.8c0-10 8.1-17.6 18.4-17.6 5.1 0 10 2 13.4 5.4zM463 327.7a18 18 0 0 1-18.6 17.8 18 18 0 0 1-18.6-17.8c0-10.1 8.1-17.7 18.6-17.7 10.5.1 18.6 7.7 18.6 17.7zm-31.1 0c0 7 5.8 12.5 12.6 12.5a12.4 12.4 0 1 0 0-24.9c-6.9.1-12.6 5.5-12.6 12.4zM495.9 345.2l-18.7-25.1v25.1h-5.9v-35h5.8l18.8 25.2v-25.2h5.8v35h-5.8zM547.1 327.7a18 18 0 0 1-18.6 17.8 18 18 0 0 1-18.6-17.8c0-10.1 8.1-17.7 18.6-17.7 10.5.1 18.6 7.7 18.6 17.7zm-31.1 0c0 7 5.8 12.5 12.6 12.5a12.4 12.4 0 1 0 0-24.9c-6.9.1-12.6 5.5-12.6 12.4zM587 345.2V319l-11.1 22.5H572l-11-22.4v26.2h-5.5v-35h7l11.6 23.3 11.5-23.3h7v35H587zM603.7 345.2v-35h5.9v35h-5.9zM644.5 313.6l-2.5 5.2a21 21 0 0 0-10.3-3.3c-3.5 0-5.7 1.3-5.7 3.7 0 7.7 18.9 3.6 18.9 16.2 0 6.3-5.5 10.1-13.2 10.1-5.5 0-10.7-2.3-14.3-5.6l2.6-5.1c3.6 3.3 8.1 5.1 11.9 5.1 4.1 0 6.5-1.5 6.5-4.3 0-7.8-18.9-3.5-18.9-15.9 0-6 5.2-9.8 12.8-9.8 4.5.1 9 1.5 12.2 3.7zM659.8 315.5v9.5h17.1v5.3h-17.1v9.7h19.7v5.3h-25.6v-35h25v5.3h-19.1zM693.9 339.9h21.6v5.3h-29.6V341l21.4-25.5h-20.7v-5.3h28.7v4.3l-21.4 25.4zM752.8 310.2c8.8 0 13.9 4.3 13.9 12 0 7.9-5.1 12.5-13.9 12.5h-8v10.6h-5.9v-35h13.9zm-8 19.2h7.8c5.4 0 8.5-2.3 8.5-7.1 0-4.6-3.1-6.8-8.5-6.8h-7.8v13.9zM777.3 337.3l-3.4 7.9h-6.2l15.5-35h6.1l15.3 35h-6.3l-3.4-7.9h-17.6zm8.8-20.8l-6.6 15.6h13.2l-6.6-15.6zM834.7 313.6l-2.5 5.2a21 21 0 0 0-10.3-3.3c-3.5 0-5.7 1.3-5.7 3.7 0 7.7 18.9 3.6 18.9 16.2 0 6.3-5.5 10.1-13.2 10.1-5.5 0-10.7-2.3-14.3-5.6l2.6-5.1c3.6 3.3 8.1 5.1 11.9 5.1 4.1 0 6.5-1.5 6.5-4.3 0-7.8-18.9-3.5-18.9-15.9 0-6 5.2-9.8 12.8-9.8 4.5.1 8.9 1.5 12.2 3.7zM868.4 345.2l-14-35h6.3l10.8 28.5 10.9-28.5h6.2l-14.2 35h-6zM929.4 327.7a18 18 0 0 1-18.6 17.8 18 18 0 0 1-18.6-17.8c0-10.1 8.1-17.7 18.6-17.7 10.5.1 18.6 7.7 18.6 17.7zm-31.1 0c0 7 5.8 12.5 12.6 12.5a12.4 12.4 0 1 0 0-24.9c-6.9.1-12.6 5.5-12.6 12.4zM949.8 315.5v29.7h-5.9v-29.7h-11.1v-5.3h28.1v5.3h-11.1zM983.8 334.6h-9.9v10.6H968v-35h14.2c9 0 14.1 4.3 14.1 12 0 5.6-2.6 9.6-7.3 11.4l7.9 11.7h-6.7l-6.4-10.7zm-1.6-5.2c5.4 0 8.5-2.3 8.5-7.1 0-4.6-3.1-6.8-8.5-6.8h-8.3v13.9h8.3zM1012 315.5v9.5h17.1v5.3H1012v9.7h19.7v5.3h-25.6v-35h25v5.3H1012zM1069.8 310.2c8.8 0 13.9 4.3 13.9 12 0 7.9-5.1 12.5-13.9 12.5h-8v10.6h-5.9v-35h13.9zm-8.1 19.2h7.8c5.4 0 8.5-2.3 8.5-7.1 0-4.6-3.1-6.8-8.5-6.8h-7.8v13.9zM1112.5 339.9v5.4h-21.1v-35h5.9V340h15.2zM1125.4 337.3l-3.4 7.9h-6.2l15.5-35h6.1l15.3 35h-6.3l-3.4-7.9h-17.6zm8.8-20.8l-6.6 15.6h13.2l-6.6-15.6zM1159.3 345.2v-35h5.9v35h-5.9zM1200.2 313.6l-2.5 5.2a21 21 0 0 0-10.3-3.3c-3.5 0-5.7 1.3-5.7 3.7 0 7.7 18.9 3.6 18.9 16.2 0 6.3-5.5 10.1-13.2 10.1-5.5 0-10.7-2.3-14.3-5.6l2.6-5.1c3.6 3.3 8.1 5.1 11.9 5.1 4.1 0 6.5-1.5 6.5-4.3 0-7.8-18.9-3.5-18.9-15.9 0-6 5.2-9.8 12.8-9.8 4.5.1 8.9 1.5 12.2 3.7zM1209.5 345.2v-35h5.9v35h-5.9zM1242.4 334.6h-9.9v10.6h-5.9v-35h14.2c9 0 14.1 4.3 14.1 12 0 5.6-2.6 9.6-7.3 11.4l7.9 11.7h-6.7l-6.4-10.7zm-1.6-5.2c5.4 0 8.5-2.3 8.5-7.1 0-4.6-3.1-6.8-8.5-6.8h-8.3v13.9h8.3zM1268.8 342.3c0 2-1.4 3.4-3.2 3.4s-3.2-1.4-3.2-3.4c0-1.9 1.4-3.3 3.2-3.3s3.2 1.4 3.2 3.3z"/></g></svg>