<?xml version="1.0" encoding="utf-8"?>
<svg id="Calque_1" viewBox="0 0 1500 495" xmlns="http://www.w3.org/2000/svg">
  <style>.st0{fill:#e23a05}.st1{fill:#293847}</style>
  <path class="st0" d="M 171.69 245.157 C 159.915 261.85 140.729 271.744 120.299 271.656 C 84.563 272.367 55.452 243.127 56.322 207.395 C 56.322 189.034 63.042 172.472 75.156 160.736 C 87.355 149.169 103.586 142.82 120.395 143.038 C 140.932 143.038 160.144 152.975 171.785 169.538 L 173.678 172.187 L 211.629 140.01 L 209.737 137.738 C 187.556 111.382 154.842 96.202 120.395 96.285 C 57.268 96.474 6.067 146.256 6.067 207.395 C 6.067 268.438 57.268 318.031 120.299 318.031 C 155.034 318.031 187.59 303.077 209.641 276.862 L 211.535 274.59 L 173.584 242.412 L 171.69 245.157 Z"/>
  <path class="st1" d="M 394.951 87.199 L 394.951 312.636 L 353.119 312.636 L 353.119 302.794 C 338.74 311.026 322.462 315.366 305.893 315.381 C 260.749 315.381 223.649 281.31 223.649 231.338 C 223.649 180.516 260.749 147.297 305.893 147.297 C 323.212 147.297 339.68 152.124 353.119 159.6 L 353.119 87.199 L 394.951 87.199 Z M 353.119 263.611 L 353.119 198.403 C 341.885 189.316 327.818 184.459 313.37 184.68 C 285.545 184.68 264.912 204.745 264.912 231.338 C 264.912 258.88 285.545 277.713 313.37 277.713 C 327.872 277.876 341.961 272.878 353.119 263.611 Z M 430.725 163.385 L 472.273 163.385 L 472.273 312.636 L 430.725 312.636 L 430.725 163.385 Z M 515.43 268.723 C 532.765 277.209 551.78 281.705 571.079 281.878 C 590.197 281.878 597.674 274.685 597.674 266.356 C 597.674 257.081 588.399 252.917 563.319 247.523 C 528.301 239.762 502.937 228.405 502.937 196.984 C 502.937 167.645 527.165 147.297 564.833 147.297 C 590.291 147.297 610.545 153.259 628.244 160.452 L 614.521 190.927 C 598.401 184.555 581.306 181.001 563.981 180.421 C 548.176 180.421 540.037 186.1 540.037 194.807 C 540.037 203.798 549.88 207.962 575.906 213.357 C 613.574 221.118 635.436 234.273 635.436 263.896 C 635.436 294.654 611.776 315.002 570.228 315.002 C 542.119 315.002 523.853 311.122 499.908 299.481 L 515.43 268.723 Z M 804.845 282.446 C 790.312 302.725 766.953 314.827 742.003 315.002 C 692.979 315.002 653.228 277.619 653.228 231.244 C 653.228 184.586 692.979 147.202 742.003 147.202 C 767.079 147.221 790.64 159.212 805.413 179.475 L 778.535 204.271 C 770.427 192.036 756.775 184.624 742.098 184.491 C 715.999 184.175 694.573 205.051 694.209 231.149 C 694.727 257.137 716.108 277.842 742.098 277.524 C 756.86 277.446 770.576 269.892 778.535 257.46 L 804.845 282.446 Z M 994.981 231.338 C 994.981 277.713 955.232 315.097 906.207 315.097 C 857.183 315.097 817.432 277.713 817.432 231.338 C 817.432 184.68 857.183 147.297 906.207 147.297 C 955.232 147.297 994.981 184.68 994.981 231.338 Z M 954.001 231.338 C 953.742 205.195 932.254 184.258 906.112 184.68 C 880.014 184.364 858.587 205.241 858.224 231.338 C 858.741 257.326 880.123 278.03 906.112 277.713 C 932.122 278.082 953.534 257.347 954.001 231.338 Z M 1174.99 151.556 L 1174.99 312.636 L 1133.442 312.636 L 1133.442 301.847 C 1120.331 310.573 1104.899 315.156 1089.15 315.002 C 1041.639 315.002 1019.777 292.856 1019.777 240.235 L 1019.777 151.556 L 1061.325 151.556 L 1061.325 240.235 C 1061.325 265.315 1073.629 277.619 1096.627 277.619 C 1111.58 277.619 1123.884 272.792 1133.442 264.747 L 1133.442 151.556 L 1174.99 151.556 Z M 1363.611 222.064 L 1363.611 312.636 L 1322.063 312.636 L 1322.063 222.064 C 1322.063 196.984 1309.76 184.68 1286.762 184.68 C 1273.627 184.393 1260.85 188.978 1250.892 197.552 L 1250.892 312.636 L 1209.345 312.636 L 1209.345 150.23 L 1250.892 150.23 L 1250.892 160.357 C 1263.65 151.628 1278.783 147.036 1294.239 147.202 C 1341.749 147.297 1363.611 169.443 1363.611 222.064 Z M 1448.505 184.68 L 1448.505 242.128 C 1448.505 271.088 1453.332 279.511 1474.248 279.511 C 1481.44 279.511 1487.687 278.66 1493.365 277.998 L 1493.365 309.134 C 1491.568 309.703 1478.98 315.097 1455.698 315.097 C 1428.442 315.097 1406.674 298.061 1406.674 263.99 L 1406.674 184.775 L 1383.676 184.775 L 1383.676 150.23 L 1406.674 150.23 L 1406.674 87.199 L 1448.505 87.199 L 1448.505 150.326 L 1493.933 150.326 L 1493.933 184.68 L 1448.505 184.68 Z"/>
  <path class="st0" d="M 429.116 108.399 C 429.011 95.038 439.702 84.094 453.061 83.886 C 466.216 83.886 476.721 94.959 476.721 108.399 C 476.932 121.644 466.308 132.524 453.061 132.627 C 439.811 132.627 429.116 121.839 429.116 108.399 Z"/>
  <g transform="matrix(0.94642, 0, 0, 0.94642, 6.067574, 83.886124)">
    <path class="st1" d="M328.2 345.2l-18.7-25.1v25.1h-5.9v-35h5.8l18.8 25.2v-25.2h5.8v35h-5.8zM349.1 313.4c0 1-.4 1.8-.9 2.6l-2.9 4.3h-3l1.9-4.3a3 3 0 0 1-1.3-2.6c0-1.9 1.3-3.2 3.1-3.2 1.7 0 3.1 1.2 3.1 3.2zM363.8 315.5v9.5h17.1v5.3h-17.1v9.7h19.7v5.3h-25.6v-35h25v5.3h-19.1zm8.5-9.1h-5.1l5.3-7.4 5.9 2.5-6.1 4.9zM421.5 315.5l-3.5 4.3a13.6 13.6 0 0 0-9.8-4.5 12.4 12.4 0 0 0 0 24.7c3.5 0 7.1-1.6 9.8-4.2l3.5 3.9a20 20 0 0 1-13.6 5.8 17.7 17.7 0 0 1-18.2-17.8c0-10 8.1-17.6 18.4-17.6 5.1 0 10 2 13.4 5.4zM463 327.7a18 18 0 0 1-18.6 17.8 18 18 0 0 1-18.6-17.8c0-10.1 8.1-17.7 18.6-17.7 10.5.1 18.6 7.7 18.6 17.7zm-31.1 0c0 7 5.8 12.5 12.6 12.5a12.4 12.4 0 1 0 0-24.9c-6.9.1-12.6 5.5-12.6 12.4zM495.9 345.2l-18.7-25.1v25.1h-5.9v-35h5.8l18.8 25.2v-25.2h5.8v35h-5.8zM547.1 327.7a18 18 0 0 1-18.6 17.8 18 18 0 0 1-18.6-17.8c0-10.1 8.1-17.7 18.6-17.7 10.5.1 18.6 7.7 18.6 17.7zm-31.1 0c0 7 5.8 12.5 12.6 12.5a12.4 12.4 0 1 0 0-24.9c-6.9.1-12.6 5.5-12.6 12.4zM587 345.2V319l-11.1 22.5H572l-11-22.4v26.2h-5.5v-35h7l11.6 23.3 11.5-23.3h7v35H587zM603.7 345.2v-35h5.9v35h-5.9zM644.5 313.6l-2.5 5.2a21 21 0 0 0-10.3-3.3c-3.5 0-5.7 1.3-5.7 3.7 0 7.7 18.9 3.6 18.9 16.2 0 6.3-5.5 10.1-13.2 10.1-5.5 0-10.7-2.3-14.3-5.6l2.6-5.1c3.6 3.3 8.1 5.1 11.9 5.1 4.1 0 6.5-1.5 6.5-4.3 0-7.8-18.9-3.5-18.9-15.9 0-6 5.2-9.8 12.8-9.8 4.5.1 9 1.5 12.2 3.7zM659.8 315.5v9.5h17.1v5.3h-17.1v9.7h19.7v5.3h-25.6v-35h25v5.3h-19.1zM693.9 339.9h21.6v5.3h-29.6V341l21.4-25.5h-20.7v-5.3h28.7v4.3l-21.4 25.4zM752.8 310.2c8.8 0 13.9 4.3 13.9 12 0 7.9-5.1 12.5-13.9 12.5h-8v10.6h-5.9v-35h13.9zm-8 19.2h7.8c5.4 0 8.5-2.3 8.5-7.1 0-4.6-3.1-6.8-8.5-6.8h-7.8v13.9zM777.3 337.3l-3.4 7.9h-6.2l15.5-35h6.1l15.3 35h-6.3l-3.4-7.9h-17.6zm8.8-20.8l-6.6 15.6h13.2l-6.6-15.6zM834.7 313.6l-2.5 5.2a21 21 0 0 0-10.3-3.3c-3.5 0-5.7 1.3-5.7 3.7 0 7.7 18.9 3.6 18.9 16.2 0 6.3-5.5 10.1-13.2 10.1-5.5 0-10.7-2.3-14.3-5.6l2.6-5.1c3.6 3.3 8.1 5.1 11.9 5.1 4.1 0 6.5-1.5 6.5-4.3 0-7.8-18.9-3.5-18.9-15.9 0-6 5.2-9.8 12.8-9.8 4.5.1 8.9 1.5 12.2 3.7zM868.4 345.2l-14-35h6.3l10.8 28.5 10.9-28.5h6.2l-14.2 35h-6zM929.4 327.7a18 18 0 0 1-18.6 17.8 18 18 0 0 1-18.6-17.8c0-10.1 8.1-17.7 18.6-17.7 10.5.1 18.6 7.7 18.6 17.7zm-31.1 0c0 7 5.8 12.5 12.6 12.5a12.4 12.4 0 1 0 0-24.9c-6.9.1-12.6 5.5-12.6 12.4zM949.8 315.5v29.7h-5.9v-29.7h-11.1v-5.3h28.1v5.3h-11.1zM983.8 334.6h-9.9v10.6H968v-35h14.2c9 0 14.1 4.3 14.1 12 0 5.6-2.6 9.6-7.3 11.4l7.9 11.7h-6.7l-6.4-10.7zm-1.6-5.2c5.4 0 8.5-2.3 8.5-7.1 0-4.6-3.1-6.8-8.5-6.8h-8.3v13.9h8.3zM1012 315.5v9.5h17.1v5.3H1012v9.7h19.7v5.3h-25.6v-35h25v5.3H1012zM1069.8 310.2c8.8 0 13.9 4.3 13.9 12 0 7.9-5.1 12.5-13.9 12.5h-8v10.6h-5.9v-35h13.9zm-8.1 19.2h7.8c5.4 0 8.5-2.3 8.5-7.1 0-4.6-3.1-6.8-8.5-6.8h-7.8v13.9zM1112.5 339.9v5.4h-21.1v-35h5.9V340h15.2zM1125.4 337.3l-3.4 7.9h-6.2l15.5-35h6.1l15.3 35h-6.3l-3.4-7.9h-17.6zm8.8-20.8l-6.6 15.6h13.2l-6.6-15.6zM1159.3 345.2v-35h5.9v35h-5.9zM1200.2 313.6l-2.5 5.2a21 21 0 0 0-10.3-3.3c-3.5 0-5.7 1.3-5.7 3.7 0 7.7 18.9 3.6 18.9 16.2 0 6.3-5.5 10.1-13.2 10.1-5.5 0-10.7-2.3-14.3-5.6l2.6-5.1c3.6 3.3 8.1 5.1 11.9 5.1 4.1 0 6.5-1.5 6.5-4.3 0-7.8-18.9-3.5-18.9-15.9 0-6 5.2-9.8 12.8-9.8 4.5.1 8.9 1.5 12.2 3.7zM1209.5 345.2v-35h5.9v35h-5.9zM1242.4 334.6h-9.9v10.6h-5.9v-35h14.2c9 0 14.1 4.3 14.1 12 0 5.6-2.6 9.6-7.3 11.4l7.9 11.7h-6.7l-6.4-10.7zm-1.6-5.2c5.4 0 8.5-2.3 8.5-7.1 0-4.6-3.1-6.8-8.5-6.8h-8.3v13.9h8.3zM1268.8 342.3c0 2-1.4 3.4-3.2 3.4s-3.2-1.4-3.2-3.4c0-1.9 1.4-3.3 3.2-3.3s3.2 1.4 3.2 3.3z"/>
  </g>
</svg>