<?xml version="1.0" encoding="utf-8"?>
<svg viewBox="0 0 500 165" xmlns="http://www.w3.org/2000/svg">
  <defs>
    <clipPath id="a">
      <path d="M0 250h400V0H0z"/>
    </clipPath>
  </defs>
  <g clip-path="url(#a)" transform="matrix(0.833011, 0, 0, -0.833011, 81.262779, 186.626297)">
    <path fill="#403e46" d="M47.8592 41.2189c4.155 0 7.551 1.643 10.188 4.932l5.42-5.582c-4.3-4.842-9.367-7.263-15.202-7.263-5.835 0-10.641 1.843-14.416 5.528-3.776 3.686-5.664 8.337-5.664 13.956 0 5.618 1.924 10.306 5.772 14.064 3.849 3.757 8.554 5.637 14.119 5.637 6.214 0 11.416-2.367 15.608-7.1l-5.257-5.962c-2.674 3.324-5.998 4.986-9.973 4.986-3.179 0-5.898-1.039-8.156-3.116-2.258-2.078-3.387-4.878-3.387-8.4 0-3.523 1.065-6.351 3.197-8.483 2.132-2.132 4.716-3.197 7.751-3.197M70.1334 33.7397v37.884h8.454v-30.351h16.15v-7.533zM128.2322 71.6232v-7.533h-18.86v-7.804h16.964v-7.209h-16.964v-7.858h19.457v-7.48h-27.911v37.884zM150.3436 47.5059l9.647 24.117h9.159l-15.228-37.883h-7.155l-15.229 37.883h9.159zM200.9626 71.6232v-7.533h-18.86v-7.804h16.964v-7.209h-16.964v-7.858h19.457v-7.48h-27.911v37.884zM229.6316 54.5511c1.048.939 1.572 2.43 1.572 4.472 0 2.04-.541 3.441-1.626 4.199-1.084.759-2.98 1.139-5.69 1.139h-6.342v-11.219h6.179c2.89 0 4.859.469 5.907 1.409m10.19 4.499c0-6.07-2.403-9.991-7.209-11.761l9.593-13.549h-10.405l-8.401 12.085h-5.854v-12.085h-8.453v37.883h14.361c5.89 0 10.089-.994 12.601-2.981 2.511-1.987 3.767-5.185 3.767-9.592M278.3545 60.3505l-4.769-11.002h9.485zm11.436-26.611l-3.523 8.184h-15.88l-3.522-8.184h-8.998l16.368 37.884h8.184l16.367-37.884zM327.7813 53.0341h8.509v-13.441c-3.758-4.192-8.96-6.287-15.608-6.287-5.565 0-10.234 1.843-14.011 5.528-3.775 3.685-5.663 8.337-5.663 13.956 0 5.617 1.924 10.305 5.772 14.064 3.849 3.757 8.49 5.636 13.929 5.636 5.438 0 10.162-1.788 14.172-5.365l-4.39-6.341c-1.698 1.481-3.26 2.501-4.688 3.062-1.428.56-2.972.84-4.634.84-3.215 0-5.925-1.093-8.129-3.279-2.205-2.187-3.306-5.067-3.306-8.644s1.056-6.441 3.171-8.59c2.113-2.15 4.633-3.225 7.56-3.225 2.927 0 5.366.559 7.316 1.68zM371.1388 71.6232v-7.533h-18.86v-7.804h16.964v-7.209h-16.964v-7.858h19.457v-7.48h-27.911v37.884z"/>
    <path fill="#e0e0e1" d="M199.8823 207.1173c12.469 0 23.828-4.844 32.293-12.749l.936 3.099c-8.858 7.812-20.49 12.552-33.229 12.552-27.755 0-50.195-22.5-50.195-50.255 0-27.755 23.315-50.255 50.315-50.255v2.902c-26 0-47.413 21.242-47.413 47.353s21.182 47.353 47.293 47.353m21.109-92.973c17.21 7.976 29.146 25.404 29.146 45.62 0 8.952-2.341 17.358-6.444 24.638l-1.462-3.462c3.201-6.375 5.004-13.569 5.004-21.176 0-19.2-11.487-35.768-27.949-43.193z"/>
    <path fill="#007eb1" d="M175.197 165.7662l-9.073 8.978-.518-6.716 28.32-51.064-4.602-10.676 10.459.115 19.261-5.658"/>
    <path fill="#007eb1" d="M259.5696 212.1539l-.808 4.54-12.281-8.875-30.95-77.561-3.834 5.231 31.304 73.609-.397 4.708-9.114-4.649-15.005-34.807-6.38 21.43-13.388 8.858 12.552-47.021-3.334-7.745-11.056 42.725 1.83 12.04-4.58-1.183-4.919-9.432 10.758-42.445-12.742 17.508-21.102 5.66 13.383-6.918 43.632-65.494 10.169 3.424 4.955 2.079-7.464 25.196z"/>
    <path fill="#e0e0e1" d="M78.446 210.0197c-27.755 0-50.255-22.5-50.255-50.255 0-27.756 22.5-50.256 50.255-50.256 27.755 0 50.255 22.5 50.255 50.256 0 27.755-22.5 50.255-50.255 50.255m0-2.902c26.111 0 47.353-21.243 47.353-47.353 0-26.111-21.242-47.353-47.353-47.353s-47.353 21.242-47.353 47.353c0 26.11 21.242 47.353 47.353 47.353"/>
    <path fill="#667d18" d="M103.1241 157.2483c-.548.84-1.739 2.467-3.739 4.291l.048-.059c-1.06.641-2.178 1.269-3.36 1.879-6.906 4.037-12.944 5.701-18.159 5.77-19.193.18-26.496-20.699-26.527-20.731l-.2-.557-.001-.03.665-.312c.052 0 24.752-11.937 41.421 4.977 1.746 1.779 3.389 3.885 4.897 6.341l.054.11c2.067-1.861 3.294-3.537 3.85-4.392l-.044.012c-.173-.426-.346-.856-.517-1.291l-1.333-3.487c-3.629-9.876-6.765-22.266-6.765-31.662 0-9.401.914-16.582.951-16.571h.06c-.097-.017 9.976.036 9.882 0-2.888 4.387-5.973 13.4-5.973 22.23 0 8.826 2.508 18.377 5.531 27.302 1.605-7.101 8.291-15.776 14.949-23.154 7.674-8.481 15.363-15.138 15.377-15.143l.584-.515.252.74c.003.031 4.431 13.164 4.605 25.673.086 7.104-1.17 14.058-5.578 18.284-5.634 5.429-11.148 6.827-15.355 6.882-3.278.045-5.793-.725-6.892-.955l.111-.512-.129.506c-1.621-.389-2.976-.931-4.097-1.597 3.044 7.436 6.054 13.481 7.699 16.65v-.007c.112.18.229.359.351.552 1.03 1.569 2.463 3.461 4.097 4.784 2.462 1.915 11.699-1.172 14.178 5.81 1.641 4.616-.515 16.442-2.22 23.967l-.003.016c-6.94-3.271-18.218-9.144-20.928-13.422-3.965-6.264 4.187-11.597 4.201-14.711-.023-2.104-.626-4.394-1.226-6.175-.074-.212-.144-.422-.214-.616-.386-.639-2.31-3.872-4.828-8.792-.361.568-.962 1.57-1.559 2.919-.963 2.164-1.912 5.197-1.867 8.635.003.157.01.323.019.491l.004.089-.03.086c-2.873 9.162-11.304 12.261-20.58 12.361-8.153.105-17.087-2.012-24.005-4.334-3.46-1.164-6.419-2.378-8.522-3.403-1.055-.505-1.896-.969-2.494-1.36-.582-.449-.987-.583-1.101-1.271-.022-.297.232-.575.414-.635.196-.078.36-.095.565-.099.104-.003.226 0 .363.015.143 0 .296 0 .44-.002 9.466-.137 13.996-2.786 18.929-5.516 4.926-2.734 10.231-5.529 20.793-5.662 3.922-.05 8.576.254 14.223 1.055 1.001-.944 1.705-2.413 2.138-3.683.457-1.336.62-2.416.623-2.419l.066-.433a183.967 183.967 0 0 1-4.087-8.954z"/>
    <path fill="#e0e0e1" d="M321.562 210.0197c-27.755 0-50.255-22.5-50.255-50.255 0-27.756 22.5-50.256 50.255-50.256 27.755 0 50.255 22.5 50.255 50.256 0 27.755-22.5 50.255-50.255 50.255m0-2.902c26.111 0 47.353-21.243 47.353-47.353 0-26.111-21.242-47.353-47.353-47.353s-47.353 21.242-47.353 47.353c0 26.11 21.242 47.353 47.353 47.353"/>
    <path fill="#c74917" d="M374.0938 159.9846c2.381 5.226 2.847 8.897 2.102 13.127-1.265-3.313-5.192-9.775-6.529-11.113zM339.5081 201.2792c2.715 5.937 5.53 9.08 9.717 11.586-1.898-3.556-4.536-11.741-4.688-13.893zM366.2796 190.7512c2.716 5.953 3.243 10.133 2.397 14.936-1.44-3.766-5.909-11.123-7.43-12.639zM320.9228 187.1697c-3.679-2.205-6.148-4.964-8.538-10.187l4.429-2.018c.123 1.884 2.439 9.08 4.109 12.205"/>
    <path fill="#c74917" fill-rule="evenodd" d="M345.0697 134.9743c-3.02 6.167-3.842 11.79-10.058 13.674-7.288 1.011-11.398-5.519-16.776-9.546-5.522-4.143-11.022-2.689-13.67-8.384-2.904-7.09-1.141-13.799 4.337-19.888 7.141-7.928 20.478-10.88 26.702-7.768 9.345 2.499 13.741 11.116 13.821 20.35.034 4.154-2.224 7.235-4.356 11.562"/>
    <path fill="#c74917" d="M320.253 152.9734c-2.937-9.219-9.544-15.254-14.732-13.822-5.049 1.388-7.139 9.451-4.694 18.331 2.538 9.226 9.06 16.143 14.615 15.11 5.704-1.07 7.871-10.026 4.811-19.619"/>
    <path fill="#c74917" d="M342.9344 176.0541c-3.018-9.579-9.68-15.896-14.863-14.465-5.055 1.387-7.089 9.714-4.569 18.94 2.611 9.579 9.198 16.808 14.759 15.789 5.705-1.048 7.812-10.301 4.673-20.264M363.077 169.1875c-4.566-8.618-12.068-13.813-16.583-11.098-4.603 2.779-3.972 12.441 1.205 21.059 4.884 8.143 11.945 12.144 15.942 9.381 3.94-2.711 3.747-11.18-.564-19.342M371.8849 141.7281c-4.155-9.302-12.893-15.222-18.134-11.895-4.661 2.969-3.673 11.76 1.055 18.87 4.102 6.159 10.197 9.756 14.405 8.647 4.595-1.211 6.178-7.777 2.674-15.622"/>
  </g>
</svg>