<?xml version="1.0" encoding="utf-8"?>
<!-- Generator: Adobe Illustrator 17.1.0, SVG Export Plug-In . SVG Version: 6.00 Build 0)  -->
<!DOCTYPE svg PUBLIC "-//W3C//DTD SVG 1.1//EN" "http://www.w3.org/Graphics/SVG/1.1/DTD/svg11.dtd">
<svg version="1.1" id="Calque_1" xmlns="http://www.w3.org/2000/svg" xmlns:xlink="http://www.w3.org/1999/xlink" x="0px" y="0px"
	 viewBox="0 0 652 73.7" enable-background="new 0 0 652 73.7" xml:space="preserve">
<g>
	<path fill="#DFDFE0" d="M186.9,6c16.7,0,30.2,13.6,30.2,30.2c0,16.7-13.6,30.2-30.2,30.2c-16.7,0-30.2-13.6-30.2-30.2
		C156.7,19.6,170.3,6,186.9,6 M186.9,4.2c-17.7,0-32.1,14.4-32.1,32.1c0,17.7,14.4,32.1,32.1,32.1c17.7,0,32.1-14.4,32.1-32.1
		C219,18.5,204.6,4.2,186.9,4.2L186.9,4.2z"/>
	<g>
		<path fill="#CF4D17" d="M220.2,36.3c1.5-3.3,1.8-5.7,1.3-8.4c-0.8,2.1-3.3,6.2-4.2,7.1L220.2,36.3z"/>
		<path fill="#CF4D17" d="M198.1,9.9c1.7-3.8,3.5-5.8,6.2-7.4c-1.2,2.3-2.9,7.5-3,8.9L198.1,9.9z"/>
		<path fill="#CF4D17" d="M215.2,16.7c1.7-3.8,2.1-6.5,1.5-9.5c-0.9,2.4-3.8,7.1-4.7,8.1L215.2,16.7z"/>
		<path fill="#CF4D17" d="M186.2,18.9c-2.3,1.4-3.9,3.2-5.4,6.5l2.8,1.3C183.7,25.5,185.2,20.9,186.2,18.9z"/>
	</g>
	<g>
		<path fill-rule="evenodd" clip-rule="evenodd" fill="#CF4D17" d="M201.6,52.2c-1.9-3.9-2.5-7.5-6.4-8.7c-4.6-0.6-7.3,3.5-10.7,6.1
			c-3.5,2.6-7,1.7-8.7,5.3c-1.9,4.5-0.7,8.8,2.8,12.7c4.6,5.1,13.1,6.9,17,5c6-1.6,8.8-7.1,8.8-13C204.4,57,203,55,201.6,52.2z"/>
		<path fill="#CF4D17" d="M185.8,40.8c-1.9,5.9-6.1,9.7-9.4,8.8c-3.2-0.9-4.6-6-3-11.7c1.6-5.9,5.8-10.3,9.3-9.6
			C186.4,28.9,187.8,34.6,185.8,40.8z"/>
		<path fill="#CF4D17" d="M200.3,26c-1.9,6.1-6.2,10.1-9.5,9.2c-3.2-0.9-4.5-6.2-2.9-12.1c1.7-6.1,5.9-10.7,9.4-10.1
			C200.9,13.8,202.3,19.7,200.3,26z"/>
		<path fill="#CF4D17" d="M213.1,30.4c-2.9,5.5-7.7,8.8-10.6,7.1c-2.9-1.8-2.5-7.9,0.8-13.4c3.1-5.2,7.6-7.7,10.2-6
			C216,19.8,215.9,25.2,213.1,30.4z"/>
		<path fill="#CF4D17" d="M218.7,47.9c-2.7,5.9-8.2,9.7-11.6,7.6c-3-1.9-2.3-7.5,0.7-12c2.6-3.9,6.5-6.2,9.2-5.5
			C220,38.7,221,42.9,218.7,47.9z"/>
	</g>
</g>
<g>
	<path fill="#DFDFE0" d="M123.8,65.3c11-5.1,18.6-16.2,18.6-29.1c0-5.7-1.5-11.1-4.1-15.7l-0.9,2.2c2,4.1,3.2,8.7,3.2,13.5
		c0,12.2-7.3,22.8-17.8,27.6L123.8,65.3z M110.3,6c8,0,15.2,3.1,20.6,8.1l0.6-2c-5.7-5-13.1-8-21.2-8l0,0c-17.7,0-32,14.4-32,32.1
		c0,17.7,13.1,32.1,32.1,32.1v-1.9c-16,0-30.2-13.6-30.2-30.2C80.1,19.6,93.7,6,110.3,6"/>
	<g>
		<polyline fill="#088AC0" points="94.6,32.4 88.8,26.7 88.5,31 106.5,63.5 103.6,70.3 110.3,70.3 122.6,73.9 		"/>
		<polygon fill="#088AC0" points="148.4,2.8 147.9,-0.1 140.1,5.6 120.3,55.1 117.9,51.7 137.8,4.8 137.6,1.8 131.8,4.7 122.2,26.9 
			118.1,13.3 109.6,7.6 117.6,37.6 115.5,42.5 108.4,15.3 109.6,7.6 106.7,8.4 103.5,14.4 110.4,41.5 102.3,30.3 88.8,26.7 
			97.3,31.1 125.2,72.9 131.7,70.7 134.8,69.4 130.1,53.3 		"/>
	</g>
</g>
<g>
	<path fill="#DFDFE0" d="M32.1,6c16.7,0,30.2,13.6,30.2,30.2c0,16.7-13.6,30.2-30.2,30.2c-16.7,0-30.2-13.6-30.2-30.2
		C1.9,19.6,15.4,6,32.1,6 M32.1,4.2C14.4,4.2,0,18.5,0,36.2c0,17.7,14.4,32.1,32.1,32.1c17.7,0,32.1-14.4,32.1-32.1
		C64.1,18.5,49.8,4.2,32.1,4.2L32.1,4.2z"/>
	<path d="M54.7,24.8"/>
	<path fill="#9BAF5D" d="M47.5,38c-0.3-0.5-1.1-1.6-2.4-2.7l0,0c-0.7-0.4-1.4-0.8-2.1-1.2c-4.4-2.6-8.3-3.6-11.6-3.7
		c-12.2-0.1-16.9,13.2-16.9,13.2L14.4,44l0,0l0.4,0.2c0,0,15.8,7.6,26.4-3.2c1.1-1.1,2.2-2.5,3.1-4l0-0.1c1.3,1.2,2.1,2.3,2.5,2.8
		l0,0c-0.1,0.3-0.2,0.5-0.3,0.8l-0.9,2.2C43.3,49.1,41.3,57,41.3,63c0,6,0.6,10.6,0.6,10.6h0h0c-0.1,0,6.4,0,6.3,0
		c-1.8-2.8-3.8-8.5-3.8-14.2c0-5.6,1.6-11.7,3.5-17.4c1,4.5,5.3,10.1,9.5,14.8c4.9,5.4,9.8,9.7,9.8,9.7l0.4,0.3l0.2-0.5
		c0,0,2.8-8.4,2.9-16.4c0.1-4.5-0.7-9-3.6-11.7c-3.6-3.5-7.1-4.4-9.8-4.4c-2.1,0-3.7,0.5-4.4,0.6l0.1,0.3L53,34.4
		c-1,0.2-1.9,0.6-2.6,1c1.9-4.7,3.9-8.6,4.9-10.6v0c0.1-0.1,0.1-0.2,0.2-0.4c0.7-1,1.6-2.2,2.6-3.1c1.6-1.2,7.5,0.7,9-3.7
		c1-2.9-0.3-10.5-1.4-15.3l0,0C61.4,4.5,54.2,8.3,52.5,11c-2.5,4,2.7,7.4,2.7,9.4c0,1.3-0.4,2.8-0.8,3.9c0,0.1-0.1,0.3-0.1,0.4
		c-0.2,0.4-1.5,2.5-3.1,5.6c-0.2-0.4-0.6-1-1-1.9c-0.6-1.4-1.2-3.3-1.2-5.5c0-0.1,0-0.2,0-0.3l0-0.1l0-0.1
		c-1.8-5.8-7.2-7.8-13.1-7.9c-5.2-0.1-10.9,1.3-15.3,2.8c-2.2,0.7-4.1,1.5-5.4,2.2c-0.7,0.3-1.2,0.6-1.6,0.9
		c-0.4,0.3-0.6,0.4-0.7,0.8c0,0.2,0.1,0.4,0.3,0.4c0.1,0,0.2,0.1,0.4,0.1c0.1,0,0.1,0,0.2,0c0.1,0,0.2,0,0.3,0
		c6,0.1,8.9,1.8,12.1,3.5c3.1,1.7,6.5,3.5,13.3,3.6c2.5,0,5.5-0.2,9.1-0.7c0.6,0.6,1.1,1.5,1.4,2.3c0.3,0.9,0.4,1.5,0.4,1.5l0,0.3
		C49.3,34,48.4,36,47.5,38L47.5,38z"/>
</g>
<g>
	<path fill="#403E46" d="M270.6,50c4.9,0,8.9-1.9,11.9-5.8l6.4,6.5c-5,5.7-11,8.5-17.8,8.5c-6.8,0-12.5-2.2-16.9-6.5
		c-4.4-4.3-6.6-9.8-6.6-16.4c0-6.6,2.3-12.1,6.8-16.5c4.5-4.4,10-6.6,16.6-6.6c7.3,0,13.4,2.8,18.3,8.3l-6.2,7
		c-3.1-3.9-7-5.8-11.7-5.8c-3.7,0-6.9,1.2-9.6,3.7c-2.6,2.4-4,5.7-4,9.9c0,4.1,1.2,7.4,3.7,9.9C264,48.8,267,50,270.6,50z"/>
	<path fill="#403E46" d="M296.7,58.8V14.4h9.9V50h18.9v8.8H296.7z"/>
	<path fill="#403E46" d="M364.9,14.4v8.8h-22.1v9.2h19.9v8.5h-19.9V50h22.8v8.8h-32.7V14.4H364.9z"/>
	<path fill="#403E46" d="M390.8,42.7l11.3-28.3h10.7L395,58.8h-8.4l-17.9-44.4h10.7L390.8,42.7z"/>
	<path fill="#403E46" d="M450.2,14.4v8.8H428v9.2h19.9v8.5H428V50h22.8v8.8h-32.7V14.4H450.2z"/>
	<path fill="#403E46" d="M495.7,29.1c0,7.1-2.8,11.7-8.5,13.8l11.3,15.9h-12.2l-9.9-14.2h-6.9v14.2h-9.9V14.4h16.8
		c6.9,0,11.8,1.2,14.8,3.5C494.3,20.2,495.7,24,495.7,29.1z M483.8,34.4c1.2-1.1,1.8-2.8,1.8-5.2c0-2.4-0.6-4-1.9-4.9
		c-1.3-0.9-3.5-1.3-6.7-1.3h-7.4v13.2h7.2C480.2,36.1,482.5,35.5,483.8,34.4z"/>
	<path fill="#403E46" d="M554.3,58.8l-4.1-9.6h-18.6l-4.1,9.6h-10.6l19.2-44.4h9.6l19.2,44.4H554.3z M540.9,27.6l-5.6,12.9h11.1
		L540.9,27.6z"/>
	<path fill="#403E46" d="M598.9,36.2h10v15.8c-4.4,4.9-10.5,7.4-18.3,7.4c-6.5,0-12-2.2-16.4-6.5c-4.4-4.3-6.6-9.8-6.6-16.4
		c0-6.6,2.3-12.1,6.8-16.5c4.5-4.4,10-6.6,16.3-6.6c6.4,0,11.9,2.1,16.6,6.3l-5.1,7.4c-2-1.7-3.8-2.9-5.5-3.6c-1.7-0.7-3.5-1-5.4-1
		c-3.8,0-6.9,1.3-9.5,3.8c-2.6,2.6-3.9,5.9-3.9,10.1c0,4.2,1.2,7.6,3.7,10.1c2.5,2.5,5.4,3.8,8.9,3.8c3.4,0,6.3-0.7,8.6-2V36.2z"/>
	<path fill="#403E46" d="M649.7,14.4v8.8h-22.1v9.2h19.9v8.5h-19.9V50h22.8v8.8h-32.7V14.4H649.7z"/>
</g>
</svg>
