<svg xmlns="http://www.w3.org/2000/svg" viewBox="0 0 500 165"><path fill="#DFDFE0" d="M144.6 59.52c12.73 0 23.02 10.01 23.02 22.24 0 12.3-10.37 22.25-23.02 22.25-12.72 0-23.01-10.02-23.01-22.25s10.36-22.24 23.01-22.24m0-1.33c-13.49 0-24.46 10.6-24.46 23.65 0 13.04 10.97 23.64 24.46 23.64 13.5 0 24.47-10.6 24.47-23.64 0-13.12-10.98-23.65-24.47-23.65z"/><g fill="#CF4D17"><path d="M169.98 81.84c1.14-2.43 1.37-4.2 1-6.2a23.73 23.73 0 0 1-3.2 5.24l2.2.96zM153.14 62.39c1.3-2.8 2.67-4.27 4.72-5.45-.91 1.7-2.2 5.52-2.28 6.55l-2.44-1.1zM166.17 67.4c1.3-2.8 1.6-4.79 1.14-7a30.24 30.24 0 0 1-3.58 5.97l2.44 1.03zM144.07 69.02c-1.75 1.03-2.97 2.36-4.12 4.79l2.14.95c.07-.88 1.22-4.27 1.98-5.74z"/></g><g fill="#CF4D17"><path fill-rule="evenodd" d="M155.8 93.55c-1.44-2.87-1.9-5.52-4.87-6.4-3.5-.45-5.56 2.57-8.16 4.48-2.66 1.92-5.33 1.26-6.63 3.9-1.44 3.32-.53 6.5 2.14 9.37 3.5 3.75 9.98 5.08 12.95 3.68 4.58-1.18 6.71-5.23 6.71-9.58 0-1.91-1.07-3.39-2.13-5.45z" clip-rule="evenodd"/><path d="M143.77 85.15c-1.45 4.35-4.65 7.15-7.17 6.48-2.44-.66-3.5-4.42-2.28-8.61 1.21-4.35 4.42-7.6 7.08-7.08 2.82.45 3.89 4.64 2.37 9.21z"/><path d="M154.82 74.25c-1.45 4.5-4.73 7.44-7.24 6.78-2.44-.67-3.43-4.57-2.21-8.92 1.3-4.5 4.5-7.88 7.16-7.44 2.74.6 3.81 4.94 2.29 9.58zM164.57 77.5c-2.21 4.04-5.87 6.47-8.08 5.22-2.2-1.33-1.9-5.82.61-9.87 2.36-3.83 5.8-5.67 7.77-4.42 1.91 1.25 1.83 5.23-.3 9.06zM168.84 90.38c-2.06 4.35-6.25 7.15-8.84 5.6-2.29-1.4-1.76-5.52.53-8.84 1.98-2.87 4.95-4.57 7.01-4.05 2.29.52 3.05 3.6 1.3 7.3z"/></g><path fill="#DFDFE0" d="M96.52 103.2c8.38-3.76 14.17-11.93 14.17-21.44 0-4.2-1.14-8.17-3.12-11.56l-.69 1.62a22.1 22.1 0 0 1 2.44 9.94c0 9-5.56 16.8-13.57 20.34l.77 1.1zm-10.3-43.68c6.1 0 11.6 2.28 15.7 5.96l.46-1.47a24.88 24.88 0 0 0-16.15-5.9c-13.5 0-24.39 10.61-24.39 23.65s9.98 23.65 24.46 23.65v-1.4C74.11 104.01 63.3 94 63.3 81.76c-.08-12.23 10.29-22.24 22.94-22.24"/><g fill="#088AC0"><path d="M74.26 78.96l-4.42-4.2-.23 3.17 13.72 23.94-2.2 5.01h5.1l9.37 2.66"/><path d="M115.26 57.16l-.38-2.14-5.94 4.2-15.1 36.47-1.82-2.5 15.16-34.56-.15-2.2-4.42 2.13L95.3 74.9 92.17 64.9l-6.48-4.2 6.1 22.1-1.6 3.61-5.41-20.03.91-5.68-2.2.6-2.44 4.41 5.25 19.97-6.17-8.25-10.29-2.66 6.48 3.25 21.26 30.79 4.96-1.62 2.36-.96-3.58-11.86z"/></g><g><path fill="#DFDFE0" d="M26.63 59.52c12.73 0 23.02 10.01 23.02 22.24 0 12.3-10.37 22.25-23.02 22.25-12.72 0-23.01-10.02-23.01-22.25S13.9 59.52 26.63 59.52m0-1.33c-13.49 0-24.46 10.53-24.46 23.57 0 13.04 10.97 23.65 24.46 23.65 13.5 0 24.47-10.6 24.47-23.65-.08-13.04-10.98-23.57-24.47-23.57z"/><path fill="#9BAF5D" d="M38.37 83.09a8.84 8.84 0 0 0-1.83-1.99l-1.6-.88c-3.35-1.92-6.33-2.66-8.84-2.73-9.3-.07-12.88 9.72-12.88 9.72l-.08.3.3.15s12.05 5.6 20.13-2.36c.84-.81 1.67-1.84 2.36-2.95v-.07c.99.88 1.6 1.7 1.9 2.06-.07.22-.15.37-.22.6l-.69 1.61c-1.75 4.72-3.28 10.54-3.28 14.96 0 4.42.46 7.8.46 7.8h4.8c-1.37-2.06-2.9-6.26-2.9-10.46 0-4.12 1.23-8.61 2.67-12.81.77 3.31 4.04 7.44 7.24 10.9 3.74 3.98 7.47 7.14 7.47 7.14l.3.23.16-.37s2.13-6.2 2.2-12.08c.09-3.32-.52-6.63-2.73-8.62-2.75-2.58-5.42-3.24-7.47-3.24-1.6 0-2.82.36-3.36.44l.08.22v-.22c-.76.14-1.45.44-1.98.73 1.45-3.46 2.97-6.33 3.73-7.8.08-.08.08-.15.16-.3.53-.74 1.21-1.62 1.98-2.28 1.22-.89 5.71.51 6.86-2.73.76-2.14-.23-7.73-1.07-11.27-3.28 1.62-8.77 4.42-10.06 6.4-1.9 2.96 2.06 5.46 2.06 6.93 0 .96-.3 2.07-.61 2.88 0 .07-.08.22-.08.3-.15.29-1.14 1.83-2.36 4.12-.15-.3-.46-.74-.76-1.4a10.02 10.02 0 0 1-.92-4.05V71.6c-1.37-4.28-5.49-5.75-9.98-5.82-3.96-.08-8.3.96-11.66 2.06a25.69 25.69 0 0 0-5.34 2.28c-.3.22-.45.3-.53.6 0 .14.08.29.23.29.08 0 .15.07.3.07h.38c4.58.08 6.79 1.33 9.23 2.58a19.5 19.5 0 0 0 10.13 2.65c1.9 0 4.2-.15 6.94-.51.45.44.84 1.1 1.06 1.7.23.65.3 1.1.3 1.1v.22c-.83 1.32-1.52 2.8-2.2 4.27z"/></g><g fill="#403E46"><path d="M208.39 91.93c3.73 0 6.78-1.4 9.07-4.27l4.88 4.79c-3.81 4.2-8.39 6.26-13.57 6.26s-9.52-1.62-12.88-4.8c-3.35-3.16-5.03-7.21-5.03-12.07 0-4.87 1.75-8.92 5.18-12.16 3.43-3.24 7.63-4.86 12.65-4.86 5.57 0 10.22 2.06 13.95 6.11l-4.72 5.16a11.03 11.03 0 0 0-8.92-4.27c-2.82 0-5.26.88-7.32 2.72-1.98 1.77-3.04 4.2-3.04 7.3 0 3.02.91 5.45 2.82 7.29a9.31 9.31 0 0 0 6.93 2.8zM228.28 98.41v-32.7h7.55v26.22h14.4v6.48h-21.95zM280.25 65.7v6.49h-16.84v6.77h15.17v6.27H263.4v6.7h17.38v6.48h-24.92v-32.7h24.38zM300 86.55l8.6-20.85h8.16l-13.57 32.71h-6.4l-13.64-32.7h8.16l8.68 20.84zM345.26 65.7v6.49h-16.92v6.77h15.17v6.27h-15.17v6.7h17.38v6.48H320.8v-32.7h24.46zM379.94 76.53c0 5.23-2.14 8.62-6.48 10.17l8.61 11.71h-9.3l-7.54-10.46h-5.26v10.46h-7.55v-32.7h12.8c5.27 0 9 .88 11.29 2.57 2.36 1.7 3.43 4.5 3.43 8.25zm-9.07 3.9c.91-.8 1.37-2.06 1.37-3.82 0-1.77-.46-2.95-1.45-3.61-.99-.67-2.67-.96-5.1-.96h-5.64v9.72h5.48c2.6-.07 4.35-.51 5.34-1.32zM424.6 98.41l-3.13-7.07h-14.18l-3.12 7.07h-8.08l14.63-32.7h7.32l14.63 32.7h-8.08zm-10.22-22.98l-4.27 9.5h8.46l-4.19-9.5zM458.58 81.76h7.62V93.4c-3.35 3.61-8 5.45-13.94 5.45-4.96 0-9.15-1.62-12.5-4.78-3.35-3.17-5.03-7.22-5.03-12.09 0-4.86 1.75-8.91 5.18-12.15a17.52 17.52 0 0 1 12.42-4.86c4.88 0 9.07 1.54 12.65 4.64l-3.88 5.45a16.36 16.36 0 0 0-4.2-2.65 11 11 0 0 0-4.1-.74c-2.9 0-5.27.96-7.25 2.8-1.98 1.92-2.97 4.35-2.97 7.44 0 3.1.91 5.6 2.82 7.44a9.38 9.38 0 0 0 6.78 2.8c2.6 0 4.8-.52 6.56-1.47v-8.92zM497.3 65.7v6.49h-16.84v6.77h15.16v6.27h-15.16v6.7h17.37v6.48h-24.92v-32.7h24.39z"/></g></svg>