<?xml version="1.0" encoding="utf-8"?>
<!-- Generator: Adobe Illustrator 23.0.1, SVG Export Plug-In . SVG Version: 6.00 Build 0)  -->
<svg version="1.1" id="Layer_1" xmlns="http://www.w3.org/2000/svg" xmlns:xlink="http://www.w3.org/1999/xlink" x="0px" y="0px"
	 viewBox="0 0 425.2 425.2" style="enable-background:new 0 0 425.2 425.2;" xml:space="preserve">
<style type="text/css">
	.st0{fill:#1A1A1A;}
	.st1{fill-rule:evenodd;clip-rule:evenodd;fill:#4B8AE7;}
	.st2{fill-rule:evenodd;clip-rule:evenodd;fill:#FE4A66;}
	.st3{fill-rule:evenodd;clip-rule:evenodd;fill:#FEBF3C;}
	.st4{fill-rule:evenodd;clip-rule:evenodd;fill:#1A1A1A;}
</style>
<g>
	<path class="st0" d="M117.47,212.36c0-6.35,4.8-10.69,10.85-10.69c4.71,0,7.34,2.48,8.8,5.05l-3.78,1.86
		c-0.87-1.67-2.73-3.01-5.02-3.01c-3.59,0-6.32,2.88-6.32,6.79c0,3.91,2.73,6.79,6.32,6.79c2.29,0,4.15-1.3,5.02-3.01l3.78,1.83
		c-1.49,2.57-4.09,5.08-8.8,5.08C122.27,223.06,117.47,218.72,117.47,212.36z"/>
	<path class="st0" d="M151.1,201.67c6.26,0,10.82,4.46,10.82,10.69s-4.56,10.69-10.82,10.69c-6.23,0-10.79-4.46-10.79-10.69
		C140.31,206.13,144.87,201.67,151.1,201.67z M151.1,205.58c-3.81,0-6.26,2.91-6.26,6.79c0,3.84,2.45,6.79,6.26,6.79
		s6.29-2.94,6.29-6.79C157.39,208.49,154.91,205.58,151.1,205.58z"/>
	<path class="st0" d="M170.97,208.8v13.88h-4.4v-20.67h4.53l9.58,13.39v-13.39h4.4v20.67h-4.25L170.97,208.8z"/>
	<path class="st0" d="M195.48,205.89h-6.04v-3.87h16.49v3.87h-6.01v16.8h-4.43v-16.8H195.48z"/>
	<path class="st0" d="M210.3,202.01h14.63v3.78H214.7v4.49h10.01v3.78H214.7v4.8h10.23v3.81H210.3V202.01z"/>
	<path class="st0" d="M234.32,208.8v13.88h-4.4v-20.67h4.53l9.58,13.39v-13.39h4.4v20.67h-4.25L234.32,208.8z"/>
	<path class="st0" d="M258.84,205.89h-6.04v-3.87h16.49v3.87h-6.01v16.8h-4.43v-16.8H258.84z"/>
	<path class="st0" d="M274.43,216.42c1.46,1.52,3.72,2.79,6.57,2.79c2.42,0,3.59-1.15,3.59-2.32c0-1.55-1.8-2.08-4.18-2.63
		c-3.38-0.77-7.72-1.7-7.72-6.32c0-3.44,2.97-6.23,7.84-6.23c3.28,0,6.01,0.99,8.06,2.88l-2.45,3.22c-1.67-1.55-3.91-2.26-5.92-2.26
		c-1.98,0-3.04,0.87-3.04,2.11c0,1.39,1.74,1.83,4.12,2.39c3.41,0.78,7.75,1.8,7.75,6.38c0,3.78-2.7,6.63-8.27,6.63
		c-3.97,0-6.82-1.33-8.77-3.29L274.43,216.42z"/>
	<path class="st0" d="M311.49,219.68l1.52,1.77l-3.07,2.51L308.3,222c-1.46,0.68-3.13,1.05-4.93,1.05
		c-6.23,0-10.79-4.46-10.79-10.69s4.56-10.69,10.79-10.69c6.26,0,10.82,4.46,10.82,10.69C314.19,215.28,313.2,217.82,311.49,219.68z
		 M305.54,218.78l-2.36-2.76l3.07-2.48l2.36,2.76c0.68-1.08,1.05-2.45,1.05-3.94c0-3.87-2.48-6.79-6.29-6.79s-6.26,2.91-6.26,6.79
		c0,3.84,2.45,6.79,6.26,6.79C304.15,219.15,304.89,219.03,305.54,218.78z"/>
	<path class="st0" d="M318.84,202.01h4.46v12.27c0,2.88,1.58,4.87,4.8,4.87c3.16,0,4.74-1.98,4.74-4.87v-12.27h4.46v12.4
		c0,5.14-2.94,8.65-9.2,8.65c-6.32,0-9.27-3.53-9.27-8.62v-12.43H318.84z"/>
	<path class="st0" d="M355.1,219.12h-9.24l-1.3,3.56h-4.83l8-20.67h5.52l7.96,20.67h-4.8L355.1,219.12z M347.05,215.31h6.85
		l-3.41-9.48L347.05,215.31z"/>
	<path class="st0" d="M372.31,215.28h-3.22v7.41h-4.4v-20.67h9.67c4.31,0,6.94,2.82,6.94,6.66c0,3.66-2.29,5.61-4.52,6.14l4.65,7.87
		h-5.05L372.31,215.28z M373.7,205.79h-4.62v5.7h4.62c1.77,0,3.1-1.12,3.1-2.85S375.47,205.79,373.7,205.79z"/>
	<path class="st0" d="M386.16,202.01h14.63v3.78h-10.23v4.49h10.01v3.78h-10.01v4.8h10.23v3.81h-14.63V202.01z"/>
</g>
<path class="st1" d="M77.55,198.04c0.96,0.56,2.53,0.56,3.49,0l10.91-6.33c0.96-0.56,0.96-1.47,0-2.03l-29.3-16.97
	c-0.96-0.56-2.53-0.55-3.49,0l-29.28,17.01c-0.96,0.56-0.96,1.47,0,2.03l10.91,6.33c0.96,0.56,2.53,0.56,3.49,0l14.88-8.64
	c0.96-0.56,2.53-0.56,3.49,0L77.55,198.04z"/>
<path class="st2" d="M66.73,236.21c-0.96,0.56-1.74,1.92-1.74,3.03l0.06,12.61c0.01,1.11,0.8,1.56,1.76,1.01l29.31-16.96
	c0.96-0.56,1.74-1.92,1.74-3.03l-0.17-33.86c-0.01-1.11-0.8-1.56-1.76-1.01l-10.92,6.32c-0.96,0.56-1.74,1.92-1.74,3.03l0.09,17.21
	c0,1.11-0.78,2.47-1.74,3.03L66.73,236.21z"/>
<path class="st3" d="M55.47,236.12c0.96,0.56,1.74,1.92,1.74,3.03l-0.06,12.61c-0.01,1.11-0.8,1.56-1.76,1.01l-29.31-16.96
	c-0.96-0.56-1.74-1.92-1.74-3.03l0.17-33.86c0.01-1.11,0.8-1.56,1.76-1.01l10.92,6.32c0.96,0.56,1.74,1.92,1.74,3.03l-0.09,17.21
	c0,1.11,0.78,2.47,1.74,3.03L55.47,236.12z"/>
<path class="st4" d="M46.45,207.17c0-1.11,0.79-2.48,1.75-3.04l11.05-6.41c0.96-0.56,2.53-0.56,3.49,0l11.05,6.41
	c0.96,0.56,1.75,1.93,1.75,3.04V220c0,1.11-0.79,2.48-1.75,3.04l-11.05,6.41c-0.96,0.56-2.53,0.56-3.49,0l-11.05-6.41
	c-0.96-0.56-1.75-1.92-1.75-3.04V207.17z"/>
</svg>
