<?xml version="1.0" encoding="utf-8"?>
<svg version="1.1" id="Layer_1" x="0px" y="0px" viewBox="0 0 500 165" style="enable-background:new 0 0 425.2 425.2;" xmlns="http://www.w3.org/2000/svg">
  <style type="text/css">
	.st0{fill:#1A1A1A;}
	.st1{fill-rule:evenodd;clip-rule:evenodd;fill:#4B8AE7;}
	.st2{fill-rule:evenodd;clip-rule:evenodd;fill:#FE4A66;}
	.st3{fill-rule:evenodd;clip-rule:evenodd;fill:#FEBF3C;}
	.st4{fill-rule:evenodd;clip-rule:evenodd;fill:#1A1A1A;}
</style>
  <g transform="matrix(1, 0, 0, 1, 0, 1.454536)">
    <g transform="matrix(1.328198, 0, 0, 1.328198, -32.328472, -201.453598)" style="">
      <path class="st0" d="M117.47,212.36c0-6.35,4.8-10.69,10.85-10.69c4.71,0,7.34,2.48,8.8,5.05l-3.78,1.86 c-0.87-1.67-2.73-3.01-5.02-3.01c-3.59,0-6.32,2.88-6.32,6.79c0,3.91,2.73,6.79,6.32,6.79c2.29,0,4.15-1.3,5.02-3.01l3.78,1.83 c-1.49,2.57-4.09,5.08-8.8,5.08C122.27,223.06,117.47,218.72,117.47,212.36z"/>
      <path class="st0" d="M151.1,201.67c6.26,0,10.82,4.46,10.82,10.69s-4.56,10.69-10.82,10.69c-6.23,0-10.79-4.46-10.79-10.69 C140.31,206.13,144.87,201.67,151.1,201.67z M151.1,205.58c-3.81,0-6.26,2.91-6.26,6.79c0,3.84,2.45,6.79,6.26,6.79 s6.29-2.94,6.29-6.79C157.39,208.49,154.91,205.58,151.1,205.58z"/>
      <path class="st0" d="M170.97,208.8v13.88h-4.4v-20.67h4.53l9.58,13.39v-13.39h4.4v20.67h-4.25L170.97,208.8z"/>
      <path class="st0" d="M195.48,205.89h-6.04v-3.87h16.49v3.87h-6.01v16.8h-4.43v-16.8H195.48z"/>
      <path class="st0" d="M210.3,202.01h14.63v3.78H214.7v4.49h10.01v3.78H214.7v4.8h10.23v3.81H210.3V202.01z"/>
      <path class="st0" d="M234.32,208.8v13.88h-4.4v-20.67h4.53l9.58,13.39v-13.39h4.4v20.67h-4.25L234.32,208.8z"/>
      <path class="st0" d="M258.84,205.89h-6.04v-3.87h16.49v3.87h-6.01v16.8h-4.43v-16.8H258.84z"/>
      <path class="st0" d="M274.43,216.42c1.46,1.52,3.72,2.79,6.57,2.79c2.42,0,3.59-1.15,3.59-2.32c0-1.55-1.8-2.08-4.18-2.63 c-3.38-0.77-7.72-1.7-7.72-6.32c0-3.44,2.97-6.23,7.84-6.23c3.28,0,6.01,0.99,8.06,2.88l-2.45,3.22c-1.67-1.55-3.91-2.26-5.92-2.26 c-1.98,0-3.04,0.87-3.04,2.11c0,1.39,1.74,1.83,4.12,2.39c3.41,0.78,7.75,1.8,7.75,6.38c0,3.78-2.7,6.63-8.27,6.63 c-3.97,0-6.82-1.33-8.77-3.29L274.43,216.42z"/>
      <path class="st0" d="M311.49,219.68l1.52,1.77l-3.07,2.51L308.3,222c-1.46,0.68-3.13,1.05-4.93,1.05 c-6.23,0-10.79-4.46-10.79-10.69s4.56-10.69,10.79-10.69c6.26,0,10.82,4.46,10.82,10.69C314.19,215.28,313.2,217.82,311.49,219.68z M305.54,218.78l-2.36-2.76l3.07-2.48l2.36,2.76c0.68-1.08,1.05-2.45,1.05-3.94c0-3.87-2.48-6.79-6.29-6.79s-6.26,2.91-6.26,6.79 c0,3.84,2.45,6.79,6.26,6.79C304.15,219.15,304.89,219.03,305.54,218.78z"/>
      <path class="st0" d="M318.84,202.01h4.46v12.27c0,2.88,1.58,4.87,4.8,4.87c3.16,0,4.74-1.98,4.74-4.87v-12.27h4.46v12.4 c0,5.14-2.94,8.65-9.2,8.65c-6.32,0-9.27-3.53-9.27-8.62v-12.43H318.84z"/>
      <path class="st0" d="M355.1,219.12h-9.24l-1.3,3.56h-4.83l8-20.67h5.52l7.96,20.67h-4.8L355.1,219.12z M347.05,215.31h6.85 l-3.41-9.48L347.05,215.31z"/>
      <path class="st0" d="M372.31,215.28h-3.22v7.41h-4.4v-20.67h9.67c4.31,0,6.94,2.82,6.94,6.66c0,3.66-2.29,5.61-4.52,6.14l4.65,7.87 h-5.05L372.31,215.28z M373.7,205.79h-4.62v5.7h4.62c1.77,0,3.1-1.12,3.1-2.85S375.47,205.79,373.7,205.79z"/>
      <path class="st0" d="M386.16,202.01h14.63v3.78h-10.23v4.49h10.01v3.78h-10.01v4.8h10.23v3.81h-14.63V202.01z"/>
    </g>
    <path class="st1" d="M 70.673 61.582 C 71.948 62.326 74.034 62.326 75.309 61.582 L 89.799 53.174 C 91.075 52.431 91.075 51.222 89.799 50.478 L 50.883 27.939 C 49.608 27.195 47.523 27.208 46.248 27.939 L 7.358 50.531 C 6.083 51.275 6.083 52.484 7.358 53.227 L 21.849 61.635 C 23.124 62.379 25.209 62.379 26.484 61.635 L 46.248 50.159 C 47.523 49.416 49.608 49.416 50.883 50.159 L 70.673 61.582 Z" style=""/>
    <path class="st2" d="M 56.302 112.279 C 55.027 113.023 53.991 114.829 53.991 116.304 L 54.071 133.052 C 54.084 134.526 55.133 135.124 56.409 134.394 L 95.338 111.867 C 96.613 111.124 97.649 109.317 97.649 107.843 L 97.423 62.87 C 97.41 61.396 96.361 60.798 95.086 61.529 L 80.582 69.923 C 79.307 70.667 78.271 72.473 78.271 73.947 L 78.39 96.806 C 78.39 98.28 77.354 100.086 76.079 100.83 L 56.302 112.279 Z" style=""/>
    <path class="st3" d="M 41.347 112.16 C 42.622 112.903 43.658 114.71 43.658 116.184 L 43.578 132.933 C 43.565 134.407 42.516 135.005 41.241 134.274 L 2.311 111.748 C 1.036 111.004 0 109.198 0 107.723 L 0.226 62.751 C 0.239 61.276 1.288 60.679 2.563 61.409 L 17.067 69.803 C 18.342 70.547 19.378 72.354 19.378 73.828 L 19.259 96.686 C 19.259 98.16 20.295 99.967 21.57 100.711 L 41.347 112.16 Z" style=""/>
    <path class="st4" d="M 29.366 73.708 C 29.366 72.234 30.416 70.414 31.691 69.671 L 46.367 61.157 C 47.642 60.413 49.728 60.413 51.003 61.157 L 65.679 69.671 C 66.954 70.414 68.004 72.234 68.004 73.708 L 68.004 90.749 C 68.004 92.223 66.954 94.043 65.679 94.787 L 51.003 103.301 C 49.728 104.044 47.642 104.044 46.367 103.301 L 31.691 94.787 C 30.416 94.043 29.366 92.237 29.366 90.749 L 29.366 73.708 Z" style=""/>
  </g>
</svg>