<svg xmlns="http://www.w3.org/2000/svg" viewBox="0 0 676 99" enable-background="new 0 0 676 99"><style type="text/css">.st0{fill:#1A1A1A;} .st1{fill:#13A7C7;}</style><path d="M231.9 91.3v-5.7c-4.2 4.7-8.6 6.4-15 6.4-5.9 0-11.5-2.1-14.9-5.5-6-6-6.2-16.5-6.2-25.6s.1-19.4 6.2-25.5c3.4-3.4 8.8-5.5 14.8-5.5 6.2 0 10.8 1.6 14.8 6V8.6h15.1v82.8h-14.8zm-10.7-47.6c-9.1 0-10.2 7.4-10.2 17.3s1.2 17.4 10.2 17.4c9.1 0 10.3-7.6 10.3-17.4.1-9.9-1.2-17.3-10.3-17.3zM290 91.3v-5.2c-4.1 4.1-7.9 5.8-14.9 5.8-6.9 0-11.9-1.7-15.5-5.3-3.3-3.4-5-8.3-5-13.6 0-9.6 6.6-17.6 20.7-17.6h14.3v-3c0-6.6-3.3-9.5-11.3-9.5-5.8 0-8.5 1.4-11.6 5l-9.6-9.4c5.9-6.5 11.7-8.4 21.9-8.4 17 0 25.8 7.2 25.8 21.4v39.9H290zm-.3-25.6h-12c-5.5 0-8.5 2.6-8.5 6.9 0 4.2 2.8 7 8.7 7 4.2 0 6.9-.3 9.5-2.9 1.6-1.5 2.2-4 2.2-7.7v-3.3zM348.1 47.3c-2.3-2.3-4.3-3.6-8-3.6-4.7 0-9.8 3.5-9.8 11.2v36.5h-15.1V30.8H330v5.8c2.9-3.5 8.7-6.5 15.2-6.5 5.9 0 10.1 1.5 14.3 5.7l-11.4 11.5zM370.6 65.7c0 7.8 4.8 13.5 13.3 13.5 6.6 0 9.9-1.9 13.7-5.7l9.2 9c-6.2 6.2-12.1 9.5-23 9.5-14.3 0-28-6.5-28-31 0-19.8 10.7-30.9 26.4-30.9 16.9 0 26.4 12.3 26.4 28.9v6.7h-38zm21.6-16.8c-1.6-3.6-5-6.3-10.1-6.3s-8.5 2.7-10.1 6.3c-.9 2.2-1.3 3.8-1.4 6.5h23c-.1-2.7-.5-4.3-1.4-6.5zM461.1 86.6c-3.4 3.4-8.8 5.5-14.8 5.5-6.4 0-10.9-1.7-15.1-6.4v5.7h-14.6V8.6h15.1v27.5c4-4.4 8.5-6 14.6-6 5.9 0 11.4 2.1 14.8 5.5 6 6 6.2 16.4 6.2 25.5s-.1 19.4-6.2 25.5zm-19.2-42.9c-9.1 0-10.2 7.4-10.2 17.3s1.2 17.4 10.2 17.4c9.1 0 10.2-7.6 10.2-17.4.1-9.9-1.1-17.3-10.2-17.3zM517.7 84.6c-3.7 4-9.9 7.4-18.8 7.4-9 0-15-3.5-18.7-7.4-5.5-5.7-6.9-12.6-6.9-23.6 0-10.9 1.4-17.8 6.9-23.5 3.7-4 9.8-7.4 18.7-7.4 9 0 15.1 3.5 18.8 7.4 5.5 5.7 6.9 12.6 6.9 23.5 0 11-1.4 17.9-6.9 23.6zM506 46.3c-1.7-1.7-4.1-2.7-7.1-2.7s-5.2.9-7 2.7c-3.1 3.1-3.5 8.4-3.5 14.6 0 6.3.3 11.6 3.5 14.8 1.7 1.7 4 2.7 7 2.7s5.3-.9 7.1-2.7c3.1-3.1 3.5-8.5 3.5-14.8 0-6.2-.4-11.4-3.5-14.6zM575 84.6c-3.7 4-9.9 7.4-18.8 7.4-9 0-15-3.5-18.7-7.4-5.5-5.7-6.9-12.6-6.9-23.6 0-10.9 1.4-17.8 6.9-23.5 3.7-4 9.8-7.4 18.7-7.4 9 0 15.1 3.5 18.8 7.4 5.5 5.7 6.9 12.6 6.9 23.5 0 11-1.4 17.9-6.9 23.6zm-11.7-38.3c-1.7-1.7-4.1-2.7-7.1-2.7s-5.2.9-7 2.7c-3.1 3.1-3.5 8.4-3.5 14.6 0 6.3.3 11.6 3.5 14.8 1.7 1.7 4 2.7 7 2.7s5.3-.9 7.1-2.7c3.1-3.1 3.5-8.5 3.5-14.8 0-6.2-.4-11.4-3.5-14.6zM610.4 92c-9.5 0-18.1-1-25.8-8.7l9.9-9.9c5 5 11.5 5.7 16.2 5.7 5.2 0 10.7-1.7 10.7-6.3 0-3-1.6-5.1-6.4-5.6l-9.5-.9c-10.9-1-17.7-5.8-17.7-17 0-12.6 11-19.3 23.4-19.3 9.4 0 17.3 1.6 23.1 7.1l-9.3 9.4c-3.5-3.1-8.8-4.1-14.1-4.1-6 0-8.6 2.8-8.6 5.8 0 2.2.9 4.8 6.3 5.2l9.5.9c12 1.2 18 7.6 18 17.8 0 13.5-11.4 19.9-25.7 19.9zM662.1 91.3c-12.3 0-17.6-8.7-17.6-17.3V44h-6.4V32.5h6.4V14.6h15.1v17.9h10.7V44h-10.7v29.1c0 3.5 1.6 5.5 5.2 5.5h5.5v12.8h-8.2z"/><path d="M105.9 29.4c-2.8 2.3-5.4 4.5-7.9 6.6-3.7.4-8.3 1-12.4 1.9-4.5 1-11.7 3.3-11.7 3.3l-16.1 9.4.7.8.7.8 1.1-.4s2.3-.9 8.1.8c3.1.9 5.7 3.6 7.2 4.6-1.1 1.1-4.4 7.8-4.4 7.8l-.9.7.7.8.7.8.9-.7s7.1-2 8.4-2.9c.6 1.7 2.8 4.7 3.1 7.9.5 6-.8 8.1-.8 8.1l-.6 1 .7.8.7.8 12.4-13.9s3.6-6.6 5.5-10.8c1.7-3.9 3.2-8.2 4.3-11.8 2.5-2 5.2-4.1 8-6.5C136.2 21.3 143 7 143 7.1c.1.3-15.5 4.5-37.1 22.3z" class="st0"/><path d="M42.2 24.5c-9.1-.1-17.8 3.3-24.4 9.6C11.3 40.5 7.6 49 7.4 58.2 7.3 67.3 10.7 76 17 82.5c6.4 6.6 14.9 10.3 24 10.4 6 .1 10.8-2.4 15.5-5.8l4.4 5.3 7.8-23.8-24.9 3.1 5 6c-2.2 1.7-4.8 2.5-7.5 2.5-5.7-.1-11.1-2.4-15.1-6.5s-6.2-9.6-6.1-15.3c.1-5.7 2.4-11.1 6.5-15.1s9.6-6.1 15.3-6c5.7.1 11.1 2.4 15.1 6.5l1.4 1.6L69.6 39h.1l-3.5-3.9c-6.3-6.5-14.9-10.4-24-10.6zM145.4 36.1c-3.4-3.5-7.4-6.2-11.8-7.9-1.7 2.2-7.5 7.9-10.1 10.4h-.1c4.8.6 9.3 2.8 12.8 6.4 8.3 8.5 8 22.1-.5 30.4-4.1 4-9.6 6.1-15.3 6-5.7-.1-11.1-2.4-15.1-6.5l-5-5.1v.1s-2.4 4.1-3.4 5.7c-1.1 1.6-4.2 4.7-4.2 4.7l3.5 3.6c6.4 6.6 14.9 10.3 24 10.4 9.1.1 17.8-3.3 24.4-9.6 13.6-13.3 13.9-35.1.8-48.6z" class="st1"/></svg>