<svg xmlns="http://www.w3.org/2000/svg" viewBox="0 0 500 165"><path d="M171.42 112.33v-4.2c-3.08 3.46-6.31 4.71-11.02 4.71-4.33 0-8.44-1.54-10.94-4.04-4.41-4.4-4.56-12.12-4.56-18.8 0-6.7.07-14.26 4.56-18.74 2.5-2.5 6.46-4.04 10.87-4.04 4.55 0 7.93 1.17 10.87 4.4V51.58h11.1v60.83h-10.88zm-7.86-34.97c-6.68 0-7.49 5.43-7.49 12.7 0 7.28.88 12.79 7.5 12.79 6.68 0 7.56-5.58 7.56-12.78.07-7.28-.88-12.71-7.57-12.71zm50.55 34.97v-3.82c-3.01 3-5.8 4.26-10.95 4.26-5.07 0-8.74-1.25-11.38-3.9-2.43-2.5-3.68-6.1-3.68-9.99 0-7.05 4.85-12.93 15.21-12.93h10.5v-2.2c0-4.85-2.42-6.98-8.3-6.98-4.26 0-6.24 1.03-8.52 3.67l-7.05-6.9c4.33-4.78 8.6-6.18 16.09-6.18 12.49 0 18.95 5.3 18.95 15.73v29.31h-10.87zm-.22-18.81h-8.82c-4.04 0-6.24 1.9-6.24 5.07 0 3.08 2.06 5.14 6.4 5.14 3.08 0 5.06-.22 6.97-2.13 1.18-1.1 1.62-2.94 1.62-5.66v-2.42zM256.79 80c-1.68-1.69-3.15-2.64-5.87-2.64-3.45 0-7.2 2.57-7.2 8.22v26.82h-11.1V67.88h10.88v4.26c2.13-2.57 6.4-4.78 11.17-4.78 4.33 0 7.42 1.1 10.5 4.2L256.8 80zm16.54 13.52c0 5.73 3.52 9.92 9.77 9.92 4.85 0 7.27-1.4 10.06-4.19l6.76 6.61c-4.55 4.56-8.88 6.98-16.9 6.98-10.5 0-20.56-4.77-20.56-22.77 0-14.55 7.86-22.7 19.39-22.7 12.42 0 19.4 9.03 19.4 21.23v4.92h-27.92zm15.87-12.34c-1.18-2.65-3.68-4.63-7.42-4.63-3.75 0-6.25 1.98-7.42 4.63-.67 1.61-.96 2.79-1.03 4.77h16.9a12.33 12.33 0 0 0-1.03-4.77zm50.62 27.7c-2.5 2.5-6.47 4.04-10.88 4.04-4.7 0-8-1.25-11.09-4.7v4.18h-10.73V51.57h11.1v20.2c2.94-3.23 6.24-4.4 10.72-4.4 4.34 0 8.38 1.54 10.88 4.03 4.4 4.41 4.55 12.05 4.55 18.74 0 6.69-.07 14.25-4.55 18.73zm-14.1-31.52c-6.7 0-7.5 5.43-7.5 12.7 0 7.28.88 12.79 7.5 12.79 6.68 0 7.49-5.58 7.49-12.78.07-7.28-.81-12.71-7.5-12.71zm55.68 30.05c-2.72 2.93-7.27 5.43-13.81 5.43-6.61 0-11.02-2.57-13.74-5.44-4.04-4.18-5.07-9.25-5.07-17.33 0-8.01 1.03-13.08 5.07-17.27 2.72-2.94 7.2-5.44 13.74-5.44 6.61 0 11.1 2.58 13.81 5.44 4.04 4.19 5.07 9.26 5.07 17.27 0 8.08-1.03 13.15-5.07 17.34zm-8.6-28.14a7.15 7.15 0 0 0-5.21-1.99 6.8 6.8 0 0 0-5.14 1.99c-2.28 2.27-2.57 6.17-2.57 10.72 0 4.63.22 8.53 2.57 10.88a6.97 6.97 0 0 0 5.14 1.98c2.2 0 3.9-.66 5.22-1.98 2.27-2.28 2.57-6.25 2.57-10.88 0-4.55-.3-8.37-2.57-10.72zm50.7 28.14c-2.72 2.93-7.27 5.43-13.81 5.43-6.61 0-11.02-2.57-13.74-5.44-4.04-4.18-5.07-9.25-5.07-17.33 0-8.01 1.03-13.08 5.07-17.27 2.72-2.94 7.2-5.44 13.74-5.44 6.61 0 11.1 2.58 13.81 5.44 4.04 4.19 5.07 9.26 5.07 17.27 0 8.08-1.03 13.15-5.07 17.34zm-8.6-28.14a7.15 7.15 0 0 0-5.21-1.99 6.8 6.8 0 0 0-5.14 1.99c-2.28 2.27-2.57 6.17-2.57 10.72 0 4.63.21 8.53 2.57 10.88a6.97 6.97 0 0 0 5.14 1.98c2.2 0 3.9-.66 5.22-1.98 2.27-2.28 2.57-6.25 2.57-10.88 0-4.55-.3-8.37-2.57-10.72zm34.6 33.57c-6.97 0-13.29-.73-18.94-6.39l7.27-7.27c3.67 3.67 8.45 4.18 11.9 4.18 3.82 0 7.86-1.24 7.86-4.62 0-2.2-1.17-3.75-4.7-4.12l-6.98-.66c-8-.73-13-4.26-13-12.49 0-9.26 8.08-14.18 17.19-14.18 6.9 0 12.7 1.18 16.97 5.22l-6.83 6.9c-2.57-2.27-6.47-3.01-10.36-3.01-4.41 0-6.32 2.06-6.32 4.26 0 1.62.66 3.53 4.63 3.82l6.98.66c8.81.89 13.22 5.59 13.22 13.08 0 9.92-8.37 14.62-18.88 14.62zm38-.51c-9.04 0-12.94-6.4-12.94-12.71V77.58h-4.7v-8.45h4.7V55.98h11.1v13.15h7.86v8.45h-7.86v21.38c0 2.57 1.17 4.04 3.82 4.04h4.04v9.4h-6.03z"/><path fill="#1a1a1a" d="M78.85 66.85c-2.05 1.69-3.97 3.3-5.8 4.85-2.72.3-6.1.73-9.11 1.4-3.3.73-8.6 2.42-8.6 2.42l-11.83 6.9.52.6.51.58.8-.3s1.7-.65 5.96.6c2.28.66 4.19 2.64 5.3 3.37-.82.81-3.24 5.73-3.24 5.73l-.66.52.51.59.52.58.66-.51s5.21-1.47 6.17-2.13c.44 1.25 2.05 3.45 2.27 5.8.37 4.41-.58 5.96-.58 5.96l-.44.73.51.59.52.59 9.1-10.22s2.65-4.85 4.05-7.93a83.8 83.8 0 0 0 3.16-8.67c1.83-1.47 3.82-3.01 5.87-4.78 16.1-13.22 21.09-23.73 21.09-23.65.07.22-11.39 3.3-27.26 16.38z"/><path fill="#13a7c7" d="M32.05 63.25a25.45 25.45 0 0 0-17.92 7.05 25.15 25.15 0 0 0-.59 35.56 24.77 24.77 0 0 0 17.63 7.64c4.4.08 7.93-1.76 11.39-4.26l3.23 3.9 5.73-17.49-18.3 2.28 3.68 4.4a8.89 8.89 0 0 1-5.51 1.84 15.83 15.83 0 0 1-15.58-16.01 15.83 15.83 0 0 1 4.78-11.1 15.63 15.63 0 0 1 11.24-4.4c4.19.07 8.16 1.76 11.1 4.77l1.02 1.17 8.23-4.7h.08l-2.58-2.86a25.4 25.4 0 0 0-17.63-7.8zm75.82 8.52a24.32 24.32 0 0 0-8.67-5.8c-1.25 1.61-5.5 5.8-7.42 7.64h-.07a15.82 15.82 0 0 1 9.04 27.04 15.64 15.64 0 0 1-11.25 4.4 15.83 15.83 0 0 1-11.09-4.77l-3.67-3.75v.08s-1.77 3-2.5 4.18a37.6 37.6 0 0 1-3.09 3.46l2.57 2.64a24.78 24.78 0 0 0 17.64 7.64 25.45 25.45 0 0 0 17.92-7.05 25.35 25.35 0 0 0 .6-35.7z"/></svg>