<svg xmlns="http://www.w3.org/2000/svg" viewBox="0 0 595.3 841.9"><g id="Calque_2"><linearGradient id="SVGID_1_" x1="282.37" x2="349.3" y1="559.52" y2="559.52" gradientUnits="userSpaceOnUse"><stop offset=".01" stop-color="#b3b1c9"/><stop offset=".52" stop-color="#e8e6f4"/><stop offset="1" stop-color="#fff"/></linearGradient><path fill="url(#SVGID_1_)" d="M292.9 480s-4.9-.4-10.5-.3c3.8 2 13.1 7.3 18.1 13.7 6.4 8.2 28.3 32.7 37.9 119.5 1 8.6 5.5 22 10.9 26.5-4-40.7-18.4-150.9-56.4-159.4z"/><linearGradient id="SVGID_2_" x1="318.14" x2="363.66" y1="545.81" y2="545.81" gradientUnits="userSpaceOnUse"><stop offset=".01" stop-color="#b3b1c9"/><stop offset=".52" stop-color="#e8e6f4"/><stop offset="1" stop-color="#fff"/></linearGradient><path fill="url(#SVGID_2_)" d="M322.6 475.9c8.3 23.3 27.1 73.9 36 160.8 5.6-8.8 9.2-32.4-3.9-80.9-17.5-64.7-25.1-85.1-24.5-97.3 0 0-5.2-2.7-11.9-3.5-.9 11.9 2.6 16.2 4.3 20.9z"/><linearGradient id="SVGID_3_" x1="319.63" x2="319.63" y1="486.4" y2="631.55" gradientUnits="userSpaceOnUse"><stop offset=".09" stop-color="#413747"/><stop offset=".14" stop-color="#473c4c"/><stop offset=".22" stop-color="#554a5d"/><stop offset=".32" stop-color="#6c5e75"/><stop offset=".42" stop-color="#887795"/><stop offset=".54" stop-color="#a993b9"/><stop offset=".61" stop-color="#bca3ce"/><stop offset="1" stop-color="#fff"/></linearGradient><path fill="url(#SVGID_3_)" d="M358.6 636.7c-8.9-86.9-27.7-137.5-36-160.8-1.7-4.7-5.2-9-4.4-21-3.2-.4-6.7-.3-10.2.6-11.1 2.9-22.7 3.5-27.4 23.3 0 0 .6.3 1.7.9 5.6-.1 10.5.3 10.5.3 38 8.5 52.4 118.7 56.4 159.4 1.2 1 2.4 1.5 3.6 1.5 1.9 0 4-1.3 5.8-4.2z"/><radialGradient id="SVGID_4_" cx="480.6" cy="493.98" r="89.13" gradientUnits="userSpaceOnUse"><stop offset=".08" stop-color="#005155"/><stop offset=".24" stop-color="#006361"/><stop offset=".57" stop-color="#008978"/><stop offset=".73" stop-color="#009881"/><stop offset="1" stop-color="#00a393"/></radialGradient><path fill="url(#SVGID_4_)" d="M442.5 405.4c2.9 1.7 7.6 9.9 7.6 14.6s1.2 7 4.1 8.2c1.1.4 1.4 1.8 1.5 3.4 10.8.8 20.5 1 22.4.1 3.5-1.7.6-5.2-3.5-8.7-4.1-3.5-7.6-12.2-14-15.7-3.2-1.8-16.8-8.8-37.4-10.2 17.8 2.4 16.7 6.7 19.3 8.3z"/><radialGradient id="SVGID_5_" cx="285.13" cy="401.1" r="202.86" gradientUnits="userSpaceOnUse"><stop offset=".08" stop-color="#005155"/><stop offset=".24" stop-color="#006361"/><stop offset=".57" stop-color="#008978"/><stop offset=".73" stop-color="#009881"/><stop offset="1" stop-color="#00a393"/></radialGradient><path fill="url(#SVGID_5_)" d="M172.6 472.4c9.9 1.2 5.2-.6 7.6-3.5 2.3-2.9 7 1.7 9.9 4.1 2.9 2.3 4.1-3.5 8.2-4.7s-9.3 1.7-4.1-4.7c2.3-2.8-16.9-3.4-40.6-3.3 14.3.8 27.7 1.5 30.1 1.5 0 0-9.3 1.6-18.6 3.5 4.6 1.3 1 6.3 7.5 7.1z"/><radialGradient id="SVGID_6_" cx="285.12" cy="401.1" r="202.87" gradientUnits="userSpaceOnUse"><stop offset=".08" stop-color="#005155"/><stop offset=".24" stop-color="#006361"/><stop offset=".57" stop-color="#008978"/><stop offset=".73" stop-color="#009881"/><stop offset="1" stop-color="#00a393"/></radialGradient><path fill="url(#SVGID_6_)" d="M474.6 303.4c-60.8 32.9-84.3 60.3-93.3 74.7 2-2 3.7-3.6 4.7-4.2 4.7-2.9 11.7-12.8 9.3-12.8 0 0 28.6-23.9 32.1-25.6 0 0 10.5-5.2 14-8.2 3.5-2.9 38.5-25.6 42-28 3.5-2.3 7-2.9 5.2-4.7-.3-.3-1-.5-1.8-.6-3 4.9-12.2 9.4-12.2 9.4z"/><radialGradient id="SVGID_7_" cx="285.13" cy="401.1" r="202.87" gradientUnits="userSpaceOnUse"><stop offset=".08" stop-color="#005155"/><stop offset=".24" stop-color="#006361"/><stop offset=".57" stop-color="#008978"/><stop offset=".73" stop-color="#009881"/><stop offset="1" stop-color="#00a393"/></radialGradient><path fill="url(#SVGID_7_)" d="M68.3 444.4c2-3.3 40-4.5 62.7-5-42.2.5-55.1-.6-59.5-2.1-12.6 1.6-22.6 3.8-24.2 6.6-.6 1-.7 1.9-.3 2.7 3.9-2.5 18.4 2.4 21.3-2.2z"/><radialGradient id="SVGID_8_" cx="285.14" cy="401.1" r="202.87" gradientUnits="userSpaceOnUse"><stop offset=".08" stop-color="#005155"/><stop offset=".24" stop-color="#006361"/><stop offset=".57" stop-color="#008978"/><stop offset=".73" stop-color="#009881"/><stop offset="1" stop-color="#00a393"/></radialGradient><path fill="url(#SVGID_8_)" d="M30.4 389.6c5.2 1.7 9.9-2.3 5.2-2.9-3.3-.4-6.3-4.3 6.6-4.9-4.9-.1-8.6.1-10.1.8-7 3.5-12.2 7.6-7 9.3 1.3.4 3.1 1.1 4.9 1.8-.5-2.1-3.4-5.3.4-4.1z"/><radialGradient id="SVGID_9_" cx="285.12" cy="401.1" r="202.86" gradientUnits="userSpaceOnUse"><stop offset=".08" stop-color="#005155"/><stop offset=".24" stop-color="#006361"/><stop offset=".57" stop-color="#008978"/><stop offset=".73" stop-color="#009881"/><stop offset="1" stop-color="#00a393"/></radialGradient><path fill="url(#SVGID_9_)" d="M393.1 438.8c.9.4 1.8.7 2.8 1 0 0-1.3-.6-2.8-1z"/><path d="M394.1 431c-5.2-1.2-8.2.6-7 2.9.9 1.8 3.1 3.6 6 4.8 1.5.5 2.8 1 2.8 1-1-.3-1.9-.6-2.8-1-2.4-.7-5.4-1.4-5.4.4 0 2.9-1.2 8.7 7 10.5 0 0-9.3 0-3.5 4.1 0 0-3.5 2.3.6 5.2 4.1 2.9 14.6 8.2 9.3 2.9-5.2-5.2-5.8-7-2.9-7s-3.5-5.2 1.7-2.9c5.2 2.3 8.2 1.7 5.8-1.7s-7.6-9.9-7.6-9.9 13.4 8.2 13.4 4.1c0-2.9-3-7.9-5.1-11.1-5.4-2.5-11.3-4.7-17.7-6.4 3.1 1.2 10.7 5.3 5.4 4.1z" class="st9"/><radialGradient id="SVGID_10_" cx="285.12" cy="401.1" r="202.86" gradientUnits="userSpaceOnUse"><stop offset=".08" stop-color="#005155"/><stop offset=".24" stop-color="#006361"/><stop offset=".57" stop-color="#008978"/><stop offset=".73" stop-color="#009881"/><stop offset="1" stop-color="#00a393"/></radialGradient><path fill="url(#SVGID_10_)" d="M376.1 389.1s.9-3.9 5.2-11c-3.3 3.3-7.4 8-11 12l5.8-1z"/><radialGradient id="SVGID_11_" cx="285.12" cy="401.1" r="202.87" gradientUnits="userSpaceOnUse"><stop offset=".08" stop-color="#005155"/><stop offset=".24" stop-color="#006361"/><stop offset=".57" stop-color="#008978"/><stop offset=".73" stop-color="#009881"/><stop offset="1" stop-color="#00a393"/></radialGradient><path fill="url(#SVGID_11_)" d="M389.9 254.4c1.1-1.6 1.9-2.9 1.9-2.9s-.8 1.1-1.9 2.9z"/><radialGradient id="SVGID_12_" cx="285.11" cy="401.1" r="202.85" gradientUnits="userSpaceOnUse"><stop offset=".08" stop-color="#005155"/><stop offset=".24" stop-color="#006361"/><stop offset=".57" stop-color="#008978"/><stop offset=".73" stop-color="#009881"/><stop offset="1" stop-color="#00a393"/></radialGradient><path fill="url(#SVGID_12_)" d="M30.1 393.8c.2.8.1 1.5-.9 1.7-3.5.6 5.2 2.9 12.2 4.7.4.1.8.2 1.2.2.3-.2.5-.2.5-.2-1.2-1.4-7.6-4.3-13-6.4z"/><radialGradient id="SVGID_13_" cx="285.12" cy="401.1" r="202.86" gradientUnits="userSpaceOnUse"><stop offset=".08" stop-color="#005155"/><stop offset=".24" stop-color="#006361"/><stop offset=".57" stop-color="#008978"/><stop offset=".73" stop-color="#009881"/><stop offset="1" stop-color="#00a393"/></radialGradient><path fill="url(#SVGID_13_)" d="M129.7 390.2c-11.7-3.1-29.9-5.8-29.9-5.8s8.7 3.5-32.1-1.2c-12-1.4-20.1-1.7-25.5-1.4 18.3.4 53.7 5.5 56.9 5.5 3.9 0 27.4 2.5 30.6 2.9z"/><path d="M73.5 394.9c13.4-2.9 56.5 7 61.2 6.4 4.7-.6-12.2-3.5-18.1-5.2-5.8-1.7-9.3-4.7-9.3-4.7s31.5 8.2 32.1 3.5c.2-1.5-4-3.2-9.7-4.7-3.2-.3-26.7-2.9-30.5-2.9-3.2 0-38.6-5.1-56.9-5.5-12.9.6-9.9 4.5-6.6 4.9 4.7.6 0 4.7-5.2 2.9-3.8-1.3-.9 2-.3 4.2 5.4 2.1 11.8 5 13.1 6.3 0 0-.2.1-.5.2 7 1.1 18.1-2.7 30.7-5.4z" class="st9"/><radialGradient id="SVGID_14_" cx="285.12" cy="401.1" r="202.86" gradientUnits="userSpaceOnUse"><stop offset=".08" stop-color="#005155"/><stop offset=".24" stop-color="#006361"/><stop offset=".57" stop-color="#008978"/><stop offset=".73" stop-color="#009881"/><stop offset="1" stop-color="#00a393"/></radialGradient><path fill="url(#SVGID_14_)" d="M130.9 439.4c5.1-.1 10.6-.1 16.6-.3.1.1-6.8.1-16.6.3z"/><path d="M130.9 439.4c5.1-.1 10.6-.1 16.6-.3.1.1-6.8.1-16.6.3zM389.9 254.4c1.1-1.6 1.9-2.9 1.9-2.9s-.8 1.1-1.9 2.9zM332.3 481.6c-.1-.9-.3-1.7-.5-2.6.2 1 .3 1.9.5 2.6z" class="st15"/><path d="M323.2 443.8c3.7 3.4 17.8 8.5 32.3 13 1.3.2 2.6.3 3.6.4 2.5.2 6.6 1.2 11.4 2.5 1.1-2.7 1.5-6.2.3-8.9-1.7-4.1 0-8.2-1.7-12.8-1.7-4.7-1.7-7-2.3-12.8-.6-5.8-9.9 0-18.1.6-8.2.6-16.3 8.2-21.6 11.1s-11.7 7.6-19.8 11.1-5.8 8.2-9.9 15.7c-1.2 2.2-1.4 7.5-1.1 14.1 1.2 1 2.2 1.8 2.8 2.3 2.3 1.7 8.7 8.2 14 8.7 4.4.5 15.3 2.2 19.1.7.8-1.7.6-4.6.1-7.8-.2-.7-.3-1.6-.5-2.6-.7-3.6-1.7-7.3-2.2-9.5-.8-3.5 1.9-8.7 3.7-11.6.1-2.9-.8-5.3-2.7-6.4 0 0 .6.2 1.6.4-6.1-4.7-9-8.2-9-8.2zM452.7 427.2c-1.8-1.3-2.6-3.6-2.6-7.3 0-4.7-4.7-12.8-7.6-14.6-2.6-1.6-1.5-5.9-19.3-8.5-13.9-1-31.1.6-50.5 8.1-.6 1.5-1.5 3-2.5 3.9-2.9 2.3-9.3 5.2-2.9 9.3s5.8 0 8.7 4.7c2.9 4.7 9.9 2.9 12.8 4.1 0 0 1.9 0 5-.1l-3.1-1.1c6.6-1.3 37.4.1 62 1.5zM436.7 314.4s6.5-5.3 14.8-12.5c10.2-13.6 37.6-37.6 37.6-37.6-.6-6.4-60 7.6-110.8 55.4 0 0 3.2-5.9 7.8-14.2-4.9 7.4-11.7 18.7-14.2 28.2 0 0 21-25.6 36.7-35 0 0 1.7 2.3 0 4.1-1.7 1.7-5.2 5.2-2.3 4.7 2.9-.6 16.9-16.3 61.8-36.7 0 0-9.3 1.7-11.7 2.3-2.3.6 29.1-10.5 26.8-7-2.3 3.5-76.4 25.6-118.9 109l-1.2 4.1s29.1-51.9 75.2-85.1c0 0-47.2 38.5-76.4 93.9l-7 14.6s47.2-88 116.6-125.9c0 0-67 51.9-102 113.7l.6-.1c3.6-4.1 7.7-8.7 11-12 8.9-14.4 32.5-41.8 93.3-74.7 0 0 9.2-4.5 12.2-9.4-.8-.1-1.9-.1-3 0-8.1 4.7-18.9 7.8-25.2 9.3-6 2.4-13.4 5.8-21.7 10.9zM407.7 218.8c-8.2 1.2.6-5.2.6-5.2-56.1 27.1-84.3 109.3-91 131.8-1.1 8.7-1.6 16.5-1.3 22.7 2.3 37.9 9.3-1.7 11.1-12.8 1.7-11.1-3.5-20.4 4.7-42s28.6-61.8 55.4-83.4c0 0-39.1 49.5-49.5 103.8 0 0 3.5.6 5.2-4.7 1.7-5.2 22.9-88.4 82.2-103.2 2.3-.6 3.5 2.9-.6 5.8s-12.2 6.4-17.5 10.5c-5.2 4.1-4.1-2.9-6.4-1.7s-19.8 9.3-18.7 17.5c.8 5.7 5.4.2 8-3.5 1.1-1.7 1.9-2.9 1.9-2.9s-.8 1.3-1.9 2.9c-3.1 4.9-8.6 14.3-5.1 15.2 4.7 1.2 14.6-15.2 14.6-15.2s-9.9 17.5-7 18.1c2.9.6 8.2-7.6 8.2-7.6s17.1-2.3 33.2-39.5c-1.3-4-10.1-3.2-15.8-2.3-4.8 1.9-8.7 3.9-8.7 3.9s5.9-10.5 6.5-14.9c-1.5.3-2.3 5.9-8.1 6.7zM313.3 219.4c-2.4-1.2-7.9 9.5-11.2 16.7 0 8 .7 16.1 2.9 20.1 5.2 9.3 1.7-16.9 7-16.3 5.2.6 5.8 3.5 12.8-1.7 2.2-1.6 3.3-.1 4.3 1.5a151 151 0 0 1 5.6-13.7c2.2-4.4 5.4-13.4 3.6-17.9-2.6.5-5.7.8-9.2.9-10.6.5-12.3 12.2-15.8 10.4zM233.8 250.3c1.2 2.9 2.5 5.1 4.1 5.8 3.9 1.7 13.8-11 17.3-27.3-17.2 1.5-20.8 13.7-21.4 21.5zM211.1 289.1c3.5 4 7.6 4.7 9.5 4.4 3.7-.6 19 3.5 18.5-16.9-.2-5.7-1.8-9.7-4-12.6-17.8 1.6-22.7 15.9-24 25.1zM94.5 331.3c3.6 2.3 7.8 4 9.3.6 1.1-2.4-1.2-5.2-4.5-7.7-3 2.4-4.3 4.9-4.8 7.1zM60.3 352.9c-9.7 6.6 11.7 17.6 23.5 21.5 7.6 1.4 12.5.7 11.3-.5-2.3-2.3 9.3 0 18.1 1.7 8.7 1.7 2.3-7.6-1.2-17.5s-9.9 0-21.6-.6c-11.7-.6-7 3.5-11.7 3.5s-17.5-1.7-16.3-5.2c1.2-3.5 24.5-4.1 30.3-4.1s11.7-1.2 11.7-1.2c-.3-1.5-1.6-2.9-3.4-4.1-9.8 0-32.2.7-40.7 6.5zM205.8 432.2s-45.5-23.9-54.8-21.6-14.6 4.1-23.3-1.2c-8.7-5.2-41.4-18.1-68.8-8.2 0 0 2.3 2.3 12.2 1.7 9.9-.6 32.1-.6 46.1 7 0 0-37.9-11.1-49-2.3 0 0 8.2 1.2 12.2 1.2 4.1 0 32.6 4.7 53.6 12.8 0 0-42-9.3-49.5-4.1-7.6 5.2 38.1 7.6 65.3 14.6 0 0-15.9-.5-33.9-.8 4.6.5 9.5.9 14.7 1.4 0 0-34.5 1.3-59.2 4.5 4.4 1.6 17.3 2.7 59.5 2.1-22.6.5-60.6 1.7-62.7 5-2.8 4.6-17.3-.3-21.3 2.1 2.4 5.5 24.9 5.7 34.1 7.2 10.5 1.7 28.6 4.7 34.4 4.7 3.1 0 21.3 1 38.1 2 23.7-.1 42.9.5 40.6 3.3-5.2 6.4 8.2 3.5 4.1 4.7s-5.2 7-8.2 4.7c-2.9-2.3-7.6-7-9.9-4.1-2.3 2.9 2.3 4.7-7.6 3.5-6.5-.8-3-5.8-7.5-7 0 0-14.4 4.1-17.9 7.6-3.2 3.2-31.1 7-36.9 16.4 8.1-.2 20.6-1 36.2-3.6 28.6-4.7 44.9-7 50.1-7.6 5.2-.6 8.7-.6 11.7-4.1 2.9-3.5 1.2-3.5 4.1-5.8s20.4 1.2 21.6-2.3-11.1-5.2-15.2-5.2 8.7-.6 11.7-4.1-6.8-7.2-.8-6.2 14.2 1.6 10.1-4.9c-4.1-6.4-33.9-13.4-33.9-13.4z" class="st9"/><path d="M62.4 349.4c-8.2 3.5-6.4 9.9-3.5 12.8l-1.3.9c.4.3.9.6 1.3.9 8.9 6.1 18 9.2 24.9 10.4-11.8-3.9-33.2-14.9-23.5-21.5 8.5-5.8 30.9-6.5 40.7-6.5-1.5-1-3.5-1.9-5.7-2.8-4.7.5-25.6 2.7-32.9 5.8zM92.9 330.2c.5.4 1.1.8 1.6 1.1.5-2.2 1.8-4.7 4.8-7.1-.7-.5-1.3-1-2.1-1.4-1.8 2-3.5 4.4-4.3 7.4zM233.8 262.6s-22.8 1.6-23.9 25c.4.6.8 1 1.2 1.5 1.3-9.2 6.2-23.4 23.9-25.2-.4-.5-.8-1-1.2-1.3 0-.1 0-.1 0 0zM244.3 228.7c-8.1 5.4-11.1 11.2-11.8 17.9.4 1.3.8 2.5 1.3 3.6.5-7.8 4.2-20.1 21.4-21.4.2-.9.4-1.8.5-2.7-4.5 0-8.5.7-11.4 2.6zM334.7 205.4c-7.6-.6-15.7 7-19.2 10.5s-3.5-1.2-8.2 6.4c-1.9 3.1-3.7 6.2-5.2 8.9 0 1.6-.1 3.2-.1 4.8 3.4-7.1 8.9-17.8 11.2-16.7 3.5 1.7 5.2-9.9 15.7-10.5 3.5-.2 6.7-.5 9.2-.9-.4-1.4-1.6-2.3-3.4-2.5zM415.7 210.7c-1.2-2.9-59.5 8.2-96.2 123.6 0 0 .1-1.6.2-4.3-1 5.3-1.8 10.5-2.4 15.4 6.8-22.5 34.9-104.7 91-131.8 0 0-8.7 6.4-.6 5.2 5.8-.8 6.6-6.4 8-6.8.1-.5.1-1 0-1.3zM433.8 225.4c.2-.4.4-.8.6-1.3l.6-1.5c-.3-.6-.7-1-1.2-1.4-3.2-2.2-10.1-.3-15.8 1.9 5.7-1 14.5-1.7 15.8 2.3zM451.5 301.9c15.6-13.4 38-33.4 37.6-37.6.1 0-27.4 24-37.6 37.6zM458.5 303.4c6.4-1.5 17.2-4.6 25.2-9.3-3.3.3-7.4 1.5-9.2 2.9-1.6 1.3-7.5 2.9-16 6.4zM429.7 428.7c6.7 1.1 16.7 2.1 25.9 2.8 0-1.6-.4-3-1.5-3.4-.6-.2-1.1-.5-1.5-.9-24.6-1.4-55.4-2.8-61.8-1.5l3.1 1.1c8.3 0 25.2.2 35.8 1.9zM323.2 443.8s2.9 3.4 9 8c4.2 1.1 15.6 3.9 23.3 5-14.5-4.5-28.6-9.5-32.3-13zM329.6 469.5c.5 2.2 1.5 5.8 2.2 9.5 0-.2-.1-.5-.1-.7-.6-5.8-1.2-11.1.6-15.7.6-1.6.9-3.2 1-4.6-1.8 2.8-4.5 8-3.7 11.5zM333.5 488.2c.4-2.7-.5-3.6-1.2-6.6.5 3.2.7 6.2-.1 7.8.7-.3 1.2-.7 1.3-1.2zM147.2 473c3.5-3.5 17.9-7.6 17.9-7.6-8.7 1.8-17.3 3.9-18.1 5.3-1.7 2.9-17.5 5.8-21.6 8.2-3.5 2-15.5 5.9-15.2 10.6 5.9-9.5 33.7-13.3 37-16.5z" class="st16"/><radialGradient id="SVGID_15_" cx="113.35" cy="392.55" r="287.3" gradientUnits="userSpaceOnUse"><stop offset="0" stop-color="#c4e3dd"/><stop offset=".37" stop-color="#009982"/><stop offset=".77" stop-color="#007973"/></radialGradient><path fill="url(#SVGID_15_)" d="M161.1 303.4l-57.8 14.5s-3.1 1.8-6 4.9c4.3 2.8 7.9 6.2 6.6 9.1-1.8 3.9-7.1 1.1-10.9-1.8-1 3.8-.5 8.3 3.4 13.4 0 0-.4 0-1 .1 5 1.8 8.5 4.1 9.1 6.9 0 0-5.8 1.2-11.7 1.2s-29.1.6-30.3 4.1c-1.2 3.5 11.7 5.2 16.3 5.2s0-4.1 11.7-3.5c11.7.6 18.1-9.3 21.6.6s9.9 19.2 1.2 17.5c-8.7-1.7-20.4-4.1-18.1-1.7 2.3 2.3-17.5 2.9-36.1-9.9-.4-.3-.9-.6-1.3-.9l-.5.3s5.2 10.5 72.9 26.8h-.4c5.7 1.5 9.9 3.2 9.7 4.7-.6 4.7-32.1-3.5-32.1-3.5s3.5 2.9 9.3 4.7c5.8 1.7 22.7 4.7 18.1 5.2-4.7.6-47.8-9.3-61.2-6.4-12.6 2.7-23.7 6.5-30.8 5.5-2.4 1.1-12.2 6.2-11.2 10.8 1.1 4.9 8.9 12.5 84.4 20.2 18 .3 33.9.8 33.9.8-27.2-7-72.9-9.3-65.3-14.6 7.6-5.2 49.5 4.1 49.5 4.1-21-8.2-49.5-12.8-53.6-12.8-4.1 0-12.2-1.2-12.2-1.2 11.1-8.7 49 2.3 49 2.3-14-7.6-36.1-7.6-46.1-7-9.9.6-12.2-1.7-12.2-1.7 27.4-9.9 60 2.9 68.8 8.2 8.7 5.2 14 3.5 23.3 1.2s54.8 21.6 54.8 21.6 29.7 7 33.8 13.4c4.1 6.4-4.1 5.8-10.1 4.9-6-1 3.7 2.7.8 6.2s-15.7 4.1-11.7 4.1c4.1 0 16.3 1.7 15.2 5.2s-18.7 0-21.6 2.3-1.2 2.3-4.1 5.8c-2.9 3.5-6.4 3.5-11.7 4.1-5.2.6-21.6 2.9-50.1 7.6-15.6 2.5-28.1 3.4-36.2 3.6.1.7.4 1.5 1.2 2.3 2.7 2.7 12.2-2.9 27.4-3.5 15.2-.6 29.3-1.6 36.7-3.1 7.4-1.6 23.7-3.9 23.7-3.9s-6.2 6.4-2.1 15.2c4.1 8.7 7.6 14 11.1 11.7s11.1-13.4 16.3-17.5c5.2-4.1 14-15.7 15.7-18.7 0 0 15.7-.6 14 1.7s-8.7 14-7 25.6c1.7 11.7 9.9 23.9 13.4 29.1s4.7 7.6 7.6 4.7 2.3-14.6 7.6-20.4c5.2-5.8 8.2-32.6 13.4-40.8 0 0 4 3.4 7.1 5.9-.3-6.6-.1-11.9 1.1-14.1 4.1-7.6 1.7-12.2 9.9-15.7 2.1-.9 4.1-1.9 6-2.9-24.3-29.5-85.1-99-152.2-141.7z"/><radialGradient id="SVGID_16_" cx="319.21" cy="357.68" r="148.36" gradientUnits="userSpaceOnUse"><stop offset="0" stop-color="#c4e3dd"/><stop offset=".37" stop-color="#009982"/><stop offset=".77" stop-color="#007973"/><stop offset=".99" stop-color="#009982"/></radialGradient><path fill="url(#SVGID_16_)" d="M456.5 273c2.3-.6 11.7-2.3 11.7-2.3-44.9 20.4-58.9 36.1-61.8 36.7-2.9.6.6-2.9 2.3-4.7 1.7-1.7 0-4.1 0-4.1-15.7 9.3-36.7 35-36.7 35 2.5-9.6 9.3-20.9 14.2-28.2 8.2-14.6 21-36.8 29.5-47.5 12.2-15.3 21.9-29.7 19.3-35.3l-.6 1.5c-16.3 38.5-33.8 40.8-33.8 40.8s-5.2 8.2-8.2 7.6c-2.9-.6 7-18.1 7-18.1s-9.9 16.3-14.6 15.2c-3.4-.9 2-10.3 5.1-15.2-2.6 3.8-7.2 9.3-8 3.5-1.2-8.2 16.3-16.3 18.7-17.5s1.2 5.8 6.4 1.7 13.4-7.6 17.5-10.5c4.1-2.9 2.9-6.4.6-5.8-59.3 14.8-80.4 97.9-82.2 103.2-1.7 5.2-5.2 4.7-5.2 4.7 10.5-54.2 49.5-103.8 49.5-103.8-26.8 21.6-47.2 61.8-55.4 83.4-8.2 21.6-2.9 30.9-4.7 42-1.7 11.1-8.7 50.7-11.1 12.8-.6-9.7 1-23.3 3.7-38.1.5-10.4 1.7-36.4 2.1-40.6.6-5.2 3.5-34.4 4.1-39.1.3-2.2 1.5-6.3 3.1-10.7-.9-1.7-2.1-3.1-4.3-1.5-7 5.2-7.6 2.3-12.8 1.7-5.2-.6-1.7 25.6-7 16.3-2.7-4.8-3.1-15.5-2.8-24.9-2.1 3.9-3.6 6.8-3.6 6.8s-25.3-11.7-42.7-11.9c-3 17.6-13.8 31.8-17.9 30-2.1-1-3.9-4.9-5.4-9.5-.5 4.8.3 10 1.3 15.8 2.9 2.9 5.1 7.4 5.3 14 .6 20.4-14.8 16.3-18.5 16.9-2.1.3-7-.5-10.7-5.9-.1 1.1-.1 2.3 0 3.5l-48.8 12.3C228.2 346.1 289 415.6 313.2 445c5.4-2.9 10-6 13.9-8.2 5.2-2.9 13.4-10.5 21.6-11.1 8.2-.6 17.5-6.4 18.1-.6.6 5.8.6 8.2 2.3 12.8 1.7 4.7 0 8.7 1.7 12.8 1.2 2.7.8 6.2-.3 8.9 11.6 3.3 26.9 8.7 30.6 9.2 5.2.6 29.7 5.8 36.1 5.8s11.7 1.7 9.3-6.4c-1.9-6.6-16.5-24-40.1-35 2.1 3.3 5.1 8.2 5.1 11.1 0 4.1-13.4-4.1-13.4-4.1s5.2 6.4 7.6 9.9-.6 4.1-5.8 1.7c-5.2-2.3 1.2 2.9-1.7 2.9s-2.3 1.7 2.9 7c5.2 5.2-5.2 0-9.3-2.9-4.1-2.9-.6-5.2-.6-5.2-5.8-4.1 3.5-4.1 3.5-4.1-8.2-1.7-7-7.6-7-10.5 0-1.8 3-1.2 5.4-.4-2.8-1.3-5.1-3-6-4.8-1.2-2.3 1.7-4.1 7-2.9 5.2 1.2-2.3-2.9-5.2-4.1-2.9-1.2-9.9.6-12.8-4.1-2.9-4.7-2.3-.6-8.7-4.7s0-7 2.9-9.3c1.1-.9 1.9-2.3 2.5-3.9-9.1 3.5-18.8 8.4-28.8 14.9 0 0 19.8-16.9 23.9-19.2 4.1-2.3-5.2-1.7-5.2-1.7s3.4-4 7.6-8.9l-.6.1c35-61.8 102-113.7 102-113.7-69.4 37.9-116.6 125.9-116.6 125.9l7-14.6c29.1-55.4 76.4-93.9 76.4-93.9-46.1 33.2-75.2 85.1-75.2 85.1l1.2-4.1c42.6-83.4 116.6-105.5 118.9-109 2.3-3.1-29.2 7.9-26.9 7.3z"/><g><radialGradient id="SVGID_17_" cx="289.79" cy="200.19" r="225.42" gradientUnits="userSpaceOnUse"><stop offset="0" stop-color="#c4e3dd"/><stop offset=".37" stop-color="#009982"/><stop offset=".77" stop-color="#007973"/></radialGradient><path fill="url(#SVGID_17_)" d="M301.1 397.2c.7-3 1.6-5.7 2.6-8.1l-4.4-5 5.2-36.7s2.9-30.3 1.2-51.3c-1.7-21-4.7-38.5-5-39.9-.3-1.5-4.7-55.4-5-59.5-.3-4.1-2.9-36.7-5.2-45.5 0 0-2.9-35.3-8.5-41.4 0 0-2-11.1-5.5-8.7-3.5 2.3-2.6 9.9-3.2 11.4-.6 1.5-2 7.3-2.6 8.2-.6.9-.9 7.3-.6 10.5.3 3.2 1.5 18.9.3 25.4-1.2 6.4-2.9 8.2-3.8 14.9 0 0-4.5 9.3-3.7 12.5 0 0-1 5.5-2.1 7 0 0-6.1 2.3-5.8 15.2l-1.2 6.1s-4.4 2-2.6 8.2v9s-1.8 3.7-2 9c-.2 5.3-.6 9-1.5 9.9-.9.9-2 4.1-4.1 9-2 5-2.9 9-2.9 9s-5.5 19.5-18.4 27.1c-12.8 7.6-9.9 19.2-9.9 19.2l-4.7 149.2s5.2-1.2 10.5-5.8c0 0 1.5-.9 2.9-1.2 1.5-.3 6.7-4.1 7.9-5.2 1.2-1.2 9.9-5.8 13.4-4.4.3.1.9.3 1.6.6 8-5.3 19-12.3 26.1-16 12.3-6.5 22.8 0 31-32.7z"/><linearGradient id="SVGID_18_" x1="244.09" x2="327.87" y1="421.56" y2="421.56" gradientUnits="userSpaceOnUse"><stop offset=".32" stop-color="#941c81"/><stop offset=".71" stop-color="#f08cb9"/><stop offset="1" stop-color="#f3a6c9"/></linearGradient><path fill="url(#SVGID_18_)" d="M312.4 399l-8.7-9.9c-1 2.5-1.9 5.2-2.6 8.1-8.2 32.6-18.7 26.2-30.9 32.6-7.1 3.7-18.1 10.7-26.1 16 7.1 2.2 30.7 8.2 30.7 8.2l26.5-12 26.5-20.7-1.2-17.8-14.2-4.5z"/><linearGradient id="SVGID_19_" x1="250.48" x2="287.79" y1="357.17" y2="319.28" gradientUnits="userSpaceOnUse"><stop offset=".01" stop-color="#442683"/><stop offset="1" stop-color="#b81982"/></linearGradient><path fill="url(#SVGID_19_)" d="M305.1 362.8c0-3.3-.2-9.3-.5-17-2.4 0-4.1-.7-4.8-2.3-3.5-8.2-19.2-26.2-23.9-34.4-4-6.9-5.4-24.8-15-31.1-.2.3-.4.5-.7.8-5.8 5.8-25.1 17.5-29.7 23.9 0 0-2-.1-4.9.4 2.1 9.4 5.2 22.3 7.8 25.9 4.1 5.8 19.8 27.4 22.7 29.7 2.9 2.3.6 4.1 1.7 7s14.6 20.4 15.2 16.3c.6-4.1-1.2-15.2 2.9-9.3 4.1 5.8 7.6 7.6 6.4 11.7-.7 2.4-1.4 8.4-3.4 15.1l9.2-1.4c0-.7.1-1.4.1-2.1 0-19.2 16.9-13.9 16.9-33.2z"/><linearGradient id="SVGID_20_" x1="235.02" x2="292.15" y1="458.57" y2="297.09" gradientUnits="userSpaceOnUse"><stop offset=".01" stop-color="#442683"/><stop offset="1" stop-color="#b81982"/></linearGradient><path fill="url(#SVGID_20_)" d="M272.5 413.5c-7.6 11.1-22.7 19.8-23.3 10.5-.6-9.3 1.7-26.2-3.5-23.9-5.2 2.3-11.7 8.7-11.1 18.1.6 9.3-1.7 13.4-8.2 14-5.8.5-20-.4-22.8 27.1 9.8-4.7 58.1-25 61.9-27.1 3.9-2.2 21.4-15.9 22.7-34l-9.2 1.4c-1.4 4.5-3.4 9.5-6.5 13.9z"/><linearGradient id="SVGID_21_" x1="309.4" x2="159.59" y1="360.82" y2="393.46" gradientUnits="userSpaceOnUse"><stop offset=".32" stop-color="#941c81"/><stop offset=".71" stop-color="#f08cb9"/><stop offset="1" stop-color="#f3a6c9"/></linearGradient><path fill="url(#SVGID_21_)" d="M226.4 432.2c6.4-.6 8.7-4.7 8.2-14-.6-9.3 5.8-15.7 11.1-18.1 5.2-2.3 2.9 14.6 3.5 23.9.6 9.3 15.7.6 23.3-10.5 7.6-11.1 8.7-25.1 9.9-29.1 1.2-4.1-2.3-5.8-6.4-11.7-4.1-5.8-2.3 5.2-2.9 9.3-.6 4.1-14-13.4-15.2-16.3s1.2-4.7-1.7-7-18.7-23.9-22.7-29.7c-2.5-3.6-5.7-16.5-7.8-25.9-6.3.9-16.8 4.2-19.6 15.4-4.1 16.3-13.4 37.9-14.6 43.1-1.2 5.2-2.9 35-2.9 38.5s4.1 10.5 1.7 16.3c-2.3 5.8-1.2 14.6 2.9 22.7s6.4 22.7 8.7 21c.2-.1.8-.4 1.6-.9 2.9-27.4 17.2-26.5 22.9-27z"/><linearGradient id="SVGID_22_" x1="317.22" x2="240.27" y1="275.86" y2="274.11" gradientUnits="userSpaceOnUse"><stop offset="0" stop-color="#af1280"/><stop offset=".4" stop-color="#e6007e"/><stop offset=".71" stop-color="#f08cb9"/><stop offset="1" stop-color="#f3a6c9"/></linearGradient><path fill="url(#SVGID_22_)" d="M276 309.2c4.7 8.2 20.4 26.2 23.9 34.4.7 1.6 2.4 2.3 4.8 2.3-1.5-37.4-6.4-115.2-14.1-120-9.3-5.8-15.2-25.6-19.8-20.4-4.7 5.2-8.7 23.9-8.7 26.8 0 2.9-14.6 23.3-9.9 30.9 4.4 7.2 13.1 9.7 8.9 15 9.5 6.2 10.9 24.1 14.9 31z"/><radialGradient id="SVGID_23_" cx="173.98" cy="431.61" r="109.72" gradientUnits="userSpaceOnUse"><stop offset="0" stop-color="#c4e3dd"/><stop offset=".37" stop-color="#009982"/><stop offset=".77" stop-color="#007973"/></radialGradient><path fill="url(#SVGID_23_)" d="M99.9 313.3c2.9 10.5-4.7 5.2 2.3 17.5 0 0 2.9 9.7 2.3 14-.6 4.3 5.8 11.7 8.2 14.6 2.3 2.9 3.5 21.6 7 22.7 3.5 1.2 12.8 4.7 14 8.7 1.2 4.1 15.7 19.2 14 21.6s.6 8.7 4.7 11.7c4.1 2.9 5.8 2.3 7.6 4.1s5.2 7 5.2 7 4.7 2.3 7.6 5.2c2.9 2.9 4.7 5.2 4.7 7 0 1.7 1.2 4.1 4.7 8.7s4.7 9.3 4.7 9.3 9.3 1.2 11.1-.6c1.7-1.7 4.1-7 .6-12.8-3.5-5.8-4.1-9.9-4.7-12.8s-6.4-11.7-7-14.6c-.6-2.9 5.8-7 3.5-14.6s-3.5-28-1.7-36.1c1.7-8.2 4.1-14 5.8-22.2 1.7-8.2 5.2-15.7 6.4-18.7 1.2-2.9 7-14 11.1-16.3a9 9 0 0 0 4.7-9.3c-.6-2.9-.6-12.8-8.2-12.2-7.7.6-108.6 18.1-108.6 18.1z"/><linearGradient id="SVGID_24_" x1="159.63" x2="189.36" y1="340.76" y2="419.45" gradientUnits="userSpaceOnUse"><stop offset="0" stop-color="#af1280"/><stop offset=".4" stop-color="#e6007e"/><stop offset=".71" stop-color="#f08cb9"/><stop offset="1" stop-color="#f3a6c9"/></linearGradient><path fill="url(#SVGID_24_)" d="M194.9 313.6c-2.4-.3-4.8-.7-7.1-1-9 1.3-31.9.6-41.8-4.6-11.1-5.8-31.5 4.7-35.6 5.8-4.1 1.2 0 22.7 5.8 29.7s9.3 20.4 12.8 29.1c3.5 8.7 16.3 29.1 25.1 32.1s8.7 12.2 9.9 16.9 4.7 9.9 9.9 9.9 9.9-9.3 8.7-12.8-4.9-10.7-1.2-16.3-2.3-12.2-2.9-18.1c-.6-5.8 1.2-15.2.6-22.7s1.2-13.4 3.5-15.2c2.3-1.7 3.5-7.6 4.7-14 1.2-6.4-1.7-5.2-1.7-11.1 0-2.8 4.4-5.6 9.3-7.7z"/><linearGradient id="SVGID_25_" x1="148.8" x2="180.86" y1="297.27" y2="239.56" gradientUnits="userSpaceOnUse"><stop offset="0" stop-color="#af1280"/><stop offset=".4" stop-color="#e6007e"/><stop offset=".71" stop-color="#f08cb9"/><stop offset="1" stop-color="#f3a6c9"/></linearGradient><path fill="url(#SVGID_25_)" d="M207.8 310.4c5.2 0 1.7-9.3 1.7-9.3s-28-30.3-31.5-39.6-15.7-6.4-29.7-14-18.1-5.8-30.9-5.8-6.4 10.5-3.5 16.3c2.9 5.8 9.3 15.2 10.5 29.7 1.2 14.6 65.9 24.5 65.9 24.5-.6.2-1.5.4-2.5.5 2.4.4 4.7.7 7.1 1 4.9-2.1 10.3-3.3 12.9-3.3z"/><linearGradient id="SVGID_26_" x1="122.59" x2="125.51" y1="211.72" y2="249.02" gradientUnits="userSpaceOnUse"><stop offset=".01" stop-color="#3e52a0"/><stop offset=".49" stop-color="#5b89c7"/><stop offset="1" stop-color="#bca3ce"/></linearGradient><path fill="url(#SVGID_26_)" d="M88.9 211.8c3.5 6.6-12.8 7.6 1.2 16.9 14 9.3 25.6 15.2 32.1 11.1 6.4-4.1 11.1.6 15.7 2.9 4.7 2.3 28 8.2 26.2-.6-1.7-8.7-14.6-20.4-19.8-20.4-5.2 0-21.6-22.2-36.1-21.6s-24 3-19.3 11.7z"/><radialGradient id="SVGID_27_" cx="97.03" cy="237.48" r="87.19" gradientUnits="userSpaceOnUse"><stop offset="0" stop-color="#c4e3dd"/><stop offset=".37" stop-color="#009982"/><stop offset=".77" stop-color="#007973"/></radialGradient><path fill="url(#SVGID_27_)" d="M38.2 148.9c-5.4-.5-5.2 23.3-1.7 28 3.5 4.7 1.7 12.2 4.1 16.3 2.3 4.1 5.8 14.6 15.7 23.3 9.9 8.7 13.4 12.2 14.6 16.3 1.2 4.1 5.2 13.4 11.7 14.6 6.4 1.2 4.7 8.7 6.4 11.1 1.7 2.3 3.5 9.9 4.1 13.4.6 3.5 9.1 13.2 7.8 17.7-1.4 4.5-6 6.2-1.9 16.1 4.1 9.9 25.1-.6 25.1-.6l-1.7-19.2-10.5-39.6 3.5-7s12.8-5.8 8.2-8.7c-4.7-2.9-11.1 1.7-12.2 5.2s-16.9-4.1-21-7c-4.1-2.9-9.9-14-.6-18.7 9.3-4.7 21.6-10.5 29.1-6.4 7.6 4.1 17.5 14.6 15.2 19.8s14-8.2 25.1 9.3 11.7 23.3 15.2 20.4c3.5-2.9 9.9-6.4-30.3-42.6s-54.8-37.9-56.5-38.5c-2.2-.5-9.8-19.7-49.4-23.2z"/><path d="M53.9 146.6c7 .8 1.6 1.9 4.7 4.3 3.1 2.3 10.5 2.7 14.8 5.8 4.3 3.1 6.6 1.9 14.8 8.2s39.2 28.4 47.4 35.8c8.2 7.4 37.7 38.9 40 42l10.1 13.6c-1.6.8 1.6 4.7 5.1 8.9 3.5 4.3 5.1 5.8 6.2 5.1s4.7 5.8 6.6 8.5c1.9 2.7 7.4 10.1 10.1 14 2.7 3.9 4.3 9.3 4.3 9.3 3.5.8 3.1-1.2 3.1-3.5s-1.9-3.1-.8-5.1c1.2-1.9 7-5.1 7.4-2.7s4.3-.4 4.3-2.3-.8-6.6.4-7c1.2-.4 3.9-5.4 3.9-7.8s3.1-5.8 3.1-8.2 2.3-5.8 4.3-6.6c1.9-.8 1.6-7.8 1.6-9.7s3.1-3.9 3.9-5.4c.8-1.6.4-7 1.2-8.9.8-1.9 1.2-4.3-.4-6.2-1.6-1.9-.8-3.1.4-4.3 1.2-1.2 0-8.2.8-10.1.8-1.9 3.5-5.4 3.9-9.3.4-3.9 1.2-9.7 3.5-11.7s3.9-6.2 4.7-9.3c.8-3.1 1.2-8.9 2.7-11.3s1.6-2.7 1.6-5.1 1.9-10.9 2.7-13.2c.8-2.3 1.6-10.5 1.6-13.2 0-2.7-3.1-15.9-1.2-17.5 1.9-1.6 3.1-3.1.8-5.1-2.3-1.9-.8-5.1.8-7 1.6-1.9-.4-8.9 2.7-11.7 3.1-2.7 3.1-.4 4.7 1.9s3.9 7.8 5.1 12.4 5.1 16.3 5.4 22.9c.4 6.6 5.1 36.1 5.4 46.2.4 10.1 5.4 56 5.8 62.6.4 6.6 3.9 36.9 5.4 54.4s.8 65.7 1.2 68c.4 2.3.8 4.3-1.6 5.1-2.3.8-.4 2.3 1.9 5.8s2.3.8 2.7-1.6 3.1-.8 3.1-.8c17.5-17.5 74.2-47.4 77.3-46.2 3.1 1.2-3.1 3.5-3.1 3.5-61.4 29.1-73.1 44.3-73.1 44.3 3.1 1.9 1.9 6.6 2.3 8.2.4 1.6 5.8.4 5.8 2.7 0 2.3-5.1 3.1-5.1 5.8 0 2.7 0 0 7 3.5s4.7 4.3 6.6 8.2c1.9 3.9 6.6 4.3 7.4 7s-.4 6.6-1.6 10.9c-1.2 4.3-2.3 4.3-5.1 5.8-2.7 1.6-8.9 5.8-11.7 8.5s-5.1 3.5-7.8 3.5-6.6 2.7-9.7 5.1c-3.1 2.3-17.5 13.6-18.7 15.9s-7 3.5-10.5 3.5-12 0-12.4 1.6c-.4 1.6 12.4 1.2 12.4 3.1 0 1.9-10.1 1.2-13.2 1.2-3.1 0-8.5 0-7.4-2.7 1.2-2.7.8-2.7-3.1-3.1-3.9-.4-1.2-1.6 0-4.3s8.9-1.9 11.7-3.5c2.7-1.6-5.8-2.3-13.2-1.9-7.4.4-5.8-1.2-5.4-3.5.4-2.3-1.6-1.9-4.3-1.9s-1.9-5.8-1.9-5.8c-2.7 0-7 2.7-8.2 4.3s-5.1 5.1-8.6 5.4c-3.5.4-5.1 4.3-5.1 4.3 6.6.8 21-1.2 21-1.2-4.7 3.5-21.8 5.1-24.9 4.7-3.1-.4-6.2 0-8.6 1.9-2.3 1.9-4.3 1.6-7.4 1.9-3.1.4-7.8.4-10.5.4s-11.7-.8-9.3 1.6-3.5 1.9-5.8 1.6c-2.3-.4-3.5 1.9-7 3.9-3.5 1.9-7.4 1.9-9.3 1.9-1.9 0 .8-1.6 2.3-2.7 1.6-1.2 5.1-2.7 6.6-4.3 1.6-1.6 5.1-2.7 8.2-3.9 3.1-1.2 12.4-1.9 12.4-1.9s.4-3.1.4-4.7-3.5-4.3-5.4-5.1c-1.9-.8-2.7-6.2-2.7-8.5s-4.7-5.4-5.8-7c-1.2-1.6-4.3 1.2-5.8 1.2-1.6 0-1.6-4.7-1.2-5.8.4-1.2-2.7-2.7-3.1-4.7s-4.7-.4-7-.4-3.1-1.6-3.5-3.5c-.4-1.9-.8-3.1-3.5-3.9-2.7-.8-6.2-3.9-6.2-5.4s3.1-2.3 4.7-3.9 0-1.9-2.3-3.1c-2.3-1.2-2.7-3.1-5.4-5.1-2.7-1.9-3.5-6.2-5.1-7.8-1.6-1.6-3.1-5.4-3.5-7-.4-1.6-1.6-3.5-3.9-2.7-2.3.8-4.7-1.2-6.2-1.6-1.6-.4 0-3.9-.8-5.8s-1.9-5.1-4.3-6.6c-2.3-1.6-1.9-7.8-1.6-9.7.4-1.9-1.6-5.1-3.5-6.6s-.8-5.1-3.5-7.4-1.2-8.5-.8-10.1c.4-1.6-2.3-4.3-3.5-5.8-1.2-1.6-1.6-6.6.4-7 1.9-.4 2.3-1.2 1.9-3.9-.4-2.7-2.3-2.3-3.9-2.3s-1.6-2.7-1.2-4.3c.4-1.6-1.9-1.9-3.1-2.7-1.2-.8 1.2-3.9 2.3-4.7 1.2-.8.4-3.1-.8-3.9-1.2-.8-.8-1.9-.8-1.9 3.1-1.9.8-5.1-.4-6.2s1.6-1.6 2.7-3.1c1.2-1.6 2.7-3.5 4.3-3.5 1.6 0 9.3 1.9 9.3-.4s-5.1-3.9-9.3-3.5c-4.3.4-4.3-2.3-5.4-4.3-1.2-1.9-3.5-8.2-5.1-9.7-1.6-1.6-1.2-5.1-.4-6.6.8-1.6-3.1-3.1-5.4-5.4-2.3-2.3-.8-5.4-.8-7.4s-4.3-1.6-6.6-2.3-3.1-5.8-4.7-7.8c-1.6-1.9-5.1-7-6.6-9.7-1.6-2.7-1.2-5.1-2.3-7.4-1.2-2.3-3.9-1.9-6.2-4.3-2.3-2.3-4.7-5.4-7.8-9.3-3.1-3.9-7-10.5-8.9-12.4-1.9-1.9-3.5-9.3-3.5-12.4 0-3.1-2.7-6.6-4.7-8.2-1.9-1.6 0-5.4-.8-8.5-.8-3.1-1.6-12 0-14 1.6-1.9 2.7-5.4 2.7-7 0-1.6 1.2-1.9 3.5-3.1 4.6-1.7 8.9-.1 15.9.7zm-12.4 22.9c-1.9 0-3.5 1-3.5 2.3 0 1.3 1.6 2.3 3.5 2.3s3.5-1 3.5-2.3c0-1.3-1.6-2.3-3.5-2.3zm1.1-11.3c-1.1 0-1.9.7-1.9 1.6s.9 1.6 1.9 1.6c1.1 0 1.9-.7 1.9-1.6s-.8-1.6-1.9-1.6zm2.7-6.6c-1.1 0-1.9.7-1.9 1.6s.9 1.6 1.9 1.6c1.1 0 1.9-.7 1.9-1.6s-.8-1.6-1.9-1.6zm6.3 17.1c-.8 1.6-1.2 4.3.8 5.4 1.9 1.2 2.3 2.7 4.7 1.9 2.3-.8 3.5-2.3 2.7-3.9-.8-1.6-2.7-4.3-4.7-4.3s-2.4-.3-3.5.9zm10.5-8.5s-.8.8-1.2 2.7c-.4 1.9-3.1.8-1.2 3.1 1.9 2.3 3.9 3.5 5.8 1.9s5.1-1.2 3.5-2.7c-1.5-1.5-4.6-5-6.9-5zm8.9 1.1c-1.1.6-1.9 1.2 2.3 3.5 4.3 2.3 5.1 2.3 4.3.4-.8-1.9-4.7-5-6.6-3.9zm43.1 36.9c1.2.8 3.1 2.7 7.4 5.1 4.3 2.3 4.3 1.6 4.3-.4 0-1.9-4.7-4.3-7-6.6s-5.7-3.4-6.2-1.9c-.4 1.1.4 3.1 1.5 3.8zm24.9 14.4c1.9 1.9 2.7 4.3 4.7 3.5 1.9-.8-3.9-7.4-6.6-9.7-2.7-2.3-5.1-3.1-5.1-1.6 0 2.8 5.1 5.9 7 7.8zm-26.8-8.1c-2.1.8-1.2 1.6-2.7 2.3-1.6.8-2.3 1.9-.4 3.5s4.3 3.9 5.8 5.1c1.6 1.2 3.9 3.5 6.6 2.3 2.7-1.2 3.9-1.6 3.5-3.9-.4-2.3 0-3.9-2.3-5.8-2.4-2-6.6-5.1-10.5-3.5zm55.2 34.9c2.7 4.3 5.1 6.6 6.6 5.8 1.6-.8-3.5-7.4-8.2-12-4.7-4.7-6.2-2.3-6.2-2.3-.4 2.3 5.1 4.3 7.8 8.5zm-12.5.4c3.5 3.9 3.9.8 4.7-1.2.8-1.9-3.5-4.7-5.8-7.8-2.3-3.1-4.3-3.9-5.4-2.7s-1.4 2.9-.8 4.3c1.5 3.5 3.8 3.5 7.3 7.4zm-61-16.3c1.9.4 3.9 5.4 6.2 4.7 2.3-.8 2.3.4 3.5 1.9s3.1 1.2 5.1.8 1.9-3.9.8-5.1-.8-3.5-.4-5.8-.4-4.3-2.7-4.3c-2.3 0-2.7-.4-4.7-2.3-1.9-1.9-7.8-.4-7.8 1.6 0 1.9-1.7.7-3.1 1.6-4.7 2.6 1.2 6.5 3.1 6.9zm-35-31.1c-.2-2.1-1.9-5.1-3.9-4.7-1.9.4-4.7 1.2-3.1 3.5s.4 4.3 2.7 4.3 4.7.4 4.3-3.1zm-13.2-1.2c-1.3 0-2.3 1-2.3 2.3 0 1.3 1 2.3 2.3 2.3 1.3 0 2.3-1 2.3-2.3.1-1.2-1-2.3-2.3-2.3zm20.2 23.4c2.3 0 1.2-1.9.8-3.5-.4-1.6-2.7-3.8-3.9-2.3-1.5 1.9.8 5.8 3.1 5.8zm-4.6 1.1c1.9-1.2-1.6-2.3-3.1-3.9-1.6-1.6-4.1.9-2.3 1.9 2.7 1.6 3.4 3.2 5.4 2zm11.6 7.8c-1.9 0-2.3-2.7-4.3-2.7-1.9 0-.8 3.5.4 4.3 3.9 2.7 5.9-1.6 3.9-1.6zm22.6 16.7c2.7-.4.8-2.3-.4-4.3s-2.7-2.7-5.8-2.7c-3.1 0-3.9 1.7-2.3 3.9 4.2 5.8 5.8 3.5 8.5 3.1zm-10.9 2.7c3.1-.4.8-2.7-.8-2.3-1.6.4-2.7-3.5-4.7-3.5-1.9 0-4.6.8-3.1 2.7 2.8 3.5 5.5 3.5 8.6 3.1zm7.8 16.7c1.6.8 2.3-.4 2.7-3.5.4-3.1-3.3-5.1-3.9-3.5-.8 2.4-.4 6.3 1.2 7zm11.2-5c-1.7.3-1.6 2.7.8 4.3 2.3 1.6 4.7.8 4.7-1.2 0-1.9.4-4.3-5.5-3.1zm16-21.4s-3.5.4-1.6 1.9c2 1.6 2.3.8 1.6-1.9zM72.5 185c-.9-.7-3.1 1.9-1.2 2.7 2 .8 4-.7 1.2-2.7zm63 48.2c-1.7.2-3.9 1.9-.4 4.3 3.5 2.3 7.4 5.1 9.7 5.8 2.3.8 5.1 0 3.9-3.1s-7.8-7.8-13.2-7zm-39.6 28.4s-3.5-.4-1.6 2.3c1.9 2.7 2.3 1.9 3.1.4.8-1.5.4-3.1-1.5-2.7zm13.2 7s-3.1-.4-3.5 1.6c-.4 1.9-.8 3.5 1.9 3.9 2.7.4 3.9.4 3.9-1.9s-.8-3.6-2.3-3.6zm-9.7 2.7s-3.1 0-3.1 1.6.8 3.1 2.3 3.1c1.6 0 2.7.4 2.7-1.6 0-1.9-.4-3.1-1.9-3.1zm17.8 15.2s-2.3 1.2-1.9 2.7c.4 1.6 1.9 1.6 3.9 1.2 1.9-.4 2.7-.8 2.3-2.3-.4-1.6-1.9-1.6-4.3-1.6zm4.7-31.5c1.4 0-2.3 2.7 0 4.7 2.3 1.9 3.9 3.1 7.8 3.9 3.9.8 18.3 4.7 24.9 7.4 6.6 2.7 17.1 7.4 17.9 6.2s-5.1-5.8-7-8.2c-1.9-2.3-7.4-8.9-9.3-11.7-1.9-2.7-1.9-4.3-5.4-6.2-3.5-1.9-15.5-8.5-19.8-8.5s-2.7 1.2-4.3 1.6c-1.6.4-7.8-.4-6.6 1.9 1.2 2.3.8 3.9 4.3 3.9s8.2-.8 9.7.8c1.6 1.6 4.7.4 7.4 2.3s-.8 1.2-5.1 1.2-4.7-3.1-7-2.7c-2.3.4-11.3.8-12.4-.4-.1-.1.2 3.8 4.9 3.8zm56.7 26.8c1.2 1.6 9.3 10.1 11.7 12.4s4.7 6.2 7 6.6c2.3.4 4.3 3.9 7 7.4s3.5 0 4.3-1.6c.8-1.6-3.5-4.7-4.7-6.2-1.2-1.6-6.2-7.4-8.5-7.4s-12-11.3-14.4-13.6-10.5-13.6-13.2-16.3c-2.7-2.7-6.4-8-8.2-7.8-2.7.5 17.9 24.9 19 26.5zm-50.1 5.4c-1.4 0 0 3.9 2.7 3.9s21.4 6.2 28 7c6.6.8 19.4 5.1 25.3 7.4 5.8 2.3 10.1 4.3 12 4.7 1.9.4 7.4 3.1 3.5-1.9-3.9-5.1-3.9-5.1-6.6-5.4-2.7-.4-6.2-7.4-8.9-9.7-2.7-2.3-7.4-10.9-12.8-12.8-5.4-1.9-7.8-1.2-7.8 0s.8 4.7 3.5 4.7 5.4 1.6 7 3.9c1.6 2.3 5.4 6.6 5.4 6.6s-7-7-9.3-6.6-3.5 2.3-5.4.4c-1.9-1.9-4.7-4.7-8.2-3.9-3.5.8-9.3 2.3-12.4 1.9-3.2-.6-14-.2-16-.2zm10.5 37c3.5.8 9.7 3.1 17.1 5.8 7.4 2.7 13.6 2.3 16.3 2.7 2.7.4 8.2 1.6 9.3 3.9s3.1 1.6 5.1-.4c1.9-1.9 0-4.7-1.9-4.7s-11.7-3.5-16.3-3.9c-4.7-.4-20.2-5.8-24.1-7-3.9-1.2-9.4-.2-10.5.4-2 1.2 1.5 2.4 5 3.2zm-32.6-7c-3.1-.6-1.6 3.5-.4 3.9 1.1.3 4.2-3.2.4-3.9zm-.4 24.1c2.7 2.3 2.7-1.2 2.7-3.9s-2.3-3.1-2.3-3.1-3.1 4.6-.4 7zm7.4 13.9c-1.6-.1-1.6 3.9 0 3.9 1.5 0 4.2-3.5 0-3.9zm5-3.5c-2.6-1-.4 2.7 1.2 2.3 1.5-.3.7-1.5-1.2-2.3zm-4.7-5c-1.2-.2-1.6 2.7 0 2.7s2.8-2.3 0-2.7zm7.8 28c-1.4-1-2.7 3.5-.4 4.7 2.4 1.1 2.7-3.2.4-4.7zm73.1-44.3c-.4-1.2-1.2-1.9-2.7-1.2-1.6.8-3.9-1.2-3.5 1.2.4 2.3.8 6.6-.4 7.4-1.2.8 2.3 2.3 3.5 0s5.1-4.7 3.9-7l-.8-.4zm2.3-14c-2.3-.5-4.3-.8-4.7.8-.4 1.6-2.3 3.9 0 3.9s5.4 1.6 6.6 0c1.2-1.6.8-2.3 3.5-2.3s3.1 0 3.9-2.7c.8-2.7 2.7-4.3.4-4.3s-3.1-1.2-4.7.4-3.1 4.6-5 4.2zm17.1-5.8c.3-1.2-1.6-.4-2.3.8-.8 1.2-3.9 3.5-1.9 3.9 1.9.3 3.4-2 4.2-4.7zm.8-10.9c-.9-.9-3.5-2.3-3.5-.8 0 1.6.4 3.5 1.9 3.9 1.6.4 3.1-1.6 1.6-3.1zm-21 43.1c-1.9-.3-3.1 1.2-3.1 2.3s-3.9 1.9-1.9 3.5c1.9 1.6 3.5 2.3 4.3.8.7-1.5 3-6.2.7-6.6zM181 354.1c0 1.9 0 5.1 1.6 4.7 1.6-.4 2.3-1.6 2.3-3.9s0-5.4-1.9-5.4c-1.2-.1-2 2.6-2 4.6zm-69.6-36.6c-.7 1.4.4 3.5 2.3 4.7 1.9 1.2.4 2.7 1.2 4.3.8 1.6 5.1 1.6 6.6 1.6 0 0-1.6-2.7-.8-3.9.8-1.2 1.6-2.7-.8-3.5-2.3-.8-4.3.4-4.7-1.2-.3-1.6-3-3.5-3.8-2zm-10.5-20.2c-1.7 0-2.3 1.9-.8 3.1 1.6 1.2 3.1 1.9 3.5.4.4-1.5 0-3.5-2.7-3.5zm23.3 42c2.3 1.9 5.4.4 8.2-.8 2.7-1.2.8-2.7-1.2-3.1-1.9-.4-4.7-4.3-6.2-5.8-1.6-1.6-9.3 0-9.3 1.6s2 2.6 4.7 1.9c3.1-.8 1.5 4.3 3.8 6.2zm1.2 13.2c1.2 2.7 2.3 1.6 3.1 4.3.8 2.7 1.9 1.6 5.1-.4 3.1-1.9 12.4-1.9 12.4-1.9-7.8.8-11.3 4.3-13.6 6.6-2.3 2.3 0 5.8 0 5.8-.8 1.9 3.1 7 4.3 6.6 1.2-.4 8.9-4.3 10.5-5.4 1.6-1.2 5.8-1.9 7.8-1.9s5.4-1.6 7-2.7c1.6-1.2-7.4-1.2-7.4-1.2.4-1.2 5.8-2.7 9.7-2.7 3.9 0 .4-3.1-1.2-4.7s-10.1-7.8-14.8-8.2c-4.7-.4-16.3-3.1-19.4-3.1-3.1 0-7.8.6-8.2 1.9-.7 2.7 3.5 4.3 4.7 7zm47.4 2c-2.7 0-2.3-1.9-3.9-3.9-1.6-1.9-2.7 0-1.9 1.9.8 1.9 5.4 6.2 8.6 7 3.1.8 2.7-.4 3.1-2.3.3-2-3.2-2.7-5.9-2.7zm-30.7 27.9c.8 1.2 1.2 3.5 1.9 5.1.8 1.6 5.8-1.6 5.8-1.6s-3.1 1.9-3.9 4.3 6.2 7.8 6.2 7.8 1.9 4.3 4.3 3.5 10.1-8.2 14-12.4c3.9-4.3 3.1-7 5.1-8.2 1.9-1.2 1.9-4.7 1.6-6.2-.4-1.6.4-3.1.8-5.1.4-1.9-6.6-4.3-8.6-4.7s-3.1.8-4.7 2.3c-1.6 1.6-4.7.8-7 2.7-2.3 1.9-8.5 4.3-10.9 4.7-2.3.4-7.2.7-7.8 3.5-.3 2 2.4 3.2 3.2 4.3zm41.6-11.6c-1.3-.6-4.3-.4-4.3 2.3 0 2.7-1.6 4.7.8 4.3 2.3-.4 2.7-.8 3.5-1.9.8-1.2 1.5-3.9 0-4.7zm.4 12c-2.1 0-3.1 1.9-2.7 3.5.4 1.6.8 3.9 2.3 3.1 1.5-.7 2.3-6.6.4-6.6zm-2 28.8c.8 1.2 1.2-1.9 3.1-2.7 1.9-.8 2.3-3.9 1.6-5.4-.8-1.6-1.5 2.6-3.1 2.3-2.7-.4-2.3 4.6-1.6 5.8zm5.9 2.3c-1.1.3-2.7 2.3-1.9 3.9.8 1.6 2.3 2.3 2.7.4.3-1.9.7-4.7-.8-4.3zm-6.6 15.6c-.7 1 0 3.9.8 5.1s3.5 1.6 4.3 0 2.7-5.4 0-5.4c-2.8-.1-4.4-.9-5.1.3zm8.9 12.4c-4 1.2-.8 4.3-.8 5.4s1.6 4.3 3.1 3.1 1.2-2.7 1.6-3.9c.4-1.1 0-5.8-3.9-4.6zm-40.4-37.3c0-2.3-5.1.8-2.3 1.9 2.7 1.2 2.3-.3 2.3-1.9zm28.4-7.4c1.2-1.2 3.1-4.7 0-4.7s-1.9 3.1-3.1 3.5c-1.2.4-6.2 3.9-7.8 5.8-1.6 1.9-3.5 3.1-3.1 6.2.4 3.1.8 5.4 2.3 5.1 1.6-.4 5.4-3.1 5.4-3.1s-7 5.8-5.8 7.4 2.3 3.1 3.9 3.1 3.1.8 3.5 2.3-1.2 5.1.8 5.1c1.9 0 5.1-1.9 5.4-4.7s-1.2-1.6-1.6-4.7c-.4-3.1.8-8.2-.4-10.5-1.2-2.3-1.2-3.1.8-3.9 1.9-.8.4-3.1.4-3.1s-1.9-2.6-.7-3.8zm-26.9 20.2s-1.9 2.3-.8 3.9c1.2 1.6 1.9-.8 2.7 1.2.8 1.9 3.1 0 2.7-1.9-.3-2-3-4-4.6-3.2zm7-4.3s-1.9 1.9 0 3.1 2.7-.4 2.3-1.6-.7-2.2-2.3-1.5zm9.4 9.8c-1.4.2 0 1.6 1.2 3.5s1.2 3.1 2.3 2.7c1.1-.4 3.5-7-3.5-6.2zm-2.8 5c.2-1.2-4.3-.8-3.1.8 1.2 1.5 2.8 1.9 3.1-.8zm7 5.8s-2.7 1.9-.8 3.5c1.9 1.6 4.3 3.5 5.4 1.9s3.9-3.1 1.6-3.5c-2.3-.4-4.7 1.6-4.7-.4.1-1.8-.3-2.2-1.5-1.5zm8.2 14.4c-1.7.4-1.2 3.1.4 3.9 1.6.8 2.7 3.1 3.9 1.9s1.6-2.7.8-3.9-3.5-2.3-5.1-1.9zm7.8 12.5c-1.6-.3-1.9 2.7 0 3.5s1.9-3.2 0-3.5zm6.6-5.9c-1.6.8-1.9 2.3-1.2 4.7s5.8 1.9 5.8 0 .8-4.7-1.9-4.7h-2.7zM278.1 119c-2.3 0-3.9 2.3-3.1 4.3.8 1.9 3.9 3.5 4.3 1.2.4-2.4.8-5.5-1.2-5.5zm6.2-4.7c-2-2-4.3.8-3.1 3.1 1.2 2.3 3.5 4.3 3.9 1.9s.4-3.8-.8-5zm-4.6-11.3c-.3-1.2-2.7 0-1.9 1.6.7 1.5 2.7 1.9 1.9-1.6zm-7.4 16c-1.2-.4-3.9 1.2-3.1 3.5.8 2.3 3.5 3.1 3.9.4.4-2.8-.8-3.9-.8-3.9zm-2.3 28.7c-.4 4.3.4 4.7.8 2.3.4-2.3 1.2-3.9 3.9-3.5 2.7.4 1.9-5.4 1.2-7.4-.8-1.9-1.2 2.3-2.3 1.6-1.2-.8-.8-7.8-.4-10.1s-3.5-1.6-3.1 0c1.4 6.6.3 12.8-.1 17.1zm12-20.6c-1.7.2-2.3 3.1-1.9 6.2.4 3.1 1.2 7 1.2 8.5 0 1.6 3.1 12 3.1 12s2.7-4.7 1.9-7.8-1.6-3.5-1.6-8.2c0-4.5.4-11.1-2.7-10.7zm-1.5 35.4c0-3.5.8-5.8.8-8.9 0-3.1.8-7.4-1.9-6.6-2.7.8-3.9 5.1-3.5 7 .4 1.9-1.2 8.2-.4 10.5.8 2.3 1.9 7.4 1.9 7.4s.8-1.2 2.3-4.3c1.5-3.2.8-3.6.8-5.1zm-13.3 9.3s3.1 0 4.7-2.3.8-2.7-.4-3.9-3.9-1.5-4.3 0c-1.1 4.7 0 6.2 0 6.2zm-4.2 9.3c-.8 1.9 1.2 1.9 3.1 1.6 1.9-.4 1.9-2.7 1.2-4.3-.8-1.6-3.1-1.2-3.1-1.2-1.6.8-.4 2-1.2 3.9zm-8.2 22.6c0 2.7 3.1 0 4.7 0s-.8-2.7 1.2-3.1c1.9-.4 2.3-3.1.8-3.1-1.6 0-2.7-1.2-1.6-2.3 1.2-1.2.4-4.3.4-4.3-5.1 2.3-5.5 10.1-5.5 12.8zm19.4-27.2c-1.2.8-1.9-.4-1.6 4.7.4 5.1 0 7-1.6 7.8-1.6.8-3.1 3.1-1.6 4.7 1.6 1.6 4.7 3.9 5.4.4.8-3.5 1.9-3.1 1.9-5.4s.4-4.3 0-7 .8-7-2.3-5.8l-.2.6zm11.3-15.2c-1.2 0-1.2 4.3-1.6 5.8s-.4 5.4 2.7 5.1c3.2-.4.5-10.9-1.1-10.9zm-2.7 10.1c-1.6-.2-2.3 1.2-2.3 3.1s-2.7 5.4 0 8.9 3.9 1.6 4.3-3.1c.3-4.6.7-8.5-2-8.9zm7.8.4c-.4 1.5-1.9 1.2-1.9 3.1 0 1.9-1.2 4.7.4 6.6s4.3 7.8 6.2 4.7c0 0-2.3-14-2.3-17.5s-.4-9.3-1.6-9.7c-1.2-.4.3 8.5-.8 12.8zm-23 28c.4-1.9 0-6.2-1.6-6.2s-.4 1.9-.8 3.5-1.2 3.5-2.7 4.3c-1.6.8-1.6 3.1 0 3.9 1.6.7 4.4-2 5.1-5.5zm-14 19.8c3.5.4 1.9-1.9 1.9-3.9 0-1.9-1.6-3.5-2.7-2.3-3 3.1-2.7 5.8.8 6.2zm5.1 4.7c1.9 0 2.3-2.3 2.3-4.3s-2.3-1.2-2.3-1.2c-1.9 1.6-1.9 5.5 0 5.5zm13.2-15.2c-1.8-.7-2.3 3.1-3.5 3.5s-3.1 2.7-1.2 3.1c1.9.4 6.6 3.9 5.1 7 0 0-1.2-6.2-5.1-5.4-3.9.8-3.1 3.5-2.3 5.1.8 1.6-3.1 5.1-2.3 7.4.8 2.3 2.3 8.2 5.4 11.7 3.1 3.5 1.6 7.8 4.3 10.1 2.7 2.3 3.9 2.7 3.9-.8s1.2-8.9 1.2-8.9 1.9 2.3 1.9-5.1c0-7.4-.8-13.2-1.6-17.5-.7-4.3-3.8-9.4-5.8-10.2zm-18.3 30.7c1.6-1.9 2.3-7.1.8-7.4-1.9-.3-2.3 9.4-.8 7.4zm-1.9 2c1.2-2.3-1.6-10.1-1.6-10.1-2.3 8.5.4 12.4 1.6 10.1zm-8.2 19c1.6.8 3.5 1.9 5.1.8 1.6-1.2 0-3.9-1.6-4.7-1.6-.8-.7-6.4-1.6-4.7-1.1 2.4-3.4 7.8-1.9 8.6zm.4 14c-2-1.2-3.5 2.7-2.3 4.3 1.2 1.5 7.4-1.2 2.3-4.3zm6.2-5.8c-1.5-.5-3.1 3.1-1.9 3.9 1.2.7 5.4-2.8 1.9-3.9zm5.9 2.3c-1.6.5-3.5 3.9-3.5 5.1s-.4 3.1 1.2 3.5c1.6.4 2.3-1.9 3.1-3.1.8-1.2 3.1-2.3 1.2-3.9-2-1.6-.9-2-2-1.6zm1.5-20.6c2.2.4-4.7 1.6-4.7 3.5s-1.6 4.7 0 6.6 4.7 5.1 5.8 5.8c1.2.8 1.9 5.4 2.7 6.6.8 1.2 1.2 3.1 1.2 5.8 0 2.7.8 4.7 3.5 3.1s3.5 1.2 3.5 3.1 1.2 4.3 2.3 5.4 2.3 5.1 3.5 3.9.8-22.2 0-26.8-1.6-4.7-3.1-6.2c-1.6-1.6-2.7-1.9-2.3-4.3.4-2.3-4.3-7-5.4-10.5s-3.9-7.8-6.2-5.1c-2.3 2.9-6.6 7.9-.8 9.1zm25.7-48.6c-4.5-.9-3.9 3.9-3.1 6.2.8 2.3 1.9 5.1 1.2 8.9-.8 3.9 1.6 5.8 3.1 4.3 1.6-1.6 1.2-5.4 3.5-5.1 2.3.4 4.7 0 3.5-4.7s.4-9.7-1.6-11.7c-1.9-1.9-3.5-2.3-3.5 0s.8 13.2 0 14.8c0 0-1.6-1.2-1.6-3.5 0-2.2.4-8.8-1.5-9.2zm12.4 2c-.2-1.2-3.5 2.3-2.7 5.4.8 3.1-.4 8.9-.4 8.9s0 1.9 1.6 1.6c1.5-.4 2.7-10.1 1.5-15.9zm-3.5 42.7c1.2 1.8 2.3-19 .4-19s-3.1 5.1-1.9 8.2c1.1 3 0 8.5 1.5 10.8zm5.5-14c.3-2.3-3.1 11.3-2.7 13.2.4 1.9-.4 18.3 1.6 19.4 1.9 1.2 2.3-7.4 2.3-10.9-.1-3.4-1.6-18.2-1.2-21.7zm-16.8 12.1c-2.3 1.9-1.6 8.2-1.9 12.8-.4 4.7-.4 22.2-.4 25.3 0 3.1 1.6 12 1.6 16.3 0 4.3 3.5 4.7 3.5 7.8 0 3.1-.4 4.7-1.9 4.7s-.8-1.6 0-3.1 0-4.3-2.3-3.1 2.3 10.1 3.5 12.8c1.2 2.7 3.5 3.9 5.1 3.9s1.2 3.9.4 11.7c-.8 7.8 2.7 14 1.2 16.7-1.6 2.7-1.6 7.4-.4 8.5s4.7-1.6 7-5.4 0-6.2 1.6-10.5-.8-27.2-1.2-30.7c-.4-3.5-3.1-36.5-3.1-39.3 0-2.7-2.7-13.2-1.9-17.1.8-3.9-1.2-7.4-1.9-9.7-.8-2.3-.8-7-1.2-9.3-.4-2.3-3.6-4.3-5.1-3.9-2.9.7-.2 9.6-2.6 11.6zm21.4 22.1c-.7-3.4-.8 15.9-.4 17.9.4 1.9 1.9 16.3.8 17.9-1.2 1.6-.4 9.7.4 12.4.8 2.7.4 13.6 1.9 13.6s1.2-43.9-2.7-61.8zm-43.9 14.8c-2.1-1.3-1.2 3.5-3.1 5.1-1.9 1.6-6.6 5.4-5.8 8.2.8 2.7 3.9 14.4 5.4 16.7 1.6 2.3 3.9 12.4 5.4 14 1.6 1.6 1.9 6.6 3.9 5.8 1.9-.8.8-8.9.8-11.3s-.8-18.7-1.6-22.2 0-7.8-.8-8.9c-.7-1.2-2.2-6.2-4.2-7.4zm11.3 8.9c-1.5.4-.4 2.7-1.6 3.5-1.2.8-2.3 4.7-.8 7.4 1.6 2.7 2.3 4.7 3.9 3.1s2.7-1.9 2.3-5.1c-.3-3-1.1-9.6-3.8-8.9zm5 16.4c-1.9.4-1.9 5.8-3.5 7-1.6 1.2-3.1 7-2.3 9.3.8 2.3-.4 10.5 1.2 13.2 1.6 2.7 2.3 8.9 3.9 10.5 1.6 1.6 3.5 3.9 3.5 5.8s2.7 7.8 5.8 6.2c3.1-1.6.4-3.9 1.9-6.2 1.6-2.3 2.3-5.8 0-12s1.2-9.3 0-12c-1.2-2.7.4-1.6-2.3-3.5s-2.7-6.2-3.9-8.9c-1.2-2.8-2.3-9.8-4.3-9.4zm3.1-6.3c-1.5.4-3.1 1.9-1.9 3.1s3.5 1.6 3.5-.4c0-1.9 0-3.1-1.6-2.7zm-27.2-14.7c.7-.9-3.1-3.1-3.1-1.2 0 1.9 1.2 3.5 3.1 1.2zm-10.1 8.5c-3 2.4-2.3 5.4-4.7 6.2-2.3.8-6.2 4.3-4.3 6.6 1.9 2.3 7 7.8 7.4 10.9.4 3.1 1.6 12.8 9.3 15.5 7.8 2.7 10.1 1.2 10.1-1.2s-1.6-6.6-3.1-9.7c-1.6-3.1-6.6-13.6-6.6-16.7 0-3.1 0-12.8-2.3-12.8-2.3.1-3.8-.3-5.8 1.2zm-26.8 23.3c-1.9 1.6-5.1 4.3-5.8 7.4s-.8 5.1-.4 7.8 10.1 1.9 11.7 1.9 5.1 1.2 6.6 4.3c1.6 3.1 3.5 2.3 6.6-.4 3.1-2.7 8.2-1.6 8.2-1.6s1.2-3.5-.8-4.7c-1.9-1.2-3.9-5.4-5.1-11.3-1.2-5.8-3.9-7.4-5.4-9.7-1.6-2.3-7.4-4.1-9.3-2.7-4 2.8-4.3 7.5-6.3 9zm15.6 31.1c-.4 4.7 3.1 8.2 5.4 10.9 2.3 2.7 3.1 6.6 5.4 8.5 2.3 1.9 7 5.8 11.7 6.2 4.7.4 8.9 1.9 14.8 3.5 5.8 1.6 7.8 1.9 11.7 1.9 3.9 0 1.2-2.7 2.3-5.1s-1.9-5.1-3.9-5.4c-1.9-.4-1.6-3.5-1.6-5.1 0-1.6-.8-5.4-.8-5.4s-3.9-6.6-4.7-9.3c-.8-2.7-6.6-9.7-8.2-10.9-1.6-1.2-5.1 2.3-7.4 3.9-2.3 1.6-5.4-.8-7.4-2.3-1.9-1.6-2.7-.8-4.7-.8-1.9 0-5.1.6-7.4 1.6-1.7.8-4.8 3.2-5.2 7.8zm-30.7 2.4c0 3.1-1.6 5.8-2.7 6.6-1.2.8-2.7 7.8-2.7 10.1s5.1 1.6 7.8.4 7.8-4.3 7.8-5.8 5.1-2.7 10.5-5.4 4.7-7.8 4.3-10.5c-.4-2.7-4.3-5.4-6.6-7-2.3-1.6-11.1-1.7-12.8-.8-4.9 2.3-5.6 9.2-5.6 12.4zm-9 35.7c-.4 3.5 1.6 3.9 1.6 3.9-2.3 1.2-1.9 8.5-.4 10.9 1.6 2.3 3.9.4 7-3.1s13.6-10.5 16.7-13.2c3.1-2.7 7-4.7 9.7-4.7 2.7 0 7.4-2.3 10.5-3.5 3.1-1.2.8-1.6-1.2-3.9-1.9-2.3-4.7-5.1-6.6-7.8-1.9-2.7-7.4-.4-9.7.8s-9.7 3.5-12.4 4.7c-2.7 1.2-6.6 3.1-9.7 2.7-3.1-.4-5.2 2.5-4.7 5.1.4 1.9-.4 4.6-.8 8.1zm4.3 22.2c-1.7-1 0 7.4-1.2 9.3-1.2 1.9-4.7 3.1-3.1 7.4 1.6 4.3 2.3 9.7 10.5 6.2 8.2-3.5 18.7-11.3 23.7-14.8 5.1-3.5 19.8-8.9 24.1-10.1 4.3-1.2 24.9-10.1 27.2-13.6s0-6.6-1.6-6.6-17.5-1.6-21.4-3.1c-3.9-1.6-8.9-3.1-10.9-1.2-1.9 1.9-15.5 5.4-17.5 7.8-1.9 2.3-5.1 5.4-7 4.3-1.9-1.2-5.1.4-6.6 1.6-1.6 1.2-10.9 8.2-11.3 9.7-.2 1.5-1.4 5-4.9 3.1zm86.7-19.1c-1.1-.5-2.3 2.7-.8 3.9 1.5 1.2 4.6-1.9.8-3.9zm5-14.7c-2.4.5-1.2 3.1-.4 4.7.8 1.6 0 3.9 1.9 4.3 1.9.4 4.3-2.7 2.3-4.7-1.8-2-1.8-4.7-3.8-4.3zm9.3-14c-1.2 0-2.7.8-1.2 1.9s1.6 1.2 1.6 1.2-3.1-.8-3.9 1.2c-.8 1.9-2.3 5.1-.8 6.2 1.6 1.2 2.7.8 3.9-.8 1.2-1.6 3.5-1.2 2.7-3.1-.7-2-1.1-6.6-2.3-6.6zm23 43.9c1.4 1 4.7-2.7 1.2-2.7-3.6 0-2.4 1.9-1.2 2.7zm0 8.1c1.6.8 4.3-.8 5.1-2.3.8-1.6-1.2-3.3-2.7-3.1-3.2.4-4 4.7-2.4 5.4zm2.7 6.6c-2.4-.6-1.9 2.7 0 3.1 1.9.4 3.1-2.3 0-3.1zm-27.2-27.5c-1.9-.9-2.3 1.6-.4 2.3 1.9.8 1.9-1.6.4-2.3zm10.1 31.8c-2.3-.2-1.9 3.1 0 3.5 1.9.4 3.9-3.1 0-3.5zm-46.6 12.5c-1.6.4-5.8 3.1-3.5 5.1 2.3 1.9 5.1 1.6 6.2 0 1.2-1.6 3.1-4.3.8-4.7-2.4-.4-3.5-.4-3.5-.4zm10.4 4.2c-1.2.8-.8 5.8 1.2 6.2 1.9.4 2.3-.4 3.5-1.9s3.1-3.1.8-3.9c-2.3-.8-5.5-.4-5.5-.4zm6.3-8.1c-1.2 0-2.3 3.5-.8 4.3 1.5.7 2.3-4.3.8-4.3zm15.1 6.6c-2 0-1.2 1.9 0 2.3s2-2.3 0-2.3zm3.5-10.5c-1.6 0-1.6 1.9.4 2.3s1.2-2.3-.4-2.3zm-3.5-23.7s-3.5 1.6-1.2 3.5 2.3.8 2.7-.8c.5-1.6-1.5-2.7-1.5-2.7zm-11.2 17.1c-1.7 0-3.9 3.5-1.6 4.3 2.3.7 4.3-4.3 1.6-4.3zm-10.2 9.7c-1.1-.2-6.2 2.3-4.7 3.9 1.6 1.6 2.7.4 3.9-.4 1.2-.8 3.2-3.1.8-3.5zm-67.6 7.4c-1 1.4-3.5 4.7-2.3 5.8s1.9 3.5 3.5 3.1c1.6-.4-1.2 1.2-.4 3.1.8 1.9 0 5.8 1.6 5.8s4.3-1.2 9.7-3.9c5.4-2.7 20.2-13.6 25.6-15.5 5.4-1.9 19-9.3 22.5-12.8s10.9-13.6 12.8-16.3c1.9-2.7 5.8-8.9 3.5-8.2-2.3.8-5.8 3.5-8.9 5.4-3.1 1.9-17.9 9.7-21 11.3-3.1 1.6-19.8 8.2-23.7 10.5-3.9 2.3-9.7 4.3-12.8 5.8-3.1 1.6-8.9 4.3-10.1 5.9zm84.7-39.3c-3.5 0-5.1 3.5-7.8 7.8s-13.6 19-17.9 21c-4.3 1.9-34.2 18.7-38.9 22.5-4.7 3.9-13.6 6.2-10.9 8.2 2.7 1.9 4.7-.4 6.6-2.3 1.9-1.9 6.6-4.3 11.3-7.4 4.7-3.1 15.9-7.8 19.4-8.9 3.5-1.2 7.8-4.7 14-7.8 6.2-3.1 14.4-10.5 16.7-12.8s7.4-9.3 7.4-12.8 1.3-7.5.1-7.5z"/></g><g><path fill="#e6007e" d="M209.3 698.1c4-.2 4.6-1 4.6-4.7v-23.3c0-3.9-.6-4.4-4.6-4.7v-1h14.2c12.6 0 20.9 5.7 20.9 17.5 0 7-4.1 17.3-20.2 17.3h-14.9v-1.1zm10-3.1c0 1.8.6 2.2 3.1 2.2 3.4 0 16.3 0 16.3-15.3 0-4.4-1.3-8.7-4.9-11.9-2.5-2.3-5.5-3.7-12.1-3.7-2.5 0-2.5 1-2.5 2V695z"/><path d="M294.4 699.1H281v-1c1.9 0 3.7-.1 3.7-2 0-.8-.7-2.6-1-3.3l-2.1-5h-13.7l-2.4 6.1c-.3.7-.4 1.4-.4 2 0 2.2 2.5 2.2 3.6 2.2v1h-10.4v-1c.8-.1 1.7-.2 2.7-1.2 1.2-1.3 2.8-5.1 3.8-7.5l10.9-25.8h1l13.1 29.8c1.7 3.8 2.4 4.4 4.7 4.6v1.1zm-13.6-13.5l-6.1-14.4-6 14.4h12.1zM337.9 665.4c-2.5.2-3.3.9-4.8 4.9l-11.6 29.4h-.8l-12.9-28.8c-2.2-4.8-3.1-5.4-5.6-5.5v-1h14v1c-2.9.2-3.9.3-3.9 1.9 0 .8.9 2.9 2.2 5.6l7.9 17.7 7.7-19.3c.1-.3 1-2.5 1-3.6 0-2.2-1.8-2.3-3.8-2.4v-1h10.8v1.1zM353.2 698.1c4.5-.1 5.1-1 5.1-4.7v-23.3c0-3.9-.7-4.5-5.1-4.7v-1h15.6v1c-3.8.2-5.1.5-5.1 4.7v23.3c0 4.1 1.3 4.6 5.1 4.7v1h-15.6v-1zM383.7 698.1c4-.2 4.6-1 4.6-4.7v-23.3c0-3.9-.6-4.4-4.6-4.7v-1h14.2c12.6 0 20.9 5.7 20.9 17.5 0 7-4.1 17.3-20.2 17.3h-14.9v-1.1zm10-3.1c0 1.8.6 2.2 3.1 2.2 3.4 0 16.3 0 16.3-15.3 0-4.4-1.3-8.7-4.9-11.9-2.5-2.3-5.5-3.7-12.1-3.7-2.5 0-2.5 1-2.5 2V695zM458.5 674.8h-1.3c-.9-4.3-4.3-9-9.8-9-2.6 0-5.3 1.6-5.3 4.9 0 7.9 17.5 8.9 17.5 19.7 0 4.5-3.6 9.5-11.1 9.5-4 0-6.6-1.8-8.1-1.8-1.1 0-1.6.9-1.6 1.7h-1.2l-1.6-11.1h1.2c1 2.5 3.7 9.3 10.8 9.3 4.2 0 6.3-3 6.3-5.8 0-3-.8-4.8-8.6-9.3-4.8-2.8-8.2-5.1-8.2-10.3 0-6 4.8-8.9 9.5-8.9 3.1 0 6 1.8 7.3 1.8 1.5 0 1.7-1.2 1.8-1.8h1.1l1.3 11.1zM477.9 681.8c0-12.1 8.6-18.2 17.2-18.2s17.2 6.1 17.2 18.2c0 11.2-7.7 18-17.2 18s-17.2-6.8-17.2-18zm28.4-.1c0-12-5.8-16.2-11.2-16.2-5.4 0-11.2 4.2-11.2 16.2 0 11.5 5.4 16.2 11.2 16.2 5.8 0 11.2-4.6 11.2-16.2zM564.2 665.4c-3.3.4-5 .6-5 6.7v27.6h-.9l-23.1-28.8h-.1v20.5c0 5.4 1.1 6.6 4.9 6.7v1h-12.3v-1c4-.3 5.1-1 5.1-6.7v-23.1c-2.2-2.6-3-2.9-5.1-2.9v-1h9l20.1 25.2h.1v-17.5c0-6-1.5-6.5-5-6.7v-1h12.3v1z" class="st31"/></g></g></svg>