<?xml version="1.0" encoding="utf-8"?>
<svg id="Layer_1" data-name="Layer 1" viewBox="0 0 500 165" xmlns="http://www.w3.org/2000/svg">
  <defs>
    <style>.cls-1{fill:#ff6b95;}.cls-2{fill:#fff;}.cls-3{fill:#5c225c;}.cls-4{fill:#f52281;}</style>
  </defs>
  <title>braincracking-color</title>
  <g style="" transform="matrix(0.687873, 0, 0, 0.687873, 78.031746, 5.561405)">
    <path class="st0" d="M474.3,223.7H25.7C11.5,223.7,0,212.2,0,198V25.7C0,11.5,11.5,0,25.7,0h448.5C488.5,0,500,11.5,500,25.7V198 C500,212.2,488.5,223.7,474.3,223.7z" style="fill: rgb(246, 96, 53);"/>
    <g>
      <path class="st1" d="M219.9,136.5c0,7.4-5.1,18.3-18.4,18.3c-11,0-17.9-8.9-17.9-18.3V89.2h-23.3v47c0,12.7,2.9,22.4,8.7,29.1 c5.8,6.7,17,12.1,27.6,12.1c15.5,0,21.7-7.1,24.1-10.7l0,11h22.6V89.2h-23.4C219.9,89.2,219.9,125,219.9,136.5z" style="fill: rgb(255, 255, 255);"/>
      <path class="st1" d="M328.2,44.7v50.7c-7.4-5.3-16.4-8.4-26.2-8.4c-24.9,0-45.2,20.2-45.2,45.2s20.2,45.2,45.2,45.2 c9.8,0,18.8-3.1,26.2-8.4v8.5h23.5V44.7H328.2z M302,156.3c-13.3,0-24.1-10.8-24.1-24.1s10.8-24.1,24.1-24.1S326,119,326,132.2 S315.3,156.3,302,156.3z" style="fill: rgb(255, 255, 255);"/>
      <path class="st1" d="M122.4,44.7v50.7c-7.4-5.3-16.4-8.4-26.2-8.4c-24.9,0-45.2,20.2-45.2,45.2s20.2,45.2,45.2,45.2 c9.8,0,18.8-3.1,26.2-8.4v8.3h23.5V44.7H122.4z M96.3,156.3c-13.3,0-24.1-10.8-24.1-24.1s10.8-24.1,24.1-24.1s24.1,10.8,24.1,24.1 S109.5,156.3,96.3,156.3z" style="fill: rgb(255, 255, 255);"/>
      <path class="st1" d="M367.1,97.6l7.9,17.6c9.5-6.4,18.9-9.1,29.3-9.1c20.8,0,20.8,13.6,20.8,13.6s-11.5-0.6-20.6-0.4 c-12.2,0.3-38.5,4.3-38.5,29.9c0,17.3,13.5,28.1,32.1,28.1c18.9,0,26.2-6.9,28-10l0.1,10.3h22.7v-54.7c0-17.4-11.7-36.8-44.3-36.8 C385,86,372.9,93.1,367.1,97.6z M401.1,159.6c-5.3,0-14.1-1.3-14.1-11.4c0-7.3,8.7-11.2,17.5-11.4c9.5-0.2,20.7,0,20.7,0 C425.2,152.9,411.7,159.6,401.1,159.6z" style="fill: rgb(255, 255, 255);"/>
    </g>
  </g>
</svg>