<?xml version="1.0" encoding="utf-8"?>
<svg id="logo" viewBox="0 0 1000 330" xmlns="http://www.w3.org/2000/svg">
  <defs>
    <style>.cls-1{fill:#222;}.cls-2{fill:#ffd900;}</style>
  </defs>
  <title>ekino_logo</title>
  <path class="cls-1" d="M 109.117 197.327 L 109.117 195.24 C 109.117 150.883 145.113 123.502 189.425 123.502 C 230.134 123.502 264.751 145.421 265.784 194.472 L 265.784 206.994 L 164.223 206.994 C 165.611 223.437 175.855 232.309 191.363 232.309 C 206.59 232.309 212.411 225.518 214.069 217.698 L 265.03 217.698 C 260.597 248.999 235.396 267.268 189.425 267.268 C 143.176 267.254 109.117 242.466 109.117 197.327 Z M 212.132 180.111 C 211.574 165.493 204.103 156.623 189.425 156.623 C 176.127 156.623 166.719 164.712 164.503 180.111 Z"/>
  <path class="cls-1" d="M 276.609 68.193 L 331.173 68.193 L 331.173 179.088 L 366.364 127.423 L 422.307 127.423 L 377.716 188.506 L 425.919 263.887 L 365.512 263.887 L 331.173 207.009 L 331.173 263.887 L 276.609 263.887 Z"/>
  <path class="cls-1" d="M 432.552 127.423 L 486.83 127.423 L 486.83 263.887 L 432.552 263.887 Z"/>
  <path class="cls-1" d="M 508.474 127.423 L 563.031 127.423 L 563.031 149.342 C 571.066 134.995 586.573 123.772 610.938 123.772 C 638.356 123.772 657.466 140.215 657.466 174.13 L 657.466 263.887 L 602.909 263.887 L 602.909 185.608 C 602.909 171.779 597.633 164.733 584.629 164.733 C 571.059 164.733 563.031 172.305 563.031 188.477 L 563.031 263.887 L 508.474 263.887 Z"/>
  <path class="cls-1" d="M 668.291 197.349 L 668.291 195.267 C 668.291 150.911 703.467 123.772 749.158 123.772 C 794.3 123.772 829.466 150.123 829.466 193.961 L 829.466 196.049 C 829.466 240.924 794.035 267.282 748.887 267.282 C 703.737 267.282 668.291 242.23 668.291 197.349 Z M 774.081 196.311 L 774.081 194.479 C 774.081 173.086 766.052 161.609 749.158 161.609 C 732.573 161.609 723.406 172.305 723.406 193.698 L 723.406 195.787 C 723.406 217.961 731.699 229.447 749.158 229.447 C 765.773 229.447 774.081 217.961 774.081 196.311 Z"/>
  <path class="cls-1" d="M 488.61 90.005 C 488.61 69.032 464.51 55.922 445.232 66.409 C 425.954 76.897 425.954 103.114 445.232 113.601 C 449.628 115.993 454.615 117.252 459.692 117.252 C 475.664 117.256 488.614 105.055 488.61 90.005 Z"/>
  <path class="cls-2" d="M 890.883 240.029 C 890.877 219.055 866.776 205.952 847.5 216.444 C 828.224 226.936 828.231 253.153 847.513 263.635 C 851.907 266.024 856.892 267.282 861.966 267.282 C 877.94 267.282 890.888 255.08 890.883 240.029 Z"/>
</svg>
