<?xml version="1.0" encoding="UTF-8"?>
<svg id="Layer_1" data-name="Layer 1" xmlns="http://www.w3.org/2000/svg" viewBox="0 0 856.42 172.92">
  <defs>
    <style>
      .cls-1 {
        fill: #073148;
        stroke-width: 0px;
      }
    </style>
  </defs>
  <g>
    <path class="cls-1" d="m164.34,79.9l-2.95,16.7h-76.61l1.51-8.53c.83-4.73,4.93-8.17,9.74-8.17h68.31Z"/>
    <path class="cls-1" d="m129.98,103.76l-2.95,16.7H45.79c-4.47-10.44-6.96-21.93-6.96-34,0-2.2.09-4.39.26-6.56h16.74c-.2,2.16-.3,4.34-.3,6.56,0,5.97.75,11.76,2.17,17.3h72.28Z"/>
    <polygon class="cls-1" points="125.78 127.61 122.83 144.3 105.23 144.3 108.18 127.61 125.78 127.61"/>
    <path class="cls-1" d="m62.52,56.04h75.89l-2.95,16.7H0l1.51-8.53c.83-4.72,4.93-8.17,9.72-8.17h33.12C56.69,23.33,88.32,0,125.29,0c34.23,0,63.87,19.99,77.88,48.9h-87.09l1.5-8.53c.83-4.73,4.95-8.17,9.74-8.17h41.78c-11.98-9.69-27.21-15.5-43.79-15.5-27.57,0-51.46,16.08-62.77,39.35Z"/>
    <path class="cls-1" d="m211.77,86.46c0,47.67-38.79,86.46-86.48,86.46-32.79,0-61.37-18.35-76.02-45.32h19.72c12.7,17.34,33.21,28.62,56.3,28.62,38.47,0,69.78-31.29,69.78-69.76,0-10.9-2.52-21.23-6.99-30.42h18.16c3.57,9.46,5.52,19.72,5.52,30.42Z"/>
  </g>
  <g>
    <path class="cls-1" d="m274.65,67h23.46v18.16h-23.46v59.03h-18.77v-59.03h-14.08v-18.16h14.08v-20.43h14.1c1.28,0,2.32-1.04,2.32-2.32v-6.28c0-4.03,3.26-7.29,7.29-7.29h23.21v18.16h-25.83c-1.28,0-2.32,1.04-2.32,2.32v15.84Z"/>
    <path class="cls-1" d="m387.16,57.86v86.27h-18.77v-9.92c-6,6.99-14.47,11.33-25.37,11.33-25.7,0-40.32-22.6-40.32-44.54s14.62-44.54,40.32-44.54c10.9,0,19.38,4.34,25.37,11.33v-9.92h18.77Zm-18.77,43.95v-1.63c-.25-14.24-7.05-25.69-23.45-25.69-14.83,0-23.47,11.89-23.47,26.51s8.64,26.56,23.47,26.56c16.4,0,23.2-11.5,23.45-25.74Z"/>
    <path class="cls-1" d="m465.18,120c0,14.79-13.56,25.55-32.9,25.55-12.94,0-27.17-5.83-35.31-17.37l12.87-10.36c5.99,7.09,15.59,10.44,22.44,10.44,7.21,0,14.06-1.87,14.06-8.09,0-6.73-8.24-7.7-17.32-10.22-15.3-4.04-30.77-8.89-30.77-28.28,0-14.8,14.13-25.22,32.12-25.22,11.1,0,23.53,5.38,30.26,15.97h0s-12.87,10.37-12.87,10.37c-4.38-5.78-10.89-9.03-17.39-9.03-7.73,0-13.28,3.15-13.28,7.91,0,6.72,8.91,7.95,19.17,10.81,14.63,3.87,28.92,8.47,28.92,27.52Z"/>
    <path class="cls-1" d="m521.44,125.97v18.16h-23.46c-3.89,0-7.04-3.15-7.04-7.04v-6.53c0-1.28-1.04-2.32-2.32-2.32h-14.1v-15.89l9.38-36.32h-11.99v-18.16h16.69l4.69-18.16h18.77l-4.69,18.16h13.81v18.16h-18.5l-9.38,36.32v11.3c0,1.28,1.04,2.32,2.32,2.32h25.83Z"/>
    <path class="cls-1" d="m591.98,110.26h-46.36c3.01,10.89,11.75,17.2,24.59,17.2,8.81,0,15.68-2.97,20.1-8.35l14.47,11.55c-7.86,9.43-19.93,14.96-34.58,14.96-26.46,0-44.52-18.05-44.52-44.51s18.05-44.52,44.52-44.52,41.7,18.05,41.7,44.52c0,3.18-.26,6.23-.76,9.15h-19.16Zm-46.4-18.16h46.73c-2.26-10.98-9.21-17.34-22.1-17.34s-21.65,6.37-24.63,17.34Z"/>
    <path class="cls-1" d="m667.61,76.02h-25.83c-1.28,0-2.32,1.04-2.32,2.32v65.79h-18.77v-70.38h14.1c1.28,0,2.32-1.04,2.32-2.32v-6.53c0-3.89,3.15-7.04,7.04-7.04h23.46v18.16Z"/>
    <path class="cls-1" d="m676.36,48.78v-18.16h18.77v18.16h-18.77Zm0,95.35V57.86h18.77v86.27h-18.77Z"/>
    <path class="cls-1" d="m765.19,76.02l-37.53,49.95h37.53v18.16h-60.99v-18.16l37.54-49.95h-37.54v-18.16h37.59c3.89,0,7.04,3.15,7.04,7.04v6.53c0,1.28,1.04,2.32,2.32,2.32h14.04v2.27Z"/>
    <path class="cls-1" d="m836.49,110.26h-46.36c3.01,10.89,11.75,17.2,24.59,17.2,8.81,0,15.68-2.97,20.1-8.35l14.47,11.55c-7.86,9.43-19.93,14.96-34.58,14.96-26.46,0-44.52-18.05-44.52-44.51s18.05-44.52,44.52-44.52,41.7,18.05,41.7,44.52c0,3.18-.26,6.23-.76,9.15h-19.16Zm-46.4-18.16h46.73c-2.26-10.98-9.21-17.34-22.1-17.34s-21.65,6.37-24.63,17.34Z"/>
  </g>
</svg>
