<svg width="875" height="165" xmlns="http://www.w3.org/2000/svg"><g fill="#164B6F" fill-rule="evenodd"><path d="M51.5 135a7.5 7.5 0 0 1 0-15H101a81.95 81.95 0 0 1-5.9-15H20.5a7.5 7.5 0 1 1 0-15h100a7.5 7.5 0 0 0 0-15h-84a7.5 7.5 0 0 1 0-15h58.6a81.95 81.95 0 0 1 5.9-15H61.5a7.5 7.5 0 0 1 0-15h94a7.5 7.5 0 0 0 0-15h-24a7.5 7.5 0 0 1 0-15h43a82.5 82.5 0 1 1 0 165h-59a7.5 7.5 0 0 1 0-15h14a7.5 7.5 0 0 0 0-15h-78zM82 7.5a7.5 7.5 0 0 0 7.5 7.5h12a7.5 7.5 0 0 0 0-15h-12A7.5 7.5 0 0 0 82 7.5zM7.5 60a7.5 7.5 0 1 0 .01 15.01A7.5 7.5 0 0 0 7.5 60zm78 90a7.5 7.5 0 1 0 .01 15.01A7.5 7.5 0 0 0 85.5 150zm56.5-27l14.2-58.21C159.4 51.65 172.96 41 186.48 41H214l-6.45 15.31A6.52 6.52 0 0 1 202 60h-20a7.09 7.09 0 0 0-6.41 4.8L172 77h20l-3.7 12.34C187.03 93.57 182.42 97 178 97h-7a4.11 4.11 0 0 0-3.78 2.9l-2.94 10.92c-1.81 6.73-8.93 12.18-15.89 12.18H142zM357 75.24H340.7V134H326.8V75.24h-13.91v-11.4h13.91V49.2c0-4.15.47-7.97 1.4-11.47.94-3.5 2.47-6.54 4.6-9.1a22.06 22.06 0 0 1 8.13-6.07c3.3-1.48 7.33-2.22 12.07-2.22 3.35 0 6.26.34 8.73 1.03l-1.63 11.99c-1.09-.3-2.17-.54-3.26-.74-1.08-.2-2.31-.3-3.7-.3-2.66 0-4.8.47-6.43 1.41a9.9 9.9 0 0 0-3.78 3.77 15.5 15.5 0 0 0-1.77 5.4 43.4 43.4 0 0 0-.45 6.3v14.65H357v11.4zm56.53 13.32c0-5.23-1.58-9.1-4.74-11.61-3.16-2.52-7.35-3.78-12.58-3.78-3.94 0-7.67.77-11.17 2.3a28.3 28.3 0 0 0-8.8 5.84l-7.4-8.88a37.36 37.36 0 0 1 12.65-7.7 45.23 45.23 0 0 1 16.05-2.8c5.04 0 9.4.7 13.1 2.14a24.77 24.77 0 0 1 9.1 5.85 23.95 23.95 0 0 1 5.33 8.73 32.23 32.23 0 0 1 1.78 10.8v30.64c0 2.37.07 4.86.22 7.47.15 2.62.42 4.76.81 6.44H415.3a43.8 43.8 0 0 1-1.18-10.06h-.44a26.94 26.94 0 0 1-9.7 8.73c-3.9 2.07-8.5 3.1-13.84 3.1-2.76 0-5.64-.36-8.65-1.1-3.01-.74-5.75-1.95-8.22-3.63a20.48 20.48 0 0 1-6.14-6.66c-1.63-2.76-2.44-6.17-2.44-10.21 0-5.33 1.43-9.55 4.29-12.66 2.86-3.1 6.61-5.47 11.25-7.1a63.52 63.52 0 0 1 15.69-3.18c5.82-.5 11.69-.74 17.6-.74v-1.93zm-3.4 12c-3.46 0-7.04.14-10.74.44s-7.05.88-10.06 1.77c-3 .89-5.5 2.22-7.47 4-1.98 1.77-2.96 4.14-2.96 7.1 0 2.07.42 3.8 1.25 5.18a10.45 10.45 0 0 0 3.33 3.4 13.4 13.4 0 0 0 4.6 1.86c1.67.34 3.4.51 5.17.51 6.51 0 11.52-1.94 15.02-5.84s5.26-8.8 5.26-14.73v-3.7h-3.4zm77.84-18.95a18.19 18.19 0 0 0-6.66-6.3 19.1 19.1 0 0 0-9.62-2.43c-1.58 0-3.16.17-4.73.51-1.58.35-2.99.9-4.22 1.63a9 9 0 0 0-2.96 2.81 7.56 7.56 0 0 0-1.11 4.22 7.02 7.02 0 0 0 4 6.59c2.66 1.43 6.65 2.74 11.98 3.92 3.36.79 6.46 1.73 9.33 2.81a29.2 29.2 0 0 1 7.47 4.07 17.55 17.55 0 0 1 4.96 5.85 17.05 17.05 0 0 1 1.77 7.99c0 4.14-.79 7.65-2.36 10.5a20.55 20.55 0 0 1-6.3 7.04 25.79 25.79 0 0 1-8.95 3.92c-3.35.79-6.8 1.18-10.36 1.18a41 41 0 0 1-15.61-3.1 30.56 30.56 0 0 1-12.66-9.48l9.92-8.43a22.71 22.71 0 0 0 7.77 6.95 21.67 21.67 0 0 0 10.88 2.82c1.77 0 3.48-.18 5.1-.52 1.63-.35 3.11-.91 4.44-1.7a9.14 9.14 0 0 0 3.19-3.11 9.18 9.18 0 0 0 1.18-4.89c0-3.25-1.55-5.67-4.66-7.25-3.11-1.58-7.67-3.06-13.7-4.44-2.36-.59-4.75-1.3-7.17-2.14-2.42-.84-4.61-2-6.59-3.48a17.42 17.42 0 0 1-4.8-5.55c-1.24-2.22-1.86-4.96-1.86-8.22 0-3.75.77-6.98 2.3-9.69a19.98 19.98 0 0 1 6-6.66c2.46-1.73 5.27-3 8.43-3.85a37.89 37.89 0 0 1 24.34 1.7c4.7 1.98 8.32 4.84 10.88 8.59l-9.62 8.14zm62.16-6.37h-18.65v36.56c0 4.24.8 7.28 2.37 9.1 1.58 1.83 4.1 2.74 7.55 2.74 1.28 0 2.66-.15 4.14-.44 1.48-.3 2.82-.74 4-1.34l.44 11.4a37.32 37.32 0 0 1-11.84 1.92c-6.6 0-11.66-1.82-15.17-5.47-3.5-3.65-5.25-9.13-5.25-16.43V75.24h-13.47v-11.4h13.47V43.73h13.76v20.13h18.65v11.4zm79.77 23.1v2.36c0 .79-.05 1.58-.14 2.37H574.1c.1 2.96.76 5.75 2 8.36a22 22 0 0 0 4.95 6.8 23 23 0 0 0 15.84 6.15c4.74 0 8.83-1.04 12.28-3.1a25.07 25.07 0 0 0 8.14-7.56l9.77 7.85c-3.75 4.93-8.16 8.56-13.24 10.88a40.35 40.35 0 0 1-16.95 3.47c-5.33 0-10.26-.88-14.8-2.66a34.2 34.2 0 0 1-11.7-7.47 34.64 34.64 0 0 1-7.69-11.62 39.18 39.18 0 0 1-2.81-15.1c0-5.42.91-10.43 2.74-15.02a34.38 34.38 0 0 1 7.62-11.77 34.9 34.9 0 0 1 11.54-7.62 37.38 37.38 0 0 1 14.36-2.74c5.13 0 9.8.84 13.99 2.52 4.19 1.68 7.74 4.1 10.65 7.25a32.67 32.67 0 0 1 6.74 11.47 45.54 45.54 0 0 1 2.36 15.17zm-14.06-5.63c-.1-2.76-.56-5.35-1.4-7.77a17.84 17.84 0 0 0-3.7-6.3 17.4 17.4 0 0 0-6.07-4.21 21.48 21.48 0 0 0-8.51-1.55 22.5 22.5 0 0 0-15.17 5.77 22.22 22.22 0 0 0-4.74 6.29c-1.23 2.42-1.94 5-2.14 7.77h41.73zm33.45-13.77a226.37 226.37 0 0 0-.59-15.1h13.17c.2 1.78.35 3.83.45 6.15.1 2.32.14 4.22.14 5.7h.45a24.28 24.28 0 0 1 8.66-10 22.67 22.67 0 0 1 12.8-3.77c2.17 0 4 .2 5.47.6l-.59 12.87c-1.97-.5-4.1-.74-6.36-.74-3.36 0-6.27.62-8.73 1.85a17.83 17.83 0 0 0-6.15 4.96 20.96 20.96 0 0 0-3.62 7.18 30.31 30.31 0 0 0-1.19 8.5V134h-13.9V78.94zM716.93 134h-13.91V63.85h13.9V134zm2.37-95.46c0 2.57-.92 4.69-2.74 6.36a9.4 9.4 0 0 1-6.59 2.52 8.99 8.99 0 0 1-6.51-2.59 8.44 8.44 0 0 1-2.66-6.29c0-2.57.88-4.71 2.66-6.44a8.99 8.99 0 0 1 6.51-2.59c2.57 0 4.76.87 6.59 2.6a8.5 8.5 0 0 1 2.74 6.43zm71.92 36.7l-39.96 47.07h41.6V134H734.1v-11.4l39.66-47.36h-37.74v-11.4h55.2v11.4zM875 98.34v2.36c0 .79-.05 1.58-.15 2.37H819.2c.1 2.96.76 5.75 2 8.36a22 22 0 0 0 4.95 6.8 23 23 0 0 0 15.84 6.15c4.73 0 8.83-1.04 12.28-3.1a25.07 25.07 0 0 0 8.14-7.56l9.77 7.85c-3.75 4.93-8.16 8.56-13.25 10.88a40.35 40.35 0 0 1-16.94 3.47c-5.33 0-10.26-.88-14.8-2.66a34.2 34.2 0 0 1-11.7-7.47 34.64 34.64 0 0 1-7.69-11.62 39.18 39.18 0 0 1-2.81-15.1c0-5.42.91-10.43 2.74-15.02a34.38 34.38 0 0 1 7.62-11.77 34.9 34.9 0 0 1 11.54-7.62 37.38 37.38 0 0 1 14.36-2.74c5.13 0 9.8.84 13.98 2.52 4.2 1.68 7.75 4.1 10.66 7.25a32.67 32.67 0 0 1 6.73 11.47A45.54 45.54 0 0 1 875 98.33zm-14.06-5.63c-.1-2.76-.57-5.35-1.4-7.77a17.84 17.84 0 0 0-3.7-6.3 17.4 17.4 0 0 0-6.07-4.21 21.48 21.48 0 0 0-8.51-1.55 22.5 22.5 0 0 0-15.17 5.77 22.22 22.22 0 0 0-4.74 6.29c-1.23 2.42-1.95 5-2.14 7.77h41.73z"/></g></svg>