<svg xmlns="http://www.w3.org/2000/svg" viewBox="0 0 1000 330"><path fill="#164B6F" fill-rule="evenodd" d="M67.2 223.86a8.4 8.4 0 0 1 0-16.82h55.5a91.87 91.87 0 0 1-6.62-16.82H32.45a8.4 8.4 0 1 1 0-16.81h112.1a8.4 8.4 0 0 0 0-16.82H50.4a8.4 8.4 0 0 1 0-16.81h65.7a91.87 91.87 0 0 1 6.6-16.82H78.42a8.4 8.4 0 0 1 0-16.82H183.8a8.4 8.4 0 0 0 0-16.81h-26.91a8.4 8.4 0 0 1 0-16.82h48.2a92.49 92.49 0 1 1 0 184.98h-66.14a8.4 8.4 0 0 1 0-16.82h15.7a8.4 8.4 0 0 0 0-16.81H67.2zm34.2-142.94a8.4 8.4 0 0 0 8.4 8.4h13.46a8.4 8.4 0 0 0 0-16.81H109.8a8.4 8.4 0 0 0-8.4 8.4zm-83.53 58.86a8.41 8.41 0 1 0 .02 16.82 8.41 8.41 0 0 0-.02-16.82zm87.45 100.9a8.41 8.41 0 1 0 .01 16.82 8.41 8.41 0 0 0-.01-16.83zm63.34-30.28l15.92-65.25c3.59-14.74 18.79-26.68 33.95-26.68h30.85l-7.23 17.17a7.31 7.31 0 0 1-6.22 4.14H213.5a7.95 7.95 0 0 0-7.18 5.38l-4.03 13.67h22.42l-4.14 13.84c-1.43 4.74-6.6 8.59-11.55 8.59h-7.85a4.6 4.6 0 0 0-4.24 3.25l-3.3 12.24c-2.02 7.54-10 13.65-17.8 13.65h-7.17zm241.03-53.54h-18.27v65.88h-15.58v-65.88h-15.6v-12.78h15.6v-16.41c0-4.65.52-8.94 1.57-12.86a26.44 26.44 0 0 1 5.15-10.2 24.73 24.73 0 0 1 9.12-6.8c3.7-1.67 8.22-2.5 13.53-2.5 3.76 0 7.02.38 9.79 1.16l-1.83 13.44c-1.22-.34-2.43-.6-3.65-.83a22.92 22.92 0 0 0-4.15-.34c-2.98 0-5.38.53-7.21 1.58a11.1 11.1 0 0 0-4.24 4.23 17.38 17.38 0 0 0-1.98 6.05 48.66 48.66 0 0 0-.5 7.07v16.42h18.25v12.78zm63.38 14.93c0-5.86-1.77-10.2-5.31-13.01-3.55-2.83-8.24-4.24-14.1-4.24-4.42 0-8.6.86-12.53 2.58a31.73 31.73 0 0 0-9.87 6.55l-8.3-9.96a41.88 41.88 0 0 1 14.19-8.63 50.7 50.7 0 0 1 18-3.14c5.64 0 10.53.78 14.68 2.4a27.77 27.77 0 0 1 10.2 6.56 26.85 26.85 0 0 1 5.98 9.78 36.13 36.13 0 0 1 2 12.11v34.35c0 2.66.07 5.45.24 8.38.17 2.93.47 5.33.9 7.22h-14.1a49.1 49.1 0 0 1-1.32-11.28h-.5a30.2 30.2 0 0 1-10.87 9.79c-4.37 2.32-9.53 3.47-15.51 3.47-3.1 0-6.33-.4-9.7-1.23a28.21 28.21 0 0 1-9.22-4.07 22.96 22.96 0 0 1-6.88-7.47c-1.83-3.1-2.73-6.92-2.73-11.45 0-5.97 1.6-10.7 4.8-14.19 3.21-3.47 7.42-6.13 12.62-7.96a71.21 71.21 0 0 1 17.59-3.56c6.52-.56 13.1-.83 19.73-.83v-2.17zm-3.81 13.46c-3.88 0-7.9.15-12.04.49s-7.9.99-11.28 1.98c-3.36 1-6.17 2.5-8.37 4.49-2.22 1.98-3.32 4.64-3.32 7.96 0 2.32.47 4.26 1.4 5.8a11.72 11.72 0 0 0 3.73 3.82 15.02 15.02 0 0 0 5.16 2.08c1.87.38 3.81.57 5.8.57 7.3 0 12.9-2.17 16.83-6.54s5.9-9.87 5.9-16.52v-4.14h-3.81zM556.52 164a20.4 20.4 0 0 0-7.46-7.06 21.41 21.41 0 0 0-10.79-2.72c-1.77 0-3.54.19-5.3.57a16 16 0 0 0-4.73 1.82 10.09 10.09 0 0 0-3.32 3.15 8.48 8.48 0 0 0-1.24 4.74 7.87 7.87 0 0 0 4.48 7.38c2.98 1.6 7.46 3.08 13.43 4.4a84.7 84.7 0 0 1 10.46 3.15 32.74 32.74 0 0 1 8.38 4.56 19.68 19.68 0 0 1 5.56 6.56 19.11 19.11 0 0 1 1.98 8.96c0 4.64-.89 8.57-2.65 11.77a23.04 23.04 0 0 1-7.06 7.9 28.91 28.91 0 0 1-10.03 4.39 50.4 50.4 0 0 1-11.62 1.32 45.96 45.96 0 0 1-17.5-3.48 34.26 34.26 0 0 1-14.19-10.62l11.12-9.46a25.46 25.46 0 0 0 8.71 7.8 24.3 24.3 0 0 0 12.2 3.16c1.98 0 3.9-.2 5.72-.59a16.4 16.4 0 0 0 4.97-1.9 10.25 10.25 0 0 0 3.58-3.49 10.3 10.3 0 0 0 1.32-5.48c0-3.64-1.73-6.36-5.22-8.13-3.49-1.77-8.6-3.43-15.36-4.98a94.1 94.1 0 0 1-8.04-2.4 27.06 27.06 0 0 1-7.39-3.9 19.53 19.53 0 0 1-5.38-6.22c-1.39-2.49-2.08-5.56-2.08-9.21 0-4.2.86-7.83 2.58-10.87a22.4 22.4 0 0 1 6.72-7.46 29.63 29.63 0 0 1 9.45-4.32 42.48 42.48 0 0 1 27.3 1.9c5.26 2.23 9.32 5.43 12.19 9.64L556.52 164zm69.7-7.14H605.3v40.99c0 4.75.9 8.16 2.66 10.2 1.77 2.05 4.6 3.07 8.46 3.07 1.44 0 2.99-.17 4.65-.5 1.65-.33 3.16-.82 4.48-1.5l.5 12.79a41.84 41.84 0 0 1-13.28 2.15c-7.4 0-13.07-2.04-17-6.13-3.93-4.1-5.9-10.24-5.9-18.42v-42.65h-15.1v-12.78h15.1v-22.54h15.43v22.56h20.91v12.78zm89.42 25.9v2.64c0 .89-.06 1.78-.16 2.66h-62.4c.12 3.32.86 6.45 2.25 9.37a24.66 24.66 0 0 0 5.55 7.63 25.79 25.79 0 0 0 17.75 6.9c5.32 0 9.9-1.17 13.77-3.48a28.1 28.1 0 0 0 9.13-8.48l10.95 8.8c-4.2 5.53-9.15 9.6-14.84 12.2a45.24 45.24 0 0 1-19 3.89c-5.98 0-11.5-.99-16.6-2.98a38.34 38.34 0 0 1-13.12-8.38 38.83 38.83 0 0 1-8.62-13.03 43.92 43.92 0 0 1-3.15-16.92c0-6.08 1.02-11.7 3.07-16.84a38.54 38.54 0 0 1 8.55-13.2A39.13 39.13 0 0 1 661.7 145a41.9 41.9 0 0 1 16.1-3.07c5.75 0 10.99.94 15.69 2.82 4.7 1.89 8.67 4.6 11.94 8.13a36.63 36.63 0 0 1 7.55 12.86 51.05 51.05 0 0 1 2.65 17zm-15.76-6.31c-.11-3.1-.63-6-1.57-8.71a20 20 0 0 0-4.15-7.07 19.5 19.5 0 0 0-6.8-4.72 24.08 24.08 0 0 0-9.55-1.73 25.22 25.22 0 0 0-17 6.46 24.91 24.91 0 0 0-5.32 7.06 22.58 22.58 0 0 0-2.4 8.7h46.79zm37.5-15.44a253.78 253.78 0 0 0-.66-16.93h14.76c.23 2 .4 4.3.5 6.9.12 2.6.16 4.73.16 6.39h.5a27.22 27.22 0 0 1 9.72-11.22 25.42 25.42 0 0 1 14.35-4.22c2.43 0 4.48.22 6.13.67l-.66 14.43c-2.21-.56-4.6-.83-7.13-.83-3.77 0-7.03.7-9.79 2.07a19.99 19.99 0 0 0-6.9 5.56 23.5 23.5 0 0 0-4.05 8.05 33.98 33.98 0 0 0-1.34 9.53v41.33H737.4V161zm75.83 61.73h-15.6v-78.65h15.59v78.65zm2.66-107.02a9.26 9.26 0 0 1-3.08 7.13 10.54 10.54 0 0 1-7.38 2.82 10.08 10.08 0 0 1-7.3-2.9 9.46 9.46 0 0 1-2.98-7.05c0-2.88.98-5.28 2.98-7.22a10.08 10.08 0 0 1 7.3-2.9c2.88 0 5.33.97 7.38 2.9a9.53 9.53 0 0 1 3.08 7.22zm80.62 41.14l-44.8 52.77h46.64v13.1h-65.87v-12.77l44.46-53.1h-42.31v-12.78h61.88v12.78zm93.93 25.9v2.64c0 .89-.06 1.78-.17 2.66h-62.39c.11 3.32.85 6.45 2.24 9.37a24.66 24.66 0 0 0 5.55 7.63 25.79 25.79 0 0 0 17.76 6.9c5.3 0 9.9-1.17 13.77-3.48a28.1 28.1 0 0 0 9.12-8.48l10.96 8.8c-4.2 5.53-9.15 9.6-14.86 12.2a45.24 45.24 0 0 1-18.99 3.89c-5.97 0-11.5-.99-16.59-2.98a38.34 38.34 0 0 1-13.12-8.38 38.83 38.83 0 0 1-8.62-13.03 43.92 43.92 0 0 1-3.15-16.92c0-6.08 1.02-11.7 3.07-16.84a38.54 38.54 0 0 1 8.55-13.2 39.13 39.13 0 0 1 12.93-8.54 41.9 41.9 0 0 1 16.1-3.07c5.75 0 10.99.94 15.68 2.82a32.4 32.4 0 0 1 11.95 8.13 36.63 36.63 0 0 1 7.54 12.86 51.05 51.05 0 0 1 2.67 17zm-15.76-6.31c-.12-3.1-.64-6-1.57-8.71a20 20 0 0 0-4.15-7.07 19.5 19.5 0 0 0-6.8-4.72 24.08 24.08 0 0 0-9.55-1.73 25.22 25.22 0 0 0-17 6.46 24.91 24.91 0 0 0-5.32 7.06 22.38 22.38 0 0 0-2.4 8.7h46.79z"/></svg>