<?xml version="1.0" encoding="utf-8"?>
<svg viewBox="0 0 1000 330" xmlns="http://www.w3.org/2000/svg">
  <path fill="#164B6F" fill-rule="evenodd" d="M67.2 223.86a8.4 8.4 0 0 1 0-16.82h55.5a91.87 91.87 0 0 1-6.62-16.82H32.45a8.4 8.4 0 1 1 0-16.81h112.1a8.4 8.4 0 0 0 0-16.82H50.4a8.4 8.4 0 0 1 0-16.81h65.7a91.87 91.87 0 0 1 6.6-16.82H78.42a8.4 8.4 0 0 1 0-16.82H183.8a8.4 8.4 0 0 0 0-16.81h-26.91a8.4 8.4 0 0 1 0-16.82h48.2a92.49 92.49 0 1 1 0 184.98h-66.14a8.4 8.4 0 0 1 0-16.82h15.7a8.4 8.4 0 0 0 0-16.81H67.2zm34.2-142.94a8.4 8.4 0 0 0 8.4 8.4h13.46a8.4 8.4 0 0 0 0-16.81H109.8a8.4 8.4 0 0 0-8.4 8.4zm-83.53 58.86a8.41 8.41 0 1 0 .02 16.82 8.41 8.41 0 0 0-.02-16.82zm87.45 100.9a8.41 8.41 0 1 0 .01 16.82 8.41 8.41 0 0 0-.01-16.83zm63.34-30.28l15.92-65.25c3.59-14.74 18.79-26.68 33.95-26.68h30.85l-7.23 17.17a7.31 7.31 0 0 1-6.22 4.14H213.5a7.95 7.95 0 0 0-7.18 5.38l-4.03 13.67h22.42l-4.14 13.84c-1.43 4.74-6.6 8.59-11.55 8.59h-7.85a4.6 4.6 0 0 0-4.24 3.25l-3.3 12.24c-2.02 7.54-10 13.65-17.8 13.65h-7.17zm241.03-53.54h-18.27v65.88h-15.58v-65.88h-15.6v-12.78h15.6v-16.41c0-4.65.52-8.94 1.57-12.86a26.44 26.44 0 0 1 5.15-10.2 24.73 24.73 0 0 1 9.12-6.8c3.7-1.67 8.22-2.5 13.53-2.5 3.76 0 7.02.38 9.79 1.16l-1.83 13.44c-1.22-.34-2.43-.6-3.65-.83a22.92 22.92 0 0 0-4.15-.34c-2.98 0-5.38.53-7.21 1.58a11.1 11.1 0 0 0-4.24 4.23 17.38 17.38 0 0 0-1.98 6.05 48.66 48.66 0 0 0-.5 7.07v16.42h18.25v12.78zm63.38 14.93c0-5.86-1.77-10.2-5.31-13.01-3.55-2.83-8.24-4.24-14.1-4.24-4.42 0-8.6.86-12.53 2.58a31.73 31.73 0 0 0-9.87 6.55l-8.3-9.96a41.88 41.88 0 0 1 14.19-8.63 50.7 50.7 0 0 1 18-3.14c5.64 0 10.53.78 14.68 2.4a27.77 27.77 0 0 1 10.2 6.56 26.85 26.85 0 0 1 5.98 9.78 36.13 36.13 0 0 1 2 12.11v34.35c0 2.66.07 5.45.24 8.38.17 2.93.47 5.33.9 7.22h-14.1a49.1 49.1 0 0 1-1.32-11.28h-.5a30.2 30.2 0 0 1-10.87 9.79c-4.37 2.32-9.53 3.47-15.51 3.47-3.1 0-6.33-.4-9.7-1.23a28.21 28.21 0 0 1-9.22-4.07 22.96 22.96 0 0 1-6.88-7.47c-1.83-3.1-2.73-6.92-2.73-11.45 0-5.97 1.6-10.7 4.8-14.19 3.21-3.47 7.42-6.13 12.62-7.96a71.21 71.21 0 0 1 17.59-3.56c6.52-.56 13.1-.83 19.73-.83v-2.17zm-3.81 13.46c-3.88 0-7.9.15-12.04.49s-7.9.99-11.28 1.98c-3.36 1-6.17 2.5-8.37 4.49-2.22 1.98-3.32 4.64-3.32 7.96 0 2.32.47 4.26 1.4 5.8a11.72 11.72 0 0 0 3.73 3.82 15.02 15.02 0 0 0 5.16 2.08c1.87.38 3.81.57 5.8.57 7.3 0 12.9-2.17 16.83-6.54s5.9-9.87 5.9-16.52v-4.14h-3.81zM556.52 164a20.4 20.4 0 0 0-7.46-7.06 21.41 21.41 0 0 0-10.79-2.72c-1.77 0-3.54.19-5.3.57a16 16 0 0 0-4.73 1.82 10.09 10.09 0 0 0-3.32 3.15 8.48 8.48 0 0 0-1.24 4.74 7.87 7.87 0 0 0 4.48 7.38c2.98 1.6 7.46 3.08 13.43 4.4a84.7 84.7 0 0 1 10.46 3.15 32.74 32.74 0 0 1 8.38 4.56 19.68 19.68 0 0 1 5.56 6.56 19.11 19.11 0 0 1 1.98 8.96c0 4.64-.89 8.57-2.65 11.77a23.04 23.04 0 0 1-7.06 7.9 28.91 28.91 0 0 1-10.03 4.39 50.4 50.4 0 0 1-11.62 1.32 45.96 45.96 0 0 1-17.5-3.48 34.26 34.26 0 0 1-14.19-10.62l11.12-9.46a25.46 25.46 0 0 0 8.71 7.8 24.3 24.3 0 0 0 12.2 3.16c1.98 0 3.9-.2 5.72-.59a16.4 16.4 0 0 0 4.97-1.9 10.25 10.25 0 0 0 3.58-3.49 10.3 10.3 0 0 0 1.32-5.48c0-3.64-1.73-6.36-5.22-8.13-3.49-1.77-8.6-3.43-15.36-4.98a94.1 94.1 0 0 1-8.04-2.4 27.06 27.06 0 0 1-7.39-3.9 19.53 19.53 0 0 1-5.38-6.22c-1.39-2.49-2.08-5.56-2.08-9.21 0-4.2.86-7.83 2.58-10.87a22.4 22.4 0 0 1 6.72-7.46 29.63 29.63 0 0 1 9.45-4.32 42.48 42.48 0 0 1 27.3 1.9c5.26 2.23 9.32 5.43 12.19 9.64L556.52 164zm69.7-7.14H605.3v40.99c0 4.75.9 8.16 2.66 10.2 1.77 2.05 4.6 3.07 8.46 3.07 1.44 0 2.99-.17 4.65-.5 1.65-.33 3.16-.82 4.48-1.5l.5 12.79a41.84 41.84 0 0 1-13.28 2.15c-7.4 0-13.07-2.04-17-6.13-3.93-4.1-5.9-10.24-5.9-18.42v-42.65h-15.1v-12.78h15.1v-22.54h15.43v22.56h20.91v12.78zm89.42 25.9v2.64c0 .89-.06 1.78-.16 2.66h-62.4c.12 3.32.86 6.45 2.25 9.37a24.66 24.66 0 0 0 5.55 7.63 25.79 25.79 0 0 0 17.75 6.9c5.32 0 9.9-1.17 13.77-3.48a28.1 28.1 0 0 0 9.13-8.48l10.95 8.8c-4.2 5.53-9.15 9.6-14.84 12.2a45.24 45.24 0 0 1-19 3.89c-5.98 0-11.5-.99-16.6-2.98a38.34 38.34 0 0 1-13.12-8.38 38.83 38.83 0 0 1-8.62-13.03 43.92 43.92 0 0 1-3.15-16.92c0-6.08 1.02-11.7 3.07-16.84a38.54 38.54 0 0 1 8.55-13.2A39.13 39.13 0 0 1 661.7 145a41.9 41.9 0 0 1 16.1-3.07c5.75 0 10.99.94 15.69 2.82 4.7 1.89 8.67 4.6 11.94 8.13a36.63 36.63 0 0 1 7.55 12.86 51.05 51.05 0 0 1 2.65 17zm-15.76-6.31c-.11-3.1-.63-6-1.57-8.71a20 20 0 0 0-4.15-7.07 19.5 19.5 0 0 0-6.8-4.72 24.08 24.08 0 0 0-9.55-1.73 25.22 25.22 0 0 0-17 6.46 24.91 24.91 0 0 0-5.32 7.06 22.58 22.58 0 0 0-2.4 8.7h46.79zm37.5-15.44a253.78 253.78 0 0 0-.66-16.93h14.76c.23 2 .4 4.3.5 6.9.12 2.6.16 4.73.16 6.39h.5a27.22 27.22 0 0 1 9.72-11.22 25.42 25.42 0 0 1 14.35-4.22c2.43 0 4.48.22 6.13.67l-.66 14.43c-2.21-.56-4.6-.83-7.13-.83-3.77 0-7.03.7-9.79 2.07a19.99 19.99 0 0 0-6.9 5.56 23.5 23.5 0 0 0-4.05 8.05 33.98 33.98 0 0 0-1.34 9.53v41.33H737.4V161zm75.83 61.73h-15.6v-78.65h15.59v78.65zm2.66-107.02a9.26 9.26 0 0 1-3.08 7.13 10.54 10.54 0 0 1-7.38 2.82 10.08 10.08 0 0 1-7.3-2.9 9.46 9.46 0 0 1-2.98-7.05c0-2.88.98-5.28 2.98-7.22a10.08 10.08 0 0 1 7.3-2.9c2.88 0 5.33.97 7.38 2.9a9.53 9.53 0 0 1 3.08 7.22zm80.62 41.14l-44.8 52.77h46.64v13.1h-65.87v-12.77l44.46-53.1h-42.31v-12.78h61.88v12.78zm93.93 25.9v2.64c0 .89-.06 1.78-.17 2.66h-62.39c.11 3.32.85 6.45 2.24 9.37a24.66 24.66 0 0 0 5.55 7.63 25.79 25.79 0 0 0 17.76 6.9c5.3 0 9.9-1.17 13.77-3.48a28.1 28.1 0 0 0 9.12-8.48l10.96 8.8c-4.2 5.53-9.15 9.6-14.86 12.2a45.24 45.24 0 0 1-18.99 3.89c-5.97 0-11.5-.99-16.59-2.98a38.34 38.34 0 0 1-13.12-8.38 38.83 38.83 0 0 1-8.62-13.03 43.92 43.92 0 0 1-3.15-16.92c0-6.08 1.02-11.7 3.07-16.84a38.54 38.54 0 0 1 8.55-13.2 39.13 39.13 0 0 1 12.93-8.54 41.9 41.9 0 0 1 16.1-3.07c5.75 0 10.99.94 15.68 2.82a32.4 32.4 0 0 1 11.95 8.13 36.63 36.63 0 0 1 7.54 12.86 51.05 51.05 0 0 1 2.67 17zm-15.76-6.31c-.12-3.1-.64-6-1.57-8.71a20 20 0 0 0-4.15-7.07 19.5 19.5 0 0 0-6.8-4.72 24.08 24.08 0 0 0-9.55-1.73 25.22 25.22 0 0 0-17 6.46 24.91 24.91 0 0 0-5.32 7.06 22.38 22.38 0 0 0-2.4 8.7h46.79z"/>
  <g transform="matrix(0.251383, -0.076856, 0.076856, 0.251383, -58.974899, -13.081393)" style="">
    <rect x="44.56" y="466.001" width="1291.001" height="233" style="paint-order: fill; vector-effect: non-scaling-stroke; stroke-width: 50px; stroke-miterlimit: 7; fill: rgb(237, 56, 51);" transform="matrix(1, -0.000011, 0.000011, 1, 55.434875, 334.013702)"/>
    <path d="M 224.56 974.797 C 213.447 974.797 203.873 972.187 195.84 966.967 C 187.8 961.747 181.593 954.524 177.22 945.297 C 172.853 936.077 170.67 925.54 170.67 913.687 L 170.67 911.237 C 170.67 899.384 172.853 888.847 177.22 879.627 C 181.593 870.4 187.8 863.157 195.84 857.897 C 203.873 852.637 213.373 850.007 224.34 850.007 C 235.453 850.007 245.03 852.637 253.07 857.897 C 261.103 863.157 267.307 870.38 271.68 879.567 C 276.053 888.754 278.24 899.31 278.24 911.237 L 278.24 913.687 C 278.24 925.614 276.053 936.187 271.68 945.407 C 267.307 954.634 261.12 961.837 253.12 967.017 C 245.12 972.204 235.6 974.797 224.56 974.797 Z M 224.56 957.687 C 231.527 957.687 237.36 955.78 242.06 951.967 C 246.767 948.147 250.323 942.924 252.73 936.297 C 255.137 929.664 256.34 922.127 256.34 913.687 L 256.34 911.237 C 256.34 902.79 255.137 895.254 252.73 888.627 C 250.323 881.994 246.75 876.77 242.01 872.957 C 237.27 869.144 231.38 867.237 224.34 867.237 C 217.373 867.237 211.52 869.144 206.78 872.957 C 202.04 876.77 198.483 881.994 196.11 888.627 C 193.743 895.254 192.56 902.79 192.56 911.237 L 192.56 913.687 C 192.56 922.127 193.743 929.664 196.11 936.297 C 198.483 942.924 202.06 948.147 206.84 951.967 C 211.62 955.78 217.527 957.687 224.56 957.687 ZM 353.233 972.467 L 295.113 972.467 L 295.113 958.467 L 313.233 955.357 L 313.233 869.457 L 295.113 866.347 L 295.113 852.227 L 332.783 852.227 L 334.343 870.127 C 338.343 863.754 343.363 858.807 349.403 855.287 C 355.436 851.767 362.306 850.007 370.013 850.007 C 382.979 850.007 393.016 853.804 400.123 861.397 C 407.236 868.99 410.793 880.714 410.793 896.567 L 410.793 955.357 L 428.913 958.467 L 428.913 972.467 L 370.793 972.467 L 370.793 958.467 L 388.903 955.357 L 388.903 897.017 C 388.903 886.424 386.809 878.904 382.623 874.457 C 378.436 870.01 372.046 867.787 363.453 867.787 C 357.159 867.787 351.586 869.307 346.733 872.347 C 341.879 875.38 338.009 879.527 335.123 884.787 L 335.123 955.357 L 353.233 958.467 L 353.233 972.467 ZM 558.797 972.467 L 500.677 972.467 L 500.677 958.467 L 518.787 955.357 L 518.787 869.457 L 500.677 866.347 L 500.677 852.227 L 538.347 852.227 L 540.237 867.567 L 540.457 869.677 C 543.864 863.53 548.07 858.714 553.077 855.227 C 558.077 851.747 563.797 850.007 570.237 850.007 C 572.537 850.007 574.89 850.21 577.297 850.617 C 579.704 851.024 581.427 851.414 582.467 851.787 L 579.577 872.127 L 564.347 871.237 C 558.574 870.864 553.724 872.177 549.797 875.177 C 545.87 878.177 542.834 882.197 540.687 887.237 L 540.687 955.357 L 558.797 958.467 L 558.797 972.467 ZM 648.356 974.797 C 637.243 974.797 627.573 972.26 619.346 967.187 C 611.126 962.114 604.776 955.057 600.296 946.017 C 595.81 936.984 593.566 926.54 593.566 914.687 L 593.566 909.797 C 593.566 898.384 595.92 888.177 600.626 879.177 C 605.333 870.177 611.593 863.067 619.406 857.847 C 627.22 852.62 635.756 850.007 645.016 850.007 C 655.836 850.007 664.893 852.23 672.186 856.677 C 679.486 861.124 684.986 867.364 688.686 875.397 C 692.393 883.437 694.246 892.904 694.246 903.797 L 694.246 917.457 L 616.236 917.457 L 615.906 918.017 C 616.053 925.724 617.403 932.557 619.956 938.517 C 622.516 944.484 626.203 949.17 631.016 952.577 C 635.83 955.984 641.61 957.687 648.356 957.687 C 655.763 957.687 662.263 956.63 667.856 954.517 C 673.45 952.41 678.283 949.504 682.356 945.797 L 690.916 960.017 C 686.616 964.17 680.93 967.674 673.856 970.527 C 666.783 973.374 658.283 974.797 648.356 974.797 Z M 616.686 899.797 L 616.906 900.347 L 672.356 900.347 L 672.356 897.457 C 672.356 891.677 671.336 886.51 669.296 881.957 C 667.263 877.404 664.226 873.81 660.186 871.177 C 656.153 868.55 651.096 867.237 645.016 867.237 C 640.13 867.237 635.686 868.66 631.686 871.507 C 627.686 874.36 624.39 878.234 621.796 883.127 C 619.203 888.014 617.5 893.57 616.686 899.797 ZM 770.021 974.797 C 759.135 974.797 749.651 972.26 741.571 967.187 C 733.498 962.114 727.241 955.057 722.801 946.017 C 718.355 936.984 716.131 926.54 716.131 914.687 L 716.131 910.017 C 716.131 898.61 718.278 888.387 722.571 879.347 C 726.871 870.307 733.058 863.157 741.131 857.897 C 749.205 852.637 758.835 850.007 770.021 850.007 C 779.728 850.007 788.231 851.6 795.531 854.787 C 802.825 857.974 808.955 862.344 813.921 867.897 L 814.471 896.787 L 797.361 896.787 L 793.581 875.787 C 791.061 873.194 787.915 871.12 784.141 869.567 C 780.361 868.014 775.915 867.237 770.801 867.237 C 764.281 867.237 758.558 869.16 753.631 873.007 C 748.705 876.86 744.871 882.01 742.131 888.457 C 739.391 894.904 738.021 902.09 738.021 910.017 L 738.021 914.687 C 738.021 923.427 739.298 931.02 741.851 937.467 C 744.411 943.907 748.078 948.887 752.851 952.407 C 757.631 955.927 763.318 957.687 769.911 957.687 C 777.318 957.687 783.468 955.65 788.361 951.577 C 793.248 947.504 796.248 941.91 797.361 934.797 L 817.031 934.797 L 817.251 935.467 C 816.878 942.354 814.841 948.797 811.141 954.797 C 807.435 960.797 802.155 965.63 795.301 969.297 C 788.448 972.964 780.021 974.797 770.021 974.797 ZM 892.141 972.467 L 834.021 972.467 L 834.021 958.467 L 852.131 955.357 L 852.131 869.457 L 834.021 866.347 L 834.021 852.227 L 871.691 852.227 L 873.581 867.567 L 873.801 869.677 C 877.207 863.53 881.414 858.714 886.421 855.227 C 891.421 851.747 897.141 850.007 903.581 850.007 C 905.881 850.007 908.234 850.21 910.641 850.617 C 913.047 851.024 914.771 851.414 915.811 851.787 L 912.921 872.127 L 897.691 871.237 C 891.917 870.864 887.067 872.177 883.141 875.177 C 879.214 878.177 876.177 882.197 874.031 887.237 L 874.031 955.357 L 892.141 958.467 L 892.141 972.467 ZM 982.032 974.797 C 968.992 974.797 958.806 970.614 951.472 962.247 C 944.139 953.874 940.472 940.834 940.472 923.127 L 940.472 869.457 L 926.692 866.347 L 926.692 852.227 L 940.472 852.227 L 962.362 852.227 L 962.362 923.347 C 962.362 936.167 964.252 944.984 968.032 949.797 C 971.806 954.61 977.696 957.017 985.702 957.017 C 993.476 957.017 999.899 955.444 1004.972 952.297 C 1010.052 949.15 1013.889 944.687 1016.482 938.907 L 1016.482 869.457 L 1000.362 866.347 L 1000.362 852.227 L 1016.482 852.227 L 1038.372 852.227 L 1038.372 955.357 L 1052.152 958.467 L 1052.152 972.467 L 1018.702 972.467 L 1017.252 954.687 C 1013.479 961.134 1008.609 966.097 1002.642 969.577 C 996.682 973.057 989.812 974.797 982.032 974.797 ZM 1109.92 974.357 C 1101.033 974.357 1093.977 971.744 1088.75 966.517 C 1083.53 961.297 1080.92 952.947 1080.92 941.467 L 1080.92 868.457 L 1061.92 868.457 L 1061.92 852.227 L 1080.92 852.227 L 1080.92 823.227 L 1102.81 823.227 L 1102.81 852.227 L 1128.92 852.227 L 1128.92 868.457 L 1102.81 868.457 L 1102.81 941.467 C 1102.81 947.24 1103.96 951.5 1106.26 954.247 C 1108.553 956.987 1111.627 958.357 1115.48 958.357 C 1118.073 958.357 1120.963 958.117 1124.15 957.637 C 1127.33 957.15 1129.81 956.724 1131.59 956.357 L 1134.59 970.687 C 1131.403 971.654 1127.497 972.507 1122.87 973.247 C 1118.237 973.987 1113.92 974.357 1109.92 974.357 ZM 1201.151 974.797 C 1190.038 974.797 1180.368 972.26 1172.141 967.187 C 1163.921 962.114 1157.571 955.057 1153.091 946.017 C 1148.605 936.984 1146.361 926.54 1146.361 914.687 L 1146.361 909.797 C 1146.361 898.384 1148.715 888.177 1153.421 879.177 C 1158.128 870.177 1164.388 863.067 1172.201 857.847 C 1180.015 852.62 1188.551 850.007 1197.811 850.007 C 1208.631 850.007 1217.688 852.23 1224.981 856.677 C 1232.281 861.124 1237.781 867.364 1241.481 875.397 C 1245.188 883.437 1247.041 892.904 1247.041 903.797 L 1247.041 917.457 L 1169.031 917.457 L 1168.701 918.017 C 1168.848 925.724 1170.198 932.557 1172.751 938.517 C 1175.311 944.484 1178.998 949.17 1183.811 952.577 C 1188.625 955.984 1194.405 957.687 1201.151 957.687 C 1208.558 957.687 1215.058 956.63 1220.651 954.517 C 1226.245 952.41 1231.078 949.504 1235.151 945.797 L 1243.711 960.017 C 1239.411 964.17 1233.725 967.674 1226.651 970.527 C 1219.578 973.374 1211.078 974.797 1201.151 974.797 Z M 1169.481 899.797 L 1169.701 900.347 L 1225.151 900.347 L 1225.151 897.457 C 1225.151 891.677 1224.131 886.51 1222.091 881.957 C 1220.058 877.404 1217.021 873.81 1212.981 871.177 C 1208.948 868.55 1203.891 867.237 1197.811 867.237 C 1192.925 867.237 1188.481 868.66 1184.481 871.507 C 1180.481 874.36 1177.185 878.234 1174.591 883.127 C 1171.998 888.014 1170.295 893.57 1169.481 899.797 ZM 1350.149 919.347 L 1328.259 919.347 L 1328.259 810.667 L 1350.149 810.667 L 1350.149 919.347 Z M 1350.149 972.467 L 1328.259 972.467 L 1328.259 949.797 L 1350.149 949.797 L 1350.149 972.467 Z" transform="matrix(1, 0, 0, 0.8612329363822937, -19.09375, 135.221923828125)" style="fill: rgb(255, 255, 255); line-height: 364.129px; white-space: pre;"/>
  </g>
</svg>