<svg xmlns="http://www.w3.org/2000/svg" viewBox="-18.1 -18.1 1590.2 638">
  <path fill="#ff282d" d="M872 0v363.4c0 71.3 17.6 103.9 94.3 103.9 18.2 0 43.2-4.7 62-8.8l-12.1-72.8c-12.8 2.7-24 2.4-32 2.6-33.6.8-30.7-10.2-30.7-41.9V209.7h64V149h-64V0Zm267.2 0h-81.5v467.3h121.8v-62h-40.3zM140 0C55.8 0 41.4 28.6 41.4 94.6v54.5L0 155.9v53.8h41.4v195.6H0v62h164v-62h-41V209.7h61.5V149H123v-47.2C123 73 130.5 70 160 70c8 0 14.4.4 27.2 2.4l11.2-66.3A349 349 0 0 0 139.9 0zm171 85.9v20.7h10v28.1h.6a167.7 167.7 0 1 0 116.9 308.6l14.7 24h86.1v-81.6h-19.5V132h-81.6v23.8a166.7 166.7 0 0 0-55.4-21h.4v-28.1h10V85.9Zm391.6 45.5c-76.5 0-122.5 27-122.5 95.7 0 72.6 56.7 97 128.2 109.3 38 7.7 49.6 15.4 49.6 31.4 0 11.6-6.6 33.4-47 33.4-14.6 0-42.5.5-69-4.7v-10.8H580v61c38 9.6 87.7 20.6 139 20.6 76.5 0 112.9-36.6 112.9-107.2 0-74.6-60.4-88.6-120.5-102.1-41.1-9-46.4-17.4-46.4-32.8 0-11 4.6-31 42.6-31 13.3 0 37.8 0 62.5 4.5v10.9h61.7V149c-38-9.7-77.4-17.7-129.3-17.7zM1386 149v60.5h40.1l-59.2 145.7-59.2-145.7h40.2V149h-168.3v60.5h40.2l104.5 257.2c-12 37-50.8 58.3-85 58.3-7.5 0-21.6-1.3-32.4-3.3l-7.3 74c16.7 4 41 6 59.1 6 74 0 122.6-67 152.1-138.4L1514 209.6h40.2v-60.5ZM357 213.1c43 2.3 77.6 36 81.3 78.5v2.8h-9.8v9.8h9.8v2.7a86.3 86.3 0 0 1-81.2 78.5V376h-9.8v9.5a86.3 86.3 0 0 1-81-81.6h9.6v-9.7h-9.6a86.3 86.3 0 0 1 81-81v9.7h9.8zm31.8 43.7-31.5 27.5a15 15 0 0 0-5.1-1c-8.5 0-15.4 7.2-15.4 15.9s6.9 15.8 15.4 15.8 15.4-7 15.4-15.8c0-1.7-.3-3.3-.7-4.8l28-31.4zM1523 405.5a30.7 30.7 0 1 0 0 61.6 30.8 30.8 0 1 0 0-61.6zm0 5.2a25.7 25.7 0 0 1 25.8 25.6 26 26 0 0 1-25.8 26 25.9 25.9 0 0 1-25.8-26 25.6 25.6 0 0 1 25.8-25.6zm-11.8 10.5v30.2h7v-9.1h4.2l6.3 9.1h8.5l-7.6-10.4c3.9-1.1 6.4-4.4 6.4-9.4 0-6.6-4.7-10.4-12.2-10.4zm7 6h5.6c3 0 5.1 1.3 5.1 4.4 0 3.4-2 4.6-5.2 4.6h-5.6z"/>
</svg>
