<?xml version="1.0" encoding="utf-8"?>
<svg viewBox="0 0 500 165" xmlns="http://www.w3.org/2000/svg">
  <defs>
    <linearGradient id="a" x1="87.25%" y1="15.5%" x2="9.4%" y2="93.1%">
      <stop offset="0.05" stop-color="#fff44f"/>
      <stop offset="0.37" stop-color="#ff980e"/>
      <stop offset="0.53" stop-color="#ff3647"/>
      <stop offset="0.7" stop-color="#e31587"/>
    </linearGradient>
    <radialGradient id="b" cx="87.4%" cy="-12.9%" r="128%" gradientTransform="translate(0.874,0),scale(0.8,1),translate(-0.87,0.129)">
      <stop offset="0.13" stop-color="#ffbd4f"/>
      <stop offset="0.28" stop-color="#ff980e"/>
      <stop offset="0.47" stop-color="#ff3750"/>
      <stop offset="0.78" stop-color="#eb0878"/>
      <stop offset="0.86" stop-color="#e50080"/>
    </radialGradient>
    <radialGradient id="c" cx="49%" cy="40%" r="128%" gradientTransform="translate(0.49,0.4),scale(0.82,1),translate(-0.49,-0.4)">
      <stop offset="0.3" stop-color="#960e18"/>
      <stop offset="0.35" stop-color="#b11927" stop-opacity=".74"/>
      <stop offset="0.43" stop-color="#db293d" stop-opacity=".34"/>
      <stop offset="0.5" stop-color="#f5334b" stop-opacity=".09"/>
      <stop offset="0.53" stop-color="#ff3750" stop-opacity="0"/>
    </radialGradient>
    <radialGradient id="d" cx="48%" cy="-12%" r="140%">
      <stop offset="0.13" stop-color="#fff44f"/>
      <stop offset="0.53" stop-color="#ff980e"/>
    </radialGradient>
    <radialGradient id="e" cx="22.76%" cy="110.11%" r="100%">
      <stop offset="0.35" stop-color="#3a8ee6"/>
      <stop offset="0.67" stop-color="#9059ff"/>
      <stop offset="1" stop-color="#c139e6"/>
    </radialGradient>
    <radialGradient id="f" cx="52%" cy="33%" r="59%" gradientTransform="scale(.9,1)">
      <stop offset="0.21" stop-color="#9059ff" stop-opacity="0"/>
      <stop offset="0.97" stop-color="#6e008b" stop-opacity=".6"/>
    </radialGradient>
    <radialGradient id="g" cx="210%" cy="-100%" r="290%">
      <stop offset="0.1" stop-color="#ffe226"/>
      <stop offset="0.79" stop-color="#ff7139"/>
    </radialGradient>
    <radialGradient id="h" cx="84%" cy="-41%" r="180%">
      <stop offset="0.11" stop-color="#fff44f"/>
      <stop offset="0.46" stop-color="#ff980e"/>
      <stop offset="0.72" stop-color="#ff3647"/>
      <stop offset="0.9" stop-color="#e31587"/>
    </radialGradient>
    <radialGradient id="i" cx="16.1%" cy="-18.6%" r="348.8%" gradientTransform="translate(0.16,-0.19),scale(1,0.47),rotate(84),translate(-0.16,0.19)">
      <stop offset="0" stop-color="#fff44f"/>
      <stop offset="0.3" stop-color="#ff980e"/>
      <stop offset="0.57" stop-color="#ff3647"/>
      <stop offset="0.74" stop-color="#e31587"/>
    </radialGradient>
    <radialGradient id="j" cx="18.9%" cy="-42.5%" r="238.4%">
      <stop offset="0.14" stop-color="#fff44f"/>
      <stop offset="0.48" stop-color="#ff980e"/>
      <stop offset="0.66" stop-color="#ff3647"/>
      <stop offset="0.9" stop-color="#e31587"/>
    </radialGradient>
    <radialGradient id="k" cx="159.3%" cy="-44.72%" r="313.1%">
      <stop offset="0.09" stop-color="#fff44f"/>
      <stop offset="0.63" stop-color="#ff980e"/>
    </radialGradient>
    <linearGradient id="l" x1="80%" y1="14%" x2="18%" y2="84%">
      <stop offset="0.17" stop-color="#fff44f" stop-opacity=".8"/>
      <stop offset="0.6" stop-color="#fff44f" stop-opacity="0"/>
    </linearGradient>
  </defs>
  <path id="shape-base" d="M 171.682 55.292 C 168.285 47.12 161.396 38.295 156 35.506 C 159.849 42.959 162.519 50.964 163.916 59.233 L 163.931 59.364 C 155.092 37.33 140.104 28.445 127.865 9.099 C 127.233 8.112 126.62 7.114 126.023 6.105 C 125.717 5.579 125.43 5.041 125.162 4.492 C 124.655 3.51 124.264 2.471 123.996 1.396 C 123.998 1.294 123.921 1.206 123.818 1.194 C 123.772 1.183 123.719 1.183 123.671 1.194 C 123.661 1.194 123.644 1.213 123.633 1.217 C 123.621 1.221 123.594 1.239 123.576 1.247 L 123.606 1.194 C 103.972 12.691 97.31 33.974 96.697 44.618 C 88.857 45.157 81.361 48.047 75.185 52.91 C 74.541 52.366 73.867 51.856 73.168 51.382 C 71.387 45.147 71.312 38.55 72.948 32.275 C 65.737 35.768 59.331 40.72 54.132 46.816 L 54.096 46.816 C 50.997 42.89 51.216 29.942 51.394 27.237 C 50.477 27.606 49.602 28.069 48.783 28.622 C 46.048 30.575 43.493 32.766 41.143 35.167 C 38.469 37.88 36.024 40.815 33.836 43.934 L 33.836 43.947 L 33.836 43.932 C 28.812 51.058 25.246 59.108 23.348 67.617 L 23.243 68.133 C 22.955 69.755 22.699 71.383 22.475 73.015 C 22.475 73.073 22.463 73.128 22.457 73.186 C 21.773 76.742 21.35 80.344 21.188 83.963 L 21.188 84.366 C 21.242 144.544 86.418 182.096 138.507 151.964 C 158.578 140.353 172.456 120.432 176.397 97.584 C 176.528 96.576 176.635 95.578 176.752 94.559 C 178.363 81.252 176.619 67.755 171.682 55.292 Z M 81.586 116.481 C 81.952 116.656 82.294 116.846 82.669 117.013 L 82.723 117.047 C 82.345 116.866 81.966 116.677 81.586 116.481 Z M 99.493 69.333 Z M 163.937 59.383 L 163.937 59.308 L 163.951 59.39 Z" fill="url(#a)" style=""/>
  <path id="body-outer-ring" d="M 171.682 55.292 C 168.285 47.12 161.396 38.295 156 35.506 C 159.849 42.959 162.519 50.964 163.916 59.233 L 163.916 59.308 L 163.931 59.39 C 169.957 76.633 169.085 95.536 161.498 112.148 C 152.539 131.371 130.853 151.075 96.908 150.116 C 60.231 149.078 27.931 121.862 21.892 86.215 C 20.793 80.594 21.892 77.744 22.444 73.176 C 21.692 76.725 21.271 80.336 21.188 83.963 L 21.188 84.366 C 21.242 144.544 86.418 182.096 138.507 151.964 C 158.578 140.353 172.456 120.432 176.397 97.584 C 176.528 96.576 176.635 95.578 176.752 94.559 C 178.363 81.252 176.619 67.755 171.682 55.292 Z" fill="url(#b)" style=""/>
  <path id="body-outer-ring-shadow" d="M 171.682 55.292 C 168.285 47.12 161.396 38.295 156 35.506 C 159.849 42.959 162.519 50.964 163.916 59.233 L 163.916 59.308 L 163.931 59.39 C 169.957 76.633 169.085 95.536 161.498 112.148 C 152.539 131.371 130.853 151.075 96.908 150.116 C 60.231 149.078 27.931 121.862 21.892 86.215 C 20.793 80.594 21.892 77.744 22.444 73.176 C 21.692 76.725 21.271 80.336 21.188 83.963 L 21.188 84.366 C 21.242 144.544 86.418 182.096 138.507 151.964 C 158.578 140.353 172.456 120.432 176.397 97.584 C 176.528 96.576 176.635 95.578 176.752 94.559 C 178.363 81.252 176.619 67.755 171.682 55.292 Z" fill="url(#c)" style=""/>
  <path id="tail-tip" d="M 133.695 64.481 C 133.864 64.6 134.022 64.719 134.181 64.838 C 132.219 61.357 129.774 58.169 126.921 55.368 C 102.624 31.069 120.552 2.681 123.576 1.239 L 123.606 1.194 C 103.972 12.691 97.31 33.974 96.697 44.618 C 97.609 44.556 98.512 44.479 99.444 44.479 C 113.626 44.506 126.705 52.141 133.695 64.481 Z" fill="url(#d)" style=""/>
  <path id="globe-base" d="M 99.495 69.333 C 99.366 71.277 92.496 77.985 90.094 77.985 C 67.865 77.985 64.257 91.431 64.257 91.431 C 65.241 102.754 73.131 112.08 82.669 117.013 C 83.105 117.236 83.545 117.445 83.989 117.643 C 84.755 117.982 85.52 118.294 86.283 118.583 C 89.557 119.742 92.986 120.403 96.455 120.545 C 135.415 122.372 142.963 73.955 114.847 59.905 C 121.481 59.042 128.197 60.673 133.695 64.481 C 126.705 52.141 113.626 44.506 99.444 44.479 C 98.516 44.479 97.609 44.556 96.697 44.618 C 88.857 45.157 81.361 48.047 75.185 52.91 C 76.377 53.919 77.722 55.266 80.556 58.059 C 85.86 63.285 99.464 68.699 99.495 69.333 Z" fill="url(#e)" style=""/>
  <path id="globe-shadow" d="M 99.495 69.333 C 99.366 71.277 92.496 77.985 90.094 77.985 C 67.865 77.985 64.257 91.431 64.257 91.431 C 65.241 102.754 73.131 112.08 82.669 117.013 C 83.105 117.236 83.545 117.445 83.989 117.643 C 84.755 117.982 85.52 118.294 86.283 118.583 C 89.557 119.742 92.986 120.403 96.455 120.545 C 135.415 122.372 142.963 73.955 114.847 59.905 C 121.481 59.042 128.197 60.673 133.695 64.481 C 126.705 52.141 113.626 44.506 99.444 44.479 C 98.516 44.479 97.609 44.556 96.697 44.618 C 88.857 45.157 81.361 48.047 75.185 52.91 C 76.377 53.919 77.722 55.266 80.556 58.059 C 85.86 63.285 99.464 68.699 99.495 69.333 Z" fill="url(#f)" style=""/>
  <path id="ear" d="M 71.54 50.311 C 72.085 50.657 72.624 51.014 73.154 51.382 C 71.372 45.147 71.298 38.55 72.934 32.275 C 65.723 35.768 59.318 40.72 54.118 46.816 C 54.499 46.807 65.839 46.604 71.54 50.311 Z" fill="url(#g)" style=""/>
  <path id="body" d="M 21.902 86.215 C 27.935 121.862 60.241 149.078 96.919 150.116 C 130.863 151.077 152.549 131.371 161.508 112.148 C 169.096 95.536 169.967 76.633 163.941 59.39 L 163.941 59.315 C 163.941 59.257 163.928 59.223 163.941 59.242 L 163.955 59.373 C 166.728 77.478 157.518 95.019 143.122 106.881 L 143.077 106.981 C 115.027 129.826 88.181 120.765 82.748 117.066 C 82.369 116.884 81.989 116.695 81.611 116.499 C 65.255 108.682 58.499 93.781 59.947 81.002 C 52.016 81.118 44.759 76.554 41.43 69.354 C 50.161 64.007 61.04 63.569 70.168 68.2 C 79.426 72.404 89.961 72.817 99.518 69.354 C 99.488 68.719 85.884 63.303 80.58 58.079 C 77.746 55.285 76.4 53.94 75.209 52.931 C 74.566 52.386 73.892 51.875 73.192 51.401 C 72.657 51.041 72.121 50.683 71.578 50.33 C 65.877 46.623 54.538 46.827 54.162 46.837 L 54.126 46.837 C 51.028 42.911 51.246 29.961 51.423 27.257 C 50.508 27.626 49.633 28.09 48.814 28.643 C 46.079 30.595 43.524 32.785 41.174 35.188 C 38.489 37.894 36.034 40.819 33.836 43.934 L 33.836 43.947 L 33.836 43.932 C 28.812 51.058 25.246 59.108 23.348 67.617 C 23.309 67.777 20.533 79.919 21.902 86.215 Z" fill="url(#h)" style=""/>
  <path id="tail-flame" d="M 126.925 55.368 C 129.778 58.173 132.223 61.363 134.186 64.848 C 134.591 65.151 134.982 65.471 135.357 65.808 C 153.079 82.145 143.794 105.239 143.102 106.883 C 157.499 95.021 166.7 77.48 163.935 59.375 C 155.092 37.33 140.104 28.445 127.865 9.099 C 127.233 8.112 126.62 7.114 126.023 6.105 C 125.717 5.579 125.43 5.041 125.162 4.492 C 124.655 3.51 124.264 2.471 123.996 1.396 C 123.998 1.294 123.921 1.206 123.818 1.194 C 123.772 1.183 123.719 1.183 123.671 1.194 C 123.661 1.194 123.644 1.213 123.633 1.217 C 123.621 1.221 123.594 1.239 123.576 1.247 C 120.552 2.681 102.624 31.069 126.925 55.368 Z" fill="url(#i)" style=""/>
  <path id="tail-small" d="M 135.345 65.798 C 134.97 65.461 134.579 65.141 134.173 64.838 C 134.014 64.719 133.856 64.6 133.687 64.481 C 128.189 60.673 121.473 59.042 114.839 59.905 C 142.955 73.963 135.411 122.372 96.447 120.545 C 92.978 120.403 89.549 119.742 86.275 118.583 C 85.511 118.296 84.747 117.983 83.981 117.643 C 83.536 117.445 83.097 117.236 82.661 117.013 L 82.715 117.047 C 88.15 120.756 114.986 129.818 143.046 106.963 L 143.09 106.862 C 143.79 105.228 153.075 82.129 135.345 65.798 Z" fill="url(#j)" style=""/>
  <path id="cheek-tufts" d="M 64.257 91.431 C 64.257 91.431 67.865 77.985 90.094 77.985 C 92.496 77.985 99.372 71.277 99.495 69.333 C 89.936 72.797 79.402 72.383 70.145 68.18 C 61.015 63.55 50.136 63.987 41.405 69.333 C 44.736 76.534 51.993 81.098 59.923 80.981 C 58.474 93.763 65.232 108.663 81.586 116.479 C 81.952 116.654 82.294 116.843 82.669 117.011 C 73.123 112.08 65.241 102.754 64.257 91.431 Z" fill="url(#k)" style=""/>
  <path id="overlay-yellow" d="M 171.682 55.292 C 168.285 47.12 161.396 38.295 156 35.506 C 159.849 42.959 162.519 50.964 163.916 59.233 L 163.931 59.364 C 155.092 37.33 140.104 28.445 127.865 9.099 C 127.233 8.112 126.62 7.114 126.023 6.105 C 125.717 5.579 125.43 5.041 125.162 4.492 C 124.655 3.51 124.264 2.471 123.996 1.396 C 123.998 1.294 123.921 1.206 123.818 1.194 C 123.772 1.183 123.719 1.183 123.671 1.194 C 123.661 1.194 123.644 1.213 123.633 1.217 C 123.621 1.221 123.594 1.239 123.576 1.247 L 123.606 1.194 C 103.972 12.691 97.31 33.974 96.697 44.618 C 97.609 44.556 98.512 44.479 99.444 44.479 C 113.626 44.506 126.705 52.141 133.695 64.481 C 128.197 60.673 121.481 59.042 114.847 59.905 C 142.963 73.963 135.419 122.372 96.455 120.545 C 92.986 120.403 89.557 119.742 86.283 118.583 C 85.52 118.296 84.755 117.983 83.989 117.643 C 83.545 117.445 83.105 117.236 82.669 117.013 L 82.723 117.047 C 82.345 116.866 81.966 116.677 81.586 116.481 C 81.952 116.656 82.294 116.846 82.669 117.013 C 73.123 112.08 65.241 102.754 64.257 91.431 C 64.257 91.431 67.865 77.985 90.094 77.985 C 92.496 77.985 99.372 71.277 99.495 69.333 C 99.464 68.699 85.86 63.283 80.556 58.059 C 77.722 55.266 76.377 53.921 75.185 52.91 C 74.541 52.366 73.867 51.856 73.168 51.382 C 71.387 45.147 71.312 38.55 72.948 32.275 C 65.737 35.768 59.331 40.72 54.132 46.816 L 54.096 46.816 C 50.997 42.89 51.216 29.942 51.394 27.237 C 50.477 27.606 49.602 28.069 48.783 28.622 C 46.048 30.575 43.493 32.766 41.143 35.167 C 38.469 37.88 36.024 40.815 33.836 43.934 L 33.836 43.947 L 33.836 43.932 C 28.812 51.058 25.246 59.108 23.348 67.617 L 23.243 68.133 C 23.096 68.821 22.436 72.315 22.342 73.065 C 22.342 73.121 22.342 73.007 22.342 73.065 C 21.739 76.671 21.354 80.31 21.188 83.963 L 21.188 84.366 C 21.242 144.544 86.418 182.096 138.507 151.964 C 158.578 140.353 172.456 120.432 176.397 97.584 C 176.528 96.576 176.635 95.578 176.752 94.559 C 178.363 81.252 176.619 67.755 171.682 55.292 Z M 163.926 59.308 L 163.941 59.39 Z" fill="url(#l)" style=""/>
  <path d="M 212.189 25.335 L 244.641 25.335 L 244.641 34.109 L 221.499 34.109 L 221.499 46.009 L 244.641 46.009 L 244.641 54.713 L 221.499 54.713 L 221.499 73.853 L 212.189 73.853 Z M 255.68 21.947 C 258.719 21.848 261.198 24.355 261.065 27.393 C 261.117 31.565 256.633 34.228 252.995 32.186 C 251.305 31.238 250.25 29.462 250.226 27.526 C 250.116 24.449 252.603 21.908 255.68 21.951 Z M 251.091 37.963 L 260.268 37.963 L 260.268 73.847 L 251.091 73.847 Z M 286.867 47.93 C 285.596 46.928 284.031 46.367 282.412 46.335 C 278.686 46.335 276.563 48.727 276.563 53.977 L 276.563 73.847 L 267.452 73.847 L 267.452 37.963 L 276.163 37.963 L 276.163 43.146 C 277.496 39.619 280.981 37.378 284.743 37.63 C 286.92 37.63 289.047 38.28 290.848 39.497 Z M 290.656 56.102 C 290.365 45.712 298.751 37.152 309.144 37.23 C 319.44 36.785 327.93 45.207 327.564 55.506 L 327.564 59.294 L 299.634 59.294 C 300.576 63.937 304.821 67.154 309.543 66.802 C 313.296 66.919 316.776 64.844 318.454 61.486 L 326.1 66.072 C 322.413 71.707 316.001 74.949 309.277 74.577 C 297.639 74.577 290.656 66.802 290.656 56.102 Z M 299.767 52.051 L 318.654 52.051 C 317.697 47.614 313.601 44.572 309.077 44.939 C 304.675 44.782 300.774 47.76 299.767 52.051 Z M 329.818 37.963 L 336.273 37.963 L 336.273 36.168 C 336.273 26.4 340.396 22.346 349.439 22.346 L 352.63 22.346 L 352.63 30.254 L 350.039 30.254 C 345.781 30.254 344.851 31.714 344.851 36.168 L 344.851 37.963 L 352.63 37.963 L 352.63 46.202 L 345.051 46.202 L 345.051 73.847 L 336.273 73.847 L 336.273 46.202 L 329.818 46.202 Z M 354.356 55.913 C 354.189 45.498 362.7 37.023 373.114 37.239 C 387.49 37.089 396.635 52.557 389.578 65.082 C 386.234 71.013 379.925 74.656 373.114 74.585 C 362.634 74.965 354.024 66.387 354.362 55.905 Z M 382.95 55.913 C 383.194 48.338 375.145 43.34 368.46 46.918 C 365.162 48.685 363.148 52.172 363.268 55.913 C 363.025 63.488 371.075 68.487 377.757 64.908 C 381.058 63.142 383.071 59.654 382.95 55.913 Z M 404.228 55.51 L 391.262 37.963 L 402.034 37.963 L 409.682 48.993 L 417.528 37.963 L 428.103 37.963 L 414.943 55.431 L 428.772 73.839 L 418.066 73.839 L 409.489 62.141 L 401.177 73.839 L 390.471 73.839 Z M 241.823 113.227 C 245.922 111.358 248.501 107.215 248.368 102.712 C 248.368 94.86 242.295 89.803 233.12 89.803 L 212.068 89.803 L 212.068 138.387 L 233.794 138.387 C 243.106 138.387 249.38 133.197 249.38 124.672 C 249.607 119.623 246.555 115.003 241.823 113.227 Z M 217.667 94.86 L 233.053 94.86 C 239.056 94.86 242.767 98.052 242.767 102.712 C 242.767 107.37 239.53 110.832 233.525 110.832 L 217.667 110.832 Z M 233.727 133.263 L 217.667 133.263 L 217.667 115.957 L 233.457 115.957 C 240.204 115.957 243.713 119.484 243.713 124.611 C 243.713 129.668 239.8 133.263 233.727 133.263 Z M 261.402 109.234 L 261.402 102.446 L 256.071 102.446 L 256.071 138.387 L 261.537 138.387 L 261.537 118.685 C 261.537 110.765 265.044 107.304 271.117 107.304 C 272.68 107.241 274.227 107.634 275.571 108.436 L 277.866 103.246 C 275.993 102.278 273.901 101.818 271.793 101.913 C 267.035 101.588 262.698 104.644 261.402 109.234 Z M 297.028 101.714 C 282.632 101.909 273.843 117.616 281.214 129.988 C 288.581 142.36 306.578 142.113 313.607 129.548 C 315.168 126.759 315.987 123.615 315.987 120.418 C 316.059 109.956 307.482 101.495 297.021 101.714 Z M 297.028 133.927 C 286.603 133.708 280.324 122.282 285.73 113.362 C 288.132 109.397 292.393 106.937 297.028 106.838 C 307.455 106.965 313.835 118.332 308.511 127.298 C 306.1 131.357 301.75 133.871 297.028 133.927 Z M 360.392 130.733 L 349.518 102.446 L 344.391 102.446 L 333.257 130.932 L 324.083 102.446 L 318.278 102.446 L 330.222 138.387 L 335.624 138.387 L 346.823 109.902 L 358.011 138.387 L 363.005 138.387 L 375.623 102.446 L 369.889 102.446 Z M 395.142 117.623 C 389.475 116.491 385.088 115.759 385.088 112.034 C 385.088 108.704 387.382 106.307 392.983 106.307 C 396.901 106.149 400.643 107.943 402.97 111.1 L 407.559 108.038 C 403.985 103.724 398.579 101.354 392.983 101.649 C 384.346 101.582 379.42 106.507 379.42 112.1 C 379.42 119.286 386.101 120.95 392.376 122.149 C 397.706 123.214 402.698 124.012 402.698 127.997 C 402.698 131.592 399.731 134.249 394.061 134.249 C 389.403 134.457 384.965 132.247 382.323 128.4 L 377.532 131.596 C 380.77 136.188 385.966 139.117 393.927 139.117 C 403.442 139.183 408.299 133.592 408.299 127.934 C 408.291 120.551 401.409 118.818 395.135 117.621 Z M 431.85 101.716 C 421.308 101.447 412.662 110.008 412.824 120.553 C 412.824 131.069 420.38 139.121 432.052 139.121 C 438.946 139.425 445.452 135.924 448.994 130.003 L 444.272 127.273 C 438.742 136.62 425.166 136.472 419.838 127.009 C 419.047 125.603 418.502 124.073 418.228 122.484 L 450.412 122.484 L 450.412 120.016 C 450.682 109.694 442.161 101.296 431.842 101.714 Z M 418.357 117.689 C 419.519 111.175 425.235 106.467 431.85 106.574 C 438.445 106.189 444.151 111.11 444.738 117.689 Z M 472.743 101.915 C 467.985 101.59 463.649 104.646 462.351 109.237 L 462.351 102.446 L 457.021 102.446 L 457.021 138.387 L 462.487 138.387 L 462.487 118.685 C 462.487 110.765 465.994 107.304 472.068 107.304 C 473.63 107.243 475.177 107.634 476.52 108.436 L 478.813 103.246 C 476.94 102.276 474.844 101.816 472.735 101.913 Z" fill="#20123a" style=""/>
</svg>