<?xml version="1.0" encoding="utf-8"?>
<svg viewBox="0 0 1000 330" xmlns="http://www.w3.org/2000/svg">
  <path fill="#4285f4" d="M 286.387 124.531 L 188.31 124.531 L 188.31 153.642 L 257.865 153.642 C 254.432 194.447 220.475 211.846 188.427 211.846 C 147.419 211.846 111.644 179.589 111.644 134.367 C 111.644 90.313 145.752 56.388 188.519 56.388 C 221.509 56.388 240.953 77.422 240.953 77.422 L 261.331 56.322 C 261.331 56.322 235.182 27.211 187.476 27.211 C 126.729 27.201 79.74 78.465 79.74 133.836 C 79.74 188.104 123.946 241.009 189.024 241.009 C 246.262 241.009 288.162 201.802 288.162 143.814 C 288.162 131.581 286.387 124.513 286.387 124.513 Z"/>
  <path fill="#ea4335" d="M 366.728 103.454 C 326.486 103.454 297.645 134.921 297.645 171.604 C 297.645 208.852 325.619 240.899 367.199 240.899 C 404.842 240.899 435.687 212.125 435.687 172.413 C 435.687 126.894 399.81 103.454 366.728 103.454 Z M 367.133 130.445 C 386.922 130.445 405.667 146.448 405.667 172.228 C 405.667 197.469 386.997 213.916 367.04 213.916 C 345.105 213.916 327.8 196.357 327.8 172.026 C 327.8 148.223 344.888 130.445 367.133 130.445 Z"/>
  <path fill="#fbbc05" d="M 516.98 103.454 C 476.737 103.454 447.895 134.921 447.895 171.604 C 447.895 208.852 475.871 240.899 517.451 240.899 C 555.094 240.899 585.937 212.125 585.937 172.413 C 585.937 126.894 550.062 103.454 516.98 103.454 Z M 517.383 130.445 C 537.171 130.445 555.918 146.448 555.918 172.228 C 555.918 197.469 537.248 213.916 517.29 213.916 C 495.357 213.916 478.049 196.357 478.049 172.026 C 478.049 148.223 495.138 130.445 517.383 130.445 Z"/>
  <path fill="#4285f4" d="M 664.353 103.529 C 627.416 103.529 598.381 135.881 598.381 172.185 C 598.381 213.555 632.036 240.984 663.712 240.984 C 683.3 240.984 693.715 233.21 701.406 224.292 L 701.406 237.837 C 701.406 261.547 687.01 275.749 665.278 275.749 C 644.286 275.749 633.76 260.142 630.108 251.282 L 603.691 262.321 C 613.062 282.134 631.917 302.79 665.497 302.79 C 702.231 302.79 730.223 279.661 730.223 231.148 L 730.223 107.661 L 701.406 107.661 L 701.406 119.297 C 692.546 109.756 680.431 103.529 664.353 103.529 Z M 667.027 130.463 C 685.134 130.463 703.737 145.927 703.737 172.337 C 703.737 199.176 685.176 213.976 666.632 213.976 C 646.936 213.976 628.603 197.99 628.603 172.589 C 628.603 146.213 647.643 130.463 667.027 130.463 Z"/>
  <path fill="#ea4335" d="M 858.328 103.362 C 823.487 103.362 794.225 131.084 794.225 171.992 C 794.225 215.281 826.836 240.95 861.677 240.95 C 890.755 240.95 908.601 225.048 919.244 210.786 L 895.491 194.986 C 889.324 204.553 879.018 213.901 861.821 213.901 C 842.502 213.901 833.617 203.324 828.115 193.077 L 920.261 154.836 L 915.474 143.629 C 906.572 121.687 885.807 103.362 858.328 103.362 Z M 859.532 129.79 C 872.085 129.79 881.12 136.469 884.959 144.471 L 823.421 170.191 C 820.77 150.276 839.634 129.79 859.532 129.79 Z"/>
  <path fill="#34a853" d="M 750.297 236.87 L 780.57 236.87 L 780.57 34.312 L 750.297 34.312 Z"/>
</svg>