<svg xmlns="http://www.w3.org/2000/svg" width="300" height="100"><path d="M191.99 14.85q2.69 4.61 2.39 10.07-.01.25-1.69 9.92-4.81 27.65-9.81 55.27-.59 3.26-.63 3.37-.72 1.7-2.99 1.56-1.55-.1-1.6-.1h-9.98q-2.59 0-2.16-2.39 5.53-31.3 10.9-62.62.63-3.66.06-5.6-1.11-3.84-5.08-3.72-3.05.09-5.31 2.13-2.31 2.09-2.91 5.37-3.14 17.18-11.37 64.28-.38 2.19-1.94 2.55h-14.01q-1.58 0-1.3-1.55 5.66-31.77 11.1-63.57.61-3.57.13-5.39-.94-3.59-4.56-3.83-3.04-.2-5.5 1.76-2.52 2.01-3.14 5.35-5.96 32.58-11.65 65.2-.3 1.72-1.7 2-.07.02-2.31.02h-11.4q-1.95 0-1.61-1.92 5.49-31.57 11.06-63.03 1-5.67 2.59-8.84 5.26-10.52 16.96-14.67 12.42-4.41 22.9 3.6a.7.67-42.6 0 0 .8.02q7.17-4.77 15.33-5.06 5.96-.2 10.79 2.43 4.87 2.65 7.64 7.38zM73.28 41.98H86.5a.48.47-84.8 0 0 .46-.39l5.96-33.17q.38-2.08 2.5-2.07l13.05.05a1.2 1.19-88.6 0 1 1.18 1.25q-.13 3.44-.83 7.35-6.55 36.63-12.91 73.29-.47 2.68-1.32 5.28-.45 1.36-1.89 1.36H79.36a1.4 1.39 1.4 0 1-1.4-1.46q.11-2.06.59-4.77 2.75-15.38 5.55-31a.34.34 5 0 0-.34-.4H70.54a.58.57 4.6 0 0-.57.48q-2.73 16.67-5.82 32.81-.53 2.74-.6 2.88-.72 1.45-3.07 1.45H48.27q-1.61 0-1.43-1.61.25-2.32.77-5.24Q54 51.57 60.4 15.08q.01-.05.4-2.7.38-2.49 1.17-4.64.52-1.4 2-1.4h13.37a1.14 1.14 89.2 0 1 1.14 1.11q.07 2.97-.61 6.55-2.61 13.76-4.92 27.57a.34.33 5.1 0 0 .33.39zM214.11 59.7l-6.18 33.55q-.31 1.69-2.04 1.69h-11.27q-.06 0-1.34.09-2.65.19-2.12-2.84 7.02-40 14.05-79.99.64-3.68.85-4.11.95-2 3.66-1.84 1.76.11 1.81.11h6.96q.07 0 1.89-.12 3.25-.2 2.52 2.96-.43 1.83-.44 1.9-2.59 15.72-5.53 31.37a.42.42 1.1 0 0 .48.49q11.27-1.69 14.76-12.5 1.84-5.69 2.4-10.34.17-1.4 1.28-7.17.8-4.19.96-4.53 1.06-2.3 4.13-2.14 1.65.08 1.69.08h7.38q.08 0 1.16-.05 2.88-.14 2.34 2.72l-.2 1.05q-.74 5.11-1.75 10.17l-.97 5.56Q248 40.7 236.02 50.21a.35.34-41.3 0 0-.04.52q6.14 6.23 7.17 14.62.7 5.65-.57 12.03-1.46 7.35-2.62 14.82-.42 2.67-3.11 2.7-5.28.07-11.73-.05-2.59-.05-2.18-2.64.82-5.34 1.7-10.68l.65-3.36q.75-3.89.51-7.8-.29-4.57-2.43-7.2-3.1-3.82-8.79-3.86a.47.47 5.2 0 0-.46.38z"/></svg>
