<?xml version="1.0" encoding="utf-8"?>
<svg id="Layer_1" x="0px" y="0px" enable-background="new 97.447 147.096 904.073 429.724" version="1.1" viewBox="97.447 147.096 1200 429.724" xmlns="http://www.w3.org/2000/svg">
  <g transform="matrix(1, 0, 0, 1, 147.962326, 0)">
    <path d="M447.192,155.232c9.359-1.8,47.735,0.36,58.319,1.944c48.096,6.984,81,37.44,100.295,83.448 c12.889,30.816,18.217,69.408,13.32,106.2c-3.096,23.471-11.23,48.959-23.471,68.329c-12.744,20.303-26.209,33.84-49.393,42.047 c-15.264,5.4-35.783,8.568-53.496,7.416c-20.159-1.295-32.976-8.568-41.184-20.088c-13.752-19.512-10.656-55.512-10.008-80.712 c0.288-9.72,0.432-19.872,0.864-29.376c0.936-19.872,0.936-40.176,1.512-60.192c0.576-19.656,1.08-39.528,1.584-59.4 C445.824,202.608,446.256,164.232,447.192,155.232z M361.584,464.975c-0.72,0.506,0,0.289-1.008,0.576l-4.104,0.648l0.072,5.041 c43.2-0.721,90,0,133.848,0c14.544,0,30.024,0.432,44.28-0.504c31.104-2.088,59.833-12.602,81.504-30.457 c56.447-46.439,60.912-152.64,21.455-217.224c-3.023-4.968-5.688-8.928-8.928-13.464c-4.824-6.696-9.719-12.24-15.336-18 c-9.215-9.504-20.303-17.64-32.039-24.192l-14.832-7.2c-4.609-1.08-10.297-3.672-15.336-5.112 c-5.113-1.44-10.369-2.664-15.913-3.744c-5.688-1.152-11.952-1.944-17.856-2.376c-1.8-0.144-16.991-0.576-18.288-1.296 l-136.728,0.072l0.072,5.472c16.128,0.936,28.368,5.472,36.144,14.616c9,10.656,10.296,23.112,11.088,40.176 c0.792,16.056-0.359,32.832-0.863,48.96c-1.656,48.744-4.32,99.792-5.04,148.033c-0.217,15.48-1.513,31.535-8.784,42.551 c-6.48,9.938-24.696,18.793-33.336,17.496L361.584,464.975z"/>
    <path d="M678.745 154.656c4.68-1.008 15.84 3.024 19.512 4.968 19.943 10.584 21.24 31.248 21.887 53.352.938 32.976.217 66.96.217 100.08 0 16.632 0 33.192 0 49.823 0 16.561.432 33.77-.287 50.186-1.008 22.822-5.545 40.318-26.137 49.031-7.199 3.023-12.816 3.455-21.023 4.176l-.145 5.473h104.473l.143-5.473c-14.039-1.943-20.664-2.088-30.6-9.359-7.127-5.186-12.672-13.32-14.832-25.416-3.096-17.713-2.16-58.465-2.16-78.409 0-26.784 0-53.64 0-80.424 0-26.568-.719-54.072.072-80.496 1.512.936 5.904 7.056 7.057 8.712 9.576 13.248 23.76 31.248 34.055 44.568 4.682 6.048 9.072 11.736 13.609 17.928l156.6 205.343c1.439 1.945 1.512 3.025 4.465 3.098 2.447.07 5.543.07 7.99-.072l.289-259.705c.359-15.84 2.088-32.904 10.512-42.48 8.279-9.432 19.367-15.048 37.008-15.696l.072-5.544-104.832.072.287 5.472c9.434.792 23.258 2.808 30.674 9.504l1.223 1.368c.793.144.361-.072 1.08.504 4.969 3.744 9.648 12.384 11.305 18.864 4.967 19.512 3.096 72.072 3.096 93.312 0 3.816.432 124.489-.145 128.665-1.943-2.088-3.672-4.609-5.471-6.984l-39.889-52.416c-15.336-19.872-30.24-39.816-45.432-59.688-7.633-9.936-15.049-19.872-22.68-29.88-7.705-10.08-14.977-19.872-22.682-29.88l-42.695-56.016c-.863-1.152-2.305-2.664-2.664-4.032-2.951-1.728-13.248-18.288-15.336-18.864l-74.592.072.287 5.4c1.01.072 2.088.072 3.025.144l2.807.648L678.745 154.656zM241.344 372.024c-1.224 18.072-5.688 45.145-15.048 60.48-8.136 13.393-22.536 28.439-42.84 32.111-11.88 2.088-21.96-.287-31.176-4.896-10.656-5.328-6.696-18.359-2.304-26.783 3.672-7.129 12.096-11.52 7.2-27.432-3.24-10.512-11.304-14.616-24.192-12.601-11.16 3.888-16.272 6.409-21.096 19.8-4.392 12.385-2.304 23.904 4.104 32.545 4.752 6.408 13.968 14.111 22.68 18.432 31.536 15.768 70.488 4.969 98.712-9.576 17.496-9 30.312-23.832 37.152-45.576 8.208-25.992 9.072-43.561 12.024-70.272 2.304-21.096 13.536-127.512 17.928-146.52 1.296-5.544 2.665-10.944 4.896-15.696 11.088-24.192 33.769-22.248 38.16-24.048l.72-4.248-120.312-.648-.936 4.68c10.44.864 18.216 4.824 23.184 10.224 6.192 6.768 8.496 13.392 8.208 25.488-.216 10.152-2.16 20.376-3.024 30.6L244.08 341.64c-1.008 9.936-1.512 20.736-2.808 30.456L241.344 372.024zM315.792 507.528c9.936-.215 18.072 2.16 18 13.969-.072 5.471-2.448 8.568-5.184 10.943-3.168 2.736-7.849 2.664-12.744 2.592v-27.504H315.792zM306.36 518.688c0 9.145 0 18.287 0 27.432 0 6.121 1.08 13.752-4.32 16.416-4.536 2.232-4.608-.936-4.464 2.16 3.744 0 25.56.432 27.144-.287-.432-1.297.864-.434-1.512-1.008-1.44-.361-2.952-.217-4.824-2.018-4.032-3.887-2.592-18.143-2.592-25.271 4.68-.072 7.488.576 9.576 3.24 6.12 7.633 8.855 17.713 13.032 25.344 2.376.217 12.6.504 14.256-.145-.433-1.439-.792-.646-2.809-1.654-3.384-1.729-10.584-16.488-10.655-18.434l-3.168-5.328c-.648-.936-1.297-1.512-1.944-2.088l-2.232-1.727c-.071-.217-.216-.217-.288-.289 6.192-1.367 10.729-4.176 12.168-10.08 1.801-7.344-1.584-12.816-5.76-15.551-5.04-3.312-12.312-3.168-19.08-3.168-4.031 0-19.008-.721-21.528.287.72 1.297-.576.359 1.8 1.008 2.016.504 3.096.289 5.112 2.664 1.872 2.232 1.8 5.256 2.016 8.713L306.36 518.688zM610.704 507.456c11.881.145 22.607.217 29.305 14.688 5.76 12.457 3.6 25.705-3.527 34.85-3.025 3.887-8.137 6.623-15.408 6.408-7.992-.217-10.297-4.033-10.584-11.809C610.344 546.481 610.127 509.905 610.704 507.456zM600.409 554.905c.791 2.664-.793 5.471-2.232 6.695-3.24 2.664-5.545.721-6.121 2.809 1.584.719 33.625.359 37.297 0 19.08-1.873 19.656-11.953 22.393-15.049 2.016-8.424 3.24-15.191-.072-23.76-2.736-7.129-6.48-11.592-11.592-14.832-6.77-4.32-13.033-4.68-22.176-4.68-3.672 0-24.193-.504-25.85.287.721 1.945 6.48-.072 8.281 6.121 1.152 3.959.719 23.184.719 28.584l-.215 12.744C600.481 555.409 600.768 554.329 600.409 554.905zM176.112 506.303c15.336-2.879 22.824 11.377 24.264 24.912 1.44 13.32-4.032 30.312-16.848 32.904-15.192 3.168-23.976-11.52-24.984-24.912-.576-7.631.936-15.408 3.744-21.383C164.952 512.065 169.056 507.6 176.112 506.303zM152.856 518.543c-.216 1.225-.072.648-.72 1.873-2.232 4.176-3.456 6.695-3.96 12.023-2.664 27.287 29.304 44.783 52.488 25.488 12.312-10.297 9.792-23.617 10.584-26.785l-1.08-3.311c-.216-1.008-.504-1.945-.864-2.809-3.24-8.713-10.512-15.48-19.152-18.721-5.76-2.16-8.136-1.15-13.536-2.016l-1.872.648c-15.48 3.312-19.44 12.096-21.816 13.607H152.856zM894.241 547.489c-2.088.287-.721-1.008-1.656 1.367-.145.359-.361 2.592-1.729 5.545-1.152 2.447-2.447 3.959-4.176 5.398-4.824 3.889-23.832 7.705-25.561-6.912-.432-3.814-.791-14.832-.215-18.432 6.84-.432 11.23.721 13.104 6.84 1.512 4.752-.217 4.176 2.016 4.248 0-4.104 1.008-20.52-.359-22.824-3.312 2.088 2.736 11.232-14.977 10.152l.145-25.488c4.824-.287 14.832-.432 18.863 1.08 2.232.865 4.537 2.809 5.688 4.393 1.441 1.871 1.729 5.184 3.025 7.199.719-.936.576-1.512.646-2.016 0-.143-.07-1.656-.07-1.871l-.721-10.369h-46.008l.072 1.08c6.695.721 8.566 3.385 8.783 10.225.217 6.119 0 12.6 0 18.721 0 7.631 1.584 21.311-2.736 25.416-.936.863-1.656 1.295-2.951 1.584-2.664.646-2.736.072-3.168 1.367 1.943.721 45.215.359 51.119.289l.721-17.137L894.241 547.489zM769.176 507.456c6.336-1.008 8.568 4.248 8.711 9.865l-.07 37.439c-.721 10.512-8.137 7.271-8.785 9.648 1.369.646 18.359.576 19.656 0-.721-2.377-6.623.287-8.352-6.625-1.152-4.393-.865-39.816-.432-43.561l36.215 45.289c2.736 3.312 2.953 5.256 5.904 5.039.504-3.096.145-27.719.145-33.119 0-7.488-2.52-26.279 8.711-24.049 0-2.16-.287-1.367-3.096-1.367-3.168 0-14.328-.576-16.344.287.863 1.873 1.801.145 4.896 1.873 1.295.721 2.447 1.943 3.096 3.383 1.729 4.033 1.367 34.488.863 38.449-3.311-4.393-6.912-8.713-10.295-13.033l-20.881-26.639c-2.736-3.6-1.871-4.393-7.416-4.32-13.176.145-12.24-.936-12.383 1.439H769.176zM369.504 556.92c.145 2.592-1.368 4.32-2.952 5.256-3.456 2.088-4.68.145-5.328 2.232 1.44.646 18.36.576 19.801 0-.721-2.377-6.408.432-8.353-6.553-1.152-4.248-.864-40.104-.432-43.561l38.735 48.672c1.009 1.297 1.152 1.873 3.24 1.656l.145-33.047c0-7.85-2.305-26.281 8.783-24.049-.071-2.016-.287-1.512-3.096-1.439-5.688.145-10.944-.289-16.416.359 1.008 2.16 5.544-.287 7.92 5.256 1.296 3.096.937 8.424.937 12.096 0 7.488.72 19.225-.145 26.209-.216-.359-2.016-2.377-2.592-3.168-.864-1.08-1.728-2.232-2.592-3.312-1.872-2.447-3.456-4.463-5.185-6.695-3.672-4.68-6.84-8.928-10.655-13.609-3.601-4.463-7.128-9-10.656-13.607-3.096-4.104-1.872-3.6-8.136-3.6-2.305 0-9.648-.432-11.232.287.72 1.873 6.912.504 8.424 6.48.937 3.816 1.225 42.264-.144 44.064L369.504 556.92zM675.215 549.288c.576 10.584 6.121 14.977 16.273 16.416 10.439 1.439 19.512-.359 25.344-6.119 10.439-10.297-5.473-55.512 12.383-52.201-.072-1.943.434-.863-.719-1.367h-18.793c.145 2.592 3.816.217 6.697 3.672 1.584 1.943 1.943 5.184 2.088 8.496.215 6.912.07 14.039.07 21.023 0 5.904.793 14.832-2.375 18.721-2.809 3.455-8.279 6.119-14.615 6.48-18.217 1.15-16.85-13.824-16.85-25.273 0-6.912-.143-14.111 0-21.023.434-13.32 7.705-9 8.93-11.879-1.729-.793-25.561-.721-27.361 0 1.008 1.943 2.16.287 4.969 1.943 1.225.721 2.447 2.16 3.023 3.383 1.656 3.816 1.008 32.473 1.008 37.656L675.215 549.288zM232.776 552.241c1.584 5.471 2.808 8.424 7.848 11.016 7.776 4.031 23.256 3.959 30.816-1.225 4.248-2.951 5.544-5.256 6.264-11.879.144-8.93.072-18 0-26.93 0-5.398-.864-12.814 4.536-15.264 4.176-1.871 4.104.576 4.248-2.016-3.456 0-17.568-.576-19.584.289 1.08 2.158 3.744-.217 6.912 3.527 3.312 3.959 2.016 22.393 2.016 29.375 0 5.832.792 14.545-2.16 18.648-2.664 3.672-8.712 6.191-14.544 6.553-17.064 1.152-16.992-10.439-16.992-25.201 0-6.982-.144-14.039 0-21.023.288-13.824 8.064-9.287 9-11.879-1.296-.648-26.136-.648-27.432 0 .72 1.799 5.904 0 8.064 5.471 1.224 3.096.864 9.289.864 12.816 0 9.217-.216 18.432.216 27.648L232.776 552.241zM926.569 556.344c.07 2.664-1.225 4.32-2.736 5.543-2.953 2.377-4.969.648-5.617 2.521 1.441.576 25.992.576 27.289 0-.361-1.152.072-.504-1.225-1.008-1.225-.434-6.336-.217-7.344-6.842-.793-4.967-.359-42.191-.359-48.959 5.256-.721 13.248.287 17.135 2.447 7.273 4.105 5.4 10.873 7.848 11.736 1.08-3.023-.791-7.561.145-10.943l-.719-4.896-57.961.217c-.217 2.807-1.152 13.895-.359 15.623 1.656-.791.863-2.736 3.096-6.984 1.08-2.088 2.736-3.887 4.607-4.967 3.385-1.945 12.385-2.881 16.633-2.377.648 4.609.576 47.592-.432 48.744V556.344zM510.84 555.84c.576 2.592-1.08 4.896-2.52 5.977-3.312 2.447-5.256.504-5.832 2.592 1.08.504 47.231.646 51.192.143l.287-6.551c.072-2.016.072-3.961.217-5.977.145-2.736.504-3.959-.721-5.111-1.799 3.24-1.439 6.551-4.32 10.367-5.976 7.992-25.487 9.359-27.72-3.383-1.224-6.912-.432-20.377-.432-28.01 0-9.287-1.584-16.703 6.552-18.574 2.376-.506 1.512.287 2.232-1.08-2.736-1.01-22.465-.289-27.072-.289.144 1.801.072.936 2.52 1.439 7.92 1.729 6.192 11.305 6.192 19.441l-.072 27.432c-.504 3.096.504-1.945-.216.791l-.288.721V555.84zM450.144 539.135c.36-2.016 7.272-20.088 8.425-21.383l8.496 21.383h-16.849H450.144zM459.144 509.04c0 2.377-9.647 25.848-11.304 30.096-1.944 5.041-3.888 10.225-6.048 15.049-4.824 11.088-9.504 7.703-10.224 10.152 1.08.504 18.071.504 19.151 0-.359-1.439-1.008-.793-2.808-1.512-8.064-3.025-1.44-15.553 1.296-21.744h18.648c2.951 6.408 8.783 16.703 4.176 20.52-3.456 2.881-5.977.217-5.832 3.023 3.815 0 26.352.432 28.008-.287-.648-2.232-4.176 0-7.488-3.961-3.096-3.455-9.647-20.736-12.096-26.928l-11.448-27.432h-2.448l-1.655 3.023H459.144zM107.928 507.383C119.88 505.872 117 527.256 117 537.84c0 8.352 1.584 31.393-3.168 36.145-1.8 1.799-4.968 2.447-6.84.432-1.584-1.656-1.728-4.824-3.384-6.264-4.464-4.033-10.008 4.248-2.376 7.416 5.112 2.088 11.952 1.367 16.632-.721 5.4-2.447 6.696-4.607 8.28-10.943.648-9.938-.144-45.648.648-50.113 1.44-7.92 7.992-5.543 8.712-7.488-1.44-.719-23.112-.287-26.712-.287C107.496 506.448 108 505.368 107.928 507.383z"/>
  </g>
</svg>