<?xml version="1.0" encoding="utf-8"?>
<svg id="Calque_1" viewBox="0 0 1500 495" xmlns="http://www.w3.org/2000/svg" xmlns:bx="https://boxy-svg.com">
  <style>.st0{fill:#e23a05}.st1{fill:#293847}</style>
  <g transform="matrix(1.209235, 0, 0, 1.209235, 69.371262, -314.367462)" style="">
    <g transform="matrix(1, 0, 0, 1, -397.809937, -103.379684)" bx:origin="0.35454 0.500026">
      <path class="st0" d="M1375.4,633.28V525.13c0-12.27,8.01-19.53,17.53-19.53c9.51,0,17.53,7.26,17.53,19.53v4.76h0.5 c9.51-14.77,24.03-24.29,42.56-24.29c26.04,0,40.06,18.53,40.06,46.57v81.12h-37.55v-70.6c0-16.52-7.76-22.03-17.53-22.03 c-14.52,0-25.54,12.27-25.54,38.31v54.33H1375.4z M1336.1,505.6c-10.26,0-18.78,8.01-18.78,20.78v106.9h37.55v-106.9 C1354.88,513.61,1346.36,505.6,1336.1,505.6 M1336.1,485.82c12.77,0,22.78-10.52,22.78-22.78c0-12.27-10.01-22.78-22.78-22.78 c-13.02,0-23.03,10.52-23.03,22.78C1313.07,476.06,1323.58,485.82,1336.1,485.82 M1236.46,603.74c-16.77,0-27.04-13.27-27.04-33.05 s10.26-33.05,27.04-33.05c16.77,0,27.04,13.27,27.04,33.05S1253.23,603.74,1236.46,603.74 M1236.46,635.79 c39.56,0,65.09-27.04,65.09-65.09c0-38.05-25.54-65.09-65.09-65.09s-65.09,27.04-65.09,65.09 C1171.36,608.75,1196.9,635.79,1236.46,635.79 M1089.5,570.69c0,20.53,10.01,32.55,26.29,32.55c10.77,0,18.78-5.26,22.78-12.52h0.5 l27.29,17.53c-9.51,18.53-29.29,27.54-51.82,27.54c-39.06,0-63.09-27.04-63.09-65.09c0-38.05,24.03-65.09,63.09-65.09 c22.53,0,42.31,9.01,51.82,27.54l-27.29,17.53h-0.5c-4.01-7.26-12.02-12.52-22.78-12.52 C1099.51,538.15,1089.5,550.16,1089.5,570.69 M919.26,633.28V525.13c0-12.27,8.01-19.53,17.53-19.53c9.51,0,17.53,7.26,17.53,19.53 v4.76h0.5c9.51-14.77,24.03-24.29,42.56-24.29c26.04,0,40.06,18.53,40.06,46.57v81.12h-37.55v-70.6c0-16.52-7.76-22.03-17.53-22.03 c-14.52,0-25.54,12.27-25.54,38.31v54.33H919.26z M839.14,603.74c-16.77,0-27.04-13.27-27.04-33.05s10.26-33.05,27.04-33.05 c16.77,0,27.04,13.27,27.04,33.05S855.91,603.74,839.14,603.74 M839.14,635.79c39.56,0,65.09-27.04,65.09-65.09 c0-38.05-25.54-65.09-65.09-65.09c-39.56,0-65.09,27.04-65.09,65.09C774.05,608.75,799.58,635.79,839.14,635.79 M697.44,603.74 c-16.77,0-27.04-13.27-27.04-33.05s10.26-33.05,27.04-33.05s27.04,13.27,27.04,33.05S714.21,603.74,697.44,603.74 M709.96,505.6 c-15.27,0-28.54,6.26-39.06,19.78h-0.5v-59.84c0-12.77-8.51-20.78-18.78-20.78c-10.26,0-18.78,8.01-18.78,20.78v167.74h35.05 v-19.03h0.5c8.51,13.52,23.03,21.53,40.31,21.53c32.3,0,54.33-27.79,54.33-65.59C763.03,533.14,742,505.6,709.96,505.6" style="fill: rgb(255, 110, 20);"/>
    </g>
    <path class="st0" d="M 201.91 481.13 C 197.01 490.52 184.76 501.78 169.77 501.78 C 161.3 501.78 156.35 498.12 152.85 495.08 L 219.28 447.44 C 211.57 422.28 193.06 402.23 158.57 402.23 C 118.82 402.23 99.91 435.26 99.91 461.8 C 99.91 473.05 102.09 483.34 105.94 492.39 C 97.41 497.04 90.86 500.52 84.85 500.52 C 73.7 500.52 68.43 493.99 68.43 481.81 L 68.42 361.84 C 68.42 349.12 59.94 341.13 49.71 341.14 C 39.48 341.14 31 349.13 31 361.85 L 31.01 485.02 C 31.01 513.33 50.87 532.15 79.03 532.15 C 92.95 532.15 106.99 527.42 123.31 516.59 C 134.78 526.67 149.52 532.42 165.34 532.42 C 197.75 532.42 217.17 518.18 226.62 498.96 L 201.91 481.13 Z M 158.57 432.2 C 171 432.2 175.52 439.69 177.78 443.08 L 136.14 474.08 C 134.65 470.22 133.39 464.06 133.39 459.89 C 133.39 440.9 146.73 432.2 158.57 432.2 Z" style="fill: rgb(255, 110, 20);" bx:origin="2.602992 0.488865"/>
  </g>
</svg>