<svg xmlns="http://www.w3.org/2000/svg" viewBox="0 500 1080 200">
  <path d="M938 539V435c0-11 8-18 17-18s17 7 17 18v5c9-14 23-23 41-23 25 0 39 17 39 44v78h-36v-67c0-16-8-22-17-22-14 0-25 12-25 37v52h-36Zm-38-122c-9 0-18 7-18 20v102h36V437c0-13-8-20-18-20m0-19c13 0 22-10 22-22s-9-22-22-22-22 10-22 22 10 22 22 22m-95 113c-17 0-26-13-26-32s9-32 26-32 26 13 26 32-10 32-26 32m0 31c38 0 62-26 62-63s-24-62-62-62-63 26-63 62 25 63 63 63m-142-63c0 20 10 31 26 31 10 1 18-5 22-12l26 17c-9 18-28 27-50 27-37 0-60-26-60-63s23-62 60-62c22 0 41 8 50 26l-26 17c-4-7-12-12-22-12-16 0-26 11-26 31m-163 60V435c0-11 7-18 17-18s16 7 16 18v5h1c9-14 23-23 41-23 25 0 38 17 38 44v78h-36v-67c0-16-7-22-17-22-14 0-24 12-24 37v52h-36Zm-77-28c-16 0-26-13-26-32s10-32 26-32 26 13 26 32-10 32-26 32m0 31c38 0 62-26 62-63s-24-62-62-62-63 26-63 62 25 63 63 63m-137-31c-16 0-26-13-26-32s10-32 26-32 26 13 26 32-9 32-26 32m13-94c-15 0-28 6-38 19h-1v-58c0-12-8-20-18-20s-18 8-18 20v161h34v-18h1c8 13 22 21 38 21 31 0 53-27 53-63s-21-62-51-62m-106 75c-5 10-17 20-31 20-8 0-13-3-17-6l64-46c-7-24-25-43-58-43-38 0-57 31-57 57 0 11 3 21 6 29-8 5-14 8-20 8-11 0-16-6-16-18V378c0-12-8-20-18-20s-18 8-18 20v118c0 27 19 46 46 46 14 0 27-5 43-15 11 9 25 15 40 15 32 0 50-14 59-32l-23-18Zm-42-47c12 0 16 8 18 11l-40 30-2-14c0-18 12-27 24-27Z"/>
  <path fill="#ff6e14" d="m1029 638-18-1h-26v89h-22V549h22v66h44v23Zm-294-1h-22v89h-22v-89h-22v-22h21v-22h23v22h22v22Zm83 0h22v45h-66v22h1-23v-67h22v22h44v-22Zm211 1h22v88h-22v-88Zm-144-1v67h-22v-67h22Zm0 0v-22h55v22h-55Zm-111 67h55v22h-55v-18l1-4h-1Zm111 0h55v22h-55v-22Zm-111-67v-22h44v22h-44Z"/>
</svg>
