<?xml version="1.0" encoding="utf-8"?>
<svg viewBox="0 0 500 165" xmlns="http://www.w3.org/2000/svg">
  <defs>
    <linearGradient id="a" x1="0" x2="1" y1="0" y2="0" gradientTransform="matrix(52.789086, -44.295302, 44.295302, 52.789086, 79.411843, 147.75195)" gradientUnits="userSpaceOnUse" spreadMethod="pad">
      <stop offset="0" stop-color="#0997a7"/>
      <stop offset="1" stop-color="#60bfb6"/>
    </linearGradient>
    <clipPath id="b" clipPathUnits="userSpaceOnUse">
      <path d="M0 136h365V0H0Z"/>
    </clipPath>
  </defs>
  <g transform="matrix(1.181424, 0, 0, 1.181424, -45.355911, -80.948982)" style="">
    <path fill="url(#a)" d="M 98.943 72.292 L 60.277 78.959 C 56.277 78.959 54.943 80.292 53.61 82.959 L 38.943 121.625 C 37.61 124.292 38.943 126.959 40.277 129.625 L 65.61 160.292 C 66.943 162.958 70.943 164.292 73.61 162.958 L 113.61 157.625 C 116.276 156.292 118.943 154.958 118.943 152.292 L 133.61 113.625 C 134.943 110.959 134.943 108.292 132.276 105.625 L 106.943 74.959 L 100.277 72.292 L 98.943 72.292"/>
    <g clip-path="url(#b)" transform="matrix(1.33333, 0, 0, -1.33333, 6.94341, 224.291595)">
      <path fill="#fff" d="m68 94-7-12-7 14-8-2-10-27h9l6 16 6-15h5l9 16V64l9 2v26z"/>
      <path fill="#1e3c88" d="M207 70c3 0 5 2 5 6 0 3-2 5-5 5-2 0-4-2-4-5 0-4 2-6 4-6m-8 14c2 2 5 3 8 3l9-3c2-2 3-5 3-8 0-4-1-7-3-9l-9-3c-3 0-6 1-8 3-3 2-4 5-4 9 0 3 1 6 4 8M185 87l-7-2-1 2h-7V64h9v15l4 1 1-2V64h9v16c0 5-3 7-8 7M131 92l-7-13-6 15-9-2-10-28h9l6 17 6-16h5l9 17V61l9 3v26zM160 73c0-3-1-4-4-4s-4 1-4 2c0 2 2 2 5 2h3Zm-12 13v-6l8 1c3 0 4-1 4-3h-4c-5 0-10-1-10-7 0-4 2-7 8-7 4 0 7 2 7 2v-2h6v14c0 12-13 9-19 8M329 70c2 0 4 2 4 6 0 3-2 5-4 5-3 0-5-2-5-5 0-4 2-6 5-6m-9 14c2 2 5 3 9 3 3 0 6-1 8-3 3-2 4-5 4-8 0-4-1-7-4-9-2-2-5-3-8-3-4 0-7 1-9 3s-3 5-3 9c0 3 1 6 3 8M307 87h-1l-7-2v2h-7V64h8v15l4 1 2-2V64h8v16c0 5-2 7-7 7M253 92l-7-13-7 15-8-2-11-28h10l6 17 6-16h5l9 17V61l9 3v26zM282 73c0-3-2-4-5-4-2 0-3 1-3 2 0 2 1 2 4 2h4Zm-13 13v-6l9 1h-1c3 0 5-1 5-3h-4c-6 0-11-1-11-7 0-4 3-7 8-7s7 2 7 2l1-2h6v14c0 12-14 9-20 8"/>
    </g>
    <text fill="#0397a7" font-family="Open Sans Extrabold" font-size="33.4" font-style="italic" font-weight="800" style="white-space: pre;" x="220.943" y="191.292"><tspan x="220.943 238.943 258.943 276.943 299.943 309.943 325.943 345.943 367.943" y="191.292" style="font-size: 44.5px; word-spacing: 0px;">Tech team</tspan></text>
  </g>
</svg>