<?xml version="1.0" encoding="utf-8"?>
<svg viewBox="0 0 500 165" xmlns="http://www.w3.org/2000/svg" xmlns:xlink="http://www.w3.org/1999/xlink">
  <defs>
    <clipPath id="a">
      <path d="M23 21h73v70H23Zm0 0"/>
    </clipPath>
    <clipPath id="b">
      <path d="m69.496 22.004-29.89 4.766a6.107 6.107 0 0 0-4.743 3.843l-10.816 28.27a6.095 6.095 0 0 0 .96 6.027l19.071 23.504a6.096 6.096 0 0 0 5.7 2.18l29.89-4.762a6.099 6.099 0 0 0 4.738-3.848l10.82-28.265a6.095 6.095 0 0 0-.96-6.028l-19.07-23.504a6.102 6.102 0 0 0-5.7-2.183"/>
    </clipPath>
    <linearGradient id="c" gradientUnits="userSpaceOnUse" x1="-.377" y1="0" x2="1.559" y2="0" gradientTransform="rotate(-39.757 122.99 -11.953) scale(51.68357)">
      <stop offset="0" style="stop-color:#0997a7;stop-opacity:1"/>
      <stop offset="0.125" style="stop-color:#0997a7;stop-opacity:1"/>
      <stop offset="0.188" style="stop-color:#0997a7;stop-opacity:1"/>
      <stop offset="0.195" style="stop-color:#0997a7;stop-opacity:1"/>
      <stop offset="0.199" style="stop-color:#0a97a7;stop-opacity:1"/>
      <stop offset="0.203" style="stop-color:#0a98a7;stop-opacity:1"/>
      <stop offset="0.207" style="stop-color:#0b98a7;stop-opacity:1"/>
      <stop offset="0.211" style="stop-color:#0c98a7;stop-opacity:1"/>
      <stop offset="0.215" style="stop-color:#0c99a8;stop-opacity:1"/>
      <stop offset="0.219" style="stop-color:#0d99a8;stop-opacity:1"/>
      <stop offset="0.223" style="stop-color:#0e99a8;stop-opacity:1"/>
      <stop offset="0.227" style="stop-color:#0e9aa8;stop-opacity:1"/>
      <stop offset="0.23" style="stop-color:#0f9aa8;stop-opacity:1"/>
      <stop offset="0.234" style="stop-color:#109aa8;stop-opacity:1"/>
      <stop offset="0.238" style="stop-color:#109aa8;stop-opacity:1"/>
      <stop offset="0.242" style="stop-color:#119ba8;stop-opacity:1"/>
      <stop offset="0.246" style="stop-color:#129ba8;stop-opacity:1"/>
      <stop offset="0.25" style="stop-color:#129ba9;stop-opacity:1"/>
      <stop offset="0.254" style="stop-color:#139ca9;stop-opacity:1"/>
      <stop offset="0.258" style="stop-color:#149ca9;stop-opacity:1"/>
      <stop offset="0.262" style="stop-color:#149ca9;stop-opacity:1"/>
      <stop offset="0.266" style="stop-color:#159ca9;stop-opacity:1"/>
      <stop offset="0.27" style="stop-color:#169da9;stop-opacity:1"/>
      <stop offset="0.273" style="stop-color:#169da9;stop-opacity:1"/>
      <stop offset="0.277" style="stop-color:#179da9;stop-opacity:1"/>
      <stop offset="0.281" style="stop-color:#189eaa;stop-opacity:1"/>
      <stop offset="0.285" style="stop-color:#189eaa;stop-opacity:1"/>
      <stop offset="0.289" style="stop-color:#199eaa;stop-opacity:1"/>
      <stop offset="0.293" style="stop-color:#1a9faa;stop-opacity:1"/>
      <stop offset="0.297" style="stop-color:#1a9faa;stop-opacity:1"/>
      <stop offset="0.301" style="stop-color:#1b9faa;stop-opacity:1"/>
      <stop offset="0.305" style="stop-color:#1b9faa;stop-opacity:1"/>
      <stop offset="0.309" style="stop-color:#1ca0aa;stop-opacity:1"/>
      <stop offset="0.313" style="stop-color:#1da0aa;stop-opacity:1"/>
      <stop offset="0.316" style="stop-color:#1da0ab;stop-opacity:1"/>
      <stop offset="0.32" style="stop-color:#1ea1ab;stop-opacity:1"/>
      <stop offset="0.324" style="stop-color:#1fa1ab;stop-opacity:1"/>
      <stop offset="0.328" style="stop-color:#20a1ab;stop-opacity:1"/>
      <stop offset="0.332" style="stop-color:#20a2ab;stop-opacity:1"/>
      <stop offset="0.336" style="stop-color:#21a2ab;stop-opacity:1"/>
      <stop offset="0.34" style="stop-color:#22a2ab;stop-opacity:1"/>
      <stop offset="0.344" style="stop-color:#22a3ab;stop-opacity:1"/>
      <stop offset="0.348" style="stop-color:#23a3ab;stop-opacity:1"/>
      <stop offset="0.352" style="stop-color:#23a3ac;stop-opacity:1"/>
      <stop offset="0.355" style="stop-color:#24a3ac;stop-opacity:1"/>
      <stop offset="0.359" style="stop-color:#25a4ac;stop-opacity:1"/>
      <stop offset="0.363" style="stop-color:#25a4ac;stop-opacity:1"/>
      <stop offset="0.367" style="stop-color:#26a4ac;stop-opacity:1"/>
      <stop offset="0.371" style="stop-color:#27a5ac;stop-opacity:1"/>
      <stop offset="0.375" style="stop-color:#27a5ac;stop-opacity:1"/>
      <stop offset="0.379" style="stop-color:#28a5ac;stop-opacity:1"/>
      <stop offset="0.383" style="stop-color:#29a6ac;stop-opacity:1"/>
      <stop offset="0.387" style="stop-color:#29a6ad;stop-opacity:1"/>
      <stop offset="0.391" style="stop-color:#2aa6ad;stop-opacity:1"/>
      <stop offset="0.395" style="stop-color:#2ba7ad;stop-opacity:1"/>
      <stop offset="0.398" style="stop-color:#2ba7ad;stop-opacity:1"/>
      <stop offset="0.402" style="stop-color:#2ca7ad;stop-opacity:1"/>
      <stop offset="0.406" style="stop-color:#2da7ad;stop-opacity:1"/>
      <stop offset="0.41" style="stop-color:#2da8ad;stop-opacity:1"/>
      <stop offset="0.414" style="stop-color:#2ea8ad;stop-opacity:1"/>
      <stop offset="0.418" style="stop-color:#2fa8ad;stop-opacity:1"/>
      <stop offset="0.422" style="stop-color:#2fa9ae;stop-opacity:1"/>
      <stop offset="0.426" style="stop-color:#30a9ae;stop-opacity:1"/>
      <stop offset="0.43" style="stop-color:#31a9ae;stop-opacity:1"/>
      <stop offset="0.434" style="stop-color:#31aaae;stop-opacity:1"/>
      <stop offset="0.438" style="stop-color:#32aaae;stop-opacity:1"/>
      <stop offset="0.441" style="stop-color:#33aaae;stop-opacity:1"/>
      <stop offset="0.445" style="stop-color:#33aaae;stop-opacity:1"/>
      <stop offset="0.449" style="stop-color:#34abae;stop-opacity:1"/>
      <stop offset="0.453" style="stop-color:#35abaf;stop-opacity:1"/>
      <stop offset="0.457" style="stop-color:#35abaf;stop-opacity:1"/>
      <stop offset="0.461" style="stop-color:#36acaf;stop-opacity:1"/>
      <stop offset="0.465" style="stop-color:#36acaf;stop-opacity:1"/>
      <stop offset="0.469" style="stop-color:#37acaf;stop-opacity:1"/>
      <stop offset="0.473" style="stop-color:#38acaf;stop-opacity:1"/>
      <stop offset="0.477" style="stop-color:#38adaf;stop-opacity:1"/>
      <stop offset="0.48" style="stop-color:#39adaf;stop-opacity:1"/>
      <stop offset="0.484" style="stop-color:#3aadaf;stop-opacity:1"/>
      <stop offset="0.488" style="stop-color:#3aaeb0;stop-opacity:1"/>
      <stop offset="0.492" style="stop-color:#3baeb0;stop-opacity:1"/>
      <stop offset="0.496" style="stop-color:#3caeb0;stop-opacity:1"/>
      <stop offset="0.5" style="stop-color:#3dafb0;stop-opacity:1"/>
      <stop offset="0.504" style="stop-color:#3dafb0;stop-opacity:1"/>
      <stop offset="0.508" style="stop-color:#3eafb0;stop-opacity:1"/>
      <stop offset="0.512" style="stop-color:#3eb0b0;stop-opacity:1"/>
      <stop offset="0.516" style="stop-color:#3fb0b0;stop-opacity:1"/>
      <stop offset="0.52" style="stop-color:#40b0b0;stop-opacity:1"/>
      <stop offset="0.523" style="stop-color:#40b0b1;stop-opacity:1"/>
      <stop offset="0.527" style="stop-color:#41b1b1;stop-opacity:1"/>
      <stop offset="0.531" style="stop-color:#42b1b1;stop-opacity:1"/>
      <stop offset="0.535" style="stop-color:#42b1b1;stop-opacity:1"/>
      <stop offset="0.539" style="stop-color:#43b2b1;stop-opacity:1"/>
      <stop offset="0.543" style="stop-color:#44b2b1;stop-opacity:1"/>
      <stop offset="0.547" style="stop-color:#44b2b1;stop-opacity:1"/>
      <stop offset="0.551" style="stop-color:#45b3b1;stop-opacity:1"/>
      <stop offset="0.555" style="stop-color:#46b3b1;stop-opacity:1"/>
      <stop offset="0.559" style="stop-color:#46b3b2;stop-opacity:1"/>
      <stop offset="0.563" style="stop-color:#47b4b2;stop-opacity:1"/>
      <stop offset="0.566" style="stop-color:#48b4b2;stop-opacity:1"/>
      <stop offset="0.57" style="stop-color:#48b4b2;stop-opacity:1"/>
      <stop offset="0.574" style="stop-color:#49b4b2;stop-opacity:1"/>
      <stop offset="0.578" style="stop-color:#49b5b2;stop-opacity:1"/>
      <stop offset="0.582" style="stop-color:#4ab5b2;stop-opacity:1"/>
      <stop offset="0.586" style="stop-color:#4bb5b2;stop-opacity:1"/>
      <stop offset="0.59" style="stop-color:#4cb6b2;stop-opacity:1"/>
      <stop offset="0.594" style="stop-color:#4cb6b3;stop-opacity:1"/>
      <stop offset="0.598" style="stop-color:#4db6b3;stop-opacity:1"/>
      <stop offset="0.602" style="stop-color:#4eb7b3;stop-opacity:1"/>
      <stop offset="0.605" style="stop-color:#4eb7b3;stop-opacity:1"/>
      <stop offset="0.609" style="stop-color:#4fb7b3;stop-opacity:1"/>
      <stop offset="0.613" style="stop-color:#50b7b3;stop-opacity:1"/>
      <stop offset="0.617" style="stop-color:#50b8b3;stop-opacity:1"/>
      <stop offset="0.621" style="stop-color:#51b8b3;stop-opacity:1"/>
      <stop offset="0.625" style="stop-color:#51b8b3;stop-opacity:1"/>
      <stop offset="0.629" style="stop-color:#52b9b4;stop-opacity:1"/>
      <stop offset="0.633" style="stop-color:#53b9b4;stop-opacity:1"/>
      <stop offset="0.637" style="stop-color:#53b9b4;stop-opacity:1"/>
      <stop offset="0.641" style="stop-color:#54bab4;stop-opacity:1"/>
      <stop offset="0.645" style="stop-color:#55bab4;stop-opacity:1"/>
      <stop offset="0.648" style="stop-color:#55bab4;stop-opacity:1"/>
      <stop offset="0.652" style="stop-color:#56bab4;stop-opacity:1"/>
      <stop offset="0.656" style="stop-color:#57bbb4;stop-opacity:1"/>
      <stop offset="0.66" style="stop-color:#57bbb5;stop-opacity:1"/>
      <stop offset="0.664" style="stop-color:#58bbb5;stop-opacity:1"/>
      <stop offset="0.668" style="stop-color:#59bcb5;stop-opacity:1"/>
      <stop offset="0.672" style="stop-color:#5abcb5;stop-opacity:1"/>
      <stop offset="0.676" style="stop-color:#5abcb5;stop-opacity:1"/>
      <stop offset="0.68" style="stop-color:#5bbcb5;stop-opacity:1"/>
      <stop offset="0.684" style="stop-color:#5bbdb5;stop-opacity:1"/>
      <stop offset="0.688" style="stop-color:#5cbdb5;stop-opacity:1"/>
      <stop offset="0.691" style="stop-color:#5dbdb5;stop-opacity:1"/>
      <stop offset="0.695" style="stop-color:#5dbeb6;stop-opacity:1"/>
      <stop offset="0.699" style="stop-color:#5ebeb6;stop-opacity:1"/>
      <stop offset="0.703" style="stop-color:#5fbeb6;stop-opacity:1"/>
      <stop offset="0.707" style="stop-color:#5fbfb6;stop-opacity:1"/>
      <stop offset="0.711" style="stop-color:#60bfb6;stop-opacity:1"/>
      <stop offset="0.719" style="stop-color:#60bfb6;stop-opacity:1"/>
      <stop offset="0.75" style="stop-color:#60bfb6;stop-opacity:1"/>
      <stop offset="1" style="stop-color:#60bfb6;stop-opacity:1"/>
    </linearGradient>
    <symbol overflow="visible" id="d">
      <path style="stroke:none" d="M10.219 0H3.844l3.875-18.563H2.547l1.125-5.28h16.75l-1.156 5.28h-5.172Zm0 0"/>
    </symbol>
    <symbol overflow="visible" id="e">
      <path style="stroke:none" d="M8.672.328c-2.305 0-4.094-.64-5.375-1.922-1.281-1.289-1.922-3.086-1.922-5.39 0-2.29.453-4.36 1.36-6.204.906-1.843 2.148-3.238 3.734-4.187 1.582-.945 3.41-1.422 5.484-1.422 2.063 0 3.688.469 4.875 1.406 1.188.93 1.781 2.172 1.781 3.735 0 2.18-.855 3.855-2.562 5.031-1.7 1.168-4.156 1.75-7.375 1.75h-.953v.25c0 1.617.89 2.422 2.672 2.422.851 0 1.691-.125 2.515-.375.832-.258 1.774-.664 2.828-1.219v4.453C14.516-.719 13.38-.28 12.328-.03c-1.055.238-2.273.36-3.656.36Zm2.578-14.86c-.668 0-1.29.384-1.86 1.141a5.261 5.261 0 0 0-1.046 2.563h.484c1.176 0 2.102-.223 2.781-.672.676-.445 1.016-1.04 1.016-1.781 0-.352-.11-.649-.328-.89-.219-.24-.57-.36-1.047-.36Zm0 0"/>
    </symbol>
    <symbol overflow="visible" id="f">
      <path style="stroke:none" d="M8.25.328c-2.168 0-3.855-.656-5.063-1.969-1.21-1.312-1.812-3.164-1.812-5.562 0-2.188.41-4.164 1.234-5.938.832-1.78 2-3.164 3.5-4.156 1.508-1 3.223-1.5 5.141-1.5 2.113 0 4.11.434 5.984 1.297l-2 4.688c-1.449-.657-2.671-.985-3.671-.985-.68 0-1.305.262-1.876.781-.574.524-1.046 1.305-1.421 2.344a9.176 9.176 0 0 0-.547 3.063c0 .992.16 1.714.484 2.171.32.461.836.688 1.547.688.781 0 1.535-.125 2.266-.375.738-.25 1.52-.586 2.343-1.016v5c-.867.48-1.78.844-2.75 1.094-.96.25-2.078.375-3.359.375Zm0 0"/>
    </symbol>
    <symbol overflow="visible" id="g">
      <path style="stroke:none" d="m10.422 0 2.094-10.078c.195-.844.296-1.613.296-2.313 0-.468-.12-.816-.359-1.046a1.184 1.184 0 0 0-.86-.36c-1.366 0-2.37 1.594-3.015 4.781L6.688 0H.375l5.36-25.375h6.312l-.86 4.063c-.386 1.718-.867 3.257-1.437 4.609h.125c1.102-1.395 2.586-2.094 4.453-2.094 1.531 0 2.723.465 3.578 1.39.864.93 1.297 2.216 1.297 3.86 0 1.149-.137 2.39-.406 3.735L16.734 0Zm0 0"/>
    </symbol>
    <symbol overflow="visible" id="i">
      <path style="stroke:none" d="M9.25-4.75c.719 0 1.71-.254 2.984-.766v4.75C10.754-.036 8.906.328 6.688.328c-1.618 0-2.84-.344-3.672-1.031C2.19-1.398 1.78-2.535 1.78-4.11c0-.82.13-1.844.39-3.063l1.36-6.562h-2.5l.672-3.094 3.547-1.438 2.234-3.906h4.204l-.797 3.703h4.703l-1.031 4.735h-4.72l-1.359 6.25c-.18.836-.265 1.406-.265 1.718 0 .68.344 1.016 1.031 1.016Zm0 0"/>
    </symbol>
    <symbol overflow="visible" id="j">
      <path style="stroke:none" d="M9.219-4.75c.539 0 1.054-.316 1.547-.953.5-.633.894-1.484 1.187-2.547.29-1.063.438-2.102.438-3.125 0-.707-.11-1.273-.329-1.703-.218-.438-.558-.656-1.015-.656-.824 0-1.57.687-2.235 2.062-.667 1.375-1 2.906-1 4.594 0 1.555.47 2.328 1.407 2.328ZM16 0h-5.047l.172-2h-.14c-.606.844-1.262 1.445-1.97 1.797-.71.351-1.507.531-2.39.531-1.719 0-3.027-.601-3.922-1.812-.887-1.22-1.328-2.961-1.328-5.235 0-1.945.395-3.93 1.188-5.953.789-2.02 1.789-3.547 3-4.578 1.218-1.031 2.562-1.547 4.03-1.547.907 0 1.708.203 2.407.61.695.406 1.316 1.074 1.86 2h.124l.875-2.282h5.047Zm0 0"/>
    </symbol>
    <symbol overflow="visible" id="k">
      <path style="stroke:none" d="m10.516 0 2.14-10.281c.156-.977.235-1.64.235-1.985 0-1.02-.391-1.53-1.172-1.53-.742 0-1.36.405-1.86 1.218-.492.812-.906 2.012-1.25 3.594L6.688 0H.375l3.89-18.469h5.048l-.266 3.047h.125c.664-1.238 1.41-2.11 2.234-2.61.832-.507 1.875-.765 3.125-.765 1.27 0 2.25.293 2.938.875.687.586 1.172 1.418 1.453 2.5h.14c.708-1.156 1.516-2.004 2.422-2.547.914-.55 1.977-.828 3.188-.828 1.531 0 2.691.461 3.484 1.375.79.918 1.188 2.274 1.188 4.063 0 1.062-.121 2.18-.36 3.343L26.954 0H20.64l2.109-10.281c.145-.614.219-1.336.219-2.172 0-.438-.106-.77-.313-1-.199-.227-.476-.344-.828-.344-.805 0-1.453.418-1.953 1.25-.492.824-.902 2.055-1.234 3.688L16.828 0Zm0 0"/>
    </symbol>
  </defs>
  <g transform="matrix(1.55011, 0, 0, 1.55011, -32.877102, -30.463976)" style="">
    <g clip-path="url(#a)">
      <g clip-path="url(#b)">
        <path style="stroke:none;fill-rule:nonzero;fill:url(#c)" d="m-10.66 50.156 63.68 76.547 76.917-63.988-63.683-76.547Zm0 0"/>
      </g>
    </g>
    <path style="stroke:none;fill-rule:nonzero;fill:#fff;fill-opacity:1" d="M 67.89 42.2 L 61.125 54.309 L 54.469 39.934 L 46.164 42.144 L 35.875 68.957 L 45.055 68.957 L 51.242 53.145 L 57.344 68.211 L 62.039 68.211 L 71.062 52.063 L 71.062 72.719 L 79.629 69.82 L 79.629 44.281 Z M 67.89 42.2"/>
    <path style="stroke:none;fill-rule:nonzero;fill:#1e3c88;fill-opacity:1" d="M 207.07 65.742 C 209.598 65.742 211.621 63.73 211.621 60.656 C 211.621 57.536 209.598 55.446 207.071 55.446 C 204.543 55.446 202.52 57.536 202.52 60.656 C 202.52 63.73 204.543 65.742 207.07 65.742 M 198.504 52.187 C 200.809 49.969 203.652 48.883 207.027 48.883 C 210.449 48.883 213.289 49.969 215.597 52.187 C 217.902 54.359 219.059 57.184 219.059 60.657 C 219.059 64.09 217.902 66.914 215.598 69.09 C 213.332 71.219 210.488 72.305 207.07 72.305 C 203.652 72.305 200.809 71.219 198.504 69.09 C 196.234 66.914 195.082 64.09 195.082 60.656 C 195.082 57.184 196.234 54.359 198.504 52.188 M 185.219 48.883 C 185.027 48.883 184.836 48.891 184.649 48.903 C 182.145 48.988 178.977 50.172 177.617 51.027 L 177.16 49.347 L 170.367 49.347 L 170.367 71.762 L 178.586 71.762 L 178.586 57.324 C 179.781 56.449 181.73 56.129 182.696 56.129 C 183.75 56.129 184.254 56.953 184.254 58.332 L 184.254 71.762 L 192.566 71.762 L 192.566 56.598 C 192.566 51.684 190.359 48.883 185.219 48.883 M 131.184 44.46 L 124.289 56.793 L 117.512 42.153 L 109.055 44.406 L 98.57 71.72 L 107.922 71.72 L 114.227 55.61 L 120.437 70.958 L 125.223 70.958 L 134.414 54.508 L 134.414 75.31 L 143.141 72.36 L 143.141 46.582 Z M 160.254 63.25 C 160.254 65.836 158.617 66.98 155.524 66.98 C 153.464 66.98 152.246 66.398 152.246 64.902 C 152.246 63.406 153.633 62.972 156.523 62.972 L 160.253 63.004 Z M 147.688 50.012 L 147.688 56.32 L 147.695 56.32 C 148.425 56.094 151.742 55.152 155.879 55.152 L 155.875 55.152 C 158.809 55.113 160.207 55.977 160.207 58.27 L 156.27 58.27 C 150.652 58.27 145.652 59.625 145.652 65.293 C 145.652 68.75 148.391 72.336 153.582 72.336 C 158.32 72.336 160.535 70.664 160.535 70.664 L 161.008 71.75 L 167.297 71.75 L 167.297 58.145 C 167.297 45.765 153.687 48.965 147.687 50.012 M 328.691 65.742 C 331.219 65.742 333.242 63.73 333.242 60.656 C 333.242 57.536 331.219 55.446 328.692 55.446 C 326.164 55.446 324.145 57.536 324.145 60.656 C 324.145 63.73 326.165 65.742 328.691 65.742 M 320.125 52.187 C 322.434 49.969 325.273 48.883 328.652 48.883 C 332.07 48.883 334.914 49.969 337.219 52.187 C 339.527 54.359 340.679 57.184 340.679 60.657 C 340.679 64.09 339.527 66.914 337.219 69.09 C 334.953 71.219 332.113 72.305 328.691 72.305 C 325.273 72.305 322.434 71.219 320.125 69.09 C 317.859 66.914 316.707 64.09 316.707 60.656 C 316.707 57.184 317.859 54.359 320.125 52.188 M 306.84 48.883 C 306.65 48.884 306.46 48.89 306.27 48.903 C 303.766 48.988 300.598 50.172 299.242 51.027 L 298.782 49.347 L 291.992 49.347 L 291.992 71.762 L 300.211 71.762 L 300.211 57.324 C 301.402 56.449 303.351 56.129 304.316 56.129 C 305.371 56.129 305.879 56.953 305.879 58.332 L 305.879 71.762 L 314.187 71.762 L 314.187 56.598 C 314.187 51.684 311.984 48.883 306.84 48.883 M 252.809 44.46 L 245.914 56.793 L 239.133 42.153 L 230.676 44.406 L 220.196 71.719 L 229.546 71.719 L 235.848 55.609 L 242.062 70.957 L 246.844 70.957 L 256.039 54.507 L 256.039 75.31 L 264.766 72.36 L 264.766 46.582 Z M 281.875 63.25 C 281.875 65.836 280.238 66.98 277.148 66.98 C 275.09 66.98 273.871 66.398 273.871 64.902 C 273.871 63.406 275.258 62.972 278.145 62.972 L 281.875 63.004 Z M 269.309 50.012 L 269.309 56.32 L 269.316 56.32 C 270.051 56.094 273.367 55.152 277.504 55.152 L 277.496 55.152 C 280.43 55.113 281.832 55.977 281.832 58.27 L 277.895 58.27 C 272.273 58.27 267.273 59.625 267.273 65.293 C 267.273 68.75 270.016 72.336 275.203 72.336 C 279.945 72.336 282.16 70.664 282.16 70.664 L 282.633 71.75 L 288.922 71.75 L 288.922 58.145 C 288.922 45.765 275.309 48.965 269.309 50.012"/>
    <g style="fill:#0397a7;fill-opacity:1">
      <use transform="matrix(1, 0, 0, 1, 160.25399780273438, 111.46299743652344)" xlink:href="#d"/>
      <use transform="matrix(1, 0, 0, 1, 178.05099487304688, 111.46299743652344)" xlink:href="#e"/>
    </g>
    <use style="fill:#0397a7;fill-opacity:1" transform="matrix(1, 0, 0, 1, 198.45199584960938, 111.46299743652344)" xlink:href="#f"/>
    <use style="fill:#0397a7;fill-opacity:1" transform="matrix(1, 0, 0, 1, 216.68299865722656, 111.46299743652344)" xlink:href="#g"/>
    <use style="fill:#0397a7;fill-opacity:1" transform="matrix(1, 0, 0, 1, 238.78700256347656, 111.46299743652344)" xlink:href="#h"/>
    <use style="fill:#0397a7;fill-opacity:1" transform="matrix(1, 0, 0, 1, 248.80499267578125, 111.46299743652344)" xlink:href="#i"/>
    <use style="fill:#0397a7;fill-opacity:1" transform="matrix(1, 0, 0, 1, 265.13299560546875, 111.46299743652344)" xlink:href="#e"/>
    <use style="fill:#0397a7;fill-opacity:1" transform="matrix(1, 0, 0, 1, 285.635009765625, 111.46299743652344)" xlink:href="#j"/>
    <use style="fill:#0397a7;fill-opacity:1" transform="matrix(1, 0, 0, 1, 307.27099609375, 111.46299743652344)" xlink:href="#k"/>
  </g>
</svg>