<svg xmlns="http://www.w3.org/2000/svg" viewBox="0 0 880 364"><g fill="none" fill-rule="nonzero"><g transform="translate(0 74.951)"><circle cx="121.191" cy="107.143" r="106.694" fill="#34CEA2"/><path fill="#FFF" d="M185.923 68.456c-.729-1.219-31.361-21.644-72.281 3.031L90.976 87.323l-4.324-2.016c-8.337-3.863-18.055-3.343-25.93 1.405L40.816 98.716c-2.528 1.525-3.343 4.804-1.817 7.331.56.932 1.361 1.627 2.28 2.063l.084.036 11.81 5.573c.979.461 1.917.993 2.81 1.588L6.824 144.951c-2.525 1.523-3.34 4.806-1.814 7.331 1.522 2.527 4.802 3.339 7.33 1.814l50.951-30.724 4.188 6.941 1.343 2.228-65.429 39.45c-2.525 1.525-3.337 4.806-1.814 7.329 1.521 2.526 4.807 3.342 7.33 1.818l65.427-39.45 1.298 2.153 4.218 6.99-41.728 25.163c-2.525 1.522-3.34 4.806-1.814 7.333 1.523 2.525 4.802 3.337 7.33 1.812l39.91-24.066c.104 1.047.135 2.105.086 3.167l-.589 13.004-.008.148c-.034 1.004.204 2.026.761 2.951 1.522 2.525 4.807 3.34 7.329 1.816l19.91-12.006c7.866-4.742 12.861-13.096 13.342-22.275l.248-4.75 24.583-12.652c40.882-24.651 37.424-60.809 36.711-62.02z"/><path fill="#1D1D1B" d="M122.292 99.698c-2.118-.539-4.318-.217-6.189.906-1.878 1.113-3.202 2.904-3.736 5.02-.545 2.121-.221 4.32.899 6.197 1.121 1.869 2.906 3.193 5.024 3.729 2.121.539 4.321.219 6.194-.901 3.87-2.311 5.136-7.344 2.83-11.215-1.118-1.874-2.903-3.205-5.022-3.736zM147.317 91.493c-1.121-1.875-2.911-3.201-5.022-3.738-2.121-.527-4.32-.211-6.199.909-3.867 2.314-5.142 7.345-2.829 11.218 1.12 1.869 2.902 3.199 5.021 3.736 2.131.531 4.323.211 6.191-.908 3.875-2.314 5.143-7.342 2.838-11.217zM140.044 73.053l-10.105-32.265c-.441-1.405-1.498-2.533-2.877-3.058a4.7886 4.7886 0 0 0-4.178.366L80.718 63.269l-5.685-5.49c-1.412-1.36-3.507-1.73-5.299-.933l-16.685 7.431c-2.426 1.08-3.518 3.924-2.438 6.35 1.083 2.428 3.921 3.52 6.351 2.439l13.723-6.111 5.941 5.737 23.559 24.153c.981 1.007 2.315 1.502 3.646 1.447.782-.031 1.56-.254 2.266-.676l31.82-18.998c1.914-1.137 2.791-3.44 2.127-5.565z"/><path fill="#34CEA2" d="M81.664 143.505c-1.521-2.528-4.806-3.34-7.327-1.818l-57.801 34.854c-2.531 1.523-3.343 4.805-1.82 7.332 1.525 2.523 4.807 3.338 7.332 1.814l57.802-34.854c2.525-1.522 3.337-4.803 1.814-7.328zM22.426 160.487l46.379-27.969c2.526-1.521 3.34-4.803 1.814-7.329-1.522-2.524-4.802-3.337-7.329-1.815l-46.377 27.965c-2.527 1.523-3.342 4.803-1.816 7.332 1.522 2.521 4.803 3.337 7.329 1.816z"/></g><g fill="#000"><path d="M282.908 143.725h22.912c7.604 0 13.41 1.726 17.422 5.174 1.549 1.338 2.852 3.221 3.908 5.649 1.055 2.429 1.582 5.58 1.582 9.45 0 3.873-.721 7.533-2.164 10.981-1.443 3.45-3.15 6.089-5.121 7.919-1.971 1.831-4.295 3.31-6.969 4.435-4.154 1.76-8.307 2.64-12.459 2.64h-11.932l-2.535 24.497c-.211 2.253-2.428 3.378-6.652 3.378h-3.59c-4.012 0-6.018-1.125-6.018-3.378l6.969-66.521c.282-2.815 1.831-4.224 4.647-4.224zm18.795 32.311c2.744 0 5.137-.792 7.18-2.376 2.041-1.584 3.062-4.082 3.062-7.497 0-3.413-.811-5.702-2.43-6.863-1.619-1.161-3.555-1.742-5.807-1.742h-10.137l-2.006 18.479h10.138v-.001zM336.863 172.446l-.211-5.913c0-1.125 1.16-2.041 3.484-2.745 2.322-.703 5.242-1.056 8.764-1.056.914 0 1.617.353 2.111 1.056.492.705.793 1.425.898 2.165.105.74.227 1.953.369 3.643 3.59-5.349 7.707-8.024 12.354-8.024 3.309 0 4.963 1.62 4.963 4.857 0 1.76-.512 3.837-1.531 6.23-1.021 2.394-1.918 3.59-2.693 3.59-.211 0-.738-.158-1.582-.475-.846-.317-1.762-.475-2.746-.475-3.449 0-6.512 1.795-9.186 5.385l-3.379 33.789c-.213 2.253-2.43 3.378-6.652 3.378h-2.957c-1.971 0-3.469-.316-4.488-.95-1.021-.633-1.531-1.407-1.531-2.323l3.592-34.633c.279-2.748.421-5.245.421-7.499zM393.195 203.859c1.863 1.515 4.275 2.27 7.232 2.27s5.701-.386 8.236-1.162c2.533-.773 4.594-1.547 6.178-2.323 1.582-.774 2.48-1.162 2.691-1.162.562 0 .846.493.846 1.479 0 1.056-.105 2.552-.318 4.487-.211 1.937-.387 3.151-.527 3.643-.775 2.605-3.062 4.487-6.863 5.649-3.801 1.162-7.639 1.742-11.51 1.742-8.377 0-14.623-2.041-18.742-6.124-4.117-4.082-6.176-9.784-6.176-17.105 0-11.473 2.709-19.957 8.131-25.447 5.418-5.491 12.389-8.236 20.906-8.236 4.012 0 7.461.528 10.348 1.583 2.885 1.056 4.998 2.429 6.336 4.118 2.533 3.099 3.801 6.301 3.801 9.609 0 6.477-2.289 11.316-6.863 14.519-4.576 3.204-9.857 4.804-15.84 4.804-3.871 0-7.531-.246-10.98-.739.21 4.084 1.249 6.882 3.114 8.395zm9.028-29.935c-5.844 0-9.645 3.943-11.402 11.826h5.066c4.506 0 7.744-.686 9.715-2.059 1.971-1.373 2.957-2.973 2.957-4.804 0-3.308-2.112-4.963-6.336-4.963zM456.283 173.818c-4.014 0-6.02 1.409-6.02 4.224 0 1.479.986 2.746 2.957 3.801 1.971 1.056 4.117 1.954 6.441 2.692 2.322.739 4.469 2.236 6.441 4.488 1.969 2.253 2.955 5.174 2.955 8.764 0 6.478-2.006 11.546-6.018 15.205-4.014 3.661-9.258 5.491-15.732 5.491-2.678 0-5.281-.282-7.814-.845-4.928-1.125-7.391-2.991-7.391-5.596 0-6.335.773-9.503 2.322-9.503.141 0 .773.316 1.9.95 3.236 1.76 6.477 2.64 9.715 2.64 4.645 0 6.969-1.759 6.969-5.279 0-1.479-.652-2.693-1.953-3.643-1.305-.95-2.869-1.742-4.699-2.375-1.832-.634-3.66-1.389-5.49-2.271-1.832-.879-3.398-2.287-4.699-4.224-1.303-1.935-1.953-4.346-1.953-7.233 0-6.264 1.936-11.087 5.807-14.465 3.871-3.379 8.904-5.068 15.1-5.068 3.801 0 7.32.511 10.559 1.531 3.238 1.021 4.857 2.658 4.857 4.91 0 1.127-.686 2.729-2.059 4.804-1.373 2.077-2.553 3.115-3.537 3.115-.143 0-1.092-.351-2.852-1.056-1.759-.704-3.694-1.057-5.806-1.057zM482.363 174.769c-1.832 0-2.746-1.267-2.746-3.801 0-5.702 1.336-8.553 4.014-8.553h2.111l1.055-10.031c.211-2.252 2.43-3.379 6.652-3.379h2.957c1.971 0 3.467.317 4.488.95 1.02.634 1.531 1.409 1.531 2.323l-1.057 10.137h6.23c.701 0 1.16.158 1.371.475.211.316.318 1.25.318 2.798 0 1.549-.547 3.45-1.637 5.702-1.094 2.253-2.588 3.379-4.488 3.379H500.1c-1.971 18.373-2.957 27.664-2.957 27.875 0 2.323 1.057 3.484 3.168 3.484.773 0 1.619-.105 2.535-.317.914-.211 1.406-.316 1.479-.316.562 0 .844.528.844 1.583 0 1.056-.248 3.027-.738 5.913-.283 1.76-1.373 3.115-3.273 4.065-1.9.95-3.908 1.425-6.02 1.425-9.15 0-13.727-4.681-13.727-14.043l3.062-29.67h-2.11v.001zM559.865 218.483c-6.689 0-10.736-2.64-12.143-7.919-1.621 2.394-3.68 4.33-6.178 5.808-2.5 1.478-5.227 2.217-8.184 2.217-5.209 0-9.363-1.988-12.459-5.966-3.098-3.976-4.646-9.625-4.646-16.947 0-10.137 2.182-18.336 6.547-24.603 4.363-6.265 9.994-9.397 16.895-9.397 4.574 0 8.834 1.866 12.775 5.596.635-2.112 1.303-3.448 2.008-4.012.701-.563 2.322-.879 4.855-.951h1.268c4.082 0 6.125.881 6.125 2.64l-1.9 18.373c-1.338 12.248-2.006 18.726-2.006 19.428 0 2.254 1.055 3.379 3.166 3.379.562 0 1.197-.105 1.9-.317.703-.211 1.092-.316 1.162-.316.562 0 .846.528.846 1.583 0 1.056-.248 3.027-.74 5.913-.281 1.76-1.373 3.115-3.273 4.065-1.901.951-3.906 1.426-6.018 1.426zm-20.59-12.671c2.885 0 5.631-2.041 8.236-6.124.844-9.572 1.336-14.87 1.477-15.891.141-1.02.562-3.326 1.268-6.916-2.182-1.901-4.506-2.851-6.969-2.851-3.59 0-6.354 1.778-8.289 5.332-1.936 3.556-2.902 8.853-2.902 15.892s2.39 10.558 7.179 10.558zM580.244 172.446l-.211-5.913c0-1.125 1.16-2.041 3.484-2.745 2.322-.703 5.242-1.056 8.764-1.056.914 0 1.617.353 2.111 1.056.492.705.793 1.425.898 2.165.105.74.227 1.953.369 3.643 3.59-5.349 7.707-8.024 12.354-8.024 3.309 0 4.963 1.62 4.963 4.857 0 1.76-.512 3.837-1.531 6.23-1.021 2.394-1.918 3.59-2.693 3.59-.211 0-.738-.158-1.582-.475-.846-.317-1.762-.475-2.746-.475-3.449 0-6.512 1.795-9.186 5.385l-3.379 33.789c-.213 2.253-2.43 3.378-6.652 3.378h-2.957c-1.971 0-3.469-.316-4.488-.95-1.021-.633-1.531-1.407-1.531-2.323l3.592-34.633c.279-2.748.421-5.245.421-7.499zM617.623 195.359c0-9.221 2.041-17 6.123-23.335 2.113-3.237 5.121-5.789 9.029-7.655 3.906-1.864 8.5-2.798 13.779-2.798 7.531 0 13.232 1.971 17.105 5.913 3.869 3.943 5.807 9.714 5.807 17.317 0 10.701-2.57 18.99-7.707 24.866-5.141 5.878-12.215 8.817-21.225 8.817-7.533 0-13.234-1.97-17.105-5.913-3.87-3.943-5.806-9.679-5.806-17.212zm24.18 10.77c3.66 0 6.527-1.777 8.605-5.332 2.076-3.554 3.115-8.641 3.115-15.258 0-7.743-2.746-11.615-8.236-11.615-3.732 0-6.635 1.778-8.711 5.332-2.078 3.556-3.115 8.677-3.115 15.363 0 7.674 2.779 11.51 8.342 11.51zM721.838 203.384c0 3.521-.283 6.229-.846 8.13-.844 2.394-3.045 4.154-6.598 5.279-3.557 1.125-7.094 1.689-10.613 1.689-15.98 0-23.969-7.46-23.969-22.385 0-9.784 2.146-17.809 6.441-24.075 2.182-3.308 5.244-5.876 9.186-7.708 3.941-1.83 8.201-2.745 12.777-2.745 4.574 0 8.674.546 12.301 1.636 3.625 1.092 5.473 2.975 5.543 5.649 0 1.126-.703 2.745-2.111 4.857-1.408 2.112-2.639 3.168-3.695 3.168-.281 0-.846-.246-1.689-.739-2.746-1.479-5.633-2.217-8.658-2.217-9.293 0-13.938 6.863-13.938 20.59 0 3.943.791 6.863 2.375 8.764 1.584 1.901 4.277 2.851 8.078 2.851 3.801 0 7.953-1.125 12.459-3.379 1.125-.562 1.9-.845 2.324-.845.422.001.633.494.633 1.48zM746.65 138.023h2.955c4.014 0 6.02 1.127 6.02 3.379l-4.436 41.813.424.106 14.781-19.112c1.057-1.336 3.273-2.006 6.652-2.006h3.906c3.871 0 5.809.493 5.809 1.479 0 .493-.422 1.232-1.268 2.217l-16.789 20.907 14.361 27.242c.352.704.527 1.338.527 1.9 0 1.267-2.043 1.9-6.125 1.9h-4.434c-3.449 0-5.49-.668-6.125-2.006l-12.143-24.286-.422.105-2.43 22.808c-.211 2.253-2.428 3.378-6.65 3.378h-2.957c-4.014 0-6.02-1.125-6.02-3.378l7.709-73.068c.214-2.251 2.431-3.378 6.655-3.378zM809.211 203.859c1.863 1.515 4.275 2.27 7.232 2.27s5.701-.386 8.236-1.162c2.533-.773 4.594-1.547 6.178-2.323 1.582-.774 2.48-1.162 2.691-1.162.562 0 .846.493.846 1.479 0 1.056-.105 2.552-.318 4.487-.211 1.937-.387 3.151-.527 3.643-.775 2.605-3.062 4.487-6.863 5.649-3.801 1.162-7.639 1.742-11.51 1.742-8.377 0-14.623-2.041-18.742-6.124-4.117-4.082-6.176-9.784-6.176-17.105 0-11.473 2.709-19.957 8.131-25.447 5.418-5.491 12.389-8.236 20.906-8.236 4.012 0 7.461.528 10.348 1.583 2.885 1.056 4.998 2.429 6.336 4.118 2.533 3.099 3.801 6.301 3.801 9.609 0 6.477-2.289 11.316-6.863 14.519-4.576 3.204-9.857 4.804-15.84 4.804-3.871 0-7.531-.246-10.98-.739.21 4.084 1.249 6.882 3.114 8.395zm9.027-29.935c-5.844 0-9.645 3.943-11.402 11.826h5.066c4.506 0 7.744-.686 9.715-2.059 1.971-1.373 2.957-2.973 2.957-4.804 0-3.308-2.111-4.963-6.336-4.963zM852.66 174.769c-1.832 0-2.746-1.267-2.746-3.801 0-5.702 1.336-8.553 4.014-8.553h2.111l1.055-10.031c.211-2.252 2.43-3.379 6.652-3.379h2.957c1.971 0 3.467.317 4.488.95 1.02.634 1.531 1.409 1.531 2.323l-1.057 10.137h6.23c.701 0 1.16.158 1.371.475.211.316.318 1.25.318 2.798 0 1.549-.547 3.45-1.637 5.702-1.094 2.253-2.588 3.379-4.488 3.379h-3.062c-1.971 18.373-2.957 27.664-2.957 27.875 0 2.323 1.057 3.484 3.168 3.484.773 0 1.619-.105 2.535-.317.914-.211 1.406-.316 1.479-.316.562 0 .844.528.844 1.583 0 1.056-.248 3.027-.738 5.913-.283 1.76-1.373 3.115-3.273 4.065-1.9.95-3.908 1.425-6.02 1.425-9.15 0-13.727-4.681-13.727-14.043l3.062-29.67h-2.11v.001z"/></g></g></svg>