<svg xmlns="http://www.w3.org/2000/svg" viewBox="0 0 1000 330"><path fill="#41a985" d="M963.13 24.1a1.2 1.2 0 0 0-1.27-.28L874.6 55.98l-.35.14c-.31.13-.55.36-.67.67l-32.75 87.45a1.2 1.2 0 0 0 1.54 1.55l87.6-32.27c.33-.13.59-.39.71-.71l32.74-87.44a1.2 1.2 0 0 0-.28-1.27"/><path fill="#2f4359" d="M370.55 151.35h-17.33c-.7 0-1.28.57-1.28 1.28v59.71c-6.89 6.95-14.32 10.2-23.36 10.2a19.65 19.65 0 0 1-15.09-7.04c-3.24-3.82-4.62-8.7-4.62-16.34v-46.53c0-.7-.57-1.28-1.28-1.28h-17.34c-.7 0-1.28.57-1.28 1.28v43.8c0 14.09 2.44 23.11 8.13 30.18 7.54 9.47 19 14.9 31.48 14.9 10.82 0 19.33-4.41 23.36-11.47v8.37c0 .7.57 1.27 1.28 1.27h17.33c.71 0 1.28-.57 1.28-1.27v-85.78c0-.7-.57-1.28-1.28-1.28m109.5 0h-17.33c-.7 0-1.28.57-1.28 1.28v8.65c-3.83-6.65-12.06-11.75-25.37-11.75-24.25 0-43.98 20.63-43.98 45.99 0 25.36 19.98 45.99 44.53 45.99 11.84 0 20.7-4.43 24.82-11.87v8.77c0 .7.57 1.27 1.28 1.27h17.34c.7 0 1.27-.57 1.27-1.27v-85.78c0-.7-.57-1.28-1.27-1.28m-18.62 27.33v32.84c-3.8 5.1-10.73 11.01-22.44 11.01-15.9 0-27.02-11.11-27.02-27.02 0-15.9 11.11-27 27.02-27 8.63 0 15.97 3.33 22.44 10.17m89.41-29.15c-11.1 0-19.81 4.45-23.91 11.56v-8.46c0-.7-.57-1.28-1.28-1.28h-17.33c-.7 0-1.28.57-1.28 1.28v85.78c0 .7.57 1.27 1.28 1.27h17.33c.71 0 1.28-.57 1.28-1.27v-59.7c4.1-3.97 12.35-10.2 23.91-10.2 6.08 0 12.12 2.96 16.16 7.92 2.5 3.1 4.83 7.54 4.83 19.08v42.9c0 .7.57 1.27 1.27 1.27h17.34c.7 0 1.28-.57 1.28-1.27v-41.98c0-14.22-2.6-23.57-8.67-31.27a40.67 40.67 0 0 0-32.21-15.63m121.6 70.44a1.28 1.28 0 0 0-1.8-.55c-2.97 1.74-8.45 3.11-12.5 3.11-4.35 0-8.48-1.6-10.52-4.12-1.95-2.27-2.98-5.78-2.98-10.12v-38.87h29.75c.7 0 1.27-.57 1.27-1.28v-15.51c0-.7-.57-1.28-1.27-1.28h-29.75v-29.74c0-.7-.57-1.28-1.28-1.28h-17.34c-.7 0-1.27.57-1.27 1.28v29.74h-20.62c-.7 0-1.28.57-1.28 1.28v15.51c0 .7.57 1.28 1.28 1.28h20.62v37.96c0 9.96 2.63 17.93 7.8 23.66 6.14 6.95 14.56 10.47 25.05 10.47 8.7 0 15.84-1.99 21.2-5.9.49-.37.66-1.04.4-1.59l-6.76-14.05m103.23-68.62h-17.33c-.7 0-1.28.57-1.28 1.28v8.65c-3.83-6.65-12.06-11.75-25.37-11.75-24.25 0-43.98 20.63-43.98 45.99 0 25.36 19.98 45.99 44.53 45.99 11.85 0 20.7-4.43 24.82-11.87v8.77c0 .7.57 1.27 1.28 1.27h17.33c.71 0 1.28-.57 1.28-1.27v-85.78c0-.7-.57-1.28-1.28-1.28m-18.6 27.33v32.84c-3.81 5.1-10.75 11.01-22.46 11.01-15.9 0-27-11.11-27-27.02 0-15.9 11.1-27 27-27 8.63 0 15.98 3.33 22.45 10.17m-486.25-4.44c0-38.19-28-66.98-65.15-66.98-37.15 0-65.16 28.8-65.16 66.98 0 38.18 28.01 66.97 65.16 66.97 7.08 0 14.12-1.14 20.84-3.37l17.86 27.83c.39.59 1.17.76 1.77.38l14.61-9.33c.29-.18.5-.47.56-.8a1.3 1.3 0 0 0-.17-.97l-16.87-26.26c16.9-12.46 26.55-32.23 26.55-54.45m-20.8 0c0 26.84-19.07 47.08-44.36 47.08-25.28 0-44.34-20.24-44.34-47.08 0-26.85 19.06-47.1 44.34-47.1 25.29 0 44.36 20.25 44.36 47.1"/><path fill="#5ec7a0" d="M778.1 98.48l56.82 21.3a1.2 1.2 0 0 0 1.55-1.55L815.53 61.4a1.19 1.19 0 0 0-.7-.7l-.24-.08-56.49-21.16a1.2 1.2 0 0 0-1.55 1.55l20.91 56.8c.11.3.34.54.63.68"/></svg>