<svg xmlns="http://www.w3.org/2000/svg" height="217.147" width="736.92"><path d="M736.608.31a1.074 1.074 0 0 0-1.137-.249l-78.148 28.795-.316.127c-.275.112-.49.325-.599.6l-29.328 78.306a1.081 1.081 0 0 0 1.01 1.456c.129 0 .254-.021.375-.067l78.44-28.902c.292-.11.526-.341.636-.636l29.314-78.288a1.082 1.082 0 0 0-.247-1.141" fill="#41a985"/><path d="M205.987 114.259h-15.523c-.632 0-1.144.51-1.144 1.141v53.468c-6.167 6.224-12.824 9.128-20.921 9.128a17.6 17.6 0 0 1-13.51-6.302c-2.901-3.414-4.14-7.789-4.14-14.625V115.4c0-.63-.51-1.141-1.142-1.141H134.08c-.632 0-1.143.51-1.143 1.141v39.22c0 12.616 2.178 20.697 7.276 27.023 6.748 8.48 17.022 13.345 28.186 13.345 9.69 0 17.308-3.95 20.921-10.268v7.49c0 .631.512 1.142 1.144 1.142h15.523c.632 0 1.142-.51 1.142-1.141V115.4c0-.632-.51-1.142-1.142-1.142M304.04 114.259h-15.524c-.632 0-1.144.51-1.144 1.141v7.747c-3.43-5.954-10.803-10.523-22.717-10.523-21.715 0-39.382 18.474-39.382 41.179 0 22.712 17.887 41.185 39.872 41.185 10.607 0 18.538-3.97 22.227-10.628v7.85c0 .631.512 1.142 1.144 1.142h15.524c.63 0 1.141-.51 1.141-1.141V115.4a1.14 1.14 0 0 0-1.141-1.142m-16.668 24.47v29.41c-3.404 4.568-9.612 9.857-20.099 9.857-14.242 0-24.189-9.95-24.189-24.193 0-14.24 9.947-24.187 24.19-24.187 7.726 0 14.303 2.985 20.098 9.113M367.432 112.624c-9.939 0-17.741 3.99-21.41 10.35V115.4a1.14 1.14 0 0 0-1.142-1.142h-15.524a1.14 1.14 0 0 0-1.141 1.142v76.812c0 .63.509 1.141 1.141 1.141h15.524c.632 0 1.143-.51 1.143-1.141v-53.455c3.668-3.56 11.062-9.141 21.409-9.141 5.443 0 10.856 2.656 14.475 7.099 2.242 2.767 4.321 6.753 4.321 17.086v38.41c0 .632.51 1.142 1.141 1.142h15.524c.632 0 1.144-.51 1.144-1.141v-37.593c0-12.731-2.321-21.102-7.76-27.994-6.976-8.897-17.489-14.001-28.845-14.001M476.317 175.7a1.145 1.145 0 0 0-1.61-.49c-2.656 1.56-7.571 2.786-11.187 2.786-3.904 0-7.597-1.44-9.43-3.688-1.745-2.037-2.667-5.177-2.667-9.068v-34.806h26.641a1.14 1.14 0 0 0 1.141-1.142V115.4a1.14 1.14 0 0 0-1.141-1.142h-26.641V87.621a1.14 1.14 0 0 0-1.142-1.143h-15.526c-.631 0-1.142.51-1.142 1.143v26.637h-18.466c-.631 0-1.143.51-1.143 1.142v13.892c0 .631.512 1.142 1.143 1.142h18.466v33.991c0 8.923 2.354 16.057 6.984 21.188 5.496 6.222 13.042 9.375 22.432 9.375 7.795 0 14.182-1.779 18.979-5.288.444-.327.593-.924.355-1.418l-6.046-12.582M568.759 114.259h-15.523c-.632 0-1.144.51-1.144 1.141v7.747c-3.43-5.954-10.803-10.523-22.717-10.523-21.719 0-39.386 18.474-39.386 41.179 0 22.712 17.891 41.185 39.876 41.185 10.608 0 18.539-3.97 22.227-10.628v7.85c0 .631.512 1.142 1.144 1.142h15.523c.633 0 1.144-.51 1.144-1.141V115.4c0-.632-.511-1.142-1.144-1.142m-16.667 24.47v29.41c-3.407 4.568-9.619 9.857-20.103 9.857-14.241 0-24.185-9.95-24.185-24.193 0-14.24 9.944-24.187 24.185-24.187 7.727 0 14.308 2.985 20.103 9.113M116.682 134.75c0-34.194-25.08-59.975-58.343-59.975C25.08 74.775 0 100.556 0 134.749c0 34.192 25.08 59.974 58.339 59.974a59.29 59.29 0 0 0 18.665-3.019L93 216.623a1.15 1.15 0 0 0 1.58.343l13.087-8.36c.255-.162.437-.42.5-.717.065-.297.01-.609-.151-.865L92.91 183.512c15.122-11.156 23.771-28.864 23.771-48.763m-18.63 0c0 24.036-17.074 42.163-39.713 42.163-22.638 0-39.71-18.127-39.71-42.163 0-24.037 17.072-42.164 39.71-42.164 22.64 0 39.714 18.127 39.714 42.164" fill="#2f4359"/><path d="M570.917 66.91l50.884 19.08c.123.045.254.065.379.065a1.078 1.078 0 0 0 1.012-1.449l-18.757-50.9a1.065 1.065 0 0 0-.628-.629l-.208-.078v-.003l-50.586-18.937a1.081 1.081 0 0 0-1.141.246 1.073 1.073 0 0 0-.25 1.136L570.352 66.3c.098.27.304.49.566.61" fill="#5ec7a0"/></svg>