<svg xmlns="http://www.w3.org/2000/svg" width="1000" height="330" class="c-logo__svg"><g class="layer"><path d="M267.34 141c-3.12 1.78-6.23 5.34-8.9 10.69h-.45l-.45-12.02h-5.34v67.67h6.23v-37.4c0-7.57 1.78-13.8 5.34-18.7 3.56-4.9 8.46-7.12 14.25-7.12 3.12 0 5.79.45 8.9 1.34l1.34-5.79c-3.12-.45-6.23-.89-9.35-.89-4.9-.89-8.46.45-11.58 2.23l.01-.01zm59.66-3.12c-8.9 0-16.03 3.12-21.37 9.79-5.34 6.68-8.01 15.14-8.01 25.82s2.67 19.59 8.46 25.38c5.34 6.23 12.91 8.9 23.15 8.9 4.01 0 7.57-.45 10.69-.89s6.68-1.78 10.69-3.56v-5.79c-4.45 1.78-8.01 3.12-11.13 3.56-3.12.45-6.23.89-10.24.89-8.01 0-13.8-2.23-18.25-7.12-4.45-4.45-6.68-11.58-6.68-20.93h48.97v-4.9c0-9.79-2.23-16.92-7.12-22.71-4.9-5.79-11.13-8.46-19.14-8.46l-.02.02zm-22.26 30.72c.45-8.01 3.12-14.25 7.12-18.7 4.01-4.01 9.35-6.68 15.58-6.68 5.79 0 10.69 2.23 14.25 6.68 3.56 4.45 4.9 10.69 4.9 18.25l-41.85.45zm113.98-34.28c0 4.9 0 10.24.45 15.58h-.45c-2.67-4.45-5.79-7.12-9.35-8.9s-8.01-2.67-12.91-2.67c-9.35 0-16.47 3.12-21.37 9.35-4.9 6.23-7.12 15.14-7.12 26.71 0 11.13 2.23 19.59 7.57 25.38 4.9 5.79 12.02 8.9 21.37 8.9 9.35 0 16.92-4.01 22.26-11.58h.45l1.78 10.24h4.01v-97.5h-6.23l-.45 24.49h-.01zm0 40.07c0 10.24-1.78 17.36-5.34 22.26-3.56 4.45-9.35 6.68-16.92 6.68-14.69 0-22.26-9.79-22.26-28.94 0-9.79 1.78-17.36 5.34-22.71 3.56-5.34 9.35-8.01 16.47-8.01 7.57 0 13.36 2.23 16.92 6.68 3.56 4.45 5.34 12.02 5.34 22.71l.45 1.34v-.01zm31.61-59.66c-2.67 0-3.56 1.78-3.56 5.79s1.34 6.23 4.01 6.23c1.34 0 2.23-.45 3.12-1.78s1.34-2.67 1.34-4.45-.45-3.56-1.34-4.45c-1.34-.89-2.23-1.34-3.56-1.34h-.01zm-3.12 24.49h6.23v67.67h-6.23v-67.67zm44.08 1.78c-3.12 1.78-6.23 5.34-8.9 10.69h-.45l-.45-12.02h-5.34v67.67h6.23v-37.4c0-7.57 1.78-13.8 5.34-18.7 3.56-4.9 8.46-7.12 14.25-7.12 3.12 0 5.79.45 8.9 1.34l1.34-5.79c-3.12-.45-6.23-.89-9.35-.89-4.45-.89-8.46.45-11.58 2.23l.01-.01zm60.1-3.12c-8.9 0-16.03 3.12-21.37 9.79-5.34 6.68-8.01 15.14-8.01 25.82s2.67 19.59 8.46 25.38c5.34 6.23 12.91 8.9 23.15 8.9 4.01 0 7.57-.45 10.69-.89s6.68-1.78 10.69-3.56v-5.79c-4.45 1.78-8.01 3.12-11.13 3.56-3.12.45-6.23.89-10.24.89-8.01 0-13.8-2.23-18.25-7.12s-6.68-12.02-6.68-21.37h48.97v-4.9c0-9.79-2.23-16.92-7.12-22.71-4.9-4.9-11.13-8.01-19.14-8.01l-.02.01zm-22.71 30.72c.45-8.01 3.12-14.25 7.12-18.7 4.01-4.01 9.35-6.68 15.58-6.68 5.79 0 10.69 2.23 14.25 6.68 3.56 4.45 4.9 10.69 4.9 18.25l-41.85.45zm94.83-24.93c4.45 0 9.35.89 15.14 3.12l1.78-5.34c-5.34-2.23-11.13-3.12-16.92-3.12-9.79 0-17.81 3.12-23.15 9.35-5.79 6.23-8.46 15.14-8.46 26.27 0 10.69 2.67 19.59 8.46 25.38 5.34 6.23 12.91 8.9 22.71 8.9 7.12 0 12.47-1.34 16.92-3.12v-5.79c-5.34 2.23-11.13 3.12-17.36 3.12-7.57 0-13.8-2.67-17.81-8.01-4.01-5.34-6.68-12.47-6.68-21.37 0-9.79 2.23-16.92 6.68-22.26 4.01-4.45 10.24-7.12 18.7-7.12l-.01-.01zm42.3 55.65c-1.78-2.23-2.67-6.23-2.67-11.58V145h19.59v-5.34h-19.59v-16.47h-3.12l-3.12 15.14-10.24 2.67v3.56h10.24v44.08c0 6.68 1.34 12.02 4.01 15.14 3.12 3.12 7.12 4.9 13.36 4.9 4.01 0 7.12-.45 10.24-1.34v-4.9c-3.12.45-6.23.89-10.24.89s-6.68-1.78-8.46-4.01zm33.39-60.1h6.23v67.67h-6.23v-67.67zm2.67-24.49c-2.67 0-4.01 1.78-4.01 6.23s1.34 6.23 4.01 6.23c1.34 0 2.23-.45 3.12-1.78.45-1.34 1.34-2.67 1.34-4.45s-.45-3.56-1.34-4.45c-.45-1.34-1.78-1.78-3.12-1.78zm52.09 23.15c-9.35 0-16.47 3.12-21.82 9.35-5.34 6.23-8.01 14.69-8.01 25.82 0 7.12 1.34 13.36 3.56 18.7 2.23 5.34 5.79 9.35 10.24 12.47 4.45 3.12 9.79 4.01 15.58 4.01 9.35 0 16.92-3.12 22.26-9.35 5.34-6.23 8.01-14.69 8.01-25.82 0-10.69-2.67-19.59-8.01-25.82s-12.47-9.35-21.82-9.35l.01-.01zm16.92 56.99c-4.01 5.34-9.79 8.01-17.36 8.01s-13.36-2.67-17.36-8.01-6.23-12.47-6.23-21.82 1.78-16.92 5.79-21.82c4.01-5.34 9.79-7.57 17.36-7.57s13.36 2.67 17.36 8.01 6.23 12.47 6.23 21.82c.45 8.9-1.34 16.47-5.79 21.37v.01zm61.89-56.99c-11.13 0-19.14 3.56-23.6 10.69h-.45l-1.34-9.35h-5.34v67.67h6.23v-37.4c0-9.35 1.78-15.58 5.79-20.03 3.56-4.01 9.79-6.23 17.81-6.23 5.79 0 10.69 1.78 13.36 4.9 3.12 3.12 4.01 8.01 4.01 15.14v44.08h6.23v-44.52c0-16.47-7.57-24.93-22.71-24.93l.01-.02zm48.53 58.32c-3.12 0-4.9 2.23-4.9 6.23s1.78 6.23 4.9 6.23 4.9-2.23 4.9-6.23-1.34-6.23-4.9-6.23zm29.83-81.47c-2.67 0-4.01 1.78-4.01 6.23s1.34 6.23 4.01 6.23c1.34 0 2.23-.45 3.12-1.78.45-1.34 1.34-2.67 1.34-4.45s-.45-3.56-1.34-4.45c-.89-1.34-2.23-1.78-3.12-1.78zm-3.12 24.49h6.23v67.67h-6.23v-67.67zm76.58 8.01c-5.34-6.23-12.47-9.35-21.82-9.35s-16.47 3.12-21.82 9.35c-5.34 6.23-8.01 14.69-8.01 25.82 0 7.12 1.34 13.36 3.56 18.7 2.23 5.34 5.79 9.35 10.24 12.47 4.45 3.12 9.79 4.01 15.58 4.01 9.35 0 16.92-3.12 22.26-9.35 5.34-6.23 8.01-14.69 8.01-25.82 0-10.69-2.67-19.14-8.01-25.82l.01-.01zm-4.45 47.64c-4.01 5.34-9.79 8.01-17.36 8.01s-13.36-2.67-17.36-8.01-6.23-12.47-6.23-21.82 1.78-16.92 5.79-21.82c4.01-5.34 9.79-7.57 17.36-7.57s13.36 2.67 17.36 8.01 6.23 12.47 6.23 21.82c0 8.9-1.78 16.47-5.79 21.37v.01z"/><path fill="#27abf4" d="M98.16 76C47.41 76 6 117.41 6 168.61s41.41 92.61 92.16 92.61 92.16-41.41 92.16-92.61S148.91 76 98.16 76zm8.9 86.37-5.34 7.12 5.34 7.12c8.9 12.02 20.03 20.03 32.06 22.26l-.45-.45c-2.23-2.23-2.23-5.79 0-8.01s5.79-2.23 8.01 0l11.13 11.13c1.34 1.34 1.78 2.67 1.78 4.01 0 1.34-.45 3.12-1.78 4.01l-11.13 11.13c-1.34 1.34-2.67 1.78-4.01 1.78-1.34 0-3.12-.45-4.01-1.78a5.631 5.631 0 0 1 0-8.01l1.78-1.78c-16.03-2.23-31.17-11.58-42.74-27.16l-3.12-4.01-3.12 4.01c-12.91 17.36-30.72 27.6-48.97 27.6-3.12-.45-5.34-3.12-5.34-6.23s2.67-5.79 5.79-5.79c14.69 0 28.94-8.01 40.07-22.71l5.34-7.12-5.34-7.12c-10.69-14.69-24.93-22.71-39.62-22.71-3.56 0-6.23-2.67-6.23-5.79s2.67-5.79 5.79-5.79c18.25 0 36.06 10.24 48.97 27.6l3.12 4.01 3.12-4.01c11.13-15.58 26.71-24.93 42.74-27.16l-1.78-1.78c-2.23-2.23-2.23-5.79 0-8.01s5.79-2.23 8.01 0l10.69 11.13c1.34 1.34 1.78 2.67 1.78 4.01s-.45 3.12-1.78 4.01l-11.13 11.13c-1.34 1.34-2.67 1.78-4.01 1.78s-3.12-.45-4.01-1.78a5.631 5.631 0 0 1 0-8.01l.45-.45c-12.02 2.23-23.15 9.79-32.06 21.82z" class="c-logo__color c-header__logo-color"/></g></svg>
