<?xml version="1.0" encoding="UTF-8" standalone="no"?><!DOCTYPE svg PUBLIC "-//W3C//DTD SVG 1.1//EN" "http://www.w3.org/Graphics/SVG/1.1/DTD/svg11.dtd"><svg width="100%" height="100%" viewBox="0 0 1630 432" version="1.1" xmlns="http://www.w3.org/2000/svg" xmlns:xlink="http://www.w3.org/1999/xlink" xml:space="preserve" xmlns:serif="http://www.serif.com/" style="fill-rule:evenodd;clip-rule:evenodd;stroke-linejoin:round;stroke-miterlimit:2;"><g id="Calque-1" serif:id="Calque 1"><path d="M44.629,399.268c5.554,0.542 10.491,-3.521 11.033,-9.071c0.546,-5.55 -3.517,-10.492 -9.067,-11.033c-0.654,-0.067 -1.312,-0.067 -1.966,0l-12.409,0l0,20.104l12.409,0Zm-3.646,7.271l-8.75,0l0,23.996l-8.208,0l0,-58.65l22.083,0c9.362,-0.538 17.387,6.616 17.925,15.979c0.029,0.487 0.037,0.983 0.021,1.475c0.183,8.354 -5.942,15.512 -14.225,16.621l13.979,24.587l-9.421,0l-13.404,-24.008Z" style="fill:#1c1c1c;fill-rule:nonzero;"/><path d="M94.234,367.745l-7.771,0l8.334,-9.842l10.75,0l-11.313,9.842Zm-19.687,62.788l0,-58.65l35.654,0l0,7.524l-27.546,0l0,18.034l25,0l0,7.608l-25,0l0,17.954l27.546,0l0,7.529l-35.654,0Z" style="fill:#1c1c1c;fill-rule:nonzero;"/><path d="M121.934,430.534l0,-58.65l35.654,0l0,7.521l-27.541,0l0,18.862l24.979,0l0,7.613l-24.979,0l0,24.654l-8.113,0Z" style="fill:#1c1c1c;fill-rule:nonzero;"/><path d="M186.515,367.745l-7.762,0l8.333,-9.842l10.75,0l-11.321,9.842Zm-19.687,62.788l0,-58.65l35.675,0l0,7.524l-27.567,0l0,18.034l25,0l0,7.608l-25,0l0,17.954l27.567,0l0,7.529l-35.675,0Z" style="fill:#1c1c1c;fill-rule:nonzero;"/><path d="M234.813,399.268c5.549,0.542 10.491,-3.521 11.033,-9.071c0.541,-5.55 -3.517,-10.492 -9.067,-11.033c-0.658,-0.067 -1.312,-0.067 -1.966,0l-12.409,0l0,20.104l12.409,0Zm-3.646,7.271l-8.75,0l0,23.996l-8.204,0l0,-58.65l22.083,0c9.362,-0.538 17.387,6.616 17.925,15.979c0.029,0.487 0.033,0.983 0.021,1.475c0.183,8.354 -5.942,15.512 -14.225,16.621l13.979,24.587l-9.409,0l-13.42,-24.008Z" style="fill:#1c1c1c;fill-rule:nonzero;"/><path d="M264.736,430.534l0,-58.65l35.654,0l0,7.521l-27.546,0l0,18.037l25,0l0,7.609l-25,0l0,17.95l27.546,0l0,7.533l-35.654,0Z" style="fill:#1c1c1c;fill-rule:nonzero;"/><path d="M351.906,430.534l-31.666,-47.817l0,47.817l-8.125,0l0,-58.65l10.833,0l29.279,45l0,-45l8.113,0l0,58.65l-8.434,0Z" style="fill:#1c1c1c;fill-rule:nonzero;"/><path d="M370.835,401.168c-0.804,-16.038 11.542,-29.688 27.575,-30.492c0.513,-0.025 1.03,-0.037 1.542,-0.037c11.971,-0.825 22.829,7 25.833,18.616l-7.529,2.642c-1.762,-8.533 -9.587,-14.446 -18.283,-13.808c-10.671,0 -20.833,7.775 -20.833,23.079c0,15.304 10.175,23.158 20.833,23.158c8.762,0.292 16.546,-5.558 18.7,-14.058l7.196,2.646c-3.15,11.579 -13.913,19.416 -25.896,18.862c-15.913,0.209 -28.983,-12.525 -29.192,-28.437c-0.008,-0.725 0.009,-1.45 0.054,-2.171" style="fill:#1c1c1c;fill-rule:nonzero;"/><path d="M435.905,430.534l0,-58.65l35.654,0l0,7.521l-27.546,0l0,18.037l25,0l0,7.609l-25,0l0,17.95l27.546,0l0,7.533l-35.654,0Z" style="fill:#1c1c1c;fill-rule:nonzero;"/><path d="M538.625,430.534l0,-45.662l-20,45.662l-7.458,0l-19.859,-45.662l0,45.662l-8.025,0l0,-58.65l11.005,0l20.683,47.729l20.833,-47.729l10.834,0l0,58.65l-8.013,0Z" style="fill:#1c1c1c;fill-rule:nonzero;"/><path d="M560.834,430.534l0,-58.65l35.654,0l0,7.521l-27.542,0l0,18.037l25,0l0,7.609l-25,0l0,17.95l27.542,0l0,7.533l-35.654,0Z" style="fill:#1c1c1c;fill-rule:nonzero;"/><path d="M648.012,430.534l-31.667,-47.817l0,47.817l-8.108,0l0,-58.65l10.833,0l29.284,45l0,-45l8.108,0l0,58.65l-8.45,0Z" style="fill:#1c1c1c;fill-rule:nonzero;"/><path d="M691.758,379.407l0,51.129l-8.108,0l0,-51.129l-19.583,0l0,-7.525l47.316,0l0,7.525l-19.625,0Z" style="fill:#1c1c1c;fill-rule:nonzero;"/><path d="M749.548,392.977l1.821,1.988l3.967,-2.98c2.65,-1.479 4.317,-4.25 4.387,-7.279c-0.116,-4.046 -3.491,-7.229 -7.533,-7.112c-3.912,0.112 -7.046,3.283 -7.112,7.191c0.429,3.192 2.02,6.109 4.47,8.192m12.409,24.65l0.246,-0.329l-11.909,-12.5l-2.983,2.229c-3.025,1.942 -4.883,5.263 -4.958,8.854c0.133,4.654 4.008,8.321 8.666,8.192l0.021,0c4.408,-0.454 8.392,-2.808 10.917,-6.446m5.454,5.129c-3.904,5.229 -9.942,8.438 -16.458,8.75c-11.084,0 -16.955,-7.437 -16.955,-14.966c0,-7.613 4.134,-11.746 10.334,-16.38l0.833,-0.662l-1.075,-1.158c-3.908,-3.309 -6.421,-7.98 -7.029,-13.067c-0.008,-8.083 6.537,-14.646 14.625,-14.654c0.175,0 0.346,0 0.517,0.008c7.866,-0.692 14.8,5.125 15.491,12.988c0.038,0.441 0.059,0.887 0.054,1.325c-0.508,5.408 -3.587,10.241 -8.275,12.983l-2.975,2.237l10.917,11.33l13.075,-14.555l0,10.688l-7.942,9.167l13.334,13.75l-11.004,0l-7.467,-7.784Z" style="fill:#1c1c1c;fill-rule:nonzero;"/><path d="M839.441,387.765c-0.963,-6.021 -6.325,-10.338 -12.413,-10c-5.7,-0.542 -10.762,3.641 -11.304,9.341c-0.012,0.138 -0.021,0.275 -0.029,0.413c-0.042,4.35 3.208,8.029 7.529,8.516l8.754,1.905c9.767,2.162 15.217,8.275 15.217,16.47c0,9.096 -7.767,17.367 -20.258,17.367c-14.167,0 -20.834,-9.096 -21.921,-17.45l7.771,-2.504c0.408,7.354 6.696,12.987 14.05,12.579l0.016,0c8.1,0 12.084,-4.225 12.084,-9.346c-0.213,-4.808 -3.959,-8.704 -8.754,-9.104l-8.367,-1.787c-8.333,-1.821 -14.308,-7.284 -14.308,-16.05c0.666,-10.1 9.241,-17.838 19.354,-17.459c13.237,0 18.533,8.192 19.854,14.584l-7.275,2.525Z" style="fill:#1c1c1c;fill-rule:nonzero;"/><path d="M857.703,430.534l0,-58.65l35.654,0l0,7.521l-27.525,0l0,18.037l25,0l0,7.609l-25,0l0,17.95l27.546,0l0,7.533l-35.675,0Z" style="fill:#1c1c1c;fill-rule:nonzero;"/><path d="M916.248,406.625l20.179,0l-10.179,-26.3l-10,26.3Zm23.083,7.541l-25.979,0l-6.2,16.379l-8.684,0l23.334,-58.65l9.346,0l23.333,58.65l-8.771,0l-6.379,-16.379Z" style="fill:#1c1c1c;fill-rule:nonzero;"/><path d="M982.654,399.268c5.554,0.542 10.496,-3.521 11.033,-9.071c0.546,-5.55 -3.512,-10.492 -9.067,-11.033c-0.654,-0.067 -1.312,-0.067 -1.966,0l-12.409,0l0,20.104l12.409,0Zm-3.646,7.271l-8.75,0l0,23.996l-8.188,0l0,-58.65l22.08,0c9.362,-0.538 17.387,6.616 17.925,15.979c0.029,0.487 0.037,0.983 0.02,1.475c0.184,8.354 -5.941,15.512 -14.225,16.621l13.98,24.587l-9.434,0l-13.408,-24.008Z" style="fill:#1c1c1c;fill-rule:nonzero;"/><path d="M1008.44,401.168c-0.804,-16.038 11.542,-29.688 27.575,-30.492c0.513,-0.025 1.025,-0.037 1.538,-0.037c11.962,-0.813 22.812,7.004 25.816,18.616l-7.529,2.642c-1.766,-8.533 -9.587,-14.446 -18.287,-13.808c-10.667,0 -20.829,7.775 -20.829,23.079c0,15.304 10.175,23.158 20.829,23.158c8.766,0.292 16.55,-5.558 18.704,-14.058l7.196,2.646c-3.154,11.579 -13.917,19.416 -25.896,18.862c-15.913,0.196 -28.975,-12.546 -29.171,-28.458c-0.012,-0.717 0.008,-1.433 0.054,-2.15" style="fill:#1c1c1c;fill-rule:nonzero;"/><path d="M1111.58,430.534l0,-26.058l-29.946,0l0,26.058l-8.112,0l0,-58.65l8.112,0l0,25.063l29.946,0l0,-25.063l8.1,0l0,58.65l-8.1,0Z" style="fill:#1c1c1c;fill-rule:nonzero;"/><path d="M1209.24,430.534l0,-45.662l-20.021,45.662l-7.442,0l-19.854,-45.662l0,45.662l-8.029,0l0,-58.65l11.004,0l20.683,47.729l20.834,-47.729l10.833,0l0,58.65l-8.008,0Z" style="fill:#1c1c1c;fill-rule:nonzero;"/><path d="M1242.62,406.637l20.179,0l-10.175,-26.3l-10.004,26.3Zm23.079,7.529l-25.975,0l-6.204,16.379l-8.688,0l23.334,-58.65l9.325,0l23.333,58.65l-8.75,0l-6.375,-16.379Z" style="fill:#1c1c1c;fill-rule:nonzero;"/><path d="M1309.03,399.268c5.55,0.542 10.492,-3.521 11.034,-9.071c0.541,-5.55 -3.517,-10.492 -9.067,-11.033c-0.658,-0.067 -1.317,-0.067 -1.967,0l-12.412,0l0,20.104l12.412,0Zm-3.645,7.271l-8.755,0l0,23.996l-8.187,0l0,-58.65l22.079,0c9.363,-0.538 17.388,6.616 17.929,15.979c0.029,0.487 0.034,0.983 0.021,1.475c0.179,8.354 -5.946,15.512 -14.225,16.621l13.975,24.587l-9.425,0l-13.412,-24.008Z" style="fill:#1c1c1c;fill-rule:nonzero;"/><path d="M1355.41,403.89l-8.334,8.942l0,17.704l-8.112,0l0,-58.654l8.112,0l0,30.195l27.459,-30.191l10.67,0l-24.395,26.141l24.725,32.5l-10.255,0l-19.87,-26.637Z" style="fill:#1c1c1c;fill-rule:nonzero;"/><path d="M1393.53,430.534l0,-58.65l35.654,0l0,7.521l-27.545,0l0,18.037l25,0l0,7.609l-25,0l0,17.95l27.545,0l0,7.533l-35.654,0Z" style="fill:#1c1c1c;fill-rule:nonzero;"/><path d="M1462,379.407l0,51.129l-8.104,0l0,-51.129l-19.588,0l0,-7.525l47.317,0l0,7.525l-19.625,0Z" style="fill:#1c1c1c;fill-rule:nonzero;"/><rect x="1489.19" y="371.883" width="8.271" height="58.65" style="fill:#1c1c1c;"/><path d="M1551.48,430.534l-31.671,-47.817l0,47.817l-8.108,0l0,-58.65l10.833,0l29.28,45l0,-45l8.108,0l0,58.65l-8.442,0Z" style="fill:#1c1c1c;fill-rule:nonzero;"/><path d="M1618.38,430.534l-0.746,-8.271c-4.083,6.325 -11.258,9.963 -18.779,9.513c-14.721,0 -28.454,-10.758 -28.454,-30.608c-0.892,-15.942 11.3,-29.588 27.237,-30.484c0.6,-0.033 1.2,-0.05 1.796,-0.046c11.637,-0.562 22.237,6.659 25.975,17.692l-7.362,3.142c-2.359,-8.238 -10.055,-13.784 -18.613,-13.4c-10.504,0 -20.762,7.529 -20.762,23.079c0,15.55 9.929,23.237 20.416,23.237c9.167,0.834 17.271,-5.925 18.1,-15.096c0.004,-0.066 0.013,-0.133 0.017,-0.2l-20.333,0l0,-7.262l28.037,0l0,28.704l-6.529,0Z" style="fill:#1c1c1c;fill-rule:nonzero;"/><rect x="18.25" y="302.354" width="1611.02" height="8.304" style="fill:#1c1c1c;"/><path d="M131.891,72.469c-2.304,-12.729 -12.721,-32.642 -42.113,-32.642c-21.879,0 -36.25,14.042 -36.25,29.38c0,12.729 8.163,22.85 25.134,26.12l32.325,6.196c42.108,8.167 64.633,35.588 64.633,68.234c0,35.579 -29.708,71.483 -83.571,71.483c-61.358,0.008 -88.458,-39.492 -92.046,-72.463l41.784,-11.104c1.958,22.855 17.958,43.421 50.604,43.421c24.167,0 37.533,-12.083 37.533,-28.4c0,-13.383 -10.116,-23.829 -28.066,-27.425l-32.317,-6.521c-36.892,-7.5 -60.721,-31.346 -60.721,-66.279c0,-41.133 36.883,-72.471 80.633,-72.471c56.146,0 77.692,33.954 82.917,60.067l-40.479,12.404Z" style="fill:#f5a335;fill-rule:nonzero;"/><path d="M213.828,236.349l0,-231.45l144.925,0l0,42.437l-99.875,0l0,52.884l90.417,0l0,40.154l-90.417,0l0,53.537l99.875,0l0,42.438l-144.925,0Z" style="fill:#f5a335;fill-rule:nonzero;"/><path d="M508.289,197.498c35.904,0 72.471,-24.804 72.471,-77.038c0,-52.233 -36.567,-77.037 -72.471,-77.037c-35.588,0 -72.146,24.804 -72.146,77.037c0,52.234 36.558,77.038 72.146,77.038m0,-197.496c63.004,0 119.166,46.029 119.166,120.783c0,74.43 -56.145,120.455 -119.166,120.455c-62.679,0 -118.829,-46.025 -118.829,-120.455c0,-74.754 56.15,-120.783 118.829,-120.783" style="fill:#f5a335;fill-rule:nonzero;"/><path d="M695.624,120.787c0,-73.775 55.829,-120.788 117.846,-120.788c63.991,0 96.941,39.167 106.112,76.721l-42.437,13.379c-5.55,-22.196 -23.513,-46.667 -63.663,-46.667c-34.583,0 -71.158,24.805 -71.158,77.363c0,49.296 34.583,76.383 71.816,76.383c39.492,0 58.746,-25.783 64.963,-47.325l42.112,12.729c-8.816,35.58 -42.112,78.667 -107.083,78.667c-64.646,0 -118.508,-46.671 -118.508,-120.462" style="fill:#e73b3b;fill-rule:nonzero;"/><path d="M998.246,142.332l63.984,0l-31.992,-87.5l-31.992,87.5Zm79.004,41.133l-94.016,0l-19.263,52.884l-47.666,0l88.8,-231.45l52.229,0l88.137,231.45l-48.962,0l-19.259,-52.884Z" style="fill:#e73b3b;fill-rule:nonzero;"/><path d="M1386.48,236.349l0,-162.246l-66.592,162.246l-37.546,0l-66.592,-160.934l0,160.934l-43.091,0l0,-231.45l59.425,0l69.521,167.141l67.916,-167.141l61.371,0l0,231.45l-44.412,0Z" style="fill:#e73b3b;fill-rule:nonzero;"/><path d="M1547.66,110.34c22.521,0 36.246,-13.055 36.246,-32.971c0,-20.567 -13.717,-33.296 -36.246,-33.296l-35.579,0l0,66.25l35.579,0.017Zm-35.904,38.85l0,87.158l-45.05,0l0,-231.45l86.508,0c45.7,0 76.059,30.362 76.059,72.146c0,42.112 -30.359,72.146 -76.059,72.146l-41.458,0Z" style="fill:#e73b3b;fill-rule:nonzero;"/><path d="M44.629,399.268c5.554,0.542 10.491,-3.521 11.033,-9.071c0.546,-5.55 -3.517,-10.492 -9.067,-11.033c-0.654,-0.067 -1.312,-0.067 -1.966,0l-12.409,0l0,20.104l12.409,0Zm-3.646,7.271l-8.75,0l0,23.996l-8.208,0l0,-58.65l22.083,0c9.362,-0.538 17.387,6.616 17.925,15.979c0.029,0.487 0.037,0.983 0.021,1.475c0.183,8.354 -5.942,15.512 -14.225,16.621l13.979,24.587l-9.421,0l-13.404,-24.008Z" style="fill:#1c1c1c;fill-rule:nonzero;"/><path d="M94.234,367.745l-7.771,0l8.334,-9.842l10.75,0l-11.313,9.842Zm-19.687,62.788l0,-58.65l35.654,0l0,7.524l-27.546,0l0,18.034l25,0l0,7.608l-25,0l0,17.954l27.546,0l0,7.529l-35.654,0Z" style="fill:#1c1c1c;fill-rule:nonzero;"/><path d="M121.934,430.534l0,-58.65l35.654,0l0,7.521l-27.541,0l0,18.862l24.979,0l0,7.613l-24.979,0l0,24.654l-8.113,0Z" style="fill:#1c1c1c;fill-rule:nonzero;"/><path d="M186.515,367.745l-7.762,0l8.333,-9.842l10.75,0l-11.321,9.842Zm-19.687,62.788l0,-58.65l35.675,0l0,7.524l-27.567,0l0,18.034l25,0l0,7.608l-25,0l0,17.954l27.567,0l0,7.529l-35.675,0Z" style="fill:#1c1c1c;fill-rule:nonzero;"/><path d="M234.813,399.268c5.549,0.542 10.491,-3.521 11.033,-9.071c0.541,-5.55 -3.517,-10.492 -9.067,-11.033c-0.658,-0.067 -1.312,-0.067 -1.966,0l-12.409,0l0,20.104l12.409,0Zm-3.646,7.271l-8.75,0l0,23.996l-8.204,0l0,-58.65l22.083,0c9.362,-0.538 17.387,6.616 17.925,15.979c0.029,0.487 0.033,0.983 0.021,1.475c0.183,8.354 -5.942,15.512 -14.225,16.621l13.979,24.587l-9.409,0l-13.42,-24.008Z" style="fill:#1c1c1c;fill-rule:nonzero;"/><path d="M264.736,430.534l0,-58.65l35.654,0l0,7.521l-27.546,0l0,18.037l25,0l0,7.609l-25,0l0,17.95l27.546,0l0,7.533l-35.654,0Z" style="fill:#1c1c1c;fill-rule:nonzero;"/><path d="M351.906,430.534l-31.666,-47.817l0,47.817l-8.125,0l0,-58.65l10.833,0l29.279,45l0,-45l8.113,0l0,58.65l-8.434,0Z" style="fill:#1c1c1c;fill-rule:nonzero;"/><path d="M370.835,401.168c-0.804,-16.038 11.542,-29.688 27.575,-30.492c0.513,-0.025 1.03,-0.037 1.542,-0.037c11.971,-0.825 22.829,7 25.833,18.616l-7.529,2.642c-1.762,-8.533 -9.587,-14.446 -18.283,-13.808c-10.671,0 -20.833,7.775 -20.833,23.079c0,15.304 10.175,23.158 20.833,23.158c8.762,0.292 16.546,-5.558 18.7,-14.058l7.196,2.646c-3.15,11.579 -13.913,19.416 -25.896,18.862c-15.913,0.209 -28.983,-12.525 -29.192,-28.437c-0.008,-0.725 0.009,-1.45 0.054,-2.171" style="fill:#1c1c1c;fill-rule:nonzero;"/><path d="M435.905,430.534l0,-58.65l35.654,0l0,7.521l-27.546,0l0,18.037l25,0l0,7.609l-25,0l0,17.95l27.546,0l0,7.533l-35.654,0Z" style="fill:#1c1c1c;fill-rule:nonzero;"/><path d="M538.625,430.534l0,-45.662l-20,45.662l-7.458,0l-19.859,-45.662l0,45.662l-8.025,0l0,-58.65l11.005,0l20.683,47.729l20.833,-47.729l10.834,0l0,58.65l-8.013,0Z" style="fill:#1c1c1c;fill-rule:nonzero;"/><path d="M560.834,430.534l0,-58.65l35.654,0l0,7.521l-27.542,0l0,18.037l25,0l0,7.609l-25,0l0,17.95l27.542,0l0,7.533l-35.654,0Z" style="fill:#1c1c1c;fill-rule:nonzero;"/><path d="M648.012,430.534l-31.667,-47.817l0,47.817l-8.108,0l0,-58.65l10.833,0l29.284,45l0,-45l8.108,0l0,58.65l-8.45,0Z" style="fill:#1c1c1c;fill-rule:nonzero;"/><path d="M691.758,379.407l0,51.129l-8.108,0l0,-51.129l-19.583,0l0,-7.525l47.316,0l0,7.525l-19.625,0Z" style="fill:#1c1c1c;fill-rule:nonzero;"/><path d="M749.548,392.977l1.821,1.988l3.967,-2.98c2.65,-1.479 4.317,-4.25 4.387,-7.279c-0.116,-4.046 -3.491,-7.229 -7.533,-7.112c-3.912,0.112 -7.046,3.283 -7.112,7.191c0.429,3.192 2.02,6.109 4.47,8.192m12.409,24.65l0.246,-0.329l-11.909,-12.5l-2.983,2.229c-3.025,1.942 -4.883,5.263 -4.958,8.854c0.133,4.654 4.008,8.321 8.666,8.192l0.021,0c4.408,-0.454 8.392,-2.808 10.917,-6.446m5.454,5.129c-3.904,5.229 -9.942,8.438 -16.458,8.75c-11.084,0 -16.955,-7.437 -16.955,-14.966c0,-7.613 4.134,-11.746 10.334,-16.38l0.833,-0.662l-1.075,-1.158c-3.908,-3.309 -6.421,-7.98 -7.029,-13.067c-0.008,-8.083 6.537,-14.646 14.625,-14.654c0.175,0 0.346,0 0.517,0.008c7.866,-0.692 14.8,5.125 15.491,12.988c0.038,0.441 0.059,0.887 0.054,1.325c-0.508,5.408 -3.587,10.241 -8.275,12.983l-2.975,2.237l10.917,11.33l13.075,-14.555l0,10.688l-7.942,9.167l13.334,13.75l-11.004,0l-7.467,-7.784Z" style="fill:#1c1c1c;fill-rule:nonzero;"/><path d="M839.441,387.765c-0.963,-6.021 -6.325,-10.338 -12.413,-10c-5.7,-0.542 -10.762,3.641 -11.304,9.341c-0.012,0.138 -0.021,0.275 -0.029,0.413c-0.042,4.35 3.208,8.029 7.529,8.516l8.754,1.905c9.767,2.162 15.217,8.275 15.217,16.47c0,9.096 -7.767,17.367 -20.258,17.367c-14.167,0 -20.834,-9.096 -21.921,-17.45l7.771,-2.504c0.408,7.354 6.696,12.987 14.05,12.579l0.016,0c8.1,0 12.084,-4.225 12.084,-9.346c-0.213,-4.808 -3.959,-8.704 -8.754,-9.104l-8.367,-1.787c-8.333,-1.821 -14.308,-7.284 -14.308,-16.05c0.666,-10.1 9.241,-17.838 19.354,-17.459c13.237,0 18.533,8.192 19.854,14.584l-7.275,2.525Z" style="fill:#1c1c1c;fill-rule:nonzero;"/><path d="M857.703,430.534l0,-58.65l35.654,0l0,7.521l-27.525,0l0,18.037l25,0l0,7.609l-25,0l0,17.95l27.546,0l0,7.533l-35.675,0Z" style="fill:#1c1c1c;fill-rule:nonzero;"/><path d="M916.248,406.625l20.179,0l-10.179,-26.3l-10,26.3Zm23.083,7.541l-25.979,0l-6.2,16.379l-8.684,0l23.334,-58.65l9.346,0l23.333,58.65l-8.771,0l-6.379,-16.379Z" style="fill:#1c1c1c;fill-rule:nonzero;"/><path d="M982.654,399.268c5.554,0.542 10.496,-3.521 11.033,-9.071c0.546,-5.55 -3.512,-10.492 -9.067,-11.033c-0.654,-0.067 -1.312,-0.067 -1.966,0l-12.409,0l0,20.104l12.409,0Zm-3.646,7.271l-8.75,0l0,23.996l-8.188,0l0,-58.65l22.08,0c9.362,-0.538 17.387,6.616 17.925,15.979c0.029,0.487 0.037,0.983 0.02,1.475c0.184,8.354 -5.941,15.512 -14.225,16.621l13.98,24.587l-9.434,0l-13.408,-24.008Z" style="fill:#1c1c1c;fill-rule:nonzero;"/><path d="M1008.44,401.168c-0.804,-16.038 11.542,-29.688 27.575,-30.492c0.513,-0.025 1.025,-0.037 1.538,-0.037c11.962,-0.813 22.812,7.004 25.816,18.616l-7.529,2.642c-1.766,-8.533 -9.587,-14.446 -18.287,-13.808c-10.667,0 -20.829,7.775 -20.829,23.079c0,15.304 10.175,23.158 20.829,23.158c8.766,0.292 16.55,-5.558 18.704,-14.058l7.196,2.646c-3.154,11.579 -13.917,19.416 -25.896,18.862c-15.913,0.196 -28.975,-12.546 -29.171,-28.458c-0.012,-0.717 0.008,-1.433 0.054,-2.15" style="fill:#1c1c1c;fill-rule:nonzero;"/><path d="M1111.58,430.534l0,-26.058l-29.946,0l0,26.058l-8.112,0l0,-58.65l8.112,0l0,25.063l29.946,0l0,-25.063l8.1,0l0,58.65l-8.1,0Z" style="fill:#1c1c1c;fill-rule:nonzero;"/><path d="M1209.24,430.534l0,-45.662l-20.021,45.662l-7.442,0l-19.854,-45.662l0,45.662l-8.029,0l0,-58.65l11.004,0l20.683,47.729l20.834,-47.729l10.833,0l0,58.65l-8.008,0Z" style="fill:#1c1c1c;fill-rule:nonzero;"/><path d="M1242.62,406.637l20.179,0l-10.175,-26.3l-10.004,26.3Zm23.079,7.529l-25.975,0l-6.204,16.379l-8.688,0l23.334,-58.65l9.325,0l23.333,58.65l-8.75,0l-6.375,-16.379Z" style="fill:#1c1c1c;fill-rule:nonzero;"/><path d="M1309.03,399.268c5.55,0.542 10.492,-3.521 11.034,-9.071c0.541,-5.55 -3.517,-10.492 -9.067,-11.033c-0.658,-0.067 -1.317,-0.067 -1.967,0l-12.412,0l0,20.104l12.412,0Zm-3.645,7.271l-8.755,0l0,23.996l-8.187,0l0,-58.65l22.079,0c9.363,-0.538 17.388,6.616 17.929,15.979c0.029,0.487 0.034,0.983 0.021,1.475c0.179,8.354 -5.946,15.512 -14.225,16.621l13.975,24.587l-9.425,0l-13.412,-24.008Z" style="fill:#1c1c1c;fill-rule:nonzero;"/><path d="M1355.41,403.89l-8.334,8.942l0,17.704l-8.112,0l0,-58.654l8.112,0l0,30.195l27.459,-30.191l10.67,0l-24.395,26.141l24.725,32.5l-10.255,0l-19.87,-26.637Z" style="fill:#1c1c1c;fill-rule:nonzero;"/><path d="M1393.53,430.534l0,-58.65l35.654,0l0,7.521l-27.545,0l0,18.037l25,0l0,7.609l-25,0l0,17.95l27.545,0l0,7.533l-35.654,0Z" style="fill:#1c1c1c;fill-rule:nonzero;"/><path d="M1462,379.407l0,51.129l-8.104,0l0,-51.129l-19.588,0l0,-7.525l47.317,0l0,7.525l-19.625,0Z" style="fill:#1c1c1c;fill-rule:nonzero;"/><rect x="1489.19" y="371.883" width="8.271" height="58.65" style="fill:#1c1c1c;"/><path d="M1551.48,430.534l-31.671,-47.817l0,47.817l-8.108,0l0,-58.65l10.833,0l29.28,45l0,-45l8.108,0l0,58.65l-8.442,0Z" style="fill:#1c1c1c;fill-rule:nonzero;"/><path d="M1618.38,430.534l-0.746,-8.271c-4.083,6.325 -11.258,9.963 -18.779,9.513c-14.721,0 -28.454,-10.758 -28.454,-30.608c-0.892,-15.942 11.3,-29.588 27.237,-30.484c0.6,-0.033 1.2,-0.05 1.796,-0.046c11.637,-0.562 22.237,6.659 25.975,17.692l-7.362,3.142c-2.359,-8.238 -10.055,-13.784 -18.613,-13.4c-10.504,0 -20.762,7.529 -20.762,23.079c0,15.55 9.929,23.237 20.416,23.237c9.167,0.834 17.271,-5.925 18.1,-15.096c0.004,-0.066 0.013,-0.133 0.017,-0.2l-20.333,0l0,-7.262l28.037,0l0,28.704l-6.529,0Z" style="fill:#1c1c1c;fill-rule:nonzero;"/><rect x="18.25" y="302.354" width="1611.02" height="8.304" style="fill:#1c1c1c;"/></g></svg>