<?xml version="1.0" encoding="utf-8"?>
<svg id="Calque_1" viewBox="0 0 1500 495" xmlns="http://www.w3.org/2000/svg">
  <style>.st0{fill:#e23a05}.st1{fill:#293847}</style>
  <g id="sitebulb-logo" transform="matrix(5.888719, 0, 0, 5.888719, -7.482009, 129.582794)" style="">
    <g id="logo-icon">
      <path id="right-arrow" class="cls-1" d="M50,19.15L37.92,7.06,36.21,12l8.34,8.35L30.3,29.08l-2.42,7L49.54,22.82A2.35,2.35,0,0,0,50,19.15Z" style="fill: rgb(93, 93, 93);"/>
      <path id="left-arrow" class="cls-1" d="M15.39,29.34l-8-8.07L21,13.05l2.4-7-21,12.7A2.35,2.35,0,0,0,2,22.46L13.67,34.31Z" style="fill: rgb(93, 93, 93);"/>
      <path id="blue-line" class="cls-2" d="M18.63,38.85a1,1,0,0,1-1.06-1.52L29.09,4a1.49,1.49,0,0,1,1.39-1.12l2.38-.23c1-.1,1.42.54,1.06,1.52L22.4,37.45A1.56,1.56,0,0,1,21,38.62Z" style="fill: rgb(31, 182, 255);"/>
    </g>
    <path class="cls-1" d="M58.3,31.1c-0.35-1.1.4-1.95,1.6-2.25l1.5-.35a1.49,1.49,0,0,1,2,1.2c0.85,2.15,3.25,3.84,6.74,3.84,4.5,0,7.59-2.2,8.14-5.19,0.45-2.65-1.45-4.29-4.09-5.34l-4.84-1.75c-6.24-2.2-7.14-6.14-6.54-9.39,1-6,7-9.74,13-9.74,5.49,0,8.89,2.65,9.79,6.59A1.85,1.85,0,0,1,84.07,11l-1.4.4a1.52,1.52,0,0,1-2.1-1.15c-0.65-2.3-2.65-3.4-5.54-3.4-3.25,0-6.39,1.8-6.89,4.89-0.25,1.45-.15,3.35,3.55,4.84l4.89,1.95c5.54,1.85,7.59,5.74,6.94,9.49-1.15,6.29-6.84,10.19-14.13,10.19C63.19,38.19,59.35,35.19,58.3,31.1Z" style="fill: rgb(93, 93, 93);"/>
    <path class="cls-1" d="M88.21,35.84L92,14.42a2,2,0,0,1,2.15-1.8h1.5a1.36,1.36,0,0,1,1.5,1.8L93.36,35.84a2,2,0,0,1-2.15,1.8h-1.5A1.36,1.36,0,0,1,88.21,35.84ZM92.81,4.68a4.21,4.21,0,0,1,4-3.5,2.84,2.84,0,0,1,2.95,3.5,4.28,4.28,0,0,1-4.15,3.4A2.71,2.71,0,0,1,92.81,4.68Z" style="fill: rgb(93, 93, 93);"/>
    <path class="cls-1" d="M103.39,29.7l2.3-13.08h-3a0.76,0.76,0,0,1-.8-1l0.3-1.95a1.08,1.08,0,0,1,1.2-1h3.1l1.95-5.74a1.85,1.85,0,0,1,1.85-1.45h1A1.18,1.18,0,0,1,112.53,7l-1,5.64h6.84a0.76,0.76,0,0,1,.85,1l-0.3,1.95a1.2,1.2,0,0,1-1.25,1h-6.79L108.44,30c-0.45,2.7.65,3.75,2.25,3.75a3.36,3.36,0,0,0,3.45-2.7,6.38,6.38,0,0,0,0-.95,1,1,0,0,1,1.1-1.15h2.3a0.87,0.87,0,0,1,1,.9,11.05,11.05,0,0,1-.1,1.85c-0.7,3.75-3.9,6.49-8.69,6.49C105.79,38.19,102.24,36.14,103.39,29.7Z" style="fill: rgb(93, 93, 93);"/>
    <path class="cls-1" d="M122.17,25.2A16.24,16.24,0,0,1,138,12.07c6.24,0,11.34,3.75,10.64,11.74a1.86,1.86,0,0,1-2,1.85H127.21c-0.95,4.64,2.25,8,7.74,8a13.12,13.12,0,0,0,7.09-2.1c1-.6,1.9-0.55,2.5.25l0.35,0.4c0.6,0.85.45,1.9-.9,2.85a16.8,16.8,0,0,1-9.94,3.1C125.27,38.19,120.92,32.34,122.17,25.2Zm21.72-3.35c-0.5-4.45-3.85-5.39-6.59-5.39a9.91,9.91,0,0,0-9,5.39h15.58Z" style="fill: rgb(93, 93, 93);"/>
    <path class="cls-1" d="M157.47,33.69l-0.35,2.15a2,2,0,0,1-2.15,1.8h-1.5a1.36,1.36,0,0,1-1.5-1.8l5.74-32.51a2,2,0,0,1,2.15-1.8h1.5a1.38,1.38,0,0,1,1.5,1.8l-2.35,13.24a12.5,12.5,0,0,1,9.74-4.5c7.44,0,11.39,5.84,10.09,13s-7.24,13.08-14.68,13.08C162.32,38.19,159.22,37,157.47,33.69ZM175.2,25.1c0.8-4.64-1.4-8.59-6.44-8.59a10.1,10.1,0,0,0-9.84,8.59c-0.8,4.94,1.9,8.59,6.84,8.59S174.41,29.8,175.2,25.1Z" style="fill: rgb(93, 93, 93);"/>
    <path class="cls-1" d="M185.49,26.75l2.15-12.33a2,2,0,0,1,2.1-1.8h1.5a1.39,1.39,0,0,1,1.55,1.8L190.63,26.7c-0.95,5.09,1.1,7,3.75,7s8.09-1.8,9.44-9.34l1.7-9.94a2,2,0,0,1,2.15-1.8h1.5a1.36,1.36,0,0,1,1.5,1.8l-3.79,21.42a2,2,0,0,1-2.15,1.8h-1.5a1.38,1.38,0,0,1-1.5-1.8l0.6-3.1A10.11,10.11,0,0,1,193,38.19C187.44,38.19,184,34.59,185.49,26.75Z" style="fill: rgb(93, 93, 93);"/>
    <path class="cls-1" d="M214.55,35.84L220.3,3.33a2,2,0,0,1,2.15-1.8h1.5a1.38,1.38,0,0,1,1.5,1.8L219.7,35.84a2,2,0,0,1-2.15,1.8h-1.5A1.36,1.36,0,0,1,214.55,35.84Z" style="fill: rgb(93, 93, 93);"/>
    <path class="cls-1" d="M232.88,33.69l-0.35,2.15a2,2,0,0,1-2.15,1.8h-1.5a1.36,1.36,0,0,1-1.5-1.8l5.74-32.51a2,2,0,0,1,2.15-1.8h1.5a1.38,1.38,0,0,1,1.5,1.8l-2.35,13.24a12.5,12.5,0,0,1,9.74-4.5c7.44,0,11.39,5.84,10.09,13s-7.24,13.08-14.68,13.08C237.73,38.19,234.63,37,232.88,33.69Zm17.73-8.59c0.8-4.64-1.4-8.59-6.44-8.59a10.1,10.1,0,0,0-9.84,8.59c-0.8,4.94,1.9,8.59,6.84,8.59S249.81,29.8,250.61,25.1Z" style="fill: rgb(93, 93, 93);"/>
  </g>
</svg>