<?xml version="1.0"?>
<svg width="368" height="121" xmlns="http://www.w3.org/2000/svg" xmlns:svg="http://www.w3.org/2000/svg">
  <path d="m65.2,49.4a16.8,16.8 0 0 0 -11.6,-4.4c-4.4,0 -8.5,1.6 -11.6,4.5l-8.3,7.8l-0.4,0.6l-0.1,0.1l-0.6,0.4l-8.7,8.2a10.9,10.9 0 0 1 -15,0a9.6,9.6 0 0 1 0,-14.1l9,-8.6l0.2,-0.1l0,-0.1l12.9,-12.1a3.8,3.8 0 0 1 2.6,-1.1c1,0 2,0.3 2.7,1a3.4,3.4 0 0 1 0,5l-20.9,19.6a2.6,2.6 0 0 0 0,4c0.6,0.4 1.3,0.7 2,0.7s1.6,-0.3 2.1,-0.8l20.9,-19.6a8.7,8.7 0 0 0 2.8,-6.4c0,-2.4 -1,-4.7 -2.8,-6.4a9.8,9.8 0 0 0 -6.8,-2.6a9.8,9.8 0 0 0 -6.8,2.6l-13.8,13.1l-0.2,0.2l-8,7.6a15,15 0 0 0 0,21.9a16.8,16.8 0 0 0 11.6,4.5c4.4,0 8.5,-1.6 11.6,-4.5l8.7,-8.2l0.4,-0.6l0.2,0l0.6,-0.5l8.2,-7.8a10.9,10.9 0 0 1 15,0a9.7,9.7 0 0 1 0,14.2l-22.3,21a4.1,4.1 0 0 1 -2.8,1a4,4 0 0 1 -2.8,-1a3.6,3.6 0 0 1 0,-5.4l21.6,-20.3a2.6,2.6 0 0 0 0,-3.8a3,3 0 0 0 -2.1,-0.9a3,3 0 0 0 -2,0.8l-21.7,20.4a9,9 0 0 0 -2.9,6.5a9,9 0 0 0 2.9,6.5c1.9,1.7 4.3,2.7 7,2.7s5,-1 6.8,-2.7l22.3,-21a15,15 0 0 0 0,-21.9" fill="#3594C7" id="svg_1"/>
  <path d="m86.7,72.7l0,-8.5c2.6,2 5.6,3.5 9.5,3.5c2.7,0 5,-0.7 5,-3c0,-2.1 -1.9,-2.9 -5.4,-3.8c-7.1,-1.8 -9.8,-5 -9.8,-10.8c0,-6.8 5.2,-10.7 12,-10.7c4.1,0 7,1 9.5,2.5l0,8.5a14,14 0 0 0 -9.2,-3.6c-2.6,0 -3.9,1.2 -3.9,2.8c0,2.2 2,3 5.7,3.8c7,1.9 9.5,5.2 9.5,11c0,7.5 -6,10.7 -13.3,10.7a19,19 0 0 1 -9.6,-2.4zm27.7,12.3l0,-34.8a32.7,32.7 0 0 1 12.2,-2.4c8.4,0 14.3,5 14.3,13c0,9.2 -5.4,14.3 -14.6,14.3a16.7,16.7 0 0 1 -3.7,-0.3l0,10.2l-8.2,0zm8.2,-29.2l0,11.8c0.7,0.2 2,0.4 3,0.4c3.8,0 7,-2 7,-6.9c0,-3.9 -2.7,-6 -6.2,-6c-1.2,0 -2.7,0.3 -3.8,0.7zm46,8.2l-16.4,0l0,0.1c0.7,2.8 4,4 7,4c3.4,0 6.1,-0.8 8.7,-2.1l0,6.8a18,18 0 0 1 -9.6,2.3c-8.9,0 -14.1,-5.2 -14.1,-13.3c0,-8.8 5.5,-14 12.9,-14c8.7,0 11.5,5.9 11.5,12.7l0,3.5zm-16.4,-4.7l8.8,0c0,-2.4 -1,-4.8 -4,-4.8c-2.7,0 -4.3,2 -4.8,4.9l0,-0.1zm44.4,4.7l-16.4,0l0,0.1c0.7,2.8 4,4 7,4c3.5,0 6.2,-0.8 8.7,-2.1l0,6.8c-2.4,1.6 -6,2.3 -9.6,2.3c-8.8,0 -14,-5.2 -14,-13.3c0,-8.8 5.4,-14 12.9,-14c8.6,0 11.4,5.9 11.4,12.7l0,3.5zm-16.3,-4.7l8.8,0c0,-2.4 -1,-4.8 -4,-4.8c-2.8,0 -4.3,2 -4.8,4.9l0,-0.1zm46.5,-24.3l0,38.8a47.5,47.5 0 0 1 -11.4,1.3c-9.1,0 -15,-4.7 -15,-13.6c0,-8 5.2,-13.7 13.5,-13.7c1.7,0 3.5,0.2 4.6,0.7l0,-13.5l8.3,0zm-8.3,32.9l0,-12.1a8.5,8.5 0 0 0 -3.8,-0.8c-3.7,0 -6,2.3 -6,6.2c0,4.4 2.6,6.9 7,6.9c0.6,0 1.8,0 2.8,-0.3l0,0.1zm40.9,-26.3l0,9.4a13,13 0 0 0 -9.4,-3.7c-5.7,0 -9,4.2 -9,10c0,6.2 3.8,10.1 9.4,10.1c4,0 6.7,-1.2 9.7,-3.6l0,8.9c-3.4,2 -6.6,2.5 -10.2,2.5c-10.8,0 -17.7,-7.4 -17.7,-17.8c0,-10.6 7,-17.9 17.8,-17.9c3.5,0 6.6,0.6 9.4,2.2l0,-0.1zm29.3,6.8l0,25.2c-3,1 -8,1.5 -11.4,1.5c-7.5,0 -12.4,-2.2 -12.4,-10.4l0,-16.3l8.2,0l0,15.6c0,2.8 0.7,4.4 4.2,4.4c0.7,0 2,-0.1 3.1,-0.4l0,-19.6l8.3,0zm13.9,7.7l0,18.4l-8.3,0l0,-24.2a24.2,24.2 0 0 1 16.5,-1.6l0,8a13.6,13.6 0 0 0 -8.3,-0.6l0.1,0zm30.6,18.4l-9.7,0l-10,-26.1l9,0l6,18l6,-18l8.7,0l-10,26.1zm34.3,-10.5l-16.4,0l0,0.1c0.7,2.8 4,4 7,4c3.5,0 6.2,-0.8 8.7,-2.1l0,6.8c-2.4,1.6 -6,2.3 -9.6,2.3c-8.8,0 -14,-5.2 -14,-13.2c0,-8.9 5.4,-14.1 12.9,-14.1c8.6,0 11.4,5.9 11.4,12.7l0,3.5zm-16.3,-4.6l8.8,0c0,-2.5 -1,-4.9 -4.1,-4.9c-2.7,0 -4.3,2 -4.7,4.9z" fill="#2B2B2B" id="svg_2"/>
</svg>
