<svg xmlns="http://www.w3.org/2000/svg" width="1000" height="330"><g class="layer"><path fill="#0C1724" d="M106.36 194.33c0 6.58-1.4 12.75-4.2 18.43-2.8 5.59-6.75 10.36-11.68 14.23-5.02 3.95-11.02 6.99-17.93 9.21-6.91 2.14-14.48 3.21-22.7 3.21-9.87 0-18.67-1.32-26.41-4.03-7.81-2.63-15.63-7.16-23.44-13.33l13-21.06c6.17 5.18 11.76 8.97 16.78 11.43 4.94 2.39 10.12 3.54 15.38 3.54 6.42 0 11.52-1.65 15.46-4.94 3.95-3.37 5.84-7.81 5.84-13.41 0-2.47-.41-4.69-1.07-6.75-.74-2.14-2.06-4.28-3.95-6.58-1.81-2.14-4.44-4.61-7.81-7.16-3.21-2.63-7.49-5.84-12.75-9.62-3.95-2.8-7.9-5.76-11.68-8.72-3.87-3.04-7.24-6.25-10.45-9.62-3.04-3.45-5.59-7.24-7.49-11.52-1.89-4.2-2.88-9.05-2.88-14.4 0-6.25 1.32-12.01 3.87-17.11s6.17-9.46 10.61-13.08c4.52-3.7 9.87-6.5 16.21-8.47 6.25-2.06 13.08-3.04 20.56-3.04 7.81 0 15.3.99 22.62 3.13 7.24 2.06 13.98 5.1 20.32 9.13l-11.76 18.92c-7.98-5.59-16.37-8.39-25.25-8.39-5.35 0-9.79 1.4-13.33 4.2s-5.26 6.25-5.26 10.53c0 4.03 1.56 7.65 4.69 10.86 3.04 3.29 8.39 7.65 16.04 13.57 7.65 5.59 13.98 10.53 19 14.72 5.02 4.2 8.97 8.23 11.93 12.01 2.96 3.7 4.85 7.4 6 11.27 1.15 3.95 1.73 8.14 1.73 12.83zm132.93-35.45c0 5.84-.66 12.09-1.89 18.84-1.15 6.75-3.21 13-6.17 18.67-2.96 5.76-6.75 10.53-11.43 14.15-4.77 3.7-10.78 5.59-18.01 5.59-12.09 0-21.63-4.77-28.63-14.48-6.99-9.62-10.45-22.95-10.45-39.73 0-17.36 3.45-31.01 10.61-41.13 7.07-10.2 16.7-15.22 28.79-15.22 11.43 0 20.48 4.77 27.15 14.23 6.66 9.54 10.04 22.62 10.04 39.07zm42.03-1.48c0-11.27-1.65-21.47-4.85-30.68-3.21-9.21-7.73-17.11-13.74-23.77-5.92-6.66-12.91-11.85-21.06-15.55s-17.11-5.59-26.98-5.59c-10.86 0-20.4 2.14-28.54 6.17-8.23 4.11-15.96 10.53-22.87 19.33l-.25-21.96h-38.66v225.72h38.58v-95.34c3.78 4.44 7.4 8.23 11.02 11.19 3.45 3.04 6.99 5.51 10.69 7.4 3.62 1.89 7.4 3.29 11.43 4.03 4.03.74 8.39 1.15 12.91 1.15 10.28 0 19.91-2.06 28.71-6.09 8.8-4.11 16.53-9.87 22.95-17.36s11.43-16.12 15.14-25.99c3.7-9.95 5.51-20.89 5.51-32.66zm17.19 78.48h39.65V15.01h-39.65v220.87zm208.94.08V85.26H467.8v81.11c0 7.16-.33 12.75-.99 16.7-.58 3.95-1.65 7.49-3.04 10.78-5.51 12.34-15.88 18.67-30.85 18.67-11.68 0-19.82-4.2-24.43-12.67-1.89-3.21-3.13-6.83-3.87-10.86-.66-4.03-1.07-9.87-1.07-17.52V85.26H363.9v85.63c0 5.84.08 10.78.16 14.72.08 3.95.33 7.57.74 10.69.41 3.13.9 5.92 1.4 8.31.49 2.39 1.23 4.77 2.22 6.91 3.7 9.21 9.46 16.21 17.6 20.98 8.14 4.69 18.18 7.07 29.94 7.07 10.61 0 19.99-1.89 28.05-5.59s15.88-9.79 23.53-18.26l.08 20.15 39.81.08zm171.02-.08v-85.47c0-5.84-.08-10.78-.16-14.89-.08-4.11-.33-7.73-.74-10.78-.41-2.96-.99-5.59-1.48-7.9-.66-2.3-1.32-4.52-2.14-6.75-3.62-8.97-9.46-15.96-17.6-20.89s-18.1-7.32-29.94-7.32c-10.61 0-19.99 1.81-28.05 5.59s-15.96 9.79-23.53 18.18l-.08-20.15h-39.9v150.37h39.98v-81.19c0-6.99.25-12.5.74-16.37.49-3.87 1.48-7.49 2.88-11.02 2.55-6 6.58-10.53 11.93-13.66s11.76-4.61 19.17-4.61c11.68 0 19.82 4.11 24.51 12.59 1.81 3.21 3.04 6.83 3.7 10.78.74 4.03 1.07 9.87 1.07 17.52v85.8l39.65.08v.08zm164.19-9.95-60.46-75.19 51.08-54.78-30.11-13-53.14 61.69h-4.2V15.01h-39.98v220.87h39.98v-79.96l59.8 83 37.02-13zm154.57-54.04v-24.6L876.97 86.91v27.06l93.2 45.41-93.2 46.07v26.41l120.26-59.97zM888.65 47.84c-7.4 0-13.33 6.09-13.33 13.57 0 7.57 5.92 13.57 13.33 13.57 7.4 0 13.33-6 13.33-13.57s-5.92-13.57-13.33-13.57zm.08 2.14c5.92 0 10.78 5.1 10.78 11.43 0 6.42-4.85 11.52-10.78 11.43-6.09 0-10.86-5.02-10.86-11.43 0-6.33 4.77-11.43 10.86-11.43zm-2.55 12.83h1.56c1.97 0 2.88.66 3.29 2.63.33 1.97.74 3.29.99 3.78h2.55c-.16-.49-.58-1.4-.9-3.7-.33-2.3-1.15-3.45-2.55-3.7v-.16c1.65-.41 2.96-1.65 2.96-3.62 0-1.4-.49-2.47-1.4-3.13-.9-.66-2.39-1.15-4.69-1.15-1.73 0-2.96.16-4.2.41v15.05h2.39V62.8zm0-6.99c.33-.08.9-.16 1.65-.16 2.71 0 3.7 1.32 3.7 2.63 0 1.81-1.73 2.55-3.7 2.55h-1.65v-5.02z"/></g></svg>