<?xml version="1.0" encoding="utf-8"?>
<svg version="1.1" id="Layer_1" x="0px" y="0px" viewBox="0 0 1000 330" style="enable-background:new 0 0 660 225;" xmlns="http://www.w3.org/2000/svg">
  <style type="text/css">
	.Arched_x0020_Green{fill:url(#SVGID_1_);stroke:#FFFFFF;stroke-width:0.25;stroke-miterlimit:1;}
	.st0{fill:#4E2817;}
	.st1{fill-rule:evenodd;clip-rule:evenodd;fill:#4E2817;}
	.st2{fill:#F26922;}
</style>
  <g transform="matrix(1, 0, 0, 1, -0.372757, 6.767998)">
    <path class="st0" d="M 210.376 215.712 C 196.784 215.712 184.325 214.202 173.376 203.254 L 187.534 189.095 C 194.707 196.269 203.957 197.213 210.752 197.213 C 218.303 197.213 226.043 194.758 226.043 188.152 C 226.043 183.81 223.777 180.79 216.793 180.223 L 203.202 178.902 C 187.534 177.392 177.907 170.597 177.907 154.551 C 177.907 136.618 193.763 126.802 211.507 126.802 C 225.098 126.802 236.425 129.067 244.731 136.995 L 231.329 150.586 C 226.231 146.056 218.681 144.735 211.131 144.735 C 202.447 144.735 198.86 148.698 198.86 153.041 C 198.86 156.251 200.181 159.837 207.921 160.592 L 221.512 161.913 C 238.69 163.611 247.374 172.673 247.374 187.397 C 247.374 206.652 230.951 215.712 210.376 215.712 Z" style=""/>
    <path class="st0" d="M 285.128 214.769 C 267.384 214.769 260.022 202.31 260.022 189.851 L 260.022 146.811 L 250.771 146.811 L 250.771 130.388 L 260.022 130.388 L 260.022 104.716 L 281.73 104.716 L 281.73 130.388 L 297.021 130.388 L 297.021 146.811 L 281.73 146.811 L 281.73 188.529 C 281.73 193.437 283.994 196.457 289.28 196.457 L 297.209 196.457 L 297.209 214.769 L 285.128 214.769 Z" style=""/>
    <path class="st0" d="M 306.647 113.022 L 306.647 95.278 L 328.922 95.278 L 328.922 113.022 L 306.647 113.022 Z M 307.025 214.769 L 307.025 127.934 L 328.733 127.934 L 328.733 214.769 L 307.025 214.769 Z" style=""/>
    <path class="st0" d="M 377.625 215.712 C 360.258 215.712 338.738 206.462 338.738 171.163 C 338.738 136.051 360.258 126.802 377.625 126.802 C 389.705 126.802 398.578 130.388 406.318 138.505 L 391.593 153.229 C 387.063 148.322 383.287 146.434 377.625 146.434 C 372.527 146.434 368.375 148.322 365.353 152.096 C 361.956 156.251 360.446 162.101 360.446 171.351 C 360.446 180.602 361.956 186.452 365.353 190.795 C 368.563 194.57 372.527 196.457 377.625 196.457 C 383.287 196.457 387.063 194.381 391.593 189.662 L 406.318 204.197 C 398.578 211.936 389.705 215.712 377.625 215.712 Z" style=""/>
    <path class="st0" d="M 466.157 214.769 L 444.826 178.524 L 435.576 188.907 L 435.576 214.769 L 413.868 214.769 L 413.868 96.033 L 435.576 96.033 L 435.576 163.423 L 464.458 127.934 L 490.697 127.934 L 459.739 163.046 L 493.151 214.957 L 466.157 214.957 Z" style=""/>
    <path class="st0" d="M 511.085 177.959 C 511.085 189.095 517.88 197.213 530.15 197.213 C 539.588 197.213 544.308 194.57 549.782 189.095 L 562.995 201.932 C 554.123 210.804 545.629 215.523 529.962 215.523 C 509.385 215.523 489.753 206.273 489.753 170.973 C 489.753 142.659 505.044 126.613 527.695 126.613 C 551.858 126.613 565.638 144.358 565.638 168.142 L 565.638 177.77 L 511.085 177.77 Z M 542.231 153.796 C 539.966 148.698 535.057 144.735 527.695 144.735 C 520.333 144.735 515.426 148.51 513.161 153.796 C 511.84 157.006 511.273 159.27 511.085 163.046 L 544.118 163.046 C 543.93 159.27 543.553 157.006 542.231 153.796 Z" style=""/>
    <path class="st0" d="M 623.025 151.53 C 619.626 148.133 616.795 146.434 611.509 146.434 C 604.902 146.434 597.54 151.53 597.54 162.48 L 597.54 214.769 L 575.832 214.769 L 575.832 127.934 L 596.974 127.934 L 596.974 136.241 C 601.128 131.144 609.433 126.99 618.871 126.99 C 627.366 126.99 633.406 129.067 639.447 135.107 L 623.025 151.53 Z" style=""/>
    <path class="st1" d="M 106.552 224.395 C 105.23 224.962 103.531 224.774 101.833 224.962 C 100.323 224.962 98.246 224.962 97.302 224.207 C 96.736 223.829 96.736 222.886 96.736 222.319 C 96.736 221.752 96.924 220.809 96.924 220.243 C 97.113 219.488 97.302 218.355 96.924 217.788 C 96.548 217.222 95.226 217.411 94.471 217.033 C 93.716 216.657 93.526 215.523 93.338 214.39 C 93.338 214.014 92.961 213.635 92.961 213.447 C 92.771 211.748 93.338 209.294 93.716 207.595 C 94.093 205.707 94.66 204.009 95.037 202.121 C 95.603 199.478 95.603 196.457 95.414 193.626 C 95.414 192.116 95.037 190.983 95.414 189.851 C 95.603 188.719 96.169 187.774 96.358 186.641 C 96.358 186.264 96.358 185.887 96.358 185.509 C 96.358 185.132 96.548 184.942 96.548 184.565 C 96.548 183.81 96.358 182.866 96.358 181.922 C 96.169 179.468 96.358 175.882 96.548 173.806 C 96.548 173.05 96.924 172.294 96.358 171.918 C 93.716 171.918 91.45 172.294 88.996 172.673 C 82.578 173.428 74.273 173.616 68.042 172.294 C 67.477 172.106 66.911 172.106 66.344 172.106 C 61.813 171.163 57.849 169.087 54.64 166.632 C 54.075 166.254 53.508 165.877 52.941 165.311 C 52.375 164.932 51.809 164.368 51.242 163.989 C 48.789 162.856 45.391 164.178 44.258 165.877 C 43.88 166.444 43.503 167.387 43.125 168.142 C 42.748 168.897 42.371 169.652 42.181 170.407 C 40.483 174.183 38.595 177.959 36.897 181.733 C 35.953 183.999 34.819 186.452 34.064 188.907 C 32.555 194.193 33.876 201.176 35.197 206.273 C 35.386 206.652 35.575 207.217 35.763 207.784 C 36.141 208.916 36.897 210.616 37.84 211.371 C 38.406 211.748 39.161 212.126 39.728 212.503 C 40.483 213.069 40.86 214.202 41.427 215.335 C 41.615 215.712 41.993 216.278 42.181 216.845 C 42.748 217.978 43.125 218.921 41.804 219.676 C 40.86 220.243 39.35 220.243 38.029 220.431 C 37.462 220.62 37.651 221.376 37.274 221.752 C 37.085 221.941 36.141 222.319 35.763 222.507 C 34.064 223.074 31.044 223.074 29.723 222.507 C 28.968 222.319 28.213 221.752 28.024 221.186 C 27.646 220.054 28.59 218.733 27.836 217.978 C 27.458 217.6 26.702 217.6 26.137 217.411 C 25.193 217.033 24.437 216.09 23.871 215.146 C 22.927 212.503 23.494 208.539 23.305 205.33 C 23.305 204.386 23.115 203.442 23.115 202.31 C 23.115 200.422 22.55 198.535 22.361 196.646 C 22.172 195.702 21.983 194.948 21.795 194.193 C 21.417 192.871 21.228 191.361 20.851 190.039 C 20.473 188.529 20.473 187.019 20.851 185.887 C 21.039 185.509 21.417 185.132 21.606 184.754 C 21.983 183.999 21.983 183.244 21.983 182.489 C 21.795 182.111 20.851 182.489 20.663 182.111 C 20.096 177.959 19.529 173.994 19.152 169.652 C 18.963 168.142 18.963 166.82 18.963 165.311 C 18.775 162.48 18.963 159.458 18.585 156.627 C 18.396 155.306 18.208 153.984 18.02 152.663 C 17.453 148.889 16.509 144.169 17.265 140.205 C 17.83 137.75 18.585 135.674 20.096 133.786 C 21.039 132.464 22.172 131.332 23.305 130.011 C 24.437 128.878 25.758 127.745 27.08 126.802 C 28.024 126.235 28.968 125.481 29.912 124.914 C 31.988 123.97 34.819 123.027 37.84 122.838 C 40.86 122.649 44.258 122.649 47.09 123.215 C 49.921 123.782 52.753 124.159 55.584 124.726 C 58.227 125.291 60.87 126.046 63.513 126.613 C 63.889 126.613 64.08 126.99 64.456 126.99 C 65.211 127.18 66.156 127.18 67.099 127.557 C 69.554 128.124 72.573 128.501 75.594 128.501 C 78.802 128.501 81.635 128.501 84.277 127.745 C 84.654 127.557 85.033 127.368 85.409 127.368 C 85.788 127.18 86.354 127.18 86.731 127.18 C 86.92 127.18 87.297 126.802 87.486 126.613 C 88.996 125.858 90.318 125.103 91.639 124.159 C 92.771 123.404 93.526 122.838 95.037 122.271 C 95.603 122.083 96.358 121.705 96.924 121.516 C 98.246 121.139 99.756 120.761 100.7 120.006 C 102.399 119.063 103.531 117.552 104.853 116.23 C 106.174 115.098 107.685 113.777 109.195 112.643 C 112.215 110.191 115.235 108.114 118.066 105.848 C 119.577 104.716 121.088 103.583 122.786 102.639 C 125.995 100.752 129.393 98.676 134.112 98.298 C 136 98.109 137.888 98.109 139.775 98.298 C 140.341 98.298 140.908 98.676 141.474 98.486 C 142.041 98.298 142.417 97.543 142.608 96.976 C 143.363 95.655 143.739 94.9 144.494 93.39 C 144.872 92.445 144.684 91.502 145.627 91.502 C 146.57 91.502 146.382 93.957 146.382 94.9 C 146.382 96.033 146.194 97.543 146.382 98.298 C 146.57 98.864 147.327 99.619 148.082 99.619 C 148.648 99.619 149.025 99.242 149.403 98.864 C 149.968 98.486 150.346 98.486 150.725 98.109 C 151.479 97.543 152.423 96.6 153.177 95.843 C 153.744 95.278 154.877 93.578 155.82 93.767 C 157.708 93.957 155.82 96.788 155.444 97.543 C 154.499 99.619 153.556 101.318 152.423 103.205 C 152.046 103.961 150.913 105.093 150.913 106.037 C 150.913 106.603 151.479 106.981 151.668 107.736 C 151.856 108.114 151.856 108.303 152.046 108.68 C 152.611 110.191 153.177 112.267 153.744 113.965 C 154.122 115.476 154.499 116.986 155.065 118.308 C 155.632 119.629 156.387 120.95 156.954 122.46 C 157.142 122.838 157.142 123.215 157.33 123.593 C 158.463 126.613 159.596 130.011 161.106 133.031 C 161.673 134.164 162.428 135.674 162.428 137.373 C 162.428 139.26 161.484 140.205 160.54 141.715 C 160.163 142.469 159.407 143.603 158.651 143.791 C 158.086 143.979 157.52 143.791 156.954 143.791 C 156.199 143.979 155.632 144.358 155.065 144.358 C 153.367 144.546 151.668 143.224 151.289 141.903 C 151.101 141.526 151.289 140.96 151.101 140.393 C 150.725 138.317 149.591 137.373 148.27 135.862 C 147.327 134.919 146.57 134.352 145.439 133.786 C 143.739 132.843 142.041 132.464 140.153 131.521 C 139.586 131.144 138.643 130.766 138.077 130.955 C 137.133 131.144 136.189 132.654 135.434 133.598 C 130.903 139.638 126.75 145.867 122.408 151.72 C 119.388 155.684 116.368 159.648 113.914 163.989 C 113.347 165.123 112.97 166.444 112.404 167.765 C 112.026 169.087 111.648 170.407 111.271 171.918 C 109.572 176.826 109.005 182.866 107.496 187.963 C 107.307 188.529 107.307 189.095 107.118 189.662 C 106.364 192.305 105.608 195.325 104.853 198.156 C 104.286 200.233 104.098 203.065 103.909 205.707 C 103.909 208.35 103.721 211.936 104.665 213.447 C 105.23 214.39 106.929 214.579 107.496 215.523 C 107.873 216.09 108.251 217.411 108.817 218.166 C 109.195 218.733 110.139 219.865 109.95 220.809 C 109.95 221.376 109.384 221.941 108.817 222.131 C 108.251 222.319 107.496 222.319 106.929 222.507 C 106.929 223.263 107.118 224.019 106.552 224.395 Z" style=""/>
    <path class="st2" d="M 736.852 126.802 C 726.092 126.802 718.163 130.2 710.802 137.75 C 705.327 130.2 697.399 126.802 687.772 126.802 C 679.844 126.802 671.727 130.011 666.063 135.862 L 666.063 127.934 L 644.921 127.934 L 644.921 214.769 L 666.629 214.769 L 666.629 162.291 C 666.629 150.398 674.37 146.434 681.165 146.434 C 687.961 146.434 695.512 150.398 695.512 162.291 L 695.512 214.769 L 717.22 214.769 L 717.22 161.725 C 717.22 150.398 725.149 146.434 731.754 146.434 C 738.552 146.434 746.102 150.398 746.102 162.291 L 746.102 214.769 L 767.81 214.769 L 767.81 159.27 C 767.81 149.832 765.356 141.526 758.372 134.542 C 753.275 129.633 745.535 126.802 736.852 126.802 Z" style=""/>
    <path class="st2" d="M 831.047 180.411 C 831.047 192.305 823.309 196.269 816.513 196.269 C 809.718 196.269 802.165 192.305 802.165 180.411 L 802.165 127.745 L 780.457 127.745 L 780.457 183.433 C 780.457 192.871 782.345 201.176 789.329 208.161 C 794.238 213.069 801.222 215.901 809.906 215.901 C 817.835 215.901 825.952 212.88 831.614 206.84 L 831.614 214.769 L 852.756 214.769 L 852.756 127.934 L 831.047 127.934 L 831.047 180.411 Z" style=""/>
    <path class="st2" d="M 888.246 188.529 L 888.246 96.033 L 866.535 96.033 L 866.535 189.851 C 866.535 202.121 874.088 214.769 891.831 214.769 L 904.101 214.769 L 904.101 196.457 L 895.796 196.457 C 890.322 196.457 888.246 193.814 888.246 188.529 Z" style=""/>
    <path class="st2" d="M 983.762 168.33 C 983.762 144.546 970.17 126.802 945.82 126.802 C 923.355 126.802 907.877 142.848 907.877 171.163 C 907.877 206.273 927.509 215.712 948.085 215.712 C 963.752 215.712 972.248 210.804 981.119 202.121 L 967.905 189.284 C 962.431 194.758 957.711 197.401 948.273 197.401 C 936.003 197.401 929.208 189.284 929.208 178.147 L 983.573 178.147 L 983.573 168.33 Z M 929.396 163.234 C 929.585 159.458 930.151 157.006 931.472 153.984 C 933.739 148.889 938.646 144.924 946.008 144.924 C 953.371 144.924 958.09 148.698 960.543 153.984 C 961.864 157.194 962.431 159.458 962.62 163.234 L 929.396 163.234 Z" style=""/>
  </g>
</svg>