<?xml version="1.0" encoding="utf-8"?>
<svg viewBox="0 0 500 165" version="1.1" xmlns="http://www.w3.org/2000/svg">
  <title>Artboard</title>
  <desc>Created with Sketch.</desc>
  <g id="Artboard" stroke="none" stroke-width="1" fill="none" fill-rule="evenodd" style="" transform="matrix(2.139334, 0, 0, 2.139334, -32.486279, 5.803498)">
    <g id="Group" transform="translate(20.000000, 13.000000)">
      <path d="M99.8,24.7 C99.8,19.5 98.9,18.7 92.3,18.7 C88.9,18.7 87.2,19 86.3,19.9 C85.6,20.6 85.3,22 85.1,24.8 L99.8,24.8 L99.8,24.7 Z" id="Path"/>
      <path d="M167.8,18.6 C164.2,18.6 162.7,19 161.8,20.1 C160.8,21.4 160.5,24.3 160.5,28.2 C160.5,32.5 160.6,35.4 161.7,36.7 C162.6,37.7 164.1,38.2 167.7,38.2 C174.6,38.2 175.9,37.5 175.9,28.2 C175.9,23.9 175.5,21.5 174.3,20.3 C173.3,19.2 171.5,18.6 167.8,18.6 Z" id="Path"/>
      <path d="M130.5,18.7 C126.8,18.7 124.8,19.1 123.9,20.3 C122.9,21.5 122.4,23.9 122.4,28.4 C122.4,33 122.8,35.3 123.9,36.5 C124.9,37.7 126.7,38.1 130.5,38.1 C134.2,38.1 136.2,37.7 137.1,36.5 C138.1,35.3 138.6,32.9 138.6,28.4 C138.6,23.8 138.2,21.5 137.1,20.3 C136,19.2 134.2,18.7 130.5,18.7 Z" id="Path"/>
      <path d="M205.8,18.7 C202.1,18.7 200.1,19.1 199.2,20.3 C198.2,21.5 197.7,23.9 197.7,28.4 C197.7,33 198.1,35.3 199.2,36.5 C200.2,37.7 202,38.1 205.8,38.1 C209.6,38.1 211.5,37.7 212.4,36.5 C213.4,35.3 213.9,32.9 213.9,28.4 C213.9,23.8 213.5,21.5 212.4,20.3 C211.5,19.2 209.6,18.7 205.8,18.7 Z" id="Path"/>
      <polygon id="Path" fill="#17539F" fill-rule="nonzero" points="0.2 7.6 12 7.6 12 44.6 21.2 44.6 21.2 7.6 33 7.6 33 0 0.2 0"/>
      <path d="M57.3,11.4 C53.6,11.4 50.1,11.5 47.7,13.3 L47.7,0 L38.9,0 L38.9,44.8 L47.7,44.8 L47.7,26.2 C47.7,20.4 49.2,19 55,19 C61.6,19 62.2,20.3 62.2,25.9 L62.2,44.8 L71,44.8 L71,23.8 C71,19 70.1,16.2 68.2,14.4 C66.1,12.3 62.8,11.4 57.3,11.4 Z" id="Path" fill="#17539F" fill-rule="nonzero"/>
      <path d="M99.8,34.6 C99.8,37.3 99.8,38.2 92.5,38.2 C89.4,38.2 87.6,37.9 86.7,36.9 C85.8,36 85.4,34.1 85.4,31.4 L108.8,31.4 L108.8,30.8 C108.8,30.4 108.8,30.1 108.8,29.6 C108.8,28.9 108.9,28.1 108.9,27.4 C108.9,21.9 108.3,17.5 105.8,15 C103.4,12.6 99.7,11.6 92.8,11.6 C86.7,11.6 82,12.2 79.3,15 C76.6,17.8 76.2,22.5 76.2,28.6 C76.2,42.4 79.5,45.7 93,45.7 C99.6,45.7 103.3,45 105.7,43.2 C108.5,41.1 108.8,38.1 108.8,34.8 L99.8,34.8 L99.8,34.6 Z M92.5,18.6 C99.1,18.6 99.8,19.3 100,24.6 L85.4,24.6 C85.4,21.9 85.8,20.4 86.6,19.7 C87.4,19 89,18.6 92.5,18.6 Z" id="Shape" fill="#17539F" fill-rule="nonzero"/>
      <path d="M130.5,11.4 C123.5,11.4 119.6,12.4 117,14.8 C114.5,17.3 113.4,21.2 113.4,28.4 C113.4,35.6 114.4,39.5 117,42 C119.5,44.5 123.4,45.4 130.5,45.4 C137.5,45.4 141.4,44.4 144,42 C146.5,39.5 147.6,35.6 147.6,28.4 C147.6,21.2 146.6,17.3 144,14.8 C141.4,12.4 137.5,11.4 130.5,11.4 Z M137.1,36.5 C136.1,37.7 134.3,38.1 130.5,38.1 C126.8,38.1 124.8,37.7 123.9,36.5 C122.9,35.3 122.4,32.9 122.4,28.4 C122.4,23.8 122.8,21.5 123.9,20.3 C125,19.1 126.7,18.7 130.5,18.7 C134.2,18.7 136.2,19.1 137.1,20.3 C138.1,21.5 138.6,23.9 138.6,28.4 C138.6,33.1 138.1,35.3 137.1,36.5 Z" id="Shape" fill="#17539F" fill-rule="nonzero"/>
      <path d="M176.3,13.3 C174.1,11.5 170.6,11.4 166.4,11.4 C154.7,11.4 151.4,15.1 151.4,28.3 C151.4,34.4 152,39.2 154.7,42.1 C157.1,44.6 160.8,45.7 167.9,45.7 C175.2,45.7 179.3,44.7 181.8,42 C184.6,39 185.2,34.4 185.2,28.4 L185.2,0 L176.5,0 L176.5,13.3 L176.3,13.3 Z M167.8,38.3 C164.2,38.3 162.6,37.9 161.8,36.8 C160.8,35.5 160.6,32.5 160.6,28.3 C160.6,24.4 160.7,21.6 161.9,20.2 C162.8,19 164.4,18.7 167.9,18.7 C171.6,18.7 173.4,19.1 174.6,20.3 C175.8,21.5 176.2,23.9 176.2,28.2 C176,37.4 174.7,38.3 167.8,38.3 Z" id="Shape" fill="#6ABD9E" fill-rule="nonzero"/>
      <path d="M219.3,14.8 C216.8,12.3 212.9,11.4 205.8,11.4 C198.8,11.4 194.9,12.4 192.3,14.8 C189.8,17.3 188.7,21.2 188.7,28.4 C188.7,35.6 189.7,39.5 192.3,42 C194.8,44.5 198.7,45.4 205.8,45.4 C212.8,45.4 216.7,44.4 219.3,42 C221.8,39.5 222.9,35.6 222.9,28.4 C222.9,21.4 221.9,17.4 219.3,14.8 Z M212.4,36.5 C211.4,37.7 209.6,38.1 205.8,38.1 C202,38.1 200.1,37.7 199.2,36.5 C198.2,35.3 197.7,32.9 197.7,28.4 C197.7,23.8 198.1,21.5 199.2,20.3 C200.2,19.1 202,18.7 205.8,18.7 C209.6,18.7 211.5,19.1 212.4,20.3 C213.4,21.5 213.9,23.9 213.9,28.4 C213.9,33.1 213.5,35.3 212.4,36.5 Z" id="Shape" fill="#6ABD9E" fill-rule="nonzero"/>
    </g>
  </g>
</svg>