<?xml version="1.0"?>
<svg width="500" height="165" xmlns="http://www.w3.org/2000/svg" xmlns:svg="http://www.w3.org/2000/svg" version="1.1">
 <title>Artboard</title>
 <desc>Created with Sketch.</desc>
 <g class="layer">
  <title>Layer 1</title>
  <g fill="none" fill-rule="evenodd" id="Artboard" transform="matrix(2.00072 0 0 2.00072 -29.751 14.0052)">
   <g id="Group">
    <path d="m128.3,36.2c0,-5.2 -0.9,-6 -7.5,-6c-3.4,0 -5.1,0.3 -6,1.2c-0.7,0.7 -1,2.1 -1.2,4.9l14.7,0l0,-0.1z" id="Path"/>
    <path d="m196.3,30.1c-3.6,0 -5.1,0.4 -6,1.5c-1,1.3 -1.3,4.2 -1.3,8.1c0,4.3 0.1,7.2 1.2,8.5c0.9,1 2.4,1.5 6,1.5c6.9,0 8.2,-0.7 8.2,-10c0,-4.3 -0.4,-6.7 -1.6,-7.9c-1,-1.1 -2.8,-1.7 -6.5,-1.7z" id="svg_1"/>
    <path d="m159,30.2c-3.7,0 -5.7,0.4 -6.6,1.6c-1,1.2 -1.5,3.6 -1.5,8.1c0,4.6 0.4,6.9 1.5,8.1c1,1.2 2.8,1.6 6.6,1.6c3.7,0 5.7,-0.4 6.6,-1.6c1,-1.2 1.5,-3.6 1.5,-8.1c0,-4.6 -0.4,-6.9 -1.5,-8.1c-1.1,-1.1 -2.9,-1.6 -6.6,-1.6z" id="svg_2"/>
    <path d="m234.3,30.2c-3.7,0 -5.7,0.4 -6.6,1.6c-1,1.2 -1.5,3.6 -1.5,8.1c0,4.6 0.4,6.9 1.5,8.1c1,1.2 2.8,1.6 6.6,1.6c3.8,0 5.7,-0.4 6.6,-1.6c1,-1.2 1.5,-3.6 1.5,-8.1c0,-4.6 -0.4,-6.9 -1.5,-8.1c-0.9,-1.1 -2.8,-1.6 -6.6,-1.6z" id="svg_3"/>
    <polygon fill="#17539F" fill-rule="nonzero" id="svg_4" points="28.69731903076172,19.100177764892578 40.497318267822266,19.100177764892578 40.497318267822266,56.10017776489258 49.697322845458984,56.10017776489258 49.697322845458984,19.100177764892578 61.497318267822266,19.100177764892578 61.497318267822266,11.500178337097168 28.69731903076172,11.500178337097168 "/>
    <path d="m85.8,22.9c-3.7,0 -7.2,0.1 -9.6,1.9l0,-13.3l-8.8,0l0,44.8l8.8,0l0,-18.6c0,-5.8 1.5,-7.2 7.3,-7.2c6.6,0 7.2,1.3 7.2,6.9l0,18.9l8.8,0l0,-21c0,-4.8 -0.9,-7.6 -2.8,-9.4c-2.1,-2.1 -5.4,-3 -10.9,-3z" fill="#17539F" fill-rule="nonzero" id="svg_5"/>
    <path d="m128.3,46.1c0,2.7 0,3.6 -7.3,3.6c-3.1,0 -4.9,-0.3 -5.8,-1.3c-0.9,-0.9 -1.3,-2.8 -1.3,-5.5l23.4,0l0,-0.6c0,-0.4 0,-0.7 0,-1.2c0,-0.7 0.1,-1.5 0.1,-2.2c0,-5.5 -0.6,-9.9 -3.1,-12.4c-2.4,-2.4 -6.1,-3.4 -13,-3.4c-6.1,0 -10.8,0.6 -13.5,3.4c-2.7,2.8 -3.1,7.5 -3.1,13.6c0,13.8 3.3,17.1 16.8,17.1c6.6,0 10.3,-0.7 12.7,-2.5c2.8,-2.1 3.1,-5.1 3.1,-8.4l-9,0l0,-0.2zm-7.3,-16c6.6,0 7.3,0.7 7.5,6l-14.6,0c0,-2.7 0.4,-4.2 1.2,-4.9c0.8,-0.7 2.4,-1.1 5.9,-1.1z" fill="#17539F" fill-rule="nonzero" id="Shape"/>
    <path d="m159,22.9c-7,0 -10.9,1 -13.5,3.4c-2.5,2.5 -3.6,6.4 -3.6,13.6c0,7.2 1,11.1 3.6,13.6c2.5,2.5 6.4,3.4 13.5,3.4c7,0 10.9,-1 13.5,-3.4c2.5,-2.5 3.6,-6.4 3.6,-13.6c0,-7.2 -1,-11.1 -3.6,-13.6c-2.6,-2.4 -6.5,-3.4 -13.5,-3.4zm6.6,25.1c-1,1.2 -2.8,1.6 -6.6,1.6c-3.7,0 -5.7,-0.4 -6.6,-1.6c-1,-1.2 -1.5,-3.6 -1.5,-8.1c0,-4.6 0.4,-6.9 1.5,-8.1c1.1,-1.2 2.8,-1.6 6.6,-1.6c3.7,0 5.7,0.4 6.6,1.6c1,1.2 1.5,3.6 1.5,8.1c0,4.7 -0.5,6.9 -1.5,8.1z" fill="#17539F" fill-rule="nonzero" id="svg_6"/>
    <path d="m204.8,24.8c-2.2,-1.8 -5.7,-1.9 -9.9,-1.9c-11.7,0 -15,3.7 -15,16.9c0,6.1 0.6,10.9 3.3,13.8c2.4,2.5 6.1,3.6 13.2,3.6c7.3,0 11.4,-1 13.9,-3.7c2.8,-3 3.4,-7.6 3.4,-13.6l0,-28.4l-8.7,0l0,13.3l-0.2,0zm-8.5,25c-3.6,0 -5.2,-0.4 -6,-1.5c-1,-1.3 -1.2,-4.3 -1.2,-8.5c0,-3.9 0.1,-6.7 1.3,-8.1c0.9,-1.2 2.5,-1.5 6,-1.5c3.7,0 5.5,0.4 6.7,1.6c1.2,1.2 1.6,3.6 1.6,7.9c-0.2,9.2 -1.5,10.1 -8.4,10.1z" fill="#6ABD9E" fill-rule="nonzero" id="svg_7"/>
    <path d="m247.8,26.3c-2.5,-2.5 -6.4,-3.4 -13.5,-3.4c-7,0 -10.9,1 -13.5,3.4c-2.5,2.5 -3.6,6.4 -3.6,13.6c0,7.2 1,11.1 3.6,13.6c2.5,2.5 6.4,3.4 13.5,3.4c7,0 10.9,-1 13.5,-3.4c2.5,-2.5 3.6,-6.4 3.6,-13.6c0,-7 -1,-11 -3.6,-13.6zm-6.9,21.7c-1,1.2 -2.8,1.6 -6.6,1.6c-3.8,0 -5.7,-0.4 -6.6,-1.6c-1,-1.2 -1.5,-3.6 -1.5,-8.1c0,-4.6 0.4,-6.9 1.5,-8.1c1,-1.2 2.8,-1.6 6.6,-1.6c3.8,0 5.7,0.4 6.6,1.6c1,1.2 1.5,3.6 1.5,8.1c0,4.7 -0.4,6.9 -1.5,8.1z" fill="#6ABD9E" fill-rule="nonzero" id="svg_8"/>
   </g>
  </g>
 </g>
</svg>