<svg xmlns="http://www.w3.org/2000/svg" viewBox="0 0 705 705"><defs/><g fill="#e22523"><path d="M416.77 34.68V11.24h-46.88v23.44h-23.44v23.44H323V34.68h-23.44V11.24h-46.89v23.44h-23.44V105h23.44v23.44h23.45v23.44h23.44v23.44H323v23.44h23.44v-23.44h23.44v-23.44h23.44v-23.44h23.44V105h23.44V34.68h-23.44z"/><path d="M276.13 34.68h23.44v23.44h-23.44zm-23.45 23.44h23.45v23.44h-23.45zM276.13 81.56h23.44V105h-23.44zM299.57 105H323v23.44h-23.44z"/><path d="M299.57 34.68H323v23.44h-23.44zM323 58.12h23.45v23.44H323zM346.45 58.12h23.44v23.44h-23.44z"/><path d="M346.45 34.68h23.44v23.44h-23.44zM369.89 34.68h23.44v23.44h-23.44zM393.33 58.12h23.44v23.44h-23.44zm-23.44 23.44h23.44V105h-23.44zM346.45 105h23.44v23.44h-23.44zM323 128.44h23.45v23.44H323zM252.68 34.68h23.45v23.44h-23.45zM276.13 11.24h23.44v23.44h-23.44zM252.68 11.24h23.45v23.44h-23.45zM393.33 11.24h23.44v23.44h-23.44zm-23.44 0h23.44v23.44h-23.44zM252.68 81.56h23.45V105h-23.45zM229.24 58.12h23.44v23.44h-23.44z"/><path d="M229.24 34.68h23.44v23.44h-23.44zM229.24 81.56h23.44V105h-23.44zM252.68 105h23.45v23.44h-23.45zM276.13 128.44h23.44v23.44h-23.44zm23.44 23.44H323v23.44h-23.44zM323 175.32h23.45v23.44H323zm23.45-23.44h23.44v23.44h-23.44zM369.89 128.44h23.44v23.44h-23.44zM393.33 105h23.44v23.44h-23.44zm23.44-23.44h23.44V105h-23.44zm0-23.44h23.44v23.44h-23.44zM416.77 34.68h23.44v23.44h-23.44zm-23.44 0h23.44v23.44h-23.44zM393.33 81.56h23.44V105h-23.44zM276.13 105h23.44v23.44h-23.44z"/><path d="M299.57 128.44H323v23.44h-23.44zM346.45 128.44h23.44v23.44h-23.44zM369.89 105h23.44v23.44h-23.44zM323 151.88h23.45v23.44H323zM323 105h23.45v23.44H323zM369.89 58.12h23.44v23.44h-23.44zm-23.44 23.44h23.44V105h-23.44zM323 81.56h23.45V105H323zM299.57 81.56H323V105h-23.44zm0-23.44H323v23.44h-23.44z"/><path d="M276.13 58.12h23.44v23.44h-23.44z"/></g></svg>