<svg xmlns="http://www.w3.org/2000/svg" fill="none" viewBox="0 0 1376 1001"><path fill="url(#a)" fill-opacity=".1" d="M998.5-6h125.9v125.9H998.5V-6Z"/><path fill="url(#b)" fill-opacity=".1" d="M495.3-6H621v125.9H495.3V-6Z"/><path fill="url(#c)" fill-opacity=".1" d="M369.5-6h125.8v125.9H369.5V-6Z"/><path fill="url(#d)" fill-opacity=".1" d="M117.8-6h125.8v125.9H117.8V-6Z"/><path fill="url(#e)" fill-opacity=".1" d="M-8-6h125.8v125.9H-8V-6Z"/><path fill="url(#f)" fill-opacity=".1" d="M747 119.9h125.7v125.8H747V120Z"/><path fill="url(#g)" fill-opacity=".1" d="M621 119.9h126v125.8H621V120Z"/><path fill="url(#h)" fill-opacity=".1" d="M369.5 119.9h125.8v125.8H369.5V120Z"/><path fill="url(#i)" fill-opacity=".1" d="M117.8 119.9h125.8v125.8H117.8V120Z"/><path fill="url(#j)" fill-opacity=".1" d="M621 245.8h126v125.8H621V245.7Z"/><path fill="url(#k)" fill-opacity=".1" d="M495.3 245.8H621v125.8H495.3V245.7Z"/><path fill="url(#l)" fill-opacity=".1" d="M243.6 245.8h125.9v125.8H243.6V245.7Z"/><path fill="url(#m)" fill-opacity=".1" d="M-8 245.8h125.8v125.8H-8V245.7Z"/><path fill="url(#n)" fill-opacity=".1" d="M998.5 371.6h125.9v125.9H998.5V371.6Z"/><path fill="url(#o)" fill-opacity=".1" d="M747 371.6h125.7v125.9H747V371.6Z"/><path fill="url(#p)" fill-opacity=".1" d="M369.5 371.6h125.8v125.9H369.5V371.6Z"/><path fill="url(#q)" fill-opacity=".1" d="M117.8 371.6h125.8v125.9H117.8V371.6Z"/><path fill="url(#r)" fill-opacity=".1" d="M-8 371.6h125.8v125.9H-8V371.6Z"/><path fill="url(#s)" fill-opacity=".1" d="M1250.2 497.5H1376v125.9h-125.8V497.5Z"/><path fill="url(#t)" fill-opacity=".1" d="M872.7 497.5h125.8v125.9H872.7V497.5Z"/><path fill="url(#u)" fill-opacity=".1" d="M621 497.5h126v125.9H621V497.5Z"/><path fill="url(#v)" fill-opacity=".1" d="M495.3 497.5H621v125.9H495.3V497.5Z"/><path fill="url(#w)" fill-opacity=".1" d="M369.5 497.5h125.8v125.9H369.5V497.5Z"/><path fill="url(#x)" fill-opacity=".1" d="M243.6 497.5h125.9v125.9H243.6V497.5Z"/><path fill="url(#y)" fill-opacity=".1" d="M872.7 623.4h125.8v125.9H872.7v-126Z"/><path fill="url(#z)" fill-opacity=".1" d="M621 623.4h126v125.9H621v-126Z"/><path fill="url(#A)" fill-opacity=".1" d="M369.5 623.4h125.8v125.9H369.5v-126Z"/><path fill="url(#B)" fill-opacity=".1" d="M117.8 623.4h125.8v125.9H117.8v-126Z"/><path fill="url(#C)" fill-opacity=".1" d="M-8 623.4h125.8v125.9H-8v-126Z"/><path fill="url(#D)" fill-opacity=".1" d="M747 749.3h125.7V875H747V749.2Z"/><path fill="url(#E)" fill-opacity=".1" d="M495.3 749.3H621V875H495.3V749.2Z"/><path fill="url(#F)" fill-opacity=".1" d="M243.6 749.3h125.9V875H243.6V749.2Z"/><path fill="url(#G)" fill-opacity=".1" d="M-8 749.3h125.8V875H-8V749.2Z"/><path fill="url(#H)" fill-opacity=".1" d="M998.5 875.1h125.9V1001H998.5V875.1Z"/><path fill="url(#I)" fill-opacity=".1" d="M495.3 875.1H621V1001H495.3V875.1Z"/><path fill="url(#J)" fill-opacity=".1" d="M369.5 875.1h125.8V1001H369.5V875.1Z"/><path fill="url(#K)" fill-opacity=".1" d="M117.8 875.1h125.8V1001H117.8V875.1Z"/><path fill="url(#L)" fill-opacity=".1" d="M-8 875.1h125.8V1001H-8V875.1Z"/><defs><linearGradient id="a" x1="684" x2="684" y1="1001" y2="-6" gradientUnits="userSpaceOnUse"><stop stop-color="#FFECEC" stop-opacity="0"/><stop offset="1" stop-color="#FFECEC"/></linearGradient><linearGradient id="b" x1="684" x2="684" y1="1001" y2="-6" gradientUnits="userSpaceOnUse"><stop stop-color="#FFECEC" stop-opacity="0"/><stop offset="1" stop-color="#FFECEC"/></linearGradient><linearGradient id="c" x1="684" x2="684" y1="1001" y2="-6" gradientUnits="userSpaceOnUse"><stop stop-color="#FFECEC" stop-opacity="0"/><stop offset="1" stop-color="#FFECEC"/></linearGradient><linearGradient id="d" x1="684" x2="684" y1="1001" y2="-6" gradientUnits="userSpaceOnUse"><stop stop-color="#FFECEC" stop-opacity="0"/><stop offset="1" stop-color="#FFECEC"/></linearGradient><linearGradient id="e" x1="684" x2="684" y1="1001" y2="-6" gradientUnits="userSpaceOnUse"><stop stop-color="#FFECEC" stop-opacity="0"/><stop offset="1" stop-color="#FFECEC"/></linearGradient><linearGradient id="f" x1="684" x2="684" y1="1001" y2="-6" gradientUnits="userSpaceOnUse"><stop stop-color="#FFECEC" stop-opacity="0"/><stop offset="1" stop-color="#FFECEC"/></linearGradient><linearGradient id="g" x1="684" x2="684" y1="1001" y2="-6" gradientUnits="userSpaceOnUse"><stop stop-color="#FFECEC" stop-opacity="0"/><stop offset="1" stop-color="#FFECEC"/></linearGradient><linearGradient id="h" x1="684" x2="684" y1="1001" y2="-6" gradientUnits="userSpaceOnUse"><stop stop-color="#FFECEC" stop-opacity="0"/><stop offset="1" stop-color="#FFECEC"/></linearGradient><linearGradient id="i" x1="684" x2="684" y1="1001" y2="-6" gradientUnits="userSpaceOnUse"><stop stop-color="#FFECEC" stop-opacity="0"/><stop offset="1" stop-color="#FFECEC"/></linearGradient><linearGradient id="j" x1="684" x2="684" y1="1001" y2="-6" gradientUnits="userSpaceOnUse"><stop stop-color="#FFECEC" stop-opacity="0"/><stop offset="1" stop-color="#FFECEC"/></linearGradient><linearGradient id="k" x1="684" x2="684" y1="1001" y2="-6" gradientUnits="userSpaceOnUse"><stop stop-color="#FFECEC" stop-opacity="0"/><stop offset="1" stop-color="#FFECEC"/></linearGradient><linearGradient id="l" x1="684" x2="684" y1="1001" y2="-6" gradientUnits="userSpaceOnUse"><stop stop-color="#FFECEC" stop-opacity="0"/><stop offset="1" stop-color="#FFECEC"/></linearGradient><linearGradient id="m" x1="684" x2="684" y1="1001" y2="-6" gradientUnits="userSpaceOnUse"><stop stop-color="#FFECEC" stop-opacity="0"/><stop offset="1" stop-color="#FFECEC"/></linearGradient><linearGradient id="n" x1="684" x2="684" y1="1001" y2="-6" gradientUnits="userSpaceOnUse"><stop stop-color="#FFECEC" stop-opacity="0"/><stop offset="1" stop-color="#FFECEC"/></linearGradient><linearGradient id="o" x1="684" x2="684" y1="1001" y2="-6" gradientUnits="userSpaceOnUse"><stop stop-color="#FFECEC" stop-opacity="0"/><stop offset="1" stop-color="#FFECEC"/></linearGradient><linearGradient id="p" x1="684" x2="684" y1="1001" y2="-6" gradientUnits="userSpaceOnUse"><stop stop-color="#FFECEC" stop-opacity="0"/><stop offset="1" stop-color="#FFECEC"/></linearGradient><linearGradient id="q" x1="684" x2="684" y1="1001" y2="-6" gradientUnits="userSpaceOnUse"><stop stop-color="#FFECEC" stop-opacity="0"/><stop offset="1" stop-color="#FFECEC"/></linearGradient><linearGradient id="r" x1="684" x2="684" y1="1001" y2="-6" gradientUnits="userSpaceOnUse"><stop stop-color="#FFECEC" stop-opacity="0"/><stop offset="1" stop-color="#FFECEC"/></linearGradient><linearGradient id="s" x1="684" x2="684" y1="1001" y2="-6" gradientUnits="userSpaceOnUse"><stop stop-color="#FFECEC" stop-opacity="0"/><stop offset="1" stop-color="#FFECEC"/></linearGradient><linearGradient id="t" x1="684" x2="684" y1="1001" y2="-6" gradientUnits="userSpaceOnUse"><stop stop-color="#FFECEC" stop-opacity="0"/><stop offset="1" stop-color="#FFECEC"/></linearGradient><linearGradient id="u" x1="684" x2="684" y1="1001" y2="-6" gradientUnits="userSpaceOnUse"><stop stop-color="#FFECEC" stop-opacity="0"/><stop offset="1" stop-color="#FFECEC"/></linearGradient><linearGradient id="v" x1="684" x2="684" y1="1001" y2="-6" gradientUnits="userSpaceOnUse"><stop stop-color="#FFECEC" stop-opacity="0"/><stop offset="1" stop-color="#FFECEC"/></linearGradient><linearGradient id="w" x1="684" x2="684" y1="1001" y2="-6" gradientUnits="userSpaceOnUse"><stop stop-color="#FFECEC" stop-opacity="0"/><stop offset="1" stop-color="#FFECEC"/></linearGradient><linearGradient id="x" x1="684" x2="684" y1="1001" y2="-6" gradientUnits="userSpaceOnUse"><stop stop-color="#FFECEC" stop-opacity="0"/><stop offset="1" stop-color="#FFECEC"/></linearGradient><linearGradient id="y" x1="684" x2="684" y1="1001" y2="-6" gradientUnits="userSpaceOnUse"><stop stop-color="#FFECEC" stop-opacity="0"/><stop offset="1" stop-color="#FFECEC"/></linearGradient><linearGradient id="z" x1="684" x2="684" y1="1001" y2="-6" gradientUnits="userSpaceOnUse"><stop stop-color="#FFECEC" stop-opacity="0"/><stop offset="1" stop-color="#FFECEC"/></linearGradient><linearGradient id="A" x1="684" x2="684" y1="1001" y2="-6" gradientUnits="userSpaceOnUse"><stop stop-color="#FFECEC" stop-opacity="0"/><stop offset="1" stop-color="#FFECEC"/></linearGradient><linearGradient id="B" x1="684" x2="684" y1="1001" y2="-6" gradientUnits="userSpaceOnUse"><stop stop-color="#FFECEC" stop-opacity="0"/><stop offset="1" stop-color="#FFECEC"/></linearGradient><linearGradient id="C" x1="684" x2="684" y1="1001" y2="-6" gradientUnits="userSpaceOnUse"><stop stop-color="#FFECEC" stop-opacity="0"/><stop offset="1" stop-color="#FFECEC"/></linearGradient><linearGradient id="D" x1="684" x2="684" y1="1001" y2="-6" gradientUnits="userSpaceOnUse"><stop stop-color="#FFECEC" stop-opacity="0"/><stop offset="1" stop-color="#FFECEC"/></linearGradient><linearGradient id="E" x1="684" x2="684" y1="1001" y2="-6" gradientUnits="userSpaceOnUse"><stop stop-color="#FFECEC" stop-opacity="0"/><stop offset="1" stop-color="#FFECEC"/></linearGradient><linearGradient id="F" x1="684" x2="684" y1="1001" y2="-6" gradientUnits="userSpaceOnUse"><stop stop-color="#FFECEC" stop-opacity="0"/><stop offset="1" stop-color="#FFECEC"/></linearGradient><linearGradient id="G" x1="684" x2="684" y1="1001" y2="-6" gradientUnits="userSpaceOnUse"><stop stop-color="#FFECEC" stop-opacity="0"/><stop offset="1" stop-color="#FFECEC"/></linearGradient><linearGradient id="H" x1="684" x2="684" y1="1001" y2="-6" gradientUnits="userSpaceOnUse"><stop stop-color="#FFECEC" stop-opacity="0"/><stop offset="1" stop-color="#FFECEC"/></linearGradient><linearGradient id="I" x1="684" x2="684" y1="1001" y2="-6" gradientUnits="userSpaceOnUse"><stop stop-color="#FFECEC" stop-opacity="0"/><stop offset="1" stop-color="#FFECEC"/></linearGradient><linearGradient id="J" x1="684" x2="684" y1="1001" y2="-6" gradientUnits="userSpaceOnUse"><stop stop-color="#FFECEC" stop-opacity="0"/><stop offset="1" stop-color="#FFECEC"/></linearGradient><linearGradient id="K" x1="684" x2="684" y1="1001" y2="-6" gradientUnits="userSpaceOnUse"><stop stop-color="#FFECEC" stop-opacity="0"/><stop offset="1" stop-color="#FFECEC"/></linearGradient><linearGradient id="L" x1="684" x2="684" y1="1001" y2="-6" gradientUnits="userSpaceOnUse"><stop stop-color="#FFECEC" stop-opacity="0"/><stop offset="1" stop-color="#FFECEC"/></linearGradient></defs></svg>