<?xml version="1.0" encoding="utf-8"?>
<svg version="1.1" xmlns="http://www.w3.org/2000/svg" viewBox="0 0 500 140">
	<g>
		<path d="M110.1,6.3c0.8,1.1,1.6,2.3,2.2,3.7c0.6,1.3,0.9,2.7,0.9,4.1c0,1.8-0.7,3.9-2.1,6.3c-1.4,2.4-3,4.8-4.9,7.2
			c-1.9,2.4-3.9,4.8-6,7.1c-2.2,2.3-3.9,4.2-5.3,5.5c-3.6,3.6-7.3,7.2-11.1,10.7c-3.8,3.5-7.7,6.6-11.9,9.4c-0.7,0.6-1.5,0.8-2.5,0.8
			c-1.8,0-3.4-0.8-4.7-2.4c-1.3-1.6-2-3.5-2-5.5c0-1.7,0.6-3.3,1.7-4.8c0.8-1.3,2-2.9,3.4-4.8c1.5-2,2.9-3.9,4.3-5.8
			c1.4-1.9,2.7-3.5,4-4.9c1.3-1.4,2.1-2.1,2.5-2.1c0.6,0,1.1,0.2,1.7,0.5c0.6,0.4,1.1,0.7,1.7,0.9c2.8-1.8,5.2-4.1,7.4-7
			c2.2-2.9,3.9-5.8,5.3-8.9c-4.7,0.3-10,1.4-15.7,3.3c-5.8,2-11.5,4.5-17.1,7.5c-5.6,3.1-10.9,6.5-16,10.1c-5,3.7-9.1,7.4-12.3,11
			c-0.4,0.4-0.7,0.9-0.8,1.5c0,1.7,0.9,3.5,2.6,5.3c1.7,1.9,3.9,3.7,6.5,5.5c2.6,1.8,5.3,3.6,8.2,5.4c2.9,1.8,5.5,3.4,7.7,4.8
			c1.8,1.3,4,2.8,6.7,4.6c2.6,1.8,5.2,3.8,7.6,6c2.4,2.2,4.5,4.5,6.3,7c1.7,2.5,2.6,5,2.6,7.5c0,0.8-0.1,1.7-0.4,2.5
			c-1.3,5.4-3.7,10.5-7.4,15.2c-3.7,4.7-8,8.7-13,12c-5,3.3-10.4,6-16.3,8c-5.8,2-11.5,2.9-17.1,2.9c-1.9,0-4.4-0.4-7.4-1
			c-3-0.7-5.9-1.8-8.8-3.2c-2.9-1.5-5.3-3.2-7.4-5.3C1,124.9,0,122.4,0,119.5c0-3.6,1.7-6.6,5.1-8.9c3.4-2.3,7.5-4.1,12.4-5.4
			c4.9-1.3,10.1-2.3,15.6-2.8c5.6-0.6,10.5-1,14.8-1.3c1.8,0,2.7,0.8,2.7,2.3c0,1.3-0.5,2.5-1.6,3.9c-1,1.3-2.1,2.1-3.2,2.2
			c-8.2,0.8-16.2,2.1-24,3.8c-0.4,0-1.1,0.1-2,0.4c-0.9,0.3-1.9,0.6-3,0.8c-1.1,0.3-2.2,0.6-3.2,0.9c-1,0.4-1.8,0.7-2.2,0.9
			c1.1,0.8,2.3,1.3,3.6,1.5c1.3,0.2,2.5,0.4,3.6,0.4c9,0,17.2-1.5,24.6-4.5c7.4-3,13.1-8.5,17.1-16.5c0-1.4-1-2.9-2.9-4.5
			c-1.9-1.6-4.3-3.2-7.2-4.9c-2.9-1.7-5.8-3.3-9-4.9c-3.1-1.6-5.9-3.1-8.2-4.5c-2.5-1.4-5.2-3-8.2-4.9c-3-1.9-5.7-4-8.2-6.3
			c-2.5-2.3-4.6-4.8-6.4-7.4c-1.7-2.7-2.6-5.4-2.6-8.4c0-2.5,0.5-5,1.5-7.5c1-2.5,2.2-4.8,3.8-6.9c4.3-6.3,9.8-11.7,16.4-16.4
			c6.6-4.6,13.7-8.4,21.4-11.4c7.6-3,15.5-5.2,23.7-6.7c8.1-1.5,16-2.2,23.5-2.2C102.8,0.2,106.9,2.2,110.1,6.3z M18.3,33.5
			c16.1-13.9,38.4-24.3,66.9-31C55.4,7.5,33.1,17.9,18.3,33.5z M76.5,103.6c-11.3,17.6-29.4,27.8-54.4,30.8
			C48.1,132.7,66.2,122.4,76.5,103.6z"/>
		<path d="M157.8,78.3c1.3-1.3,2.5-2.3,3.8-3.1c1.3-0.8,2.2-1.3,2.9-1.3c0.6,0,0.8,0.3,0.8,0.8c-0.1,0-0.7,1.2-1.7,3.5
			c-1,2.3-2.3,5.2-4,8.6c-1.7,3.4-3.6,7.1-5.9,11.1c-2.3,4-4.8,7.7-7.5,11.1c-2.7,3.4-5.6,6.3-8.5,8.6c-3,2.3-6,3.5-9.1,3.5
			c-2.5,0-5-1.5-7.4-4.4c-2.4-2.9-3.6-7.6-3.6-14c-2.8,4.3-5.9,8.2-9.3,11.7c-3.4,3.5-6.9,5.2-10.5,5.2c-1.9,0-3.8-0.5-5.5-1.5
			c-1.7-1-3.2-2.2-4.5-3.7c-1.3-1.5-2.3-3-3-4.6c-0.8-1.6-1.1-3-1.1-4.3c0-4.5,0.7-9.5,2.1-15.1c1.4-5.6,3-11,4.8-16.1
			c1.8-5.2,3.5-9.8,5.2-14c1.7-4.2,2.8-7.1,3.5-8.8c0.6-1.1,1.5-1.7,2.9-1.7c0.6,0,1.3,0.3,2.1,0.8c0.4,0.3,0.8,0.5,1.3,0.6
			c0.3,0,0.4-0.1,0.4-0.4c0.6,0.4,1.1,0.8,1.6,1c0.5,0.3,0.7,0.6,0.7,0.8c-1,0.7-2.1,2.3-3.2,4.9c-1.2,2.6-2.3,5.3-3.2,8.2
			c-1,2.9-1.8,5.5-2.5,8c-0.7,2.4-1,3.9-1,4.3c0.1,0,0.6-1.1,1.5-3.2c0.8-2.2,1.8-4.6,3-7.4c1.2-2.8,2.3-5.5,3.4-8.2
			c1.1-2.6,1.9-4.5,2.5-5.7c0.3,0.4,0.7,0.8,1.4,1c0.6,0.3,0.9,0.4,0.7,0.4c0,0.1,0.4,0.5,1.3,1c0.8,0.6,1.5,1.8,1.9,3.8
			c-0.1,0.4-0.2,1-0.2,1.9v1.7c-1.3,2.2-2.7,5.2-4.4,9c-1.7,3.8-3.2,7.7-4.6,11.7c-1.4,4-2.6,7.8-3.5,11.4c-1,3.6-1.5,6.2-1.5,7.8
			c0,1,0.2,1.6,0.5,1.8c0.3,0.2,0.7,0.3,0.9,0.3c2.5,0,5.2-1.8,8.1-5.4c2.9-3.6,5.8-8,8.5-13.2c2.8-5.2,5.4-10.5,7.8-16.1
			c2.4-5.6,4.5-10.3,6.2-14.2c0.3-0.7,0.5-1.3,0.7-1.8c0.2-0.5,0.4-1,0.7-1.6l0.4-0.6c0.6-1.3,1.7-1.9,3.3-1.9c1.1,0,2.4,0.3,3.8,0.9
			c1.4,0.6,2.7,1.4,3.9,2.4c1.2,1,2.2,2,2.9,3.1c0.8,1.1,1.1,2.2,1.1,3.1c0,0.6-0.1,1-0.2,1.3c-2.4,3.9-4.4,8.1-6.3,12.5
			c-1.8,4.4-3.4,8.7-4.7,13c-1.3,4.3-2.4,8.4-3.2,12.5c-0.8,4-1.5,7.7-1.9,10.9c2.6-1.7,5.1-4,7.4-6.9c2.3-2.9,4.5-6,6.6-9.1
			c2.1-3.1,4.1-6.2,5.9-9.1C154.2,82.2,156,79.9,157.8,78.3z M128.2,102.5c0-2.8,0.5-6.3,1.6-10.6c1-4.3,2.3-8.4,3.6-12.5
			c1.5-4.6,3.3-9.3,5.2-14.2c-0.3,0-0.8,0.8-1.7,2.5c-0.3,0.8-0.9,2.5-2,5c-1,2.5-2.1,5.3-3.1,8.5c-1,3.1-2,6.3-2.8,9.6
			c-0.8,3.3-1.3,6.1-1.3,8.5C127.8,100.4,128,101.4,128.2,102.5z"/>
		<path d="M224.8,79.3c1.4-1.4,2.7-2.5,3.9-3.3c1.2-0.8,2.1-1.3,2.8-1.3c0.7,0,1,0.4,1,1c0,0.7-0.6,2.2-1.7,4.4l-2.1,4
			c-1.9,3.6-4.1,7.6-6.6,11.9c-2.4,4.3-5,8.4-7.8,12.1c-2.8,3.8-5.6,6.9-8.5,9.5c-2.9,2.6-5.8,3.9-8.8,3.9c-3.3,0-6.3-1.4-8.8-4.3
			c-2.5-2.9-3.9-7.1-4.2-12.9c-3.2,4.3-6.9,8.2-11.1,11.7c-4.2,3.5-8.3,5.2-12.3,5.2c-3.1,0-5.4-1-7.1-2.9c-1.7-2-2.9-4.1-3.6-6.4
			c-0.8-2.3-1.3-5.3-1.6-9.1c0-6.3,1-12.6,2.9-19c1.9-6.4,4.5-12.2,7.6-17.3c3.1-5.1,6.6-9.3,10.3-12.6c3.8-3.3,7.5-4.9,11.3-4.9
			c5,0,9.2,2,12.5,6.1c2.4-7.5,4.7-14.3,7.1-20.2c2.4-5.9,4.6-11,6.6-15.1c2-4.1,3.8-7.3,5.3-9.5c1.5-2.2,2.6-3.3,3.3-3.3
			c1.9,0,3.9,1.3,5.7,4c1.9,2.7,2.8,5.7,2.8,9.2c0,2.2-0.3,4.1-1,5.7l-1.3,3.1c-2.1,4.9-4.5,10.7-7.3,17.6c-2.8,6.8-5.5,13.9-8,21.2
			c-2.6,7.3-4.7,14.5-6.5,21.5c-1.7,7-2.6,13-2.6,18.2c0,0.8,0,1.7,0.1,2.5c0.1,0.8,0.2,1.6,0.3,2.3c2.9-1.4,5.6-3.6,8.1-6.5
			c2.5-2.9,4.8-6.1,7-9.4c2.2-3.3,4.2-6.6,6.2-9.7C220.9,83.6,222.8,81.1,224.8,79.3z M161,71.4c4.9-7.8,10.7-13.9,17.5-18.4
			C171.5,55,165.7,61.2,161,71.4z M183.3,82.7c0.4-1,0.8-2.2,1.1-3.8c0.3-1.5,0.7-3.2,1-4.9c0.3-1.7,0.6-3.5,0.7-5.1
			c0.1-1.7,0.2-3.1,0.2-4.4c0-2-0.4-2.9-1.3-2.9c-1.1,0-2.4,1-4,3.1c-1.5,2.1-3.2,4.7-4.9,8c-1.7,3.2-3.4,6.8-5.1,10.7
			c-1.7,3.9-3.2,7.7-4.6,11.5c-1.4,3.8-2.5,7.2-3.3,10.3c-0.8,3.1-1.3,5.4-1.3,6.9c0,1.1,0.2,1.7,0.6,1.7c0.3,0,1.3-0.7,2.9-2.2
			c1.7-1.5,3.6-3.4,5.8-5.8c2.2-2.4,4.6-5.1,7.1-8.1c2.5-3,4.7-6.1,6.7-9.3v-1c-0.4-0.3-0.9-0.7-1.5-1.4c-0.6-0.6-0.8-1.3-0.8-2
			C182.9,83.6,183,83.2,183.3,82.7z M179.7,101.1c2.6-3.8,4.7-7.5,6-11.3c-1,1.7-2.2,3.5-3.5,5.5c-1.4,2-2.8,3.9-4.2,5.8
			c-1.4,1.8-2.5,3.3-3.4,4.6c-0.9,1.3-1.3,1.9-1.1,1.9l2.3-2.3c0.7-0.7,1.4-1.4,2-2.1C178.4,102.5,179,101.8,179.7,101.1z
			 M194.7,100.7c1.5-8,3.3-15.7,5.4-23.1c2.1-7.5,4.6-15,7.5-22.5C199.2,73,194.9,88.2,194.7,100.7z"/>
		<path d="M406.2,5.4c1.1,2.2,1.9,4.6,2.4,7.1c0.5,2.5,0.7,5.1,0.7,7.7c0,5.3-0.8,10.6-2.3,16c-1.5,5.4-3.1,10.3-4.8,14.8
			c-5,13.1-11.2,25.7-18.6,37.8c-7.4,12.1-14.8,24-22.3,35.7l-1.3,0.6c-0.3,0-0.6,0-0.9,0.1c-0.3,0.1-0.7,0.1-0.9,0.1
			c-3.8,0-6.9-1.3-9.4-4s-4.5-5.7-6-9c-0.6-2.1-0.8-4.7-0.8-7.7c0-7.5,0.7-15.1,2.2-22.7c1.5-7.6,2.9-15.1,4.3-22.5
			c-6.3,12.3-12.5,24.6-18.7,36.8c-6.2,12.3-11.5,25-16,38.1c0.4,0.6,0.9,1,1.4,1.3c0.5,0.3,0.7,0.8,0.7,1.5c0,1.1-0.5,1.9-1.6,2.3
			c-1,0.4-2.2,0.6-3.4,0.6c-2.5,0-4.8-0.6-7-1.7c-2.2-1.1-4-2.5-5.6-4.3c-1.6-1.7-2.9-3.8-3.8-6.2c-0.9-2.4-1.4-4.8-1.4-7.3
			c0-2.6,0.3-5.3,0.9-8.1c0.6-2.7,1.4-5.4,2.3-8.1c0.9-2.6,1.8-5.2,2.8-7.7c1-2.5,1.8-4.8,2.5-6.9l1-3.1c3.5-10.5,6.6-21.1,9.5-32
			c2.8-10.9,4.3-22.1,4.3-33.7c0-3.2-0.3-6.1-1-8.6c-0.7-2.5-2.1-3.8-4.2-3.8c-2.8,0-5.8,1.3-9,3.8c-3.2,2.5-6.4,5.7-9.6,9.5
			c-3.2,3.8-6.3,8.1-9.2,12.8c-2.9,4.7-5.5,9.2-7.8,13.5c-2.3,4.3-4.1,8.2-5.4,11.7c-1.3,3.5-2,5.9-2,7.3c0,0.8,0.2,1.6,0.5,2.3
			c0.3,0.7,0.5,1.4,0.5,2.1c0,1.8-1,2.7-2.9,2.7c-2.1,0-4.2-0.6-6.3-1.7c-2.1-1.1-4-2.5-5.8-4.2c-1.8-1.7-3.3-3.5-4.4-5.3
			c-1.1-1.9-1.7-3.6-1.7-5.1c0-3.3,0.9-6.8,2.7-10.3c1.8-3.5,4.1-6.9,7-10.3c2.8-3.3,5.9-6.6,9.3-9.6c3.3-3.1,6.5-5.9,9.4-8.4
			c2.1-1.8,4.6-3.8,7.6-5.9c3-2.1,6.2-4,9.6-5.9c3.4-1.8,6.9-3.3,10.5-4.5c3.6-1.2,7.1-1.8,10.4-1.8c3.8,0,7,0.8,9.6,2.4
			c2.6,1.6,4.8,3.7,6.4,6.4c1.6,2.7,2.8,5.7,3.5,9.2c0.8,3.5,1.1,7.2,1.1,11.1c0,7-0.8,14-2.5,21c-1.7,7-3.3,13.2-4.8,18.5
			c-0.1,0.3-0.2,0.6-0.2,1c-0.4,1.7-1.1,3.6-2.1,5.9c-1,2.2-1.9,4.3-2.9,6.3c-1,2-2.2,4.4-3.5,7.3c0.8,0,2.2-1.9,4.2-5.7
			c1.9-3.8,4.2-8.3,6.7-13.6c2.5-5.3,5.1-10.9,7.7-16.7c2.6-5.9,4.9-10.8,6.9-14.9c-4,12.4-8.1,22.8-12.3,31.3
			c-4.2,8.4-8.4,16.1-12.7,22.9c-0.8,1.3-1.3,2.1-1.4,2.4c-0.1,0.4-0.2,0.7-0.5,0.9c1,0,2.2-1.2,3.8-3.7c1.5-2.4,3.2-5.7,5.1-9.8
			c1.9-4.1,3.9-8.8,6-13.9c2.2-5.2,4.3-10.4,6.6-15.8c2.2-5.4,4.4-10.7,6.6-15.9c2.2-5.2,4.3-9.9,6.4-13.9l0.4-0.8h1.3
			c3.1,0.4,5.6,1.3,7.6,2.6c2,1.3,3.6,3,4.7,5c1.1,2,1.9,4.3,2.3,6.8c0.4,2.5,0.6,5.1,0.6,7.7c0,1.1,0,2.3,0,3.5
			c0,1.2-0.1,2.4-0.2,3.7c-1.3,8.4-2.4,16.8-3.5,25.2c-1.1,8.4-2.2,16.8-3.3,25c3.5-6.3,6.6-12.8,9.5-19.7c2.8-6.8,5.3-13.7,7.4-20.6
			s3.7-13.8,4.9-20.6c1.2-6.8,1.8-13.4,1.8-19.7c0-1.8-0.2-3.9-0.6-6.4c-0.4-2.4-1.5-4-3.1-4.7c-0.4,0-1.3-0.1-2.5-0.4
			c-1.3-0.3-1.9-1-1.9-2.3c0-1.1,0.7-2.2,2-3.2c1.3-1,2.9-2,4.8-2.7c1.9-0.8,3.9-1.4,6-1.9c2.2-0.5,4-0.7,5.5-0.7
			c1.9,0,3.9,0.4,5.7,1.3C403.6,2.1,405.1,3.5,406.2,5.4z M253.3,63.8c-0.8-1.4-1.3-3.2-1.3-5.4c0-4.9,2.5-11.4,7.5-19.7
			c-5.8,8-8.8,14.3-8.8,19C250.8,60.1,251.7,62.2,253.3,63.8z M311.3,64.5c5.3-14.4,7.9-27.6,7.9-39.8c0-3.5-0.2-7-0.6-10.7
			c0.1,1.1,0.2,2.2,0.2,3.3c0,1.1,0,2.2,0,3.3C318.8,32.6,316.3,47.2,311.3,64.5z M385.3,81.6c13.9-24.3,21.2-45,21.9-62.2
			c-1.9,11.2-4.9,21.7-8.9,31.7C394.4,61.1,390,71.3,385.3,81.6z M387.6,68.4c0-0.1,0.3-0.7,0.8-1.7c3.2-6.7,5.7-13,7.4-19
			c1.7-6,3.2-12.4,4.3-19.3c-0.3,0.3-0.5,0.8-0.6,1.7c-0.6,2.8-1.1,5.4-1.8,7.8c-0.6,2.4-1.4,5-2.2,7.7c-0.8,2.7-1.8,5.7-2.9,8.8
			c-1.1,3.1-2.4,6.8-4,11C388,67.6,387.6,68.6,387.6,68.4z"/>
		<path d="M449.7,79.3c3.3-2.8,5.6-4.2,6.7-4.2c0.4,0,0.6,0.3,0.6,0.8c0,1.3-0.8,3.3-2.3,6.1l-2.5,4.4c-2.2,4-4.6,8.2-7,12.3
			c-2.4,4.2-5.1,8-8,11.4c-2.9,3.4-6.1,6.2-9.6,8.4c-3.5,2.2-7.4,3.2-11.7,3.2c-3.3,0-6.4-0.6-9.3-1.7c-2.9-1.1-5.3-2.6-7.4-4.4
			c-2.1-1.8-3.7-3.9-4.9-6.2c-1.2-2.3-1.8-4.7-1.8-7.2c0-5,1.1-10.6,3.3-16.8c2.2-6.2,5.1-12,8.8-17.5c3.6-5.4,7.7-10,12.2-13.7
			c4.5-3.7,9-5.5,13.4-5.5c3.9,0,7.3,1.3,10.1,4c2.7,2.7,4.1,5.7,4.1,9.2c0,3.5-1,7.2-3,11c-2,3.8-4.6,7.4-7.7,10.6
			c-3.1,3.2-6.4,5.9-10.1,8c-3.6,2.1-7,3.1-10.1,3.1c-1.3,0-2.4-0.2-3.4-0.6c-0.3,1-0.5,2-0.6,2.9c-0.1,1-0.2,2-0.2,2.9
			c0,2.8,0.7,5.2,2.1,7.2c1.4,2,4,3,7.7,3c3.3,0,6.5-1.4,9.6-4.1c3.1-2.7,5.9-5.9,8.5-9.4c2.6-3.6,5-7,7.1-10.4
			C446.6,82.9,448.4,80.6,449.7,79.3z M403.6,76.2c0.6-1,1.5-2.4,2.9-4.3c1.4-1.9,2.8-3.8,4.2-5.7c1.4-1.9,2.6-3.6,3.6-5
			c1-1.5,1.6-2.3,1.6-2.6c-5.1,4.6-8.9,9.2-11.4,13.7c-2.4,4.5-3.6,7.7-3.6,9.5c0.3,0,0.6-0.8,1-2.3C402.3,78,402.9,76.9,403.6,76.2z
			 M409.5,75.5c0.1,0,0.9-0.8,2.2-2.4c1.3-1.6,2.7-3.4,4.2-5.4c1.5-2,3.4-4.8,5.7-8.3c-0.1,0-0.8,0.6-2.1,1.9
			c-1.3,1.3-2.6,2.8-4.1,4.5c-1.5,1.7-2.8,3.5-4.1,5.3C410.1,73,409.5,74.4,409.5,75.5z M431.2,63c-0.4-0.4-0.8-0.6-1.3-0.6
			c-1.4,0-3.1,1.2-5.1,3.7c-2,2.4-4,5.2-5.8,8.4c-1.9,3.1-3.5,6.1-4.9,9c-1.4,2.9-2.2,4.7-2.3,5.5c0.3,0.1,0.8,0.2,1.5,0.2
			c2.5,0,4.9-1,7.1-3c2.2-2,4.2-4.4,5.8-7c1.7-2.6,3-5.3,4-8.1c1-2.7,1.5-4.8,1.5-6.4C431.6,64.1,431.5,63.5,431.2,63z M419.6,88.9
			c6.6-3.2,11-9.6,13-19C430,78,425.7,84.3,419.6,88.9z"/>
		<path d="M499.8,63.4c0.1,0.7,0.2,1.4,0.2,2.1c0,0.7,0,1.4,0,2.1c0,5-0.8,10.3-2.4,15.7c-1.6,5.4-3.6,10.6-5.9,15.4
			c-2.4,4.8-4.9,9-7.6,12.6c-2.7,3.6-5.1,6-7.2,7.2c-2.1,1.1-4.3,1.7-6.7,1.7c-2.5,0-4.8-0.6-7-1.8c-2.2-1.2-4.1-2.8-5.7-4.7
			c0,1.5,0.2,3.1,0.5,4.6c0.3,1.5,0.5,2.7,0.5,3.6c0,1.7-0.6,2.5-1.9,2.5c-1.4,0-2.7-1-4-3.1c-2.8-1-4.7-3.1-5.8-6.3
			c-1.1-3.2-1.7-7.1-1.7-11.7c0-5.7,0.6-12,1.9-18.7c1.3-6.8,2.9-13.6,4.9-20.5c2-6.9,4.2-13.6,6.7-20.1c2.4-6.5,4.8-12.2,7.1-17.3
			c2.3-5,4.4-9,6.3-12c1.9-3,3.3-4.5,4.3-4.5c1,0,1.9,0.5,2.9,1.4c1,0.9,1.8,2.1,2.6,3.5c0.8,1.4,1.4,2.9,1.9,4.5
			c0.5,1.6,0.7,3.1,0.7,4.5c0,0.8-0.1,1.7-0.4,2.5l-14,34.5c2.8-2.9,5.7-5.5,8.8-7.6c3.1-2.2,6.1-3.2,9.2-3.2c1.7,0,3.2,0.5,4.7,1.6
			c1.5,1,2.7,2.3,3.8,3.8c1,1.5,1.8,2.9,2.4,4.4C499.3,61.2,499.7,62.4,499.8,63.4z M451.4,75.3c2.2-6.1,4.6-13,7.1-20.5
			c2.5-7.5,5.2-15.8,8.1-24.7c-3.9,8.9-7.1,17.2-9.6,24.7S452.7,69.2,451.4,75.3z M465,108.6c0.8,0,1.9-1,3.3-2.9
			c1.4-2,2.9-4.5,4.5-7.5c1.6-3.1,3.2-6.5,4.8-10.1c1.6-3.7,3.1-7.3,4.4-10.9c1.3-3.6,2.4-6.8,3.2-9.7c0.8-2.9,1.3-5.1,1.3-6.5
			c0-0.8-0.2-1.4-0.6-1.7c-0.3,0-1.1,0.6-2.5,1.7c-1.4,1.1-3.1,2.7-5.1,4.6c-2,2-4.2,4.3-6.5,6.9c-2.3,2.7-4.4,5.4-6.4,8.4
			c-1.9,2.9-3.5,5.9-4.8,8.9c-1.3,3-1.9,5.8-1.9,8.5c0,2.1,0.5,4,1.5,5.9C461.1,105.8,462.7,107.4,465,108.6z M476.2,61.9
			c-1.5,1-3.1,2.2-4.8,3.8c-1.7,1.5-3.2,3.1-4.5,4.7c-1.3,1.6-2.4,3.1-3.3,4.6c-0.9,1.5-1.4,2.5-1.4,3.2c1.3-2,3.1-4.5,5.6-7.5
			C470.4,67.7,473.2,64.7,476.2,61.9z M492.3,85.2c3.2-6.4,4.8-12.1,4.8-17.2c0-2.9-0.5-5.6-1.5-8c0.1,0.8,0.2,1.7,0.2,2.6
			c0,0.9,0,1.8,0,2.6C495.8,72,494.6,78.6,492.3,85.2z"/>
	</g>
</svg>
