<?xml version="1.0" encoding="UTF-8"?>
<svg style="display:none" version="1.1" xmlns="http://www.w3.org/2000/svg">

	<!-- Illustrations -->
	<symbol id="postit" viewBox="0 0 20 20">
		<title>Post It</title>
		<path d="M19.103 0.896c-0.562-0.562-1.309-0.871-2.103-0.871s-1.542 0.309-2.103 0.871l-9.75 9.75c-0.052 0.052-0.091 0.114-0.116 0.183l-2 5.5c-0.066 0.183-0.021 0.387 0.116 0.524 0.095 0.096 0.223 0.147 0.354 0.147 0.057 0 0.115-0.010 0.171-0.030l5.5-2c0.069-0.025 0.131-0.065 0.183-0.116l9.75-9.75c0.562-0.562 0.871-1.309 0.871-2.104s-0.309-1.542-0.871-2.104zM8.725 14.068l-4.389 1.596 1.596-4.389 8.068-8.068 2.793 2.793-8.068 8.068zM18.397 4.396l-0.897 0.896-2.793-2.793 0.897-0.896c0.373-0.373 0.869-0.578 1.396-0.578s1.023 0.205 1.397 0.578c0.373 0.373 0.578 0.869 0.578 1.396s-0.205 1.023-0.578 1.396z"></path>
		<path d="M17.5 20h-16c-0.827 0-1.5-0.673-1.5-1.5v-16c0-0.827 0.673-1.5 1.5-1.5h10c0.276 0 0.5 0.224 0.5 0.5s-0.224 0.5-0.5 0.5h-10c-0.276 0-0.5 0.224-0.5 0.5v16c0 0.276 0.224 0.5 0.5 0.5h16c0.276 0 0.5-0.224 0.5-0.5v-10c0-0.276 0.224-0.5 0.5-0.5s0.5 0.224 0.5 0.5v10c0 0.827-0.673 1.5-1.5 1.5z"></path>
	</symbol>
	<symbol id="flip-flops" viewBox="0 0 20 20">
		<title>Tongs</title>
		<path d="M19.704 8.76c0.157-0.906 0.296-1.933 0.296-3.26 0-2.194-1.133-3.502-2.083-4.213-1.077-0.806-2.542-1.287-3.917-1.287-0.785 0-1.853 0.313-2.481 1.806-0.344 0.818-0.519 1.893-0.519 3.194 0 1.092 0.184 2.005 0.37 2.783-0.226 0.55-0.37 1.131-0.37 1.717 0 1.286 0.472 2.325 0.98 3.070-0.011 0.319-0.024 0.637-0.037 0.946-0.096 2.232-0.187 4.341 0.949 5.527 0.597 0.623 1.45 0.926 2.608 0.926 0.812 0 1.495-0.199 2.030-0.592 0.467-0.343 0.824-0.836 1.062-1.466 0.407-1.078 0.407-2.372 0.407-3.412 0-0.594 0.022-1.157 0.068-1.714 0.462-0.597 0.932-1.517 0.932-2.786 0-0.394-0.099-0.808-0.296-1.24zM14 1c1.933 0 5 1.222 5 4.5 0 0.749-0.047 1.399-0.117 1.985-0.409-0.499-0.928-1.017-1.559-1.553-0.952-0.809-1.893-1.435-2.324-1.709v-0.722c0-0.276-0.224-0.5-0.5-0.5s-0.5 0.224-0.5 0.5v0.773c-0.362 0.325-1.191 1.119-1.886 2.147-0.068-0.437-0.114-0.91-0.114-1.42 0-1.494 0.26-4 2-4zM15.5 18.97c-0.871 0-1.488-0.202-1.886-0.618-0.824-0.861-0.762-2.705-0.677-4.675 0.147 0.134 0.246 0.209 0.264 0.223 0.22 0.165 0.533 0.121 0.699-0.099s0.122-0.533-0.098-0.7c-0.018-0.014-1.801-1.392-1.801-3.601 0-1.818 1.849-3.719 2.553-4.376 0.44 0.284 1.284 0.856 2.123 1.569 1.499 1.274 2.324 2.448 2.324 3.307 0 0.897-0.285 1.679-0.848 2.326-0.431 0.496-0.873 0.725-0.876 0.727-0.247 0.123-0.347 0.424-0.224 0.671 0.088 0.175 0.264 0.277 0.448 0.277 0.075-0 0.151-0.017 0.223-0.053 0.010-0.005 0.121-0.061 0.288-0.173-0.007 0.238-0.011 0.479-0.011 0.726 0 2.446-0.188 4.47-2.5 4.47z"/>
		<path d="M8.63 7.753c0.186-0.777 0.37-1.69 0.37-2.783 0-1.301-0.175-2.376-0.519-3.194-0.628-1.493-1.696-1.806-2.481-1.806-1.376 0-2.84 0.481-3.917 1.287-0.95 0.711-2.083 2.019-2.083 4.213 0 1.327 0.139 2.353 0.296 3.259-0.197 0.432-0.296 0.846-0.296 1.241 0 1.269 0.47 2.188 0.932 2.786 0.045 0.558 0.068 1.12 0.068 1.714 0 1.040 0 2.334 0.407 3.412 0.238 0.63 0.596 1.123 1.062 1.466 0.535 0.393 1.218 0.592 2.030 0.592 1.158 0 2.011-0.303 2.608-0.926 1.136-1.186 1.045-3.295 0.949-5.527-0.013-0.309-0.027-0.628-0.037-0.946 0.507-0.745 0.98-1.784 0.98-3.070 0-0.587-0.144-1.167-0.37-1.717zM6.1 13.77c0.166 0.221 0.479 0.266 0.7 0.1 0.018-0.013 0.117-0.089 0.264-0.223 0.084 1.969 0.147 3.814-0.677 4.675-0.398 0.416-1.015 0.618-1.886 0.618-2.312 0-2.5-2.024-2.5-4.47 0-0.247-0.004-0.488-0.011-0.726 0.167 0.112 0.277 0.168 0.288 0.173 0.072 0.036 0.148 0.053 0.223 0.053 0.183-0 0.36-0.101 0.448-0.277 0.123-0.247 0.023-0.547-0.224-0.671-0.017-0.009-1.724-0.887-1.724-3.053 0-0.857 0.822-2.028 2.314-3.298 0.84-0.715 1.691-1.292 2.133-1.577 0.704 0.658 2.553 2.558 2.553 4.376 0 2.209-1.783 3.587-1.801 3.601-0.22 0.166-0.264 0.479-0.099 0.699zM7.886 6.39c-0.695-1.028-1.524-1.822-1.886-2.147v-0.773c0-0.276-0.224-0.5-0.5-0.5s-0.5 0.224-0.5 0.5v0.722c-0.431 0.274-1.372 0.9-2.324 1.709-0.631 0.536-1.15 1.054-1.559 1.553-0.070-0.586-0.117-1.236-0.117-1.985 0-3.278 3.067-4.5 5-4.5 1.74 0 2 2.506 2 4 0 0.511-0.046 0.983-0.114 1.42z"/>
	</symbol>
	<symbol id="bubble" viewBox="0 0 20 20">
		<title>Discussions</title>
		<path d="M0.5 19c-0.225 0-0.422-0.15-0.482-0.367s0.032-0.447 0.225-0.562c1.691-1.014 2.392-2.489 2.641-3.179-1.838-1.407-2.884-3.354-2.884-5.392 0-1.029 0.258-2.026 0.768-2.964 0.486-0.894 1.18-1.695 2.061-2.381 1.787-1.39 4.156-2.156 6.671-2.156s4.884 0.766 6.671 2.156c0.881 0.685 1.575 1.486 2.061 2.381 0.51 0.937 0.768 1.934 0.768 2.964s-0.258 2.026-0.768 2.964c-0.486 0.894-1.18 1.695-2.061 2.381-1.787 1.39-4.156 2.156-6.671 2.156-1.033 0-2.047-0.129-3.016-0.385-0.429 0.286-1.231 0.793-2.189 1.27-1.488 0.74-2.764 1.115-3.794 1.115zM9.5 3c-4.687 0-8.5 2.916-8.5 6.5 0 1.815 1.005 3.562 2.756 4.792 0.172 0.121 0.25 0.336 0.196 0.539-0.117 0.436-0.515 1.633-1.58 2.788 1.302-0.456 2.704-1.247 3.739-1.959 0.123-0.085 0.277-0.11 0.421-0.069 0.948 0.271 1.947 0.409 2.968 0.409 4.687 0 8.5-2.916 8.5-6.5s-3.813-6.5-8.5-6.5z"/>
		<path d="M9.5 14c-2.481 0-4.5-2.019-4.5-4.5s2.019-4.5 4.5-4.5c2.481 0 4.5 2.019 4.5 4.5s-2.019 4.5-4.5 4.5zM9.5 6c-1.93 0-3.5 1.57-3.5 3.5s1.57 3.5 3.5 3.5 3.5-1.57 3.5-3.5-1.57-3.5-3.5-3.5z"/>
		<path d="M8.5 8c-0.132 0-0.261-0.053-0.353-0.147s-0.147-0.222-0.147-0.353 0.053-0.26 0.147-0.353 0.222-0.147 0.353-0.147 0.26 0.053 0.353 0.147c0.093 0.093 0.147 0.222 0.147 0.353s-0.053 0.261-0.147 0.353c-0.093 0.093-0.222 0.147-0.353 0.147z"/>
		<path d="M10.5 8c-0.132 0-0.261-0.053-0.353-0.147s-0.147-0.222-0.147-0.353 0.053-0.261 0.147-0.353c0.093-0.093 0.222-0.147 0.353-0.147s0.26 0.053 0.353 0.147c0.093 0.093 0.147 0.222 0.147 0.353s-0.053 0.26-0.147 0.353c-0.093 0.093-0.222 0.147-0.353 0.147z"/>
		<path d="M9.5 12c-1.005 0-1.786-0.453-2.197-1.276-0.294-0.589-0.303-1.16-0.303-1.224 0-0.276 0.224-0.5 0.5-0.5h4c0.276 0 0.5 0.224 0.5 0.5 0 0.063-0.008 0.635-0.303 1.224-0.412 0.823-1.192 1.276-2.197 1.276zM8.088 10c0.030 0.097 0.069 0.2 0.123 0.302 0.246 0.47 0.668 0.698 1.29 0.698s1.044-0.228 1.29-0.698c0.053-0.102 0.093-0.205 0.123-0.302h-2.825z"/>
	</symbol>

	<!-- Social icons -->
	<symbol id="facebook" viewBox="0 0 448 512">
		<title>Facebook</title>
		<path d="M448 80v352c0 26.5-21.5 48-48 48h-85.3V302.8h60.6l8.7-67.6h-69.3V192c0-19.6 5.4-32.9 33.5-32.9H384V98.7c-6.2-.8-27.4-2.7-52.2-2.7-51.6 0-87 31.5-87 89.4v49.9H184v67.6h60.9V480H48c-26.5 0-48-21.5-48-48V80c0-26.5 21.5-48 48-48h352c26.5 0 48 21.5 48 48z"/>
	</symbol>
	<symbol id="twitter" viewBox="0 0 448 512">
		<title>Twitter</title>
		<path d="M400 32H48C21.5 32 0 53.5 0 80v352c0 26.5 21.5 48 48 48h352c26.5 0 48-21.5 48-48V80c0-26.5-21.5-48-48-48zm-48.9 158.8c.2 2.8.2 5.7.2 8.5 0 86.7-66 186.6-186.6 186.6-37.2 0-71.7-10.8-100.7-29.4 5.3.6 10.4.8 15.8.8 30.7 0 58.9-10.4 81.4-28-28.8-.6-53-19.5-61.3-45.5 10.1 1.5 19.2 1.5 29.6-1.2-30-6.1-52.5-32.5-52.5-64.4v-.8c8.7 4.9 18.9 7.9 29.6 8.3a65.447 65.447 0 0 1-29.2-54.6c0-12.2 3.2-23.4 8.9-33.1 32.3 39.8 80.8 65.8 135.2 68.6-9.3-44.5 24-80.6 64-80.6 18.9 0 35.9 7.9 47.9 20.7 14.8-2.8 29-8.3 41.6-15.8-4.9 15.2-15.2 28-28.8 36.1 13.2-1.4 26-5.1 37.8-10.2-8.9 13.1-20.1 24.7-32.9 34z"/>
	</symbol>
	<symbol id="vimeo" viewBox="0 0 448 512">
		<title>Vimeo</title>
		<path d="M400 32H48C21.5 32 0 53.5 0 80v352c0 26.5 21.5 48 48 48h352c26.5 0 48-21.5 48-48V80c0-26.5-21.5-48-48-48zm-16.2 149.6c-1.4 31.1-23.2 73.8-65.3 127.9-43.5 56.5-80.3 84.8-110.4 84.8-18.7 0-34.4-17.2-47.3-51.6-25.2-92.3-35.9-146.4-56.7-146.4-2.4 0-10.8 5-25.1 15.1L64 192c36.9-32.4 72.1-68.4 94.1-70.4 24.9-2.4 40.2 14.6 46 51.1 20.5 129.6 29.6 149.2 66.8 90.5 13.4-21.2 20.6-37.2 21.5-48.3 3.4-32.8-25.6-30.6-45.2-22.2 15.7-51.5 45.8-76.5 90.1-75.1 32.9 1 48.4 22.4 46.5 64z"/>
	</symbol>
	<symbol id="flickr" viewBox="0 0 448 512">
		<title>Flickr</title>
		<path d="M400 32H48C21.5 32 0 53.5 0 80v352c0 26.5 21.5 48 48 48h352c26.5 0 48-21.5 48-48V80c0-26.5-21.5-48-48-48zM144.5 319c-35.1 0-63.5-28.4-63.5-63.5s28.4-63.5 63.5-63.5 63.5 28.4 63.5 63.5-28.4 63.5-63.5 63.5zm159 0c-35.1 0-63.5-28.4-63.5-63.5s28.4-63.5 63.5-63.5 63.5 28.4 63.5 63.5-28.4 63.5-63.5 63.5z"/>
	</symbol>
	<symbol id="slack" viewBox="0 0 448 512">
		<title>Slack</title>
		<path d="M244.2 217.5l19.3 57.7-59.8 20-19.3-57.7 59.8-20zm41.4 243.7C131.6 507.4 65 471.6 18.8 317.6S8.4 97 162.4 50.8C316.4 4.6 383 40.4 429.2 194.4c46.2 154 10.4 220.6-143.6 266.8zM366.2 265c-3.9-12.2-17.2-18.6-29.4-14.7l-29 9.7-19.3-57.7 29-9.7c12.2-3.9 18.6-17.2 14.7-29.4-3.9-12.2-17.2-18.6-29.4-14.7l-29 9.7-10-30.1c-3.9-12.2-17.2-18.6-29.4-14.7-12.2 3.9-18.6 17.2-14.7 29.4l10 30.1-59.8 20.1-10-30.1c-3.9-12.2-17.2-18.6-29.4-14.7-12.2 3.9-18.6 17.2-14.7 29.4l10 30.1-29 9.7c-12.2 3.9-18.6 17.2-14.7 29.4 3.2 9.3 12.2 15.4 21.5 15.8 4.3.6 7.7-1 36.9-10.7l19.3 57.7-29 9.7c-12.2 3.9-18.6 17.2-14.7 29.4 3.2 9.3 12.2 15.4 21.5 15.8 4.3.6 7.7-1 36.9-10.7l10 30.1c3.7 10.8 15.8 18.6 29.4 14.7 12.2-3.9 18.6-17.2 14.7-29.4l-10-30.1 59.8-20.1 10 30.1c3.7 10.8 15.8 18.6 29.4 14.7 12.2-3.9 18.6-17.2 14.7-29.4l-10-30.1 29-9.7c12.2-4.2 18.6-17.5 14.7-29.6z"/>
	</symbol>
</svg>
