<?xml version="1.0" encoding="utf-8"?>
<svg viewBox="0 0 705 705" xmlns="http://www.w3.org/2000/svg">
  <defs>
    <style>.cls-1{fill:#e22d2e}.cls-2{fill:#e73737}.cls-3{fill:#e22523}.cls-4{fill:#e21c1c}.cls-6{fill:#ea5152}.cls-7{fill:#c4171b}.cls-8{fill:#d81a1b}.cls-9{fill:#260c0e}</style>
  </defs>
  <g transform="matrix(1.488506, 0, 0, 1.488506, -53.344337, 115.472672)">
    <path class="cls-1" d="M 416.77 34.68 L 416.77 11.24 L 369.89 11.24 L 369.89 34.68 L 346.45 34.68 L 346.45 58.12 L 323 58.12 L 323 34.68 L 299.56 34.68 L 299.56 11.24 L 252.67 11.24 L 252.67 34.68 L 229.23 34.68 L 229.23 105 L 252.67 105 L 252.67 128.44 L 276.12 128.44 L 276.12 151.88 L 299.56 151.88 L 299.56 175.32 L 323 175.32 L 323 198.76 L 346.44 198.76 L 346.44 175.32 L 369.88 175.32 L 369.88 151.88 L 393.32 151.88 L 393.32 128.44 L 416.76 128.44 L 416.76 105 L 440.2 105 L 440.2 34.68 L 416.76 34.68 Z"/>
    <path class="cls-2" d="M 276.13 34.68 L 299.57 34.68 L 299.57 58.12 L 276.13 58.12 Z M 252.68 58.12 L 276.13 58.12 L 276.13 81.56 L 252.68 81.56 Z"/>
    <path class="cls-1" d="M 276.13 81.56 L 299.57 81.56 L 299.57 105 L 276.13 105 Z"/>
    <path class="cls-3" d="M 299.57 105 L 323 105 L 323 128.44 L 299.56 128.44 Z"/>
    <path class="cls-2" d="M 299.57 34.68 L 323 34.68 L 323 58.12 L 299.56 58.12 Z M 323 58.12 L 346.45 58.12 L 346.45 81.56 L 323 81.56 Z"/>
    <path class="cls-3" d="M 346.45 58.12 L 369.89 58.12 L 369.89 81.56 L 346.45 81.56 Z"/>
    <path class="cls-2" d="M 346.45 34.68 L 369.89 34.68 L 369.89 58.12 L 346.45 58.12 Z"/>
    <path class="cls-3" d="M 369.89 34.68 L 393.33 34.68 L 393.33 58.12 L 369.89 58.12 Z"/>
    <path class="cls-4" d="M 393.33 58.12 L 416.77 58.12 L 416.77 81.56 L 393.33 81.56 Z M 369.89 81.56 L 393.33 81.56 L 393.33 105 L 369.89 105 Z M 346.45 105 L 369.89 105 L 369.89 128.44 L 346.45 128.44 Z M 323 128.44 L 346.45 128.44 L 346.45 151.88 L 323 151.88 Z"/>
    <path fill="#ed6971" d="M 252.68 34.68 L 276.13 34.68 L 276.13 58.12 L 252.68 58.12 Z"/>
    <path class="cls-2" d="M 276.13 11.24 L 299.57 11.24 L 299.57 34.68 L 276.13 34.68 Z"/>
    <path class="cls-6" d="M 252.68 11.24 L 276.13 11.24 L 276.13 34.68 L 252.68 34.68 Z"/>
    <path class="cls-2" d="M 393.33 11.24 L 416.77 11.24 L 416.77 34.68 L 393.33 34.68 Z M 369.89 11.24 L 393.33 11.24 L 393.33 34.68 L 369.89 34.68 Z M 252.68 81.56 L 276.13 81.56 L 276.13 105 L 252.68 105 Z"/>
    <path class="cls-6" d="M 229.24 58.12 L 252.68 58.12 L 252.68 81.56 L 229.24 81.56 Z"/>
    <path class="cls-6" d="M 229.24 34.68 L 252.68 34.68 L 252.68 58.12 L 229.24 58.12 Z"/>
    <path class="cls-2" d="M 229.24 81.56 L 252.68 81.56 L 252.68 105 L 229.24 105 Z"/>
    <path class="cls-1" d="M 252.68 105 L 276.13 105 L 276.13 128.44 L 252.68 128.44 Z"/>
    <path class="cls-3" d="M 276.13 128.44 L 299.57 128.44 L 299.57 151.88 L 276.13 151.88 Z M 299.57 151.88 L 323 151.88 L 323 175.32 L 299.56 175.32 Z"/>
    <path class="cls-7" d="M 323 175.32 L 346.45 175.32 L 346.45 198.76 L 323 198.76 Z M 346.45 151.88 L 369.89 151.88 L 369.89 175.32 L 346.45 175.32 Z"/>
    <path class="cls-8" d="M 369.89 128.44 L 393.33 128.44 L 393.33 151.88 L 369.89 151.88 Z M 393.33 105 L 416.77 105 L 416.77 128.44 L 393.33 128.44 Z M 416.77 81.56 L 440.21 81.56 L 440.21 105 L 416.77 105 Z M 416.77 58.12 L 440.21 58.12 L 440.21 81.56 L 416.77 81.56 Z"/>
    <path class="cls-4" d="M 416.77 34.68 L 440.21 34.68 L 440.21 58.12 L 416.77 58.12 Z M 393.33 34.68 L 416.77 34.68 L 416.77 58.12 L 393.33 58.12 Z"/>
    <path class="cls-8" d="M 393.33 81.56 L 416.77 81.56 L 416.77 105 L 393.33 105 Z"/>
    <path class="cls-1" d="M 276.13 105 L 299.57 105 L 299.57 128.44 L 276.13 128.44 Z"/>
    <path class="cls-3" d="M 299.57 128.44 L 323 128.44 L 323 151.88 L 299.56 151.88 Z"/>
    <path class="cls-8" d="M 346.45 128.44 L 369.89 128.44 L 369.89 151.88 L 346.45 151.88 Z M 369.89 105 L 393.33 105 L 393.33 128.44 L 369.89 128.44 Z"/>
    <path class="cls-4" d="M 323 151.88 L 346.45 151.88 L 346.45 175.32 L 323 175.32 Z"/>
    <path class="cls-3" d="M 323 105 L 346.45 105 L 346.45 128.44 L 323 128.44 Z"/>
    <path class="cls-4" d="M 369.89 58.12 L 393.33 58.12 L 393.33 81.56 L 369.89 81.56 Z M 346.45 81.56 L 369.89 81.56 L 369.89 105 L 346.45 105 Z"/>
    <path class="cls-3" d="M 323 81.56 L 346.45 81.56 L 346.45 105 L 323 105 Z"/>
    <path class="cls-1" d="M 299.57 81.56 L 323 81.56 L 323 105 L 299.56 105 Z M 299.57 58.12 L 323 58.12 L 323 81.56 L 299.56 81.56 Z"/>
    <path class="cls-1" d="M 276.13 58.12 L 299.57 58.12 L 299.57 81.56 L 276.13 81.56 Z"/>
  </g>
  <g transform="matrix(1.420592, 0, 0, 1.420592, 52.922501, 255.499603)">
    <path d="M61.64 96.55L48.48 61.1H38.46L25.32 96.55 15.14 59.32H5l13.42 48.59h12.1l12.95-34.35 12.95 34.35h12.1l13.43-48.59H71.8L61.64 96.55zM167.82 80.34c0-10.82-8.08-22.33-23.05-22.33-12.21 0-24.59 8.82-24.59 25.67 0 14.82 10.66 25.18 25.9 25.18 7.36 0 14.47-2.62 20.07-7.39l.7-.6-4.33-6.58-.9.68c-5 3.78-10.08 5.61-15.54 5.61-7.27 0-12.94-3.81-15.37-10.25l37.11-6.72zm-9.53-3.68l-28.72 5.39c.53-9.14 6.86-15.64 15.45-15.64 7.57 0 12.02 5 13.27 10.25z" class="cls-9"/>
  </g>
  <g transform="matrix(1.44416, 0, 0, 1.44416, -656.652161, 364.838379)">
    <path class="cls-9" d="M524.12 78.15c-5.74-1.8-10.69-3.36-10.69-6.72 0-2.82 4.32-5.1 9.63-5.1 4.96-.07 9.79 1.57 13.7 4.64l.88.7 4.33-6.56-.69-.6c-4.57-4.04-11.55-6.55-18.22-6.55-11.07 0-19.41 5.85-19.41 13.6 0 9.54 9.1 12.3 17.14 14.74 6.38 1.93 11.89 3.6 11.89 8.02 0 3.46-4.3 6.07-9.98 6.07a24.5 24.5 0 0 1-14.43-4.64l-.88-.7-4.3 6.36.63.6c4.08 3.95 11.88 6.7 18.97 6.7 11.58 0 19.65-5.93 19.65-14.43 0-10.44-10.1-13.6-18.22-16.13zM607.42 57.92a25.66 25.66 0 0 0-14.59 4.76l-1.42-3.45h-6.5v71.05h9.67v-25.43a24.18 24.18 0 0 0 12.82 3.62c14.24 0 24.98-10.89 24.98-25.33 0-7.53-2.6-13.96-7.5-18.57-4.52-4.29-10.73-6.65-17.46-6.65zM622.5 83c0 10.06-6.63 17.09-16.14 17.09a17.7 17.7 0 0 1-11.75-4.42v-25.5c3.9-2.65 7.64-3.88 11.75-3.88 9.36 0 16.14 7.03 16.14 16.73zM696.88 57.92c-12.18 0-24.5 8.79-24.5 25.57 0 14.78 10.61 25.1 25.81 25.1 7.33 0 14.42-2.6 20-7.36l.7-.6-4.33-6.55-.88.67c-4.99 3.77-10.05 5.57-15.49 5.57-7.25 0-12.9-3.8-15.33-10.21l37-6.7v-3.25c-.01-10.77-8.06-22.24-22.98-22.24zm13.47 18.58l-28.62 5.36c.54-9.1 6.84-15.58 15.4-15.58 7.55 0 11.97 4.99 13.22 10.22zM784.45 57.92c-12.17 0-24.5 8.79-24.5 25.57 0 14.78 10.6 25.1 25.8 25.1 7.33 0 14.4-2.6 19.98-7.36l.7-.6-4.27-6.55-.93.67c-4.98 3.77-10.05 5.57-15.49 5.57-7.25 0-12.9-3.8-15.32-10.21l37-6.7v-3.25c0-10.77-8.05-22.24-22.97-22.24zm13.47 18.58l-28.62 5.36c.53-9.1 6.84-15.58 15.39-15.58 7.56 0 11.99 4.99 13.23 10.22zM885.2 35.03v26.36a23.88 23.88 0 0 0-12.82-3.47c-12.36 0-24.86 8.75-24.86 25.46 0 12.54 8.54 25.21 24.86 25.21a24.65 24.65 0 0 0 14.59-4.82l1.53 3.88h6.5V32.77zm0 35.45V96.1c-4.15 2.85-7.76 4.13-11.64 4.13-9.42 0-16.25-7.04-16.25-16.72 0-9.97 6.84-17.18 16.25-17.18a17.7 17.7 0 0 1 11.64 4.15z"/>
  </g>
</svg>