<svg fill="none" height="85" viewBox="0 0 520 85" width="520" xmlns="http://www.w3.org/2000/svg" xmlns:xlink="http://www.w3.org/1999/xlink"><linearGradient id="a"><stop offset=".16" stop-color="#a1e924"/><stop offset="1" stop-color="#00c34e"/></linearGradient><linearGradient id="b" gradientUnits="userSpaceOnUse" x1="-12.0431" x2="69.5409" xlink:href="#a" y1="22.3778" y2="107.496"/><linearGradient id="c" gradientUnits="userSpaceOnUse" x1="8.51059" x2="90.0946" xlink:href="#a" y1="2.67737" y2="87.796"/><linearGradient id="d" gradientUnits="userSpaceOnUse" x1="66.9518" x2="129.083" y1="65.998" y2="5.90573"><stop offset="0" stop-color="#00c34e"/><stop offset=".84" stop-color="#a1e924"/></linearGradient><linearGradient id="e" gradientUnits="userSpaceOnUse" x1="70.5169" x2="135.996" y1="90.9767" y2="-7.68566"><stop offset="0"/><stop offset=".607524" stop-color="#fff"/></linearGradient><g fill="#21335e"><path d="m213.735 32.9389c-5.119 0-9.629 3.1392-11.49 7.9939l-9.844 25.6242-4.009-10.987 8.841-22.5216h-4.474c-5.262 0-9.951 3.3947-11.67 8.4684l-1.002 2.9567-.966-2.8837c-1.718-5.1102-6.408-8.5049-11.67-8.5049h-4.438l8.949 22.5216-4.081 11.0235-9.88-25.6607c-1.861-4.8547-6.371-7.9939-11.49-7.9939h-6.443l21.012 51.4674h12.099l6.944-18.2508 7.016 18.2508h12.099l21.083-51.4674h-6.586z"/><path d="m270.435 61.6656h-34.472c.179 3.8327 1.11 6.5703 2.864 8.2129 1.718 1.6791 3.902 2.4821 6.586 2.4821 2.256 0 4.117-.584 5.62-1.7156 1.468-1.1315 2.47-2.6281 2.936-4.4532h16.108c-.645 3.5772-2.077 6.7528-4.26 9.6-2.184 2.8106-4.976 5.0372-8.376 6.6433-3.401 1.6061-7.159 2.4091-11.312 2.4091-4.868 0-9.199-1.0585-12.958-3.1391-3.758-2.0806-6.729-5.1103-8.877-9.0525-2.148-3.9421-3.221-8.5414-3.221-13.7976 0-5.3293 1.038-9.9285 3.15-13.8341 2.112-3.9057 5.047-6.8989 8.877-8.9795 3.794-2.0806 8.125-3.1391 12.994-3.1391 4.939 0 9.271 1.022 12.993 3.1026 3.759 2.0441 6.623 4.9643 8.699 8.6874 2.04 3.7232 3.078 7.9939 3.078 12.8486 0 1.2046-.143 2.5917-.429 4.1247zm-17.612-14.0531c-1.825-1.6791-4.045-2.4821-6.729-2.4821-2.792 0-5.119.8395-6.945 2.5551-1.825 1.6791-2.863 4.1612-3.114 7.4463h19.401c.072-3.3581-.787-5.8402-2.613-7.5193z"/><path d="m320.798 36.0053c3.222 2.0806 5.799 5.0737 7.661 8.9794 1.861 3.9057 2.792 8.5414 2.792 13.8341 0 5.2563-.931 9.8555-2.792 13.7977-1.862 3.9421-4.439 6.9353-7.661 9.0524-3.221 2.0806-6.908 3.1391-10.989 3.1391-3.794 0-7.051-.876-9.808-2.6281-2.72-1.7521-4.725-4.1612-5.978-7.1908v9.1619h-15.248v-67.1996h4.51c5.942 0 10.738 4.8912 10.738 10.9505v14.7467c1.253-3.0297 3.222-5.4023 5.978-7.1909 2.721-1.7521 6.014-2.6281 9.808-2.6281 4.081.0365 7.732 1.0586 10.989 3.1757zm-23.768 13.7976c-2.04 2.2266-3.078 5.2197-3.078 9.0524 0 3.7597 1.038 6.7528 3.078 8.9794 2.041 2.2266 4.689 3.3582 7.875 3.3582 3.258 0 5.907-1.0951 7.875-3.2852 2.005-2.1901 2.971-5.2197 2.971-9.0889s-1.002-6.8988-2.971-9.0889c-2.004-2.1901-4.617-3.2852-7.875-3.2852-3.221.0365-5.834 1.1316-7.875 3.3582z"/><path d="m361.105 69.0026 8.447-27.8143c1.396-4.5993 5.549-7.7019 10.274-7.7019h8.304l-17.647 50.6644h-18.9l-17.647-50.6644h8.34c4.689 0 8.842 3.1026 10.238 7.6654z"/><path d="m440.105 61.6656h-34.471c.179 3.8327 1.11 6.5703 2.864 8.2129 1.718 1.6791 3.901 2.4821 6.586 2.4821 2.255 0 4.116-.584 5.62-1.7156 1.468-1.1315 2.47-2.6281 2.935-4.4532h16.108c-.644 3.5772-2.076 6.7528-4.26 9.6-2.183 2.8106-4.975 5.0372-8.376 6.6433-3.4 1.6061-7.159 2.4091-11.311 2.4091-4.868 0-9.2-1.0585-12.958-3.1391-3.759-2.0806-6.73-5.1103-8.877-9.0525-2.148-3.9421-3.222-8.5414-3.222-13.7976 0-5.3293 1.038-9.9285 3.15-13.8341 2.112-3.9057 5.047-6.8989 8.877-8.9795 3.795-2.0806 8.126-3.1391 12.994-3.1391 4.94 0 9.271 1.022 12.994 3.1026 3.758 2.0441 6.622 4.9643 8.698 8.6874 2.04 3.7232 3.079 7.9939 3.079 12.8486 0 1.2046-.144 2.5917-.43 4.1247zm-17.611-14.0531c-1.826-1.6791-4.045-2.4821-6.73-2.4821-2.792 0-5.119.8395-6.944 2.5551-1.826 1.6791-2.864 4.1612-3.114 7.4463h19.401c.071-3.3581-.788-5.8402-2.613-7.5193z"/><path d="m471.032 35.6766c3.007-1.8251 6.265-2.7377 9.737-2.7377v16.6083h-4.331c-4.045 0-7.16.8761-9.415 2.6281-2.219 1.7521-3.329 4.7088-3.329 8.9065v23.069h-15.248v-50.6643h5.87c5.155 0 9.343 4.2707 9.343 9.5269 1.933-3.0661 4.402-5.5117 7.373-7.3368z"/><path d="m520 70.8275v13.3596h-6.873c-5.834 0-10.344-1.46-13.566-4.4167-3.222-2.9201-4.868-7.8113-4.868-14.5641v-18.6159h-6.694v-13.1041h6.694v-12.4471h4.474c5.942 0 10.739 4.8912 10.739 10.9505v1.4966h9.987v13.0676h-9.987v18.9079c0 2.0076.394 3.3946 1.217 4.1612.787.803 2.148 1.168 4.045 1.168h4.832z"/></g><path d="m50.9011 77.6537c-1.0022.9125-1.9687 1.6791-2.8994 2.3726-.7875.5475-1.396 1.022-2.0761 1.4236-6.4074 4.0151-11.1324 3.5406-12.0989 3.3946-4.9756-.1095-9.4142-2.3726-12.5284-5.9498-.5727-.657-1.1097-1.387-1.6108-2.1536-.358-.511-.6801-1.022-.9665-1.4965-1.038-1.7521-1.5034-3.0297-1.5034-3.0297l-1.6108-3.5771-.0716-.1825-14.17497-31.3915-.07159-.146-1.28864-2.7011h10.4523.8233c1.1096 0 2.1835.1825 3.2216.511.8233.2555 1.6108.584 2.3625.949 3.7227 1.5331 6.7653 4.3802 8.6625 7.9574.2505.511.5011 1.0221.7159 1.5331l9.5216 20.8424 1.1812 2.5917c2.3625 4.2707 6.4074 7.4463 11.2398 8.5779l.7875.146 1.8613.2555h.1074l-.0358.0365z" fill="url(#b)"/><path d="m74.2398 71.6307c-.5727-.657-1.1097-1.3871-1.6108-2.1536-.2148-.292-.3938-.584-.5727-.876l-1.1813-2.5552-17.3966-37.3047c-.2148-.511-.4653-1.0586-.7159-1.5331-1.8614-3.5771-4.9398-6.4243-8.6625-7.9574-.7517-.4015-1.5392-.73-2.3625-.949-1.0381-.3285-2.1119-.511-3.2216-.511h-.8233-10.488l1.2528 2.7376.0716.146 22.05 47.8172.0716.1826 1.6108 3.5771s.4653 1.2776 1.5034 3.0297c.2863.4745.6085.9855.9665 1.4965.4653.7666 1.0022 1.4966 1.6108 2.1536 3.0784 3.5407 7.5528 5.8038 12.5284 5.9498.2863.0365.9664.1095 1.8971.1095.9307.0365 1.6108-.0365 1.8972-.1095 4.9755-.1095 9.4142-2.3726 12.5284-5.9498.3937-.438.7517-.9125 1.0739-1.387-4.7966-.2555-9.0563-2.5186-12.0273-5.9133z" fill="url(#c)"/><path d="m115.405 1h-4.439-.823c-1.11 0-2.184.18251-3.222.51102-.823.25552-1.611.58403-2.362.94905-3.723 1.53307-6.7658 4.3802-8.663 7.95733-.2505.5111-.5011 1.0221-.7159 1.5331l-16.788 36.4287c-.1074.4745-.2148.9491-.2864 1.4236-.1432.876-.2148 1.7156-.2148 2.5916-.0716 3.8692 1.1097 7.7749 3.5796 11.0235.1432.2555.5011.8396 1.1096 1.5696.5728.7665 1.0381 1.241 1.2529 1.4236.3221.365.6443.73 1.0022 1.095 1.3961 1.3871 2.9711 2.5186 4.6534 3.3582l1.0023-2.2266.0716-.1826 4.4744-9.8189 25.1281-54.75257.072-.146 1.253-2.73763z" fill="url(#d)"/><path d="m115.193 1h-4.439-.823c-1.11 0-2.184.18251-3.222.51102-.823.25552-1.611.58403-2.362.94905-3.723 1.53307-6.7656 4.3802-8.6628 7.95733-.2506.5111-.5011 1.0221-.7159 1.5331l-16.7881 36.4287c-.1074.4745-.2147.9491-.2863 1.4236-.1432.876-.2148 1.7156-.2148 2.5916-.0716 3.8692 1.1097 7.7749 3.5795 11.0235.1432.2555.5012.8396 1.1097 1.5696.5727.7665 1.0381 1.241 1.2528 1.4236.3222.365.6444.73 1.0023 1.095 1.396 1.3871 2.971 2.5186 4.6534 3.3582l1.0023-2.2266.0716-.1826 4.4744-9.8189 25.1289-54.75257.071-.146 1.253-2.73763z" fill="url(#e)" opacity=".2"/></svg>