<svg xmlns="http://www.w3.org/2000/svg" width="841.89" height="305.98"><path fill="#363736" d="M645.62 168.86a11.32 11.32 0 0 1 0-22.63 11.32 11.32 0 0 1 0 22.63zm0-19.37a8.06 8.06 0 1 0 0 16.1 8.06 8.06 0 0 0 0-16.1zM716.4 186.74a10.58 10.58 0 0 1 0-21.14 10.58 10.58 0 0 1 0 21.14zm0-17.88a7.32 7.32 0 0 0 0 14.63 7.32 7.32 0 0 0 0-14.63zM743.98 218.79a11.32 11.32 0 1 1 11.32-11.32c0 6.24-5.08 11.32-11.32 11.32zm0-19.38a8.06 8.06 0 1 0 .01 16.13 8.06 8.06 0 0 0-.01-16.13zM746.96 143.53a8.34 8.34 0 1 1 .02-16.68 8.34 8.34 0 0 1-.02 16.68zm0-13.41a5.08 5.08 0 1 0 .01 10.17 5.08 5.08 0 0 0-.01-10.17zM801.35 149.49a12.08 12.08 0 0 1-12.06-12.06c0-6.65 5.42-12.06 12.06-12.06 6.65 0 12.07 5.4 12.07 12.06 0 6.65-5.42 12.06-12.07 12.06zm0-20.87a8.81 8.81 0 1 0 8.8 8.8c0-4.85-3.94-8.8-8.8-8.8zM774.53 98.82a6.1 6.1 0 1 1 .01-12.21 6.1 6.1 0 0 1 0 12.2zm0-8.94a2.85 2.85 0 1 0 0 5.7 2.85 2.85 0 0 0 0-5.7zM783.47 183.76a6.1 6.1 0 1 1 .01-12.2 6.1 6.1 0 0 1 0 12.2zm0-8.94a2.85 2.85 0 1 0 0 5.7 2.85 2.85 0 0 0 0-5.7z"/><path fill="#727375" d="M705.75 212.18l2.3-26.08-34.98 6.09 20.86-34.76-17.84-11.64-30.96 12.85-11.9-35.66 60.97 10.67-.07 1.6-17.89 1.5-.13-1.63 11.58-.96-52.04-9.1 10.47 31.4 30.14-12.5 18.5 12.07 6.87-11.44 10.62 24.79-16.96-11.06-19 31.65 33.57-5.84-2.17 24.6 22.02-16.23-14.64-16.61 25.42-11.6-22.75-30.7 28.74.78 22.3-40.99-59.07-7.2-3.08 41.59-17.7-24.14-17.84-20.06 1.22-1.08 17.89 20.12 15.13 20.63 2.88-38.88 63.14 7.7-23.91 43.96-26.4-.72L742 163.6l60.97-27.8-18.99 42.73-35.22-3.07-7.28-9.83-23.73 10.83 13.27 15.07 19.35-14.25-5.9 31.99-13.68-15.54-25.04 18.45zm26.35-19.42l11.38 12.92 4.54-24.65-15.92 11.73zm17.53-18.85l33.33 2.9 16.78-37.75-56.75 25.88 6.64 8.97zm-53.5-16.99l12.5 8.16-7.24-16.92-5.26 8.76z"/><path fill="#727375" d="M706.5 211.29l-27.81-19.54-33.64-33.63 1.15-1.15 33.53 33.53 27.22 19.12 36.72-2.94 39.11-29.52 17.65-49.97-30.77-33.7-60.8-7.41-43.53-2.21-30.3 31.77-1.18-1.12 30.82-32.32L709 84.46l61.46 7.49 31.82 34.86-18.12 51.36-.2.15-39.68 29.95z"/><path fill="#87CBE7" d="M726.84 137.43a14.9 14.9 0 1 1-29.8 0 14.9 14.9 0 0 1 29.8 0"/><g fill="#363736"><path d="M729.82 85.27a10.43 10.43 0 1 0-20.86 0 10.43 10.43 0 0 0 20.86 0"/><path d="M719.39 97.33a12.07 12.07 0 1 1 .01-24.1 12.07 12.07 0 0 1-.01 24.1zm0-20.86a8.81 8.81 0 0 0 0 17.6 8.82 8.82 0 0 0 0-17.6z"/></g><path fill="#363736" d="M719.39 97.33a12.07 12.07 0 1 1 .01-24.1 12.07 12.07 0 0 1-.01 24.1zm0-20.86a8.81 8.81 0 0 0 0 17.6 8.82 8.82 0 0 0 0-17.6z"/><g fill="#363736"><path d="M658.29 83.04a6.7 6.7 0 1 1 13.42 0 6.7 6.7 0 0 1-13.42 0"/><path d="M665 91.37a8.35 8.35 0 0 1 0-16.67 8.34 8.34 0 0 1 0 16.67zm0-13.41a5.08 5.08 0 1 0 0 10.16 5.08 5.08 0 0 0 0-10.16z"/></g><g fill="#363736"><path d="M658.29 83.04a6.7 6.7 0 1 1 13.42 0 6.7 6.7 0 0 1-13.42 0z"/><path d="M665 91.37a8.35 8.35 0 0 1 0-16.67 8.34 8.34 0 0 1 0 16.67zm0-13.41a5.08 5.08 0 1 0 0 10.16 5.08 5.08 0 0 0 0-10.16z"/></g><path fill="#363736" d="M694.06 103.15a4.47 4.47 0 1 1-8.95 0 4.47 4.47 0 0 1 8.95 0"/><path fill="#363736" d="M689.59 109.25a6.1 6.1 0 1 1 0-12.22 6.1 6.1 0 0 1 0 12.22zm0-8.94a2.85 2.85 0 1 0 0 5.7 2.85 2.85 0 0 0 0-5.7zM643.39 124.02a8.94 8.94 0 1 1-17.9 0 8.94 8.94 0 0 1 17.9 0"/><path fill="#363736" d="M634.44 134.6a10.58 10.58 0 0 1 0-21.15c5.83 0 10.57 4.74 10.57 10.57s-4.74 10.57-10.57 10.57zm0-17.9a7.32 7.32 0 1 0 .02 14.65 7.32 7.32 0 0 0-.02-14.64z"/><g fill="#363736"><path d="M655.3 157.55a9.68 9.68 0 1 1-19.35 0 9.68 9.68 0 0 1 19.36 0"/><path d="M645.62 168.86a11.32 11.32 0 0 1 0-22.63 11.32 11.32 0 0 1 0 22.63zm0-19.37a8.06 8.06 0 1 0 0 16.1 8.06 8.06 0 0 0 0-16.1z"/></g><path fill="#363736" d="M680.64 140.4a4.47 4.47 0 1 1-8.93.01 4.47 4.47 0 0 1 8.93 0"/><path fill="#363736" d="M676.17 146.5a6.1 6.1 0 1 1 .01-12.2 6.1 6.1 0 0 1 0 12.2zm0-8.94a2.85 2.85 0 1 0 0 5.7 2.85 2.85 0 0 0 0-5.7z"/><g fill="#363736"><path d="M725.35 176.17a8.94 8.94 0 1 1-17.88 0 8.94 8.94 0 0 1 17.88 0"/><path d="M716.4 186.74a10.58 10.58 0 0 1 0-21.14 10.58 10.58 0 0 1 0 21.14zm0-17.88a7.32 7.32 0 0 0 0 14.63 7.32 7.32 0 0 0 0-14.63z"/></g><g fill="#363736"><path d="M779 92.72a4.47 4.47 0 1 1-8.94 0 4.47 4.47 0 0 1 8.94 0"/><path d="M774.53 98.82a6.1 6.1 0 1 1 .01-12.21 6.1 6.1 0 0 1 0 12.2zm0-8.94a2.85 2.85 0 1 0 0 5.7 2.85 2.85 0 0 0 0-5.7z"/></g><g fill="#363736"><path d="M740.25 135.2a6.7 6.7 0 1 1 13.42 0 6.7 6.7 0 0 1-13.41 0"/><path d="M746.96 143.53a8.34 8.34 0 1 1 .02-16.68 8.34 8.34 0 0 1-.02 16.68zm0-13.41a5.08 5.08 0 1 0 .01 10.17 5.08 5.08 0 0 0-.01-10.17z"/></g><g fill="#363736"><path d="M811.78 137.43a10.43 10.43 0 1 0-20.86 0 10.43 10.43 0 0 0 20.87 0"/><path d="M801.35 149.49a12.08 12.08 0 0 1-12.06-12.06c0-6.65 5.42-12.06 12.06-12.06 6.65 0 12.07 5.4 12.07 12.06 0 6.65-5.42 12.06-12.07 12.06zm0-20.87a8.81 8.81 0 1 0 8.8 8.8c0-4.85-3.94-8.8-8.8-8.8z"/></g><g fill="#363736"><path d="M787.94 177.67a4.47 4.47 0 1 1-8.95-.01 4.47 4.47 0 0 1 8.95 0"/><path d="M783.47 183.76a6.1 6.1 0 1 1 .01-12.2 6.1 6.1 0 0 1 0 12.2zm0-8.94a2.85 2.85 0 1 0 0 5.7 2.85 2.85 0 0 0 0-5.7z"/></g><g fill="#363736"><path d="M753.67 174.69a4.47 4.47 0 1 1-8.95 0 4.47 4.47 0 0 1 8.95 0"/><path d="M749.2 180.78a6.1 6.1 0 1 1 .01-12.2 6.1 6.1 0 0 1-.02 12.2zm0-8.94a2.85 2.85 0 1 0 0 5.7 2.85 2.85 0 0 0 0-5.7z"/></g><path fill="#363736" d="M749.2 180.78a6.1 6.1 0 1 1 .01-12.2 6.1 6.1 0 0 1-.02 12.2zm0-8.94a2.85 2.85 0 1 0 0 5.7 2.85 2.85 0 0 0 0-5.7z"/><g fill="#363736"><path d="M753.67 207.47a9.7 9.7 0 1 1-19.39 0 9.7 9.7 0 0 1 19.39 0"/><path d="M743.98 218.79a11.32 11.32 0 1 1 11.32-11.32c0 6.24-5.08 11.32-11.32 11.32zm0-19.38a8.06 8.06 0 1 0 .01 16.13 8.06 8.06 0 0 0-.01-16.13z"/></g><g fill="#363736"><path d="M683.63 191.08a4.48 4.48 0 1 1-8.96-.01 4.48 4.48 0 0 1 8.96 0"/><path d="M679.15 197.18a6.1 6.1 0 1 1 .02-12.21 6.1 6.1 0 0 1-.01 12.2zm0-8.94a2.85 2.85 0 1 0 .01 5.69 2.85 2.85 0 0 0 0-5.7z"/></g><path fill="#363736" d="M679.15 197.18a6.1 6.1 0 1 1 .02-12.21 6.1 6.1 0 0 1-.01 12.2zm0-8.94a2.85 2.85 0 1 0 .01 5.69 2.85 2.85 0 0 0 0-5.7zM706.72 218.79a8.35 8.35 0 0 1 0-16.67 8.34 8.34 0 0 1 0 16.67zm0-13.42a5.08 5.08 0 1 0 .01 10.17 5.08 5.08 0 0 0 0-10.17z"/><path fill="#363736" d="M700.01 210.45a6.7 6.7 0 1 1 13.42 0 6.7 6.7 0 0 1-13.41 0"/><g fill="#363736"><path d="M65.91 176.91a41.6 41.6 0 0 0 5.45 13.45 26.79 26.79 0 0 0 9.34 8.9c3.78 2.15 8.18 3.22 13.22 3.22 10.23 0 19.35-3.33 27.35-10l2.67 2-4.9 12.45a45.05 45.05 0 0 1-13.33 6.78c-5.2 1.7-12 2.56-20.46 2.56-7.26 0-14.15-1-20.67-3-6.53-2-12.27-5.3-17.23-9.9-4.97-4.6-8.9-10.41-11.79-17.45-2.88-7.04-4.33-15.45-4.33-25.23 0-9.64 1.3-18.01 3.9-25.13 2.58-7.11 6.18-13.04 10.77-17.78a44.06 44.06 0 0 1 16.34-10.67 57.95 57.95 0 0 1 20.57-3.56c14.67 0 25.9 4.3 33.68 12.9 7.78 8.6 11.67 20.75 11.67 36.45v4.67c0 1.34-.07 2.23-.22 2.67h-63.8c0 5.93.58 11.49 1.77 16.67zm28.35-53.35c-2.45-6.67-6.56-10-12.34-10-3.26 0-6 1.1-8.23 3.33s-4 5.08-5.33 8.56a57.07 57.07 0 0 0-3 11.78c-.67 4.37-1.08 8.7-1.23 13h34.24c-.3-11.11-1.67-20-4.11-26.67zM211.42 145.34c4.37-12.89 8.7-25.86 13-38.9 1.63.3 3.2.55 4.67.78a29.8 29.8 0 0 0 8.9 0c1.48-.23 3.1-.48 4.89-.78a735.58 735.58 0 0 1-8.67 20.12 1002.2 1002.2 0 0 0-22.35 54.47 550.18 550.18 0 0 0-11 32.34c-2.08-.3-4.08-.44-6-.44h-12c-1.94 0-3.94.15-6.01.45a6461.1 6461.1 0 0 0-20.68-58.14c-3.55-9.86-6.89-19.08-10-27.68-3.11-8.6-5.7-15.64-7.78-21.12 3.11.3 6.11.55 9 .77a102.85 102.85 0 0 0 16.9 0c2.74-.22 5.52-.48 8.33-.77 4 13.04 8.04 26 12.12 38.9 4.08 12.9 8.26 25.87 12.56 38.91h.45a1913.2 1913.2 0 0 0 13.67-38.9zM254.1 136.9c3.04-7.41 7.08-13.6 12.13-18.57a48.73 48.73 0 0 1 17.45-11.11 58.06 58.06 0 0 1 20.34-3.67c17.34 0 30.75 4.9 40.24 14.67 9.48 9.78 14.23 23.05 14.23 39.8 0 9.04-1.34 17.2-4 24.45a53.69 53.69 0 0 1-11.23 18.57 45.34 45.34 0 0 1-17.23 11.45 61.83 61.83 0 0 1-22.01 3.77c-6.67 0-13.23-.88-19.68-2.66a47.23 47.23 0 0 1-17.45-9c-5.19-4.23-9.37-9.75-12.56-16.57-3.19-6.81-4.78-15.19-4.78-25.12 0-9.93 1.52-18.6 4.56-26.01zm66.6-12.56c-3.27-7.2-8.68-10.79-16.23-10.79-6.82 0-12.2 4-16.12 12-3.93 8.01-5.9 20.54-5.9 37.58 0 6.23.37 12 1.12 17.34a53.4 53.4 0 0 0 3.66 13.9c1.7 3.92 3.93 7 6.67 9.22 2.74 2.23 6.19 3.34 10.34 3.34 14.23 0 21.34-17.42 21.34-52.25 0-13.04-1.63-23.15-4.89-30.34zM381.39 82.65c-.3-12.15-.75-24.46-1.34-36.9a124.56 124.56 0 0 0 16.67 1.11 124.68 124.68 0 0 0 16.68-1.11 1583.7 1583.7 0 0 0-1.33 36.9c-.3 12.15-.45 25.5-.45 40.02v14.45c0 14.53.15 27.87.45 40.02.3 12.15.74 24.23 1.33 36.24-1.93-.3-4.37-.45-7.34-.45H387.4c-2.97 0-5.41.15-7.34.45a1479.53 1479.53 0 0 0 1.78-76.26v-14.45c0-14.53-.15-27.86-.44-40.02zM446.08 51.97c3.41-3.4 7.56-5.11 12.45-5.11s9.04 1.7 12.45 5.11a16.95 16.95 0 0 1 5.11 12.45c0 4.9-1.7 9.04-5.1 12.45-3.42 3.41-7.57 5.11-12.46 5.11s-9.04-1.7-12.45-5.11a16.94 16.94 0 0 1-5.11-12.45c0-4.9 1.7-9.04 5.11-12.45zm-2.78 78.37c-.22-7.93-.7-15.9-1.44-23.9a117.97 117.97 0 0 0 16.67 1.11c6.97 0 12.53-.37 16.68-1.11-.75 8-1.23 15.97-1.45 23.9-.22 7.93-.33 16.41-.33 25.45v8.9c0 9.04.11 17.56.33 25.56.23 8 .7 15.72 1.45 23.13a48.4 48.4 0 0 0-7.23-.45H449.2c-2.82 0-5.27.15-7.34.45.74-7.41 1.22-15.12 1.44-23.13.23-8 .34-16.52.34-25.56v-8.9c0-9.03-.11-17.52-.34-25.45zM525.56 195.03c-3.93 6.3-7.67 12.42-11.22 18.35-2.97-.3-6-.45-9.12-.45h-4.56c-1.55 0-3.37.15-5.44.45 1.03-.9 3-3.2 5.89-6.9 2.89-3.7 6.07-7.96 9.56-12.78l10.67-14.78c3.63-5.04 6.78-9.56 9.45-13.57a511.15 511.15 0 0 0-9.23-16.11c-3.48-5.86-6.9-11.6-10.23-17.23a665.9 665.9 0 0 0-15.9-25.57c3.56.3 6.9.56 10.01.78a127.43 127.43 0 0 0 18.12 0c3.04-.22 6.04-.48 9-.78 3.12 5.78 6.23 11.64 9.34 17.56a528.45 528.45 0 0 0 9.78 17.79c4-6.23 7.97-12.12 11.9-17.67a219.02 219.02 0 0 0 11.23-17.68c1.63.3 3.18.56 4.66.78 1.49.22 3.04.33 4.67.33s3.26-.1 4.9-.33l5.55-.78a1858.75 1858.75 0 0 0-26.57 33.8 716.92 716.92 0 0 0-9.66 12.89 1677.52 1677.52 0 0 0 18 30.35c6.08 10 12.23 19.97 18.45 29.9-2.96-.3-6-.45-9.1-.45h-18.24c-3.11 0-6.15.15-9.11.45l-20.46-37.13a471.9 471.9 0 0 0-12.34 18.78z"/></g><g style="-inkscape-font-specification:Cabin" font-size="31.78" font-weight="400" fill="#363736" font-family="Cabin"><path d="M49.75 263.62h-3v-10.27h-12.5v10.27h-3v-22.4h3v9.25h12.5v-9.25h3v22.4M66.94 255.78H55.73c.34 3.74 2.27 5.6 5.8 5.6 1.59 0 3.07-.3 4.46-.93l.38 2.28a12.82 12.82 0 0 1-5.18 1.21c-1.3 0-2.48-.21-3.54-.64-1.03-.42-1.9-1-2.62-1.73a7.66 7.66 0 0 1-1.64-2.62 9.42 9.42 0 0 1-.57-3.3c0-1.13.18-2.18.54-3.16a7.4 7.4 0 0 1 1.52-2.53 6.82 6.82 0 0 1 2.36-1.7c.95-.42 2-.64 3.16-.64.99 0 1.9.15 2.72.45a5.77 5.77 0 0 1 3.44 3.42c.33.82.5 1.73.5 2.76 0 .6-.04 1.1-.12 1.53m-6.6-5.6c-2.3 0-3.75 1.2-4.36 3.62h8.15c0-1.15-.32-2.04-.95-2.66-.63-.64-1.58-.96-2.84-.96m2.52-7.68l-5.9 2.05v-1.31l5.9-3.04v2.3M77.5 263.94c-.38 0-.79-.05-1.23-.16a8.09 8.09 0 0 1-2.59-1.15c-.38-.3-.7-.63-.94-1l-.32 2h-2.53v-24h2.85v10c1.09-1.34 2.69-2 4.8-2a6.6 6.6 0 0 1 5.05 2.43 8.25 8.25 0 0 1 1.42 2.62c.33.98.5 2.01.5 3.1 0 1.13-.18 2.2-.54 3.2a8.46 8.46 0 0 1-1.48 2.6 7.14 7.14 0 0 1-2.24 1.72c-.84.43-1.76.64-2.75.64m-.31-13.76a4.26 4.26 0 0 0-3.22 1.47 5.26 5.26 0 0 0-1.01 1.76 6.8 6.8 0 0 0-.38 2.37c0 .92.11 1.73.35 2.43.25.7.58 1.3 1 1.76a4.12 4.12 0 0 0 3.26 1.41c.67 0 1.28-.15 1.83-.45.55-.3 1-.7 1.39-1.21.38-.51.67-1.11.88-1.8a7.46 7.46 0 0 0 0-4.35 5.16 5.16 0 0 0-2.3-2.94 3.7 3.7 0 0 0-1.8-.45M100.6 255.78H89.4c.33 3.74 2.27 5.6 5.8 5.6 1.58 0 3.07-.3 4.45-.93l.38 2.28a12.82 12.82 0 0 1-5.17 1.21c-1.3 0-2.49-.21-3.54-.64-1.03-.42-1.9-1-2.62-1.73a7.66 7.66 0 0 1-1.64-2.62 9.42 9.42 0 0 1-.57-3.3c0-1.13.18-2.18.54-3.16a7.4 7.4 0 0 1 1.51-2.53 6.82 6.82 0 0 1 2.37-1.7c.95-.42 2-.64 3.16-.64.99 0 1.9.15 2.71.45a5.77 5.77 0 0 1 3.44 3.42c.34.82.5 1.73.5 2.76 0 .6-.03 1.1-.12 1.53m-6.6-5.6c-2.29 0-3.74 1.2-4.35 3.62h8.14c0-1.15-.31-2.04-.95-2.66-.63-.64-1.57-.96-2.84-.96M111.77 247.37l-.63 3.16h-.98a4.96 4.96 0 0 0-2.94 1.28c-.27.24-.47.48-.6.74v11.07h-3.03v-15.68h2.34l.35 2.6a12.7 12.7 0 0 1 2.62-2.4c.8-.52 1.67-.77 2.62-.77h.25M119.64 271.62c-1.22 0-2.28-.13-3.19-.38-.9-.26-1.66-.6-2.27-1.06a4.25 4.25 0 0 1-1.32-1.5 3.89 3.89 0 0 1-.45-1.8c0-1.66.92-2.83 2.75-3.51-1.05-.52-1.58-1.18-1.58-1.99 0-.36.14-.75.41-1.18.3-.45.77-.83 1.42-1.15a6.05 6.05 0 0 1-2.68-5.12c0-.9.14-1.73.41-2.5a5.68 5.68 0 0 1 3.22-3.33 7.38 7.38 0 0 1 6.63.67c1.1-.6 2.35-.9 3.76-.9h.25l-.35 1.93h-.72c-.66 0-1.27.07-1.84.22a5.78 5.78 0 0 1 1.43 3.75 6.4 6.4 0 0 1-1.71 4.35 5.72 5.72 0 0 1-1.96 1.37c-.75.35-1.62.52-2.59.52-.82 0-1.55-.1-2.2-.3-.51.3-.76.63-.76.97 0 .2.05.36.15.51.13.13.36.25.7.35.36.1.84.23 1.45.35l2.5.45c.69.13 1.4.3 2.14.48.74.2 1.4.45 2 .77a4.8 4.8 0 0 1 1.5 1.22 3.29 3.29 0 0 1 .13 3.77c-.36.6-.87 1.12-1.54 1.57-.66.45-1.47.8-2.44 1.06-.96.27-2.05.41-3.25.41m-.56-21.7c-1.16 0-2.06.37-2.69 1.1-.63.7-.95 1.64-.95 2.81a4.1 4.1 0 0 0 1.01 2.91 3.6 3.6 0 0 0 2.69 1.06c1.13 0 2.03-.39 2.68-1.15.65-.77.98-1.74.98-2.92 0-1.21-.34-2.15-1.01-2.81a3.7 3.7 0 0 0-2.71-1m1.32 14.53c-.36 0-1.3-.12-2.8-.38-.72.21-1.31.59-1.78 1.12-.46.53-.7 1.08-.7 1.63 0 .75.42 1.36 1.24 1.83.82.49 1.96.73 3.41.73 1.51 0 2.68-.25 3.5-.77.85-.49 1.27-1.06 1.27-1.72 0-1.11-1.38-1.92-4.14-2.44M142.4 255.78h-11.2c.34 3.74 2.27 5.6 5.8 5.6 1.59 0 3.07-.3 4.46-.93l.38 2.28a12.82 12.82 0 0 1-5.18 1.21c-1.3 0-2.48-.21-3.54-.64-1.03-.42-1.9-1-2.62-1.73a7.66 7.66 0 0 1-1.64-2.62 9.42 9.42 0 0 1-.57-3.3c0-1.13.18-2.18.54-3.16a7.4 7.4 0 0 1 1.52-2.53 6.82 6.82 0 0 1 2.36-1.7c.95-.42 2-.64 3.16-.64 1 0 1.9.15 2.72.45a5.77 5.77 0 0 1 3.44 3.42c.33.82.5 1.73.5 2.76 0 .6-.04 1.1-.12 1.53m-6.6-5.6c-2.3 0-3.75 1.2-4.36 3.62h8.15c0-1.15-.32-2.04-.95-2.66-.63-.64-1.58-.96-2.84-.96M169.39 263.62h-2.84v-9.21c0-1.48-.29-2.54-.85-3.2-.57-.69-1.5-1.03-2.78-1.03-2.74 0-4.1 1.45-4.1 4.35v9.1h-2.85v-8.65c0-1.79-.31-3.04-.94-3.74-.62-.7-1.51-1.06-2.69-1.06-1.98 0-3.34.69-4.1 2.05v11.4h-2.84v-15.69h2.2l.32 1.67a8 8 0 0 1 2.3-1.57c.7-.28 1.48-.42 2.34-.42 2.36 0 4.1 1.05 5.24 3.14 1.08-2.1 2.96-3.14 5.65-3.14 3.96 0 5.94 2.25 5.94 6.75v9.25M186.25 255.78h-11.21c.34 3.74 2.27 5.6 5.8 5.6 1.59 0 3.07-.3 4.46-.93l.38 2.28a12.82 12.82 0 0 1-5.18 1.21c-1.3 0-2.48-.21-3.54-.64-1.03-.42-1.9-1-2.62-1.73a7.66 7.66 0 0 1-1.64-2.62 9.42 9.42 0 0 1-.57-3.3c0-1.13.18-2.18.54-3.16a7.4 7.4 0 0 1 1.52-2.53 6.82 6.82 0 0 1 2.36-1.7c.95-.42 2-.64 3.16-.64.99 0 1.9.15 2.72.45a5.77 5.77 0 0 1 3.44 3.42c.33.82.5 1.73.5 2.76 0 .6-.04 1.1-.12 1.53m-6.6-5.6c-2.3 0-3.75 1.2-4.36 3.62h8.15c0-1.15-.32-2.04-.95-2.66-.63-.64-1.58-.96-2.84-.96M203.19 263.62h-2.84v-8.64c0-1.68-.32-2.9-.95-3.65-.6-.76-1.64-1.15-3.1-1.15-2.06 0-3.47.69-4.22 2.05v11.4h-2.84v-15.69h2.2l.32 1.67a7.42 7.42 0 0 1 5.12-1.99c4.2 0 6.3 2.46 6.3 7.36v8.64M214.74 261.64l-.22 2.3h-2.56c-1.37 0-2.39-.36-3.06-1.09a3.83 3.83 0 0 1-.98-2.65v-10.02h-2.65l.25-2.24h2.4v-3.87l2.84-.29v4.16h4.07v2.24h-4.07v8.26c0 .75.02 1.33.06 1.76.04.43.16.75.35.96.21.21.54.35.98.41.44.05 1.06.07 1.86.07h.73M237.55 255.78h-11.21c.34 3.74 2.27 5.6 5.8 5.6 1.59 0 3.07-.3 4.46-.93l.38 2.28a12.82 12.82 0 0 1-5.18 1.21c-1.3 0-2.48-.21-3.54-.64-1.03-.42-1.9-1-2.62-1.73a7.66 7.66 0 0 1-1.64-2.62 9.42 9.42 0 0 1-.57-3.3c0-1.13.18-2.18.54-3.16a7.4 7.4 0 0 1 1.52-2.53 6.82 6.82 0 0 1 2.36-1.7c.95-.42 2-.64 3.16-.64.99 0 1.9.15 2.72.45a5.77 5.77 0 0 1 3.44 3.42c.33.82.5 1.73.5 2.76 0 .6-.04 1.1-.12 1.53m-6.6-5.6c-2.3 0-3.75 1.2-4.36 3.62h8.15c0-1.15-.32-2.04-.95-2.66-.63-.64-1.58-.96-2.84-.96M248.65 261.64l-.22 2.3h-2.56c-1.37 0-2.39-.36-3.06-1.09a3.83 3.83 0 0 1-.98-2.65v-10.02h-2.65l.25-2.24h2.4v-3.87l2.84-.29v4.16h4.07v2.24h-4.07v8.26c0 .75.02 1.33.06 1.76.05.43.16.75.35.96.21.21.54.35.98.41.44.05 1.06.07 1.86.07h.73M261.9 263.62h-3v-22.4h3v22.4M280.02 263.62h-2.85v-8.64c0-1.68-.31-2.9-.94-3.65-.61-.76-1.64-1.15-3.1-1.15-2.06 0-3.47.69-4.23 2.05v11.4h-2.84v-15.69h2.21l.32 1.67a7.42 7.42 0 0 1 5.11-1.99c4.21 0 6.32 2.46 6.32 7.36v8.64M291.6 250.18h-4.17v13.44h-2.84v-13.44h-2.69l.38-2.24h2.3v-3.97c0-1.3.31-2.34.92-3.13a3.2 3.2 0 0 1 2.68-1.22c1.35 0 2.42.14 3.22.42l-.44 2.43a6.28 6.28 0 0 0-1.9-.29c-.35 0-.63.05-.84.13-.21.06-.38.24-.51.51-.1.26-.18.64-.22 1.15-.04.52-.06 1.2-.06 2.05v1.92h4.16v2.24M305.97 261.64c-1.37 1.53-3.23 2.3-5.59 2.3-1.2 0-2.27-.2-3.22-.6-.95-.43-1.76-1-2.43-1.73a7.69 7.69 0 0 1-1.52-2.6c-.33-1-.5-2.08-.5-3.23 0-1.17.18-2.25.53-3.23.36-1 .87-1.87 1.52-2.6a7.68 7.68 0 0 1 5.62-2.34c1.18.01 2.24.23 3.19.65a7.43 7.43 0 0 1 3.95 4.32c.35.98.53 2.05.53 3.2 0 2.35-.7 4.3-2.08 5.86m-2.09-9.99a4.31 4.31 0 0 0-3.5-1.47c-1.52 0-2.7.5-3.54 1.47-.82.96-1.23 2.34-1.23 4.13 0 1.8.41 3.18 1.23 4.16a4.45 4.45 0 0 0 3.54 1.44 4.3 4.3 0 0 0 3.54-1.5c.82-1 1.23-2.37 1.23-4.1 0-1.77-.42-3.14-1.27-4.13M317.14 271.62c-1.22 0-2.29-.13-3.2-.38-.9-.26-1.66-.6-2.27-1.06a4.25 4.25 0 0 1-1.32-1.5 3.89 3.89 0 0 1-.44-1.8c0-1.66.91-2.83 2.74-3.51-1.05-.52-1.58-1.18-1.58-1.99 0-.36.14-.75.41-1.18.3-.45.77-.83 1.43-1.15a6.05 6.05 0 0 1-2.69-5.12c0-.9.14-1.73.41-2.5a5.68 5.68 0 0 1 3.22-3.33 7.38 7.38 0 0 1 6.63.67c1.1-.6 2.35-.9 3.76-.9h.25l-.35 1.93h-.72c-.65 0-1.26.07-1.83.22a5.78 5.78 0 0 1 1.42 3.75 6.4 6.4 0 0 1-1.7 4.35 5.72 5.72 0 0 1-1.96 1.37c-.76.35-1.62.52-2.6.52-.81 0-1.55-.1-2.2-.3-.5.3-.76.63-.76.97 0 .2.05.36.16.51.12.13.36.25.7.35.35.1.83.23 1.44.35l2.5.45c.7.13 1.4.3 2.14.48.74.2 1.4.45 2 .77a4.8 4.8 0 0 1 1.5 1.22 3.29 3.29 0 0 1 .14 3.77c-.36.6-.88 1.12-1.55 1.57-.65.45-1.46.8-2.43 1.06-.97.27-2.05.41-3.25.41m-.57-21.7c-1.16 0-2.05.37-2.69 1.1-.63.7-.94 1.64-.94 2.81a4.1 4.1 0 0 0 1 2.91 3.6 3.6 0 0 0 2.7 1.06c1.13 0 2.02-.39 2.67-1.15.66-.77.98-1.74.98-2.92 0-1.21-.33-2.15-1-2.81a3.7 3.7 0 0 0-2.72-1m1.32 14.53c-.35 0-1.3-.12-2.8-.38-.72.21-1.31.59-1.77 1.12-.47.53-.7 1.08-.7 1.63 0 .75.41 1.36 1.23 1.83.82.49 1.96.73 3.41.73 1.52 0 2.69-.25 3.5-.77.85-.49 1.27-1.06 1.27-1.72 0-1.11-1.38-1.92-4.14-2.44M339.9 255.78h-11.2c.33 3.74 2.26 5.6 5.8 5.6 1.58 0 3.06-.3 4.45-.93l.38 2.28a12.82 12.82 0 0 1-5.18 1.21c-1.3 0-2.48-.21-3.53-.64-1.03-.42-1.9-1-2.62-1.73a7.66 7.66 0 0 1-1.64-2.62 9.42 9.42 0 0 1-.57-3.3c0-1.13.18-2.18.53-3.16a7.4 7.4 0 0 1 1.52-2.53 6.82 6.82 0 0 1 2.37-1.7c.94-.42 2-.64 3.15-.64 1 0 1.9.15 2.72.45a5.77 5.77 0 0 1 3.44 3.42c.34.82.5 1.73.5 2.76 0 .6-.04 1.1-.12 1.53m-6.6-5.6c-2.3 0-3.75 1.2-4.36 3.62h8.15c0-1.15-.32-2.04-.95-2.66-.63-.64-1.58-.96-2.84-.96m2.53-7.68l-5.9 2.05v-1.31l5.9-3.04v2.3M351.07 247.37l-.64 3.16h-.97a4.96 4.96 0 0 0-2.94 1.28c-.27.24-.47.48-.6.74v11.07h-3.03v-15.68h2.34l.34 2.6a12.7 12.7 0 0 1 2.62-2.4c.8-.52 1.68-.77 2.62-.77h.26M365.73 261.64l-.44 2.3h-.22c-.64 0-1.16-.04-1.58-.13a3.04 3.04 0 0 1-1.08-.35c-.29-.19-.54-.43-.75-.73-.2-.3-.38-.66-.57-1.1a6 6 0 0 1-4.74 2.31 4.8 4.8 0 0 1-3.47-1.25 4.43 4.43 0 0 1-1.3-3.3c0-1.08.29-1.98.86-2.68a6.55 6.55 0 0 1 2.2-1.7c.91-.42 1.91-.72 3-.9 1.1-.18 2.16-.29 3.2-.31 0-1.4-.28-2.36-.82-2.85-.53-.51-1.38-.77-2.56-.77-1.35 0-2.7.47-4.07 1.41l-.41-2.34a8.24 8.24 0 0 1 5.24-1.63c.98 0 1.83.14 2.52.42.7.25 1.25.68 1.67 1.28.45.57.76 1.34.95 2.3.21.96.32 2.14.32 3.52v3.2c0 1.24.1 2.1.31 2.6.21.46.7.7 1.46.7h.28m-4.9-2.11v-3.75c-2.27.09-3.9.4-4.89.93-.97.51-1.45 1.36-1.45 2.53 0 1.6.8 2.4 2.4 2.4a5.16 5.16 0 0 0 3.95-2.11M381.88 263.62h-2.85v-8.64c0-1.68-.31-2.9-.94-3.65-.61-.76-1.64-1.15-3.1-1.15-2.06 0-3.47.69-4.23 2.05v11.4h-2.84v-15.69h2.21l.32 1.67a7.42 7.42 0 0 1 5.11-1.99c4.21 0 6.32 2.46 6.32 7.36v8.64M392.38 263.94c-1.25 0-2.34-.2-3.29-.6-.94-.43-1.75-1-2.43-1.73a7.69 7.69 0 0 1-1.48-2.6c-.34-1-.5-2.09-.5-3.26a10 10 0 0 1 .5-3.26 6.42 6.42 0 0 1 3.85-4.26c.97-.4 2.07-.6 3.31-.6 2.07 0 3.66.3 4.77.92l-.44 2.6a9.01 9.01 0 0 0-4.01-.97c-1.7 0-2.98.48-3.82 1.44-.84.96-1.26 2.34-1.26 4.13 0 1.8.42 3.19 1.26 4.2.84.97 2.12 1.46 3.82 1.46 1.39 0 2.74-.32 4.04-.96l.38 2.3c-1.16.8-2.73 1.2-4.7 1.2M412.78 255.78h-11.2c.33 3.74 2.27 5.6 5.8 5.6 1.58 0 3.06-.3 4.45-.93l.38 2.28a12.82 12.82 0 0 1-5.18 1.21c-1.3 0-2.48-.21-3.53-.64-1.03-.42-1.9-1-2.62-1.73a7.66 7.66 0 0 1-1.64-2.62 9.42 9.42 0 0 1-.57-3.3c0-1.13.18-2.18.53-3.16a7.4 7.4 0 0 1 1.52-2.53 6.82 6.82 0 0 1 2.37-1.7c.94-.42 2-.64 3.15-.64 1 0 1.9.15 2.72.45a5.77 5.77 0 0 1 3.44 3.42c.34.82.5 1.73.5 2.76 0 .6-.04 1.1-.12 1.53m-6.6-5.6c-2.3 0-3.74 1.2-4.36 3.62h8.15c0-1.15-.32-2.04-.95-2.66-.63-.64-1.58-.96-2.84-.96M440.89 260.9a10.35 10.35 0 0 1-7.83 3.17c-1.6 0-3.08-.28-4.42-.83a10.2 10.2 0 0 1-3.44-2.34 11.3 11.3 0 0 1-2.25-3.68 13.82 13.82 0 0 1-.78-4.8c0-1.77.27-3.37.82-4.8.54-1.43 1.3-2.64 2.24-3.65a9.98 9.98 0 0 1 3.44-2.36c1.35-.56 2.8-.84 4.39-.84 1.58 0 3.03.28 4.35.84a9.9 9.9 0 0 1 3.48 2.36 10.63 10.63 0 0 1 2.24 3.68c.54 1.43.82 3.02.82 4.77 0 3.52-1.02 6.35-3.06 8.48m-2.21-14.88c-1.3-1.66-3.18-2.5-5.62-2.5-1.22 0-2.3.23-3.25.68a6.9 6.9 0 0 0-2.4 1.85 8.46 8.46 0 0 0-1.46 2.82c-.33 1.09-.5 2.27-.5 3.55 0 1.28.17 2.47.5 3.55a8.46 8.46 0 0 0 1.46 2.82 6.9 6.9 0 0 0 2.4 1.86c.94.44 2.03.67 3.25.67 1.22 0 2.3-.23 3.25-.67a6.9 6.9 0 0 0 2.4-1.86 8.1 8.1 0 0 0 1.45-2.82c.34-1.08.5-2.27.5-3.55 0-2.6-.66-4.73-1.98-6.4M454.55 263.94c-.38 0-.8-.05-1.26-.16a8.09 8.09 0 0 1-2.6-1.15 5 5 0 0 1-1-1v9.74h-2.84v-23.43h2.2l.32 2.24a7.35 7.35 0 0 1 2.24-1.92 6.13 6.13 0 0 1 2.97-.64 6.23 6.23 0 0 1 4.99 2.46 7.85 7.85 0 0 1 1.39 2.6 10.82 10.82 0 0 1 .03 6.37c-.3 1-.74 1.86-1.33 2.59a5.83 5.83 0 0 1-2.14 1.7c-.87.4-1.86.6-2.97.6m-.32-13.76a4.54 4.54 0 0 0-3.28 1.5 5.7 5.7 0 0 0-1.04 1.77 6.7 6.7 0 0 0-.38 2.33c0 .94.13 1.76.38 2.47a4.34 4.34 0 0 0 4.32 3.14c.65 0 1.24-.15 1.77-.42a4.4 4.4 0 0 0 1.39-1.19c.38-.49.66-1.07.85-1.76.21-.68.32-1.43.32-2.24 0-.83-.1-1.59-.32-2.27a5.06 5.06 0 0 0-.85-1.76 4.05 4.05 0 0 0-3.16-1.57M477.58 255.78h-11.2c.33 3.74 2.27 5.6 5.8 5.6 1.58 0 3.07-.3 4.46-.93l.37 2.28a12.82 12.82 0 0 1-5.17 1.21c-1.3 0-2.49-.21-3.54-.64-1.03-.42-1.9-1-2.62-1.73a7.66 7.66 0 0 1-1.64-2.62 9.42 9.42 0 0 1-.57-3.3c0-1.13.18-2.18.54-3.16a7.4 7.4 0 0 1 1.51-2.53 6.82 6.82 0 0 1 2.37-1.7c.95-.42 2-.64 3.16-.64.99 0 1.9.15 2.71.45a5.77 5.77 0 0 1 3.44 3.42c.34.82.5 1.73.5 2.76 0 .6-.03 1.1-.12 1.53m-6.6-5.6c-2.29 0-3.74 1.2-4.35 3.62h8.14c0-1.15-.31-2.04-.94-2.66-.64-.64-1.58-.96-2.85-.96M494.53 263.62h-2.85v-8.64c0-1.68-.31-2.9-.94-3.65-.61-.76-1.64-1.15-3.1-1.15-2.06 0-3.47.69-4.23 2.05v11.4h-2.84v-15.69h2.21l.32 1.67a7.42 7.42 0 0 1 5.11-1.99c4.21 0 6.32 2.46 6.32 7.36v8.64M512.21 264.07c-3.05 0-5.46-.48-7.23-1.44l.41-3.55a11.1 11.1 0 0 0 6.88 2.24c.76 0 1.46-.07 2.09-.2a5.73 5.73 0 0 0 1.67-.63c.49-.3.85-.66 1.1-1.1.28-.44.42-.95.42-1.53 0-.6-.14-1.1-.41-1.53a3.89 3.89 0 0 0-1.17-1.19 8.38 8.38 0 0 0-1.8-.93c-.7-.27-1.47-.56-2.34-.86l-2.2-.74c-1.8-.6-3.08-1.33-3.86-2.2a4.75 4.75 0 0 1-1.14-3.17 6.52 6.52 0 0 1 1.65-4.2 6.9 6.9 0 0 1 2.43-1.63c1.03-.42 2.32-.64 3.88-.64a15.58 15.58 0 0 1 3.88.48 12.07 12.07 0 0 1 3.07 1.06l-.32 3.23c-2.65-1.34-4.77-2.01-6.35-2.01a8.9 8.9 0 0 0-1.83.19 5.2 5.2 0 0 0-1.58.6 3.8 3.8 0 0 0-1.13 1.03c-.28.4-.41.9-.41 1.47 0 .94.39 1.68 1.17 2.21a16 16 0 0 0 3.6 1.54 10.94 10.94 0 0 0 1.54.44 16.86 16.86 0 0 1 2.34.9l1.07.58c.27.15.5.27.66.38a2 2 0 0 1 .45.32l.79.83c.48.51.8 1.07.94 1.67.17.6.29 1.3.35 2.14 0 .64-.1 1.32-.28 2.05a4.5 4.5 0 0 1-1.2 1.98 7.18 7.18 0 0 1-2.62 1.57c-1.12.4-2.62.62-4.52.64M536.08 261.64c-1.37 1.53-3.23 2.3-5.6 2.3-1.19 0-2.26-.2-3.21-.6-.95-.43-1.76-1-2.43-1.73a7.69 7.69 0 0 1-1.52-2.6c-.33-1-.5-2.08-.5-3.23 0-1.17.18-2.25.53-3.23.36-1 .87-1.87 1.52-2.6a7.68 7.68 0 0 1 5.62-2.34c1.18.01 2.24.23 3.19.65a7.43 7.43 0 0 1 3.95 4.32c.35.98.53 2.05.53 3.2 0 2.35-.7 4.3-2.08 5.86m-2.09-9.99a4.31 4.31 0 0 0-3.5-1.47c-1.52 0-2.7.5-3.54 1.47-.82.96-1.23 2.34-1.23 4.13 0 1.8.41 3.18 1.23 4.16a4.45 4.45 0 0 0 3.54 1.44 4.3 4.3 0 0 0 3.54-1.5c.82-1 1.23-2.37 1.23-4.1 0-1.77-.42-3.14-1.27-4.13M553.81 263.62h-2.52l-.32-1.73a4.92 4.92 0 0 1-4.3 2.05c-3.8 0-5.7-2.3-5.7-6.88v-9.12h2.83v8.32c0 3.42 1.2 5.12 3.6 5.12 1.65 0 2.83-.6 3.57-1.79v-11.65h2.84v15.68M565.82 247.37l-.63 3.16h-.98a4.96 4.96 0 0 0-2.94 1.28c-.27.24-.47.48-.6.74v11.07h-3.02v-15.68h2.33l.35 2.6a12.7 12.7 0 0 1 2.62-2.4c.8-.52 1.67-.77 2.62-.77h.25M574.15 263.94c-1.25 0-2.34-.2-3.29-.6-.95-.43-1.76-1-2.43-1.73a7.69 7.69 0 0 1-1.48-2.6c-.34-1-.5-2.09-.5-3.26a10 10 0 0 1 .5-3.26 6.42 6.42 0 0 1 3.85-4.26c.97-.4 2.07-.6 3.31-.6 2.07 0 3.66.3 4.77.92l-.44 2.6a9.01 9.01 0 0 0-4.01-.97c-1.7 0-2.98.48-3.82 1.44-.84.96-1.26 2.34-1.26 4.13 0 1.8.42 3.19 1.26 4.2.84.97 2.11 1.46 3.82 1.46 1.39 0 2.74-.32 4.04-.96l.38 2.3c-1.16.8-2.73 1.2-4.7 1.2M594.55 255.78h-11.2c.33 3.74 2.26 5.6 5.8 5.6 1.58 0 3.06-.3 4.45-.93l.38 2.28a12.82 12.82 0 0 1-5.18 1.21c-1.3 0-2.48-.21-3.53-.64-1.03-.42-1.9-1-2.62-1.73a7.66 7.66 0 0 1-1.64-2.62 9.42 9.42 0 0 1-.57-3.3c0-1.13.18-2.18.53-3.16a7.4 7.4 0 0 1 1.52-2.53 6.82 6.82 0 0 1 2.37-1.7c.94-.42 2-.64 3.15-.64 1 0 1.9.15 2.72.45a5.77 5.77 0 0 1 3.44 3.42c.34.82.5 1.73.5 2.76 0 .6-.04 1.1-.12 1.53m-6.6-5.6c-2.3 0-3.75 1.2-4.36 3.62h8.15c0-1.15-.32-2.04-.95-2.66-.63-.64-1.58-.96-2.84-.96"/></g></svg>