<svg viewBox="0 0 125 73" xmlns="http://www.w3.org/2000/svg"><path d="m87.86 35 11.55-7.1-3.07 13.58 12.76-4.5-5.51 12.51-.01.02 13.35-1.6-8.05 11.04 13.4 1.3-10.12 8.81 12.84 3.94h-125l12.85-3.94-10.12-9.1 13.4-1.17-8.05-10.97 13.35 1.65-5.62-12.47 12.74 4.43-2.97-13.4 11.56 7.02-.1-13.73 9.98 9.33 2.53-13.47 7.68 11.23 5.27-12.63 5.32 12.6 7.75-11.21 2.33 11.93 10.8-8.18-.83 14.07z" fill="#ccd138"/><path d="m94.56 1.43-9.88-.76 2.07 13.83c-4.12 2.66-9.3 5.49-14.36 8.08l-.23.12c.03-.15.05-.28.05-.4-.03-.51-.21-.87-.46-1.36a2.93 2.93 0 0 0 -.46-.65c-.18-.2-.42-.44-.9-.46l-.12.01a10.56 10.56 0 0 0 -.77-9.33c2.47-1.85 3.67-4.04 3.18-5.07-.02 0-1.97-.55-4.1-.78-1.12-.68-3.19-3.62-7.08-3.63-4.76.06-11.35 3.73-13.95 8.05a10.07 10.07 0 0 0 -1.38 4.97c0 .9.14 1.49.47 2.2.66 1.64 1.88 2.75 4.2 2.75h.18c.08 0 .16.25.25.24a10.81 10.81 0 0 0 3.15 4.65l-.1.27c-.18.51-.67.75-.77 1.72 0 .44.23.84.5 1.12.1.05.54 1.04.84 1.89l.05.13a12.96 12.96 0 0 1 -5.38 1.18c-2.27.01-4.3-.63-5.46-1.56-.61-.5-1.33-.7-2-.7-1.05 0-1.96.44-2.69.93-.9.61-1.86 1.19-2.64 1.76-.73.6-1.44 1.04-1.53 2.1 0 .1.01.21.04.33.37 1.18 1.61 2.21 3.27 3.22 1.65.94 3.71 1.85 5.69 1.85h.05c1.6 0 3.05-.26 4.38-.5a33.79 33.79 0 0 0 -4.1 7.25l-1.55-.63c-1.42-.56-2.86-1.14-4-1.55-.58-.21-1.07-.61-1.46-.74-.41-.12-.57-.46-.94-.46h-.4l-.23.57c-.4.65-.74 1.59-1.02 2.54l-3.22-.64-.22.67c-.76 2.2-1.05 4.9-1.05 7.71 0 6.14 1.39 12.84 2.84 16.2l.06.14.1.1c.32.28.44.25.63.32 1.23.28 4.85.41 8.34.51 2.72.07 5.26.1 6.23.12 1.55 1.83 2.84 3 4.35 3.26h22.53c.9-6.75 2.22-20.44 2.22-34.87 0-1.95-.22-3.48-.6-4.84-.63-3.2 5.5-7.07 10.8-10.64l.07.49-1.44 18.9 13.82-.86 12.25 1 1.3-19.65-1.35-21.98-9.63.99zm-22.12 4.75.04.01h-.05v-.01z" fill="#010101"/><path d="m52.2 64.75c-2.12-5.66-1.9-7.04-1.9-8.2 0-2.14 1.32-4.93 3.6-7.85l11.15-.97c-.47 2.92-1.79 11.57-1.79 16.81.01 1.06.05 1.97.19 2.73l-10.02.64-1.03-2.62zm-10.4 3.3c-1.85-.06-3.7-.13-5.14-.23a37.5 37.5 0 0 1 -1.73-.15l-.35-.05c-1.28-3.16-2.58-9.57-2.58-15.26 0-2.4.23-4.69.76-6.53l10.58 2.32a59.85 59.85 0 0 0 -1.5 5.45c-.75 3.27-.57 5.84 1.93 9.68l.97 1.4.56.74 2.1 2.75zm69.47-27.55-10.84-.87-12.17.75 1.33-17.28-3.12-20.74 10 .77 6.73-.06 8.01-.81 1.25 20.27-1.19 17.98zm-41.44-23.4c.02.46-.64 1.34-1.68 1.52-.35.07-.71.1-1.05.1-1.07-.04-1.64-.3-1.64-1.1 0-1.94 1.23-3.18 2.36-3.18.11 0 .22.01.32.03.95.18 1.69 1.33 1.69 2.63zm-25.58 19.25h-.01a10.6 10.6 0 0 1 -4.95-1.54 7.38 7.38 0 0 1 -2.52-2.08c.1-.39 1.84-1.51 3.48-2.56a3.5 3.5 0 0 1 1.85-.68c.38 0 .72.1 1.07.37 1.55 1.23 3.85 1.9 6.38 1.9 1.95 0 4.05-.42 6.04-1.34l.13.19c.05.06.13.13.22.2a25.93 25.93 0 0 0 -5.67 4.75 23.1 23.1 0 0 1 -5.96.8l-.03-.01m6.73-18.38c-1.94-.08-2.23-.58-3-2.11a4.46 4.46 0 0 1 -.33-1.8c0-1.31.4-2.9 1.16-4.18 2.12-3.7 8.64-7.35 12.65-7.3 3.26 0 4.75 2.48 6.5 3.52l.1.06c-3.35 1.16-6.15 3.49-8.6 5.73-3.4 3.2-6.28 6.17-8.48 6.08zm19.08 5.17c-.7.7-2.13 1.81-4.97 3.48-.26.15-.5.3-.75.42-1.81.6-3.64 1.29-5.44 2.14-1.04.24-1.78.28-2.14.3-.14-.28-.4-.9-.6-1.48-.33-.79-.57-1.53-1.06-2.08l-.02-.04c.06-.11.22-.32.38-.6a88.06 88.06 0 0 0 14.78-3.82c.08.11.18.29.26.46.06.12.1.24.13.33l.02.07c0 .05-.01.2-.6.82z" fill="#fff"/><path d="m66.93 63.09a10.44 10.44 0 0 1 -1.06 3.17c-.32.52-.6.77-.9.88-.11-.58-.2-1.5-.19-2.6 0-6.1 1.94-17.52 1.94-17.54l.16-1-11.56 1.02.29-.32 11.7-2c.11 1.53.33 4.98.33 8.75 0 3.33-.18 6.94-.71 9.64zm-29.94-19.47c1.01.32 3.48 1.26 5.75 2.15l1.27.5-.16.4-7.4-1.62a8.7 8.7 0 0 1 .54-1.43z" fill="#fff"/><g fill="#010101"><path d="m91.76 32.39h7.66v.77h-7.66zm-.67-19.47h7.66v.78h-7.66zm10.61 3.27h7.64v.78h-7.65v-.78zm-.64-6.48h7.66v.78h-7.66v-.79zm.42 22.7h7.67v.77h-7.67zm-.1-19.45h7.66v.77h-7.66v-.78zm-.13 22.69h7.65v.78h-7.65zm.47-6.49h7.66v.77h-7.66zm.48-6.49h7.65v.77h-7.66v-.77zm-.24 3.24h7.65v.78h-7.65zm-11.98-19.44h7.66v.78h-7.66zm12.02 12.96h7.67v.78h-7.67zm-9.8-.06h7.65v.78h-7.66v-.78zm-1.67-9.67h7.66v.78h-7.66zm1.12 6.45h7.65v.77h-7.65zm-.15 19.5h7.65v.78h-7.65zm1.08-13.05h7.65v.78h-7.65zm-.27 3.26h7.65v.78h-7.66v-.78zm-.27 3.26h7.65v.78h-7.65zm-30.89 27.33-.76-.06.4-5.39.77.06-.41 5.4zm-2.89.14-.75-.07.43-5.44.76.06zm-2.86.14-.77-.06.44-5.5.76.05-.44 5.5zm-2.9.13-.75-.06.46-5.55.76.06-.46 5.55zm-11.68-6.36.76.07-.56 5.75-.76-.08.56-5.75zm-2.85-.36.76.07-.58 5.8-.75-.07zm-2.87-.37.77.08-.57 5.85-.75-.08.56-5.85zm24.93 9.66.48 5.53.76-.07-.48-5.52zm-2.27 5.64-.54-5.56.76-.07.53 5.56zm-2.75.12-.59-5.6.75-.08.6 5.6zm-14.59-6.23.87 5.77.75-.11-.87-5.78zm-2.79-.36.93 5.81.75-.12-.93-5.81zm-1.8 5.5-.99-5.86.75-.13.98 5.86zm16.37.65.2.54.61-.07-.65-5.63-.75.09zm48.55-58.28v.78h7.66v-.78z"/><path d="m103 1.54c-.46-1.12-1.83-1.54-4.04-1.54-2.1 0-3.79.6-4.4 1.43l1.91 1.7c1.47 1.08 3.12 2.71 4.28 3.53l2.12-.19c.26-.64.32-1.75.32-3.4zm-59.23 61.74.25 1.78.76-.12-.04-.27-.97-1.4z"/></g></svg>