<?xml version="1.0" encoding="utf-8"?>
<!-- Generator: Adobe Illustrator 17.0.0, SVG Export Plug-In . SVG Version: 6.00 Build 0)  -->
<!DOCTYPE svg PUBLIC "-//W3C//DTD SVG 1.1//EN" "http://www.w3.org/Graphics/SVG/1.1/DTD/svg11.dtd">
<svg version="1.1" id="Calque_1" xmlns="http://www.w3.org/2000/svg" xmlns:xlink="http://www.w3.org/1999/xlink" x="0px" y="0px"
	 width="190.728px" height="175.497px" viewBox="0 0 190.728 175.497" enable-background="new 0 0 190.728 175.497"
	 xml:space="preserve">
<g>
	<g>
		<path fill="#666666" d="M50.331,52.475c0,6.479,5.082,6.942,7.26,6.942l0,0c2.269,0,2.178,2.904,0,2.904h-9.438
			c0,0-11.438,0-11.438,0c-2.178,0-2.269-2.904,0-2.904l0,0c2.178,0,7.26-0.463,7.26-6.942V19.281c0-6.479-5.808-6.942-7.26-6.942
			c-2.178,0-2.269-3.019,0-3.019c1.452,0,7.989,0,10.708,0s5.079,0.815,9.013,5.906s21.539,32.979,21.539,32.979V19.744v-0.463
			c0-6.479-5.808-6.942-7.26-6.942c-2.904,0-2.178-3.019,0-3.019h20.63c2.178,0,2.904,3.019,0,3.019c-2.178,0-7.26,0.463-7.26,6.942
			v0.463v38.874c0,4.141-3.943,4.597-5.943,2.081l-27.81-42.107c0,0,0,29.382,0,34.472v-0.463"/>
		<path fill="#666666" d="M114.93,52.475c0,6.479,5.082,6.942,7.26,6.942l0,0c2.269,0,2.178,2.904,0,2.904h-10.438
			c0,0-9.871,0.213-9.871,0.213c-2.178,0-2.269-2.904,0-2.904l0,0c2.178,0,7.26-0.463,7.26-6.942V19.426
			c0-6.479-5.082-6.942-7.26-6.942l0,0c-2.269,0-2.178-2.904,0-2.904l9.871-0.213c0,0,10.438,0,10.438,0
			c2.178,0,2.269,2.904,0,2.904l0,0c-2.178,0-7.26,0.463-7.26,6.942V52.475z"/>
		<path fill="#666666" d="M146.142,52.475c0,6.479,5.082,6.942,7.26,6.942l0,0c2.269,0,2.178,2.904,0,2.904h-9.438
			c0,0-10.874,0-10.874,0c-2.178,0-2.269-2.904,0-2.904l0,0c2.178,0,7.26-0.463,7.26-6.942V19.213c0-6.479-5.082-6.942-7.26-6.942
			l0,0c-2.269,0-2.178-2.904,0-2.904h10.874c0,0,9.438,0,9.438,0c2.178,0,2.269,2.904,0,2.904l0,0c-2.178,0-7.26,0.463-7.26,6.942
			V52.475z"/>
		<path fill="#666666" d="M140.34,30.087c0,1.392-1.029,2.047-1.815,2.047c-1.357,0-3.402,0-6.271,0c0,0-0.269,0-0.726,0
			c-2.869,0-13.405,0-14.763,0c-0.787,0-1.815-0.655-1.815-2.047l-0.847,6.83l0.847,3.301c0-1.392,1.029-2.084,1.815-2.084
			c1.357,0,11.893,0,14.763,0c0.457,0,0.726,0,0.726,0c2.869,0,4.914,0,6.271,0c0.787,0,1.815,0.672,1.815,2.064l1.338-6.781
			L140.34,30.087z"/>
	</g>
</g>
<g>
	<path fill="#1B6889" d="M80.715,144.927c-1.657,0-3-1.343-3-3v-15c0-1.657,1.343-3,3-3s3,1.343,3,3v15
		C83.715,143.584,82.372,144.927,80.715,144.927z"/>
	<path fill="#1B6889" d="M111.715,144.927c-1.657,0-3-1.343-3-3v-15c0-1.657,1.343-3,3-3s3,1.343,3,3v15
		C114.715,143.584,113.372,144.927,111.715,144.927z"/>
	<path fill="#1B6889" d="M152.435,70.927h-57.72H38.404c-19.813,0-31.094,12.25-31.094,30.938c0,16.25,13.344,26.672,27.984,26.672
		c2.941,0,5.777-0.443,8.421-1.267v14.658c0,1.657,1.343,3,3,3s3-1.343,3-3v-17.391c3.13-1.943,5.754-4.527,7.632-7.609h37.368
		h38.776c1.59,2.608,3.712,4.861,6.224,6.67v18.33c0,1.657,1.343,3,3,3s3-1.343,3-3V126.79c3.034,1.133,6.359,1.747,9.829,1.747
		c14.641,0,27.984-10.422,27.984-26.672C183.529,83.177,172.248,70.927,152.435,70.927z M81.57,100.218
		c0.267,2.198,0.891,7.298,0.084,8.115c-2.354,0-5.862-3.82-8.593-10.88c2.99,0.412,5.779,0.712,8.296,0.929
		C81.419,98.949,81.488,99.547,81.57,100.218z M109.269,100.218c0.086-0.707,0.158-1.332,0.222-1.924
		c2.559-0.231,5.359-0.542,8.332-0.962c-2.738,7.136-6.271,11.001-8.638,11.001C108.379,107.517,109.003,102.416,109.269,100.218z
		 M102.73,98.768c-1.831,4.54-4.67,9.659-8.015,9.659c-3.342,0-5.864-5.109-7.487-9.646c4.672,0.228,7.487,0.146,7.487,0.146
		S97.761,99.012,102.73,98.768z M59.813,95.041c2.449,0.561,4.846,1.043,7.166,1.455c0.153,1.058,0.393,2.286,0.701,3.765
		c0.469,2.252,1.424,6.752,0.893,7.977C65.169,108.126,60.675,101.475,59.813,95.041z M71.581,111.072
		c1.027-1.262,1.197-3.148,1.009-5.362c1.727,2.775,3.85,5.207,6.4,6.217h-8.578C70.854,111.744,71.251,111.477,71.581,111.072z
		 M84.392,111.122c1.257-1.419,1.277-3.748,1.159-6.381c1.745,3.4,3.868,6.115,6.577,7.187H83.4
		C83.757,111.718,84.091,111.461,84.392,111.122z M104.584,104.741c-0.118,2.634,0.254,4.962,1.511,6.381
		c0.301,0.339,0.665,0.596,1.055,0.805h-9.752C100.3,110.855,102.839,108.141,104.584,104.741z M118.162,105.71
		c-0.188,2.214,0.025,4.1,1.053,5.362c0.33,0.406,0.731,0.672,1.178,0.855h-8.707C114.26,110.917,116.434,108.485,118.162,105.71z
		 M123.16,100.261c0.321-1.542,0.571-2.818,0.722-3.905c2.257-0.409,4.574-0.882,6.929-1.429h0.23
		c-0.824,6.47-5.351,13.198-8.774,13.311C121.736,107.013,122.691,102.513,123.16,100.261z M60.475,107.028
		c1.743,2.383,3.85,4.202,6.138,4.899h-7.031C60.052,110.371,60.357,108.735,60.475,107.028z M124.205,111.927
		c2.294-0.699,4.409-2.523,6.158-4.915c0.117,1.712,0.423,3.354,0.895,4.915H124.205z M150.715,83.927H39.909
		c-11,0-19.317,6.688-19.317,17.562c0,7.252,5.093,15.844,15.219,15.844c9.624,0,14.36-5.703,14.36-11.578
		S45.787,94.341,39.6,94.341s-7.942,5.074-7.942,7.949s1.498,6.006,4.623,6.006c2.625,0,4.624-0.497,4.624-3.122
		s-2.75-3.373-4.875-3.373c0,0-0.125-2.873,3.75-2.873c3.75,0,5.375,3.623,5.375,6.877c0,2.841-2.75,6.629-8.25,6.629
		c-6.5,0-10.125-4.992-10.125-10.617s4.125-11.859,13.125-11.859s14.875,7.781,14.875,15.781s-6.625,17.063-19.125,17.063
		s-21.625-9.812-21.625-21.187s7.25-24.687,25.375-24.687h55.311h56.72c18.125,0,25.375,13.312,25.375,24.688
		s-9.125,21.188-21.625,21.188s-19.125-9.062-19.125-17.062s5.875-15.781,14.875-15.781s13.125,6.234,13.125,11.859
		s-3.625,10.617-10.125,10.617c-5.5,0-8.25-3.787-8.25-6.629c0-3.254,1.625-6.877,5.375-6.877c3.875,0,3.75,2.874,3.75,2.874
		c-2.125,0-4.875,0.749-4.875,3.374s2,3.125,4.625,3.125c3.125,0,4.625-3.125,4.625-6s-1.75-7.938-7.938-7.938
		s-10.563,5.562-10.563,11.437s4.751,11.625,14.375,11.625c10.126,0,15.25-8.499,15.25-15.751c0-10.875-8.424-17.625-19.424-17.625"
		/>
</g>
<g>
	<path fill="#666666" d="M11.516,158.638v8.383c0,0.297-0.108,0.556-0.323,0.777c-0.215,0.223-0.475,0.334-0.778,0.334
		c-0.303,0-0.562-0.107-0.777-0.323c-0.216-0.216-0.323-0.479-0.323-0.788v-11.756c-0.027-0.391,0.104-0.688,0.394-0.89
		c0.289-0.201,0.582-0.279,0.878-0.231c0.296,0.047,0.532,0.191,0.707,0.434l6.524,9.029v-8.322c0-0.296,0.108-0.552,0.323-0.768
		c0.215-0.215,0.471-0.323,0.768-0.323s0.556,0.108,0.778,0.323c0.222,0.216,0.333,0.472,0.333,0.768v11.736
		c0,0.31-0.111,0.572-0.333,0.788s-0.488,0.323-0.798,0.323c-0.31,0-0.579-0.135-0.808-0.404c-0.054-0.054-0.087-0.094-0.101-0.121
		L11.516,158.638z"/>
	<path fill="#666666" d="M26.848,155.082v0.425c0,0.31-0.104,0.572-0.313,0.787c-0.208,0.216-0.464,0.323-0.768,0.323
		c-0.303,0-0.562-0.107-0.777-0.323c-0.216-0.215-0.323-0.478-0.323-0.787v-0.425c0-0.296,0.107-0.552,0.323-0.768
		c0.215-0.215,0.475-0.323,0.777-0.323c0.303,0,0.559,0.104,0.768,0.313C26.743,154.514,26.848,154.773,26.848,155.082z
		 M24.979,158.366c0.208-0.209,0.468-0.313,0.778-0.313c0.31,0,0.569,0.104,0.777,0.313c0.209,0.209,0.313,0.475,0.313,0.798v7.878
		c0,0.31-0.104,0.569-0.313,0.777c-0.208,0.209-0.464,0.313-0.768,0.313c-0.303,0-0.562-0.107-0.777-0.323
		c-0.216-0.216-0.323-0.472-0.323-0.768v-7.878C24.666,158.84,24.77,158.575,24.979,158.366z"/>
	<path fill="#666666" d="M31.129,166.647c-1.01-0.989-1.515-2.178-1.515-3.564c0-1.388,0.505-2.572,1.515-3.556
		c1.01-0.982,2.215-1.481,3.616-1.495c1.172,0,2.242,0.371,3.212,1.111c0.229,0.175,0.364,0.414,0.404,0.717
		c0.041,0.304-0.03,0.569-0.212,0.798c-0.182,0.229-0.417,0.364-0.707,0.404s-0.549-0.033-0.778-0.222
		c-0.593-0.432-1.262-0.646-2.01-0.646s-1.417,0.289-2.01,0.868c-0.593,0.579-0.889,1.26-0.889,2.04c0,0.781,0.292,1.458,0.878,2.03
		s1.256,0.858,2.01,0.858c0.754,0,1.427-0.215,2.02-0.646c0.215-0.175,0.472-0.242,0.768-0.202c0.296,0.041,0.536,0.176,0.717,0.404
		c0.182,0.229,0.252,0.488,0.212,0.777c-0.04,0.29-0.175,0.536-0.404,0.737c-0.997,0.715-2.067,1.071-3.212,1.071
		C33.345,168.132,32.14,167.637,31.129,166.647z"/>
	<path fill="#666666" d="M46.259,168.193c-1.36,0-2.512-0.498-3.454-1.495c-0.943-0.996-1.414-2.188-1.414-3.575
		s0.475-2.582,1.424-3.586c0.95-1.003,2.091-1.505,3.424-1.505c1.333,0,2.467,0.509,3.403,1.525s1.404,2.226,1.404,3.626
		s-0.472,2.559-1.414,3.475C48.744,167.681,47.619,168.193,46.259,168.193z M44.32,161.001c-0.484,0.565-0.727,1.266-0.727,2.101
		s0.243,1.549,0.727,2.142c0.525,0.498,1.158,0.747,1.899,0.747s1.374-0.249,1.899-0.747c0.525-0.593,0.788-1.307,0.788-2.142
		s-0.262-1.535-0.788-2.101c-0.579-0.512-1.212-0.768-1.899-0.768C45.532,160.234,44.899,160.49,44.32,161.001z"/>
	<path fill="#666666" d="M54.622,155.103c0-0.31,0.107-0.572,0.323-0.788c0.215-0.215,0.478-0.323,0.788-0.323
		s0.576,0.108,0.798,0.323c0.222,0.216,0.333,0.479,0.333,0.788v11.918c0,0.31-0.111,0.572-0.333,0.788s-0.488,0.323-0.798,0.323
		s-0.572-0.107-0.788-0.323c-0.216-0.216-0.323-0.479-0.323-0.788V155.103z"/>
	<path fill="#666666" d="M59.824,166.658c-0.923-0.983-1.384-2.172-1.384-3.565s0.461-2.586,1.384-3.575
		c0.922-0.99,2.063-1.485,3.424-1.485c0.956,0,1.852,0.297,2.687,0.889c0.067-0.255,0.195-0.468,0.384-0.636
		c0.188-0.168,0.421-0.253,0.697-0.253s0.519,0.108,0.727,0.323c0.209,0.216,0.313,0.472,0.313,0.768v7.938
		c0,0.297-0.104,0.55-0.313,0.758c-0.208,0.209-0.451,0.313-0.727,0.313s-0.508-0.081-0.697-0.242
		c-0.189-0.162-0.316-0.371-0.384-0.627c-0.822,0.579-1.717,0.869-2.687,0.869C61.887,168.132,60.746,167.641,59.824,166.658z
		 M60.601,163.092c0,0.814,0.246,1.498,0.737,2.05c0.492,0.553,1.125,0.828,1.899,0.828s1.414-0.275,1.919-0.828
		c0.505-0.552,0.758-1.231,0.758-2.04c0-0.808-0.256-1.494-0.768-2.061c-0.512-0.565-1.148-0.848-1.909-0.848
		s-1.391,0.279-1.889,0.838C60.85,161.59,60.601,162.278,60.601,163.092z"/>
	<path fill="#666666" d="M78.256,159.143c0.242,0.161,0.394,0.388,0.454,0.677c0.061,0.29,0.017,0.562-0.131,0.818
		c-0.161,0.242-0.387,0.394-0.676,0.454c-0.29,0.061-0.562,0.004-0.818-0.172c-0.754-0.498-1.377-0.747-1.869-0.747
		s-0.892,0.121-1.202,0.363c-0.216,0.148-0.323,0.28-0.323,0.395s0.017,0.198,0.05,0.252s0.104,0.115,0.212,0.182
		c0.296,0.202,0.788,0.364,1.475,0.485l0.02,0.02h0.021c0.713,0.135,1.366,0.337,1.959,0.606s1.03,0.64,1.313,1.111
		c0.283,0.472,0.424,0.936,0.424,1.394c0,0.942-0.424,1.724-1.272,2.343c-0.781,0.539-1.656,0.809-2.626,0.809
		c-1.252-0.014-2.451-0.479-3.596-1.395c-0.215-0.175-0.34-0.414-0.374-0.717c-0.034-0.303,0.043-0.562,0.232-0.777
		c0.175-0.242,0.417-0.377,0.727-0.404c0.31-0.026,0.572,0.054,0.788,0.242c0.728,0.606,1.468,0.902,2.222,0.889
		c0.512,0,0.97-0.127,1.374-0.384c0.242-0.201,0.364-0.373,0.364-0.515s-0.021-0.239-0.061-0.293
		c-0.027-0.067-0.115-0.148-0.263-0.242c-0.323-0.229-0.862-0.417-1.616-0.565h-0.02c-0.714-0.135-1.337-0.33-1.869-0.586
		c-0.532-0.256-0.959-0.626-1.283-1.111c-0.229-0.377-0.343-0.801-0.343-1.272c0-0.875,0.397-1.616,1.192-2.222
		c0.727-0.498,1.559-0.748,2.495-0.748C76.171,158.032,77.178,158.403,78.256,159.143z"/>
	<path fill="#666666" d="M90.143,167.809c-0.222,0.216-0.488,0.323-0.798,0.323c-0.31,0-0.573-0.107-0.788-0.323
		s-0.323-0.479-0.323-0.788v-11.918c0-0.31,0.108-0.572,0.323-0.788c0.215-0.215,0.478-0.323,0.788-0.323
		c0.31,0,0.576,0.108,0.798,0.323c0.222,0.216,0.333,0.479,0.333,0.788v4.848h5.232v-4.848c0-0.31,0.108-0.572,0.323-0.788
		c0.215-0.215,0.478-0.323,0.788-0.323c0.31,0,0.576,0.108,0.798,0.323c0.222,0.216,0.332,0.479,0.332,0.788v11.918
		c0,0.31-0.11,0.572-0.332,0.788c-0.223,0.216-0.489,0.323-0.798,0.323c-0.31,0-0.573-0.107-0.788-0.323s-0.323-0.479-0.323-0.788
		v-4.848h-5.232v4.848C90.476,167.33,90.365,167.593,90.143,167.809z"/>
	<path fill="#666666" d="M106.737,168.193c-1.36,0-2.512-0.498-3.454-1.495c-0.943-0.996-1.414-2.188-1.414-3.575
		s0.475-2.582,1.424-3.586c0.949-1.003,2.091-1.505,3.424-1.505s2.468,0.509,3.404,1.525c0.936,1.017,1.403,2.226,1.403,3.626
		s-0.472,2.559-1.414,3.475C109.221,167.681,108.097,168.193,106.737,168.193z M104.797,161.001
		c-0.484,0.565-0.727,1.266-0.727,2.101s0.242,1.549,0.727,2.142c0.525,0.498,1.158,0.747,1.899,0.747
		c0.74,0,1.373-0.249,1.898-0.747c0.525-0.593,0.788-1.307,0.788-2.142s-0.263-1.535-0.788-2.101
		c-0.579-0.512-1.212-0.768-1.898-0.768C106.009,160.234,105.376,160.49,104.797,161.001z"/>
	<path fill="#666666" d="M120.21,155.093c0,0.303-0.108,0.565-0.323,0.787c-0.216,0.223-0.488,0.334-0.818,0.334
		s-0.535,0.04-0.616,0.121c-0.054,0-0.098,0.114-0.131,0.343c-0.034,0.229-0.051,0.458-0.051,0.688v0.282h0.606
		c0.31,0,0.571,0.108,0.787,0.323c0.216,0.216,0.323,0.475,0.323,0.778c0,0.303-0.107,0.565-0.323,0.787
		c-0.216,0.223-0.478,0.334-0.787,0.334h-0.606V167c0,0.311-0.108,0.573-0.323,0.788c-0.216,0.216-0.479,0.323-0.788,0.323
		s-0.572-0.107-0.787-0.323c-0.216-0.215-0.323-0.478-0.323-0.788v-7.13h-0.525c-0.311,0-0.576-0.108-0.798-0.323
		c-0.223-0.216-0.333-0.479-0.333-0.788s0.11-0.572,0.333-0.788c0.222-0.215,0.487-0.323,0.798-0.323h0.525v-0.282
		c0-2.263,1.017-3.394,3.05-3.394c0.296,0,0.556,0.11,0.777,0.333C120.099,154.528,120.21,154.789,120.21,155.093z"/>
	<path fill="#666666" d="M127.523,155.093c0,0.303-0.108,0.565-0.323,0.787c-0.216,0.223-0.488,0.334-0.818,0.334
		s-0.535,0.04-0.616,0.121c-0.054,0-0.098,0.114-0.131,0.343c-0.034,0.229-0.051,0.458-0.051,0.688v0.282h0.606
		c0.31,0,0.571,0.108,0.787,0.323c0.216,0.216,0.323,0.475,0.323,0.778c0,0.303-0.107,0.565-0.323,0.787
		c-0.216,0.223-0.478,0.334-0.787,0.334h-0.606V167c0,0.311-0.108,0.573-0.323,0.788c-0.216,0.216-0.479,0.323-0.788,0.323
		s-0.572-0.107-0.787-0.323c-0.216-0.215-0.323-0.478-0.323-0.788v-7.13h-0.525c-0.311,0-0.576-0.108-0.798-0.323
		c-0.223-0.216-0.333-0.479-0.333-0.788s0.11-0.572,0.333-0.788c0.222-0.215,0.487-0.323,0.798-0.323h0.525v-0.282
		c0-2.263,1.017-3.394,3.05-3.394c0.296,0,0.556,0.11,0.777,0.333C127.412,154.528,127.523,154.789,127.523,155.093z"/>
	<path fill="#666666" d="M130.654,168.132l-0.202-0.021c-0.256-0.067-0.465-0.195-0.626-0.384c-0.162-0.188-0.242-0.41-0.242-0.667
		v-7.938c0-0.31,0.104-0.568,0.312-0.777s0.461-0.313,0.758-0.313c0.472,0,0.794,0.202,0.97,0.606
		c0.687-0.404,1.407-0.606,2.161-0.606c1.293,0,2.35,0.465,3.172,1.395c0.794-0.93,1.811-1.395,3.05-1.395s2.27,0.414,3.091,1.242
		c0.821,0.829,1.232,1.828,1.232,3v4.787c0,0.297-0.104,0.55-0.313,0.758c-0.209,0.209-0.462,0.313-0.758,0.313
		s-0.552-0.104-0.768-0.313c-0.215-0.208-0.323-0.461-0.323-0.758v-4.787c0-0.579-0.202-1.07-0.605-1.475
		c-0.404-0.404-0.886-0.605-1.444-0.605c-0.56,0-1.04,0.195-1.444,0.585c-0.404,0.392-0.62,0.869-0.646,1.435v4.848
		c0,0.297-0.104,0.55-0.313,0.758c-0.209,0.209-0.458,0.313-0.747,0.313c-0.29,0-0.546-0.107-0.768-0.323
		c-0.223-0.216-0.333-0.465-0.333-0.748v-4.848c-0.014-0.552-0.223-1.026-0.627-1.424c-0.403-0.397-0.885-0.596-1.444-0.596
		c-0.559,0-1.04,0.201-1.443,0.605c-0.404,0.404-0.606,0.896-0.606,1.475v4.787l-0.021,0.142v0.061l-0.061,0.121v0.102
		C131.448,167.916,131.112,168.132,130.654,168.132z"/>
	<path fill="#666666" d="M149.106,166.658c-0.922-0.983-1.384-2.172-1.384-3.565s0.462-2.586,1.384-3.575
		c0.923-0.99,2.063-1.485,3.424-1.485c0.956,0,1.852,0.297,2.687,0.889c0.067-0.255,0.195-0.468,0.384-0.636
		s0.421-0.253,0.697-0.253s0.519,0.108,0.728,0.323c0.208,0.216,0.312,0.472,0.312,0.768v7.938c0,0.297-0.104,0.55-0.312,0.758
		c-0.209,0.209-0.451,0.313-0.728,0.313s-0.509-0.081-0.697-0.242c-0.188-0.162-0.316-0.371-0.384-0.627
		c-0.821,0.579-1.717,0.869-2.687,0.869C151.169,168.132,150.029,167.641,149.106,166.658z M149.884,163.092
		c0,0.814,0.245,1.498,0.737,2.05c0.491,0.553,1.124,0.828,1.898,0.828s1.414-0.275,1.919-0.828c0.505-0.552,0.758-1.231,0.758-2.04
		c0-0.808-0.256-1.494-0.768-2.061c-0.512-0.565-1.148-0.848-1.909-0.848s-1.391,0.279-1.889,0.838S149.884,162.278,149.884,163.092
		z"/>
	<path fill="#666666" d="M163.479,167.061c0,0.297-0.115,0.55-0.344,0.758c-0.229,0.209-0.488,0.313-0.777,0.313
		c-0.29,0-0.539-0.104-0.748-0.313c-0.209-0.208-0.312-0.461-0.312-0.758v-7.958c0-0.297,0.104-0.549,0.312-0.758
		s0.461-0.313,0.758-0.313c0.458,0,0.788,0.209,0.99,0.627c0.659-0.418,1.373-0.627,2.141-0.627c1.172,0,2.168,0.414,2.989,1.242
		c0.821,0.829,1.232,1.815,1.232,2.96v4.827c0,0.297-0.101,0.55-0.303,0.758c-0.202,0.209-0.448,0.313-0.737,0.313
		c-0.29,0-0.542-0.104-0.758-0.313c-0.215-0.208-0.323-0.461-0.323-0.758v-4.827c0-0.565-0.205-1.047-0.616-1.444
		c-0.41-0.397-0.902-0.596-1.475-0.596s-1.054,0.198-1.443,0.596c-0.392,0.397-0.586,0.879-0.586,1.444V167.061z"/>
	<path fill="#666666" d="M175.861,167.061c0,0.297-0.115,0.55-0.344,0.758c-0.229,0.209-0.488,0.313-0.777,0.313
		c-0.29,0-0.539-0.104-0.748-0.313c-0.209-0.208-0.312-0.461-0.312-0.758v-7.958c0-0.297,0.104-0.549,0.312-0.758
		s0.461-0.313,0.758-0.313c0.458,0,0.788,0.209,0.99,0.627c0.659-0.418,1.373-0.627,2.141-0.627c1.172,0,2.168,0.414,2.989,1.242
		c0.821,0.829,1.232,1.815,1.232,2.96v4.827c0,0.297-0.101,0.55-0.303,0.758c-0.202,0.209-0.448,0.313-0.737,0.313
		c-0.29,0-0.542-0.104-0.758-0.313c-0.215-0.208-0.323-0.461-0.323-0.758v-4.827c0-0.565-0.205-1.047-0.616-1.444
		c-0.41-0.397-0.902-0.596-1.475-0.596s-1.054,0.198-1.443,0.596c-0.392,0.397-0.586,0.879-0.586,1.444V167.061z"/>
</g>
</svg>
