<svg xmlns="http://www.w3.org/2000/svg" viewBox="0 0 704 293.49">
  <title>occitech</title>
  <g>
    <g>
      <path d="M570.69,119.5H405.37c-5.57,0-7.74,2.79-7.74,6.19s2.17,6.19,7.74,6.19H570.69c5.57,0,8-2.78,8-6.19S576.26,119.5,570.69,119.5Z" fill="#5269ae"/>
      <path d="M697.93,17.34H602.27c-7.74,0-7.74,12.07,0,12.07h88.54c-4.64,21.36-9.6,43-14.24,64.39H597.63c-10.53-29.72-20.75-59.75-31-89.47C565.74,1.86,563.88,0,561.1,0H524.25c-7.43,0-7.43,12.07,0,12.07h32.51c10.22,29.72,20.74,59.75,31,89.47,3.4,8.36,7.12,17,10.53,25.39.92,2.48,2.78,4.33,5.57,4.33h69.35c7.43,0,7.43-12.07,0-12.07H607.53c-1.85-4.33-3.71-9-5.57-13.31h78.95a6,6,0,0,0,5.57-4.34c5.57-25.38,11.45-51.08,17-76.46C704.43,21.36,701.65,17.34,697.93,17.34Z" fill="#5269ae"/>
      <path d="M480.91,83.59a5.88,5.88,0,0,0,0,11.76H558a5.88,5.88,0,0,0,0-11.76Z" fill="#5269ae"/>
      <path d="M417.45,58.2H539.73c5.89,0,8-2.78,8-5.88s-2.47-5.88-8-5.88H417.45c-5.89,0-8.67,2.78-8.67,5.88C408.78,55.73,411.87,58.51,417.45,58.2Z" fill="#5269ae"/>
    </g>
    <path d="M.09,131.57h12.7A6.32,6.32,0,0,0,19,126.62L30.43,67.8a6.32,6.32,0,0,1,6.19-4.95H66.34a3,3,0,0,0,3.1-2.48l1.86-9c.31-1.86-1.24-4-3.1-4H41.89c-4,0-6.81-3.1-6.19-6.81l4-20.13a6.33,6.33,0,0,1,6.19-4.95H82.75A3,3,0,0,0,85.85,13l1.86-9A3.27,3.27,0,0,0,84.61.31H28.88a3,3,0,0,0-3.09,2.48Zm70.9,0H86.16a3,3,0,0,0,3.09-2.47l9-47.37c4.65-12.69,14.55-18.57,22-18.57a14.73,14.73,0,0,1,5.27.61,2.92,2.92,0,0,0,3.4-1.85l4-10.22c.61-2.17-.62-4.33-2.79-4.33h-4.33c-9.91,0-16.72,1.85-22.91,12.07L102,65.32l2.78-14.55a3,3,0,0,0-3.09-3.4H90.18a3,3,0,0,0-3.09,2.47Zm170-56a1.7,1.7,0,0,1,.93-1.55c8.05-8,13.93-11.45,19.19-11.45,6.82,0,10.22,3.4,10.22,10.52,0,2.48-.62,5-1.24,8.67l-9.9,49.84h15.17a3,3,0,0,0,3.09-2.47l9.91-49.54a51.59,51.59,0,0,0,1.24-11.45c0-13.31-5.58-20.74-19.2-20.74-10.21,0-16.1,1.85-26.31,12.07l1.85-9a3.18,3.18,0,0,0-3.09-3.4H231.35a3,3,0,0,0-3.09,2.47l-16.41,82H227a3,3,0,0,0,3.1-2.47Zm66.56,26.31a53,53,0,0,0-.93,9.6c0,11.46,5.89,20.12,21.06,20.12a38,38,0,0,0,14.55-2.78,3.17,3.17,0,0,0,1.85-3.72l-1.85-6.5a2.94,2.94,0,0,0-4-2.17,10.89,10.89,0,0,1-4.33.93c-6.81,0-9.29-3.09-9.29-9a38,38,0,0,1,.62-5.89l8.36-40.86h17.33a3,3,0,0,0,3.1-2.48l1.55-8.05a3.26,3.26,0,0,0-3.1-3.71H336.61l3.72-18.58a3.26,3.26,0,0,0-3.1-3.71h-8.67a3.74,3.74,0,0,0-3.09,2.16l-5.88,19.82h-9.91a3,3,0,0,0-2.79,2.47L304.73,61.3h11.45ZM510.6,293.49h15.17a3,3,0,0,0,3.1-2.48l9-47.37c4.65-12.69,14.56-18.57,22-18.57a14.47,14.47,0,0,1,5.26.62,2.92,2.92,0,0,0,3.4-1.86l4-10.22c.62-2.16-.62-4.33-2.79-4.33H565.4c-9.91,0-16.72,1.86-22.91,12.07l-.93,5.89,2.79-14.55a3,3,0,0,0-3.1-3.41H529.8a3,3,0,0,0-3.1,2.48ZM0,241.17c0,31.89,17.34,52.32,45.82,52.32,14.86,0,26.62-6.5,35-13.31a2.94,2.94,0,0,0,.62-4l-5.57-8.36a2.81,2.81,0,0,0-4.34-.62c-6.5,5-13.62,8.36-21.36,8.36-20.43,0-28.79-14.24-28.79-35.91,0-29.41,18-59.75,43.34-59.75,7.12,0,12.7,3.71,17,9.91a2.82,2.82,0,0,0,4.34.62L95.35,183a2.94,2.94,0,0,0,.62-4c-6.81-10.22-17-17-30.65-17C27.55,161.6,0,199.37,0,241.17Zm174.3,52.32h15.17a3,3,0,0,0,3.09-2.48l10.53-53.87c8-9,15.17-12.69,19.5-12.69,6.5,0,9.91,3.41,9.91,10.53,0,2.47-.62,5-1.24,8.66l-9.91,49.85h15.17a3,3,0,0,0,3.1-2.48l10.53-53.87c8.35-9,15.17-12.69,19.5-12.69,6.5,0,9.91,3.41,9.91,10.53,0,2.47-.62,5-1.24,8.66l-9.91,49.85h15.48A3,3,0,0,0,287,291l9.9-49.53A51.67,51.67,0,0,0,298.13,230c0-13.31-5.88-20.74-19.19-20.74-8.67,0-18.58,6.19-28.17,15.17-1.55-9-6.2-15.17-18.89-15.17-8.67,0-18.88,6.19-27.24,13.62l.62-8.36a3.18,3.18,0,0,0-3.1-3.4h-8.67a3,3,0,0,0-3.09,2.47Zm126.93,0H316.4a3,3,0,0,0,3.09-2.48L330,237.14c8.05-9,15.17-12.69,19.5-12.69,6.5,0,9.91,3.41,9.91,10.53,0,2.47-.62,5-1.24,8.66l-9.91,49.85h15.17a3,3,0,0,0,3.1-2.48l10.53-53.87c8.36-9,15.17-12.69,19.5-12.69,6.5,0,9.91,3.41,9.91,10.53,0,2.47-.62,5-1.24,8.66l-9.91,49.85h15.48a3,3,0,0,0,3.1-2.48l9.9-49.53A51.67,51.67,0,0,0,425.06,230c0-13.31-5.88-20.74-19.19-20.74-8.67,0-18.58,6.19-28.17,15.17-1.55-9-6.2-15.17-18.89-15.17-8.67,0-18.88,6.19-27.24,13.62l.62-8.36a3.18,3.18,0,0,0-3.1-3.4h-8.67a3,3,0,0,0-3.09,2.47Zm135-34.06c0,21.67,13,34.06,31.89,34.06a47.59,47.59,0,0,0,24.45-6.81,3.43,3.43,0,0,0,1.24-4.34l-3.4-5.88a3,3,0,0,0-4.34-.93c-4,2.48-9,4.65-13.31,4.65-11.15,0-20.12-6.2-19.81-21.06A3.32,3.32,0,0,1,456,256h43.34a3,3,0,0,0,2.79-2.17A47.73,47.73,0,0,0,504.63,239c0-16.72-6.81-29.72-25.08-29.72-20.74,0-43.34,20.12-43.34,50.15Zm22.6-14.86a3,3,0,0,1-2.79-4.33c4.34-11.15,13-17.65,21.36-17.65,9.6,0,13,7.12,13,14.86a19.06,19.06,0,0,1-.31,4.34,3,3,0,0,1-3.1,2.47H458.81Zm176.77,14.86c0,21.67,13,34.06,31.89,34.06a47.62,47.62,0,0,0,24.46-6.81,3.44,3.44,0,0,0,1.23-4.34l-3.4-5.88a3,3,0,0,0-4.34-.93c-4,2.48-9,4.65-13.31,4.65-11.14,0-20.12-6.2-19.81-21.06a3.33,3.33,0,0,1,3.1-3.09h43.34a3,3,0,0,0,2.78-2.17A47.73,47.73,0,0,0,704,239c0-16.72-6.81-29.72-25.08-29.72-21,0-43.34,20.12-43.34,50.15Zm22.6-14.86a3,3,0,0,1-2.78-4.33c4.33-11.15,13-17.65,21.36-17.65,9.59,0,13,7.12,13,14.86a19.06,19.06,0,0,1-.31,4.34,3,3,0,0,1-3.1,2.47H658.18Zm-87.3,16.1c0,20.74,12.69,32.82,30,32.82,10.21,0,17.64-3.72,23.53-7.43a3.07,3.07,0,0,0,.93-4.34l-4-5.88a3,3,0,0,0-4.33-.93,20.65,20.65,0,0,1-12.39,4.34c-10.52,0-16.1-7.12-16.1-19.2,0-20.12,12.39-36.84,26.63-36.84a12.64,12.64,0,0,1,9.91,4,3,3,0,0,0,4.33,0l5.57-6.19a3.3,3.3,0,0,0,0-4.34A26,26,0,0,0,616.08,209c-24.46.31-45.2,22.91-45.2,51.7ZM123.52,293.49c21.68,0,43.66-21.05,43.66-51.7,0-20.13-11.77-32.82-29.72-32.82-21.67,0-43.66,20.74-43.66,51.7C94.11,280.8,105.88,293.49,123.52,293.49Zm12.08-69.35c9.29,0,13.93,7.12,13.93,19.2,0,21-11.76,37.46-24.46,37.46-9.28,0-14.24-7.13-14.24-19.51C110.83,240.55,122.91,224.14,135.6,224.14Zm25.69-91.64c21.68,0,43.66-21,43.66-51.7C205,60.68,193.18,48,175.23,48c-21.68,0-43.66,20.74-43.66,51.7,0,19.81,11.77,32.81,29.72,32.81Zm12.08-69.65c9.29,0,13.93,7.12,13.93,19.19,0,21-11.76,37.46-24.46,37.46-9.29,0-14.24-7.12-14.24-19.5C148.6,79.56,160.68,62.85,173.37,62.85Z" fill="#333"/>
  </g>
</svg>
