<?xml version="1.0" standalone="no"?>
<!DOCTYPE svg PUBLIC "-//W3C//DTD SVG 20010904//EN"
 "http://www.w3.org/TR/2001/REC-SVG-20010904/DTD/svg10.dtd">
<svg version="1.0" xmlns="http://www.w3.org/2000/svg"
 width="273.000000pt" height="273.000000pt" viewBox="0 0 273.000000 273.000000"
 preserveAspectRatio="xMidYMid meet">
<metadata>
Created by potrace 1.11, written by Peter Selinger 2001-2013
</metadata>
<g transform="translate(0.000000,273.000000) scale(0.100000,-0.100000)"
fill="#000000" stroke="none">
<path d="M2335 1989 c-98 -9 -267 -44 -342 -70 -72 -24 -176 -81 -230 -125
-54 -44 -79 -100 -93 -206 -10 -77 -10 -91 6 -123 33 -70 130 -109 349 -140
135 -19 201 -33 240 -52 38 -19 95 -73 95 -89 0 -18 -56 -59 -121 -89 -141
-64 -398 -101 -599 -86 -10 1 -5 9 14 24 39 32 21 40 -44 21 -71 -21 -92 -36
-119 -84 -53 -94 -47 -137 21 -165 69 -27 149 -34 284 -24 378 28 612 130 686
296 39 88 18 172 -55 227 -83 62 -249 122 -455 165 -100 20 -142 41 -142 71 0
57 143 146 304 190 85 22 293 47 304 35 4 -4 -7 -16 -23 -28 -67 -47 -118
-117 -85 -117 5 0 33 15 62 33 29 19 85 51 124 71 104 54 125 80 131 160 l6
66 -35 14 c-31 13 -62 19 -173 30 -16 2 -66 0 -110 -5z"/>
<path d="M595 1968 c-33 -3 -97 -18 -143 -33 -61 -19 -87 -23 -96 -16 -10 8
-34 1 -95 -29 -86 -44 -135 -79 -152 -112 -17 -32 -58 -208 -52 -224 10 -26
46 -14 205 71 266 143 438 185 438 107 0 -45 -25 -78 -239 -313 -184 -203
-261 -321 -261 -401 0 -47 52 -152 87 -175 20 -14 27 -13 68 7 60 29 208 167
368 343 70 78 132 144 137 145 16 6 12 -12 -31 -119 -36 -90 -42 -117 -47
-202 l-5 -98 52 -50 c63 -60 97 -64 175 -19 71 40 194 147 257 222 129 154
250 380 303 563 29 98 32 136 15 184 -14 40 -37 40 -75 -1 -55 -59 -75 -102
-73 -156 3 -59 -42 -156 -135 -297 -112 -167 -360 -396 -386 -355 -10 15 11
92 46 170 30 67 115 205 246 403 54 82 101 160 104 172 7 28 -11 88 -31 105
-39 32 -126 -41 -327 -275 -71 -82 -159 -185 -196 -228 -76 -89 -259 -257
-309 -284 -24 -13 -36 -14 -44 -6 -17 17 18 74 128 208 267 326 323 414 323
509 0 68 -26 143 -56 163 -31 20 -124 30 -199 21z"/>
</g>
</svg>
