<?xml version="1.0" standalone="no"?>
<!DOCTYPE svg PUBLIC "-//W3C//DTD SVG 20010904//EN"
 "http://www.w3.org/TR/2001/REC-SVG-20010904/DTD/svg10.dtd">
<svg version="1.0" xmlns="http://www.w3.org/2000/svg"
 width="500.000000pt" height="500.000000pt" viewBox="0 0 500.000000 500.000000"
 preserveAspectRatio="xMidYMid meet">
<metadata>
Created by potrace 1.11, written by Peter Selinger 2001-2013
</metadata>
<g transform="translate(0.000000,500.000000) scale(0.100000,-0.100000)"
fill="#000000" stroke="none">
<path d="M561 4720 c-4 -3 -7 -126 -7 -275 l0 -270 -277 -3 -277 -2 0 -835 0
-835 277 -2 277 -3 0 -275 1 -275 245 -2 c135 -1 260 -2 278 -2 l32 -1 0 -275
0 -275 277 -2 278 -3 0 -278 0 -277 277 0 278 0 2 -277 3 -278 275 0 275 0 3
278 2 277 278 2 277 3 1 265 c1 146 2 271 3 278 1 9 63 12 276 12 l275 0 0
275 0 275 23 1 c12 0 137 1 278 1 l256 0 0 277 -1 276 277 3 277 2 0 835 0
835 -277 2 -277 3 0 275 -1 274 -555 0 -555 0 -3 -277 -2 -277 -275 0 c-255 0
-275 -1 -276 -17 -1 -10 -2 -135 -3 -278 l-1 -260 -272 -3 c-150 -1 -274 1
-274 5 -1 5 -2 130 -3 278 l-2 270 -277 3 -277 2 0 275 c0 151 -3 275 -7 276
-29 4 -1096 3 -1102 -1z"/>
</g>
</svg>
