<?xml version="1.0" encoding="utf-8"?>
<!DOCTYPE svg PUBLIC "-//W3C//DTD SVG 1.1//EN" "http://www.w3.org/Graphics/SVG/1.1/DTD/svg11.dtd">
<svg style="position: absolute; width: 0; height: 0;" width="0" height="0" version="1.1" xmlns="http://www.w3.org/2000/svg" xmlns:xlink="http://www.w3.org/1999/xlink">
	<defs>
		<symbol id="sw-logo" viewBox="0 0 500 276.37">
			<title>Logo SudWeb</title>
			<g id="sw-hands">
				<polygon id="sw-right" points="437.32 16.02 422.1 26.8 449.67 121.01 409.73 155.09 421.66 169.39 500 104.17 437.32 16.02"/>
				<polygon id="sw-left" points="90.31 155.04 50.33 121.01 82.52 30.07 62.68 16.02 0 104.17 78.34 169.39 90.31 155.04 90.31 155.04"/>
			</g>
			<g id="sw-hands-shadows">
				<polygon id="sw-right-2" points="422.1 26.8 414.21 32.39 436.7 118.5 402.84 146.83 409.73 155.09 449.67 121.01 422.1 26.8"/>
				<polygon id="sw-left-2" points="91.24 36.25 82.52 30.07 50.33 121.01 90.31 155.04 96.71 147.42 62.1 117.92 91.24 36.25"/>
			</g>
			<polygon id="sw-heart" points="410.57 18.46 248.01 87.81 97.95 17.43 62.1 117.92 248.01 276.37 436.7 118.5 410.57 18.46"/>
			<polygon id="sw-heart-top" points="97.95 17.43 248.01 87.81 410.57 18.46 386.14 0 247.99 63.3 120 0.96 97.95 17.43"/>
			<path id="sw-wave-shadow" d="M137.42,133.65l65.41-.3a15.65,15.65,0,0,1,16,8.58c5.33,10.36,11.54,22.2,11.54,22.2l17.76-32.56,17.17,33.15,11.54-22.49s4.44-8.88,16.57-9.17,66.3,0.3,66.3.3-5.33,15.39-17.46,15.69-32.08.52-39.51,0.59c-7.2.07-11-1-19.09,15.39-9.38,18.71-18.05,34-18.05,34l-17.46-35.52-17.17,35.81s-11.84-22-18.94-35.81-9.62-14.21-22.49-14.21c-20.73,0-35.76.25-38.77,0.3C144.42,149.74,138,144,137.42,133.65Z"/>
			<path id="sw-wave" d="M127.65,117.07l71.16-.32a17,17,0,0,1,17.39,9.34c5.8,11.27,12.56,24.15,12.56,24.15l19.32-35.42,18.67,36.06,12.56-24.47s4.83-9.66,18-10,72.12,0.32,72.12.32-1.2,16.74-14.4,17.06-39.49.56-47.58,0.64c-7.84.08-11.91-1.09-20.77,16.74-10.21,20.35-19.64,37-19.64,37l-19-38.64-18.67,39s-12.88-24-20.61-39-10.46-15.45-24.47-15.45c-22.55,0-38.9.27-42.18,0.32C135.27,134.57,128.3,128.34,127.65,117.07Z"/>
		</symbol>
		<symbol id="educ" viewBox="0 0 32 32">
			<path d="M27,6H11a5,5,0,0,0-5,5V27a5,5,0,0,0,5,5H27a5,5,0,0,0,5-5V11A5,5,0,0,0,27,6ZM13,28a3,3,0,1,1,3-3A3,3,0,0,1,13,28Zm0-12a3,3,0,1,1,3-3A3,3,0,0,1,13,16Zm6,6a3,3,0,1,1,3-3A3,3,0,0,1,19,22Zm6,6a3,3,0,1,1,3-3A3,3,0,0,1,25,28Zm0-12a3,3,0,1,1,3-3A3,3,0,0,1,25,16ZM25.9,4A5,5,0,0,0,21,0H5A5,5,0,0,0,0,5V21a5,5,0,0,0,4,4.9V6A2,2,0,0,1,6,4H25.9Z"/>
		</symbol>
		<symbol id="well" viewBox="0 0 32 32">
			<path d="M16,0A16,16,0,1,0,32,16,16,16,0,0,0,16,0Zm5.33,7.75c1.1,0,2,1.19,2,2.67s-0.9,2.67-2,2.67-2-1.19-2-2.67S20.23,7.75,21.33,7.75Zm-10.77,0c1.1,0,2,1.19,2,2.67s-0.9,2.67-2,2.67-2-1.19-2-2.67S9.46,7.77,10.57,7.77Zm5.27,18c-5.47,0-9.14-3.58-9.8-9.54H7.32q1.57,6.92,8.5,6.92t8.5-6.92h1.33C25,22.17,21.31,25.75,15.83,25.75Z"/>
		</symbol>
		<symbol id="expe" viewBox="0 0 32 32">
			<path d="M25.64,9.63V6.39H6.39V9.63H25.64Zm-6.39,9.62V16H6.39v3.23H19.25Zm-12.86-8v3.23H25.64V11.2H6.39ZM28.87,0a3,3,0,0,1,2.22.94A3,3,0,0,1,32,3.16V22.41a3.16,3.16,0,0,1-.94,2.26,3,3,0,0,1-2.22,1H6.39L0,32V3.16A3,3,0,0,1,.94.94,3,3,0,0,1,3.16,0H28.87Z"/>
		</symbol>
		<symbol id="crea" viewBox="0 0 32 32">
			<path d="M16.14,0a8.73,8.73,0,0,0-9,8.85c0,4.73,4.4,7.71,4.4,15.44H16l4.31,0c0.13-7.79,4.46-10.86,4.46-15.5A8.59,8.59,0,0,0,16.14,0ZM19.8,25.44H12.14a0.55,0.55,0,1,0,0,1.09H19.8A0.55,0.55,0,0,0,19.8,25.44Zm0,2.19H12.14a0.55,0.55,0,1,0,0,1.09H19.8A0.55,0.55,0,0,0,19.8,27.62Zm-7.11,2.19v1.09A1.09,1.09,0,0,0,13.78,32h4.39a1.09,1.09,0,0,0,1.09-1.09V29.81H12.69Z"/>
		</symbol>
		<symbol id="clap" viewBox="0 0 400 400">
			<path d="M75,25H0v75H125Zm250,75L275,25H225l50,75h50Zm-100,0L175,25H125l50,75h50Zm100,75H275l50-50H275l-50,50H175l50-50H175l-50,50H75l50-50H0V375H400V125H375Zm0-150,50,75h25V25H325Z"/>
		</symbol>
		<symbol id="move" viewBox="0 0 400 400">
			<path d="M126.8,114.8c25.2,0,46.4-20.8,46.4-46.8a46.61,46.61,0,0,0-46.8-46.8C100.4,21.2,80,42,80,68A46.61,46.61,0,0,0,126.8,114.8Zm146.8,264a46.8,46.8,0,0,0,0-93.6c-25.2,0-46.8,20.8-46.8,46.8A46.61,46.61,0,0,0,273.6,378.8ZM333.2,280L400,213.2H266.8ZM0,186.8H133.2L66.8,120ZM200,360V306.8C142,306.8,93.2,258,93.2,200V170.8H40V200C40,285.2,114.8,360,200,360ZM306.8,229.2H360V200c0-85.2-74.8-160-160-160V93.2c58,0,106.8,48.8,106.8,106.8v29.2Z"/>
		</symbol>
		<symbol id="write" viewBox="0 0 400 400">
			<path d="M350,138.39V350a50,50,0,0,1-50,50H50A50,50,0,0,1,0,350V100A50,50,0,0,1,50,50H261.6l-50,50H50V350H300V188.4Zm-38.38-103L293.95,53l53,53,17.68-17.68ZM347,0L329.3,17.68l53,53L400,53ZM117.19,229.83l53,53L329.3,123.75l-53-53ZM100,300h50l-50-50v50Z"/>
		</symbol>
		<symbol id="people" viewBox="0 0 400 400">
			<path d="M252.17,242.1s-107.51,0-147.83,94.09c0,0,67.32,26.87,147.83,26.87S400,336.18,400,336.18C359.69,242.1,252.17,242.1,252.17,242.1Zm0-13.41c40.31,0,67.18-40.31,67.18-107.53S252.17,54,252.17,54,185,54,185,121.16,211.86,228.69,252.17,228.69ZM121.74,182.83c13.25,0,24.63-5.5,33.65-15.39a193.28,193.28,0,0,1-5.18-46.28c0-25.83,9.93-41.67,22.16-51.44C159,39,121.74,38.95,121.74,38.95s-55.34,0-55.34,55.34S88.54,182.83,121.74,182.83Zm52.17,43.37L172,204.32a157.49,157.49,0,0,0-50.3-10.43S33.2,193.89,0,271.37c0,0,42.8,17.06,98.17,21.22C146.4,242.1,173.91,226.2,173.91,226.2Z"/>
		</symbol>
		<symbol id="thumb" viewBox="0 0 400 400">
			  <path d="M281.07,141.38c-3-7.89,78.64-80.75,31.07-139.8C301-12.22,263.22,67.69,209.58,103.87c-29.6,20-98.47,62.44-98.47,85.93v152c0,28.24,109.2,58.15,192.17,58.15,30.42,0,74.49-190.57,74.49-220.84S284,149.29,281.07,141.38ZM88.89,143.49c-14.62,0-66.67,8.89-66.67,69.4V320.62c0,60.47,52,67.13,66.67,67.13S66.67,375,66.67,337.53V195.91C66.67,156.63,103.49,143.49,88.89,143.49Z"/>
		</symbol>
		<symbol id="clock" viewBox="0 0 400 400">
			  <path d="M361,176.32C342.14,124.06,296.14,84,239,71.19A81,81,0,1,1,361,176.32ZM205,39.38v51c77.83,3.17,140,67.1,140,145.7a145.17,145.17,0,0,1-29.24,87.4l33.82,58.6-28.1,16.24-28.95-50.16a145.88,145.88,0,0,1-186.66.4L76.16,400l-28.1-16.24L82.59,324A145.13,145.13,0,0,1,53,236.09C53,158,114.33,94.44,191.42,90.47V39.38A20.39,20.39,0,1,1,205,39.38ZM85.42,236.09A113.56,113.56,0,1,0,199,122.54,113.55,113.55,0,0,0,85.42,236.09ZM233,260.65H192.27a13.59,13.59,0,0,1-13.59-13.59V192.71a13.58,13.58,0,1,1,27.17,0v40.75H233A13.59,13.59,0,0,1,233,260.65ZM39,176.32a81,81,0,1,1,122-105.13C103.87,84,57.87,124.06,39,176.32Z"/>
		</symbol>
		<symbol id="stop" viewBox="0 0 400 400">
			  <path d="M200,0C89.54,0,0,89.54,0,200S89.54,400,200,400s200-89.54,200-200S310.46,0,200,0Zm0,362.5A162.5,162.5,0,1,1,362.5,200,162.5,162.5,0,0,1,200,362.5ZM125,125H275V275H125V125Z"/>
		</symbol>
		<symbol id="rocket" viewBox="0 0 294.3 400">
			<path d="M244.4,204.1c-5.9,50.3-22,92-34.5,118.2c7.9,5,19.1,15.4,21.8,25.8c6.1,23.1-10.2,44.2,5.1,51c11.2,5,35.7-10.2,54.4-96.9C306.1,233,262.6,210.4,244.4,204.1z"/>
			<path d="M85.2,321.8c-12.5-26.4-28.5-68-34.3-118.1c-17.6,5.8-63,28-47.8,98.5c18.7,86.7,43.2,101.9,54.4,96.9c15.3-6.8-1-27.9,5.1-51C65.4,337.4,77.2,326.6,85.2,321.8z"/>
			<path d="M132.8,354.2c1.3,25.3,8.1,44,16.4,44c8.3,0,15.1-18.7,16.4-44H132.8z"/>
			<path d="M148.3,0h-1.4C33.6,59,58.5,201.8,58.5,201.8c9.6,85,49.9,144,49.9,144h78.5c0,0,40.2-59,49.9-144C236.8,201.8,261.7,59,148.3,0z M147.7,182.9c-9.9,0-17.9-8-17.9-17.9c0-9.9,8-17.9,17.9-17.9s17.9,8,17.9,17.9C165.6,174.9,157.6,182.9,147.7,182.9z M147.1,114.8c-16.7,0-30.2-13.5-30.2-30.2s13.5-30.2,30.2-30.2s30.2,13.5,30.2,30.2S163.8,114.8,147.1,114.8z"/>
		</symbol>
		<symbol id="tram" viewBox="0 0 400 400">
			<path d="M324.84,375l-31.89-27.58a37.89,37.89,0,0,0,29.38-36.88V71.6a37.94,37.94,0,0,0-37.93-37.93H265.5V15.17A15.17,15.17,0,0,0,250.33,0h-8.07A15.17,15.17,0,0,0,227.1,15.17V33.66h-55V15.17A15.17,15.17,0,0,0,156.93,0h-8.06A15.17,15.17,0,0,0,133.7,15.17V33.66h-19A37.93,37.93,0,0,0,76.73,71.6v239a37.92,37.92,0,0,0,30.08,37.09L75.16,375a14.22,14.22,0,1,0,18.61,21.51l55.55-48H250.69l55.53,48A14.22,14.22,0,0,0,324.84,375ZM133.3,303.29A24.66,24.66,0,1,1,158,278.63,24.65,24.65,0,0,1,133.3,303.29Zm132.91,0a24.66,24.66,0,1,1,24.66-24.65A24.65,24.65,0,0,1,266.22,303.29ZM291,169.9a15.18,15.18,0,0,1-15.17,15.17H124.15A15.17,15.17,0,0,1,109,169.9V109.84a15.17,15.17,0,0,1,15.17-15.17H275.87A15.18,15.18,0,0,1,291,109.84V169.9Z"/>
		</symbol>
		<symbol id="bus" viewBox="0 0 400 400">
  			<path d="M382.46,139a17.56,17.56,0,0,0-17.54,17.54,17.17,17.17,0,0,0,12.84,16.81v10.68H346.09V82.52A56.54,56.54,0,0,0,289.59,26H110.48A56.54,56.54,0,0,0,54,82.52V184.05H22.3V173.37a17.11,17.11,0,0,0,12.77-16.81,17.54,17.54,0,0,0-35.07,0,17.32,17.32,0,0,0,12.84,16.81v20.06H54v124.7h18.4v46.4A9.43,9.43,0,0,0,81.76,374h35.07a9.43,9.43,0,0,0,9.38-9.45v-46.4H273.79v46.4a9.49,9.49,0,0,0,9.45,9.45h35a9.44,9.44,0,0,0,9.45-9.45v-46.4h18.4V193.44h41.13V173.37A17.26,17.26,0,0,0,400,156.56,17.56,17.56,0,0,0,382.46,139ZM291.76,51.85a17.5,17.5,0,1,1-17.46,17.46A17.45,17.45,0,0,1,291.76,51.85Zm-150.6,3.54c0-1.95,2.09-3.61,4.69-3.61H254.23c2.6,0,4.69,1.66,4.69,3.61V83.32c0,1.95-2.09,3.54-4.69,3.54H145.84c-2.6,0-4.69-1.59-4.69-3.54V55.39Zm-32.91-3.54A17.5,17.5,0,1,1,90.71,69.31,17.49,17.49,0,0,1,108.24,51.85Zm0,202a17.5,17.5,0,1,1,17.54-17.46A17.54,17.54,0,0,1,108.24,253.84ZM258.92,286.6c0,1.44-2.09,2.52-4.69,2.52H145.84c-2.6,0-4.69-1.08-4.69-2.52V266.68c0-1.37,2.09-2.52,4.69-2.52H254.23c2.6,0,4.69,1.16,4.69,2.52V286.6h0Zm0-34.35c0,1.37-2.09,2.52-4.69,2.52H145.84c-2.6,0-4.69-1.16-4.69-2.52V232.33c0-1.44,2.09-2.6,4.69-2.6H254.23c2.6,0,4.69,1.16,4.69,2.6v19.92h0Zm32.84,1.59a17.5,17.5,0,1,1,17.54-17.46A17.48,17.48,0,0,1,291.76,253.84Zm26-66a9.36,9.36,0,0,1-9.38,9.38H91.65a9.43,9.43,0,0,1-9.45-9.38v-74a9.43,9.43,0,0,1,9.45-9.38H308.43a9.36,9.36,0,0,1,9.38,9.38v74h0Z"/>
		</symbol>
		<symbol id="flickr" viewBox="0 0 500 500">
			<title>flickr</title>
			  <path d="M0,250A109.38,109.38,0,1,1,109.38,359.38,109.37,109.37,0,0,1,0,250Zm281.25,0A109.38,109.38,0,1,1,390.63,359.38,109.37,109.37,0,0,1,281.25,250Z"/>
		</symbol>
		<symbol id="twitter" viewBox="0 0 500 500">
			<title>twitter</title>
			  <path d="M500,95.17a214.82,214.82,0,0,1-51.39,53q0.32,4.45.32,13.32a291.08,291.08,0,0,1-12.06,82.33,297.45,297.45,0,0,1-36.65,78.84,310.11,310.11,0,0,1-58.54,66.78q-33.95,29-81.84,46.31T157.35,453Q71.39,453,0,407a217.7,217.7,0,0,0,24.75,1.28q71.39,0,127.22-43.77a102.69,102.69,0,0,1-95.81-71.06A130.12,130.12,0,0,0,75.51,295a105.89,105.89,0,0,0,27-3.49,100.73,100.73,0,0,1-58.84-35.37Q20.32,228.1,20.32,191v-1.28a101.59,101.59,0,0,0,46.31,13,102.59,102.59,0,0,1-33.32-36.49A99.56,99.56,0,0,1,21,117.39a100.35,100.35,0,0,1,14-51.71,290.71,290.71,0,0,0,93.44,75.67,285.38,285.38,0,0,0,117.86,31.57,113.85,113.85,0,0,1-2.54-23.47q0-42.52,30-72.48t72.48-30Q390.58,47,421,79.34a200.78,200.78,0,0,0,65-24.75Q474.32,91.07,441,111.05a204,204,0,0,0,59-15.86Z"/>
		</symbol>
		<symbol id="facebook" viewBox="0 0 500 500">
			<title>facebook</title>
			<path d="M379.81,3.63V83H332.64q-25.85,0-34.87,10.81t-9,32.44V183h88l-11.71,88.94H288.75V500H196.81V271.94H120.19V183h76.62V117.5q0-55.89,31.25-86.69T311.29,0q44.17,0,68.52,3.6v0Z"/>
		</symbol>
		<symbol id="vimeo" viewBox="0 0 500 500">
			<title>vimeo</title>
			  <path d="M499.74,133.94q-3.07,72.48-102,200Q295.49,466.29,225.15,466.29q-43.62,0-73.72-80.78-13.53-49.15-40.56-148Q88.76,157,62.65,157q-5.52,0-39,23.35L0,150.24q7.37-6.45,33.16-29.65T73.09,85.11q47.93-42.38,74-44.84,29.17-2.77,47,17T219,119.83Q232.54,208,239.28,234.4q16.89,76.49,36.86,76.49,15.67,0,47.3-49.46,31-49.46,33.48-75.57,4-42.7-33.48-42.7-17.52,0-37.17,8,36.86-120.72,141-117.34Q504.36,36.26,499.74,133.94Z"/>
		</symbol>
		<symbol id="video" viewBox="0 0 24 24">
			<title>Vidéo</title>
				<path d="M15.984 11.016l-6.984 3.984v-8.016zM21 17.016v-12h-18v12h18zM21 3q0.797 0 1.406 0.586t0.609 1.43l-0.047 12q0 0.797-0.586 1.383t-1.383 0.586h-5.016v2.016h-7.969v-2.016h-5.016q-0.844 0-1.43-0.586t-0.586-1.383v-12q0-0.844 0.586-1.43t1.43-0.586h18z"></path>
		</symbol>
		<symbol id="slack" viewBox="0 0 951 1024">
      <title>Slack</title>
      <path class="path1" d="M868 443.429q35.429 0 59.143 23.143t23.714 58q0 55.429-53.143 74.286l-98.286 33.714 32 95.429q4 12 4 26.857 0 33.714-24 58.286t-57.714 24.571q-26.857 0-48.857-15.429t-30.571-41.143l-31.429-94.286-177.143 60.571 31.429 93.714q4.571 13.714 4.571 26.857 0 33.714-24 58.286t-58.286 24.571q-26.857 0-48.571-15.429t-30.286-41.143l-31.429-93.143-87.429 30.286q-16.571 5.143-28.571 5.143-34.857 0-58-22.857t-23.143-57.714q0-26.857 15.714-48.571t40.857-30.286l89.143-30.286-60-178.857-89.143 30.857q-14.857 4.571-27.429 4.571-34.286 0-57.714-23.143t-23.429-57.429q0-26.857 15.714-48.571t40.857-30.286l89.714-30.286-30.286-90.857q-4.571-13.714-4.571-26.857 0-34.286 24-58.571t58.286-24.286q26.857 0 48.571 15.429t30.286 41.143l30.857 91.429 177.143-60-30.857-91.429q-4.571-13.714-4.571-26.857 0-33.714 24.286-58.286t58-24.571q26.857 0 48.857 15.714t30.571 40.857l30.286 92 92.571-31.429q12-3.429 24.571-3.429 34.286 0 58.571 22.571t24.286 56.286q0 25.714-17.143 46.571t-42.286 29.429l-89.714 30.857 60 180.571 93.714-32q13.714-4.571 26.286-4.571zM414.286 593.143l177.143-60-60-180-177.143 61.143z"></path>
    </symbol>
		<symbol id="slides" viewBox="0 0 16 16">
		<title>Slides</title>
		<path d="M16 5l-8-4-8 4 8 4 8-4zM8 2.328l5.345 2.672-5.345 2.672-5.345-2.672 5.345-2.672zM14.398 7.199l1.602 0.801-8 4-8-4 1.602-0.801 6.398 3.199zM14.398 10.199l1.602 0.801-8 4-8-4 1.602-0.801 6.398 3.199z"></path>
		</symbol>
    <symbol id="tree" viewBox="0 0 80.613 93.898">
			<title>Tree</title>
			<path d="M48.84,53.988c1.693,0.019,3.084-1.34,3.103-3.034c0.019-1.693-1.34-3.084-3.033-3.103 c-0.04,0-0.079,0.001-0.118,0.002c-1.642,0.045-2.966,1.378-2.985,3.03c-0.018,1.656,1.276,3.02,2.916,3.101 C48.761,53.985,48.8,53.988,48.84,53.988"/>
			<path d="M44.068,52.648h-0.119c-1.642,0-2.966,1.218-2.983,2.871c-0.019,1.655,1.275,2.938,2.915,3.02 c0.039,0.002,0.078-0.036,0.119-0.036c1.693,0.019,3.082-1.199,3.101-2.894C47.118,53.916,45.76,52.648,44.068,52.648"/>
			<path d="M60.857,55.636c-0.039,0.005-0.077,0.011-0.115,0.017c-1.593,0.239-2.723,1.697-2.543,3.309 c0.181,1.613,1.604,2.785,3.211,2.667c0.037-0.002,0.077-0.005,0.114-0.009c1.652-0.185,2.843-1.674,2.656-3.327 C63.997,56.642,62.507,55.454,60.857,55.636"/>
			<path d="M57.558,54.159c0.048-0.003,0.097-0.006,0.145-0.011c2.062-0.231,3.548-2.09,3.317-4.154 c-0.229-2.061-2.089-3.546-4.151-3.316c-0.048,0.005-0.096,0.013-0.144,0.02c-1.989,0.299-3.398,2.117-3.175,4.131 C53.776,52.842,55.552,54.306,57.558,54.159"/>
			<path d="M80.59,42.804c-0.225-2.008-2.037-3.457-4.045-3.232c-0.048,0.006-0.095,0.013-0.142,0.02 c-1.938,0.292-3.313,2.065-3.093,4.026c0.218,1.963,1.951,3.39,3.905,3.248c0.047-0.004,0.094-0.007,0.142-0.012 C79.366,46.628,80.814,44.815,80.59,42.804"/>
			<path d="M67.46,56.151c-0.039,0.004-0.077,0.01-0.114,0.015c-1.594,0.24-2.724,1.697-2.544,3.309 c0.181,1.614,1.604,2.786,3.21,2.669c0.039-0.004,0.078-0.006,0.116-0.01c1.65-0.185,2.84-1.675,2.656-3.326 S69.11,55.966,67.46,56.151"/>
			<path d="M66.184,50.615c-0.027-0.025-0.057-0.05-0.084-0.073c-1.189-0.996-2.961-0.881-4.009,0.275 c-1.049,1.16-0.986,2.935,0.123,4.019c0.026,0.025,0.053,0.052,0.08,0.077c1.186,1.072,3.02,0.981,4.095-0.206 C67.462,53.521,67.369,51.689,66.184,50.615"/>
			<path d="M72.321,43.339c-1.039-0.871-2.588-0.771-3.503,0.241c-0.917,1.014-0.863,2.565,0.106,3.512 c0.023,0.022,0.047,0.045,0.072,0.068c1.036,0.938,2.638,0.857,3.577-0.18c0.938-1.036,0.858-2.638-0.179-3.576 C72.369,43.381,72.345,43.36,72.321,43.339"/>
			<path d="M72.955,39.016c1.037,0.938,2.64,0.858,3.577-0.18c0.939-1.036,0.859-2.638-0.177-3.576 c-0.025-0.021-0.051-0.043-0.074-0.064c-1.039-0.871-2.588-0.771-3.504,0.241c-0.917,1.013-0.862,2.564,0.107,3.511 C72.909,38.971,72.931,38.994,72.955,39.016"/>
			<path d="M72.029,48.376c-0.053,0-0.104,0.001-0.156,0.002c-2.157,0.059-3.898,1.812-3.923,3.983 c-0.023,2.176,1.677,3.968,3.833,4.074c0.051,0.003,0.104,0.005,0.155,0.006c2.226,0.024,4.052-1.761,4.076-3.989 C76.038,50.227,74.253,48.401,72.029,48.376"/>
			<path d="M11.554,48.532c0.041-0.013,0.083-0.025,0.125-0.039c1.763-0.593,2.712-2.505,2.119-4.27 c-0.593-1.762-2.505-2.712-4.268-2.12c-0.042,0.014-0.082,0.03-0.123,0.045c-1.687,0.64-2.578,2.502-1.999,4.223 C7.988,48.095,9.824,49.042,11.554,48.532"/>
			<path d="M29.785,39.109c-0.026,0.028-0.05,0.057-0.075,0.086c-1.029,1.199-0.935,3.005,0.232,4.087 c1.168,1.082,2.977,1.041,4.095-0.077c0.026-0.026,0.054-0.054,0.08-0.082c1.107-1.195,1.036-3.064-0.16-4.173 C32.762,37.843,30.893,37.915,29.785,39.109"/>
			<path d="M20.452,45.479c0.03-0.029,0.06-0.06,0.089-0.09c1.24-1.327,1.168-3.41-0.16-4.651 c-1.327-1.239-3.41-1.168-4.648,0.159c-0.029,0.031-0.058,0.063-0.085,0.096c-1.151,1.331-1.053,3.344,0.241,4.554 C17.186,46.758,19.202,46.719,20.452,45.479"/>
			<path d="M3.861,46.773c-0.034,0.006-0.068,0.015-0.102,0.022c-1.399,0.326-2.3,1.702-2.026,3.121 c0.275,1.423,1.624,2.363,3.043,2.145c0.034-0.005,0.068-0.01,0.103-0.018c1.455-0.28,2.407-1.689,2.125-3.146 C6.723,47.443,5.314,46.491,3.861,46.773"/>
			<path d="M32.129,47.668c-0.351,1.455,0.516,2.918,1.946,3.32c0.034,0.01,0.068,0.019,0.104,0.027 c1.488,0.357,2.987-0.56,3.346-2.05c0.357-1.488-0.56-2.987-2.048-3.345c-0.036-0.008-0.071-0.016-0.105-0.022 C33.915,45.305,32.478,46.214,32.129,47.668"/>
			<path d="M9.693,53.546c1.236,0.297,2.48-0.465,2.778-1.702c0.297-1.236-0.465-2.479-1.701-2.776 c-0.028-0.008-0.058-0.013-0.087-0.019c-1.208-0.243-2.401,0.512-2.691,1.718c-0.291,1.208,0.428,2.423,1.615,2.757 C9.636,53.531,9.664,53.539,9.693,53.546"/>
			<path d="M30.465,53.844c-0.046-0.011-0.093-0.02-0.139-0.03c-1.935-0.388-3.844,0.82-4.308,2.751 c-0.465,1.934,0.686,3.877,2.585,4.412c0.046,0.013,0.091,0.025,0.139,0.036c1.978,0.477,3.97-0.743,4.446-2.725 C33.662,56.311,32.443,54.32,30.465,53.844"/>
			<path d="M20.749,53.118c-0.04,0.017-0.078,0.037-0.117,0.056c-1.598,0.787-2.298,2.704-1.566,4.342 c0.733,1.641,2.628,2.397,4.282,1.732c0.04-0.016,0.079-0.032,0.119-0.05c1.678-0.75,2.431-2.721,1.681-4.4 C24.396,53.121,22.427,52.368,20.749,53.118"/>
			<path d="M20.396,48.879c-0.78-1.746-2.83-2.528-4.576-1.748c-0.041,0.018-0.082,0.038-0.121,0.058 c-1.663,0.82-2.392,2.814-1.63,4.518c0.763,1.706,2.734,2.493,4.455,1.802c0.042-0.016,0.083-0.034,0.124-0.052 C20.394,52.677,21.178,50.627,20.396,48.879"/>
			<path d="M15.314,53.93c-0.054-0.021-0.109-0.041-0.165-0.062c-2.292-0.838-4.853,0.28-5.782,2.555 c-0.932,2.276,0.11,4.869,2.333,5.879c0.053,0.024,0.107,0.048,0.162,0.071c2.33,0.952,4.994-0.165,5.948-2.497 C18.76,57.547,17.642,54.884,15.314,53.93"/>
			<path d="M32.576,17.553c-1.649-0.711-3.575,0.002-4.354,1.634c-0.78,1.633-0.123,3.581,1.467,4.415 c0.038,0.021,0.077,0.04,0.116,0.059c1.671,0.798,3.674,0.088,4.472-1.584c0.797-1.67,0.088-3.673-1.582-4.47 C32.654,17.587,32.615,17.57,32.576,17.553"/>
			<path d="M26.243,10.715c0.047,0.024,0.094,0.05,0.143,0.072c2.057,0.981,4.522,0.108,5.504-1.95 c0.981-2.056,0.108-4.521-1.948-5.503c-0.048-0.022-0.098-0.044-0.146-0.065c-2.029-0.875-4.401,0.004-5.359,2.011 C23.476,7.291,24.285,9.688,26.243,10.715"/>
			<path d="M21.84,26.096c0.039,0.02,0.077,0.04,0.116,0.059c1.67,0.797,3.673,0.088,4.472-1.584 c0.796-1.67,0.087-3.673-1.583-4.47c-0.039-0.019-0.079-0.036-0.118-0.053c-1.648-0.711-3.576,0.003-4.354,1.634 C19.594,23.314,20.25,25.261,21.84,26.096"/>
			<path d="M13.884,17.603c0.048,0.025,0.098,0.051,0.148,0.075c2.128,1.015,4.679,0.112,5.696-2.019 c1.016-2.128,0.113-4.679-2.016-5.696c-0.05-0.023-0.101-0.045-0.151-0.067c-2.1-0.906-4.554,0.004-5.546,2.082 C11.021,14.059,11.858,16.54,13.884,17.603"/>
			<path d="M22.396,41.009c1.67,0.797,3.673,0.088,4.471-1.584c0.797-1.67,0.088-3.673-1.583-4.47 c-0.039-0.018-0.079-0.036-0.119-0.053c-1.648-0.71-3.574,0.003-4.354,1.634c-0.779,1.633-0.122,3.581,1.467,4.415 C22.318,40.971,22.357,40.991,22.396,41.009"/>
			<path d="M18.233,33.563c1.884,0.898,4.141,0.1,5.041-1.786c0.898-1.882,0.099-4.139-1.784-5.038 c-0.044-0.021-0.089-0.041-0.133-0.06c-1.858-0.801-4.03,0.003-4.907,1.841c-0.879,1.841-0.138,4.036,1.654,4.977 C18.145,33.52,18.188,33.543,18.233,33.563"/>
			<path d="M23.306,18.848c0.047,0.025,0.095,0.049,0.143,0.073c2.061,0.983,4.532,0.109,5.518-1.955 c0.983-2.062,0.108-4.532-1.953-5.516c-0.049-0.022-0.097-0.044-0.146-0.065c-2.034-0.877-4.411,0.003-5.371,2.016 C20.533,15.416,21.344,17.819,23.306,18.848"/>
			<path d="M2.358,32.419c2.061,0.984,4.533,0.109,5.517-1.955c0.983-2.061,0.108-4.531-1.952-5.515 c-0.049-0.023-0.098-0.044-0.147-0.065c-2.033-0.877-4.41,0.003-5.371,2.016c-0.961,2.015-0.151,4.417,1.81,5.447 C2.263,32.371,2.309,32.396,2.358,32.419"/>
			<path d="M12.781,28.445c0.063-0.001,0.128-0.003,0.192-0.007c2.743-0.171,4.83-2.537,4.659-5.283 c-0.172-2.742-2.537-4.829-5.28-4.658c-0.064,0.004-0.128,0.011-0.192,0.017c-2.652,0.267-4.637,2.583-4.47,5.262 C7.859,26.457,10.116,28.51,12.781,28.445"/>
			<path d="M13.861,30.661c-0.065-0.024-0.13-0.047-0.196-0.068c-2.708-0.907-5.668,0.481-6.686,3.173 c-1.018,2.694,0.284,5.694,2.917,6.805c0.063,0.027,0.127,0.054,0.191,0.078c2.756,1.041,5.837-0.352,6.88-3.111 C18.008,34.783,16.617,31.702,13.861,30.661"/>
			<path d="M49.386,28.922c0.043,0.02,0.085,0.041,0.128,0.06c1.834,0.811,3.98-0.02,4.793-1.856 c0.812-1.833-0.019-3.98-1.854-4.791c-0.043-0.019-0.086-0.037-0.129-0.054c-1.809-0.719-3.872,0.115-4.664,1.905 C46.867,25.979,47.639,28.067,49.386,28.922"/>
			<path d="M44.704,31.728c1.014-0.069,1.78-0.949,1.71-1.964c-0.069-1.013-0.947-1.779-1.963-1.71 c-0.023,0.003-0.046,0.004-0.07,0.007c-0.979,0.104-1.709,0.966-1.641,1.956c0.068,0.991,0.907,1.745,1.892,1.715 C44.657,31.73,44.681,31.73,44.704,31.728"/>
			<path d="M51.107,21.716c0.044-0.001,0.09-0.002,0.135-0.005c1.929-0.133,3.387-1.806,3.254-3.738 c-0.133-1.928-1.806-3.385-3.734-3.253c-0.045,0.004-0.089,0.008-0.135,0.013c-1.864,0.2-3.25,1.838-3.121,3.722 C47.634,20.339,49.233,21.773,51.107,21.716"/>
			<path d="M49.613,8.117c0.042,0.018,0.084,0.036,0.125,0.052c1.804,0.697,3.833-0.201,4.532-2.007 c0.696-1.803-0.203-3.832-2.005-4.529c-0.043-0.016-0.086-0.031-0.129-0.045c-1.772-0.609-3.723,0.288-4.403,2.049 C47.051,5.399,47.892,7.375,49.613,8.117"/>
			<path d="M62.085,19.026c1.151,1.5,3.274,1.811,4.805,0.727c0.036-0.026,0.073-0.052,0.109-0.08 c1.533-1.177,1.822-3.377,0.644-4.913c-1.177-1.533-3.377-1.822-4.909-0.646c-0.037,0.029-0.072,0.058-0.106,0.086 C61.186,15.398,60.935,17.529,62.085,19.026"/>
			<path d="M40.09,7.895c0.05-0.001,0.102-0.003,0.152-0.006c2.174-0.149,3.817-2.035,3.667-4.213 c-0.149-2.173-2.034-3.815-4.208-3.667c-0.052,0.004-0.102,0.01-0.152,0.014c-2.101,0.226-3.664,2.072-3.518,4.194 C36.177,6.343,37.977,7.96,40.09,7.895"/>
			<path d="M41.388,12.901c0.695,2.173,2.98,3.394,5.16,2.787c0.052-0.014,0.106-0.029,0.158-0.045 c2.223-0.711,3.449-3.092,2.738-5.318c-0.712-2.222-3.093-3.449-5.314-2.738c-0.053,0.018-0.104,0.036-0.155,0.054 C41.847,8.411,40.694,10.731,41.388,12.901"/>
			<path d="M53.046,14.023c1.185,2.236,3.92,3.12,6.181,2.029c0.054-0.026,0.109-0.052,0.163-0.081 c2.287-1.212,3.159-4.053,1.944-6.343c-1.212-2.285-4.053-3.157-6.339-1.945c-0.054,0.03-0.105,0.06-0.159,0.089 C52.666,9.032,51.862,11.791,53.046,14.023"/>
			<path d="M62.813,21.847c-0.408-2.309-2.614-3.852-4.924-3.444c-0.055,0.01-0.107,0.021-0.162,0.032 c-2.223,0.482-3.685,2.637-3.285,4.893c0.398,2.258,2.511,3.782,4.764,3.471c0.055-0.007,0.108-0.014,0.164-0.024 C61.678,26.367,63.223,24.161,62.813,21.847"/>
			<path d="M31.275,13.241c0.438,2.473,2.75,4.142,5.218,3.801c0.059-0.007,0.118-0.016,0.178-0.026 c2.529-0.447,4.219-2.864,3.771-5.396c-0.447-2.528-2.863-4.218-5.392-3.771c-0.06,0.011-0.119,0.024-0.177,0.036 C32.439,8.412,30.838,10.772,31.275,13.241"/>
			<path d="M56.592,33.988c0.044,0.002,0.087,0.003,0.131,0.003c1.872,0,3.391-1.52,3.391-3.393 c0-1.871-1.519-3.39-3.391-3.39c-0.044,0-0.087,0.002-0.131,0.003c-1.813,0.069-3.262,1.559-3.262,3.387 C53.33,32.428,54.779,33.919,56.592,33.988"/>
			<path d="M62.241,35.578c0.034,0.013,0.068,0.025,0.104,0.037c1.492,0.481,3.094-0.339,3.576-1.833 c0.481-1.492-0.339-3.093-1.831-3.575c-0.035-0.012-0.071-0.021-0.106-0.032c-1.463-0.411-3.001,0.404-3.471,1.861 C60.041,33.496,60.813,35.057,62.241,35.578"/>
			<path d="M66.134,35.095c-0.048,0.021-0.096,0.044-0.143,0.067c-1.962,0.954-2.831,3.292-1.947,5.302 c0.886,2.012,3.199,2.951,5.227,2.149c0.048-0.02,0.097-0.039,0.145-0.06c2.059-0.906,2.994-3.312,2.087-5.372 C70.597,35.124,68.193,34.189,66.134,35.095"/>
			<path d="M53.383,32.559c-0.905-2.057-3.311-2.992-5.369-2.086c-0.048,0.021-0.095,0.045-0.143,0.068 c-1.96,0.954-2.831,3.292-1.947,5.301c0.886,2.012,3.199,2.951,5.227,2.149c0.049-0.02,0.099-0.039,0.146-0.06 C53.355,37.026,54.289,34.62,53.383,32.559"/>
			<path d="M61.725,47.538c0.705,1.601,2.545,2.348,4.159,1.711c0.038-0.017,0.077-0.031,0.116-0.048 c1.637-0.722,2.381-2.636,1.659-4.274c-0.721-1.637-2.634-2.381-4.271-1.66c-0.038,0.017-0.076,0.036-0.113,0.054 C61.715,44.079,61.023,45.939,61.725,47.538"/>
			<path d="M45.5,47.222c0.034-0.014,0.07-0.028,0.104-0.043c1.477-0.649,2.147-2.375,1.497-3.853 c-0.649-1.476-2.376-2.147-3.852-1.497c-0.034,0.016-0.068,0.032-0.103,0.048c-1.406,0.684-2.03,2.362-1.396,3.802 C42.387,47.124,44.046,47.797,45.5,47.222"/>
			<path d="M66.807,22.13c-1.764-0.294-3.458,0.855-3.823,2.619c-0.364,1.767,0.736,3.495,2.473,3.923 c0.042,0.01,0.083,0.021,0.126,0.029c1.808,0.374,3.576-0.791,3.951-2.599c0.372-1.807-0.792-3.576-2.599-3.949 C66.893,22.144,66.85,22.138,66.807,22.13"/>
			<path d="M49.5,43.433c0.031-0.001,0.063-0.001,0.094-0.004c1.326-0.088,2.331-1.236,2.244-2.563 c-0.089-1.326-1.236-2.332-2.562-2.244c-0.031,0.002-0.062,0.006-0.094,0.009c-1.281,0.134-2.237,1.257-2.152,2.553 C47.117,42.48,48.212,43.468,49.5,43.433"/>
			<path d="M41.31,38.542c0.086,1.296,1.182,2.286,2.47,2.25c0.031-0.001,0.063-0.002,0.093-0.004 c1.327-0.088,2.332-1.236,2.245-2.563c-0.089-1.326-1.236-2.331-2.562-2.244c-0.032,0.002-0.063,0.006-0.094,0.009 C42.181,36.124,41.223,37.248,41.31,38.542"/>
			<path d="M68.55,29.681c-1.282,0.134-2.238,1.258-2.152,2.553c0.085,1.297,1.182,2.286,2.47,2.25 c0.031-0.001,0.062-0.001,0.094-0.003c1.326-0.088,2.331-1.236,2.244-2.564c-0.089-1.326-1.236-2.331-2.563-2.243 C68.612,29.674,68.58,29.677,68.55,29.681"/>
			<path d="M52.171,48.399c1.178,0.243,2.33-0.516,2.574-1.693c0.243-1.177-0.516-2.33-1.693-2.573 c-0.027-0.005-0.056-0.01-0.083-0.014c-1.149-0.192-2.253,0.557-2.491,1.706c-0.237,1.151,0.479,2.277,1.611,2.556 C52.116,48.386,52.144,48.394,52.171,48.399"/>
			<path d="M50.025,54.085c-0.066,0.029-0.129,0.061-0.193,0.091c-1.826,0.89-2.953,2.668-3.089,4.576 c-0.091,0.044-0.18,0.087-0.271,0.133c-2.9,1.449-4.65,2.589-5.632,4.004c-0.045-1.785-0.05-2.775,0.007-4.523 c-0.011-0.613-0.023-1.17-0.034-1.666c-0.035-1.487-0.05-2.408-0.05-2.533c0-0.648,8.378-8.217,12.174-11.613 c0.893,1.697,2.643,2.873,4.676,2.951c0.07,0.003,0.143,0.006,0.214,0.006c3.045,0,5.517-2.473,5.517-5.521 c0-3.045-2.472-5.517-5.517-5.517c-0.071,0-0.144,0.003-0.214,0.005c-2.951,0.113-5.307,2.538-5.307,5.511 c0,0.755,0.153,1.475,0.428,2.131c-2.261,1.68-10.657,8.275-11.818,9.001c-0.12-0.195-0.181-0.873-0.197-1.893 c0.272-5.11,0.272-10.59,0.763-15.838c0.03-0.426,0.061-0.85,0.09-1.264c0.103-1.419,0.199-2.725,0.284-3.828 c0.57-0.046,1.143-0.174,1.701-0.391c0.071-0.028,0.146-0.057,0.216-0.087c3.055-1.323,4.46-4.877,3.135-7.935 c-1.322-3.054-4.875-4.459-7.93-3.136c-0.072,0.029-0.143,0.063-0.213,0.096c-2.911,1.396-4.221,4.851-2.929,7.833 c0.85,1.961,2.615,3.243,4.579,3.56c-0.136,0.594-0.26,1.351-0.374,2.217c-0.083,0.633-0.159,1.323-0.231,2.04 c-0.343,3.706-0.647,7.664-0.647,11.318c-1.825-2.738-3.137-5.475-4.405-8.316c1.208-0.951,2.057-2.361,2.259-4.009 c0.406-3.303-1.947-6.313-5.251-6.719c-0.078-0.009-0.155-0.016-0.232-0.022c-3.217-0.271-6.095,2.046-6.491,5.272 c-0.397,3.23,1.836,6.176,5.022,6.691c0.077,0.012,0.154,0.024,0.232,0.034c1.154,0.142,2.271-0.054,3.255-0.508 c1.925,4.494,4.903,9.197,4.455,13.756c-0.02,0.375-0.024,0.786-0.024,1.252c0,1.049,0.021,2.382-0.063,4.234 c-0.029,0.618-0.069,1.294-0.127,2.036c-0.235-0.33-0.476-0.654-0.723-0.976c-0.247-0.319-0.5-0.634-0.757-0.945 c-0.259-0.31-0.522-0.614-0.791-0.912c-1.535-1.376-3.023-2.902-4.587-4.346c0.744-1.317,0.948-2.933,0.428-4.479 c-0.971-2.886-4.102-4.441-6.989-3.47c-0.067,0.023-0.134,0.048-0.2,0.073c-2.762,1.048-4.221,4.097-3.273,6.915 c0.949,2.822,3.955,4.371,6.789,3.537c0.068-0.02,0.136-0.04,0.204-0.063c1.073-0.36,1.96-1.021,2.604-1.854 c1.5,1.36,2.858,2.895,3.937,4.731c0.343,0.555,0.641,1.104,0.902,1.642c2.609,5.627,0.991,11.402,0.744,17.353 c-0.032,0.351-0.063,0.709-0.095,1.074c-0.071,0.79-0.143,1.614-0.216,2.455c-0.476,5.491-0.98,11.764-1.206,14.588 c1.357,0.674,2.925,1.061,4.598,1.061c1.669,0,3.233-0.386,4.588-1.055c-0.593-2.758-1.507-8.345-2.026-14.839 c-0.084-1.049-0.159-2.121-0.218-3.211c-0.031-0.475-0.058-0.951-0.085-1.427c-0.259-2.957-0.473-6.016-0.565-9.064 c1.413-1.347,3.748-2.912,5.96-4.23c0.074,0.434,0.197,0.866,0.383,1.288c1.2,2.725,4.334,3.994,7.08,2.907 c0.066-0.026,0.133-0.053,0.197-0.082c2.788-1.229,4.053-4.487,2.823-7.277C56.069,54.122,52.812,52.856,50.025,54.085"/>
		</symbol>
		<symbol id="experience" viewBox="0 0 44.131 76.029">
			<title>Experience</title>
			<path d="M26.86,32.445v-6.607c1.116-0.398,1.919-1.452,1.919-2.703c0-1.587-1.291-2.878-2.877-2.878h-7.675 c-1.587,0-2.877,1.291-2.877,2.878c0,1.25,0.805,2.304,1.919,2.703v6.605C7.218,34.67,0,43.582,0,53.964 c0,12.167,9.899,22.065,22.066,22.065s22.065-9.897,22.065-22.065C44.129,43.582,36.911,34.671,26.86,32.445 M12.556,53.119 c1.05,0,1.901,1,1.901,2.235c0,1.235-0.851,2.235-1.901,2.235c-1.05,0-1.902-1-1.902-2.235 C10.654,54.12,11.506,53.119,12.556,53.119 M33.678,62.039c-2.09,3.871-6.349,6.548-11.578,6.548c-5.315,0-9.623-2.762-11.68-6.73 c-0.103-0.2-0.123-0.273-0.017-0.469c0.087-0.161,0.391-0.139,0.391-0.139h22.43c0,0,0.367-0.022,0.477,0.183 C33.84,61.688,33.817,61.781,33.678,62.039 M29.671,55.355c0-1.235,0.852-2.235,1.901-2.235c1.05,0,1.902,1,1.902,2.235 c0,1.235-0.852,2.235-1.902,2.235C30.523,57.59,29.671,56.589,29.671,55.355 M37.34,44.18c-0.104,0.054-0.217,0.08-0.328,0.08 c-0.25,0-0.495-0.135-0.62-0.374c-1.448-2.741-3.857-4.801-6.785-5.8c-0.366-0.127-0.562-0.524-0.438-0.889 c0.127-0.367,0.528-0.558,0.89-0.438c3.269,1.115,5.958,3.413,7.574,6.473C37.814,43.575,37.682,43.999,37.34,44.18"/>
			<path d="M17.808,9.201c1.449,0,2.629-1.18,2.629-2.629c0-1.449-1.18-2.629-2.629-2.629 c-1.449,0-2.629,1.18-2.629,2.629C15.179,8.021,16.359,9.201,17.808,9.201 M17.808,5.839c0.405,0,0.734,0.329,0.734,0.734 c0,0.405-0.329,0.733-0.734,0.733c-0.405,0-0.733-0.328-0.733-0.733C17.075,6.167,17.403,5.839,17.808,5.839"/>
			<path d="M19.698,12.329c0,1.948,1.585,3.534,3.534,3.534c1.948,0,3.534-1.586,3.534-3.534 c0-1.948-1.586-3.534-3.534-3.534C21.284,8.796,19.698,10.381,19.698,12.329 M24.264,12.33c0,0.57-0.462,1.033-1.033,1.033 c-0.57,0-1.033-0.463-1.033-1.033c0-0.571,0.463-1.033,1.033-1.033C23.802,11.297,24.264,11.76,24.264,12.33"/>
			<path d="M22.409,3.943c1.088,0,1.972-0.885,1.972-1.971C24.381,0.885,23.496,0,22.409,0 c-1.086,0-1.972,0.885-1.972,1.972C20.437,3.058,21.322,3.943,22.409,3.943 M22.409,1.435c0.296,0,0.536,0.241,0.536,0.536 s-0.24,0.536-0.536,0.536c-0.296,0-0.535-0.241-0.535-0.536C21.873,1.676,22.113,1.435,22.409,1.435"/>
		</symbol>
		<symbol id="muscle" viewBox="0 0 99.926 99.135">
			<title>Muscle</title>
			<path d="M69.728,93.683c-3.135,0.113-10.411,2.352-13.322,2.687c-2.911,0.337-18.808,0.113-27.988-5.374 c-9.181-5.483-11.979-7.499-13.435-8.283c-1.455-0.785-3.695-1.231-6.269-3.359c-2.575-2.126-8.061-5.374-8.621-11.307 c-0.56-5.933,1.568-3.694,2.351-8.396c0.784-4.702,1.119-9.18,5.15-16.121c4.03-6.941,7.949-12.091,10.747-16.233 c2.799-4.142,5.486-8.732,7.501-12.427c2.015-3.694,2.798-6.157,3.47-7.612c0.672-1.456,0.691-3.807,5.551-5.373 c4.86-1.568,4.077-2.127,7.659-1.792c3.582,0.335,5.374,0.336,8.956,1.456c3.583,1.119,4.479,1.119,6.494,2.462 c2.015,1.344,2.575,1.455,3.021,4.03c0.449,2.576,0.561,7.165,0.672,8.957c0.113,1.791-0.559,4.478-2.127,5.486 c-1.566,1.007-2.462,1.679-3.693,2.015c-1.231,0.336-2.799-0.336-3.583,0.56c-0.784,0.896-2.687,1.12-3.918,0.336 c-1.232-0.784-1.008-1.456-1.904-1.567c-0.895-0.111-1.679-0.224-2.238,0.336c-0.561,0.56-2.127,0-2.799-0.56 c-0.672-0.559-1.791-0.559-1.791-2.351c0-1.791-0.336-2.574-0.336-2.574s-2.015,4.589-2.351,6.717 c-0.336,2.126-1.231,12.651-0.896,16.345c0.335,3.695,0.224,8.061,0.335,9.292c0.113,1.231-0.223,4.367,0.56,4.479 c0.784,0.111,1.68-1.567,3.918-3.695c2.239-2.127,5.821-2.686,8.397-2.574c2.574,0.111,4.59,1.231,5.933,2.127 c1.343,0.896,3.247,2.91,4.478,4.254c1.231,1.344,2.128,2.016,2.128,2.016s2.127-1.455,5.148-2.464 c3.023-1.007,6.941-2.798,11.755-2.687c4.814,0.113,10.12,1.12,14.038,2.687c3.916,1.568,7.207,3.919,7.207,3.919v35.15 c0,0-1.377,2.854-3.467,3.639c-1.852,0.695-12.948,2.217-20.264,0.368C72.509,97.314,69.728,93.683,69.728,93.683"/>
		</symbol>
		<symbol id="cake" viewBox="0 0 27 26">
			<title>Cake</title>
			<path d="M23,6c-0.295,0-0.58,0.037-0.857,0.097c-0.123-1.821-1.624-3.264-3.476-3.264 c-0.415,0-0.808,0.085-1.177,0.218C16.34,1.223,14.318,0,12,0C8.478,0,5.627,2.807,5.52,6.303C5.051,6.11,4.539,6,4,6 c-2.209,0-4,1.791-4,4c0,2.152,1.703,3.894,3.833,3.982l1.604-1.604L7.059,14h0.758l1.621-1.622L11.059,14h0.758l1.621-1.622 L15.059,14h0.758l1.621-1.622L19.059,14h0.758l1.621-1.622l1.616,1.616C25.237,13.965,27,12.191,27,10C27,7.791,25.209,6,23,6 M21.5,13.566L20.066,15h-1.258l-1.371-1.371L16.066,15h-1.258l-1.371-1.371L12.066,15h-1.258l-1.371-1.371L8.066,15H6.809 l-1.371-1.371L4.066,15H4l2.65,11h13.625L23,15h-0.066L21.5,13.566z M9,25l-2.083-9h1L10,25H9z M11,25l-1.062-9h1L12,25H11z M14,25 h-1v-9h1V25z M15,25l1.062-9h1L16,25H15z M18,25h-1l2.062-9h1L18,25z"/>
    </symbol>
		<symbol id="hours" viewBox="0 0 45 60.5">
			<title>Hours</title>
      <path d="M42.8,4.4H2.2C1,4.4,0,3.4,0,2.2C0,1,1,0,2.2,0h40.6C44,0,45,1,45,2.2C45,3.4,44,4.4,42.8,4.4"/>
      <path d="M42.8,60.5H2.2c-1.2,0-2.2-1-2.2-2.2s1-2.2,2.2-2.2h40.6c1.2,0,2.2,1,2.2,2.2S44,60.5,42.8,60.5"/>
      <path d="M10.8,60.2c-0.7,0-1.3-0.3-1.8-0.9c-0.8-1-0.6-2.4,0.4-3.2l12.3-9.6c0.8-0.6,2-0.6,2.8,0l11.2,9 c1,0.8,1.1,2.2,0.3,3.2c-0.8,1-2.2,1.1-3.2,0.3L23,51.1l-10.9,8.5C11.8,60,11.3,60.2,10.8,60.2"/>
      <path d="M36.8,16.6H8.2c-1.2,0-2.2-1-2.2-2.2c0-1.2,1-2.2,2.2-2.2h28.6c1.2,0,2.2,1,2.2,2.2 C39,15.6,38,16.6,36.8,16.6"/>
      <path d="M5.6,60.5c-1.2,0-2.2-1-2.2-2.2v-1.7C3.3,48,3.9,43.1,16.6,34.5c2-1.2,2-4.2,2-4.2c0-2.8-1.9-4.2-2-4.3 C3.9,17.4,3.4,12.5,3.4,3.9V2.2C3.4,1,4.4,0,5.6,0s2.2,1,2.2,2.2v1.7C7.7,11,7.7,14.6,19,22.3c0.1,0.1,4,2.7,4,7.9 c0,0.2,0.1,5.4-4.1,8C7.7,45.8,7.7,49.4,7.8,56.5v1.7C7.8,59.5,6.8,60.5,5.6,60.5"/>
      <path d="M25.1,36.6c-0.6,0-1.2-0.2-1.6-0.7c-0.4-0.4-0.7-1-0.7-1.6c0-0.6,0.2-1.2,0.7-1.6c0.8-0.8,2.3-0.8,3.2,0 c0.4,0.4,0.7,1,0.7,1.6c0,0.6-0.2,1.2-0.7,1.6S25.7,36.6,25.1,36.6"/>
      <path d="M39.4,60.5c-1.2,0-2.2-1-2.2-2.2v-1.7c0.1-7.1,0.1-10.7-11.2-18.4c-4.1-2.5-4-7.8-4-8c0-5.2,3.9-7.8,4-7.9 C37.3,14.6,37.2,11.1,37.2,4V2.3c0-1.2,1-2.2,2.2-2.2c1.2,0,2.2,1,2.2,2.2V4c0.1,8.6-0.5,13.5-13.2,22.1c-0.1,0.1-2,1.4-2,4.2 c0,0.1,0,3,1.9,4.2c12.8,8.7,13.3,13.6,13.2,22.2v1.7C41.7,59.5,40.7,60.5,39.4,60.5"/>
    </symbol>
		<symbol id="attendee" viewBox="0 0 29.9 24">
			<title>People</title>
      <path d="M28.4,11.5c-0.4,0.5-0.9,1-1.5,1.4c0.6,0.6,1,1.5,1,2.5v5.2c0,0.8-0.6,1.4-1.4,1.4h-0.6h-8h-0.6h-3.1H3.3 c-0.8,0-1.4-0.6-1.4-1.4v-5.2c0-1.9,1.5-3.4,3.4-3.4h2.2h0.4h0.4c3.1,0,5.6-2.5,5.6-5.6V5.7c0-3.1-2.5-5.6-5.6-5.6H7.6 C4.5,0.1,2,2.6,2,5.7v0.7c0,1.2,0.4,2.3,1,3.2c0.2,0.3,0.4,0.5,0.6,0.7C1.5,11,0,13.1,0,15.4v5.2C0,22.5,1.5,24,3.4,24h14h8.5h0.6 c1.9,0,3.4-1.5,3.4-3.4v-5.2C29.9,13.8,29.3,12.5,28.4,11.5 M3.9,5.5c0-2,1.6-3.6,3.6-3.6h0.7c2,0,3.6,1.6,3.6,3.6v0.7 c0,2-1.6,3.6-3.6,3.6H7.9H7.5c-1.2,0-2.3-0.6-3-1.6C4.1,7.6,3.9,6.9,3.9,6.1V5.5z"/>
      <path d="M13.9,15.3v4.6h2v-4.6c0-1.9,1.5-3.4,3.4-3.4h2.2h0.4h0.4c3.1,0,5.6-2.5,5.6-5.6V5.6c0-3.1-2.5-5.6-5.6-5.6 h-0.7C18.5,0,16,2.5,16,5.6v0.7c0,1.2,0.4,2.3,1,3.2c0.2,0.3,0.4,0.5,0.6,0.7C15.4,11,13.9,13,13.9,15.3 M17.9,5.5 c0-2,1.6-3.6,3.6-3.6h0.7c2,0,3.6,1.6,3.6,3.6v0.7c0,2-1.6,3.6-3.6,3.6h-0.3h-0.4c-1.2,0-2.3-0.6-3-1.6c-0.4-0.6-0.6-1.3-0.6-2.1 V5.5z"/>
    </symbol>
		<symbol id="views" viewBox="0 0 143 241">
			<title>Video</title>
      <rect x="28" y="49" width="35" height="15"/>
      <rect x="28" y="177" width="35" height="15"/>
      <rect x="68" y="177" width="35" height="15"/>
      <path d="M135.5,0H97.7c-4.206,0-7.5,3.294-7.5,7.5c0,10.19-8.655,18.8-18.9,18.8c-10.156,0-18.811-8.619-18.9-18.8 c0-4.206-3.294-7.5-7.5-7.5H7.5C3.294,0,0,3.294,0,7.5v226c0,4.206,3.294,7.5,7.5,7.5H45c4.136,0,7.5-3.364,7.5-7.479 c0.088-10.673,8.17-18.721,18.8-18.721c10.687,0,18.812,8.048,18.9,18.7c0,4.065,3.435,7.5,7.5,7.5h37.8c4.206,0,7.5-3.294,7.5-7.5 V7.5C143,3.294,139.706,0,135.5,0z M128,64v113h-20v15h20v34h-23.637c-3.434-15.247-16.969-26.1-32.963-26.1 S41.871,210.753,38.437,226H15v-34h8v-15h-8V64h8V49h-8V15h23.357C41.934,30.134,55.735,41.3,71.3,41.3s29.366-11.166,32.942-26.3 H128v34h-20v15H128z"/>
      <path d="M91.6,120.5c0-2.247-1.047-4.46-2.871-5.979L64.162,95.548c-1.314-1.051-2.89-1.607-4.557-1.607 c-1.179,0-2.331,0.277-3.37,0.797C53.663,95.949,52,98.603,52,101.5v38c0,2.789,1.583,5.359,4.129,6.709l0.187,0.089 C57.373,146.751,58.503,147,59.5,147c1.519,0,3.112-0.504,4.486-1.42l24.814-19.159C90.553,124.96,91.6,122.747,91.6,120.5z M71.809,120.5L67,124.212v-7.424L71.809,120.5z"/>
      <rect x="68" y="49" width="35" height="15"/>
    </symbol>
		<symbol id="emotion" viewBox="0 0 100 100">
			<title>Emotion</title>
      <path d="M95,50.378h-4.7c6.783-10.37,5.843-24.432-3.073-33.769c-4.957-5.193-11.836-8.048-19.372-8.048 c-6.438,0-12.771,2.168-17.777,6.019c-5.009-3.851-11.34-6.019-17.774-6.019c-7.537,0-14.416,2.86-19.372,8.048 C4.005,25.957,3.07,40.034,9.845,50.378H5v3.201h7.308c0.469,0.527,0.941,1.05,1.458,1.545l36.311,36.315l36.26-36.262 c0.535-0.512,1.025-1.05,1.51-1.599H95V50.378z M17.565,21.035c3.736-3.915,8.97-6.067,14.738-6.067 c5.795,0,11.465,2.243,15.562,6.147l2.212,2.109l2.211-2.109c4.096-3.904,9.771-6.147,15.566-6.147 c5.768,0,11.001,2.157,14.737,6.067c7.873,8.25,7.633,21.321-0.529,29.343H61.724l-3.329-8.133l-5.998,16.389l-6.302-31.798 L38.54,50.378H18.091C9.932,42.41,9.672,29.302,17.565,21.035 M50.077,82.379l-28.792-28.8h19.592l4.48-13.965l6.121,30.867 l7.084-19.367l1.012,2.466h19.292L50.077,82.379z"/>
    </symbol>
		<symbol id="discussion" viewBox="0 0 51.999 42">
			<title>Discussion</title>
      <path d="M26.01,0C11.657,0,0.579,8.555,0.022,19.075C-0.475,28.446,7.47,38.318,16.244,42 c0,0-1.199-3.653-0.13-5.285c3.05,0.923,6.391,1.435,9.896,1.435c14.354,0.001,25.989-8.54,25.989-19.075S40.364,0,26.01,0 M26.01,33.151c-2.927,0-5.77-0.411-8.449-1.221c-0.479-0.145-0.966-0.215-1.447-0.215c-1.497,0-2.94,0.675-3.898,1.869 C7.76,29.643,4.764,24.078,5.015,19.34C5.44,11.299,14.663,5,26.01,5c11.377,0,20.989,6.446,20.989,14.075 S37.387,33.151,26.01,33.151 M28.999,20c0,1.657-1.343,3-3,3s-3-1.343-3-3c0-1.657,1.343-3,3-3S28.999,18.343,28.999,20 M39,20 c0,1.657-1.343,3-3,3s-3-1.343-3-3c0-1.657,1.343-3,3-3S39,18.343,39,20 M18.998,20c0,1.657-1.343,3-3,3s-3-1.343-3-3 c0-1.657,1.343-3,3-3S18.998,18.343,18.998,20"/>
    </symbol>
		<symbol id="conference" viewBox="0 0 32.4 57.6">
			<title>Conférence</title>
      <path d="M16.4,38.7c-5.2,0-9.3-4.2-9.3-9.3V9.3c0-5.2,4.2-9.3,9.3-9.3c5.2,0,9.4,4.2,9.4,9.3v20.1 C25.7,34.6,21.5,38.7,16.4,38.7 M32.4,29.1h-2.8c0,7.4-6,13.4-13.4,13.4s-13.4-6-13.4-13.4H0c0,8.5,6.5,15.4,14.8,16.1v9.6H5.1v2.8 h22.2v-2.8h-9.7v-9.6C25.9,44.5,32.4,37.6,32.4,29.1"/>
    </symbol>
		<symbol id="happy" viewBox="-151.3 155.6 84.1 84.1">
			<title>Happy</title>
      <path d="M-109.2,155.6c-23.2,0-42.1,18.9-42.1,42.1s18.9,42.1,42.1,42.1s42.1-18.9,42.1-42.1S-86.1,155.6-109.2,155.6z M-109.2,234.8c-20.4,0-37.1-16.6-37.1-37.1s16.6-37.1,37.1-37.1s37.1,16.6,37.1,37.1S-88.8,234.8-109.2,234.8z M-88.6,202h-41.3 c-1.1,0-2,0.9-2,2c0,14.8,11.4,22.6,22.6,22.6c11.3,0,22.6-7.8,22.6-22.6C-86.6,202.9-87.5,202-88.6,202z M-109.3,222.6 c-8.5,0-17.6-5.2-18.6-16.6h37.1C-91.6,217.4-100.8,222.6-109.3,222.6z M-125.7,189.9c0.8-0.8,1.9-1.3,3.1-1.3 c1.2,0,2.3,0.5,3.1,1.3c0.4,0.4,0.9,0.6,1.4,0.6s1-0.2,1.4-0.6c0.8-0.8,0.8-2,0-2.8c-1.6-1.6-3.7-2.4-5.9-2.4 c-2.2,0-4.3,0.9-5.9,2.4c-0.8,0.8-0.8,2,0,2.8C-127.8,190.7-126.5,190.7-125.7,189.9z M-99.2,189.9c0.8-0.8,1.9-1.3,3.1-1.3 c1.2,0,2.3,0.5,3.1,1.3c0.4,0.4,0.9,0.6,1.4,0.6s1-0.2,1.4-0.6c0.8-0.8,0.8-2,0-2.8c-1.6-1.6-3.7-2.4-5.9-2.4s-4.3,0.9-5.9,2.4 c-0.8,0.8-0.8,2,0,2.8C-101.2,190.7-100,190.7-99.2,189.9z"/>
    </symbol>
		<symbol id="party" viewBox="0 0 44.721 100">
			<title>Soirée</title>
      <path d="M38.767,69.328c-0.789-1.151-1.867-2.726-1.965-3.22c-0.053-0.682,0.455-1.807,0.992-2.996 c0.926-2.053,2.076-4.602,2.008-7.917c-0.145-6.74-5.645-10.063-7.324-10.918c-1.613-0.827-4.78-1.183-7.253-1.338V12.88 c0.773-0.533,2.281-1.622,2.281-2.003V1.562c0,0-1.683-1.562-5.146-1.562c-3.464,0-5.144,1.562-5.144,1.562v9.315 c0,0.381,1.506,1.47,2.28,2.003v30.06c-2.454,0.154-5.636,0.509-7.253,1.336c-1.682,0.857-7.181,4.181-7.323,10.919 c-0.069,3.313,1.083,5.866,2.008,7.917c0.537,1.189,1.043,2.314,0.996,2.963c-0.1,0.527-1.18,2.102-1.968,3.25 C3.584,72.786,0,78.015,0,84.229C-0.001,90.118,2.904,100,22.36,100c19.455,0,22.361-9.882,22.361-15.771 C44.722,78.015,41.138,72.786,38.767,69.328 M22.36,58.359c2.336,0,4.235,1.898,4.235,4.234c0,2.339-1.899,4.238-4.235,4.238 s-4.236-1.899-4.236-4.238C18.125,60.258,20.024,58.359,22.36,58.359 M22.36,95.485c-11.843,0-17.847-3.787-17.847-11.256 c0-4.815,2.985-9.171,5.164-12.352c1.523-2.219,2.622-3.822,2.743-5.429c0.139-1.832-0.598-3.465-1.378-5.194 c-0.815-1.805-1.658-3.672-1.608-5.965c0.089-4.232,3.744-6.423,4.861-6.995c0.727-0.37,2.915-0.667,5.2-0.828v9.306 c-2.146,1.06-3.63,3.264-3.63,5.818c0,3.586,2.908,6.495,6.494,6.495c3.587,0,6.494-2.909,6.494-6.495 c0-2.555-1.48-4.759-3.631-5.818v-9.303c2.312,0.164,4.498,0.467,5.199,0.824c1.119,0.572,4.773,2.762,4.863,6.996 c0.05,2.294-0.794,4.157-1.609,5.964c-0.778,1.729-1.516,3.361-1.377,5.192c0.121,1.609,1.22,3.214,2.742,5.434 c2.18,3.179,5.164,7.532,5.164,12.349C40.206,91.698,34.202,95.485,22.36,95.485"/>
    	<rect x="13.525" y="79.453" width="17.669" height="4.516"/>
    </symbol>
		<symbol id="loop" viewBox="0 0 96 63">
			<title>Infinite</title>
      <path d="M95.850,31.967 C95.850,14.359 85.058,0.585 69.012,0.585 C57.795,0.585 49.701,7.685 45.157,19.187 L44.731,19.187 C39.335,7.827 30.957,3.993 23.147,3.993 C11.645,3.993 0.427,12.939 0.427,30.831 C0.427,47.019 10.367,59.373 24.993,59.373 C32.945,59.373 40.897,54.971 45.725,44.747 L46.151,44.605 C50.979,55.965 59.215,62.923 70.858,62.923 C84.348,62.923 95.850,51.279 95.850,31.967 ZM86.762,31.683 C86.762,43.469 78.526,50.569 69.154,50.143 C60.350,50.143 53.251,44.321 50.127,33.529 C53.677,21.033 59.073,13.223 70.290,13.223 C79.804,13.223 86.762,20.465 86.762,31.683 ZM9.373,31.541 C9.373,20.323 17.041,15.921 24.425,15.921 C32.803,15.921 38.483,22.027 41.181,29.979 C38.341,40.629 33.371,47.587 24.141,47.587 C16.189,47.587 9.373,41.907 9.373,31.541 Z" class="cls-1"/>
    </symbol>
		<symbol id="airport" viewBox="0 0 24 24">
			<title>Airport</title>
      <path d="M 22.71875 -0.03125 C 21.51875 0.0296875 19.8375 1.06875 19.3125 1.59375 L 15.875 5 L 1.09375 5 L 0 6.40625 L 10 9.8125 L 13.28125 7.5625 L 6.90625 13.90625 L 2 14.8125 L 0 17 L 6 18 L 7 24 L 9.1875 22 L 10.09375 17.09375 L 16.4375 10.71875 L 14.1875 14 L 17.59375 24 L 19 22.90625 L 19 8.125 L 22.40625 4.6875 C 23.10625 3.9875 24.6875 1.3125 23.6875 0.3125 C 23.4625 0.0625 23.11875 -0.0515625 22.71875 -0.03125 z"></path>
    </symbol>
		<symbol id="link" viewBox="0 0 100 125">
			<title>Link</title>
      <path d="M82,32H51c-9.925,0-18,7.851-18,17.5V51h10v-1.5c0-4.136,3.589-7.5,8-7.5h31c4.411,0,8,3.589,8,8c0,4.506-2.419,8-4.5,8H76   c-2.761,0-5,2.238-5,5s2.239,5,5,5h9.5c7.995,0,14.5-8.075,14.5-18S91.925,32,82,32z"/>
      <path d="M57,50.5c0,4.136-3.589,7.5-8,7.5H18c-4.411,0-8-3.589-8-8c0-4.506,2.419-8,4.5-8H24c2.761,0,5-2.238,5-5s-2.239-5-5-5   h-9.5C6.505,32,0,40.075,0,50s8.075,18,18,18h31c9.925,0,18-7.851,18-17.5V49H57V50.5z"/>
    </symbol>
	</defs>
</svg>
