<svg xmlns="http://www.w3.org/2000/svg" viewBox="0 0 188 107" enable-background="new 0 0 188 107"><style type="text/css">.st0{fill:#144A82;}</style><g id="g5"><path id="path7" class="st0" d="M121.4 15.1c-7.9 0-15.8 2.4-22.6 6.3-5.8-4.1-13.2-6.5-21.4-6.4-17.9.1-35.3 11.8-42.4 28.1h1.3c6.9-12.7 22.7-22.4 39.5-22.4 7.2 0 13.3 1.4 18.3 3.8-4.1 3.1-7.8 6.9-10.7 11h2.5c3.3-3.5 7.3-6.7 11.8-9.1 3.9 2.4 7.1 5.5 9.4 9.1h3c-1.7-4.3-4.3-8.2-7.7-11.3 5.4-2.2 11.4-3.4 18.1-3.4 18.4 0 31.6 9.7 34.5 22.5h1.1c-2.2-16.5-16.4-28.3-34.7-28.2z"/><path id="path9" class="st0" d="M112.2 86.3c-7.2 0-13.3-1.4-18.3-3.8 4.1-3.1 7.8-6.8 10.7-11h-2.4c-3.3 3.5-7.3 6.7-11.8 9.1-3.9-2.4-7.1-5.5-9.4-9.1h-3c1.7 4.3 4.3 8.2 7.7 11.3-5.4 2.2-11.4 3.4-18.1 3.4-18.5 0-31.6-9.7-34.6-22.5h-1.1c2.3 16.5 16.5 28.3 34.7 28.2 7.9-.1 15.8-2.4 22.6-6.3 5.9 4.1 13.3 6.6 21.4 6.4 17.9-.1 35.3-11.8 42.4-28.1h-1.3c-6.8 12.7-22.7 22.4-39.5 22.4z"/><path id="path11" class="st0" d="M37.6 58c-.2.9-.3 1.7-.3 2.4.4 4.1 4.9 4.7 7.4 4.7 2.4 0 5.3-.2 6.6-.7.9-.4 3.1-1.4 3.7-3.8 0 0 1.1-3.7 1.4-5.5.3-1.8-.1-2.7-1-3.3-1.2-.7-6-.9-6.8-.9s-3.1-.1-3.2-1.1c-.2-1.1.4-2.5.8-3.3.5-1 2.9-.9 2.9-.9s2.5-.1 2.8.7c.2.5 0 1.6 0 1.6h5.5s.9-2.5-.2-4.6c-1.1-2-6.9-2.1-6.9-2.1s-4.2-.1-6.7.8c-2.4.9-3.1 3.6-3.1 3.6s-1 3.6-1 3.8c0 .3-.5 1.9.2 3.1.9 1.7 3.6 1.9 3.6 1.9s4.3.3 6.2.5c1.4.2 1.2 1.5 1.2 1.5s-.2 1.4-.6 2.6c0 0-.3 1.1-1.7 1.3-1.3.2-2.4.2-3.8.1-1.8-.1-1.9-.7-1.7-2.3l-5.3-.1z"/><path id="path13" class="st0" d="M103.7 60.1h7.6l.2 5.2h5.8l-1.6-24h-8.6l-11.3 24h5.9l2-5.2zm6.9-14.5l.1 10.3h-5l4.9-10.3z"/><path id="path15" class="st0" d="M149.5 52.5c.4-1.5 1-5.6 1-5.6s.4-2.4-1.2-4c-1-1.1-3.2-1.4-4.6-1.4h-11.2l-5.5 23.7h5.8l1.9-7.8h4.2l2.2 7.8h5.7l-2.4-8.1s1.4-.6 2.4-1.4c1.5-1 1.7-3.2 1.7-3.2zm-5.1-3.9s-.2 2.6-1.1 3.4c-.9.8-1.8.7-1.8.7h-4.6l1.3-6.2h4.5s1.2 0 1.6.7c.3.6.1 1.4.1 1.4z"/><path id="path17" class="st0" d="M20.5 41.4h-1.1s-4.1-.1-6.6 1c-3 1.2-3.7 4.5-3.7 4.5l-2.4 10.9s-.6 2.3.1 4.1c1.3 3.5 7.5 3.5 7.5 3.5h1s4.1 0 6.7-1c2.9-1.2 3.7-4.5 3.7-4.5 1.4-6.1 2.3-10.9 2.3-10.9s.6-2.3-.1-4.1c-1.3-3.5-7.4-3.5-7.4-3.5zm1.7 7.8l-1.9 9.1s-.2 1.2-1 1.8c-.7.5-3.3.5-3.3.5h-.7s-2.1 0-2.6-.9-.1-2.2-.1-2.2l1.9-9.1s.2-1.2 1-1.8c.7-.5 3.3-.5 3.3-.5h.7s2.1 0 2.6.8c.4 1 .1 2.3.1 2.3z"/><path id="path19" class="st0" d="M181.2 44.9c-1.3-3.5-7.5-3.5-7.5-3.5h-1.1s-4.1-.1-6.7 1c-3 1.3-3.7 4.5-3.7 4.5l-2.3 10.9s-.6 2.3.1 4.1c1.3 3.5 7.5 3.5 7.5 3.5h1s4.1 0 6.7-1c2.9-1.2 3.7-4.5 3.7-4.5 1.4-6.1 2.3-10.9 2.3-10.9s.6-2.3 0-4.1zm-5.7 4.3l-1.9 9.1s-.2 1.2-1 1.8c-.7.5-3.3.5-3.3.5h-.7s-2.1 0-2.6-.9l-.1-2.2 1.9-9.1s.2-1.2 1-1.8c.6-.6 3.2-.6 3.2-.6h.7s2.1 0 2.6.9c.6 1 .2 2.3.2 2.3z"/><path id="path21" class="st0" d="M88.2 48.9s.5-2.3-.1-4.1c-1.3-3.5-7.2-3.5-7.2-3.5h-1s-4-.1-6.5 1c-2.9 1.3-3.6 4.5-3.6 4.5l-2.2 10.9s-.6 2.3.1 4.1c1.3 3.5 7.3 3.5 7.3 3.5h1s4 0 6.5-1c2.8-1.2 3.7-4.5 3.7-4.5.3-.8.4-1.6.5-2.3h-5.6s-.1 1.6-1.3 2.5c-.7.5-3.2.5-3.2.5h-.7s-2.1 0-2.5-.9c-.4-.9-.1-2.2-.1-2.2l1.8-9.1s.2-1.2.9-1.8c.7-.5 3.2-.5 3.2-.5h.7s2 0 2.4.8c.4.7.3 1.7.2 2l5.7.1z"/></g></svg>