<svg version="1.1" id="wonderful" xmlns="http://www.w3.org/2000/svg" xmlns:xlink="http://www.w3.org/1999/xlink" x="0" y="0" viewBox="0 0 352.2 144.1" enable-background="new 0 0 352.2 144.1" xml:space="preserve"><circle fill="#FF4C18" cx="93.5" cy="85.6" r="4.7"/><path fill="#FF4C18" d="M104,106.5l-4.3-4.3v0c-0.4-0.4-0.7-1-0.7-1.7c0-0.7,0.3-1.3,0.7-1.7v0l4.3-4.3c1.3-1.3,1.3-3.3,0-4.6 c-1.3-1.3-3.3-1.3-4.6,0L95,94.2h0c-0.4,0.4-1,0.7-1.6,0.7c-0.6,0-1.2-0.3-1.6-0.7h0l-4.4-4.4c-1.3-1.3-3.3-1.3-4.6,0 c-1.3,1.3-1.3,3.3,0,4.6l4.3,4.3v0c0.5,0.4,0.8,1.1,0.8,1.8c0,0.7-0.3,1.3-0.8,1.7v0l-4.3,4.3c-1.3,1.3-1.3,3.3,0,4.6 c1.3,1.3,3.3,1.3,4.6,0l4.2-4.2h0c0.4-0.5,1.1-0.8,1.8-0.8c0.7,0,1.3,0.3,1.8,0.8h0l4.2,4.2c1.3,1.3,3.3,1.3,4.6,0 C105.2,109.8,105.2,107.7,104,106.5z"/><path fill="#252930" d="M89.5,54l-6.2,20.8c-0.1,0.4-0.7,0.4-0.9,0L76.2,54c-0.1-0.2-0.2-0.3-0.4-0.3l-4.7,0 c-0.2,0-0.4,0.1-0.4,0.3l-6.2,20.7c-0.1,0.4-0.7,0.4-0.9,0L57.4,54c-0.1-0.2-0.2-0.3-0.4-0.3h-5.1c-0.3,0-0.5,0.3-0.4,0.6l9.6,28.9 c0.1,0.2,0.2,0.3,0.4,0.3h5c0.2,0,0.4-0.1,0.4-0.3l6.1-19.9c0.1-0.4,0.7-0.4,0.9,0l6,19.9c0.1,0.2,0.2,0.3,0.4,0.3h4.9 c0.2,0,0.4-0.1,0.4-0.3l9.7-28.9c0.1-0.3-0.1-0.6-0.4-0.6h-4.9C89.7,53.7,89.5,53.8,89.5,54z"/><path fill="#252930" d="M109.5,53.6c-9,0-15.8,6.5-15.8,15c0,8.5,6.9,15.1,15.8,15.1c8.8,0,15.8-6.6,15.8-15.1 C125.3,60.2,118.3,53.6,109.5,53.6z M109.5,78.5c-5.5,0-10-4.4-10-9.9c0-5.4,4.5-9.8,10-9.8c5.6,0,9.9,4.3,9.9,9.8 C119.4,74,115,78.5,109.5,78.5z"/><path fill="#252930" d="M148.4,54.1v18.2c0,0.4-0.6,0.6-0.8,0.3l-14-18.7c-0.1-0.1-0.2-0.2-0.4-0.2h-4.7c-0.3,0-0.5,0.2-0.5,0.5V83 c0,0.3,0.2,0.5,0.5,0.5h4.8c0.3,0,0.5-0.2,0.5-0.5V64.9c0-0.4,0.6-0.6,0.8-0.3l13.9,18.7c0.1,0.1,0.2,0.2,0.4,0.2h4.7 c0.3,0,0.5-0.2,0.5-0.5V54.1c0-0.3-0.2-0.5-0.5-0.5h-4.7C148.6,53.7,148.4,53.9,148.4,54.1z"/><path fill="#252930" d="M169.9,53.7h-11.8c-0.3,0-0.5,0.2-0.5,0.5V83c0,0.3,0.2,0.5,0.5,0.5h11.7c9,0,15.5-6.3,15.5-14.9 C185.3,60,178.9,53.7,169.9,53.7z M170.1,78.3h-6.3c-0.3,0-0.5-0.2-0.5-0.5V59.3c0-0.3,0.2-0.5,0.5-0.5h5.8c5.5,0,10.1,4.5,10,10 C179.5,74.4,175.5,78.3,170.1,78.3z"/><path fill="#252930" d="M193.8,77.8v-6.3c0-0.3,0.2-0.5,0.5-0.5h13.3c0.3,0,0.5-0.2,0.5-0.5v-4.3c0-0.3-0.2-0.5-0.5-0.5h-13.3 c-0.3,0-0.5-0.2-0.5-0.5v-6.1c0-0.3,0.2-0.5,0.5-0.5h14.9c0.3,0,0.5-0.2,0.5-0.5v-4.3c0-0.3-0.2-0.5-0.5-0.5h-20.6 c-0.3,0-0.5,0.2-0.5,0.5V83c0,0.3,0.2,0.5,0.5,0.5h21.1c0.3,0,0.5-0.2,0.5-0.5v-4.3c0-0.3-0.2-0.5-0.5-0.5h-15.4 C194,78.3,193.8,78.1,193.8,77.8z"/><path fill="#252930" d="M231.6,74c-0.2-0.2-0.1-0.5,0.2-0.7c3.4-1.7,5.3-5,5.3-9.4c0-6.5-4.4-10.3-12.1-10.3h-11.7 c-0.3,0-0.5,0.2-0.5,0.5V83c0,0.3,0.2,0.5,0.5,0.5h4.8c0.3,0,0.5-0.2,0.5-0.5v-7.8c0-0.3,0.2-0.5,0.5-0.5h6c0.3,0,0.6,0,0.8,0 c0.2,0,0.3,0.1,0.4,0.2l5,8.3c0.1,0.1,0.2,0.2,0.4,0.2h5.4c0.4,0,0.6-0.4,0.4-0.7L231.6,74z M218.6,59.3c0-0.3,0.2-0.5,0.5-0.5h6 c4.4,0,6.6,1.8,6.6,5.2c0,3.6-2.2,5.4-6.6,5.4h-6c-0.3,0-0.5-0.2-0.5-0.5V59.3z"/><path fill="#252930" d="M240.4,54.1V83c0,0.3,0.2,0.5,0.5,0.5h4.8c0.3,0,0.5-0.2,0.5-0.5V72c0-0.3,0.2-0.5,0.5-0.5h5.8 c0.3,0,0.5-0.2,0.5-0.5v-4.2c0-0.3-0.2-0.5-0.5-0.5h-5.8c-0.3,0-0.5-0.2-0.5-0.5v-6.7c0-0.3,0.2-0.5,0.5-0.5h13.6 c0.2,0,0.5-0.2,0.5-0.4l0-4.3c0-0.3-0.2-0.5-0.5-0.5h-19.4C240.6,53.7,240.4,53.9,240.4,54.1z"/><path fill="#252930" d="M276.1,53.7c-0.3,0-0.5,0.2-0.5,0.5v16.9c0,4.6-2.7,7.4-7.3,7.4c-4.6,0-7.4-2.8-7.4-7.4v-9.4 c0-0.3-0.2-0.5-0.5-0.5h-4.8c-0.3,0-0.5,0.2-0.5,0.5v9.4c0,7.8,5,12.6,13,12.6c8,0,13-4.8,13-12.6V54.1c0-0.3-0.2-0.5-0.5-0.5 H276.1z"/><path fill="#252930" d="M290.4,77.8V54.1c0-0.3-0.2-0.5-0.5-0.5h-4.8c-0.3,0-0.5,0.2-0.5,0.5V83c0,0.3,0.2,0.5,0.5,0.5h17.3 c0.3,0,0.5-0.2,0.5-0.5v-4.3c0-0.3-0.2-0.5-0.5-0.5h-11.6C290.6,78.2,290.4,78,290.4,77.8z"/><path fill="#252930" d="M118.3,97c-0.1-0.2,0.1-0.4,0.3-0.4h1.2c0.1,0,0.3,0.1,0.3,0.2l2.2,8.2h0.1l2.9-8.4c0-0.1,0.2-0.2,0.3-0.2 h0.3c0.1,0,0.3,0.1,0.3,0.2l2.9,8.4h0.1l2.1-8.2c0-0.1,0.2-0.2,0.3-0.2h1.2c0.2,0,0.4,0.2,0.3,0.4l-3.4,11.9c0,0.1-0.2,0.2-0.3,0.2 h-0.3c-0.1,0-0.3-0.1-0.3-0.2l-3.1-8.8h-0.1l-3.1,8.8c0,0.1-0.2,0.2-0.3,0.2H122c-0.1,0-0.3-0.1-0.3-0.2L118.3,97z"/><path fill="#252930" d="M138.1,96.9c0-0.2,0.1-0.3,0.3-0.3h7.1c0.2,0,0.3,0.2,0.3,0.3v1c0,0.2-0.1,0.3-0.3,0.3h-5.6v3.6h4.7 c0.2,0,0.3,0.2,0.3,0.3v1c0,0.2-0.2,0.3-0.3,0.3h-4.7v3.8h5.6c0.2,0,0.3,0.2,0.3,0.3v1c0,0.2-0.1,0.3-0.3,0.3h-7.1 c-0.2,0-0.3-0.2-0.3-0.3V96.9z"/><path fill="#252930" d="M151.2,96.9c0-0.2,0.1-0.3,0.3-0.3h4c2.2,0,3.7,1.4,3.7,3.3c0,1.4-1,2.3-1.8,2.8c0.9,0.4,2.2,1.3,2.2,2.9 c0,2-1.6,3.4-3.9,3.4h-4.2c-0.2,0-0.3-0.2-0.3-0.3V96.9z M155.7,107.4c1.1,0,1.9-0.8,1.9-1.9c0-1.1-1-1.9-2.2-1.9H153v3.8H155.7z M155.4,102c1.1,0,1.8-0.8,1.8-1.9c0-1.1-0.7-1.8-1.8-1.8H153v3.7H155.4z"/><path fill="#252930" d="M171.5,96.9c0-0.2,0.1-0.3,0.3-0.3h7.1c0.2,0,0.3,0.2,0.3,0.3v1c0,0.2-0.1,0.3-0.3,0.3h-5.6v4.1h4.7 c0.2,0,0.3,0.2,0.3,0.3v1c0,0.2-0.2,0.3-0.3,0.3h-4.7v4.7c0,0.2-0.2,0.3-0.3,0.3h-1.2c-0.2,0-0.3-0.2-0.3-0.3V96.9z"/><path fill="#252930" d="M182.2,108.6l5.5-12c0.1-0.1,0.2-0.2,0.3-0.2h0.2c0.1,0,0.2,0.1,0.3,0.2l5.4,12c0.1,0.2,0,0.5-0.3,0.5h-1.1 c-0.2,0-0.3-0.1-0.4-0.3l-1.1-2.4h-5.8c-0.4,0.8-0.7,1.6-1.1,2.4c-0.1,0.1-0.2,0.3-0.4,0.3h-1.1C182.2,109,182.1,108.8,182.2,108.6 z M190.2,104.8l-2.2-4.9H188l-2.2,4.9H190.2z"/><path fill="#252930" d="M203.7,96.4c1.8,0,3.1,0.6,4.3,1.7c0.2,0.1,0.2,0.4,0,0.5l-0.8,0.8c-0.1,0.2-0.3,0.2-0.4,0 c-0.8-0.7-2-1.2-3.1-1.2c-2.5,0-4.5,2.1-4.5,4.6c0,2.5,1.9,4.6,4.5,4.6c1.3,0,2.2-0.5,3.1-1.2c0.2-0.1,0.3-0.1,0.4,0l0.8,0.8 c0.1,0.1,0.1,0.4,0,0.5c-1.2,1.2-2.7,1.7-4.3,1.7c-3.6,0-6.4-2.8-6.4-6.4S200.2,96.4,203.7,96.4z"/><path fill="#252930" d="M215,98.3h-2.9c-0.2,0-0.3-0.2-0.3-0.3v-1c0-0.2,0.1-0.3,0.3-0.3h7.6c0.2,0,0.3,0.2,0.3,0.3v1 c0,0.2-0.1,0.3-0.3,0.3h-2.9v10.4c0,0.2-0.2,0.3-0.3,0.3h-1.2c-0.2,0-0.3-0.2-0.3-0.3V98.3z"/><path fill="#252930" d="M230,96.4c3.6,0,6.4,2.9,6.4,6.4s-2.8,6.4-6.4,6.4c-3.6,0-6.4-2.8-6.4-6.4S226.4,96.4,230,96.4z M230,107.4 c2.5,0,4.6-2.1,4.6-4.6c0-2.5-2.1-4.6-4.6-4.6c-2.5,0-4.6,2.1-4.6,4.6C225.3,105.4,227.4,107.4,230,107.4z"/><path fill="#252930" d="M241.6,96.9c0-0.2,0.1-0.3,0.3-0.3h4.8c2.1,0,3.9,1.7,3.9,3.8c0,1.6-1.1,3-2.6,3.6l2.4,4.5 c0.1,0.2,0,0.5-0.3,0.5h-1.4c-0.1,0-0.2-0.1-0.3-0.2l-2.4-4.7h-2.7v4.5c0,0.2-0.2,0.3-0.3,0.3h-1.2c-0.2,0-0.3-0.2-0.3-0.3V96.9z M246.6,102.6c1.2,0,2.2-1,2.2-2.2c0-1.2-1-2.1-2.2-2.1h-3.2v4.3H246.6z"/><path fill="#252930" d="M258.5,103l-4.2-5.9c-0.1-0.2,0-0.5,0.3-0.5h1.3c0.1,0,0.2,0.1,0.3,0.2l3.2,4.5l3.2-4.5 c0.1-0.1,0.2-0.2,0.3-0.2h1.3c0.3,0,0.4,0.3,0.3,0.5l-4.2,5.9v5.7c0,0.2-0.2,0.3-0.3,0.3h-1.2c-0.2,0-0.3-0.2-0.3-0.3V103z"/></svg>