<svg fill="rgba(106, 124, 44, .5)" xmlns="http://www.w3.org/2000/svg" xmlns:xlink="http://www.w3.org/1999/xlink" version="1.1" x="0px" y="0px" viewBox="0 0 512 512" enable-background="new 0 0 512 512" xml:space="preserve"><g><circle cx="200.6" cy="243.2" r="21.3"></circle><circle cx="311.4" cy="243.2" r="21.3"></circle><path d="M299.7,363.7c-14.4,2.6-25-8.6-30.8-17.1c14.8-7,25.4-24,25.4-31.8c0-9.8-17.2-17.8-38.4-17.8c-21.2,0-38.4,8-38.4,17.8   c0,7.7,10.6,24.8,25.5,31.8c-5.8,8.5-16.3,19.6-30.8,17.1c-24.4-4.4-33.3-24.9-33.6-25.7l-15.8,6.4c0.5,1.2,12.6,30,46.4,36.1   c2.6,0.5,5.2,0.7,7.6,0.7c18.6,0,31.6-12.8,39.1-23.2c7.5,10.5,20.5,23.2,39.1,23.2c2.4,0,5-0.2,7.6-0.7   c33.8-6.1,45.9-34.8,46.4-36.1l-15.8-6.4C333.2,338.2,324.4,359.3,299.7,363.7z"></path><path d="M422,178.6c18.9-21.8,26-54.1,18.6-84.2c-1-4-2.4-8.8-5.3-13.2c-4.6-6.9-12.2-11.6-20.4-12.6c-12.9-1.5-23.9,5.9-33.2,12.1   c-14.3,9.6-29.5,18.1-45.3,25.2l-0.2,0.1C312.3,93,285,85.5,256,85.5c-29,0-56.3,7.5-80.2,20.6l-0.2-0.1   c-15.7-7.1-30.9-15.6-45.8-25.6C121,74.6,110,67.2,97.1,68.7c-8.2,1-15.9,5.7-20.4,12.6c-2.9,4.4-4.3,9.1-5.3,13.1   c-7.4,30.1-0.3,62.4,18.6,84.2c2.6,3,6.4,6.6,11,9.5c-9.8,22-15.4,46.4-15.4,72.1c0,99.3,78.1,183.2,170.5,183.2   s170.5-83.9,170.5-183.2c0-25.7-5.6-50.1-15.4-72.1C415.6,185.2,419.4,181.6,422,178.6z M391.7,94.6c7.1-4.8,14.6-9.8,21.2-9   c3.2,0.4,6.4,2.3,8.2,5c1.5,2.2,2.3,5.2,3,7.8c6.1,24.8,0.4,51.2-14.9,69c-1.8,2.1-3.8,3.9-5.7,5.4c-0.5-0.8-1-1.5-1.5-2.3   c-2.4-4.1-4.9-8.1-7.6-11.9c-0.9-1.3-1.9-2.6-2.8-3.9c-2.7-3.7-5.6-7.2-8.6-10.6c-1-1.1-2-2.3-3-3.4c-3.3-3.6-6.9-7.1-10.5-10.5   c-0.7-0.7-1.5-1.4-2.2-2.1c-4.5-4-9.1-7.7-14-11.2C366.4,110.5,379.2,103.1,391.7,94.6z M108.6,172.8c-1.9-1.5-3.9-3.3-5.7-5.4   c-15.3-17.7-21-44.1-14.9-69c0.6-2.6,1.5-5.6,3-7.8c1.8-2.7,5-4.7,8.2-5c0.5-0.1,0.9-0.1,1.4-0.1c6.3,0,13.2,4.6,20.3,9.4   c12.1,8.2,24.8,15.5,37.9,22c-4.9,3.5-9.5,7.2-14,11.2c-0.8,0.7-1.5,1.4-2.2,2.1c-3.6,3.3-7.1,6.8-10.5,10.4c-1,1.1-2,2.2-3,3.4   c-3,3.4-5.9,7-8.6,10.7c-0.9,1.3-1.9,2.5-2.8,3.8c-2.8,3.9-5.3,8-7.7,12.1C109.5,171.4,109,172.1,108.6,172.8z M256,426.5   c-74.8,0-139.1-61.7-151.2-139.7c8.2,10.4,19.9,20.6,36.9,28.2l6.9-15.6c-38.1-16.9-44.4-50-45.2-55.6c0.7-7.2,2.1-14.3,3.8-21.2   c6.9,15.4,19.7,32.8,43.6,41.5l5.8-16c-32.1-11.6-38.7-44.3-39.9-53.4c1.1-2.4,2.1-4.7,3.3-7.1c1.1-2.1,2.2-4.2,3.4-6.2   c1-1.8,2.1-3.6,3.1-5.3c1.2-1.9,2.4-3.9,3.6-5.7c1.6-2.3,3.3-4.6,5-6.8c1.9-2.5,3.9-5,6-7.4c1.3-1.5,2.6-3,3.9-4.5   c1.7-1.8,3.4-3.6,5.1-5.3c1.1-1.1,2.3-2.2,3.5-3.3c4.2-3.9,8.6-7.5,13.2-10.9c0.2-0.2,0.5-0.4,0.7-0.5c2.5-1.8,5.1-3.5,7.7-5.2   c23.5-15,51.1-23.8,80.7-23.8c29.6,0,57.2,8.8,80.7,23.8c2.6,1.7,5.2,3.4,7.7,5.2c0.1,0.1,0.3,0.2,0.4,0.3   c4.7,3.5,9.2,7.2,13.5,11.2c1.1,1,2.3,2.1,3.3,3.1c1.8,1.7,3.5,3.5,5.2,5.4c1.3,1.4,2.6,2.9,3.8,4.3c2.2,2.5,4.2,5.1,6.2,7.7   c1.6,2.1,3.2,4.3,4.8,6.5c1.3,1.9,2.5,3.8,3.7,5.8c1.1,1.7,2.1,3.5,3.1,5.3c1.2,2.1,2.3,4.1,3.4,6.3c1.1,2.2,2.1,4.4,3.1,6.6   c-1,8.3-7.2,42-40,53.8l5.8,16c24.2-8.7,37-26.4,43.8-41.9c1.6,6.8,3,13.7,3.7,20.8l0,0c-0.2,1.6-4.5,38.2-45.3,56.4l6.9,15.6   c17.2-7.7,29-18.1,37.2-28.6C395.3,364.5,331,426.5,256,426.5z"></path><path d="M256,136.7c19.4,0,38.6,4.8,55.6,14l8.1-15c-19.5-10.5-41.5-16-63.7-16s-44.2,5.5-63.7,16l8.1,15   C217.7,141.4,236.4,136.7,256,136.7z"></path><path d="M256,153.7c-16.3,0-32,3.8-46.5,11.2l7.8,15.2c12.1-6.2,25.1-9.3,38.7-9.3c13.6,0,26.6,3.1,38.7,9.3l7.8-15.2   C288,157.5,272.3,153.7,256,153.7z"></path></g></svg>
