<svg fill="rgba(106, 124, 44, .5)" xmlns="http://www.w3.org/2000/svg" xmlns:xlink="http://www.w3.org/1999/xlink" version="1.1" x="0px" y="0px" viewBox="0 0 512 512" enable-background="new 0 0 512 512" xml:space="preserve"><g><circle cx="204.9" cy="221.9" r="17"></circle><circle cx="307.1" cy="221.9" r="17"></circle><path d="M341.2,324.2v-32.1c21.4-15.2,34.1-39.5,34.1-65.9c0-44.6-36.3-81-81-81c-13.4,0-26.6,3.4-38.4,9.7   c-11.8-6.4-25-9.7-38.4-9.7c-44.6,0-81,36.3-81,81c0,26.4,12.7,50.7,34.1,65.9v32.1c0,47,38.2,85.2,85.2,85.2   S341.2,371.2,341.2,324.2z M256,392.4c-37.6,0-68.2-30.6-68.2-68.2v-41.3l-4-2.5c-18.8-11.8-30.1-32.1-30.1-54.2   c0-35.2,28.7-63.9,63.9-63.9c11.9,0,23.6,3.4,33.8,9.8l4.5,2.8l4.5-2.8c10.2-6.4,21.9-9.8,33.8-9.8c35.2,0,63.9,28.7,63.9,63.9   c0,22.1-11.3,42.4-30.1,54.2l-4,2.5v41.3C324.2,361.8,293.6,392.4,256,392.4z"></path><path d="M169.7,379.8l-0.8-1.3c-0.5-0.6-49.3-62.7-49.3-148.9c-0.1-0.8-6.7-80.4,39.7-120.6c9.5-8.2,27.1-23.5,96.7-23.5v-17   c-66.7,0-91.3,13.3-107.8,27.6c-15.6,13.5-25.9,30.4-32.8,47.6c-7-5.8-16.7-12-26.7-12.2c-6.9-0.1-13.1,2.6-17.9,7.9l-2.2,2.4v71.5   l0.1,1.3c0.3,2.2,8.2,50.3,37.6,57.4c11,65.8,44.4,110.6,49,116.5c3.9,6.7,34.1,54.9,100.8,54.9v-17   C196.2,426.5,170.8,381.6,169.7,379.8z M85.5,212.7v-63.5c0.9-0.4,1.8-0.5,2.8-0.6c6.5,0.1,15.5,7.3,21.1,12.8   c-9.7,35.2-7,67.3-6.9,69.1c0,7.4,0.4,14.6,1,21.6C93,243.3,87.1,222,85.5,212.7z"></path><path d="M441.3,139.5c-4.8-5.3-10.8-8.2-17.9-7.9c-10,0.2-19.7,6.4-26.8,12.2c-6.9-17.3-17.2-34.2-32.7-47.7   C347.3,81.8,322.7,68.5,256,68.5v17c69.6,0,87.2,15.3,96.7,23.5c46.3,40.1,39.8,119.8,39.7,121.4c0,85.4-48.8,147.5-49.3,148.1   l-0.8,1.3c-0.2,0.5-26.1,46.7-86.3,46.7v17c66.8,0,97-48.2,100.8-54.9c4.6-5.9,38.1-50.9,49-116.5c29.4-7.1,37.2-55.2,37.5-57.4   l0.1-72.8L441.3,139.5z M426.5,212.7c-1.5,9.3-7.4,30.6-18.1,39.3c0.6-6.8,1-13.7,1-20.8c0.2-2.2,2.8-34.5-6.9-69.8   c5.5-5.5,14.5-12.7,21.1-12.8c1.3,0.1,2,0.2,2.8,0.6V212.7z"></path><path d="M256,341.2c-32.7,0-43.1-19.9-43.5-20.8l-15.4,7.4c0.6,1.2,15,30.4,58.8,30.4c43.9,0,58.2-29.2,58.8-30.4l-15.4-7.4   C299,321.3,288.7,341.2,256,341.2z"></path><rect x="226.9" y="273" transform="matrix(0.7071 0.7071 -0.7071 0.7071 269.0855 -86.4976)" width="24.1" height="17"></rect><rect x="264.5" y="269.5" transform="matrix(0.7071 0.7071 -0.7071 0.7071 279.0705 -110.6035)" width="17" height="24.1"></rect></g></svg>
