<svg fill="rgba(106, 124, 44, .5)" xmlns="http://www.w3.org/2000/svg" xmlns:xlink="http://www.w3.org/1999/xlink" version="1.1" x="0px" y="0px" viewBox="0 0 512 512" enable-background="new 0 0 512 512" xml:space="preserve"><g><rect x="211.9" y="350.3" transform="matrix(-0.4591 -0.8884 0.8884 -0.4591 17.4472 728.2752)" width="37.1" height="17"></rect><path d="M256,213.4l-0.1-17.1c-12.9-0.4-20.4,4.3-24.7,8.4c-6.2,6.1-9.4,14.7-9.3,25.7c0.1,25.1-15.2,45.8-15.3,46l13.6,10.3   c0.8-1,18.9-25.3,18.8-56.3c0-6.2,1.4-10.7,4.1-13.4c1.8-1.8,5.5-3.8,12.2-3.6L256,213.4z"></path><path d="M290.1,230.5c0-11-3.1-19.7-9.3-25.7c-4.2-4.1-11.9-8.7-24.9-8.4l0.1,8.5l0.7,8.5c6.7-0.1,10.4,1.8,12.2,3.6   c2.8,2.7,4.2,7.2,4.1,13.4c-0.1,31,18,55.3,18.8,56.3l13.6-10.3C305.3,276.2,290,255.6,290.1,230.5z"></path><path d="M416.9,85.6c-1.8,0.2-43.5,5.8-66.1,47c-5.3,9.7-8.5,18.5-10.2,26.4c-0.1-0.3-0.3-0.5-0.4-0.8l-1.2-1.7   c-3.9-4.2-15-18.5-15-28.3c0-2.6,0.3-5.8,0.6-9.4c1.2-14.3,2.7-32-7.1-42.7c-4.6-5-11-7.6-18.9-7.6c-12.4,0-19.1,6.1-22.6,11.2   c-9.2,13.6-5.5,35.3-2.4,43.1c1.2,3,2.5,16-3.1,24.2c-3.1,4.5-7.8,6.7-14.5,6.7v17c15.7,0,24.2-7.7,28.6-14.2   c9.3-13.6,7.7-32.9,4.9-40.1c-2-5-4.1-20.2,0.7-27.2c1.2-1.7,3.2-3.7,8.5-3.7c3.9,0,5.5,1.2,6.3,2.1c4.7,5.1,3.5,19.9,2.7,29.7   c-0.3,4.1-0.6,7.8-0.6,10.8c0,16.7,14.9,34.7,18.7,39.1c2.5,4.6,4.3,7.6,6.7,11.6c2.6,4.3,6,10,11.9,20.4c0.3,0.6,0.6,1.2,0.8,1.5   c3.7,6.5,8.2,14.6,14.1,25.3c0.8,1.5,1.4,3,2,4.4c-17.9,0.9-30.4,15-28.6,34c16.3,1.6,29-7.5,32.9-21.4c1.1,5.9,1,11.4-0.6,16.6   c-4.5,15.1-19.1,22.9-19.2,22.9l-3.1,1.6l-1.1,3.3c-15.1,45.4-29.9,54.7-29.8,54.7l-10.2,5.1l7.8,8.3c15.7,16.7,6.9,41.9,6.9,41.9   c-12.5,28.9-46,28.9-60.4,28.9c-14.3,0-47.9,0-60.2-28.5c-0.1-0.3-9-25.6,6.7-42.4l7-7.9l-9.1-5.4c-0.1-0.1-14.9-9.3-30.1-54.9   l-1.1-3.3l-3-1.6c-0.1-0.1-14.7-7.9-19.2-22.9c-1.6-5.2-1.7-10.7-0.6-16.6c3.8,14,16.6,23,32.9,21.4c1.9-18.9-10.6-33.1-28.6-34   c0.7-1.5,1.2-2.9,2-4.4c5.9-10.7,10.5-18.8,14.1-25.3c0.2-0.3,0.5-0.8,0.8-1.5c5.9-10.4,9.4-16.2,11.9-20.5c2.4-4,4.2-7,6.7-11.6   c3.9-4.4,18.7-22.3,18.7-39.1c0-3-0.3-6.7-0.6-10.8c-0.8-9.8-2-24.6,2.7-29.7c0.8-0.9,2.4-2.1,6.3-2.1c5.3,0,7.3,2,8.5,3.7   c4.8,7,2.6,22.3,0.7,27.2c-2.9,7.2-4.4,26.5,4.9,40.1c4.4,6.5,12.9,14.2,28.6,14.2v-17c-6.7,0-11.5-2.2-14.5-6.7   c-5.6-8.3-4.3-21.3-3.1-24.2c3.1-7.8,6.8-29.5-2.4-43.1c-3.5-5.1-10.2-11.2-22.6-11.2c-7.9,0-14.2,2.6-18.9,7.6   c-9.8,10.6-8.3,28.4-7.1,42.7c0.3,3.6,0.6,6.8,0.6,9.4c0,8.7-9.2,22-15,28.3l-1.2,1.7c-0.2,0.3-0.3,0.5-0.4,0.8   c-1.7-7.9-4.9-16.6-10.2-26.4c-22.6-41.1-64.3-46.8-66.1-47l-9.6-1.2v77.8c0,52.1,28.8,68.9,44.7,74.2c-2.4,9.8-2.3,19.3,0.4,28.2   c5.2,17,18.4,27.1,24.5,31.1c11,32,22.1,47.7,29.4,55.2c-15.3,23.5-5.2,51.6-4.6,53.2c16.9,39.2,59.8,39.2,76,39.2   s59.1,0,76.2-39.7c0.5-1.3,10.5-29.3-4.7-52.8c7.3-7.5,18.4-23.2,29.4-55.2c6.1-3.9,19.3-14.1,24.5-31.1c2.7-9,2.9-18.4,0.4-28.2   c15.9-5.3,44.7-22.2,44.7-74.2V84.4L416.9,85.6z M102.6,162.3v-57.3c11.6,3.8,31.3,13.3,43.7,35.9c15.3,27.9,9,45.1,6.8,49.6   c-3.9,6.8-8.8,15.6-15.3,27.5c-0.6,1-1,2-1.5,3C125.4,217.6,102.6,205.8,102.6,162.3z M409.4,162.3c0,43.1-22.8,55.1-33.7,58.5   c-0.5-1-0.9-1.9-1.5-2.9c-6.5-11.8-11.4-20.5-15.3-27.3c-2.2-4.5-8.6-21.7,6.8-49.7c12.5-22.7,32-32.2,43.7-35.9V162.3z"></path><rect x="273" y="340.3" transform="matrix(-0.8884 -0.4591 0.4591 -0.8884 366.9767 806.8689)" width="17" height="37.1"></rect></g></svg>
