<svg fill="rgba(106, 124, 44, .5)" xmlns="http://www.w3.org/2000/svg" xmlns:xlink="http://www.w3.org/1999/xlink" version="1.1" x="0px" y="0px" viewBox="0 0 512 512" enable-background="new 0 0 512 512" xml:space="preserve"><g><path d="M410.8,201.1c20-13.3,32.5-35.9,32.5-60.3c0-39.9-32.5-72.3-72.3-72.3c-34.4,0-63.7,24.5-70.7,57.3   c-14.3-3.5-29.1-5.4-44.3-5.4c-15.2,0-30,1.9-44.2,5.4c-7-33.1-36.1-57.2-70.7-57.2c-39.9,0-72.3,32.5-72.3,72.3   c0,24.5,12.4,46.9,32.6,60.2c-20.6,29.1-32.8,64.1-32.8,101.2c0,87.2,71.8,141.3,187.5,141.3s187.5-54.2,187.5-141.3   C443.5,265.1,431.4,230.2,410.8,201.1z M370.9,85.5c30.5,0,55.3,24.8,55.3,55.3c0,19.1-10,36.7-26,46.7   c-21.9-25.7-50.9-45.7-83.6-57C321.5,104.9,344.2,85.5,370.9,85.5z M85.8,140.8c0-30.5,24.8-55.3,55.3-55.3   c26.9,0,49.5,19.1,54.3,45c-32.8,11.3-61.7,31.2-83.6,56.9C95.7,177.4,85.8,160,85.8,140.8z M256,426.5   c-106.7,0-170.5-46.5-170.5-124.3c0-89.3,78.1-164.8,170.5-164.8s170.5,75.5,170.5,164.8C426.5,380,362.7,426.5,256,426.5z"></path><circle cx="181.3" cy="267.2" r="19.8"></circle><path d="M238.8,264.5c0-37.7-43.2-68.2-70.1-68.2c-27,0-48.8,30.5-48.8,68.2s21.8,68.2,48.8,68.2   C195.6,332.7,238.8,302.2,238.8,264.5z M181.3,307.6c-22.3,0-40.4-18.1-40.4-40.4s18.1-40.4,40.4-40.4s40.4,18.1,40.4,40.4   S203.6,307.6,181.3,307.6z"></path><circle cx="330.7" cy="267.2" r="19.8"></circle><path d="M343.4,196.3c-27,0-70.1,30.5-70.1,68.2s43.2,68.2,70.1,68.2c27,0,48.8-30.5,48.8-68.2S370.3,196.3,343.4,196.3z    M330.7,307.6c-22.3,0-40.4-18.1-40.4-40.4s18.1-40.4,40.4-40.4s40.4,18.1,40.4,40.4S353,307.6,330.7,307.6z"></path><path d="M221.9,343.4c0,10.6,15.3,32,34.1,32c18.8,0,34.1-21.4,34.1-32c0-10.6-15.3-19.2-34.1-19.2   C237.2,324.2,221.9,332.8,221.9,343.4z"></path><path d="M217,384.6l-7.2,15.5c1.2,0.5,20.2,9.2,46.7,9.2c13.6,0,29.2-2.3,45.4-9.1l-6.6-15.7C254.7,401.6,217.3,384.8,217,384.6z"></path></g></svg>
