<svg fill="rgba(106, 124, 44, .5)" xmlns="http://www.w3.org/2000/svg" xmlns:xlink="http://www.w3.org/1999/xlink" version="1.1" x="0px" y="0px" viewBox="0 0 512 512" enable-background="new 0 0 512 512" xml:space="preserve"><g><circle cx="311.4" cy="243.2" r="21.3"></circle><ellipse cx="256" cy="307.1" rx="25.6" ry="17"></ellipse><circle cx="200.6" cy="243.2" r="21.3"></circle><path d="M294.4,162.2c-13.4,0-26.5,3.3-38.4,9.7c-11.8-6.4-25-9.7-38.4-9.7c-44.6,0-81,36.3-81,81c0,28.4,14.7,54.4,38.8,69   c-0.3,2.6-0.4,5.2-0.4,7.7c0,42.2,34.6,89.5,81,89.5s81-47.2,81-89.5c0-2.5-0.1-5-0.4-7.7c24.1-14.7,38.8-40.6,38.8-69   C375.3,198.6,339,162.2,294.4,162.2z M256,392.4c-27.1,0-49-20.9-58.6-45.7c13.9,9.5,34.2,19.6,58.4,20.1c0.6,0,1.1,0,1.7,0   c19.8,0,38.8-6.6,56.9-19.5C304.6,371.8,282.8,392.4,256,392.4z M323.4,300.1l-5.6,2.9l1.1,6.2c0.7,3.9,1,7.5,1,10.8   c0,0.2,0,0.3,0,0.5c-20.2,19.8-41.7,29.9-63.7,29.3c-32-0.5-57-22.3-64.1-29.2c0-0.2,0-0.4,0-0.6c0-3.4,0.3-6.9,1-10.8l1.1-6.2   l-5.6-2.9c-21.5-11-34.8-32.8-34.8-56.9c0-35.2,28.7-63.9,63.9-63.9c11.9,0,23.6,3.4,33.8,9.8l4.5,2.8l4.5-2.8   c10.2-6.4,21.9-9.8,33.8-9.8c35.2,0,63.9,28.7,63.9,63.9C358.3,267.3,344.9,289.1,323.4,300.1z"></path><path d="M443.5,132.4c0-35.2-28.7-63.9-63.9-63.9c-26.2,0-49.6,16.3-59.2,40c-19.7-9.3-41.5-14.5-64.4-14.5s-44.6,5.2-64.4,14.5   c-9.6-23.7-33.1-40-59.2-40c-35.2,0-63.9,28.7-63.9,63.9c0,27.1,17.2,51,42.1,60c-10.5,23.1-16.5,48.9-16.5,76.3   c0,96.3,72.6,174.7,161.9,174.7s161.9-78.4,161.9-174.7c0-27.4-6-53.2-16.5-76.3C426.3,183.4,443.5,159.5,443.5,132.4z M85.5,132.4   c0-25.8,21-46.9,46.9-46.9c19.7,0,37.3,12.6,44,30.7c-24.5,14.6-44.8,35.3-59.2,60.5C98.5,170.4,85.5,152.6,85.5,132.4z M256,426.5   c-79.9,0-144.9-70.7-144.9-157.7s65-157.7,144.9-157.7s144.9,70.7,144.9,157.7S335.9,426.5,256,426.5z M394.8,176.8   c-14.4-25.2-34.7-46-59.2-60.5c6.7-18.1,24.3-30.7,44-30.7c25.8,0,46.9,21,46.9,46.9C426.5,152.6,413.5,170.4,394.8,176.8z"></path></g></svg>
