<svg fill="rgba(106, 124, 44, .5)" xmlns="http://www.w3.org/2000/svg" xmlns:xlink="http://www.w3.org/1999/xlink" version="1.1" x="0px" y="0px" viewBox="0 0 512 512" enable-background="new 0 0 512 512" xml:space="preserve"><g><circle cx="153.7" cy="153.7" r="42.6"></circle><circle cx="358.3" cy="153.7" r="42.6"></circle><path d="M423.3,208.7c12.6-14.8,20.2-34,20.2-54.9c0-47-38.2-85.2-85.2-85.2c-35.4,0-65.9,21.7-78.7,52.6   c-16.5-1.9-30.6-1.9-47.2,0c-12.8-30.8-43.3-52.6-78.7-52.6c-47,0-85.2,38.2-85.2,85.2c0,20.9,7.6,40.1,20.2,54.9   c-13.2,22.5-20.2,47.6-20.2,72.9v0l0,0v0c0,89.3,84.1,161.9,187.5,161.9s187.5-72.6,187.5-161.9v0l0,0v0   C443.5,256.2,436.5,231.2,423.3,208.7z M358.3,85.5c37.6,0,68.2,30.6,68.2,68.2c0,18.8-7.6,35.8-19.9,48.1   c-0.4,0.4-0.8,0.7-1.2,1.1c-9,8.6-20.3,14.8-33,17.5c-0.1,0-0.3,0.1-0.4,0.1c-1.7,0.3-3.4,0.6-5.1,0.8c-0.6,0.1-1.2,0.2-1.7,0.3   c-1.4,0.1-2.9,0.2-4.3,0.2c-0.9,0-1.7,0.1-2.6,0.1c-37.6,0-68.2-30.6-68.2-68.2c0,0,0,0,0,0c0-3.2,0.3-6.3,0.7-9.4   c0.1-0.7,0.2-1.4,0.3-2c0.5-3.1,1.2-6.2,2.2-9.2C302.1,105.6,327.9,85.5,358.3,85.5z M153.7,85.5c30.4,0,56.2,20,65,47.6   c1,3,1.6,6.1,2.2,9.2c0.1,0.7,0.2,1.4,0.3,2c0.4,3.1,0.7,6.3,0.7,9.4c0,0,0,0,0,0c0,37.6-30.6,68.2-68.2,68.2   c-0.9,0-1.7-0.1-2.6-0.1c-1.4-0.1-2.9-0.1-4.3-0.2c-0.6-0.1-1.2-0.2-1.7-0.3c-1.7-0.2-3.4-0.4-5.1-0.8c-0.1,0-0.3-0.1-0.4-0.1   c-12.6-2.7-24-8.9-33-17.5c-0.4-0.4-0.8-0.7-1.2-1.1c-12.3-12.3-19.9-29.4-19.9-48.1C85.5,116.1,116.1,85.5,153.7,85.5z    M101.3,220.9c1.6,1.2,3.2,2.4,4.8,3.5c0,0,0,0,0,0c4.6,3.1,9.4,5.7,14.4,7.8c0.1,0,0.2,0.1,0.3,0.1c2.3,1,4.6,1.8,7,2.6   c0.5,0.2,1.1,0.3,1.7,0.5c1.9,0.6,3.9,1.1,5.9,1.5c0.8,0.2,1.5,0.3,2.3,0.5c1.9,0.4,3.8,0.6,5.7,0.9c0.8,0.1,1.6,0.2,2.4,0.3   c2.5,0.2,5,0.4,7.6,0.4c0.1,0,0.3,0,0.4,0c47,0,85.2-38.2,85.2-85.2v0v0c0-2.8-0.1-5.6-0.4-8.3c-0.1-1.3-0.4-2.6-0.6-3.9   c-0.2-1.3-0.3-2.6-0.6-3.8c13.1-1.3,24.1-1.3,37.2,0c-0.2,1.3-0.4,2.6-0.6,3.8c-0.2,1.3-0.4,2.6-0.6,3.9c-0.3,2.8-0.4,5.5-0.4,8.3   v0v0c0,47,38.2,85.2,85.2,85.2c0.1,0,0.3,0,0.4,0c2.6,0,5.1-0.2,7.6-0.4c0.8-0.1,1.6-0.2,2.4-0.3c1.9-0.2,3.8-0.5,5.7-0.9   c0.8-0.1,1.5-0.3,2.3-0.5c2-0.4,3.9-0.9,5.9-1.5c0.6-0.2,1.1-0.3,1.7-0.5c2.4-0.8,4.7-1.6,7-2.5c0.1,0,0.2-0.1,0.3-0.1   c5-2.1,9.8-4.7,14.4-7.8c0,0,0,0,0,0c1.6-1.1,3.3-2.3,4.8-3.5c10.3,19,15.7,39.7,15.7,60.7l0,0c0,32.9-68.5,68.2-170.5,68.2   S85.6,314.5,85.5,281.6l0,0C85.5,260.6,90.9,239.8,101.3,220.9z M256,426.5c-76.5,0-141.4-43.1-162.9-102.2   c32,25.6,92.2,42.5,162.9,42.5s130.9-16.9,162.9-42.5C397.4,383.4,332.5,426.5,256,426.5z"></path><circle cx="217.6" cy="302.9" r="12.8"></circle><circle cx="294.4" cy="302.9" r="12.8"></circle></g></svg>
