<svg fill="rgba(106, 124, 44, .5)" xmlns="http://www.w3.org/2000/svg" xmlns:xlink="http://www.w3.org/1999/xlink" version="1.1" x="0px" y="0px" viewBox="0 0 512 512" enable-background="new 0 0 512 512" xml:space="preserve"><g><path d="M441.7,194c-0.3-0.4-7-8.8-15.3-18.2c0-0.7,0.1-1.4,0.1-2.1c0-25-11-33.5-19.9-40.2l-0.7-0.6c-4.6-3.5-9.6-5.1-14.4-4.7   c-7.4,0.8-11.2,8.4-14.9,18.9c-7.3,0-14.8,0.5-20.2,0.9c-3.8-12.9-12.9-36.3-29.5-41.1c-17.5-5.1-44,12.8-54.8,20.9L169.5,91.5   c-3.3-6.7-11.3-19.6-25.8-22.4c-14.4-2.8-29.9,5.1-46.3,23.6c-30.9,34.8-30.5,65.6-27.5,80.8c3,15.5,11.3,28.4,21.6,33.5   c16.7,8.3,50.5,25,92.8,4.4c7,19.6,21.1,69.2,0.9,109.5c-8.1,16.2-21.2,29.2-38.8,39.1c0-0.1-0.1-0.1-0.1-0.2   c-1.5-1.9-3.5-4.9-5.8-8.5c-4.7-7.3-10.3-17.6-14.3-28.6c-2.1-5.5-3.5-11.1-4.6-16.6c-0.3-2.7-0.7-5.4-0.9-7.9c0-2.6,0-5,0-7.2   c0.3-2.3,0.5-4.3,0.8-6.2c0.2-1.9,0.8-3.4,1.1-4.7c0.8-2.7,1.2-4.2,1.2-4.2s-1,1.2-2.8,3.3c-0.8,1.1-2.2,2.4-3.2,4.1   c-1,1.7-2.2,3.7-3.5,5.8c-1.1,2.2-2.1,4.7-3.3,7.5c-1,2.7-1.8,5.7-2.8,8.8c-1.5,6.2-2.7,13-3.1,19.9c-1,13.7,0,27.6,1.5,37.9   c0.7,4.6,1.4,8.4,2,11.4c-1.8,0.5-3.5,1-5.4,1.4c-5.9-0.2-19.9,0.5-23.6,11.1c-3.6,10.2,4.7,21.6,27.9,38.1   c48,34.1,134.2,9.7,155.8,2.7c7,5.7,22.3,15.7,44.5,15.7h135.9V196.3L441.7,194z M426.4,426.5H307.6c-22.7,0-35.7-13.5-36.2-14.1   l-3.8-4.2l-5.3,1.9c-1,0.3-98.4,34.3-145.1,1.1c-13.2-9.4-18.4-15-20.3-17.8c1.8-0.3,4.3-0.5,6.4-0.4l1.2,0.1l1.1-0.2   c46.6-10.1,78.5-31.7,94.9-64.3c24.9-49.5,5.7-108.3-1.5-126.8c7.2-5,24.7-11.9,51.9,9.8c38,30.4,31.3,75.3,31,77.2l16.8,2.8   c0.4-2.3,8.8-56.5-37.2-93.3c-42.9-34.3-71.5-11.7-77.8-5.8c-38.1,22.2-68.3,7.3-84.5-0.7c-4.4-2.2-10.2-9.8-12.4-21.4   c-2.4-12.2-2.5-37,23.5-66.3c11.7-13.2,22.4-19.7,30.3-18.2c9.6,1.8,14.8,15.3,14.8,15.4l1.4,3.8l118.7,42l3.7-2.9   c12.3-9.8,34.7-23.2,43.3-20.7c8.3,2.4,16.5,22.8,19.5,35.8l1.7,7.5l7.6-0.9c0.1,0,9.1-1,18.9-1.4c-5.2,8-11.9,15.2-19.7,20.8   l10,13.8c10.3-7.5,19.3-17.2,25.8-28.2c1.3-2.2,2.4-5.5,4.3-11.2c1.1-3.4,3.2-9.7,4.9-13.4c0.1,0.1,0.2,0.1,0.2,0.2l0.8,0.6   c7.7,5.9,13.2,10.1,13.2,26.7c0,29.3-16.2,43-23.2,47.6l9.3,14.3c13.1-8.5,22.5-21.9,27.3-37.7c1.4,1.7,2.7,3.3,3.6,4.4V426.5z"></path><circle cx="307.1" cy="170.8" r="17"></circle></g></svg>
