<svg fill="rgba(106, 124, 44, .5)" xmlns="http://www.w3.org/2000/svg" xmlns:xlink="http://www.w3.org/1999/xlink" version="1.1" x="0px" y="0px" viewBox="0 0 512 512" enable-background="new 0 0 512 512" xml:space="preserve"><g><path d="M443.3,68.5h-8.5c-46.6,0-96.6,54.5-112.4,73.2l-63-41.7l21.4,84.9c-7,10.5-12.7,29.9-15.1,38.7l-36.2,21.6l-60.8-20.1   l9.1,54.2c-48.7-4.6-81.9-40.7-91.3-52.3c-2.7-3.3-7-4.5-11-3.1c-4,1.4-6.7,5.1-6.8,9.3C66.6,312.8,122.1,363,141,377.8   c-2.1,5.9-2.5,12.6-1.1,19.1c2.1,9.6,7.9,17.7,15.8,22.2c3.2,1.8,6.6,3,9.5,4.1c2.4,0.9,4.6,1.7,6.5,2.7c1.9,1,3.7,2.4,5.4,3.7   c1.6,1.2,3.2,2.3,4.8,3.4c7.9,5.1,17.6,8.2,30.5,9.6c5.3,0.6,10.5,0.9,15.8,0.9c36.4,0,72.4-14,98.9-39c3.5-3.3,6.8-6.8,10.1-10.2   c6-6.3,11.6-12.2,18.1-16.8c8-5.7,20-10.4,29.9-6.5c4,1.6,7.8,4.6,11.8,7.8c2.8,2.2,5.6,4.4,8.5,6.4c10.2,6.6,25,9.4,35,0.7   l2.9-2.6L443.3,68.5z M414.9,370.8c-2.5-1.6-4.8-3.5-7.2-5.4c-4.8-3.9-9.8-7.8-16.2-10.4c-13.8-5.5-31.1-2.3-46.1,8.5   c-7.8,5.6-14.3,12.4-20.5,18.9c-3.1,3.3-6.2,6.5-9.5,9.6c-26.7,25.2-64.5,37.7-101,33.6c-0.3,0-0.5-0.1-0.8-0.1   c15.5-7,35-19.1,49.4-39.3l-13.9-9.9c-19.3,27.1-50.6,37.5-60.8,40.3c-0.3-0.2-0.7-0.5-1-0.7c-2.3-1.7-4.7-3.5-7.5-5   c-3-1.6-6-2.7-8.8-3.7c-2.5-0.9-4.9-1.8-6.8-2.9c-3.8-2.2-6.5-6.2-7.6-11.1c-1.1-4.8-0.2-9.6,2.3-13.1l5.1-7.2l-7.3-4.9   c-0.7-0.4-62.6-42.7-70.3-116.1c19.2,18.6,54.5,44.8,101.6,44.8H198l-7.8-46.7l41.3,13.7l49-29.2l0.9-3.4   c3.8-15.2,10.6-34.1,14.8-38.3l3.4-3.4l-12.8-51l39.3,26l4.9-6.2c0.5-0.7,50.5-64.4,95.4-72l0.2,287.8   C423.1,374.6,418.4,373.1,414.9,370.8z"></path><ellipse cx="264.5" cy="307.1" rx="8.5" ry="8.5"></ellipse><path d="M170.6,382.4c-3.3,3.7-3.4,10.1,0.3,13.4c3.2,2.9,8.2,2.9,12.4,2c1.8-0.4,3.5-0.9,5.2-1.6c6.8-2.7,12.5-8,15.7-14.5   c-8,0.1-16,0.1-24,0.1L170.6,382.4z"></path></g></svg>
