<svg fill="rgba(106, 124, 44, .5)" xmlns="http://www.w3.org/2000/svg" xmlns:xlink="http://www.w3.org/1999/xlink" version="1.1" x="0px" y="0px" viewBox="0 0 512 512" enable-background="new 0 0 512 512" xml:space="preserve"><g><path d="M443.5,186.8c-5-3.4-124.1-83.3-175.1-104.5C216,60.4,140.2,68.8,121.9,91.1c-15.4,18.7-2.5,43.1,7.7,54.7   c40.2,43.8,78.4,74.4,112.8,95.9c-17.5,18.2-80.1,78.8-151.5,97.1l-1.8,0.7c-2.2,1.2-21.8,11.8-20.5,29.6   c1,15.4,17.2,28.5,49.3,39.9c42.7,15.2,90.3,6.8,132.3-0.6c35.5-6.3,69.1-12.2,88.8-0.9c18.5,10.6,33.8,17.9,44.9,23.2   c10.1,4.8,20.4,9.7,21.7,11.7h17.3c0-12.3-11.2-17.7-31.6-27.3c-11.5-5.5-25.8-12.3-43.7-22.6c-25.1-14.4-60-8.3-100.4-1.1   c-39.9,7-85.1,15-123.5,1.4c-6.2-2.2-11.4-4.4-15.8-6.4c8.2,1.4,17.9,2.1,29.1,2.1c20.9,0,47.1-2.4,78.6-7.1   c60.7-9.1,123.5-40.2,186.8-92.3l22.4-18.5l-28.9,3.2c-1.2,0.1-115.2,10.9-253.4-139.5c-0.2-0.2-17.2-20.1-7.3-32.2   c11.4-13.9,77.2-24.4,126.5-3.9c49.4,20.6,170.9,102.1,172.1,102.9L443.5,186.8z M89.9,360.2C90,360.2,90,360.2,89.9,360.2   C90,360.2,90,360.3,89.9,360.2L89.9,360.2z M213,364.3c-97.4,14.6-117.8,2-121.8-2.2c-1-1.1-1.1-1.7-1.1-2.1c2-1.9,4.3-3.6,6.1-4.6   c80.5-21.2,147.5-89.7,161.3-104.5c50.1,28.4,90.7,37.2,115.1,39.7C318.3,331.7,264.7,356.5,213,364.3z"></path><circle cx="288.3" cy="171.9" r="22.3"></circle></g></svg>
