<svg fill="rgba(106, 124, 44, .5)" xmlns="http://www.w3.org/2000/svg" xmlns:xlink="http://www.w3.org/1999/xlink" version="1.1" x="0px" y="0px" viewBox="0 0 512 512" enable-background="new 0 0 512 512" xml:space="preserve"><g><path d="M205.1,356.2c2.9,11,16,31.9,44.9,31.9h6l3-8.5l-3-8.5h-6c-22.3,0-27.8-17.3-28.4-19.3L205.1,356.2z"></path><circle cx="209.1" cy="230.4" r="12.8"></circle><path d="M153.7,168.6c-2.3-33.6-26.7-36.2-34.1-36.2v17c10.6,0,16.1,6.6,17.1,20.3c1.6,23.9,17.3,30.6,25.3,30.8l0.7-17   C161.4,183.4,154.6,182.1,153.7,168.6z"></path><path d="M358.3,168.6c-0.9,13.5-7.7,14.8-8.8,14.9l0.4,17c8.1-0.2,23.7-6.9,25.3-30.8c0.9-13.7,6.5-20.3,17.1-20.3v-17   C384.9,132.4,360.5,135,358.3,168.6z"></path><path d="M386.5,81.3c-15.8,0-53.2,21.3-69.9,31.3c-14.1-8-33.7-14.2-60.6-14.2s-46.5,6.3-60.6,14.2c-16.7-10-54.1-31.3-69.9-31.3   c-17.1,0-57,0-57,76.7v14.9l20.1-11.8c5,8.8,11.4,22.1,11.4,31c0,15.2,0.1,45.3,26.2,50.3c-1.4,35.6,0.8,88.4,23.7,111.2   c6.4,6.4,12.8,13.4,19,20.1c25.8,28,52.5,57,87.1,57v-17c-27.2,0-50.2-25-74.6-51.5c-6.3-6.9-12.9-14-19.5-20.6   c-6.4-6.4-10.7-16.8-13.6-29.1c8.1-24.1,19.7-43.2,24.6-43.7c6.7,0,12.1,5.9,17.3,11.7c4.1,4.6,8,8.9,13.2,10.6   c9.2,3.1,17.7-5.9,30.6-19.6c6.2-6.6,17.8-18.8,21.9-19.7c4.3,1,15.9,13.1,22.1,19.7c13,13.7,21.5,22.7,30.6,19.6   c5.2-1.8,9.1-6.1,13.2-10.6c5.2-5.7,10.6-11.7,17.3-11.7c4.9,0.5,16.5,19.6,24.6,43.7c-2.9,12.3-7.2,22.8-13.6,29.1   c-6.6,6.6-13.2,13.7-19.5,20.6c-24.4,26.5-47.4,51.5-74.6,51.5v17c34.7,0,61.3-29,87.1-57c6.2-6.7,12.7-13.7,19-20.1   c22.8-22.8,25.1-75.6,23.7-111.2c26.1-5,26.2-35.2,26.2-50.3c0-8.9,6.4-22.2,11.4-31l20.1,11.8V158   C443.5,81.3,403.5,81.3,386.5,81.3z M417.9,138l-4.5,6.7c-1.9,2.8-18.5,28.3-18.5,47.3c0,18.8-1.8,29.4-10.2,32.8   c-0.7-8.4-1.4-14.5-1.7-16.8l-16.9,2.1c1.8,14.5,3.8,42.1,2.1,68.9c-7.4-14.3-17.4-27.3-29.2-27.3c-14.2,0-23.3,10-29.9,17.2   c-1.4,1.5-3.2,3.5-4.6,4.8c-3.6-2.7-9.9-9.3-14.3-14c-14.8-15.6-24.5-25.1-34.4-25.1c-9.9,0-19.6,9.5-34.4,25.1   c-4.4,4.7-10.7,11.3-14.3,14c-1.4-1.3-3.2-3.3-4.6-4.8c-6.6-7.3-15.7-17.2-29.9-17.2c-11.7,0-21.7,13-29.2,27.3   c-1.7-26.8,0.3-54.4,2.1-68.9l-16.9-2.1c-0.3,2.3-1,8.4-1.7,16.8c-8.4-3.4-10.2-14-10.2-32.8c0-19.1-16.6-44.5-18.5-47.3l-4.5-6.7   l-7.9,4.7c3.8-44.4,25-44.4,39.4-44.4c8.3,0,33.7,12.9,54.7,25.1c-12.4,11.1-17,21.9-17.4,22.9l15.8,6.4   c0.6-1.5,16.3-37.3,77.3-37.3s76.7,35.8,77.3,37.3l15.8-6.4c-0.4-0.9-5-11.7-17.4-22.9c21-12.2,46.4-25.1,54.7-25.1   c14.4,0,35.5,0,39.4,44.4L417.9,138z"></path><path d="M262,388.1c28.8,0,42-20.9,44.9-31.9l-16.5-4.4c-0.6,2-6.1,19.3-28.4,19.3V388.1z"></path><path d="M256,294.4c0,0-34.1,0-34.1,17c0,17,13,42.6,34.1,42.6c21.1,0,34.1-25.6,34.1-42.6C290.1,294.4,256,294.4,256,294.4z"></path><circle cx="302.9" cy="230.4" r="12.8"></circle></g></svg>
