<svg fill="rgba(106, 124, 44, .5)" xmlns="http://www.w3.org/2000/svg" xmlns:xlink="http://www.w3.org/1999/xlink" version="1.1" x="0px" y="0px" viewBox="0 0 512 512" enable-background="new 0 0 512 512" xml:space="preserve"><g><circle cx="196.3" cy="230.4" r="17"></circle><circle cx="315.7" cy="230.4" r="17"></circle><path d="M268.4,387c-3.2-1.6-3.9-7.2-3.9-11.7v-26.2c19.5-2.8,34.1-14.8,34.1-29.2c0-16.5-19.1-29.8-42.6-29.8   s-42.6,13.4-42.6,29.8c0,14.4,14.6,26.5,34.1,29.2v26.2c0,4.5-0.7,10.1-3.9,11.7c-10.4,5.1-41.4-13.1-59-26.9L174,373.5   c7.4,5.9,41.2,31.2,65.6,31.2c4.1,0,8-0.7,11.4-2.4c1.6-0.8,3.3-1.9,5-3.4c1.6,1.5,3.3,2.6,5,3.4c3.4,1.7,7.3,2.4,11.4,2.4   c24.4,0,58.2-25.4,65.6-31.2l-10.5-13.4C309.8,374,278.8,392.1,268.4,387z"></path><path d="M443.5,307.1v-17h-9.4c0.6-5.6,0.9-11.3,0.9-17c0-32-9.5-61.9-25.7-87.5c2.7-7.6,17.2-51,17.2-108.5v-8.4l-8.4-0.1   c-2.5,0-53.6,0.2-98.8,45.3c-19.7-7.1-40.9-11.2-63.2-11.2c-22.3,0-43.5,4.1-63.2,11.2C147.6,68.7,96.5,68.5,94,68.5l-8.4,0.1V77   c0,57.5,14.5,100.9,17.2,108.5C86.5,211.1,77,241,77,273c0,5.8,0.3,11.4,0.9,17h-9.4v17h12.1c1.3,5.9,2.8,11.6,4.7,17.2H68.5v17   h23.6c27.7,60,90.7,102.1,163.8,102.1s136.1-42.1,163.8-102.1h23.6v-17h-16.8c1.9-5.6,3.5-11.3,4.7-17.2H443.5z M409.3,86.3   c-1,36.2-7.9,66-12.4,81.9c-16.2-19.7-36.9-35.9-60.5-47.3C364.6,95.3,394.9,88.2,409.3,86.3z M102.7,86.3c14.4,1.9,44.7,9,73,34.6   c-23.7,11.4-44.3,27.6-60.5,47.3C110.7,152.3,103.8,122.5,102.7,86.3z M408.4,324.3h-50.2v17h42.5c-26.6,50.3-81.4,85.1-144.8,85.1   s-118.2-34.7-144.8-85.1h42.5v-17h-50.2c-2.1-5.6-3.9-11.3-5.3-17.2h55.5v-17H95.1c-0.7-5.6-1.1-11.3-1.1-17   c0-84.6,72.6-153.4,161.9-153.4S417.9,188.5,417.9,273c0,5.8-0.4,11.4-1.1,17h-58.6v17h55.5C412.3,313,410.5,318.7,408.4,324.3z"></path></g></svg>
