<svg fill="rgba(106, 124, 44, .5)" xmlns="http://www.w3.org/2000/svg" xmlns:xlink="http://www.w3.org/1999/xlink" version="1.1" x="0px" y="0px" viewBox="0 0 512 512" enable-background="new 0 0 512 512" xml:space="preserve"><g><path d="M443.5,273.2c0,0-2.2-47.3-43.3-65.2c10.8-8.6,17.7-21.8,17.7-36.6c0-25.8-21-46.8-46.9-46.8c-5.2,0-10.3,0.8-15.1,2.5   c-6-19-23.7-32.6-44.6-32.6c-3.5,0-6.9,0.4-10.3,1.1c-8.9-16.4-26.1-27-45.1-27s-36.3,10.6-45.1,27c-3.4-0.7-6.8-1.1-10.3-1.1   c-20.5,0-38.1,13.3-44.3,32c-4.9-1.7-10.1-2.6-15.4-2.6c-25.8,0-46.9,21-46.9,46.8c0,15.1,7.2,28.5,18.4,37.1   c-41.7,17.7-44,65.4-44,65.4c36.5,0,57-11.9,68.5-23.9c-0.2,2.3-0.3,4.6-0.3,6.8c0,48.1,41,187.3,119.3,187.3   s119.3-139.2,119.3-187.3c0-2.3-0.1-4.5-0.3-6.8C386.5,261.3,407,273.2,443.5,273.2z M140.9,140.9c6,0,11.8,1.8,16.7,5.1l12.4,8.4   l0.9-15c0.9-15.7,13.9-28,29.6-28c4,0,7.9,0.8,11.6,2.4l8.4,3.5l3-8.6c4.8-13.9,17.8-23.2,32.4-23.2c14.6,0,27.6,9.3,32.4,23.2   l3,8.6l8.4-3.6c3.7-1.6,7.6-2.4,11.6-2.4c16,0,29,12.5,29.7,28.6l0.6,15.3l12.7-8.6c4.9-3.3,10.7-5.1,16.7-5.1   c16.4,0,29.8,13.4,29.8,29.8s-13.4,29.8-29.8,29.8c-5.3,0-10.5-1.5-15-4.2l-12.2-8.1l-1.9-1.3l0,0l0,0l-0.9,15   c-0.9,15.7-13.9,28-29.6,28c-4.7,0-9.5-1.2-14-3.7l-7.4-4l-4.1,7.3c-6.1,10.9-17.6,17.7-29.9,17.7c-12.3,0-23.8-6.8-29.9-17.7   L222,223l-7.4,4c-4.6,2.4-9.3,3.7-14,3.7c-16,0-29-12.5-29.7-28.6l0-15.7l-0.6,0.4l0,0l-2.8,1.9l-10.2,6.9   c-4.9,3.2-10.5,4.9-16.4,4.9c-16.4,0-29.8-13.4-29.8-29.8S124.5,140.9,140.9,140.9z M256,426.5c-61.5,0-102.3-121.2-102.3-170.3   c0-10.5,2.2-21.4,6.4-31.8c0.5,0.8,1.1,1.6,1.6,2.4c0.4,0.6,0.8,1.3,1.3,1.9c1.1,1.5,2.3,3,3.6,4.3c0.2,0.3,0.4,0.5,0.7,0.8   c1.6,1.6,3.3,3,5,4.4c0.5,0.4,1.1,0.7,1.6,1.1c1.3,0.9,2.7,1.8,4.1,2.6c0.7,0.4,1.4,0.7,2.2,1.1c1.3,0.6,2.7,1.2,4.1,1.7   c0.8,0.3,1.6,0.6,2.4,0.8c1.5,0.5,3,0.8,4.6,1.1c0.7,0.1,1.4,0.3,2.2,0.4c2.3,0.4,4.7,0.6,7.1,0.6c5.1,0,10.1-0.9,14.9-2.6   c9.7,12.5,24.6,19.9,40.5,19.9s30.8-7.5,40.5-19.9c4.9,1.7,9.9,2.6,14.9,2.6c2.4,0,4.7-0.2,7-0.6c0.7-0.1,1.4-0.3,2.2-0.4   c1.5-0.3,3-0.7,4.5-1.1c0.8-0.3,1.6-0.5,2.4-0.8c1.4-0.5,2.7-1.1,4-1.7c0.8-0.4,1.5-0.7,2.2-1.1c1.3-0.7,2.6-1.5,3.8-2.4   c0.6-0.4,1.2-0.8,1.8-1.3c1.6-1.2,3.1-2.5,4.5-3.9c0.2-0.2,0.4-0.3,0.5-0.5c1.6-1.6,3-3.3,4.3-5c0.4-0.5,0.8-1.1,1.1-1.7   c0.6-0.9,1.3-1.9,1.9-2.8c4.2,10.4,6.5,21.4,6.5,31.8C358.3,305.3,317.5,426.5,256,426.5z"></path><ellipse cx="204.9" cy="298.8" rx="17" ry="17"></ellipse><ellipse cx="307.1" cy="298.8" rx="17" ry="17"></ellipse><path d="M256,358.4c-14.1,0-25.6,7.6-25.6,17c0,9.4,11.4,25.5,25.6,25.5s25.6-16.1,25.6-25.5C281.6,366,270.1,358.4,256,358.4z"></path></g></svg>
