<svg fill="rgba(106, 124, 44, .5)" xmlns="http://www.w3.org/2000/svg" xmlns:xlink="http://www.w3.org/1999/xlink" version="1.1" x="0px" y="0px" viewBox="0 0 512 512" enable-background="new 0 0 512 512" xml:space="preserve"><g><path d="M443.5,153.7c0-47-38.2-85.2-85.2-85.2c-34.9,0-65.7,20.9-78.8,52.7c-7.7-0.9-15.5-1.6-23.5-1.6c-8,0-15.8,0.6-23.5,1.6   c-13.1-31.8-43.9-52.7-78.8-52.7c-47,0-85.2,38.2-85.2,85.2c0,22.7,9.1,44.2,25.1,60.2C83.1,234.5,77,257.4,77,281.6   c0,89.3,80.3,161.9,179,161.9s179-72.6,179-161.9c0-24.2-6-47-16.6-67.6C434.4,198,443.5,176.4,443.5,153.7z M296.9,124.1   c11.2-23.4,34.8-38.5,61.4-38.5c37.6,0,68.2,30.6,68.2,68.2c0,16.6-6.1,32.5-16.9,44.9c-0.5-0.7-1.1-1.4-1.6-2.1   c-2.3-3.3-4.7-6.6-7.2-9.7c-0.9-1.1-1.9-2.3-2.8-3.4c-1.6-1.9-3.1-3.8-4.8-5.6c4.8-6.9,7.7-15.1,7.7-24.1   c0-23.5-19.1-42.6-42.6-42.6c-15.3,0-28.5,8.1-36,20.2c-2.6-0.9-5.2-1.8-7.9-2.6c-0.1,0-0.2-0.1-0.4-0.1   c-5.5-1.7-11.1-3.2-16.8-4.4C297.1,124.1,297,124.1,296.9,124.1z M102.5,198.6c-10.8-12.4-16.9-28.3-16.9-44.9   c0-37.6,30.6-68.2,68.2-68.2c26.6,0,50.2,15.1,61.4,38.5c-0.1,0-0.2,0.1-0.3,0.1c-5.7,1.2-11.3,2.7-16.8,4.4   c-0.1,0-0.2,0.1-0.3,0.1c-2.7,0.8-5.4,1.7-8,2.6c-7.5-12.1-20.7-20.2-35.9-20.2c-23.5,0-42.6,19.1-42.6,42.6c0,9,3,17.1,7.8,24   c-1.7,1.9-3.3,3.8-4.9,5.8c-0.9,1.1-1.8,2.1-2.7,3.2c-2.6,3.2-5,6.5-7.4,10C103.5,197.3,102.9,197.9,102.5,198.6z M256,426.5   c-89.3,0-161.9-65-161.9-144.9c0-23.8,6.5-46.1,17.9-65.9c1.2-2,2.4-4,3.7-6c0.9-1.3,1.8-2.7,2.7-4c2.2-3.1,4.4-6.2,6.8-9.1   c0.9-1.1,1.7-2.1,2.6-3.2c3.3-3.8,6.7-7.5,10.4-10.9c0.2-0.2,0.4-0.4,0.5-0.5c2.1-2,4.2-3.9,6.4-5.7c0.2-0.2,0.5-0.4,0.8-0.6   c4.3-3.6,8.8-6.9,13.4-10c0.2-0.1,0.4-0.3,0.6-0.4c12.3-8.1,25.9-14.7,40.3-19.5c0.3-0.1,0.6-0.2,0.9-0.3c8.7-2.8,17.7-5,26.9-6.4   l0.2,0c9-1.4,18.2-2.3,27.7-2.3c9.4,0,18.7,0.9,27.7,2.3l0.2,0c9.2,1.4,18.2,3.6,26.9,6.4c0.3,0.1,0.6,0.2,1,0.3   c14.4,4.7,27.9,11.3,40.2,19.4c0.3,0.2,0.6,0.4,0.9,0.6c4.5,3,8.9,6.3,13,9.7c0.4,0.3,0.8,0.6,1.1,0.9c2.1,1.8,4.2,3.6,6.2,5.5   c0.5,0.4,0.9,0.9,1.3,1.3c3.4,3.2,6.6,6.6,9.6,10.1c1,1.1,2,2.3,2.9,3.5c2.2,2.7,4.3,5.5,6.3,8.4c1.1,1.5,2.1,3,3.1,4.6   c1.2,1.9,2.4,3.8,3.5,5.8c11.4,19.8,18,42.2,18,66.1C417.9,361.5,345.3,426.5,256,426.5z"></path><path d="M277.1,227.9c-3.8-8.9-11.9-14.5-21.1-14.5c0,0,0,0,0,0c-9.2,0-17.3,5.6-21.1,14.5l-37.1,86.9c-3.5,8.1-2.6,17.3,2.1,24.5   c4.4,6.7,11.3,10.5,19,10.5h74.2c7.7,0,14.6-3.8,19-10.5c4.8-7.3,5.6-16.4,2.2-24.5L277.1,227.9z M297.9,329.9   c-0.7,1.1-2.2,2.8-4.8,2.8h-74.2c-2.5,0-4.1-1.8-4.7-2.8c-1.3-1.9-2.1-5.1-0.7-8.4l37.1-86.9c1.1-2.6,3.1-4.1,5.4-4.1   c2.3,0,4.3,1.5,5.5,4.1l37.1,86.9C300,324.7,299.1,328,297.9,329.9z"></path><path d="M256,383.8c-14.1,0-25.6-11.5-25.6-25.6h-17c0,23.5,19.1,42.6,42.6,42.6s42.6-19.1,42.6-42.6h-17   C281.6,372.4,270.1,383.8,256,383.8z"></path><circle cx="187.8" cy="239" r="17"></circle><circle cx="324.2" cy="239" r="17"></circle></g></svg>
