<svg fill="rgba(106, 124, 44, .5)" xmlns="http://www.w3.org/2000/svg" xmlns:xlink="http://www.w3.org/1999/xlink" version="1.1" x="0px" y="0px" viewBox="0 0 512 512" enable-background="new 0 0 512 512" xml:space="preserve"><g><path d="M196.3,204.3c-4.1-30.2-29.9-40.5-30.9-40.9l-6.2,15.9c0.5,0.2,10,4.1,15.9,14.4c-13-1.3-28.4,1.4-37.1,15.9l14.6,8.8   c8.5-14.2,31.9-5.1,32.1-5l13.6,5.6L196.3,204.3z"></path><path d="M337,193.7c5.9-10.2,15.4-14.2,15.9-14.4l-6.2-15.9c-1.1,0.4-26.8,10.7-30.9,40.9l-2,14.5l13.6-5.4   c0.2-0.1,23.6-9.2,32.1,5l14.6-8.8C365.4,195.1,350,192.3,337,193.7z"></path><path d="M432.3,196.5l11.2,3.7v-11.8c0-39.3-31-54.5-55-58.5l8-16l-11.2-2c-42.4-7.7-77.3,21.3-89,32.6c-7.9-2.7-23.5-7.1-40.4-7.1   s-32.5,4.4-40.4,7.1c-11.7-11.3-46.5-40.3-89-32.6l-11.2,2l8,16c-24,4-55,19.2-55,58.5l0,11.7l11.1-3.6c0.6-0.2,11.2-3.5,18.5,0.7   L73.3,211l5.1,7.7c1.4,2.1,11,16,23.9,23.9c-8,7.7-16.8,18.9-16.8,31v4.2l3.3,2.6c2.1,1.6,14.6,9.4,57.9,10.2   c5.8,25.6,31.1,110.9,109.3,110.9s103.4-85.3,109.3-110.9c43.3-0.8,55.7-8.6,57.9-10.2l3.3-2.6v-4.2c0-12.1-8.8-23.3-16.8-31   c12.9-7.9,22.5-21.8,23.9-23.9l5.1-7.7l-24.8-13.8C421.1,193,431.7,196.3,432.3,196.5z M393.1,196.4l-3,7.1l23.6,13.1   c-6,6.9-14.5,14.4-21.3,14.4l-28,0l23.3,15.6c5.9,3.9,16.9,13.4,20.6,21.9c-6.8,2.1-21.5,5.1-49.9,5.1l-7.3,0l-1.1,7.2   c-0.7,4.2-17,103.6-93.8,103.6s-93.2-99.3-93.8-103.6l-1.1-7.2h-7.3c-28.6,0-43.3-3.1-50-5.1c3.6-8.5,14.7-18,20.6-21.9l23.3-15.6   h-28c-6.7,0-15.2-7.5-21.3-14.4l23.6-13.1l-3-7.1c-6.5-15.3-20.6-19-32.3-18.3c7.3-31.7,48.1-32.3,50-32.3h13.8l-9.1-18.2   c36.4,0.4,65.3,32,65.7,32.4l4.1,4.5l5.6-2.4c0.2-0.1,18.8-7.9,39.3-7.9c20.4,0,39.1,7.8,39.3,7.9l5.6,2.3l4.1-4.5   c0.3-0.4,29.2-32,65.7-32.4l-9,18.1l13.7,0.1c1.9,0,42.7,0.6,50,32.3C413.7,177.5,399.6,181.1,393.1,196.4z"></path><circle cx="204.9" cy="265.1" r="8.5"></circle><circle cx="307.1" cy="265.1" r="8.5"></circle><path d="M285.1,310.8c3.1-7.1,5-15.4,5-24.4c0-26.3-15-46.9-34.1-46.9s-34.1,20.6-34.1,46.9c0,9,1.9,17.3,5,24.4   c-10.5,6-22,18.3-22,39.5h17c0-15.6,8.9-22.5,14.6-25.3c5.5,5.2,12.2,8.3,19.5,8.3c7.3,0,14-3.1,19.5-8.3   c5.7,2.8,14.6,9.7,14.6,25.3h17C307.1,329.1,295.6,316.8,285.1,310.8z M256,316.2c-8.1,0-17-12.3-17-29.8s9-29.8,17-29.8   c8.1,0,17,12.2,17,29.8S264.1,316.2,256,316.2z"></path></g></svg>
